<?xml version="1.0" encoding="UTF-8" standalone="no"?>
<!DOCTYPE svg PUBLIC "-//W3C//DTD SVG 1.1//EN"
 "http://www.w3.org/Graphics/SVG/1.1/DTD/svg11.dtd">
<!-- Generated by graphviz version 2.43.0 (0)
 -->
<!-- Title: Core/Include/Core/Application.h Pages: 1 -->
<svg width="1388pt" height="192pt"
 viewBox="0.00 0.00 1387.93 192.00" xmlns="http://www.w3.org/2000/svg" xmlns:xlink="http://www.w3.org/1999/xlink">
<g id="graph0" class="graph" transform="scale(1 1) rotate(0) translate(4 188)">
<title>Core/Include/Core/Application.h</title>
<!-- Node1 -->
<g id="Node000001" class="node">
<title>Node1</title>
<g id="a_Node000001"><a xlink:title=" ">
<polygon fill="#999999" stroke="#666666" points="570.93,-184 400.93,-184 400.93,-165 570.93,-165 570.93,-184"/>
<text text-anchor="middle" x="485.93" y="-172" font-family="Helvetica,sans-Serif" font-size="10.00">Core/Include/Core/Application.h</text>
</a>
</g>
</g>
<!-- Node2 -->
<g id="Node000002" class="node">
<title>Node2</title>
<g id="a_Node000002"><a xlink:href="ApplicationEvent_8h.html" target="_top" xlink:title=" ">
<polygon fill="white" stroke="#666666" points="176.93,-129 12.93,-129 12.93,-110 176.93,-110 176.93,-129"/>
<text text-anchor="middle" x="94.93" y="-117" font-family="Helvetica,sans-Serif" font-size="10.00">Core/Event/ApplicationEvent.h</text>
</a>
</g>
</g>
<!-- Node1&#45;&gt;Node2 -->
<g id="edge1_Node000001_Node000002" class="edge">
<title>Node1&#45;&gt;Node2</title>
<g id="a_edge1_Node000001_Node000002"><a xlink:title=" ">
<path fill="none" stroke="#63b8ff" d="M423.11,-164.98C353.53,-155.55 241.49,-140.36 168.02,-130.41"/>
<polygon fill="#63b8ff" stroke="#63b8ff" points="168.3,-126.91 157.92,-129.04 167.36,-133.85 168.3,-126.91"/>
</a>
</g>
</g>
<!-- Node5 -->
<g id="Node000005" class="node">
<title>Node5</title>
<g id="a_Node000005"><a xlink:title=" ">
<polygon fill="#e0e0e0" stroke="#999999" points="213.93,-19 169.93,-19 169.93,0 213.93,0 213.93,-19"/>
<text text-anchor="middle" x="191.93" y="-7" font-family="Helvetica,sans-Serif" font-size="10.00">string</text>
</a>
</g>
</g>
<!-- Node1&#45;&gt;Node5 -->
<g id="edge29_Node000001_Node000005" class="edge">
<title>Node1&#45;&gt;Node5</title>
<g id="a_edge29_Node000001_Node000005"><a xlink:title=" ">
<path fill="none" stroke="#63b8ff" d="M400.78,-171.74C269.53,-168.14 30.09,-157.68 3.93,-129 -1.76,-122.76 -0.42,-117.23 3.93,-110 21.53,-80.77 111.66,-41.9 160.46,-22.53"/>
<polygon fill="#63b8ff" stroke="#63b8ff" points="161.89,-25.73 169.92,-18.82 159.33,-19.22 161.89,-25.73"/>
</a>
</g>
</g>
<!-- Node6 -->
<g id="Node000006" class="node">
<title>Node6</title>
<g id="a_Node000006"><a xlink:href="KeyEvents_8h.html" target="_top" xlink:title=" ">
<polygon fill="white" stroke="#666666" points="423.43,-129 290.43,-129 290.43,-110 423.43,-110 423.43,-129"/>
<text text-anchor="middle" x="356.93" y="-117" font-family="Helvetica,sans-Serif" font-size="10.00">Core/Event/KeyEvents.h</text>
</a>
</g>
</g>
<!-- Node1&#45;&gt;Node6 -->
<g id="edge5_Node000001_Node000006" class="edge">
<title>Node1&#45;&gt;Node6</title>
<g id="a_edge5_Node000001_Node000006"><a xlink:title=" ">
<path fill="none" stroke="#63b8ff" d="M465.21,-164.98C444.18,-156.34 411.38,-142.87 387.4,-133.02"/>
<polygon fill="#63b8ff" stroke="#63b8ff" points="388.62,-129.73 378.04,-129.17 385.96,-136.21 388.62,-129.73"/>
</a>
</g>
</g>
<!-- Node9 -->
<g id="Node000009" class="node">
<title>Node9</title>
<g id="a_Node000009"><a xlink:href="Layer_8h.html" target="_top" xlink:title=" ">
<polygon fill="white" stroke="#666666" points="272.43,-129 195.43,-129 195.43,-110 272.43,-110 272.43,-129"/>
<text text-anchor="middle" x="233.93" y="-117" font-family="Helvetica,sans-Serif" font-size="10.00">Core/Layer.h</text>
</a>
</g>
</g>
<!-- Node1&#45;&gt;Node9 -->
<g id="edge9_Node000001_Node000009" class="edge">
<title>Node1&#45;&gt;Node9</title>
<g id="a_edge9_Node000001_Node000009"><a xlink:title=" ">
<path fill="none" stroke="#63b8ff" d="M445.45,-164.98C401.12,-155.66 330.05,-140.71 282.69,-130.75"/>
<polygon fill="#63b8ff" stroke="#63b8ff" points="283.17,-127.28 272.67,-128.65 281.73,-134.13 283.17,-127.28"/>
</a>
</g>
</g>
<!-- Node10 -->
<g id="Node000010" class="node">
<title>Node10</title>
<g id="a_Node000010"><a xlink:href="Window_8h.html" target="_top" xlink:title=" ">
<polygon fill="white" stroke="#666666" points="530.43,-129 441.43,-129 441.43,-110 530.43,-110 530.43,-129"/>
<text text-anchor="middle" x="485.93" y="-117" font-family="Helvetica,sans-Serif" font-size="10.00">Core/Window.h</text>
</a>
</g>
</g>
<!-- Node1&#45;&gt;Node10 -->
<g id="edge11_Node000001_Node000010" class="edge">
<title>Node1&#45;&gt;Node10</title>
<g id="a_edge11_Node000001_Node000010"><a xlink:title=" ">
<path fill="none" stroke="#63b8ff" d="M485.93,-164.75C485.93,-157.8 485.93,-147.85 485.93,-139.13"/>
<polygon fill="#63b8ff" stroke="#63b8ff" points="489.43,-139.09 485.93,-129.09 482.43,-139.09 489.43,-139.09"/>
</a>
</g>
</g>
<!-- Node21 -->
<g id="Node000021" class="node">
<title>Node21</title>
<g id="a_Node000021"><a xlink:title=" ">
<polygon fill="#e0e0e0" stroke="#999999" points="727.43,-74 662.43,-74 662.43,-55 727.43,-55 727.43,-74"/>
<text text-anchor="middle" x="694.93" y="-62" font-family="Helvetica,sans-Serif" font-size="10.00">functional</text>
</a>
</g>
</g>
<!-- Node1&#45;&gt;Node21 -->
<g id="edge26_Node000001_Node000021" class="edge">
<title>Node1&#45;&gt;Node21</title>
<g id="a_edge26_Node000001_Node000021"><a xlink:title=" ">
<path fill="none" stroke="#63b8ff" d="M496.44,-164.98C512.99,-151.87 546.49,-126.52 577.93,-110 603.35,-96.64 633.7,-85.22 657.12,-77.29"/>
<polygon fill="#63b8ff" stroke="#63b8ff" points="658.3,-80.59 666.69,-74.11 656.1,-73.94 658.3,-80.59"/>
</a>
</g>
</g>
<!-- Node22 -->
<g id="Node000022" class="node">
<title>Node22</title>
<g id="a_Node000022"><a xlink:title=" ">
<polygon fill="#e0e0e0" stroke="#999999" points="644.93,-129 586.93,-129 586.93,-110 644.93,-110 644.93,-129"/>
<text text-anchor="middle" x="615.93" y="-117" font-family="Helvetica,sans-Serif" font-size="10.00">memory</text>
</a>
</g>
</g>
<!-- Node1&#45;&gt;Node22 -->
<g id="edge27_Node000001_Node000022" class="edge">
<title>Node1&#45;&gt;Node22</title>
<g id="a_edge27_Node000001_Node000022"><a xlink:title=" ">
<path fill="none" stroke="#63b8ff" d="M506.82,-164.98C528.02,-156.34 561.06,-142.87 585.23,-133.02"/>
<polygon fill="#63b8ff" stroke="#63b8ff" points="586.73,-136.19 594.67,-129.17 584.09,-129.7 586.73,-136.19"/>
</a>
</g>
</g>
<!-- Node23 -->
<g id="Node000023" class="node">
<title>Node23</title>
<g id="a_Node000023"><a xlink:title=" ">
<polygon fill="#e0e0e0" stroke="#999999" points="694.93,-129 662.93,-129 662.93,-110 694.93,-110 694.93,-129"/>
<text text-anchor="middle" x="678.93" y="-117" font-family="Helvetica,sans-Serif" font-size="10.00">set</text>
</a>
</g>
</g>
<!-- Node1&#45;&gt;Node23 -->
<g id="edge28_Node000001_Node000023" class="edge">
<title>Node1&#45;&gt;Node23</title>
<g id="a_edge28_Node000001_Node000023"><a xlink:title=" ">
<path fill="none" stroke="#63b8ff" d="M520.88,-164.99C553,-157 602.12,-144.37 653.28,-129.04"/>
<polygon fill="#63b8ff" stroke="#63b8ff" points="654.29,-132.39 662.85,-126.15 652.26,-125.69 654.29,-132.39"/>
</a>
</g>
</g>
<!-- Node24 -->
<g id="Node000024" class="node">
<title>Node24</title>
<g id="a_Node000024"><a xlink:title=" ">
<polygon fill="#e0e0e0" stroke="#999999" points="760.43,-129 713.43,-129 713.43,-110 760.43,-110 760.43,-129"/>
<text text-anchor="middle" x="736.93" y="-117" font-family="Helvetica,sans-Serif" font-size="10.00">vector</text>
</a>
</g>
</g>
<!-- Node1&#45;&gt;Node24 -->
<g id="edge30_Node000001_Node000024" class="edge">
<title>Node1&#45;&gt;Node24</title>
<g id="a_edge30_Node000001_Node000024"><a xlink:title=" ">
<path fill="none" stroke="#63b8ff" d="M531.17,-164.96C573.2,-156.87 637.78,-144.05 703.11,-129.09"/>
<polygon fill="#63b8ff" stroke="#63b8ff" points="704.22,-132.43 713.18,-126.77 702.65,-125.61 704.22,-132.43"/>
</a>
</g>
</g>
<!-- Node3 -->
<g id="Node000003" class="node">
<title>Node3</title>
<g id="a_Node000003"><a xlink:href="Event_8h.html" target="_top" xlink:title=" ">
<polygon fill="white" stroke="#666666" points="235.93,-74 125.93,-74 125.93,-55 235.93,-55 235.93,-74"/>
<text text-anchor="middle" x="180.93" y="-62" font-family="Helvetica,sans-Serif" font-size="10.00">Core/Event/Event.h</text>
</a>
</g>
</g>
<!-- Node2&#45;&gt;Node3 -->
<g id="edge2_Node000002_Node000003" class="edge">
<title>Node2&#45;&gt;Node3</title>
<g id="a_edge2_Node000002_Node000003"><a xlink:title=" ">
<path fill="none" stroke="#63b8ff" d="M108.75,-109.98C122.09,-101.77 142.51,-89.18 158.24,-79.49"/>
<polygon fill="#63b8ff" stroke="#63b8ff" points="160.19,-82.4 166.87,-74.17 156.52,-76.44 160.19,-82.4"/>
</a>
</g>
</g>
<!-- Node4 -->
<g id="Node000004" class="node">
<title>Node4</title>
<g id="a_Node000004"><a xlink:title=" ">
<polygon fill="#e0e0e0" stroke="#999999" points="151.93,-19 95.93,-19 95.93,0 151.93,0 151.93,-19"/>
<text text-anchor="middle" x="123.93" y="-7" font-family="Helvetica,sans-Serif" font-size="10.00">sstream</text>
</a>
</g>
</g>
<!-- Node3&#45;&gt;Node4 -->
<g id="edge3_Node000003_Node000004" class="edge">
<title>Node3&#45;&gt;Node4</title>
<g id="a_edge3_Node000003_Node000004"><a xlink:title=" ">
<path fill="none" stroke="#63b8ff" d="M171.78,-54.98C163.43,-47.23 150.9,-35.58 140.76,-26.14"/>
<polygon fill="#63b8ff" stroke="#63b8ff" points="142.97,-23.42 133.26,-19.17 138.2,-28.54 142.97,-23.42"/>
</a>
</g>
</g>
<!-- Node3&#45;&gt;Node5 -->
<g id="edge4_Node000003_Node000005" class="edge">
<title>Node3&#45;&gt;Node5</title>
<g id="a_edge4_Node000003_Node000005"><a xlink:title=" ">
<path fill="none" stroke="#63b8ff" d="M182.75,-54.75C184.19,-47.8 186.26,-37.85 188.07,-29.13"/>
<polygon fill="#63b8ff" stroke="#63b8ff" points="191.55,-29.59 190.15,-19.09 184.69,-28.17 191.55,-29.59"/>
</a>
</g>
</g>
<!-- Node6&#45;&gt;Node3 -->
<g id="edge6_Node000006_Node000003" class="edge">
<title>Node6&#45;&gt;Node3</title>
<g id="a_edge6_Node000006_Node000003"><a xlink:title=" ">
<path fill="none" stroke="#63b8ff" d="M328.66,-109.98C298.98,-101.05 252.15,-86.94 219.18,-77.02"/>
<polygon fill="#63b8ff" stroke="#63b8ff" points="220.02,-73.61 209.43,-74.08 218,-80.32 220.02,-73.61"/>
</a>
</g>
</g>
<!-- Node7 -->
<g id="Node000007" class="node">
<title>Node7</title>
<g id="a_Node000007"><a xlink:href="KeyCodes_8h.html" target="_top" xlink:title=" ">
<polygon fill="white" stroke="#666666" points="421.93,-74 291.93,-74 291.93,-55 421.93,-55 421.93,-74"/>
<text text-anchor="middle" x="356.93" y="-62" font-family="Helvetica,sans-Serif" font-size="10.00">Core/Event/KeyCodes.h</text>
</a>
</g>
</g>
<!-- Node6&#45;&gt;Node7 -->
<g id="edge7_Node000006_Node000007" class="edge">
<title>Node6&#45;&gt;Node7</title>
<g id="a_edge7_Node000006_Node000007"><a xlink:title=" ">
<path fill="none" stroke="#63b8ff" d="M356.93,-109.75C356.93,-102.8 356.93,-92.85 356.93,-84.13"/>
<polygon fill="#63b8ff" stroke="#63b8ff" points="360.43,-84.09 356.93,-74.09 353.43,-84.09 360.43,-84.09"/>
</a>
</g>
</g>
<!-- Node8 -->
<g id="Node000008" class="node">
<title>Node8</title>
<g id="a_Node000008"><a xlink:title=" ">
<polygon fill="#e0e0e0" stroke="#999999" points="302.93,-19 252.93,-19 252.93,0 302.93,0 302.93,-19"/>
<text text-anchor="middle" x="277.93" y="-7" font-family="Helvetica,sans-Serif" font-size="10.00">cstdint</text>
</a>
</g>
</g>
<!-- Node7&#45;&gt;Node8 -->
<g id="edge8_Node000007_Node000008" class="edge">
<title>Node7&#45;&gt;Node8</title>
<g id="a_edge8_Node000007_Node000008"><a xlink:title=" ">
<path fill="none" stroke="#63b8ff" d="M344.24,-54.98C332.11,-46.84 313.58,-34.41 299.19,-24.76"/>
<polygon fill="#63b8ff" stroke="#63b8ff" points="301.11,-21.84 290.86,-19.17 297.21,-27.65 301.11,-21.84"/>
</a>
</g>
</g>
<!-- Node9&#45;&gt;Node3 -->
<g id="edge10_Node000009_Node000003" class="edge">
<title>Node9&#45;&gt;Node3</title>
<g id="a_edge10_Node000009_Node000003"><a xlink:title=" ">
<path fill="none" stroke="#63b8ff" d="M225.18,-109.75C217.46,-102.03 206.03,-90.6 196.72,-81.28"/>
<polygon fill="#63b8ff" stroke="#63b8ff" points="199.07,-78.69 189.52,-74.09 194.12,-83.64 199.07,-78.69"/>
</a>
</g>
</g>
<!-- Node10&#45;&gt;Node3 -->
<g id="edge22_Node000010_Node000003" class="edge">
<title>Node10&#45;&gt;Node3</title>
<g id="a_edge22_Node000010_Node000003"><a xlink:title=" ">
<path fill="none" stroke="#63b8ff" d="M441.26,-110.74C388,-101.48 298.82,-85.98 239.93,-75.75"/>
<polygon fill="#63b8ff" stroke="#63b8ff" points="240.48,-72.29 230.03,-74.03 239.28,-79.19 240.48,-72.29"/>
</a>
</g>
</g>
<!-- Node10&#45;&gt;Node5 -->
<g id="edge25_Node000010_Node000005" class="edge">
<title>Node10&#45;&gt;Node5</title>
<g id="a_edge25_Node000010_Node000005"><a xlink:title=" ">
<path fill="none" stroke="#63b8ff" d="M441.21,-110.81C390.39,-101.7 310.86,-86.22 282.93,-74 255.03,-61.79 226.88,-40.43 209.43,-25.89"/>
<polygon fill="#63b8ff" stroke="#63b8ff" points="211.66,-23.19 201.77,-19.37 207.12,-28.52 211.66,-23.19"/>
</a>
</g>
</g>
<!-- Node11 -->
<g id="Node000011" class="node">
<title>Node11</title>
<g id="a_Node000011"><a xlink:href="BaseTypes_8h.html" target="_top" xlink:title=" ">
<polygon fill="white" stroke="#666666" points="644.43,-74 541.43,-74 541.43,-55 644.43,-55 644.43,-74"/>
<text text-anchor="middle" x="592.93" y="-62" font-family="Helvetica,sans-Serif" font-size="10.00">Core/BaseTypes.h</text>
</a>
</g>
</g>
<!-- Node10&#45;&gt;Node11 -->
<g id="edge12_Node000010_Node000011" class="edge">
<title>Node10&#45;&gt;Node11</title>
<g id="a_edge12_Node000010_Node000011"><a xlink:title=" ">
<path fill="none" stroke="#63b8ff" d="M503.13,-109.98C520.18,-101.54 546.57,-88.47 566.33,-78.68"/>
<polygon fill="#63b8ff" stroke="#63b8ff" points="568.02,-81.75 575.43,-74.17 564.92,-75.47 568.02,-81.75"/>
</a>
</g>
</g>
<!-- Node20 -->
<g id="Node000020" class="node">
<title>Node20</title>
<g id="a_Node000020"><a xlink:title=" ">
<polygon fill="#e0e0e0" stroke="#999999" points="523.43,-74 440.43,-74 440.43,-55 523.43,-55 523.43,-74"/>
<text text-anchor="middle" x="481.93" y="-62" font-family="Helvetica,sans-Serif" font-size="10.00">GLFW/glfw3.h</text>
</a>
</g>
</g>
<!-- Node10&#45;&gt;Node20 -->
<g id="edge23_Node000010_Node000020" class="edge">
<title>Node10&#45;&gt;Node20</title>
<g id="a_edge23_Node000010_Node000020"><a xlink:title=" ">
<path fill="none" stroke="#63b8ff" d="M485.27,-109.75C484.75,-102.8 484,-92.85 483.34,-84.13"/>
<polygon fill="#63b8ff" stroke="#63b8ff" points="486.83,-83.8 482.58,-74.09 479.84,-84.32 486.83,-83.8"/>
</a>
</g>
</g>
<!-- Node10&#45;&gt;Node21 -->
<g id="edge24_Node000010_Node000021" class="edge">
<title>Node10&#45;&gt;Node21</title>
<g id="a_edge24_Node000010_Node000021"><a xlink:title=" ">
<path fill="none" stroke="#63b8ff" d="M519.51,-109.98C555.6,-100.83 613.06,-86.26 652.32,-76.31"/>
<polygon fill="#63b8ff" stroke="#63b8ff" points="653.29,-79.67 662.13,-73.82 651.57,-72.89 653.29,-79.67"/>
</a>
</g>
</g>
<!-- Node11&#45;&gt;Node8 -->
<g id="edge21_Node000011_Node000008" class="edge">
<title>Node11&#45;&gt;Node8</title>
<g id="a_edge21_Node000011_Node000008"><a xlink:title=" ">
<path fill="none" stroke="#63b8ff" d="M541.41,-55.9C476.86,-46.28 368.87,-29.87 313.21,-19.07"/>
<polygon fill="#63b8ff" stroke="#63b8ff" points="313.62,-15.59 303.13,-17.06 312.25,-22.45 313.62,-15.59"/>
</a>
</g>
</g>
<!-- Node12 -->
<g id="Node000012" class="node">
<title>Node12</title>
<g id="a_Node000012"><a xlink:title=" ">
<polygon fill="#e0e0e0" stroke="#999999" points="620.93,-19 542.93,-19 542.93,0 620.93,0 620.93,-19"/>
<text text-anchor="middle" x="581.93" y="-7" font-family="Helvetica,sans-Serif" font-size="10.00">glm/glm.hpp</text>
</a>
</g>
</g>
<!-- Node11&#45;&gt;Node12 -->
<g id="edge13_Node000011_Node000012" class="edge">
<title>Node11&#45;&gt;Node12</title>
<g id="a_edge13_Node000011_Node000012"><a xlink:title=" ">
<path fill="none" stroke="#63b8ff" d="M591.12,-54.75C589.68,-47.8 587.61,-37.85 585.8,-29.13"/>
<polygon fill="#63b8ff" stroke="#63b8ff" points="589.18,-28.17 583.72,-19.09 582.32,-29.59 589.18,-28.17"/>
</a>
</g>
</g>
<!-- Node13 -->
<g id="Node000013" class="node">
<title>Node13</title>
<g id="a_Node000013"><a xlink:title=" ">
<polygon fill="#e0e0e0" stroke="#999999" points="802.43,-19 639.43,-19 639.43,0 802.43,0 802.43,-19"/>
<text text-anchor="middle" x="720.93" y="-7" font-family="Helvetica,sans-Serif" font-size="10.00">glm/gtc/matrix_transform.hpp</text>
</a>
</g>
</g>
<!-- Node11&#45;&gt;Node13 -->
<g id="edge14_Node000011_Node000013" class="edge">
<title>Node11&#45;&gt;Node13</title>
<g id="a_edge14_Node000011_Node000013"><a xlink:title=" ">
<path fill="none" stroke="#63b8ff" d="M613.5,-54.98C634.37,-46.34 666.91,-32.87 690.71,-23.02"/>
<polygon fill="#63b8ff" stroke="#63b8ff" points="692.09,-26.23 699.99,-19.17 689.42,-19.76 692.09,-26.23"/>
</a>
</g>
</g>
<!-- Node14 -->
<g id="Node000014" class="node">
<title>Node14</title>
<g id="a_Node000014"><a xlink:title=" ">
<polygon fill="#e0e0e0" stroke="#999999" points="950.93,-19 820.93,-19 820.93,0 950.93,0 950.93,-19"/>
<text text-anchor="middle" x="885.93" y="-7" font-family="Helvetica,sans-Serif" font-size="10.00">glm/gtc/quaternion.hpp</text>
</a>
</g>
</g>
<!-- Node11&#45;&gt;Node14 -->
<g id="edge15_Node000011_Node000014" class="edge">
<title>Node11&#45;&gt;Node14</title>
<g id="a_edge15_Node000011_Node000014"><a xlink:title=" ">
<path fill="none" stroke="#63b8ff" d="M640.01,-54.98C691.33,-45.7 773.47,-30.84 828.54,-20.88"/>
<polygon fill="#63b8ff" stroke="#63b8ff" points="829.27,-24.31 838.49,-19.08 828.03,-17.42 829.27,-24.31"/>
</a>
</g>
</g>
<!-- Node15 -->
<g id="Node000015" class="node">
<title>Node15</title>
<g id="a_Node000015"><a xlink:title=" ">
<polygon fill="#e0e0e0" stroke="#999999" points="1086.43,-19 969.43,-19 969.43,0 1086.43,0 1086.43,-19"/>
<text text-anchor="middle" x="1027.93" y="-7" font-family="Helvetica,sans-Serif" font-size="10.00">glm/gtc/type_ptr.hpp</text>
</a>
</g>
</g>
<!-- Node11&#45;&gt;Node15 -->
<g id="edge16_Node000011_Node000015" class="edge">
<title>Node11&#45;&gt;Node15</title>
<g id="a_edge16_Node000011_Node000015"><a xlink:title=" ">
<path fill="none" stroke="#63b8ff" d="M644.63,-56.1C647.44,-55.72 650.22,-55.35 652.93,-55 785.98,-37.78 821.88,-35.62 959.26,-19.07"/>
<polygon fill="#63b8ff" stroke="#63b8ff" points="959.82,-22.53 969.33,-17.85 958.98,-15.58 959.82,-22.53"/>
</a>
</g>
</g>
<!-- Node16 -->
<g id="Node000016" class="node">
<title>Node16</title>
<g id="a_Node000016"><a xlink:title=" ">
<polygon fill="#e0e0e0" stroke="#999999" points="1235.43,-19 1104.43,-19 1104.43,0 1235.43,0 1235.43,-19"/>
<text text-anchor="middle" x="1169.93" y="-7" font-family="Helvetica,sans-Serif" font-size="10.00">glm/gtx/quaternion.hpp</text>
</a>
</g>
</g>
<!-- Node11&#45;&gt;Node16 -->
<g id="edge17_Node000011_Node000016" class="edge">
<title>Node11&#45;&gt;Node16</title>
<g id="a_edge17_Node000011_Node000016"><a xlink:title=" ">
<path fill="none" stroke="#63b8ff" d="M644.62,-55.98C647.43,-55.63 650.22,-55.3 652.93,-55 846,-33.5 897.64,-38.11 1094.1,-19.15"/>
<polygon fill="#63b8ff" stroke="#63b8ff" points="1094.56,-22.62 1104.18,-18.17 1093.89,-15.65 1094.56,-22.62"/>
</a>
</g>
</g>
<!-- Node17 -->
<g id="Node000017" class="node">
<title>Node17</title>
<g id="a_Node000017"><a xlink:title=" ">
<polygon fill="#e0e0e0" stroke="#999999" points="1379.93,-19 1253.93,-19 1253.93,0 1379.93,0 1379.93,-19"/>
<text text-anchor="middle" x="1316.93" y="-7" font-family="Helvetica,sans-Serif" font-size="10.00">glm/gtx/transform.hpp</text>
</a>
</g>
</g>
<!-- Node11&#45;&gt;Node17 -->
<g id="edge18_Node000011_Node000017" class="edge">
<title>Node11&#45;&gt;Node17</title>
<g id="a_edge18_Node000011_Node000017"><a xlink:title=" ">
<path fill="none" stroke="#63b8ff" d="M644.61,-55.91C647.42,-55.58 650.21,-55.28 652.93,-55 911.87,-28.83 980.65,-42.11 1243.5,-19.07"/>
<polygon fill="#63b8ff" stroke="#63b8ff" points="1244.09,-22.54 1253.74,-18.17 1243.47,-15.56 1244.09,-22.54"/>
</a>
</g>
</g>
<!-- Node18 -->
<g id="Node000018" class="node">
<title>Node18</title>
<g id="a_Node000018"><a xlink:title=" ">
<polygon fill="#e0e0e0" stroke="#999999" points="462.43,-19 321.43,-19 321.43,0 462.43,0 462.43,-19"/>
<text text-anchor="middle" x="391.93" y="-7" font-family="Helvetica,sans-Serif" font-size="10.00">glm/gtx/vector_angle.hpp</text>
</a>
</g>
</g>
<!-- Node11&#45;&gt;Node18 -->
<g id="edge19_Node000011_Node000018" class="edge">
<title>Node11&#45;&gt;Node18</title>
<g id="a_edge19_Node000011_Node000018"><a xlink:title=" ">
<path fill="none" stroke="#63b8ff" d="M560.64,-54.98C526.31,-45.93 471.88,-31.58 434.16,-21.64"/>
<polygon fill="#63b8ff" stroke="#63b8ff" points="435.04,-18.25 424.48,-19.08 433.26,-25.02 435.04,-18.25"/>
</a>
</g>
</g>
<!-- Node19 -->
<g id="Node000019" class="node">
<title>Node19</title>
<g id="a_Node000019"><a xlink:title=" ">
<polygon fill="#e0e0e0" stroke="#999999" points="524.93,-19 480.93,-19 480.93,0 524.93,0 524.93,-19"/>
<text text-anchor="middle" x="502.93" y="-7" font-family="Helvetica,sans-Serif" font-size="10.00">bitset</text>
</a>
</g>
</g>
<!-- Node11&#45;&gt;Node19 -->
<g id="edge20_Node000011_Node000019" class="edge">
<title>Node11&#45;&gt;Node19</title>
<g id="a_edge20_Node000011_Node000019"><a xlink:title=" ">
<path fill="none" stroke="#63b8ff" d="M578.47,-54.98C564.52,-46.77 543.14,-34.18 526.68,-24.49"/>
<polygon fill="#63b8ff" stroke="#63b8ff" points="528.05,-21.23 517.66,-19.17 524.5,-27.26 528.05,-21.23"/>
</a>
</g>
</g>
</g>
</svg>
