<?xml version="1.0" encoding="UTF-8" standalone="no"?>
<!DOCTYPE svg PUBLIC "-//W3C//DTD SVG 1.1//EN"
 "http://www.w3.org/Graphics/SVG/1.1/DTD/svg11.dtd">
<!-- Generated by graphviz version 2.43.0 (0)
 -->
<!-- Title: Core/Include/Core/Application.h Pages: 1 -->
<svg width="1554pt" height="192pt"
 viewBox="0.00 0.00 1554.00 192.00" xmlns="http://www.w3.org/2000/svg" xmlns:xlink="http://www.w3.org/1999/xlink">
<g id="graph0" class="graph" transform="scale(1 1) rotate(0) translate(4 188)">
<title>Core/Include/Core/Application.h</title>
<!-- Node1 -->
<g id="Node000001" class="node">
<title>Node1</title>
<g id="a_Node000001"><a xlink:title=" ">
<polygon fill="#999999" stroke="#666666" points="1375.5,-184 1205.5,-184 1205.5,-165 1375.5,-165 1375.5,-184"/>
<text text-anchor="middle" x="1290.5" y="-172" font-family="Helvetica,sans-Serif" font-size="10.00">Core/Include/Core/Application.h</text>
</a>
</g>
</g>
<!-- Node2 -->
<g id="Node000002" class="node">
<title>Node2</title>
<g id="a_Node000002"><a xlink:href="BaseTypes_8h.html" target="_top" xlink:title=" ">
<polygon fill="white" stroke="#666666" points="674,-74 571,-74 571,-55 674,-55 674,-74"/>
<text text-anchor="middle" x="622.5" y="-62" font-family="Helvetica,sans-Serif" font-size="10.00">Core/BaseTypes.h</text>
</a>
</g>
</g>
<!-- Node1&#45;&gt;Node2 -->
<g id="edge1_Node000001_Node000002" class="edge">
<title>Node1&#45;&gt;Node2</title>
<g id="a_edge1_Node000001_Node000002"><a xlink:title=" ">
<path fill="none" stroke="#63b8ff" d="M1232.16,-164.98C1172.8,-156.25 1078.18,-142.11 996.5,-129 884.86,-111.08 754.76,-88.64 681.17,-75.8"/>
<polygon fill="#63b8ff" stroke="#63b8ff" points="681.62,-72.32 671.16,-74.05 680.41,-79.22 681.62,-72.32"/>
</a>
</g>
</g>
<!-- Node12 -->
<g id="Node000012" class="node">
<title>Node12</title>
<g id="a_Node000012"><a xlink:href="Layer_8h.html" target="_top" xlink:title=" ">
<polygon fill="white" stroke="#666666" points="1083,-129 1006,-129 1006,-110 1083,-110 1083,-129"/>
<text text-anchor="middle" x="1044.5" y="-117" font-family="Helvetica,sans-Serif" font-size="10.00">Core/Layer.h</text>
</a>
</g>
</g>
<!-- Node1&#45;&gt;Node12 -->
<g id="edge11_Node000001_Node000012" class="edge">
<title>Node1&#45;&gt;Node12</title>
<g id="a_edge11_Node000001_Node000012"><a xlink:title=" ">
<path fill="none" stroke="#63b8ff" d="M1250.98,-164.98C1207.95,-155.72 1139.14,-140.89 1092.91,-130.93"/>
<polygon fill="#63b8ff" stroke="#63b8ff" points="1093.63,-127.5 1083.12,-128.82 1092.15,-134.35 1093.63,-127.5"/>
</a>
</g>
</g>
<!-- Node15 -->
<g id="Node000015" class="node">
<title>Node15</title>
<g id="a_Node000015"><a xlink:title=" ">
<polygon fill="#e0e0e0" stroke="#999999" points="1263.5,-19 1219.5,-19 1219.5,0 1263.5,0 1263.5,-19"/>
<text text-anchor="middle" x="1241.5" y="-7" font-family="Helvetica,sans-Serif" font-size="10.00">string</text>
</a>
</g>
</g>
<!-- Node1&#45;&gt;Node15 -->
<g id="edge22_Node000001_Node000015" class="edge">
<title>Node1&#45;&gt;Node15</title>
<g id="a_edge22_Node000001_Node000015"><a xlink:title=" ">
<path fill="none" stroke="#63b8ff" d="M1287.87,-164.74C1280.19,-139.2 1257.71,-64.43 1247.13,-29.23"/>
<polygon fill="#63b8ff" stroke="#63b8ff" points="1250.38,-27.88 1244.15,-19.31 1243.67,-29.89 1250.38,-27.88"/>
</a>
</g>
</g>
<!-- Node16 -->
<g id="Node000016" class="node">
<title>Node16</title>
<g id="a_Node000016"><a xlink:href="Window_8h.html" target="_top" xlink:title=" ">
<polygon fill="white" stroke="#666666" points="1214,-129 1125,-129 1125,-110 1214,-110 1214,-129"/>
<text text-anchor="middle" x="1169.5" y="-117" font-family="Helvetica,sans-Serif" font-size="10.00">Core/Window.h</text>
</a>
</g>
</g>
<!-- Node1&#45;&gt;Node16 -->
<g id="edge15_Node000001_Node000016" class="edge">
<title>Node1&#45;&gt;Node16</title>
<g id="a_edge15_Node000001_Node000016"><a xlink:title=" ">
<path fill="none" stroke="#63b8ff" d="M1271.06,-164.98C1251.51,-156.42 1221.12,-143.11 1198.68,-133.28"/>
<polygon fill="#63b8ff" stroke="#63b8ff" points="1199.86,-129.98 1189.29,-129.17 1197.05,-136.39 1199.86,-129.98"/>
</a>
</g>
</g>
<!-- Node18 -->
<g id="Node000018" class="node">
<title>Node18</title>
<g id="a_Node000018"><a xlink:title=" ">
<polygon fill="#e0e0e0" stroke="#999999" points="1354,-129 1289,-129 1289,-110 1354,-110 1354,-129"/>
<text text-anchor="middle" x="1321.5" y="-117" font-family="Helvetica,sans-Serif" font-size="10.00">functional</text>
</a>
</g>
</g>
<!-- Node1&#45;&gt;Node18 -->
<g id="edge19_Node000001_Node000018" class="edge">
<title>Node1&#45;&gt;Node18</title>
<g id="a_edge19_Node000001_Node000018"><a xlink:title=" ">
<path fill="none" stroke="#63b8ff" d="M1295.62,-164.75C1299.86,-157.49 1306.03,-146.95 1311.28,-137.98"/>
<polygon fill="#63b8ff" stroke="#63b8ff" points="1314.45,-139.49 1316.48,-129.09 1308.41,-135.95 1314.45,-139.49"/>
</a>
</g>
</g>
<!-- Node19 -->
<g id="Node000019" class="node">
<title>Node19</title>
<g id="a_Node000019"><a xlink:title=" ">
<polygon fill="#e0e0e0" stroke="#999999" points="1430.5,-129 1372.5,-129 1372.5,-110 1430.5,-110 1430.5,-129"/>
<text text-anchor="middle" x="1401.5" y="-117" font-family="Helvetica,sans-Serif" font-size="10.00">memory</text>
</a>
</g>
</g>
<!-- Node1&#45;&gt;Node19 -->
<g id="edge20_Node000001_Node000019" class="edge">
<title>Node1&#45;&gt;Node19</title>
<g id="a_edge20_Node000001_Node000019"><a xlink:title=" ">
<path fill="none" stroke="#63b8ff" d="M1308.33,-164.98C1326.11,-156.5 1353.65,-143.35 1374.18,-133.54"/>
<polygon fill="#63b8ff" stroke="#63b8ff" points="1375.83,-136.64 1383.34,-129.17 1372.81,-130.32 1375.83,-136.64"/>
</a>
</g>
</g>
<!-- Node20 -->
<g id="Node000020" class="node">
<title>Node20</title>
<g id="a_Node000020"><a xlink:title=" ">
<polygon fill="#e0e0e0" stroke="#999999" points="1480.5,-129 1448.5,-129 1448.5,-110 1480.5,-110 1480.5,-129"/>
<text text-anchor="middle" x="1464.5" y="-117" font-family="Helvetica,sans-Serif" font-size="10.00">set</text>
</a>
</g>
</g>
<!-- Node1&#45;&gt;Node20 -->
<g id="edge21_Node000001_Node000020" class="edge">
<title>Node1&#45;&gt;Node20</title>
<g id="a_edge21_Node000001_Node000020"><a xlink:title=" ">
<path fill="none" stroke="#63b8ff" d="M1320.28,-164.96C1348.49,-156.8 1392.25,-143.93 1438.75,-129.16"/>
<polygon fill="#63b8ff" stroke="#63b8ff" points="1439.93,-132.45 1448.39,-126.08 1437.8,-125.78 1439.93,-132.45"/>
</a>
</g>
</g>
<!-- Node21 -->
<g id="Node000021" class="node">
<title>Node21</title>
<g id="a_Node000021"><a xlink:title=" ">
<polygon fill="#e0e0e0" stroke="#999999" points="1546,-129 1499,-129 1499,-110 1546,-110 1546,-129"/>
<text text-anchor="middle" x="1522.5" y="-117" font-family="Helvetica,sans-Serif" font-size="10.00">vector</text>
</a>
</g>
</g>
<!-- Node1&#45;&gt;Node21 -->
<g id="edge23_Node000001_Node000021" class="edge">
<title>Node1&#45;&gt;Node21</title>
<g id="a_edge23_Node000001_Node000021"><a xlink:title=" ">
<path fill="none" stroke="#63b8ff" d="M1330.61,-164.93C1368.82,-156.67 1428.19,-143.62 1488.97,-129.07"/>
<polygon fill="#63b8ff" stroke="#63b8ff" points="1489.82,-132.46 1498.73,-126.72 1488.19,-125.65 1489.82,-132.46"/>
</a>
</g>
</g>
<!-- Node3 -->
<g id="Node000003" class="node">
<title>Node3</title>
<g id="a_Node000003"><a xlink:title=" ">
<polygon fill="#e0e0e0" stroke="#999999" points="661.5,-19 583.5,-19 583.5,0 661.5,0 661.5,-19"/>
<text text-anchor="middle" x="622.5" y="-7" font-family="Helvetica,sans-Serif" font-size="10.00">glm/glm.hpp</text>
</a>
</g>
</g>
<!-- Node2&#45;&gt;Node3 -->
<g id="edge2_Node000002_Node000003" class="edge">
<title>Node2&#45;&gt;Node3</title>
<g id="a_edge2_Node000002_Node000003"><a xlink:title=" ">
<path fill="none" stroke="#63b8ff" d="M622.5,-54.75C622.5,-47.8 622.5,-37.85 622.5,-29.13"/>
<polygon fill="#63b8ff" stroke="#63b8ff" points="626,-29.09 622.5,-19.09 619,-29.09 626,-29.09"/>
</a>
</g>
</g>
<!-- Node4 -->
<g id="Node000004" class="node">
<title>Node4</title>
<g id="a_Node000004"><a xlink:title=" ">
<polygon fill="#e0e0e0" stroke="#999999" points="843,-19 680,-19 680,0 843,0 843,-19"/>
<text text-anchor="middle" x="761.5" y="-7" font-family="Helvetica,sans-Serif" font-size="10.00">glm/gtc/matrix_transform.hpp</text>
</a>
</g>
</g>
<!-- Node2&#45;&gt;Node4 -->
<g id="edge3_Node000002_Node000004" class="edge">
<title>Node2&#45;&gt;Node4</title>
<g id="a_edge3_Node000002_Node000004"><a xlink:title=" ">
<path fill="none" stroke="#63b8ff" d="M644.83,-54.98C667.7,-46.27 703.46,-32.63 729.36,-22.75"/>
<polygon fill="#63b8ff" stroke="#63b8ff" points="730.66,-26 738.76,-19.17 728.17,-19.46 730.66,-26"/>
</a>
</g>
</g>
<!-- Node5 -->
<g id="Node000005" class="node">
<title>Node5</title>
<g id="a_Node000005"><a xlink:title=" ">
<polygon fill="#e0e0e0" stroke="#999999" points="991.5,-19 861.5,-19 861.5,0 991.5,0 991.5,-19"/>
<text text-anchor="middle" x="926.5" y="-7" font-family="Helvetica,sans-Serif" font-size="10.00">glm/gtc/quaternion.hpp</text>
</a>
</g>
</g>
<!-- Node2&#45;&gt;Node5 -->
<g id="edge4_Node000002_Node000005" class="edge">
<title>Node2&#45;&gt;Node5</title>
<g id="a_edge4_Node000002_Node000005"><a xlink:title=" ">
<path fill="none" stroke="#63b8ff" d="M671.34,-54.98C724.78,-45.67 810.42,-30.74 867.56,-20.78"/>
<polygon fill="#63b8ff" stroke="#63b8ff" points="868.28,-24.2 877.53,-19.04 867.07,-17.31 868.28,-24.2"/>
</a>
</g>
</g>
<!-- Node6 -->
<g id="Node000006" class="node">
<title>Node6</title>
<g id="a_Node000006"><a xlink:title=" ">
<polygon fill="#e0e0e0" stroke="#999999" points="1127,-19 1010,-19 1010,0 1127,0 1127,-19"/>
<text text-anchor="middle" x="1068.5" y="-7" font-family="Helvetica,sans-Serif" font-size="10.00">glm/gtc/type_ptr.hpp</text>
</a>
</g>
</g>
<!-- Node2&#45;&gt;Node6 -->
<g id="edge5_Node000002_Node000006" class="edge">
<title>Node2&#45;&gt;Node6</title>
<g id="a_edge5_Node000002_Node000006"><a xlink:title=" ">
<path fill="none" stroke="#63b8ff" d="M674.18,-57.53C745.07,-49.33 876.73,-33.99 999.91,-19.06"/>
<polygon fill="#63b8ff" stroke="#63b8ff" points="1000.39,-22.53 1009.9,-17.85 999.55,-15.58 1000.39,-22.53"/>
</a>
</g>
</g>
<!-- Node7 -->
<g id="Node000007" class="node">
<title>Node7</title>
<g id="a_Node000007"><a xlink:title=" ">
<polygon fill="#e0e0e0" stroke="#999999" points="131,-19 0,-19 0,0 131,0 131,-19"/>
<text text-anchor="middle" x="65.5" y="-7" font-family="Helvetica,sans-Serif" font-size="10.00">glm/gtx/quaternion.hpp</text>
</a>
</g>
</g>
<!-- Node2&#45;&gt;Node7 -->
<g id="edge6_Node000002_Node000007" class="edge">
<title>Node2&#45;&gt;Node7</title>
<g id="a_edge6_Node000002_Node000007"><a xlink:title=" ">
<path fill="none" stroke="#63b8ff" d="M570.75,-59.08C484.26,-51.61 304.6,-35.76 141.56,-19.09"/>
<polygon fill="#63b8ff" stroke="#63b8ff" points="141.65,-15.58 131.34,-18.04 140.93,-22.54 141.65,-15.58"/>
</a>
</g>
</g>
<!-- Node8 -->
<g id="Node000008" class="node">
<title>Node8</title>
<g id="a_Node000008"><a xlink:title=" ">
<polygon fill="#e0e0e0" stroke="#999999" points="275.5,-19 149.5,-19 149.5,0 275.5,0 275.5,-19"/>
<text text-anchor="middle" x="212.5" y="-7" font-family="Helvetica,sans-Serif" font-size="10.00">glm/gtx/transform.hpp</text>
</a>
</g>
</g>
<!-- Node2&#45;&gt;Node8 -->
<g id="edge7_Node000002_Node000008" class="edge">
<title>Node2&#45;&gt;Node8</title>
<g id="a_edge7_Node000002_Node000008"><a xlink:title=" ">
<path fill="none" stroke="#63b8ff" d="M570.99,-56.84C498.93,-47.53 367.68,-30.56 285.56,-19.94"/>
<polygon fill="#63b8ff" stroke="#63b8ff" points="285.91,-16.46 275.54,-18.65 285.01,-23.4 285.91,-16.46"/>
</a>
</g>
</g>
<!-- Node9 -->
<g id="Node000009" class="node">
<title>Node9</title>
<g id="a_Node000009"><a xlink:title=" ">
<polygon fill="#e0e0e0" stroke="#999999" points="435,-19 294,-19 294,0 435,0 435,-19"/>
<text text-anchor="middle" x="364.5" y="-7" font-family="Helvetica,sans-Serif" font-size="10.00">glm/gtx/vector_angle.hpp</text>
</a>
</g>
</g>
<!-- Node2&#45;&gt;Node9 -->
<g id="edge8_Node000002_Node000009" class="edge">
<title>Node2&#45;&gt;Node9</title>
<g id="a_edge8_Node000002_Node000009"><a xlink:title=" ">
<path fill="none" stroke="#63b8ff" d="M581.05,-54.98C536.23,-45.78 464.73,-31.09 416.25,-21.13"/>
<polygon fill="#63b8ff" stroke="#63b8ff" points="416.78,-17.67 406.28,-19.08 415.37,-24.52 416.78,-17.67"/>
</a>
</g>
</g>
<!-- Node10 -->
<g id="Node000010" class="node">
<title>Node10</title>
<g id="a_Node000010"><a xlink:title=" ">
<polygon fill="#e0e0e0" stroke="#999999" points="497.5,-19 453.5,-19 453.5,0 497.5,0 497.5,-19"/>
<text text-anchor="middle" x="475.5" y="-7" font-family="Helvetica,sans-Serif" font-size="10.00">bitset</text>
</a>
</g>
</g>
<!-- Node2&#45;&gt;Node10 -->
<g id="edge9_Node000002_Node000010" class="edge">
<title>Node2&#45;&gt;Node10</title>
<g id="a_edge9_Node000002_Node000010"><a xlink:title=" ">
<path fill="none" stroke="#63b8ff" d="M598.88,-54.98C574.02,-46.02 534.73,-31.86 507.19,-21.92"/>
<polygon fill="#63b8ff" stroke="#63b8ff" points="508.21,-18.57 497.62,-18.47 505.84,-25.16 508.21,-18.57"/>
</a>
</g>
</g>
<!-- Node11 -->
<g id="Node000011" class="node">
<title>Node11</title>
<g id="a_Node000011"><a xlink:title=" ">
<polygon fill="#e0e0e0" stroke="#999999" points="565.5,-19 515.5,-19 515.5,0 565.5,0 565.5,-19"/>
<text text-anchor="middle" x="540.5" y="-7" font-family="Helvetica,sans-Serif" font-size="10.00">cstdint</text>
</a>
</g>
</g>
<!-- Node2&#45;&gt;Node11 -->
<g id="edge10_Node000002_Node000011" class="edge">
<title>Node2&#45;&gt;Node11</title>
<g id="a_edge10_Node000002_Node000011"><a xlink:title=" ">
<path fill="none" stroke="#63b8ff" d="M609.33,-54.98C596.73,-46.84 577.5,-34.41 562.56,-24.76"/>
<polygon fill="#63b8ff" stroke="#63b8ff" points="564.21,-21.66 553.91,-19.17 560.41,-27.54 564.21,-21.66"/>
</a>
</g>
</g>
<!-- Node13 -->
<g id="Node000013" class="node">
<title>Node13</title>
<g id="a_Node000013"><a xlink:href="Event_8h.html" target="_top" xlink:title=" ">
<polygon fill="white" stroke="#666666" points="1092.5,-74 982.5,-74 982.5,-55 1092.5,-55 1092.5,-74"/>
<text text-anchor="middle" x="1037.5" y="-62" font-family="Helvetica,sans-Serif" font-size="10.00">Core/Event/Event.h</text>
</a>
</g>
</g>
<!-- Node12&#45;&gt;Node13 -->
<g id="edge12_Node000012_Node000013" class="edge">
<title>Node12&#45;&gt;Node13</title>
<g id="a_edge12_Node000012_Node000013"><a xlink:title=" ">
<path fill="none" stroke="#63b8ff" d="M1043.34,-109.75C1042.43,-102.8 1041.11,-92.85 1039.96,-84.13"/>
<polygon fill="#63b8ff" stroke="#63b8ff" points="1043.41,-83.54 1038.63,-74.09 1036.47,-84.46 1043.41,-83.54"/>
</a>
</g>
</g>
<!-- Node14 -->
<g id="Node000014" class="node">
<title>Node14</title>
<g id="a_Node000014"><a xlink:title=" ">
<polygon fill="#e0e0e0" stroke="#999999" points="1201.5,-19 1145.5,-19 1145.5,0 1201.5,0 1201.5,-19"/>
<text text-anchor="middle" x="1173.5" y="-7" font-family="Helvetica,sans-Serif" font-size="10.00">sstream</text>
</a>
</g>
</g>
<!-- Node13&#45;&gt;Node14 -->
<g id="edge13_Node000013_Node000014" class="edge">
<title>Node13&#45;&gt;Node14</title>
<g id="a_edge13_Node000013_Node000014"><a xlink:title=" ">
<path fill="none" stroke="#63b8ff" d="M1059.35,-54.98C1081.62,-46.3 1116.4,-32.75 1141.72,-22.88"/>
<polygon fill="#63b8ff" stroke="#63b8ff" points="1143.21,-26.06 1151.25,-19.17 1140.66,-19.54 1143.21,-26.06"/>
</a>
</g>
</g>
<!-- Node13&#45;&gt;Node15 -->
<g id="edge14_Node000013_Node000015" class="edge">
<title>Node13&#45;&gt;Node15</title>
<g id="a_edge14_Node000013_Node000015"><a xlink:title=" ">
<path fill="none" stroke="#63b8ff" d="M1071.35,-54.96C1104.28,-46.62 1155.97,-33.42 1209.78,-19.16"/>
<polygon fill="#63b8ff" stroke="#63b8ff" points="1210.73,-22.53 1219.5,-16.58 1208.93,-15.76 1210.73,-22.53"/>
</a>
</g>
</g>
<!-- Node16&#45;&gt;Node2 -->
<g id="edge16_Node000016_Node000002" class="edge">
<title>Node16&#45;&gt;Node2</title>
<g id="a_edge16_Node000016_Node000002"><a xlink:title=" ">
<path fill="none" stroke="#63b8ff" d="M1124.96,-113.54C1114.02,-112.35 1102.34,-111.1 1091.5,-110 945.58,-95.13 773.94,-79.25 684.23,-71.08"/>
<polygon fill="#63b8ff" stroke="#63b8ff" points="684.5,-67.59 674.23,-70.17 683.87,-74.56 684.5,-67.59"/>
</a>
</g>
</g>
<!-- Node16&#45;&gt;Node15 -->
<g id="edge18_Node000016_Node000015" class="edge">
<title>Node16&#45;&gt;Node15</title>
<g id="a_edge18_Node000016_Node000015"><a xlink:title=" ">
<path fill="none" stroke="#63b8ff" d="M1176.57,-109.85C1183.67,-101.04 1194.77,-86.88 1203.5,-74 1213.73,-58.92 1224.29,-41.05 1231.67,-28.12"/>
<polygon fill="#63b8ff" stroke="#63b8ff" points="1234.77,-29.75 1236.64,-19.32 1228.68,-26.31 1234.77,-29.75"/>
</a>
</g>
</g>
<!-- Node17 -->
<g id="Node000017" class="node">
<title>Node17</title>
<g id="a_Node000017"><a xlink:title=" ">
<polygon fill="#e0e0e0" stroke="#999999" points="1194,-74 1111,-74 1111,-55 1194,-55 1194,-74"/>
<text text-anchor="middle" x="1152.5" y="-62" font-family="Helvetica,sans-Serif" font-size="10.00">GLFW/glfw3.h</text>
</a>
</g>
</g>
<!-- Node16&#45;&gt;Node17 -->
<g id="edge17_Node000016_Node000017" class="edge">
<title>Node16&#45;&gt;Node17</title>
<g id="a_edge17_Node000016_Node000017"><a xlink:title=" ">
<path fill="none" stroke="#63b8ff" d="M1166.69,-109.75C1164.44,-102.72 1161.2,-92.62 1158.38,-83.84"/>
<polygon fill="#63b8ff" stroke="#63b8ff" points="1161.64,-82.54 1155.25,-74.09 1154.98,-84.68 1161.64,-82.54"/>
</a>
</g>
</g>
</g>
</svg>
