<?xml version="1.0" encoding="UTF-8" standalone="no"?>
<!DOCTYPE svg PUBLIC "-//W3C//DTD SVG 1.1//EN"
 "http://www.w3.org/Graphics/SVG/1.1/DTD/svg11.dtd">
<!-- Generated by graphviz version 2.43.0 (0)
 -->
<!-- Title: Core/Source/Application.cpp Pages: 1 -->
<svg width="1917pt" height="247pt"
 viewBox="0.00 0.00 1917.00 247.00" xmlns="http://www.w3.org/2000/svg" xmlns:xlink="http://www.w3.org/1999/xlink">
<g id="graph0" class="graph" transform="scale(1 1) rotate(0) translate(4 243)">
<title>Core/Source/Application.cpp</title>
<!-- Node1 -->
<g id="Node000001" class="node">
<title>Node1</title>
<g id="a_Node000001"><a xlink:title=" ">
<polygon fill="#999999" stroke="#666666" points="1373.5,-239 1220.5,-239 1220.5,-220 1373.5,-220 1373.5,-239"/>
<text text-anchor="middle" x="1297" y="-227" font-family="Helvetica,sans-Serif" font-size="10.00">Core/Source/Application.cpp</text>
</a>
</g>
</g>
<!-- Node2 -->
<g id="Node000002" class="node">
<title>Node2</title>
<g id="a_Node000002"><a xlink:href="Application_8h.html" target="_top" xlink:title=" ">
<polygon fill="white" stroke="#666666" points="518,-184 412,-184 412,-165 518,-165 518,-184"/>
<text text-anchor="middle" x="465" y="-172" font-family="Helvetica,sans-Serif" font-size="10.00">Core/Application.h</text>
</a>
</g>
</g>
<!-- Node1&#45;&gt;Node2 -->
<g id="edge1_Node000001_Node000002" class="edge">
<title>Node1&#45;&gt;Node2</title>
<g id="a_edge1_Node000001_Node000002"><a xlink:title=" ">
<path fill="none" stroke="#63b8ff" d="M1220.22,-223.61C1057.02,-213.21 678.31,-189.09 528.06,-179.52"/>
<polygon fill="#63b8ff" stroke="#63b8ff" points="528.27,-176.02 518.07,-178.88 527.83,-183.01 528.27,-176.02"/>
</a>
</g>
</g>
<!-- Node8 -->
<g id="Node000008" class="node">
<title>Node8</title>
<g id="a_Node000008"><a xlink:href="KeyCodes_8h.html" target="_top" xlink:title=" ">
<polygon fill="white" stroke="#666666" points="986,-74 856,-74 856,-55 986,-55 986,-74"/>
<text text-anchor="middle" x="921" y="-62" font-family="Helvetica,sans-Serif" font-size="10.00">Core/Event/KeyCodes.h</text>
</a>
</g>
</g>
<!-- Node1&#45;&gt;Node8 -->
<g id="edge36_Node000001_Node000008" class="edge">
<title>Node1&#45;&gt;Node8</title>
<g id="a_edge36_Node000001_Node000008"><a xlink:title=" ">
<path fill="none" stroke="#63b8ff" d="M1251.41,-219.98C1222.79,-213.23 1185.97,-201.9 1157,-184 1117.96,-159.88 1124.55,-133.28 1085,-110 1056.79,-93.39 1022.23,-82.82 992.11,-76.18"/>
<polygon fill="#63b8ff" stroke="#63b8ff" points="992.59,-72.7 982.09,-74.07 991.15,-79.55 992.59,-72.7"/>
</a>
</g>
</g>
<!-- Node13 -->
<g id="Node000013" class="node">
<title>Node13</title>
<g id="a_Node000013"><a xlink:title=" ">
<polygon fill="#e0e0e0" stroke="#999999" points="1263,-19 1185,-19 1185,0 1263,0 1263,-19"/>
<text text-anchor="middle" x="1224" y="-7" font-family="Helvetica,sans-Serif" font-size="10.00">glm/glm.hpp</text>
</a>
</g>
</g>
<!-- Node1&#45;&gt;Node13 -->
<g id="edge47_Node000001_Node000013" class="edge">
<title>Node1&#45;&gt;Node13</title>
<g id="a_edge47_Node000001_Node000013"><a xlink:title=" ">
<path fill="none" stroke="#63b8ff" d="M1245.67,-219.98C1224.75,-213.7 1202.56,-202.83 1190,-184 1157.13,-134.73 1193.13,-61.17 1212.85,-27.92"/>
<polygon fill="#63b8ff" stroke="#63b8ff" points="1215.88,-29.67 1218.13,-19.32 1209.92,-26.01 1215.88,-29.67"/>
</a>
</g>
</g>
<!-- Node21 -->
<g id="Node000021" class="node">
<title>Node21</title>
<g id="a_Node000021"><a xlink:title=" ">
<polygon fill="#e0e0e0" stroke="#999999" points="716.5,-74 633.5,-74 633.5,-55 716.5,-55 716.5,-74"/>
<text text-anchor="middle" x="675" y="-62" font-family="Helvetica,sans-Serif" font-size="10.00">GLFW/glfw3.h</text>
</a>
</g>
</g>
<!-- Node1&#45;&gt;Node21 -->
<g id="edge46_Node000001_Node000021" class="edge">
<title>Node1&#45;&gt;Node21</title>
<g id="a_edge46_Node000001_Node000021"><a xlink:title=" ">
<path fill="none" stroke="#63b8ff" d="M1241.92,-219.94C1196.85,-212.33 1131.68,-199.95 1076,-184 986.09,-158.24 968.7,-136.48 879,-110 827.93,-94.92 768.31,-82.5 726.76,-74.64"/>
<polygon fill="#63b8ff" stroke="#63b8ff" points="727.33,-71.19 716.86,-72.8 726.05,-78.07 727.33,-71.19"/>
</a>
</g>
</g>
<!-- Node26 -->
<g id="Node000026" class="node">
<title>Node26</title>
<g id="a_Node000026"><a xlink:href="Input_8h.html" target="_top" xlink:title=" ">
<polygon fill="white" stroke="#666666" points="1076.5,-129 969.5,-129 969.5,-110 1076.5,-110 1076.5,-129"/>
<text text-anchor="middle" x="1023" y="-117" font-family="Helvetica,sans-Serif" font-size="10.00">Core/Event/Input.h</text>
</a>
</g>
</g>
<!-- Node1&#45;&gt;Node26 -->
<g id="edge32_Node000001_Node000026" class="edge">
<title>Node1&#45;&gt;Node26</title>
<g id="a_edge32_Node000001_Node000026"><a xlink:title=" ">
<path fill="none" stroke="#63b8ff" d="M1234.32,-219.97C1197,-213.36 1149.4,-202.17 1110,-184 1083.39,-171.73 1056.76,-150.69 1040.11,-136.22"/>
<polygon fill="#63b8ff" stroke="#63b8ff" points="1042.16,-133.35 1032.36,-129.32 1037.51,-138.59 1042.16,-133.35"/>
</a>
</g>
</g>
<!-- Node28 -->
<g id="Node000028" class="node">
<title>Node28</title>
<g id="a_Node000028"><a xlink:href="PrintHelpers_8h.html" target="_top" xlink:title=" ">
<polygon fill="white" stroke="#666666" points="1310.5,-184 1199.5,-184 1199.5,-165 1310.5,-165 1310.5,-184"/>
<text text-anchor="middle" x="1255" y="-172" font-family="Helvetica,sans-Serif" font-size="10.00">Core/PrintHelpers.h</text>
</a>
</g>
</g>
<!-- Node1&#45;&gt;Node28 -->
<g id="edge37_Node000001_Node000028" class="edge">
<title>Node1&#45;&gt;Node28</title>
<g id="a_edge37_Node000001_Node000028"><a xlink:title=" ">
<path fill="none" stroke="#63b8ff" d="M1290.06,-219.75C1284.13,-212.26 1275.43,-201.28 1268.18,-192.13"/>
<polygon fill="#63b8ff" stroke="#63b8ff" points="1270.76,-189.75 1261.81,-184.09 1265.27,-194.1 1270.76,-189.75"/>
</a>
</g>
</g>
<!-- Node30 -->
<g id="Node000030" class="node">
<title>Node30</title>
<g id="a_Node000030"><a xlink:title=" ">
<polygon fill="#e0e0e0" stroke="#999999" points="1439,-129 1379,-129 1379,-110 1439,-110 1439,-129"/>
<text text-anchor="middle" x="1409" y="-117" font-family="Helvetica,sans-Serif" font-size="10.00">iostream</text>
</a>
</g>
</g>
<!-- Node1&#45;&gt;Node30 -->
<g id="edge49_Node000001_Node000030" class="edge">
<title>Node1&#45;&gt;Node30</title>
<g id="a_edge49_Node000001_Node000030"><a xlink:title=" ">
<path fill="none" stroke="#63b8ff" d="M1305.05,-219.64C1316.51,-207.14 1338.3,-183.77 1358,-165 1368.63,-154.87 1381.04,-144.02 1390.96,-135.57"/>
<polygon fill="#63b8ff" stroke="#63b8ff" points="1393.23,-138.24 1398.6,-129.11 1388.71,-132.89 1393.23,-138.24"/>
</a>
</g>
</g>
<!-- Node32 -->
<g id="Node000032" class="node">
<title>Node32</title>
<g id="a_Node000032"><a xlink:href="GLUtils_8h.html" target="_top" xlink:title=" ">
<polygon fill="white" stroke="#666666" points="1501,-184 1367,-184 1367,-165 1501,-165 1501,-184"/>
<text text-anchor="middle" x="1434" y="-172" font-family="Helvetica,sans-Serif" font-size="10.00">Core/Renderer/GLUtils.h</text>
</a>
</g>
</g>
<!-- Node1&#45;&gt;Node32 -->
<g id="edge41_Node000001_Node000032" class="edge">
<title>Node1&#45;&gt;Node32</title>
<g id="a_edge41_Node000001_Node000032"><a xlink:title=" ">
<path fill="none" stroke="#63b8ff" d="M1319.01,-219.98C1341.45,-211.3 1376.48,-197.75 1401.99,-187.88"/>
<polygon fill="#63b8ff" stroke="#63b8ff" points="1403.52,-191.04 1411.59,-184.17 1401,-184.51 1403.52,-191.04"/>
</a>
</g>
</g>
<!-- Node34 -->
<g id="Node000034" class="node">
<title>Node34</title>
<g id="a_Node000034"><a xlink:title=" ">
<polygon fill="#e0e0e0" stroke="#999999" points="1572.5,-184 1519.5,-184 1519.5,-165 1572.5,-165 1572.5,-184"/>
<text text-anchor="middle" x="1546" y="-172" font-family="Helvetica,sans-Serif" font-size="10.00">imgui.h</text>
</a>
</g>
</g>
<!-- Node1&#45;&gt;Node34 -->
<g id="edge43_Node000001_Node000034" class="edge">
<title>Node1&#45;&gt;Node34</title>
<g id="a_edge43_Node000001_Node000034"><a xlink:title=" ">
<path fill="none" stroke="#63b8ff" d="M1339.5,-219.96C1380.44,-211.65 1444.37,-198.49 1509.28,-184.11"/>
<polygon fill="#63b8ff" stroke="#63b8ff" points="1510.28,-187.48 1519.28,-181.89 1508.76,-180.64 1510.28,-187.48"/>
</a>
</g>
</g>
<!-- Node35 -->
<g id="Node000035" class="node">
<title>Node35</title>
<g id="a_Node000035"><a xlink:title=" ">
<polygon fill="#e0e0e0" stroke="#999999" points="1695.5,-184 1590.5,-184 1590.5,-165 1695.5,-165 1695.5,-184"/>
<text text-anchor="middle" x="1643" y="-172" font-family="Helvetica,sans-Serif" font-size="10.00">imgui_impl_glfw.h</text>
</a>
</g>
</g>
<!-- Node1&#45;&gt;Node35 -->
<g id="edge44_Node000001_Node000035" class="edge">
<title>Node1&#45;&gt;Node35</title>
<g id="a_edge44_Node000001_Node000035"><a xlink:title=" ">
<path fill="none" stroke="#63b8ff" d="M1352.59,-219.98C1414.79,-210.46 1515.31,-195.06 1580.27,-185.11"/>
<polygon fill="#63b8ff" stroke="#63b8ff" points="1581.03,-188.53 1590.38,-183.56 1579.97,-181.61 1581.03,-188.53"/>
</a>
</g>
</g>
<!-- Node36 -->
<g id="Node000036" class="node">
<title>Node36</title>
<g id="a_Node000036"><a xlink:title=" ">
<polygon fill="#e0e0e0" stroke="#999999" points="1838.5,-184 1713.5,-184 1713.5,-165 1838.5,-165 1838.5,-184"/>
<text text-anchor="middle" x="1776" y="-172" font-family="Helvetica,sans-Serif" font-size="10.00">imgui_impl_opengl3.h</text>
</a>
</g>
</g>
<!-- Node1&#45;&gt;Node36 -->
<g id="edge45_Node000001_Node000036" class="edge">
<title>Node1&#45;&gt;Node36</title>
<g id="a_edge45_Node000001_Node000036"><a xlink:title=" ">
<path fill="none" stroke="#63b8ff" d="M1373.73,-220.37C1453.51,-211.87 1582.33,-197.98 1703.12,-184.21"/>
<polygon fill="#63b8ff" stroke="#63b8ff" points="1703.75,-187.66 1713.28,-183.04 1702.95,-180.7 1703.75,-187.66"/>
</a>
</g>
</g>
<!-- Node37 -->
<g id="Node000037" class="node">
<title>Node37</title>
<g id="a_Node000037"><a xlink:title=" ">
<polygon fill="#e0e0e0" stroke="#999999" points="1909,-184 1857,-184 1857,-165 1909,-165 1909,-184"/>
<text text-anchor="middle" x="1883" y="-172" font-family="Helvetica,sans-Serif" font-size="10.00">cassert</text>
</a>
</g>
</g>
<!-- Node1&#45;&gt;Node37 -->
<g id="edge48_Node000001_Node000037" class="edge">
<title>Node1&#45;&gt;Node37</title>
<g id="a_edge48_Node000001_Node000037"><a xlink:title=" ">
<path fill="none" stroke="#63b8ff" d="M1373.66,-226.12C1478.49,-222.03 1672.48,-211.42 1846.6,-183.97"/>
<polygon fill="#63b8ff" stroke="#63b8ff" points="1847.4,-187.39 1856.72,-182.35 1846.29,-180.48 1847.4,-187.39"/>
</a>
</g>
</g>
<!-- Node3 -->
<g id="Node000003" class="node">
<title>Node3</title>
<g id="a_Node000003"><a xlink:href="ApplicationEvent_8h.html" target="_top" xlink:title=" ">
<polygon fill="white" stroke="#666666" points="326,-129 162,-129 162,-110 326,-110 326,-129"/>
<text text-anchor="middle" x="244" y="-117" font-family="Helvetica,sans-Serif" font-size="10.00">Core/Event/ApplicationEvent.h</text>
</a>
</g>
</g>
<!-- Node2&#45;&gt;Node3 -->
<g id="edge2_Node000002_Node000003" class="edge">
<title>Node2&#45;&gt;Node3</title>
<g id="a_edge2_Node000002_Node000003"><a xlink:title=" ">
<path fill="none" stroke="#63b8ff" d="M429.49,-164.98C391.51,-155.87 331.13,-141.4 289.64,-131.45"/>
<polygon fill="#63b8ff" stroke="#63b8ff" points="290.33,-128.01 279.79,-129.08 288.69,-134.82 290.33,-128.01"/>
</a>
</g>
</g>
<!-- Node6 -->
<g id="Node000006" class="node">
<title>Node6</title>
<g id="a_Node000006"><a xlink:title=" ">
<polygon fill="#e0e0e0" stroke="#999999" points="118,-19 74,-19 74,0 118,0 118,-19"/>
<text text-anchor="middle" x="96" y="-7" font-family="Helvetica,sans-Serif" font-size="10.00">string</text>
</a>
</g>
</g>
<!-- Node2&#45;&gt;Node6 -->
<g id="edge30_Node000002_Node000006" class="edge">
<title>Node2&#45;&gt;Node6</title>
<g id="a_edge30_Node000002_Node000006"><a xlink:title=" ">
<path fill="none" stroke="#63b8ff" d="M411.68,-172.37C331.67,-169.65 185.59,-160.4 145,-129 113.26,-104.45 101.92,-55.72 97.99,-29.04"/>
<polygon fill="#63b8ff" stroke="#63b8ff" points="101.46,-28.56 96.73,-19.08 94.52,-29.45 101.46,-28.56"/>
</a>
</g>
</g>
<!-- Node7 -->
<g id="Node000007" class="node">
<title>Node7</title>
<g id="a_Node000007"><a xlink:href="KeyEvents_8h.html" target="_top" xlink:title=" ">
<polygon fill="white" stroke="#666666" points="870.5,-129 737.5,-129 737.5,-110 870.5,-110 870.5,-129"/>
<text text-anchor="middle" x="804" y="-117" font-family="Helvetica,sans-Serif" font-size="10.00">Core/Event/KeyEvents.h</text>
</a>
</g>
</g>
<!-- Node2&#45;&gt;Node7 -->
<g id="edge6_Node000002_Node000007" class="edge">
<title>Node2&#45;&gt;Node7</title>
<g id="a_edge6_Node000002_Node000007"><a xlink:title=" ">
<path fill="none" stroke="#63b8ff" d="M518.34,-165.16C578.25,-155.79 675.47,-140.59 739.57,-130.57"/>
<polygon fill="#63b8ff" stroke="#63b8ff" points="740.23,-134.01 749.57,-129.01 739.15,-127.1 740.23,-134.01"/>
</a>
</g>
</g>
<!-- Node10 -->
<g id="Node000010" class="node">
<title>Node10</title>
<g id="a_Node000010"><a xlink:href="Layer_8h.html" target="_top" xlink:title=" ">
<polygon fill="white" stroke="#666666" points="612.5,-129 535.5,-129 535.5,-110 612.5,-110 612.5,-129"/>
<text text-anchor="middle" x="574" y="-117" font-family="Helvetica,sans-Serif" font-size="10.00">Core/Layer.h</text>
</a>
</g>
</g>
<!-- Node2&#45;&gt;Node10 -->
<g id="edge10_Node000002_Node000010" class="edge">
<title>Node2&#45;&gt;Node10</title>
<g id="a_edge10_Node000002_Node000010"><a xlink:title=" ">
<path fill="none" stroke="#63b8ff" d="M482.51,-164.98C499.97,-156.5 527.01,-143.35 547.17,-133.54"/>
<polygon fill="#63b8ff" stroke="#63b8ff" points="548.71,-136.69 556.17,-129.17 545.64,-130.4 548.71,-136.69"/>
</a>
</g>
</g>
<!-- Node11 -->
<g id="Node000011" class="node">
<title>Node11</title>
<g id="a_Node000011"><a xlink:href="Window_8h.html" target="_top" xlink:title=" ">
<polygon fill="white" stroke="#666666" points="719.5,-129 630.5,-129 630.5,-110 719.5,-110 719.5,-129"/>
<text text-anchor="middle" x="675" y="-117" font-family="Helvetica,sans-Serif" font-size="10.00">Core/Window.h</text>
</a>
</g>
</g>
<!-- Node2&#45;&gt;Node11 -->
<g id="edge12_Node000002_Node000011" class="edge">
<title>Node2&#45;&gt;Node11</title>
<g id="a_edge12_Node000002_Node000011"><a xlink:title=" ">
<path fill="none" stroke="#63b8ff" d="M498.74,-164.98C534.68,-155.91 591.72,-141.52 631.13,-131.57"/>
<polygon fill="#63b8ff" stroke="#63b8ff" points="632.16,-134.92 641,-129.08 630.44,-128.14 632.16,-134.92"/>
</a>
</g>
</g>
<!-- Node22 -->
<g id="Node000022" class="node">
<title>Node22</title>
<g id="a_Node000022"><a xlink:title=" ">
<polygon fill="#e0e0e0" stroke="#999999" points="222.5,-74 157.5,-74 157.5,-55 222.5,-55 222.5,-74"/>
<text text-anchor="middle" x="190" y="-62" font-family="Helvetica,sans-Serif" font-size="10.00">functional</text>
</a>
</g>
</g>
<!-- Node2&#45;&gt;Node22 -->
<g id="edge27_Node000002_Node000022" class="edge">
<title>Node2&#45;&gt;Node22</title>
<g id="a_edge27_Node000002_Node000022"><a xlink:title=" ">
<path fill="none" stroke="#63b8ff" d="M411.69,-173.94C331.54,-173.32 185.85,-166.87 153,-129 140.23,-114.28 155.86,-94.52 170.56,-80.98"/>
<polygon fill="#63b8ff" stroke="#63b8ff" points="173.16,-83.35 178.44,-74.17 168.58,-78.06 173.16,-83.35"/>
</a>
</g>
</g>
<!-- Node23 -->
<g id="Node000023" class="node">
<title>Node23</title>
<g id="a_Node000023"><a xlink:title=" ">
<polygon fill="#e0e0e0" stroke="#999999" points="402,-129 344,-129 344,-110 402,-110 402,-129"/>
<text text-anchor="middle" x="373" y="-117" font-family="Helvetica,sans-Serif" font-size="10.00">memory</text>
</a>
</g>
</g>
<!-- Node2&#45;&gt;Node23 -->
<g id="edge28_Node000002_Node000023" class="edge">
<title>Node2&#45;&gt;Node23</title>
<g id="a_edge28_Node000002_Node000023"><a xlink:title=" ">
<path fill="none" stroke="#63b8ff" d="M450.22,-164.98C435.82,-156.69 413.69,-143.94 396.81,-134.22"/>
<polygon fill="#63b8ff" stroke="#63b8ff" points="398.46,-131.13 388.05,-129.17 394.97,-137.19 398.46,-131.13"/>
</a>
</g>
</g>
<!-- Node24 -->
<g id="Node000024" class="node">
<title>Node24</title>
<g id="a_Node000024"><a xlink:title=" ">
<polygon fill="#e0e0e0" stroke="#999999" points="452,-129 420,-129 420,-110 452,-110 452,-129"/>
<text text-anchor="middle" x="436" y="-117" font-family="Helvetica,sans-Serif" font-size="10.00">set</text>
</a>
</g>
</g>
<!-- Node2&#45;&gt;Node24 -->
<g id="edge29_Node000002_Node000024" class="edge">
<title>Node2&#45;&gt;Node24</title>
<g id="a_edge29_Node000002_Node000024"><a xlink:title=" ">
<path fill="none" stroke="#63b8ff" d="M460.21,-164.75C456.24,-157.49 450.47,-146.95 445.57,-137.98"/>
<polygon fill="#63b8ff" stroke="#63b8ff" points="448.57,-136.18 440.7,-129.09 442.43,-139.54 448.57,-136.18"/>
</a>
</g>
</g>
<!-- Node25 -->
<g id="Node000025" class="node">
<title>Node25</title>
<g id="a_Node000025"><a xlink:title=" ">
<polygon fill="#e0e0e0" stroke="#999999" points="517.5,-129 470.5,-129 470.5,-110 517.5,-110 517.5,-129"/>
<text text-anchor="middle" x="494" y="-117" font-family="Helvetica,sans-Serif" font-size="10.00">vector</text>
</a>
</g>
</g>
<!-- Node2&#45;&gt;Node25 -->
<g id="edge31_Node000002_Node000025" class="edge">
<title>Node2&#45;&gt;Node25</title>
<g id="a_edge31_Node000002_Node000025"><a xlink:title=" ">
<path fill="none" stroke="#63b8ff" d="M469.79,-164.75C473.76,-157.49 479.53,-146.95 484.43,-137.98"/>
<polygon fill="#63b8ff" stroke="#63b8ff" points="487.57,-139.54 489.3,-129.09 481.43,-136.18 487.57,-139.54"/>
</a>
</g>
</g>
<!-- Node4 -->
<g id="Node000004" class="node">
<title>Node4</title>
<g id="a_Node000004"><a xlink:href="Event_8h.html" target="_top" xlink:title=" ">
<polygon fill="white" stroke="#666666" points="480,-74 370,-74 370,-55 480,-55 480,-74"/>
<text text-anchor="middle" x="425" y="-62" font-family="Helvetica,sans-Serif" font-size="10.00">Core/Event/Event.h</text>
</a>
</g>
</g>
<!-- Node3&#45;&gt;Node4 -->
<g id="edge3_Node000003_Node000004" class="edge">
<title>Node3&#45;&gt;Node4</title>
<g id="a_edge3_Node000003_Node000004"><a xlink:title=" ">
<path fill="none" stroke="#63b8ff" d="M273.08,-109.98C303.6,-101.05 351.76,-86.94 385.66,-77.02"/>
<polygon fill="#63b8ff" stroke="#63b8ff" points="387.08,-80.25 395.69,-74.08 385.11,-73.53 387.08,-80.25"/>
</a>
</g>
</g>
<!-- Node5 -->
<g id="Node000005" class="node">
<title>Node5</title>
<g id="a_Node000005"><a xlink:title=" ">
<polygon fill="#e0e0e0" stroke="#999999" points="56,-19 0,-19 0,0 56,0 56,-19"/>
<text text-anchor="middle" x="28" y="-7" font-family="Helvetica,sans-Serif" font-size="10.00">sstream</text>
</a>
</g>
</g>
<!-- Node4&#45;&gt;Node5 -->
<g id="edge4_Node000004_Node000005" class="edge">
<title>Node4&#45;&gt;Node5</title>
<g id="a_edge4_Node000004_Node000005"><a xlink:title=" ">
<path fill="none" stroke="#63b8ff" d="M369.85,-58.46C300.99,-51.78 179.43,-38.67 66.11,-19.03"/>
<polygon fill="#63b8ff" stroke="#63b8ff" points="66.68,-15.58 56.22,-17.3 65.47,-22.47 66.68,-15.58"/>
</a>
</g>
</g>
<!-- Node4&#45;&gt;Node6 -->
<g id="edge5_Node000004_Node000006" class="edge">
<title>Node4&#45;&gt;Node6</title>
<g id="a_edge5_Node000004_Node000006"><a xlink:title=" ">
<path fill="none" stroke="#63b8ff" d="M370,-57.28C312.04,-50.29 217.97,-37.66 128.08,-19.01"/>
<polygon fill="#63b8ff" stroke="#63b8ff" points="128.78,-15.58 118.27,-16.95 127.34,-22.43 128.78,-15.58"/>
</a>
</g>
</g>
<!-- Node7&#45;&gt;Node4 -->
<g id="edge7_Node000007_Node000004" class="edge">
<title>Node7&#45;&gt;Node4</title>
<g id="a_edge7_Node000007_Node000004"><a xlink:title=" ">
<path fill="none" stroke="#63b8ff" d="M743.11,-109.98C673.9,-100.31 561.37,-84.57 490.36,-74.64"/>
<polygon fill="#63b8ff" stroke="#63b8ff" points="490.58,-71.14 480.2,-73.22 489.61,-78.07 490.58,-71.14"/>
</a>
</g>
</g>
<!-- Node7&#45;&gt;Node8 -->
<g id="edge8_Node000007_Node000008" class="edge">
<title>Node7&#45;&gt;Node8</title>
<g id="a_edge8_Node000007_Node000008"><a xlink:title=" ">
<path fill="none" stroke="#63b8ff" d="M822.8,-109.98C841.62,-101.46 870.82,-88.23 892.5,-78.41"/>
<polygon fill="#63b8ff" stroke="#63b8ff" points="894.2,-81.48 901.86,-74.17 891.31,-75.11 894.2,-81.48"/>
</a>
</g>
</g>
<!-- Node9 -->
<g id="Node000009" class="node">
<title>Node9</title>
<g id="a_Node000009"><a xlink:title=" ">
<polygon fill="#e0e0e0" stroke="#999999" points="1167,-19 1117,-19 1117,0 1167,0 1167,-19"/>
<text text-anchor="middle" x="1142" y="-7" font-family="Helvetica,sans-Serif" font-size="10.00">cstdint</text>
</a>
</g>
</g>
<!-- Node8&#45;&gt;Node9 -->
<g id="edge9_Node000008_Node000009" class="edge">
<title>Node8&#45;&gt;Node9</title>
<g id="a_edge9_Node000008_Node000009"><a xlink:title=" ">
<path fill="none" stroke="#63b8ff" d="M957.58,-54.93C993.23,-46.54 1049.25,-33.28 1106.76,-19.28"/>
<polygon fill="#63b8ff" stroke="#63b8ff" points="1107.87,-22.61 1116.76,-16.84 1106.21,-15.81 1107.87,-22.61"/>
</a>
</g>
</g>
<!-- Node10&#45;&gt;Node4 -->
<g id="edge11_Node000010_Node000004" class="edge">
<title>Node10&#45;&gt;Node4</title>
<g id="a_edge11_Node000010_Node000004"><a xlink:title=" ">
<path fill="none" stroke="#63b8ff" d="M550.06,-109.98C525.44,-101.23 486.88,-87.51 459.08,-77.62"/>
<polygon fill="#63b8ff" stroke="#63b8ff" points="459.97,-74.22 449.38,-74.17 457.62,-80.82 459.97,-74.22"/>
</a>
</g>
</g>
<!-- Node11&#45;&gt;Node4 -->
<g id="edge23_Node000011_Node000004" class="edge">
<title>Node11&#45;&gt;Node4</title>
<g id="a_edge23_Node000011_Node000004"><a xlink:title=" ">
<path fill="none" stroke="#63b8ff" d="M634.83,-109.98C591.5,-100.8 522.41,-86.15 475.44,-76.19"/>
<polygon fill="#63b8ff" stroke="#63b8ff" points="475.99,-72.73 465.48,-74.08 474.54,-79.58 475.99,-72.73"/>
</a>
</g>
</g>
<!-- Node11&#45;&gt;Node6 -->
<g id="edge26_Node000011_Node000006" class="edge">
<title>Node11&#45;&gt;Node6</title>
<g id="a_edge26_Node000011_Node000006"><a xlink:title=" ">
<path fill="none" stroke="#63b8ff" d="M655.07,-109.99C621.48,-96.04 551.18,-68.52 489,-55 334.25,-21.36 287.87,-47.37 128.41,-18.94"/>
<polygon fill="#63b8ff" stroke="#63b8ff" points="128.71,-15.44 118.25,-17.08 127.45,-22.32 128.71,-15.44"/>
</a>
</g>
</g>
<!-- Node12 -->
<g id="Node000012" class="node">
<title>Node12</title>
<g id="a_Node000012"><a xlink:href="BaseTypes_8h.html" target="_top" xlink:title=" ">
<polygon fill="white" stroke="#666666" points="837.5,-74 734.5,-74 734.5,-55 837.5,-55 837.5,-74"/>
<text text-anchor="middle" x="786" y="-62" font-family="Helvetica,sans-Serif" font-size="10.00">Core/BaseTypes.h</text>
</a>
</g>
</g>
<!-- Node11&#45;&gt;Node12 -->
<g id="edge13_Node000011_Node000012" class="edge">
<title>Node11&#45;&gt;Node12</title>
<g id="a_edge13_Node000011_Node000012"><a xlink:title=" ">
<path fill="none" stroke="#63b8ff" d="M692.83,-109.98C710.61,-101.5 738.15,-88.35 758.68,-78.54"/>
<polygon fill="#63b8ff" stroke="#63b8ff" points="760.33,-81.64 767.84,-74.17 757.31,-75.32 760.33,-81.64"/>
</a>
</g>
</g>
<!-- Node11&#45;&gt;Node21 -->
<g id="edge24_Node000011_Node000021" class="edge">
<title>Node11&#45;&gt;Node21</title>
<g id="a_edge24_Node000011_Node000021"><a xlink:title=" ">
<path fill="none" stroke="#63b8ff" d="M675,-109.75C675,-102.8 675,-92.85 675,-84.13"/>
<polygon fill="#63b8ff" stroke="#63b8ff" points="678.5,-84.09 675,-74.09 671.5,-84.09 678.5,-84.09"/>
</a>
</g>
</g>
<!-- Node11&#45;&gt;Node22 -->
<g id="edge25_Node000011_Node000022" class="edge">
<title>Node11&#45;&gt;Node22</title>
<g id="a_edge25_Node000011_Node000022"><a xlink:title=" ">
<path fill="none" stroke="#63b8ff" d="M630.24,-111.27C627.11,-110.82 624.01,-110.39 621,-110 479.23,-91.54 310.4,-75.96 232.84,-69.16"/>
<polygon fill="#63b8ff" stroke="#63b8ff" points="232.78,-65.64 222.51,-68.26 232.17,-72.62 232.78,-65.64"/>
</a>
</g>
</g>
<!-- Node12&#45;&gt;Node9 -->
<g id="edge22_Node000012_Node000009" class="edge">
<title>Node12&#45;&gt;Node9</title>
<g id="a_edge22_Node000012_Node000009"><a xlink:title=" ">
<path fill="none" stroke="#63b8ff" d="M837.58,-56.31C840.77,-55.86 843.93,-55.43 847,-55 959.82,-39.36 991.32,-41.12 1106.87,-19.04"/>
<polygon fill="#63b8ff" stroke="#63b8ff" points="1107.66,-22.45 1116.82,-17.12 1106.33,-15.58 1107.66,-22.45"/>
</a>
</g>
</g>
<!-- Node12&#45;&gt;Node13 -->
<g id="edge14_Node000012_Node000013" class="edge">
<title>Node12&#45;&gt;Node13</title>
<g id="a_edge14_Node000012_Node000013"><a xlink:title=" ">
<path fill="none" stroke="#63b8ff" d="M837.57,-56.21C840.76,-55.79 843.92,-55.38 847,-55 989.69,-37.26 1028.65,-39.71 1174.51,-19.13"/>
<polygon fill="#63b8ff" stroke="#63b8ff" points="1175.33,-22.55 1184.74,-17.67 1174.35,-15.62 1175.33,-22.55"/>
</a>
</g>
</g>
<!-- Node14 -->
<g id="Node000014" class="node">
<title>Node14</title>
<g id="a_Node000014"><a xlink:title=" ">
<polygon fill="#e0e0e0" stroke="#999999" points="299.5,-19 136.5,-19 136.5,0 299.5,0 299.5,-19"/>
<text text-anchor="middle" x="218" y="-7" font-family="Helvetica,sans-Serif" font-size="10.00">glm/gtc/matrix_transform.hpp</text>
</a>
</g>
</g>
<!-- Node12&#45;&gt;Node14 -->
<g id="edge15_Node000012_Node000014" class="edge">
<title>Node12&#45;&gt;Node14</title>
<g id="a_edge15_Node000012_Node000014"><a xlink:title=" ">
<path fill="none" stroke="#63b8ff" d="M734.44,-56.12C731.25,-55.73 728.08,-55.35 725,-55 543.83,-34.55 495.52,-35.59 309.94,-19.08"/>
<polygon fill="#63b8ff" stroke="#63b8ff" points="310.12,-15.58 299.85,-18.17 309.5,-22.55 310.12,-15.58"/>
</a>
</g>
</g>
<!-- Node15 -->
<g id="Node000015" class="node">
<title>Node15</title>
<g id="a_Node000015"><a xlink:title=" ">
<polygon fill="#e0e0e0" stroke="#999999" points="448,-19 318,-19 318,0 448,0 448,-19"/>
<text text-anchor="middle" x="383" y="-7" font-family="Helvetica,sans-Serif" font-size="10.00">glm/gtc/quaternion.hpp</text>
</a>
</g>
</g>
<!-- Node12&#45;&gt;Node15 -->
<g id="edge16_Node000012_Node000015" class="edge">
<title>Node12&#45;&gt;Node15</title>
<g id="a_edge16_Node000012_Node000015"><a xlink:title=" ">
<path fill="none" stroke="#63b8ff" d="M734.42,-56.28C731.23,-55.84 728.07,-55.41 725,-55 633.23,-42.64 527.54,-28.97 458.22,-20.09"/>
<polygon fill="#63b8ff" stroke="#63b8ff" points="458.63,-16.61 448.27,-18.81 457.74,-23.56 458.63,-16.61"/>
</a>
</g>
</g>
<!-- Node16 -->
<g id="Node000016" class="node">
<title>Node16</title>
<g id="a_Node000016"><a xlink:title=" ">
<polygon fill="#e0e0e0" stroke="#999999" points="583.5,-19 466.5,-19 466.5,0 583.5,0 583.5,-19"/>
<text text-anchor="middle" x="525" y="-7" font-family="Helvetica,sans-Serif" font-size="10.00">glm/gtc/type_ptr.hpp</text>
</a>
</g>
</g>
<!-- Node12&#45;&gt;Node16 -->
<g id="edge17_Node000012_Node000016" class="edge">
<title>Node12&#45;&gt;Node16</title>
<g id="a_edge17_Node000012_Node000016"><a xlink:title=" ">
<path fill="none" stroke="#63b8ff" d="M744.07,-54.98C698.73,-45.78 626.39,-31.09 577.35,-21.13"/>
<polygon fill="#63b8ff" stroke="#63b8ff" points="577.76,-17.64 567.26,-19.08 576.37,-24.5 577.76,-17.64"/>
</a>
</g>
</g>
<!-- Node17 -->
<g id="Node000017" class="node">
<title>Node17</title>
<g id="a_Node000017"><a xlink:title=" ">
<polygon fill="#e0e0e0" stroke="#999999" points="732.5,-19 601.5,-19 601.5,0 732.5,0 732.5,-19"/>
<text text-anchor="middle" x="667" y="-7" font-family="Helvetica,sans-Serif" font-size="10.00">glm/gtx/quaternion.hpp</text>
</a>
</g>
</g>
<!-- Node12&#45;&gt;Node17 -->
<g id="edge18_Node000012_Node000017" class="edge">
<title>Node12&#45;&gt;Node17</title>
<g id="a_edge18_Node000012_Node000017"><a xlink:title=" ">
<path fill="none" stroke="#63b8ff" d="M766.88,-54.98C747.65,-46.42 717.77,-33.11 695.69,-23.28"/>
<polygon fill="#63b8ff" stroke="#63b8ff" points="697.03,-20.04 686.47,-19.17 694.18,-26.44 697.03,-20.04"/>
</a>
</g>
</g>
<!-- Node18 -->
<g id="Node000018" class="node">
<title>Node18</title>
<g id="a_Node000018"><a xlink:title=" ">
<polygon fill="#e0e0e0" stroke="#999999" points="877,-19 751,-19 751,0 877,0 877,-19"/>
<text text-anchor="middle" x="814" y="-7" font-family="Helvetica,sans-Serif" font-size="10.00">glm/gtx/transform.hpp</text>
</a>
</g>
</g>
<!-- Node12&#45;&gt;Node18 -->
<g id="edge19_Node000012_Node000018" class="edge">
<title>Node12&#45;&gt;Node18</title>
<g id="a_edge19_Node000012_Node000018"><a xlink:title=" ">
<path fill="none" stroke="#63b8ff" d="M790.62,-54.75C794.46,-47.49 800.02,-36.95 804.76,-27.98"/>
<polygon fill="#63b8ff" stroke="#63b8ff" points="807.89,-29.57 809.46,-19.09 801.7,-26.3 807.89,-29.57"/>
</a>
</g>
</g>
<!-- Node19 -->
<g id="Node000019" class="node">
<title>Node19</title>
<g id="a_Node000019"><a xlink:title=" ">
<polygon fill="#e0e0e0" stroke="#999999" points="1036.5,-19 895.5,-19 895.5,0 1036.5,0 1036.5,-19"/>
<text text-anchor="middle" x="966" y="-7" font-family="Helvetica,sans-Serif" font-size="10.00">glm/gtx/vector_angle.hpp</text>
</a>
</g>
</g>
<!-- Node12&#45;&gt;Node19 -->
<g id="edge20_Node000012_Node000019" class="edge">
<title>Node12&#45;&gt;Node19</title>
<g id="a_edge20_Node000012_Node000019"><a xlink:title=" ">
<path fill="none" stroke="#63b8ff" d="M814.92,-54.98C845.27,-46.05 893.17,-31.94 926.88,-22.02"/>
<polygon fill="#63b8ff" stroke="#63b8ff" points="928.25,-25.26 936.85,-19.08 926.27,-18.55 928.25,-25.26"/>
</a>
</g>
</g>
<!-- Node20 -->
<g id="Node000020" class="node">
<title>Node20</title>
<g id="a_Node000020"><a xlink:title=" ">
<polygon fill="#e0e0e0" stroke="#999999" points="1099,-19 1055,-19 1055,0 1099,0 1099,-19"/>
<text text-anchor="middle" x="1077" y="-7" font-family="Helvetica,sans-Serif" font-size="10.00">bitset</text>
</a>
</g>
</g>
<!-- Node12&#45;&gt;Node20 -->
<g id="edge21_Node000012_Node000020" class="edge">
<title>Node12&#45;&gt;Node20</title>
<g id="a_edge21_Node000012_Node000020"><a xlink:title=" ">
<path fill="none" stroke="#63b8ff" d="M837.86,-55.99C888.19,-48.38 966.9,-35.66 1044.71,-18.88"/>
<polygon fill="#63b8ff" stroke="#63b8ff" points="1045.66,-22.25 1054.68,-16.7 1044.17,-15.41 1045.66,-22.25"/>
</a>
</g>
</g>
<!-- Node26&#45;&gt;Node8 -->
<g id="edge34_Node000026_Node000008" class="edge">
<title>Node26&#45;&gt;Node8</title>
<g id="a_edge34_Node000026_Node000008"><a xlink:title=" ">
<path fill="none" stroke="#63b8ff" d="M1006.61,-109.98C990.43,-101.57 965.43,-88.59 946.62,-78.81"/>
<polygon fill="#63b8ff" stroke="#63b8ff" points="948.17,-75.68 937.69,-74.17 944.95,-81.89 948.17,-75.68"/>
</a>
</g>
</g>
<!-- Node26&#45;&gt;Node12 -->
<g id="edge33_Node000026_Node000012" class="edge">
<title>Node26&#45;&gt;Node12</title>
<g id="a_edge33_Node000026_Node000012"><a xlink:title=" ">
<path fill="none" stroke="#63b8ff" d="M984.92,-109.98C944.01,-100.84 878.89,-86.27 834.38,-76.32"/>
<polygon fill="#63b8ff" stroke="#63b8ff" points="834.9,-72.85 824.38,-74.08 833.37,-79.68 834.9,-72.85"/>
</a>
</g>
</g>
<!-- Node27 -->
<g id="Node000027" class="node">
<title>Node27</title>
<g id="a_Node000027"><a xlink:href="MouseCodes_8h.html" target="_top" xlink:title=" ">
<polygon fill="white" stroke="#666666" points="1148,-74 1004,-74 1004,-55 1148,-55 1148,-74"/>
<text text-anchor="middle" x="1076" y="-62" font-family="Helvetica,sans-Serif" font-size="10.00">Core/Event/MouseCodes.h</text>
</a>
</g>
</g>
<!-- Node26&#45;&gt;Node27 -->
<g id="edge35_Node000026_Node000027" class="edge">
<title>Node26&#45;&gt;Node27</title>
<g id="a_edge35_Node000026_Node000027"><a xlink:title=" ">
<path fill="none" stroke="#63b8ff" d="M1031.75,-109.75C1039.47,-102.03 1050.9,-90.6 1060.22,-81.28"/>
<polygon fill="#63b8ff" stroke="#63b8ff" points="1062.81,-83.64 1067.41,-74.09 1057.86,-78.69 1062.81,-83.64"/>
</a>
</g>
</g>
<!-- Node29 -->
<g id="Node000029" class="node">
<title>Node29</title>
<g id="a_Node000029"><a xlink:title=" ">
<polygon fill="#e0e0e0" stroke="#999999" points="1249,-129 1199,-129 1199,-110 1249,-110 1249,-129"/>
<text text-anchor="middle" x="1224" y="-117" font-family="Helvetica,sans-Serif" font-size="10.00">format</text>
</a>
</g>
</g>
<!-- Node28&#45;&gt;Node29 -->
<g id="edge38_Node000028_Node000029" class="edge">
<title>Node28&#45;&gt;Node29</title>
<g id="a_edge38_Node000028_Node000029"><a xlink:title=" ">
<path fill="none" stroke="#63b8ff" d="M1249.88,-164.75C1245.64,-157.49 1239.47,-146.95 1234.22,-137.98"/>
<polygon fill="#63b8ff" stroke="#63b8ff" points="1237.09,-135.95 1229.02,-129.09 1231.05,-139.49 1237.09,-135.95"/>
</a>
</g>
</g>
<!-- Node28&#45;&gt;Node30 -->
<g id="edge39_Node000028_Node000030" class="edge">
<title>Node28&#45;&gt;Node30</title>
<g id="a_edge39_Node000028_Node000030"><a xlink:title=" ">
<path fill="none" stroke="#63b8ff" d="M1279.74,-164.98C1305.37,-156.16 1345.63,-142.31 1374.41,-132.41"/>
<polygon fill="#63b8ff" stroke="#63b8ff" points="1375.75,-135.65 1384.06,-129.08 1373.47,-129.03 1375.75,-135.65"/>
</a>
</g>
</g>
<!-- Node31 -->
<g id="Node000031" class="node">
<title>Node31</title>
<g id="a_Node000031"><a xlink:title=" ">
<polygon fill="#e0e0e0" stroke="#999999" points="1360.5,-129 1267.5,-129 1267.5,-110 1360.5,-110 1360.5,-129"/>
<text text-anchor="middle" x="1314" y="-117" font-family="Helvetica,sans-Serif" font-size="10.00">source_location</text>
</a>
</g>
</g>
<!-- Node28&#45;&gt;Node31 -->
<g id="edge40_Node000028_Node000031" class="edge">
<title>Node28&#45;&gt;Node31</title>
<g id="a_edge40_Node000028_Node000031"><a xlink:title=" ">
<path fill="none" stroke="#63b8ff" d="M1264.48,-164.98C1273.2,-157.15 1286.34,-145.34 1296.9,-135.86"/>
<polygon fill="#63b8ff" stroke="#63b8ff" points="1299.25,-138.46 1304.35,-129.17 1294.57,-133.25 1299.25,-138.46"/>
</a>
</g>
</g>
<!-- Node33 -->
<g id="Node000033" class="node">
<title>Node33</title>
<g id="a_Node000033"><a xlink:title=" ">
<polygon fill="#e0e0e0" stroke="#999999" points="1516.5,-129 1457.5,-129 1457.5,-110 1516.5,-110 1516.5,-129"/>
<text text-anchor="middle" x="1487" y="-117" font-family="Helvetica,sans-Serif" font-size="10.00">glad/gl.h</text>
</a>
</g>
</g>
<!-- Node32&#45;&gt;Node33 -->
<g id="edge42_Node000032_Node000033" class="edge">
<title>Node32&#45;&gt;Node33</title>
<g id="a_edge42_Node000032_Node000033"><a xlink:title=" ">
<path fill="none" stroke="#63b8ff" d="M1442.75,-164.75C1450.47,-157.03 1461.9,-145.6 1471.22,-136.28"/>
<polygon fill="#63b8ff" stroke="#63b8ff" points="1473.81,-138.64 1478.41,-129.09 1468.86,-133.69 1473.81,-138.64"/>
</a>
</g>
</g>
</g>
</svg>
