<?xml version="1.0" encoding="UTF-8" standalone="no"?>
<!DOCTYPE svg PUBLIC "-//W3C//DTD SVG 1.1//EN"
 "http://www.w3.org/Graphics/SVG/1.1/DTD/svg11.dtd">
<!-- Generated by graphviz version 2.43.0 (0)
 -->
<!-- Title: App/Source/AppLayer.cpp Pages: 1 -->
<svg width="1755pt" height="247pt"
 viewBox="0.00 0.00 1755.00 247.00" xmlns="http://www.w3.org/2000/svg" xmlns:xlink="http://www.w3.org/1999/xlink">
<g id="graph0" class="graph" transform="scale(1 1) rotate(0) translate(4 243)">
<title>App/Source/AppLayer.cpp</title>
<!-- Node1 -->
<g id="Node000001" class="node">
<title>Node1</title>
<g id="a_Node000001"><a xlink:title=" ">
<polygon fill="#999999" stroke="#666666" points="1375.5,-239 1235.5,-239 1235.5,-220 1375.5,-220 1375.5,-239"/>
<text text-anchor="middle" x="1305.5" y="-227" font-family="Helvetica,sans-Serif" font-size="10.00">App/Source/AppLayer.cpp</text>
</a>
</g>
</g>
<!-- Node2 -->
<g id="Node000002" class="node">
<title>Node2</title>
<g id="a_Node000002"><a xlink:href="AppLayer_8h.html" target="_top" xlink:title=" ">
<polygon fill="white" stroke="#666666" points="173.5,-184 45.5,-184 45.5,-165 173.5,-165 173.5,-184"/>
<text text-anchor="middle" x="109.5" y="-172" font-family="Helvetica,sans-Serif" font-size="10.00">Application/AppLayer.h</text>
</a>
</g>
</g>
<!-- Node1&#45;&gt;Node2 -->
<g id="edge1_Node000001_Node000002" class="edge">
<title>Node1&#45;&gt;Node2</title>
<g id="a_edge1_Node000001_Node000002"><a xlink:title=" ">
<path fill="none" stroke="#63b8ff" d="M1235.15,-225.38C1024.42,-216.04 399.56,-188.35 183.78,-178.79"/>
<polygon fill="#63b8ff" stroke="#63b8ff" points="183.65,-175.28 173.51,-178.34 183.34,-182.28 183.65,-175.28"/>
</a>
</g>
</g>
<!-- Node8 -->
<g id="Node000008" class="node">
<title>Node8</title>
<g id="a_Node000008"><a xlink:href="Application_8h.html" target="_top" xlink:title=" ">
<polygon fill="white" stroke="#666666" points="682.5,-184 576.5,-184 576.5,-165 682.5,-165 682.5,-184"/>
<text text-anchor="middle" x="629.5" y="-172" font-family="Helvetica,sans-Serif" font-size="10.00">Core/Application.h</text>
</a>
</g>
</g>
<!-- Node1&#45;&gt;Node8 -->
<g id="edge7_Node000001_Node000008" class="edge">
<title>Node1&#45;&gt;Node8</title>
<g id="a_edge7_Node000001_Node000008"><a xlink:title=" ">
<path fill="none" stroke="#63b8ff" d="M1235.39,-223C1103.32,-212.65 819.61,-190.4 692.89,-180.47"/>
<polygon fill="#63b8ff" stroke="#63b8ff" points="692.82,-176.95 682.58,-179.66 692.28,-183.93 692.82,-176.95"/>
</a>
</g>
</g>
<!-- Node15 -->
<g id="Node000015" class="node">
<title>Node15</title>
<g id="a_Node000015"><a xlink:title=" ">
<polygon fill="#e0e0e0" stroke="#999999" points="1478.5,-19 1400.5,-19 1400.5,0 1478.5,0 1478.5,-19"/>
<text text-anchor="middle" x="1439.5" y="-7" font-family="Helvetica,sans-Serif" font-size="10.00">glm/glm.hpp</text>
</a>
</g>
</g>
<!-- Node1&#45;&gt;Node15 -->
<g id="edge48_Node000001_Node000015" class="edge">
<title>Node1&#45;&gt;Node15</title>
<g id="a_edge48_Node000001_Node000015"><a xlink:title=" ">
<path fill="none" stroke="#63b8ff" d="M1328.47,-219.97C1345.06,-212.73 1366.86,-200.81 1380.5,-184 1418.86,-136.72 1432.84,-63.17 1437.45,-29.05"/>
<polygon fill="#63b8ff" stroke="#63b8ff" points="1440.93,-29.44 1438.68,-19.09 1433.98,-28.58 1440.93,-29.44"/>
</a>
</g>
</g>
<!-- Node28 -->
<g id="Node000028" class="node">
<title>Node28</title>
<g id="a_Node000028"><a xlink:href="PrintHelpers_8h.html" target="_top" xlink:title=" ">
<polygon fill="white" stroke="#666666" points="1061,-184 950,-184 950,-165 1061,-165 1061,-184"/>
<text text-anchor="middle" x="1005.5" y="-172" font-family="Helvetica,sans-Serif" font-size="10.00">Core/PrintHelpers.h</text>
</a>
</g>
</g>
<!-- Node1&#45;&gt;Node28 -->
<g id="edge35_Node000001_Node000028" class="edge">
<title>Node1&#45;&gt;Node28</title>
<g id="a_edge35_Node000001_Node000028"><a xlink:title=" ">
<path fill="none" stroke="#63b8ff" d="M1257.3,-219.98C1204.75,-210.7 1120.65,-195.84 1064.27,-185.88"/>
<polygon fill="#63b8ff" stroke="#63b8ff" points="1064.53,-182.38 1054.08,-184.08 1063.32,-189.27 1064.53,-182.38"/>
</a>
</g>
</g>
<!-- Node32 -->
<g id="Node000032" class="node">
<title>Node32</title>
<g id="a_Node000032"><a xlink:href="Renderer_8h.html" target="_top" xlink:title=" ">
<polygon fill="white" stroke="#666666" points="1221.5,-184 1079.5,-184 1079.5,-165 1221.5,-165 1221.5,-184"/>
<text text-anchor="middle" x="1150.5" y="-172" font-family="Helvetica,sans-Serif" font-size="10.00">Core/Renderer/Renderer.h</text>
</a>
</g>
</g>
<!-- Node1&#45;&gt;Node32 -->
<g id="edge39_Node000001_Node000032" class="edge">
<title>Node1&#45;&gt;Node32</title>
<g id="a_edge39_Node000001_Node000032"><a xlink:title=" ">
<path fill="none" stroke="#63b8ff" d="M1280.6,-219.98C1254.8,-211.16 1214.28,-197.31 1185.32,-187.41"/>
<polygon fill="#63b8ff" stroke="#63b8ff" points="1186.19,-184.01 1175.6,-184.08 1183.93,-190.63 1186.19,-184.01"/>
</a>
</g>
</g>
<!-- Node35 -->
<g id="Node000035" class="node">
<title>Node35</title>
<g id="a_Node000035"><a xlink:href="Shader_8h.html" target="_top" xlink:title=" ">
<polygon fill="white" stroke="#666666" points="1371,-184 1240,-184 1240,-165 1371,-165 1371,-184"/>
<text text-anchor="middle" x="1305.5" y="-172" font-family="Helvetica,sans-Serif" font-size="10.00">Core/Renderer/Shader.h</text>
</a>
</g>
</g>
<!-- Node1&#45;&gt;Node35 -->
<g id="edge43_Node000001_Node000035" class="edge">
<title>Node1&#45;&gt;Node35</title>
<g id="a_edge43_Node000001_Node000035"><a xlink:title=" ">
<path fill="none" stroke="#63b8ff" d="M1305.5,-219.75C1305.5,-212.8 1305.5,-202.85 1305.5,-194.13"/>
<polygon fill="#63b8ff" stroke="#63b8ff" points="1309,-194.09 1305.5,-184.09 1302,-194.09 1309,-194.09"/>
</a>
</g>
</g>
<!-- Node36 -->
<g id="Node000036" class="node">
<title>Node36</title>
<g id="a_Node000036"><a xlink:title=" ">
<polygon fill="#e0e0e0" stroke="#999999" points="1481,-184 1428,-184 1428,-165 1481,-165 1481,-184"/>
<text text-anchor="middle" x="1454.5" y="-172" font-family="Helvetica,sans-Serif" font-size="10.00">imgui.h</text>
</a>
</g>
</g>
<!-- Node1&#45;&gt;Node36 -->
<g id="edge45_Node000001_Node000036" class="edge">
<title>Node1&#45;&gt;Node36</title>
<g id="a_edge45_Node000001_Node000036"><a xlink:title=" ">
<path fill="none" stroke="#63b8ff" d="M1329.44,-219.98C1354.06,-211.23 1392.62,-197.51 1420.42,-187.62"/>
<polygon fill="#63b8ff" stroke="#63b8ff" points="1421.88,-190.82 1430.12,-184.17 1419.53,-184.22 1421.88,-190.82"/>
</a>
</g>
</g>
<!-- Node37 -->
<g id="Node000037" class="node">
<title>Node37</title>
<g id="a_Node000037"><a xlink:title=" ">
<polygon fill="#e0e0e0" stroke="#999999" points="1604,-184 1499,-184 1499,-165 1604,-165 1604,-184"/>
<text text-anchor="middle" x="1551.5" y="-172" font-family="Helvetica,sans-Serif" font-size="10.00">imgui_impl_glfw.h</text>
</a>
</g>
</g>
<!-- Node1&#45;&gt;Node37 -->
<g id="edge46_Node000001_Node000037" class="edge">
<title>Node1&#45;&gt;Node37</title>
<g id="a_edge46_Node000001_Node000037"><a xlink:title=" ">
<path fill="none" stroke="#63b8ff" d="M1345.02,-219.98C1387.67,-210.8 1455.65,-196.15 1501.86,-186.19"/>
<polygon fill="#63b8ff" stroke="#63b8ff" points="1502.63,-189.61 1511.67,-184.08 1501.15,-182.77 1502.63,-189.61"/>
</a>
</g>
</g>
<!-- Node38 -->
<g id="Node000038" class="node">
<title>Node38</title>
<g id="a_Node000038"><a xlink:title=" ">
<polygon fill="#e0e0e0" stroke="#999999" points="1747,-184 1622,-184 1622,-165 1747,-165 1747,-184"/>
<text text-anchor="middle" x="1684.5" y="-172" font-family="Helvetica,sans-Serif" font-size="10.00">imgui_impl_opengl3.h</text>
</a>
</g>
</g>
<!-- Node1&#45;&gt;Node38 -->
<g id="edge47_Node000001_Node000038" class="edge">
<title>Node1&#45;&gt;Node38</title>
<g id="a_edge47_Node000001_Node000038"><a xlink:title=" ">
<path fill="none" stroke="#63b8ff" d="M1366.39,-219.98C1433.7,-210.57 1542,-195.43 1613.22,-185.47"/>
<polygon fill="#63b8ff" stroke="#63b8ff" points="1614.03,-188.89 1623.44,-184.04 1613.06,-181.96 1614.03,-188.89"/>
</a>
</g>
</g>
<!-- Node3 -->
<g id="Node000003" class="node">
<title>Node3</title>
<g id="a_Node000003"><a xlink:href="Layer_8h.html" target="_top" xlink:title=" ">
<polygon fill="white" stroke="#666666" points="148,-129 71,-129 71,-110 148,-110 148,-129"/>
<text text-anchor="middle" x="109.5" y="-117" font-family="Helvetica,sans-Serif" font-size="10.00">Core/Layer.h</text>
</a>
</g>
</g>
<!-- Node2&#45;&gt;Node3 -->
<g id="edge2_Node000002_Node000003" class="edge">
<title>Node2&#45;&gt;Node3</title>
<g id="a_edge2_Node000002_Node000003"><a xlink:title=" ">
<path fill="none" stroke="#63b8ff" d="M109.5,-164.75C109.5,-157.8 109.5,-147.85 109.5,-139.13"/>
<polygon fill="#63b8ff" stroke="#63b8ff" points="113,-139.09 109.5,-129.09 106,-139.09 113,-139.09"/>
</a>
</g>
</g>
<!-- Node7 -->
<g id="Node000007" class="node">
<title>Node7</title>
<g id="a_Node000007"><a xlink:title=" ">
<polygon fill="#e0e0e0" stroke="#999999" points="53,-129 0,-129 0,-110 53,-110 53,-129"/>
<text text-anchor="middle" x="26.5" y="-117" font-family="Helvetica,sans-Serif" font-size="10.00">stdint.h</text>
</a>
</g>
</g>
<!-- Node2&#45;&gt;Node7 -->
<g id="edge6_Node000002_Node000007" class="edge">
<title>Node2&#45;&gt;Node7</title>
<g id="a_edge6_Node000002_Node000007"><a xlink:title=" ">
<path fill="none" stroke="#63b8ff" d="M96.16,-164.98C83.41,-156.84 63.95,-144.41 48.83,-134.76"/>
<polygon fill="#63b8ff" stroke="#63b8ff" points="50.39,-131.6 40.08,-129.17 46.62,-137.5 50.39,-131.6"/>
</a>
</g>
</g>
<!-- Node4 -->
<g id="Node000004" class="node">
<title>Node4</title>
<g id="a_Node000004"><a xlink:href="Event_8h.html" target="_top" xlink:title=" ">
<polygon fill="white" stroke="#666666" points="334.5,-74 224.5,-74 224.5,-55 334.5,-55 334.5,-74"/>
<text text-anchor="middle" x="279.5" y="-62" font-family="Helvetica,sans-Serif" font-size="10.00">Core/Event/Event.h</text>
</a>
</g>
</g>
<!-- Node3&#45;&gt;Node4 -->
<g id="edge3_Node000003_Node000004" class="edge">
<title>Node3&#45;&gt;Node4</title>
<g id="a_edge3_Node000003_Node000004"><a xlink:title=" ">
<path fill="none" stroke="#63b8ff" d="M136.81,-109.98C165.35,-101.09 210.33,-87.07 242.14,-77.15"/>
<polygon fill="#63b8ff" stroke="#63b8ff" points="243.47,-80.4 251.97,-74.08 241.38,-73.72 243.47,-80.4"/>
</a>
</g>
</g>
<!-- Node5 -->
<g id="Node000005" class="node">
<title>Node5</title>
<g id="a_Node000005"><a xlink:title=" ">
<polygon fill="#e0e0e0" stroke="#999999" points="271.5,-19 215.5,-19 215.5,0 271.5,0 271.5,-19"/>
<text text-anchor="middle" x="243.5" y="-7" font-family="Helvetica,sans-Serif" font-size="10.00">sstream</text>
</a>
</g>
</g>
<!-- Node4&#45;&gt;Node5 -->
<g id="edge4_Node000004_Node000005" class="edge">
<title>Node4&#45;&gt;Node5</title>
<g id="a_edge4_Node000004_Node000005"><a xlink:title=" ">
<path fill="none" stroke="#63b8ff" d="M273.56,-54.75C268.52,-47.34 261.16,-36.5 254.99,-27.41"/>
<polygon fill="#63b8ff" stroke="#63b8ff" points="257.85,-25.39 249.33,-19.09 252.06,-29.33 257.85,-25.39"/>
</a>
</g>
</g>
<!-- Node6 -->
<g id="Node000006" class="node">
<title>Node6</title>
<g id="a_Node000006"><a xlink:title=" ">
<polygon fill="#e0e0e0" stroke="#999999" points="333.5,-19 289.5,-19 289.5,0 333.5,0 333.5,-19"/>
<text text-anchor="middle" x="311.5" y="-7" font-family="Helvetica,sans-Serif" font-size="10.00">string</text>
</a>
</g>
</g>
<!-- Node4&#45;&gt;Node6 -->
<g id="edge5_Node000004_Node000006" class="edge">
<title>Node4&#45;&gt;Node6</title>
<g id="a_edge5_Node000004_Node000006"><a xlink:title=" ">
<path fill="none" stroke="#63b8ff" d="M284.78,-54.75C289.21,-47.42 295.66,-36.73 301.12,-27.7"/>
<polygon fill="#63b8ff" stroke="#63b8ff" points="304.14,-29.46 306.31,-19.09 298.15,-25.84 304.14,-29.46"/>
</a>
</g>
</g>
<!-- Node8&#45;&gt;Node3 -->
<g id="edge14_Node000008_Node000003" class="edge">
<title>Node8&#45;&gt;Node3</title>
<g id="a_edge14_Node000008_Node000003"><a xlink:title=" ">
<path fill="none" stroke="#63b8ff" d="M576.25,-169.9C490.54,-163.79 316.49,-150.1 158.61,-129.04"/>
<polygon fill="#63b8ff" stroke="#63b8ff" points="158.61,-125.5 148.23,-127.64 157.67,-132.44 158.61,-125.5"/>
</a>
</g>
</g>
<!-- Node8&#45;&gt;Node6 -->
<g id="edge33_Node000008_Node000006" class="edge">
<title>Node8&#45;&gt;Node6</title>
<g id="a_edge33_Node000008_Node000006"><a xlink:title=" ">
<path fill="none" stroke="#63b8ff" d="M609.49,-164.84C589.23,-156.01 557.06,-141.84 529.5,-129 512.02,-120.86 507.84,-118.44 490.5,-110 457.62,-93.99 448.63,-91.48 416.5,-74 387.16,-58.03 354.37,-37.8 333.36,-24.52"/>
<polygon fill="#63b8ff" stroke="#63b8ff" points="335.18,-21.53 324.86,-19.12 331.42,-27.44 335.18,-21.53"/>
</a>
</g>
</g>
<!-- Node9 -->
<g id="Node000009" class="node">
<title>Node9</title>
<g id="a_Node000009"><a xlink:href="ApplicationEvent_8h.html" target="_top" xlink:title=" ">
<polygon fill="white" stroke="#666666" points="330.5,-129 166.5,-129 166.5,-110 330.5,-110 330.5,-129"/>
<text text-anchor="middle" x="248.5" y="-117" font-family="Helvetica,sans-Serif" font-size="10.00">Core/Event/ApplicationEvent.h</text>
</a>
</g>
</g>
<!-- Node8&#45;&gt;Node9 -->
<g id="edge8_Node000008_Node000009" class="edge">
<title>Node8&#45;&gt;Node9</title>
<g id="a_edge8_Node000008_Node000009"><a xlink:title=" ">
<path fill="none" stroke="#63b8ff" d="M576.12,-166.07C509.23,-156.77 394.34,-140.79 319.93,-130.44"/>
<polygon fill="#63b8ff" stroke="#63b8ff" points="320.09,-126.93 309.71,-129.01 319.13,-133.86 320.09,-126.93"/>
</a>
</g>
</g>
<!-- Node10 -->
<g id="Node000010" class="node">
<title>Node10</title>
<g id="a_Node000010"><a xlink:href="KeyEvents_8h.html" target="_top" xlink:title=" ">
<polygon fill="white" stroke="#666666" points="482,-129 349,-129 349,-110 482,-110 482,-129"/>
<text text-anchor="middle" x="415.5" y="-117" font-family="Helvetica,sans-Serif" font-size="10.00">Core/Event/KeyEvents.h</text>
</a>
</g>
</g>
<!-- Node8&#45;&gt;Node10 -->
<g id="edge10_Node000008_Node000010" class="edge">
<title>Node8&#45;&gt;Node10</title>
<g id="a_edge10_Node000008_Node000010"><a xlink:title=" ">
<path fill="none" stroke="#63b8ff" d="M595.12,-164.98C558.41,-155.89 500.12,-141.46 459.95,-131.51"/>
<polygon fill="#63b8ff" stroke="#63b8ff" points="460.7,-128.09 450.15,-129.08 459.02,-134.88 460.7,-128.09"/>
</a>
</g>
</g>
<!-- Node13 -->
<g id="Node000013" class="node">
<title>Node13</title>
<g id="a_Node000013"><a xlink:href="Window_8h.html" target="_top" xlink:title=" ">
<polygon fill="white" stroke="#666666" points="628,-129 539,-129 539,-110 628,-110 628,-129"/>
<text text-anchor="middle" x="583.5" y="-117" font-family="Helvetica,sans-Serif" font-size="10.00">Core/Window.h</text>
</a>
</g>
</g>
<!-- Node8&#45;&gt;Node13 -->
<g id="edge15_Node000008_Node000013" class="edge">
<title>Node8&#45;&gt;Node13</title>
<g id="a_edge15_Node000008_Node000013"><a xlink:title=" ">
<path fill="none" stroke="#63b8ff" d="M621.9,-164.75C615.34,-157.18 605.68,-146.05 597.69,-136.84"/>
<polygon fill="#63b8ff" stroke="#63b8ff" points="600.15,-134.35 590.95,-129.09 594.87,-138.94 600.15,-134.35"/>
</a>
</g>
</g>
<!-- Node24 -->
<g id="Node000024" class="node">
<title>Node24</title>
<g id="a_Node000024"><a xlink:title=" ">
<polygon fill="#e0e0e0" stroke="#999999" points="880,-74 815,-74 815,-55 880,-55 880,-74"/>
<text text-anchor="middle" x="847.5" y="-62" font-family="Helvetica,sans-Serif" font-size="10.00">functional</text>
</a>
</g>
</g>
<!-- Node8&#45;&gt;Node24 -->
<g id="edge30_Node000008_Node000024" class="edge">
<title>Node8&#45;&gt;Node24</title>
<g id="a_edge30_Node000008_Node000024"><a xlink:title=" ">
<path fill="none" stroke="#63b8ff" d="M682.92,-167.53C734.14,-160.77 806.68,-148.14 827.5,-129 839.85,-117.64 844.63,-98.74 846.45,-84.51"/>
<polygon fill="#63b8ff" stroke="#63b8ff" points="849.95,-84.6 847.36,-74.33 842.98,-83.98 849.95,-84.6"/>
</a>
</g>
</g>
<!-- Node25 -->
<g id="Node000025" class="node">
<title>Node25</title>
<g id="a_Node000025"><a xlink:title=" ">
<polygon fill="#e0e0e0" stroke="#999999" points="703.5,-129 645.5,-129 645.5,-110 703.5,-110 703.5,-129"/>
<text text-anchor="middle" x="674.5" y="-117" font-family="Helvetica,sans-Serif" font-size="10.00">memory</text>
</a>
</g>
</g>
<!-- Node8&#45;&gt;Node25 -->
<g id="edge31_Node000008_Node000025" class="edge">
<title>Node8&#45;&gt;Node25</title>
<g id="a_edge31_Node000008_Node000025"><a xlink:title=" ">
<path fill="none" stroke="#63b8ff" d="M636.93,-164.75C643.35,-157.18 652.81,-146.05 660.62,-136.84"/>
<polygon fill="#63b8ff" stroke="#63b8ff" points="663.4,-138.98 667.21,-129.09 658.07,-134.45 663.4,-138.98"/>
</a>
</g>
</g>
<!-- Node26 -->
<g id="Node000026" class="node">
<title>Node26</title>
<g id="a_Node000026"><a xlink:title=" ">
<polygon fill="#e0e0e0" stroke="#999999" points="753.5,-129 721.5,-129 721.5,-110 753.5,-110 753.5,-129"/>
<text text-anchor="middle" x="737.5" y="-117" font-family="Helvetica,sans-Serif" font-size="10.00">set</text>
</a>
</g>
</g>
<!-- Node8&#45;&gt;Node26 -->
<g id="edge32_Node000008_Node000026" class="edge">
<title>Node8&#45;&gt;Node26</title>
<g id="a_edge32_Node000008_Node000026"><a xlink:title=" ">
<path fill="none" stroke="#63b8ff" d="M646.85,-164.98C664.48,-156.33 691.97,-142.84 712.06,-132.98"/>
<polygon fill="#63b8ff" stroke="#63b8ff" points="713.82,-136.02 721.25,-128.47 710.73,-129.74 713.82,-136.02"/>
</a>
</g>
</g>
<!-- Node27 -->
<g id="Node000027" class="node">
<title>Node27</title>
<g id="a_Node000027"><a xlink:title=" ">
<polygon fill="#e0e0e0" stroke="#999999" points="819,-129 772,-129 772,-110 819,-110 819,-129"/>
<text text-anchor="middle" x="795.5" y="-117" font-family="Helvetica,sans-Serif" font-size="10.00">vector</text>
</a>
</g>
</g>
<!-- Node8&#45;&gt;Node27 -->
<g id="edge34_Node000008_Node000027" class="edge">
<title>Node8&#45;&gt;Node27</title>
<g id="a_edge34_Node000008_Node000027"><a xlink:title=" ">
<path fill="none" stroke="#63b8ff" d="M656.17,-164.98C685.03,-155.77 731.1,-141.06 762.29,-131.1"/>
<polygon fill="#63b8ff" stroke="#63b8ff" points="763.39,-134.43 771.85,-128.05 761.26,-127.76 763.39,-134.43"/>
</a>
</g>
</g>
<!-- Node9&#45;&gt;Node4 -->
<g id="edge9_Node000009_Node000004" class="edge">
<title>Node9&#45;&gt;Node4</title>
<g id="a_edge9_Node000009_Node000004"><a xlink:title=" ">
<path fill="none" stroke="#63b8ff" d="M253.62,-109.75C257.86,-102.49 264.03,-91.95 269.28,-82.98"/>
<polygon fill="#63b8ff" stroke="#63b8ff" points="272.45,-84.49 274.48,-74.09 266.41,-80.95 272.45,-84.49"/>
</a>
</g>
</g>
<!-- Node10&#45;&gt;Node4 -->
<g id="edge11_Node000010_Node000004" class="edge">
<title>Node10&#45;&gt;Node4</title>
<g id="a_edge11_Node000010_Node000004"><a xlink:title=" ">
<path fill="none" stroke="#63b8ff" d="M393.65,-109.98C371.38,-101.3 336.6,-87.75 311.28,-77.88"/>
<polygon fill="#63b8ff" stroke="#63b8ff" points="312.34,-74.54 301.75,-74.17 309.79,-81.06 312.34,-74.54"/>
</a>
</g>
</g>
<!-- Node11 -->
<g id="Node000011" class="node">
<title>Node11</title>
<g id="a_Node000011"><a xlink:href="KeyCodes_8h.html" target="_top" xlink:title=" ">
<polygon fill="white" stroke="#666666" points="555.5,-74 425.5,-74 425.5,-55 555.5,-55 555.5,-74"/>
<text text-anchor="middle" x="490.5" y="-62" font-family="Helvetica,sans-Serif" font-size="10.00">Core/Event/KeyCodes.h</text>
</a>
</g>
</g>
<!-- Node10&#45;&gt;Node11 -->
<g id="edge12_Node000010_Node000011" class="edge">
<title>Node10&#45;&gt;Node11</title>
<g id="a_edge12_Node000010_Node000011"><a xlink:title=" ">
<path fill="none" stroke="#63b8ff" d="M427.55,-109.98C438.96,-101.92 456.33,-89.65 469.93,-80.03"/>
<polygon fill="#63b8ff" stroke="#63b8ff" points="472.08,-82.8 478.23,-74.17 468.04,-77.08 472.08,-82.8"/>
</a>
</g>
</g>
<!-- Node12 -->
<g id="Node000012" class="node">
<title>Node12</title>
<g id="a_Node000012"><a xlink:title=" ">
<polygon fill="#e0e0e0" stroke="#999999" points="401.5,-19 351.5,-19 351.5,0 401.5,0 401.5,-19"/>
<text text-anchor="middle" x="376.5" y="-7" font-family="Helvetica,sans-Serif" font-size="10.00">cstdint</text>
</a>
</g>
</g>
<!-- Node11&#45;&gt;Node12 -->
<g id="edge13_Node000011_Node000012" class="edge">
<title>Node11&#45;&gt;Node12</title>
<g id="a_edge13_Node000011_Node000012"><a xlink:title=" ">
<path fill="none" stroke="#63b8ff" d="M472.18,-54.98C453.84,-46.46 425.39,-33.23 404.27,-23.41"/>
<polygon fill="#63b8ff" stroke="#63b8ff" points="405.69,-20.21 395.15,-19.17 402.74,-26.56 405.69,-20.21"/>
</a>
</g>
</g>
<!-- Node13&#45;&gt;Node4 -->
<g id="edge26_Node000013_Node000004" class="edge">
<title>Node13&#45;&gt;Node4</title>
<g id="a_edge26_Node000013_Node000004"><a xlink:title=" ">
<path fill="none" stroke="#63b8ff" d="M538.97,-110.74C485.89,-101.48 397,-85.98 338.3,-75.75"/>
<polygon fill="#63b8ff" stroke="#63b8ff" points="338.88,-72.3 328.43,-74.03 337.68,-79.2 338.88,-72.3"/>
</a>
</g>
</g>
<!-- Node13&#45;&gt;Node6 -->
<g id="edge29_Node000013_Node000006" class="edge">
<title>Node13&#45;&gt;Node6</title>
<g id="a_edge29_Node000013_Node000006"><a xlink:title=" ">
<path fill="none" stroke="#63b8ff" d="M583.61,-109.57C583.27,-95.66 580.41,-68.97 564.5,-55 491.73,8.88 443.27,-37.16 343.59,-18.89"/>
<polygon fill="#63b8ff" stroke="#63b8ff" points="344.27,-15.46 333.78,-16.92 342.89,-22.32 344.27,-15.46"/>
</a>
</g>
</g>
<!-- Node14 -->
<g id="Node000014" class="node">
<title>Node14</title>
<g id="a_Node000014"><a xlink:href="BaseTypes_8h.html" target="_top" xlink:title=" ">
<polygon fill="white" stroke="#666666" points="797,-74 694,-74 694,-55 797,-55 797,-74"/>
<text text-anchor="middle" x="745.5" y="-62" font-family="Helvetica,sans-Serif" font-size="10.00">Core/BaseTypes.h</text>
</a>
</g>
</g>
<!-- Node13&#45;&gt;Node14 -->
<g id="edge16_Node000013_Node000014" class="edge">
<title>Node13&#45;&gt;Node14</title>
<g id="a_edge16_Node000013_Node000014"><a xlink:title=" ">
<path fill="none" stroke="#63b8ff" d="M609.53,-109.98C636.61,-101.13 679.21,-87.19 709.51,-77.28"/>
<polygon fill="#63b8ff" stroke="#63b8ff" points="710.85,-80.52 719.27,-74.08 708.68,-73.87 710.85,-80.52"/>
</a>
</g>
</g>
<!-- Node23 -->
<g id="Node000023" class="node">
<title>Node23</title>
<g id="a_Node000023"><a xlink:title=" ">
<polygon fill="#e0e0e0" stroke="#999999" points="1083,-74 1000,-74 1000,-55 1083,-55 1083,-74"/>
<text text-anchor="middle" x="1041.5" y="-62" font-family="Helvetica,sans-Serif" font-size="10.00">GLFW/glfw3.h</text>
</a>
</g>
</g>
<!-- Node13&#45;&gt;Node23 -->
<g id="edge27_Node000013_Node000023" class="edge">
<title>Node13&#45;&gt;Node23</title>
<g id="a_edge27_Node000013_Node000023"><a xlink:title=" ">
<path fill="none" stroke="#63b8ff" d="M628.01,-111.2C630.88,-110.78 633.73,-110.37 636.5,-110 762.87,-92.93 912.09,-77.84 989.32,-70.4"/>
<polygon fill="#63b8ff" stroke="#63b8ff" points="990.11,-73.84 999.73,-69.4 989.44,-66.87 990.11,-73.84"/>
</a>
</g>
</g>
<!-- Node13&#45;&gt;Node24 -->
<g id="edge28_Node000013_Node000024" class="edge">
<title>Node13&#45;&gt;Node24</title>
<g id="a_edge28_Node000013_Node000024"><a xlink:title=" ">
<path fill="none" stroke="#63b8ff" d="M626.06,-109.99C668.66,-101.47 736.35,-87.92 804.84,-74.13"/>
<polygon fill="#63b8ff" stroke="#63b8ff" points="805.83,-77.5 814.94,-72.1 804.45,-70.64 805.83,-77.5"/>
</a>
</g>
</g>
<!-- Node14&#45;&gt;Node12 -->
<g id="edge25_Node000014_Node000012" class="edge">
<title>Node14&#45;&gt;Node12</title>
<g id="a_edge25_Node000014_Node000012"><a xlink:title=" ">
<path fill="none" stroke="#63b8ff" d="M693.85,-58.47C629.8,-51.82 517.14,-38.81 411.55,-19.01"/>
<polygon fill="#63b8ff" stroke="#63b8ff" points="412.16,-15.56 401.68,-17.13 410.85,-22.44 412.16,-15.56"/>
</a>
</g>
</g>
<!-- Node14&#45;&gt;Node15 -->
<g id="edge17_Node000014_Node000015" class="edge">
<title>Node14&#45;&gt;Node15</title>
<g id="a_edge17_Node000014_Node000015"><a xlink:title=" ">
<path fill="none" stroke="#63b8ff" d="M797.18,-55.91C799.99,-55.58 802.78,-55.28 805.5,-55 1061.81,-29.01 1130.65,-49.27 1390.16,-19.02"/>
<polygon fill="#63b8ff" stroke="#63b8ff" points="1390.74,-22.47 1400.26,-17.82 1389.92,-15.52 1390.74,-22.47"/>
</a>
</g>
</g>
<!-- Node16 -->
<g id="Node000016" class="node">
<title>Node16</title>
<g id="a_Node000016"><a xlink:title=" ">
<polygon fill="#e0e0e0" stroke="#999999" points="949,-19 786,-19 786,0 949,0 949,-19"/>
<text text-anchor="middle" x="867.5" y="-7" font-family="Helvetica,sans-Serif" font-size="10.00">glm/gtc/matrix_transform.hpp</text>
</a>
</g>
</g>
<!-- Node14&#45;&gt;Node16 -->
<g id="edge18_Node000014_Node000016" class="edge">
<title>Node14&#45;&gt;Node16</title>
<g id="a_edge18_Node000014_Node000016"><a xlink:title=" ">
<path fill="none" stroke="#63b8ff" d="M765.1,-54.98C784.82,-46.42 815.45,-33.11 838.08,-23.28"/>
<polygon fill="#63b8ff" stroke="#63b8ff" points="839.76,-26.37 847.54,-19.17 836.98,-19.94 839.76,-26.37"/>
</a>
</g>
</g>
<!-- Node17 -->
<g id="Node000017" class="node">
<title>Node17</title>
<g id="a_Node000017"><a xlink:title=" ">
<polygon fill="#e0e0e0" stroke="#999999" points="1097.5,-19 967.5,-19 967.5,0 1097.5,0 1097.5,-19"/>
<text text-anchor="middle" x="1032.5" y="-7" font-family="Helvetica,sans-Serif" font-size="10.00">glm/gtc/quaternion.hpp</text>
</a>
</g>
</g>
<!-- Node14&#45;&gt;Node17 -->
<g id="edge19_Node000014_Node000017" class="edge">
<title>Node14&#45;&gt;Node17</title>
<g id="a_edge19_Node000014_Node000017"><a xlink:title=" ">
<path fill="none" stroke="#63b8ff" d="M791.61,-54.98C841.78,-45.72 922.01,-30.9 975.94,-20.94"/>
<polygon fill="#63b8ff" stroke="#63b8ff" points="976.83,-24.34 986.03,-19.08 975.56,-17.46 976.83,-24.34"/>
</a>
</g>
</g>
<!-- Node18 -->
<g id="Node000018" class="node">
<title>Node18</title>
<g id="a_Node000018"><a xlink:title=" ">
<polygon fill="#e0e0e0" stroke="#999999" points="1233,-19 1116,-19 1116,0 1233,0 1233,-19"/>
<text text-anchor="middle" x="1174.5" y="-7" font-family="Helvetica,sans-Serif" font-size="10.00">glm/gtc/type_ptr.hpp</text>
</a>
</g>
</g>
<!-- Node14&#45;&gt;Node18 -->
<g id="edge20_Node000014_Node000018" class="edge">
<title>Node14&#45;&gt;Node18</title>
<g id="a_edge20_Node000014_Node000018"><a xlink:title=" ">
<path fill="none" stroke="#63b8ff" d="M797.2,-56.1C800.01,-55.72 802.79,-55.35 805.5,-55 935.83,-37.98 971.06,-35.47 1105.61,-19.1"/>
<polygon fill="#63b8ff" stroke="#63b8ff" points="1106.39,-22.53 1115.9,-17.85 1105.55,-15.58 1106.39,-22.53"/>
</a>
</g>
</g>
<!-- Node19 -->
<g id="Node000019" class="node">
<title>Node19</title>
<g id="a_Node000019"><a xlink:title=" ">
<polygon fill="#e0e0e0" stroke="#999999" points="1382,-19 1251,-19 1251,0 1382,0 1382,-19"/>
<text text-anchor="middle" x="1316.5" y="-7" font-family="Helvetica,sans-Serif" font-size="10.00">glm/gtx/quaternion.hpp</text>
</a>
</g>
</g>
<!-- Node14&#45;&gt;Node19 -->
<g id="edge21_Node000014_Node000019" class="edge">
<title>Node14&#45;&gt;Node19</title>
<g id="a_edge21_Node000014_Node000019"><a xlink:title=" ">
<path fill="none" stroke="#63b8ff" d="M797.19,-55.98C800,-55.63 802.78,-55.3 805.5,-55 995.86,-33.69 1046.83,-37.97 1240.51,-19.17"/>
<polygon fill="#63b8ff" stroke="#63b8ff" points="1241.13,-22.62 1250.74,-18.16 1240.45,-15.66 1241.13,-22.62"/>
</a>
</g>
</g>
<!-- Node20 -->
<g id="Node000020" class="node">
<title>Node20</title>
<g id="a_Node000020"><a xlink:title=" ">
<polygon fill="#e0e0e0" stroke="#999999" points="545.5,-19 419.5,-19 419.5,0 545.5,0 545.5,-19"/>
<text text-anchor="middle" x="482.5" y="-7" font-family="Helvetica,sans-Serif" font-size="10.00">glm/gtx/transform.hpp</text>
</a>
</g>
</g>
<!-- Node14&#45;&gt;Node20 -->
<g id="edge22_Node000014_Node000020" class="edge">
<title>Node14&#45;&gt;Node20</title>
<g id="a_edge22_Node000014_Node000020"><a xlink:title=" ">
<path fill="none" stroke="#63b8ff" d="M703.24,-54.98C657.46,-45.76 584.36,-31.03 534.95,-21.07"/>
<polygon fill="#63b8ff" stroke="#63b8ff" points="535.58,-17.63 525.09,-19.08 534.2,-24.49 535.58,-17.63"/>
</a>
</g>
</g>
<!-- Node21 -->
<g id="Node000021" class="node">
<title>Node21</title>
<g id="a_Node000021"><a xlink:title=" ">
<polygon fill="#e0e0e0" stroke="#999999" points="705,-19 564,-19 564,0 705,0 705,-19"/>
<text text-anchor="middle" x="634.5" y="-7" font-family="Helvetica,sans-Serif" font-size="10.00">glm/gtx/vector_angle.hpp</text>
</a>
</g>
</g>
<!-- Node14&#45;&gt;Node21 -->
<g id="edge23_Node000014_Node000021" class="edge">
<title>Node14&#45;&gt;Node21</title>
<g id="a_edge23_Node000014_Node000021"><a xlink:title=" ">
<path fill="none" stroke="#63b8ff" d="M727.67,-54.98C709.89,-46.5 682.35,-33.35 661.82,-23.54"/>
<polygon fill="#63b8ff" stroke="#63b8ff" points="663.19,-20.32 652.66,-19.17 660.17,-26.64 663.19,-20.32"/>
</a>
</g>
</g>
<!-- Node22 -->
<g id="Node000022" class="node">
<title>Node22</title>
<g id="a_Node000022"><a xlink:title=" ">
<polygon fill="#e0e0e0" stroke="#999999" points="767.5,-19 723.5,-19 723.5,0 767.5,0 767.5,-19"/>
<text text-anchor="middle" x="745.5" y="-7" font-family="Helvetica,sans-Serif" font-size="10.00">bitset</text>
</a>
</g>
</g>
<!-- Node14&#45;&gt;Node22 -->
<g id="edge24_Node000014_Node000022" class="edge">
<title>Node14&#45;&gt;Node22</title>
<g id="a_edge24_Node000014_Node000022"><a xlink:title=" ">
<path fill="none" stroke="#63b8ff" d="M745.5,-54.75C745.5,-47.8 745.5,-37.85 745.5,-29.13"/>
<polygon fill="#63b8ff" stroke="#63b8ff" points="749,-29.09 745.5,-19.09 742,-29.09 749,-29.09"/>
</a>
</g>
</g>
<!-- Node29 -->
<g id="Node000029" class="node">
<title>Node29</title>
<g id="a_Node000029"><a xlink:title=" ">
<polygon fill="#e0e0e0" stroke="#999999" points="1037.5,-129 987.5,-129 987.5,-110 1037.5,-110 1037.5,-129"/>
<text text-anchor="middle" x="1012.5" y="-117" font-family="Helvetica,sans-Serif" font-size="10.00">format</text>
</a>
</g>
</g>
<!-- Node28&#45;&gt;Node29 -->
<g id="edge36_Node000028_Node000029" class="edge">
<title>Node28&#45;&gt;Node29</title>
<g id="a_edge36_Node000028_Node000029"><a xlink:title=" ">
<path fill="none" stroke="#63b8ff" d="M1006.66,-164.75C1007.57,-157.8 1008.89,-147.85 1010.04,-139.13"/>
<polygon fill="#63b8ff" stroke="#63b8ff" points="1013.53,-139.46 1011.37,-129.09 1006.59,-138.54 1013.53,-139.46"/>
</a>
</g>
</g>
<!-- Node30 -->
<g id="Node000030" class="node">
<title>Node30</title>
<g id="a_Node000030"><a xlink:title=" ">
<polygon fill="#e0e0e0" stroke="#999999" points="1115.5,-129 1055.5,-129 1055.5,-110 1115.5,-110 1115.5,-129"/>
<text text-anchor="middle" x="1085.5" y="-117" font-family="Helvetica,sans-Serif" font-size="10.00">iostream</text>
</a>
</g>
</g>
<!-- Node28&#45;&gt;Node30 -->
<g id="edge37_Node000028_Node000030" class="edge">
<title>Node28&#45;&gt;Node30</title>
<g id="a_edge37_Node000028_Node000030"><a xlink:title=" ">
<path fill="none" stroke="#63b8ff" d="M1018.35,-164.98C1030.64,-156.84 1049.41,-144.41 1063.98,-134.76"/>
<polygon fill="#63b8ff" stroke="#63b8ff" points="1066.01,-137.61 1072.41,-129.17 1062.14,-131.78 1066.01,-137.61"/>
</a>
</g>
</g>
<!-- Node31 -->
<g id="Node000031" class="node">
<title>Node31</title>
<g id="a_Node000031"><a xlink:title=" ">
<polygon fill="#e0e0e0" stroke="#999999" points="969,-129 876,-129 876,-110 969,-110 969,-129"/>
<text text-anchor="middle" x="922.5" y="-117" font-family="Helvetica,sans-Serif" font-size="10.00">source_location</text>
</a>
</g>
</g>
<!-- Node28&#45;&gt;Node31 -->
<g id="edge38_Node000028_Node000031" class="edge">
<title>Node28&#45;&gt;Node31</title>
<g id="a_edge38_Node000028_Node000031"><a xlink:title=" ">
<path fill="none" stroke="#63b8ff" d="M992.16,-164.98C979.41,-156.84 959.95,-144.41 944.83,-134.76"/>
<polygon fill="#63b8ff" stroke="#63b8ff" points="946.39,-131.6 936.08,-129.17 942.62,-137.5 946.39,-131.6"/>
</a>
</g>
</g>
<!-- Node32&#45;&gt;Node23 -->
<g id="edge40_Node000032_Node000023" class="edge">
<title>Node32&#45;&gt;Node23</title>
<g id="a_edge40_Node000032_Node000023"><a xlink:title=" ">
<path fill="none" stroke="#63b8ff" d="M1148.88,-164.69C1146.03,-151.4 1139.02,-126.1 1124.5,-110 1111.6,-95.69 1092.98,-85.12 1076.65,-77.88"/>
<polygon fill="#63b8ff" stroke="#63b8ff" points="1077.93,-74.63 1067.35,-74.01 1075.23,-81.09 1077.93,-74.63"/>
</a>
</g>
</g>
<!-- Node33 -->
<g id="Node000033" class="node">
<title>Node33</title>
<g id="a_Node000033"><a xlink:title=" ">
<polygon fill="#e0e0e0" stroke="#999999" points="1231,-129 1172,-129 1172,-110 1231,-110 1231,-129"/>
<text text-anchor="middle" x="1201.5" y="-117" font-family="Helvetica,sans-Serif" font-size="10.00">glad/gl.h</text>
</a>
</g>
</g>
<!-- Node32&#45;&gt;Node33 -->
<g id="edge41_Node000032_Node000033" class="edge">
<title>Node32&#45;&gt;Node33</title>
<g id="a_edge41_Node000032_Node000033"><a xlink:title=" ">
<path fill="none" stroke="#63b8ff" d="M1158.92,-164.75C1166.27,-157.11 1177.13,-145.82 1186.04,-136.56"/>
<polygon fill="#63b8ff" stroke="#63b8ff" points="1188.82,-138.72 1193.24,-129.09 1183.78,-133.87 1188.82,-138.72"/>
</a>
</g>
</g>
<!-- Node34 -->
<g id="Node000034" class="node">
<title>Node34</title>
<g id="a_Node000034"><a xlink:title=" ">
<polygon fill="#e0e0e0" stroke="#999999" points="1328.5,-129 1260.5,-129 1260.5,-110 1328.5,-110 1328.5,-129"/>
<text text-anchor="middle" x="1294.5" y="-117" font-family="Helvetica,sans-Serif" font-size="10.00">filesystem</text>
</a>
</g>
</g>
<!-- Node32&#45;&gt;Node34 -->
<g id="edge42_Node000032_Node000034" class="edge">
<title>Node32&#45;&gt;Node34</title>
<g id="a_edge42_Node000032_Node000034"><a xlink:title=" ">
<path fill="none" stroke="#63b8ff" d="M1173.64,-164.98C1197.32,-156.27 1234.37,-142.63 1261.21,-132.75"/>
<polygon fill="#63b8ff" stroke="#63b8ff" points="1262.77,-135.91 1270.94,-129.17 1260.35,-129.34 1262.77,-135.91"/>
</a>
</g>
</g>
<!-- Node35&#45;&gt;Node34 -->
<g id="edge44_Node000035_Node000034" class="edge">
<title>Node35&#45;&gt;Node34</title>
<g id="a_edge44_Node000035_Node000034"><a xlink:title=" ">
<path fill="none" stroke="#63b8ff" d="M1303.68,-164.75C1302.24,-157.8 1300.18,-147.85 1298.37,-139.13"/>
<polygon fill="#63b8ff" stroke="#63b8ff" points="1301.74,-138.17 1296.28,-129.09 1294.89,-139.59 1301.74,-138.17"/>
</a>
</g>
</g>
</g>
</svg>
