<?xml version="1.0" encoding="UTF-8" standalone="no"?>
<!DOCTYPE svg PUBLIC "-//W3C//DTD SVG 1.1//EN"
 "http://www.w3.org/Graphics/SVG/1.1/DTD/svg11.dtd">
<!-- Generated by graphviz version 2.43.0 (0)
 -->
<!-- Title: App/Source/AppLayer.cpp Pages: 1 -->
<svg width="1670pt" height="247pt"
 viewBox="0.00 0.00 1669.50 247.00" xmlns="http://www.w3.org/2000/svg" xmlns:xlink="http://www.w3.org/1999/xlink">
<g id="graph0" class="graph" transform="scale(1 1) rotate(0) translate(4 243)">
<title>App/Source/AppLayer.cpp</title>
<!-- Node1 -->
<g id="Node000001" class="node">
<title>Node1</title>
<g id="a_Node000001"><a xlink:title=" ">
<polygon fill="#999999" stroke="#666666" points="1174,-239 1034,-239 1034,-220 1174,-220 1174,-239"/>
<text text-anchor="middle" x="1104" y="-227" font-family="Helvetica,sans-Serif" font-size="10.00">App/Source/AppLayer.cpp</text>
</a>
</g>
</g>
<!-- Node2 -->
<g id="Node000002" class="node">
<title>Node2</title>
<g id="a_Node000002"><a xlink:href="AppLayer_8h.html" target="_top" xlink:title=" ">
<polygon fill="white" stroke="#666666" points="285,-184 157,-184 157,-165 285,-165 285,-184"/>
<text text-anchor="middle" x="221" y="-172" font-family="Helvetica,sans-Serif" font-size="10.00">Application/AppLayer.h</text>
</a>
</g>
</g>
<!-- Node1&#45;&gt;Node2 -->
<g id="edge1_Node000001_Node000002" class="edge">
<title>Node1&#45;&gt;Node2</title>
<g id="a_edge1_Node000001_Node000002"><a xlink:title=" ">
<path fill="none" stroke="#63b8ff" d="M1033.97,-224.3C870.16,-214.46 463.17,-190.04 295.26,-179.96"/>
<polygon fill="#63b8ff" stroke="#63b8ff" points="295.22,-176.45 285.03,-179.34 294.8,-183.44 295.22,-176.45"/>
</a>
</g>
</g>
<!-- Node8 -->
<g id="Node000008" class="node">
<title>Node8</title>
<g id="a_Node000008"><a xlink:href="Application_8h.html" target="_top" xlink:title=" ">
<polygon fill="white" stroke="#666666" points="552,-184 446,-184 446,-165 552,-165 552,-184"/>
<text text-anchor="middle" x="499" y="-172" font-family="Helvetica,sans-Serif" font-size="10.00">Core/Application.h</text>
</a>
</g>
</g>
<!-- Node1&#45;&gt;Node8 -->
<g id="edge7_Node000001_Node000008" class="edge">
<title>Node1&#45;&gt;Node8</title>
<g id="a_edge7_Node000001_Node000008"><a xlink:title=" ">
<path fill="none" stroke="#63b8ff" d="M1033.71,-222.34C914.93,-211.94 676.3,-191.03 562.37,-181.05"/>
<polygon fill="#63b8ff" stroke="#63b8ff" points="562.66,-177.56 552.4,-180.18 562.05,-184.54 562.66,-177.56"/>
</a>
</g>
</g>
<!-- Node10 -->
<g id="Node000010" class="node">
<title>Node10</title>
<g id="a_Node000010"><a xlink:title=" ">
<polygon fill="#e0e0e0" stroke="#999999" points="1263,-19 1185,-19 1185,0 1263,0 1263,-19"/>
<text text-anchor="middle" x="1224" y="-7" font-family="Helvetica,sans-Serif" font-size="10.00">glm/glm.hpp</text>
</a>
</g>
</g>
<!-- Node1&#45;&gt;Node10 -->
<g id="edge41_Node000001_Node000010" class="edge">
<title>Node1&#45;&gt;Node10</title>
<g id="a_edge41_Node000001_Node000010"><a xlink:title=" ">
<path fill="none" stroke="#63b8ff" d="M1072.95,-219.87C1055.25,-213.18 1034.55,-201.95 1024,-184 1015.87,-170.18 978.66,-112.31 1025,-55 1029.78,-49.09 1117.66,-31.09 1175.02,-19.88"/>
<polygon fill="#63b8ff" stroke="#63b8ff" points="1175.85,-23.28 1185,-17.94 1174.51,-16.41 1175.85,-23.28"/>
</a>
</g>
</g>
<!-- Node25 -->
<g id="Node000025" class="node">
<title>Node25</title>
<g id="a_Node000025"><a xlink:href="PrintHelpers_8h.html" target="_top" xlink:title=" ">
<polygon fill="white" stroke="#666666" points="933.5,-184 822.5,-184 822.5,-165 933.5,-165 933.5,-184"/>
<text text-anchor="middle" x="878" y="-172" font-family="Helvetica,sans-Serif" font-size="10.00">Core/PrintHelpers.h</text>
</a>
</g>
</g>
<!-- Node1&#45;&gt;Node25 -->
<g id="edge28_Node000001_Node000025" class="edge">
<title>Node1&#45;&gt;Node25</title>
<g id="a_edge28_Node000001_Node000025"><a xlink:title=" ">
<path fill="none" stroke="#63b8ff" d="M1067.69,-219.98C1028.76,-210.86 966.84,-196.33 924.4,-186.38"/>
<polygon fill="#63b8ff" stroke="#63b8ff" points="925.13,-182.96 914.6,-184.08 923.53,-189.77 925.13,-182.96"/>
</a>
</g>
</g>
<!-- Node29 -->
<g id="Node000029" class="node">
<title>Node29</title>
<g id="a_Node000029"><a xlink:href="Renderer_8h.html" target="_top" xlink:title=" ">
<polygon fill="white" stroke="#666666" points="1175,-184 1033,-184 1033,-165 1175,-165 1175,-184"/>
<text text-anchor="middle" x="1104" y="-172" font-family="Helvetica,sans-Serif" font-size="10.00">Core/Renderer/Renderer.h</text>
</a>
</g>
</g>
<!-- Node1&#45;&gt;Node29 -->
<g id="edge32_Node000001_Node000029" class="edge">
<title>Node1&#45;&gt;Node29</title>
<g id="a_edge32_Node000001_Node000029"><a xlink:title=" ">
<path fill="none" stroke="#63b8ff" d="M1104,-219.75C1104,-212.8 1104,-202.85 1104,-194.13"/>
<polygon fill="#63b8ff" stroke="#63b8ff" points="1107.5,-194.09 1104,-184.09 1100.5,-194.09 1107.5,-194.09"/>
</a>
</g>
</g>
<!-- Node32 -->
<g id="Node000032" class="node">
<title>Node32</title>
<g id="a_Node000032"><a xlink:href="Shader_8h.html" target="_top" xlink:title=" ">
<polygon fill="white" stroke="#666666" points="1324.5,-184 1193.5,-184 1193.5,-165 1324.5,-165 1324.5,-184"/>
<text text-anchor="middle" x="1259" y="-172" font-family="Helvetica,sans-Serif" font-size="10.00">Core/Renderer/Shader.h</text>
</a>
</g>
</g>
<!-- Node1&#45;&gt;Node32 -->
<g id="edge36_Node000001_Node000032" class="edge">
<title>Node1&#45;&gt;Node32</title>
<g id="a_edge36_Node000001_Node000032"><a xlink:title=" ">
<path fill="none" stroke="#63b8ff" d="M1128.9,-219.98C1154.7,-211.16 1195.22,-197.31 1224.18,-187.41"/>
<polygon fill="#63b8ff" stroke="#63b8ff" points="1225.57,-190.63 1233.9,-184.08 1223.31,-184.01 1225.57,-190.63"/>
</a>
</g>
</g>
<!-- Node33 -->
<g id="Node000033" class="node">
<title>Node33</title>
<g id="a_Node000033"><a xlink:title=" ">
<polygon fill="#e0e0e0" stroke="#999999" points="1395.5,-184 1342.5,-184 1342.5,-165 1395.5,-165 1395.5,-184"/>
<text text-anchor="middle" x="1369" y="-172" font-family="Helvetica,sans-Serif" font-size="10.00">imgui.h</text>
</a>
</g>
</g>
<!-- Node1&#45;&gt;Node33 -->
<g id="edge38_Node000001_Node000033" class="edge">
<title>Node1&#45;&gt;Node33</title>
<g id="a_edge38_Node000001_Node000033"><a xlink:title=" ">
<path fill="none" stroke="#63b8ff" d="M1151.71,-219.95C1196.13,-211.83 1264.44,-198.97 1332.27,-184.3"/>
<polygon fill="#63b8ff" stroke="#63b8ff" points="1333.25,-187.67 1342.28,-182.13 1331.76,-180.83 1333.25,-187.67"/>
</a>
</g>
</g>
<!-- Node34 -->
<g id="Node000034" class="node">
<title>Node34</title>
<g id="a_Node000034"><a xlink:title=" ">
<polygon fill="#e0e0e0" stroke="#999999" points="1518.5,-184 1413.5,-184 1413.5,-165 1518.5,-165 1518.5,-184"/>
<text text-anchor="middle" x="1466" y="-172" font-family="Helvetica,sans-Serif" font-size="10.00">imgui_impl_glfw.h</text>
</a>
</g>
</g>
<!-- Node1&#45;&gt;Node34 -->
<g id="edge39_Node000001_Node000034" class="edge">
<title>Node1&#45;&gt;Node34</title>
<g id="a_edge39_Node000001_Node000034"><a xlink:title=" ">
<path fill="none" stroke="#63b8ff" d="M1162.16,-219.98C1228.13,-210.33 1335.31,-194.63 1403.15,-184.7"/>
<polygon fill="#63b8ff" stroke="#63b8ff" points="1403.89,-188.13 1413.28,-183.22 1402.88,-181.2 1403.89,-188.13"/>
</a>
</g>
</g>
<!-- Node35 -->
<g id="Node000035" class="node">
<title>Node35</title>
<g id="a_Node000035"><a xlink:title=" ">
<polygon fill="#e0e0e0" stroke="#999999" points="1661.5,-184 1536.5,-184 1536.5,-165 1661.5,-165 1661.5,-184"/>
<text text-anchor="middle" x="1599" y="-172" font-family="Helvetica,sans-Serif" font-size="10.00">imgui_impl_opengl3.h</text>
</a>
</g>
</g>
<!-- Node1&#45;&gt;Node35 -->
<g id="edge40_Node000001_Node000035" class="edge">
<title>Node1&#45;&gt;Node35</title>
<g id="a_edge40_Node000001_Node000035"><a xlink:title=" ">
<path fill="none" stroke="#63b8ff" d="M1174.18,-221.45C1256.17,-213.14 1396.18,-198.74 1526.15,-184.2"/>
<polygon fill="#63b8ff" stroke="#63b8ff" points="1526.74,-187.65 1536.29,-183.06 1525.96,-180.69 1526.74,-187.65"/>
</a>
</g>
</g>
<!-- Node3 -->
<g id="Node000003" class="node">
<title>Node3</title>
<g id="a_Node000003"><a xlink:href="Layer_8h.html" target="_top" xlink:title=" ">
<polygon fill="white" stroke="#666666" points="259.5,-129 182.5,-129 182.5,-110 259.5,-110 259.5,-129"/>
<text text-anchor="middle" x="221" y="-117" font-family="Helvetica,sans-Serif" font-size="10.00">Core/Layer.h</text>
</a>
</g>
</g>
<!-- Node2&#45;&gt;Node3 -->
<g id="edge2_Node000002_Node000003" class="edge">
<title>Node2&#45;&gt;Node3</title>
<g id="a_edge2_Node000002_Node000003"><a xlink:title=" ">
<path fill="none" stroke="#63b8ff" d="M221,-164.75C221,-157.8 221,-147.85 221,-139.13"/>
<polygon fill="#63b8ff" stroke="#63b8ff" points="224.5,-139.09 221,-129.09 217.5,-139.09 224.5,-139.09"/>
</a>
</g>
</g>
<!-- Node7 -->
<g id="Node000007" class="node">
<title>Node7</title>
<g id="a_Node000007"><a xlink:title=" ">
<polygon fill="#e0e0e0" stroke="#999999" points="164.5,-129 111.5,-129 111.5,-110 164.5,-110 164.5,-129"/>
<text text-anchor="middle" x="138" y="-117" font-family="Helvetica,sans-Serif" font-size="10.00">stdint.h</text>
</a>
</g>
</g>
<!-- Node2&#45;&gt;Node7 -->
<g id="edge6_Node000002_Node000007" class="edge">
<title>Node2&#45;&gt;Node7</title>
<g id="a_edge6_Node000002_Node000007"><a xlink:title=" ">
<path fill="none" stroke="#63b8ff" d="M207.66,-164.98C194.91,-156.84 175.45,-144.41 160.33,-134.76"/>
<polygon fill="#63b8ff" stroke="#63b8ff" points="161.89,-131.6 151.58,-129.17 158.12,-137.5 161.89,-131.6"/>
</a>
</g>
</g>
<!-- Node4 -->
<g id="Node000004" class="node">
<title>Node4</title>
<g id="a_Node000004"><a xlink:href="Event_8h.html" target="_top" xlink:title=" ">
<polygon fill="white" stroke="#666666" points="151,-74 41,-74 41,-55 151,-55 151,-74"/>
<text text-anchor="middle" x="96" y="-62" font-family="Helvetica,sans-Serif" font-size="10.00">Core/Event/Event.h</text>
</a>
</g>
</g>
<!-- Node3&#45;&gt;Node4 -->
<g id="edge3_Node000003_Node000004" class="edge">
<title>Node3&#45;&gt;Node4</title>
<g id="a_edge3_Node000003_Node000004"><a xlink:title=" ">
<path fill="none" stroke="#63b8ff" d="M200.92,-109.98C180.63,-101.38 149.04,-87.99 125.83,-78.15"/>
<polygon fill="#63b8ff" stroke="#63b8ff" points="127.02,-74.85 116.45,-74.17 124.29,-81.3 127.02,-74.85"/>
</a>
</g>
</g>
<!-- Node5 -->
<g id="Node000005" class="node">
<title>Node5</title>
<g id="a_Node000005"><a xlink:title=" ">
<polygon fill="#e0e0e0" stroke="#999999" points="56,-19 0,-19 0,0 56,0 56,-19"/>
<text text-anchor="middle" x="28" y="-7" font-family="Helvetica,sans-Serif" font-size="10.00">sstream</text>
</a>
</g>
</g>
<!-- Node4&#45;&gt;Node5 -->
<g id="edge4_Node000004_Node000005" class="edge">
<title>Node4&#45;&gt;Node5</title>
<g id="a_edge4_Node000004_Node000005"><a xlink:title=" ">
<path fill="none" stroke="#63b8ff" d="M85.07,-54.98C74.92,-47.07 59.58,-35.11 47.35,-25.58"/>
<polygon fill="#63b8ff" stroke="#63b8ff" points="49.16,-22.56 39.12,-19.17 44.86,-28.08 49.16,-22.56"/>
</a>
</g>
</g>
<!-- Node6 -->
<g id="Node000006" class="node">
<title>Node6</title>
<g id="a_Node000006"><a xlink:title=" ">
<polygon fill="#e0e0e0" stroke="#999999" points="118,-19 74,-19 74,0 118,0 118,-19"/>
<text text-anchor="middle" x="96" y="-7" font-family="Helvetica,sans-Serif" font-size="10.00">string</text>
</a>
</g>
</g>
<!-- Node4&#45;&gt;Node6 -->
<g id="edge5_Node000004_Node000006" class="edge">
<title>Node4&#45;&gt;Node6</title>
<g id="a_edge5_Node000004_Node000006"><a xlink:title=" ">
<path fill="none" stroke="#63b8ff" d="M96,-54.75C96,-47.8 96,-37.85 96,-29.13"/>
<polygon fill="#63b8ff" stroke="#63b8ff" points="99.5,-29.09 96,-19.09 92.5,-29.09 99.5,-29.09"/>
</a>
</g>
</g>
<!-- Node8&#45;&gt;Node3 -->
<g id="edge18_Node000008_Node000003" class="edge">
<title>Node8&#45;&gt;Node3</title>
<g id="a_edge18_Node000008_Node000003"><a xlink:title=" ">
<path fill="none" stroke="#63b8ff" d="M454.33,-164.98C403.83,-155.36 321.86,-139.73 269.73,-129.79"/>
<polygon fill="#63b8ff" stroke="#63b8ff" points="270.2,-126.32 259.73,-127.88 268.89,-133.19 270.2,-126.32"/>
</a>
</g>
</g>
<!-- Node8&#45;&gt;Node6 -->
<g id="edge26_Node000008_Node000006" class="edge">
<title>Node8&#45;&gt;Node6</title>
<g id="a_edge26_Node000008_Node000006"><a xlink:title=" ">
<path fill="none" stroke="#63b8ff" d="M471.4,-164.86C445.44,-156.49 405.64,-143.03 372,-129 354.21,-121.58 350.56,-117.96 333,-110 259.72,-76.8 172.12,-41.02 126.71,-22.75"/>
<polygon fill="#63b8ff" stroke="#63b8ff" points="128,-19.5 117.42,-19.02 125.39,-26 128,-19.5"/>
</a>
</g>
</g>
<!-- Node9 -->
<g id="Node000009" class="node">
<title>Node9</title>
<g id="a_Node000009"><a xlink:href="BaseTypes_8h.html" target="_top" xlink:title=" ">
<polygon fill="white" stroke="#666666" points="683.5,-74 580.5,-74 580.5,-55 683.5,-55 683.5,-74"/>
<text text-anchor="middle" x="632" y="-62" font-family="Helvetica,sans-Serif" font-size="10.00">Core/BaseTypes.h</text>
</a>
</g>
</g>
<!-- Node8&#45;&gt;Node9 -->
<g id="edge8_Node000008_Node000009" class="edge">
<title>Node8&#45;&gt;Node9</title>
<g id="a_edge8_Node000008_Node000009"><a xlink:title=" ">
<path fill="none" stroke="#63b8ff" d="M499.26,-164.95C500.11,-151.56 503.65,-125.57 518,-110 532.79,-93.96 554.06,-83.62 574.23,-77"/>
<polygon fill="#63b8ff" stroke="#63b8ff" points="575.45,-80.29 584.01,-74.04 573.42,-73.59 575.45,-80.29"/>
</a>
</g>
</g>
<!-- Node19 -->
<g id="Node000019" class="node">
<title>Node19</title>
<g id="a_Node000019"><a xlink:href="Window_8h.html" target="_top" xlink:title=" ">
<polygon fill="white" stroke="#666666" points="470.5,-129 381.5,-129 381.5,-110 470.5,-110 470.5,-129"/>
<text text-anchor="middle" x="426" y="-117" font-family="Helvetica,sans-Serif" font-size="10.00">Core/Window.h</text>
</a>
</g>
</g>
<!-- Node8&#45;&gt;Node19 -->
<g id="edge19_Node000008_Node000019" class="edge">
<title>Node8&#45;&gt;Node19</title>
<g id="a_edge19_Node000008_Node000019"><a xlink:title=" ">
<path fill="none" stroke="#63b8ff" d="M487.27,-164.98C476.27,-157 459.58,-144.88 446.4,-135.31"/>
<polygon fill="#63b8ff" stroke="#63b8ff" points="448.09,-132.21 437.94,-129.17 443.98,-137.88 448.09,-132.21"/>
</a>
</g>
</g>
<!-- Node21 -->
<g id="Node000021" class="node">
<title>Node21</title>
<g id="a_Node000021"><a xlink:title=" ">
<polygon fill="#e0e0e0" stroke="#999999" points="592.5,-129 527.5,-129 527.5,-110 592.5,-110 592.5,-129"/>
<text text-anchor="middle" x="560" y="-117" font-family="Helvetica,sans-Serif" font-size="10.00">functional</text>
</a>
</g>
</g>
<!-- Node8&#45;&gt;Node21 -->
<g id="edge23_Node000008_Node000021" class="edge">
<title>Node8&#45;&gt;Node21</title>
<g id="a_edge23_Node000008_Node000021"><a xlink:title=" ">
<path fill="none" stroke="#63b8ff" d="M508.8,-164.98C517.82,-157.15 531.41,-145.34 542.32,-135.86"/>
<polygon fill="#63b8ff" stroke="#63b8ff" points="544.77,-138.37 550.02,-129.17 540.18,-133.09 544.77,-138.37"/>
</a>
</g>
</g>
<!-- Node22 -->
<g id="Node000022" class="node">
<title>Node22</title>
<g id="a_Node000022"><a xlink:title=" ">
<polygon fill="#e0e0e0" stroke="#999999" points="669,-129 611,-129 611,-110 669,-110 669,-129"/>
<text text-anchor="middle" x="640" y="-117" font-family="Helvetica,sans-Serif" font-size="10.00">memory</text>
</a>
</g>
</g>
<!-- Node8&#45;&gt;Node22 -->
<g id="edge24_Node000008_Node000022" class="edge">
<title>Node8&#45;&gt;Node22</title>
<g id="a_edge24_Node000008_Node000022"><a xlink:title=" ">
<path fill="none" stroke="#63b8ff" d="M521.65,-164.98C544.85,-156.27 581.12,-142.63 607.4,-132.75"/>
<polygon fill="#63b8ff" stroke="#63b8ff" points="608.8,-135.97 616.93,-129.17 606.34,-129.41 608.8,-135.97"/>
</a>
</g>
</g>
<!-- Node23 -->
<g id="Node000023" class="node">
<title>Node23</title>
<g id="a_Node000023"><a xlink:title=" ">
<polygon fill="#e0e0e0" stroke="#999999" points="719,-129 687,-129 687,-110 719,-110 719,-129"/>
<text text-anchor="middle" x="703" y="-117" font-family="Helvetica,sans-Serif" font-size="10.00">set</text>
</a>
</g>
</g>
<!-- Node8&#45;&gt;Node23 -->
<g id="edge25_Node000008_Node000023" class="edge">
<title>Node8&#45;&gt;Node23</title>
<g id="a_edge25_Node000008_Node000023"><a xlink:title=" ">
<path fill="none" stroke="#63b8ff" d="M537.31,-164.96C571.66,-157.08 623.61,-144.64 677.25,-129.03"/>
<polygon fill="#63b8ff" stroke="#63b8ff" points="678.32,-132.37 686.93,-126.19 676.34,-125.65 678.32,-132.37"/>
</a>
</g>
</g>
<!-- Node24 -->
<g id="Node000024" class="node">
<title>Node24</title>
<g id="a_Node000024"><a xlink:title=" ">
<polygon fill="#e0e0e0" stroke="#999999" points="324.5,-129 277.5,-129 277.5,-110 324.5,-110 324.5,-129"/>
<text text-anchor="middle" x="301" y="-117" font-family="Helvetica,sans-Serif" font-size="10.00">vector</text>
</a>
</g>
</g>
<!-- Node8&#45;&gt;Node24 -->
<g id="edge27_Node000008_Node000024" class="edge">
<title>Node8&#45;&gt;Node24</title>
<g id="a_edge27_Node000008_Node000024"><a xlink:title=" ">
<path fill="none" stroke="#63b8ff" d="M467.19,-164.98C430.82,-155.25 371.54,-139.38 334.48,-129.46"/>
<polygon fill="#63b8ff" stroke="#63b8ff" points="335.22,-126.04 324.66,-126.83 333.41,-132.8 335.22,-126.04"/>
</a>
</g>
</g>
<!-- Node9&#45;&gt;Node10 -->
<g id="edge9_Node000009_Node000010" class="edge">
<title>Node9&#45;&gt;Node10</title>
<g id="a_edge9_Node000009_Node000010"><a xlink:title=" ">
<path fill="none" stroke="#63b8ff" d="M683.55,-60.9C778.64,-55.74 988.26,-42.74 1174.76,-19.04"/>
<polygon fill="#63b8ff" stroke="#63b8ff" points="1175.28,-22.5 1184.75,-17.76 1174.39,-15.56 1175.28,-22.5"/>
</a>
</g>
</g>
<!-- Node11 -->
<g id="Node000011" class="node">
<title>Node11</title>
<g id="a_Node000011"><a xlink:title=" ">
<polygon fill="#e0e0e0" stroke="#999999" points="1166.5,-19 1003.5,-19 1003.5,0 1166.5,0 1166.5,-19"/>
<text text-anchor="middle" x="1085" y="-7" font-family="Helvetica,sans-Serif" font-size="10.00">glm/gtc/matrix_transform.hpp</text>
</a>
</g>
</g>
<!-- Node9&#45;&gt;Node11 -->
<g id="edge10_Node000009_Node000011" class="edge">
<title>Node9&#45;&gt;Node11</title>
<g id="a_edge10_Node000009_Node000011"><a xlink:title=" ">
<path fill="none" stroke="#63b8ff" d="M683.52,-57.47C761.27,-48.38 909.36,-31.05 1002.32,-20.17"/>
<polygon fill="#63b8ff" stroke="#63b8ff" points="1002.73,-23.65 1012.26,-19.01 1001.92,-16.7 1002.73,-23.65"/>
</a>
</g>
</g>
<!-- Node12 -->
<g id="Node000012" class="node">
<title>Node12</title>
<g id="a_Node000012"><a xlink:title=" ">
<polygon fill="#e0e0e0" stroke="#999999" points="266,-19 136,-19 136,0 266,0 266,-19"/>
<text text-anchor="middle" x="201" y="-7" font-family="Helvetica,sans-Serif" font-size="10.00">glm/gtc/quaternion.hpp</text>
</a>
</g>
</g>
<!-- Node9&#45;&gt;Node12 -->
<g id="edge11_Node000009_Node000012" class="edge">
<title>Node9&#45;&gt;Node12</title>
<g id="a_edge11_Node000009_Node000012"><a xlink:title=" ">
<path fill="none" stroke="#63b8ff" d="M580.44,-57.16C504.89,-47.87 363.65,-30.5 276.43,-19.78"/>
<polygon fill="#63b8ff" stroke="#63b8ff" points="276.68,-16.28 266.33,-18.53 275.83,-23.23 276.68,-16.28"/>
</a>
</g>
</g>
<!-- Node13 -->
<g id="Node000013" class="node">
<title>Node13</title>
<g id="a_Node000013"><a xlink:title=" ">
<polygon fill="#e0e0e0" stroke="#999999" points="401.5,-19 284.5,-19 284.5,0 401.5,0 401.5,-19"/>
<text text-anchor="middle" x="343" y="-7" font-family="Helvetica,sans-Serif" font-size="10.00">glm/gtc/type_ptr.hpp</text>
</a>
</g>
</g>
<!-- Node9&#45;&gt;Node13 -->
<g id="edge12_Node000009_Node000013" class="edge">
<title>Node9&#45;&gt;Node13</title>
<g id="a_edge12_Node000009_Node000013"><a xlink:title=" ">
<path fill="none" stroke="#63b8ff" d="M585.57,-54.98C535.05,-45.72 454.26,-30.9 399.95,-20.94"/>
<polygon fill="#63b8ff" stroke="#63b8ff" points="400.26,-17.44 389.8,-19.08 399,-24.33 400.26,-17.44"/>
</a>
</g>
</g>
<!-- Node14 -->
<g id="Node000014" class="node">
<title>Node14</title>
<g id="a_Node000014"><a xlink:title=" ">
<polygon fill="#e0e0e0" stroke="#999999" points="550.5,-19 419.5,-19 419.5,0 550.5,0 550.5,-19"/>
<text text-anchor="middle" x="485" y="-7" font-family="Helvetica,sans-Serif" font-size="10.00">glm/gtx/quaternion.hpp</text>
</a>
</g>
</g>
<!-- Node9&#45;&gt;Node14 -->
<g id="edge13_Node000009_Node000014" class="edge">
<title>Node9&#45;&gt;Node14</title>
<g id="a_edge13_Node000009_Node000014"><a xlink:title=" ">
<path fill="none" stroke="#63b8ff" d="M608.38,-54.98C584.1,-46.23 546.05,-32.51 518.63,-22.62"/>
<polygon fill="#63b8ff" stroke="#63b8ff" points="519.64,-19.27 509.05,-19.17 517.27,-25.85 519.64,-19.27"/>
</a>
</g>
</g>
<!-- Node15 -->
<g id="Node000015" class="node">
<title>Node15</title>
<g id="a_Node000015"><a xlink:title=" ">
<polygon fill="#e0e0e0" stroke="#999999" points="695,-19 569,-19 569,0 695,0 695,-19"/>
<text text-anchor="middle" x="632" y="-7" font-family="Helvetica,sans-Serif" font-size="10.00">glm/gtx/transform.hpp</text>
</a>
</g>
</g>
<!-- Node9&#45;&gt;Node15 -->
<g id="edge14_Node000009_Node000015" class="edge">
<title>Node9&#45;&gt;Node15</title>
<g id="a_edge14_Node000009_Node000015"><a xlink:title=" ">
<path fill="none" stroke="#63b8ff" d="M632,-54.75C632,-47.8 632,-37.85 632,-29.13"/>
<polygon fill="#63b8ff" stroke="#63b8ff" points="635.5,-29.09 632,-19.09 628.5,-29.09 635.5,-29.09"/>
</a>
</g>
</g>
<!-- Node16 -->
<g id="Node000016" class="node">
<title>Node16</title>
<g id="a_Node000016"><a xlink:title=" ">
<polygon fill="#e0e0e0" stroke="#999999" points="854.5,-19 713.5,-19 713.5,0 854.5,0 854.5,-19"/>
<text text-anchor="middle" x="784" y="-7" font-family="Helvetica,sans-Serif" font-size="10.00">glm/gtx/vector_angle.hpp</text>
</a>
</g>
</g>
<!-- Node9&#45;&gt;Node16 -->
<g id="edge15_Node000009_Node000016" class="edge">
<title>Node9&#45;&gt;Node16</title>
<g id="a_edge15_Node000009_Node000016"><a xlink:title=" ">
<path fill="none" stroke="#63b8ff" d="M656.42,-54.98C681.72,-46.16 721.45,-32.31 749.86,-22.41"/>
<polygon fill="#63b8ff" stroke="#63b8ff" points="751.1,-25.68 759.39,-19.08 748.79,-19.07 751.1,-25.68"/>
</a>
</g>
</g>
<!-- Node17 -->
<g id="Node000017" class="node">
<title>Node17</title>
<g id="a_Node000017"><a xlink:title=" ">
<polygon fill="#e0e0e0" stroke="#999999" points="917,-19 873,-19 873,0 917,0 917,-19"/>
<text text-anchor="middle" x="895" y="-7" font-family="Helvetica,sans-Serif" font-size="10.00">bitset</text>
</a>
</g>
</g>
<!-- Node9&#45;&gt;Node17 -->
<g id="edge16_Node000009_Node000017" class="edge">
<title>Node9&#45;&gt;Node17</title>
<g id="a_edge16_Node000009_Node000017"><a xlink:title=" ">
<path fill="none" stroke="#63b8ff" d="M681.78,-54.94C726.5,-47.02 794.18,-34.46 862.58,-18.95"/>
<polygon fill="#63b8ff" stroke="#63b8ff" points="863.7,-22.28 872.67,-16.64 862.14,-15.46 863.7,-22.28"/>
</a>
</g>
</g>
<!-- Node18 -->
<g id="Node000018" class="node">
<title>Node18</title>
<g id="a_Node000018"><a xlink:title=" ">
<polygon fill="#e0e0e0" stroke="#999999" points="985,-19 935,-19 935,0 985,0 985,-19"/>
<text text-anchor="middle" x="960" y="-7" font-family="Helvetica,sans-Serif" font-size="10.00">cstdint</text>
</a>
</g>
</g>
<!-- Node9&#45;&gt;Node18 -->
<g id="edge17_Node000009_Node000018" class="edge">
<title>Node9&#45;&gt;Node18</title>
<g id="a_edge17_Node000009_Node000018"><a xlink:title=" ">
<path fill="none" stroke="#63b8ff" d="M683.51,-57.21C740.34,-49.93 834.67,-36.86 924.96,-19.05"/>
<polygon fill="#63b8ff" stroke="#63b8ff" points="925.69,-22.47 934.81,-17.08 924.32,-15.6 925.69,-22.47"/>
</a>
</g>
</g>
<!-- Node19&#45;&gt;Node6 -->
<g id="edge22_Node000019_Node000006" class="edge">
<title>Node19&#45;&gt;Node6</title>
<g id="a_edge22_Node000019_Node000006"><a xlink:title=" ">
<path fill="none" stroke="#63b8ff" d="M420.73,-109.78C411.68,-95.66 391.76,-68.06 367,-55 274.4,-6.14 234.87,-39.23 128.13,-18.93"/>
<polygon fill="#63b8ff" stroke="#63b8ff" points="128.77,-15.49 118.27,-16.95 127.38,-22.36 128.77,-15.49"/>
</a>
</g>
</g>
<!-- Node19&#45;&gt;Node9 -->
<g id="edge20_Node000019_Node000009" class="edge">
<title>Node19&#45;&gt;Node9</title>
<g id="a_edge20_Node000019_Node000009"><a xlink:title=" ">
<path fill="none" stroke="#63b8ff" d="M459.1,-109.98C494.28,-100.93 550.07,-86.58 588.72,-76.64"/>
<polygon fill="#63b8ff" stroke="#63b8ff" points="589.83,-79.96 598.64,-74.08 588.09,-73.18 589.83,-79.96"/>
</a>
</g>
</g>
<!-- Node20 -->
<g id="Node000020" class="node">
<title>Node20</title>
<g id="a_Node000020"><a xlink:title=" ">
<polygon fill="#e0e0e0" stroke="#999999" points="1116.5,-74 1033.5,-74 1033.5,-55 1116.5,-55 1116.5,-74"/>
<text text-anchor="middle" x="1075" y="-62" font-family="Helvetica,sans-Serif" font-size="10.00">GLFW/glfw3.h</text>
</a>
</g>
</g>
<!-- Node19&#45;&gt;Node20 -->
<g id="edge21_Node000019_Node000020" class="edge">
<title>Node19&#45;&gt;Node20</title>
<g id="a_edge21_Node000019_Node000020"><a xlink:title=" ">
<path fill="none" stroke="#63b8ff" d="M470.91,-114.24C485.89,-112.85 502.66,-111.32 518,-110 704,-93.98 925.11,-76.9 1023.44,-69.4"/>
<polygon fill="#63b8ff" stroke="#63b8ff" points="1023.71,-72.89 1033.41,-68.65 1023.17,-65.91 1023.71,-72.89"/>
</a>
</g>
</g>
<!-- Node26 -->
<g id="Node000026" class="node">
<title>Node26</title>
<g id="a_Node000026"><a xlink:title=" ">
<polygon fill="#e0e0e0" stroke="#999999" points="787,-129 737,-129 737,-110 787,-110 787,-129"/>
<text text-anchor="middle" x="762" y="-117" font-family="Helvetica,sans-Serif" font-size="10.00">format</text>
</a>
</g>
</g>
<!-- Node25&#45;&gt;Node26 -->
<g id="edge29_Node000025_Node000026" class="edge">
<title>Node25&#45;&gt;Node26</title>
<g id="a_edge29_Node000025_Node000026"><a xlink:title=" ">
<path fill="none" stroke="#63b8ff" d="M859.36,-164.98C840.7,-156.46 811.75,-143.23 790.26,-133.41"/>
<polygon fill="#63b8ff" stroke="#63b8ff" points="791.53,-130.14 780.98,-129.17 788.62,-136.51 791.53,-130.14"/>
</a>
</g>
</g>
<!-- Node27 -->
<g id="Node000027" class="node">
<title>Node27</title>
<g id="a_Node000027"><a xlink:title=" ">
<polygon fill="#e0e0e0" stroke="#999999" points="865,-129 805,-129 805,-110 865,-110 865,-129"/>
<text text-anchor="middle" x="835" y="-117" font-family="Helvetica,sans-Serif" font-size="10.00">iostream</text>
</a>
</g>
</g>
<!-- Node25&#45;&gt;Node27 -->
<g id="edge30_Node000025_Node000027" class="edge">
<title>Node25&#45;&gt;Node27</title>
<g id="a_edge30_Node000025_Node000027"><a xlink:title=" ">
<path fill="none" stroke="#63b8ff" d="M870.9,-164.75C864.83,-157.26 855.91,-146.28 848.49,-137.13"/>
<polygon fill="#63b8ff" stroke="#63b8ff" points="850.99,-134.65 841.97,-129.09 845.55,-139.06 850.99,-134.65"/>
</a>
</g>
</g>
<!-- Node28 -->
<g id="Node000028" class="node">
<title>Node28</title>
<g id="a_Node000028"><a xlink:title=" ">
<polygon fill="#e0e0e0" stroke="#999999" points="976.5,-129 883.5,-129 883.5,-110 976.5,-110 976.5,-129"/>
<text text-anchor="middle" x="930" y="-117" font-family="Helvetica,sans-Serif" font-size="10.00">source_location</text>
</a>
</g>
</g>
<!-- Node25&#45;&gt;Node28 -->
<g id="edge31_Node000025_Node000028" class="edge">
<title>Node25&#45;&gt;Node28</title>
<g id="a_edge31_Node000025_Node000028"><a xlink:title=" ">
<path fill="none" stroke="#63b8ff" d="M886.59,-164.75C894.16,-157.03 905.38,-145.6 914.51,-136.28"/>
<polygon fill="#63b8ff" stroke="#63b8ff" points="917.07,-138.68 921.57,-129.09 912.07,-133.78 917.07,-138.68"/>
</a>
</g>
</g>
<!-- Node29&#45;&gt;Node20 -->
<g id="edge33_Node000029_Node000020" class="edge">
<title>Node29&#45;&gt;Node20</title>
<g id="a_edge33_Node000029_Node000020"><a xlink:title=" ">
<path fill="none" stroke="#63b8ff" d="M1101.63,-164.66C1096.91,-147.09 1086.26,-107.45 1079.96,-83.95"/>
<polygon fill="#63b8ff" stroke="#63b8ff" points="1083.3,-82.91 1077.32,-74.16 1076.54,-84.72 1083.3,-82.91"/>
</a>
</g>
</g>
<!-- Node30 -->
<g id="Node000030" class="node">
<title>Node30</title>
<g id="a_Node000030"><a xlink:title=" ">
<polygon fill="#e0e0e0" stroke="#999999" points="1162.5,-129 1103.5,-129 1103.5,-110 1162.5,-110 1162.5,-129"/>
<text text-anchor="middle" x="1133" y="-117" font-family="Helvetica,sans-Serif" font-size="10.00">glad/gl.h</text>
</a>
</g>
</g>
<!-- Node29&#45;&gt;Node30 -->
<g id="edge34_Node000029_Node000030" class="edge">
<title>Node29&#45;&gt;Node30</title>
<g id="a_edge34_Node000029_Node000030"><a xlink:title=" ">
<path fill="none" stroke="#63b8ff" d="M1108.79,-164.75C1112.76,-157.49 1118.53,-146.95 1123.43,-137.98"/>
<polygon fill="#63b8ff" stroke="#63b8ff" points="1126.57,-139.54 1128.3,-129.09 1120.43,-136.18 1126.57,-139.54"/>
</a>
</g>
</g>
<!-- Node31 -->
<g id="Node000031" class="node">
<title>Node31</title>
<g id="a_Node000031"><a xlink:title=" ">
<polygon fill="#e0e0e0" stroke="#999999" points="1271,-129 1203,-129 1203,-110 1271,-110 1271,-129"/>
<text text-anchor="middle" x="1237" y="-117" font-family="Helvetica,sans-Serif" font-size="10.00">filesystem</text>
</a>
</g>
</g>
<!-- Node29&#45;&gt;Node31 -->
<g id="edge35_Node000029_Node000031" class="edge">
<title>Node29&#45;&gt;Node31</title>
<g id="a_edge35_Node000029_Node000031"><a xlink:title=" ">
<path fill="none" stroke="#63b8ff" d="M1125.37,-164.98C1147.15,-156.3 1181.16,-142.75 1205.92,-132.88"/>
<polygon fill="#63b8ff" stroke="#63b8ff" points="1207.25,-136.12 1215.24,-129.17 1204.66,-129.62 1207.25,-136.12"/>
</a>
</g>
</g>
<!-- Node32&#45;&gt;Node31 -->
<g id="edge37_Node000032_Node000031" class="edge">
<title>Node32&#45;&gt;Node31</title>
<g id="a_edge37_Node000032_Node000031"><a xlink:title=" ">
<path fill="none" stroke="#63b8ff" d="M1255.37,-164.75C1252.42,-157.65 1248.17,-147.4 1244.49,-138.56"/>
<polygon fill="#63b8ff" stroke="#63b8ff" points="1247.63,-136.98 1240.57,-129.09 1241.17,-139.67 1247.63,-136.98"/>
</a>
</g>
</g>
</g>
</svg>
