<?xml version="1.0" encoding="UTF-8" standalone="no"?>
<!DOCTYPE svg PUBLIC "-//W3C//DTD SVG 1.1//EN"
 "http://www.w3.org/Graphics/SVG/1.1/DTD/svg11.dtd">
<!-- Generated by graphviz version 2.43.0 (0)
 -->
<!-- Title: Core/Source/Application.cpp Pages: 1 -->
<svg width="2086pt" height="247pt"
 viewBox="0.00 0.00 2086.00 247.00" xmlns="http://www.w3.org/2000/svg" xmlns:xlink="http://www.w3.org/1999/xlink">
<g id="graph0" class="graph" transform="scale(1 1) rotate(0) translate(4 243)">
<title>Core/Source/Application.cpp</title>
<!-- Node1 -->
<g id="Node000001" class="node">
<title>Node1</title>
<g id="a_Node000001"><a xlink:title=" ">
<polygon fill="#999999" stroke="#666666" points="1631.5,-239 1478.5,-239 1478.5,-220 1631.5,-220 1631.5,-239"/>
<text text-anchor="middle" x="1555" y="-227" font-family="Helvetica,sans-Serif" font-size="10.00">Core/Source/Application.cpp</text>
</a>
</g>
</g>
<!-- Node2 -->
<g id="Node000002" class="node">
<title>Node2</title>
<g id="a_Node000002"><a xlink:href="Application_8h.html" target="_top" xlink:title=" ">
<polygon fill="white" stroke="#666666" points="1087,-184 981,-184 981,-165 1087,-165 1087,-184"/>
<text text-anchor="middle" x="1034" y="-172" font-family="Helvetica,sans-Serif" font-size="10.00">Core/Application.h</text>
</a>
</g>
</g>
<!-- Node1&#45;&gt;Node2 -->
<g id="edge1_Node000001_Node000002" class="edge">
<title>Node1&#45;&gt;Node2</title>
<g id="a_edge1_Node000001_Node000002"><a xlink:title=" ">
<path fill="none" stroke="#63b8ff" d="M1478.4,-220.71C1375.11,-210.2 1193.08,-191.68 1097.18,-181.93"/>
<polygon fill="#63b8ff" stroke="#63b8ff" points="1097.35,-178.43 1087.05,-180.9 1096.64,-185.39 1097.35,-178.43"/>
</a>
</g>
</g>
<!-- Node4 -->
<g id="Node000004" class="node">
<title>Node4</title>
<g id="a_Node000004"><a xlink:title=" ">
<polygon fill="#e0e0e0" stroke="#999999" points="78,-19 0,-19 0,0 78,0 78,-19"/>
<text text-anchor="middle" x="39" y="-7" font-family="Helvetica,sans-Serif" font-size="10.00">glm/glm.hpp</text>
</a>
</g>
</g>
<!-- Node1&#45;&gt;Node4 -->
<g id="edge35_Node000001_Node000004" class="edge">
<title>Node1&#45;&gt;Node4</title>
<g id="a_edge35_Node000001_Node000004"><a xlink:title=" ">
<path fill="none" stroke="#63b8ff" d="M1478.33,-225.28C1366.61,-220 1152.67,-207.62 972,-184 630.14,-139.3 223.75,-51.75 86.75,-21.27"/>
<polygon fill="#63b8ff" stroke="#63b8ff" points="87.5,-17.85 76.98,-19.09 85.98,-24.68 87.5,-17.85"/>
</a>
</g>
</g>
<!-- Node18 -->
<g id="Node000018" class="node">
<title>Node18</title>
<g id="a_Node000018"><a xlink:title=" ">
<polygon fill="#e0e0e0" stroke="#999999" points="1353.5,-74 1270.5,-74 1270.5,-55 1353.5,-55 1353.5,-74"/>
<text text-anchor="middle" x="1312" y="-62" font-family="Helvetica,sans-Serif" font-size="10.00">GLFW/glfw3.h</text>
</a>
</g>
</g>
<!-- Node1&#45;&gt;Node18 -->
<g id="edge34_Node000001_Node000018" class="edge">
<title>Node1&#45;&gt;Node18</title>
<g id="a_edge34_Node000001_Node000018"><a xlink:title=" ">
<path fill="none" stroke="#63b8ff" d="M1478.37,-226.7C1439.03,-222.18 1392.47,-210.86 1359,-184 1328.02,-159.14 1317.38,-110.91 1313.79,-84.28"/>
<polygon fill="#63b8ff" stroke="#63b8ff" points="1317.23,-83.57 1312.61,-74.03 1310.27,-84.36 1317.23,-83.57"/>
</a>
</g>
</g>
<!-- Node23 -->
<g id="Node000023" class="node">
<title>Node23</title>
<g id="a_Node000023"><a xlink:href="PrintHelpers_8h.html" target="_top" xlink:title=" ">
<polygon fill="white" stroke="#666666" points="1479.5,-184 1368.5,-184 1368.5,-165 1479.5,-165 1479.5,-184"/>
<text text-anchor="middle" x="1424" y="-172" font-family="Helvetica,sans-Serif" font-size="10.00">Core/PrintHelpers.h</text>
</a>
</g>
</g>
<!-- Node1&#45;&gt;Node23 -->
<g id="edge25_Node000001_Node000023" class="edge">
<title>Node1&#45;&gt;Node23</title>
<g id="a_edge25_Node000001_Node000023"><a xlink:title=" ">
<path fill="none" stroke="#63b8ff" d="M1533.95,-219.98C1512.59,-211.34 1479.3,-197.87 1454.94,-188.02"/>
<polygon fill="#63b8ff" stroke="#63b8ff" points="1456.01,-184.68 1445.43,-184.17 1453.39,-191.17 1456.01,-184.68"/>
</a>
</g>
</g>
<!-- Node25 -->
<g id="Node000025" class="node">
<title>Node25</title>
<g id="a_Node000025"><a xlink:title=" ">
<polygon fill="#e0e0e0" stroke="#999999" points="1582,-129 1522,-129 1522,-110 1582,-110 1582,-129"/>
<text text-anchor="middle" x="1552" y="-117" font-family="Helvetica,sans-Serif" font-size="10.00">iostream</text>
</a>
</g>
</g>
<!-- Node1&#45;&gt;Node25 -->
<g id="edge37_Node000001_Node000025" class="edge">
<title>Node1&#45;&gt;Node25</title>
<g id="a_edge37_Node000001_Node000025"><a xlink:title=" ">
<path fill="none" stroke="#63b8ff" d="M1547.33,-219.7C1540.48,-211.21 1530.95,-197.68 1527,-184 1522.35,-167.88 1530.5,-150.16 1538.7,-137.55"/>
<polygon fill="#63b8ff" stroke="#63b8ff" points="1541.58,-139.54 1544.51,-129.36 1535.87,-135.49 1541.58,-139.54"/>
</a>
</g>
</g>
<!-- Node27 -->
<g id="Node000027" class="node">
<title>Node27</title>
<g id="a_Node000027"><a xlink:href="GLUtils_8h.html" target="_top" xlink:title=" ">
<polygon fill="white" stroke="#666666" points="1670,-184 1536,-184 1536,-165 1670,-165 1670,-184"/>
<text text-anchor="middle" x="1603" y="-172" font-family="Helvetica,sans-Serif" font-size="10.00">Core/Renderer/GLUtils.h</text>
</a>
</g>
</g>
<!-- Node1&#45;&gt;Node27 -->
<g id="edge29_Node000001_Node000027" class="edge">
<title>Node1&#45;&gt;Node27</title>
<g id="a_edge29_Node000001_Node000027"><a xlink:title=" ">
<path fill="none" stroke="#63b8ff" d="M1562.93,-219.75C1569.85,-212.11 1580.07,-200.82 1588.45,-191.56"/>
<polygon fill="#63b8ff" stroke="#63b8ff" points="1591.1,-193.85 1595.22,-184.09 1585.91,-189.15 1591.1,-193.85"/>
</a>
</g>
</g>
<!-- Node29 -->
<g id="Node000029" class="node">
<title>Node29</title>
<g id="a_Node000029"><a xlink:title=" ">
<polygon fill="#e0e0e0" stroke="#999999" points="1741.5,-184 1688.5,-184 1688.5,-165 1741.5,-165 1741.5,-184"/>
<text text-anchor="middle" x="1715" y="-172" font-family="Helvetica,sans-Serif" font-size="10.00">imgui.h</text>
</a>
</g>
</g>
<!-- Node1&#45;&gt;Node29 -->
<g id="edge31_Node000001_Node000029" class="edge">
<title>Node1&#45;&gt;Node29</title>
<g id="a_edge31_Node000001_Node000029"><a xlink:title=" ">
<path fill="none" stroke="#63b8ff" d="M1580.71,-219.98C1607.45,-211.13 1649.53,-197.19 1679.45,-187.28"/>
<polygon fill="#63b8ff" stroke="#63b8ff" points="1680.7,-190.55 1689.09,-184.08 1678.5,-183.9 1680.7,-190.55"/>
</a>
</g>
</g>
<!-- Node30 -->
<g id="Node000030" class="node">
<title>Node30</title>
<g id="a_Node000030"><a xlink:title=" ">
<polygon fill="#e0e0e0" stroke="#999999" points="1864.5,-184 1759.5,-184 1759.5,-165 1864.5,-165 1864.5,-184"/>
<text text-anchor="middle" x="1812" y="-172" font-family="Helvetica,sans-Serif" font-size="10.00">imgui_impl_glfw.h</text>
</a>
</g>
</g>
<!-- Node1&#45;&gt;Node30 -->
<g id="edge32_Node000001_Node000030" class="edge">
<title>Node1&#45;&gt;Node30</title>
<g id="a_edge32_Node000001_Node000030"><a xlink:title=" ">
<path fill="none" stroke="#63b8ff" d="M1596.29,-219.98C1640.93,-210.78 1712.16,-196.09 1760.45,-186.13"/>
<polygon fill="#63b8ff" stroke="#63b8ff" points="1761.3,-189.53 1770.38,-184.08 1759.88,-182.67 1761.3,-189.53"/>
</a>
</g>
</g>
<!-- Node31 -->
<g id="Node000031" class="node">
<title>Node31</title>
<g id="a_Node000031"><a xlink:title=" ">
<polygon fill="#e0e0e0" stroke="#999999" points="2007.5,-184 1882.5,-184 1882.5,-165 2007.5,-165 2007.5,-184"/>
<text text-anchor="middle" x="1945" y="-172" font-family="Helvetica,sans-Serif" font-size="10.00">imgui_impl_opengl3.h</text>
</a>
</g>
</g>
<!-- Node1&#45;&gt;Node31 -->
<g id="edge33_Node000001_Node000031" class="edge">
<title>Node1&#45;&gt;Node31</title>
<g id="a_edge33_Node000001_Node000031"><a xlink:title=" ">
<path fill="none" stroke="#63b8ff" d="M1617.66,-219.98C1687.17,-210.54 1799.15,-195.32 1872.42,-185.36"/>
<polygon fill="#63b8ff" stroke="#63b8ff" points="1873.06,-188.81 1882.5,-183.99 1872.11,-181.87 1873.06,-188.81"/>
</a>
</g>
</g>
<!-- Node32 -->
<g id="Node000032" class="node">
<title>Node32</title>
<g id="a_Node000032"><a xlink:title=" ">
<polygon fill="#e0e0e0" stroke="#999999" points="2078,-184 2026,-184 2026,-165 2078,-165 2078,-184"/>
<text text-anchor="middle" x="2052" y="-172" font-family="Helvetica,sans-Serif" font-size="10.00">cassert</text>
</a>
</g>
</g>
<!-- Node1&#45;&gt;Node32 -->
<g id="edge36_Node000001_Node000032" class="edge">
<title>Node1&#45;&gt;Node32</title>
<g id="a_edge36_Node000001_Node000032"><a xlink:title=" ">
<path fill="none" stroke="#63b8ff" d="M1631.87,-224.45C1721.76,-218.96 1875.12,-207.25 2015.62,-184"/>
<polygon fill="#63b8ff" stroke="#63b8ff" points="2016.43,-187.42 2025.71,-182.31 2015.27,-180.51 2016.43,-187.42"/>
</a>
</g>
</g>
<!-- Node3 -->
<g id="Node000003" class="node">
<title>Node3</title>
<g id="a_Node000003"><a xlink:href="BaseTypes_8h.html" target="_top" xlink:title=" ">
<polygon fill="white" stroke="#666666" points="666.5,-74 563.5,-74 563.5,-55 666.5,-55 666.5,-74"/>
<text text-anchor="middle" x="615" y="-62" font-family="Helvetica,sans-Serif" font-size="10.00">Core/BaseTypes.h</text>
</a>
</g>
</g>
<!-- Node2&#45;&gt;Node3 -->
<g id="edge2_Node000002_Node000003" class="edge">
<title>Node2&#45;&gt;Node3</title>
<g id="a_edge2_Node000002_Node000003"><a xlink:title=" ">
<path fill="none" stroke="#63b8ff" d="M1034.06,-164.92C1033.64,-150.99 1030.6,-123.66 1014,-110 988.51,-89.03 782.25,-74.73 676.72,-68.71"/>
<polygon fill="#63b8ff" stroke="#63b8ff" points="676.7,-65.2 666.52,-68.13 676.31,-72.19 676.7,-65.2"/>
</a>
</g>
</g>
<!-- Node13 -->
<g id="Node000013" class="node">
<title>Node13</title>
<g id="a_Node000013"><a xlink:href="Layer_8h.html" target="_top" xlink:title=" ">
<polygon fill="white" stroke="#666666" points="1139.5,-129 1062.5,-129 1062.5,-110 1139.5,-110 1139.5,-129"/>
<text text-anchor="middle" x="1101" y="-117" font-family="Helvetica,sans-Serif" font-size="10.00">Core/Layer.h</text>
</a>
</g>
</g>
<!-- Node2&#45;&gt;Node13 -->
<g id="edge12_Node000002_Node000013" class="edge">
<title>Node2&#45;&gt;Node13</title>
<g id="a_edge12_Node000002_Node000013"><a xlink:title=" ">
<path fill="none" stroke="#63b8ff" d="M1044.76,-164.98C1054.77,-157.07 1069.89,-145.11 1081.93,-135.58"/>
<polygon fill="#63b8ff" stroke="#63b8ff" points="1084.37,-138.12 1090.04,-129.17 1080.03,-132.63 1084.37,-138.12"/>
</a>
</g>
</g>
<!-- Node16 -->
<g id="Node000016" class="node">
<title>Node16</title>
<g id="a_Node000016"><a xlink:title=" ">
<polygon fill="#e0e0e0" stroke="#999999" points="1263,-19 1219,-19 1219,0 1263,0 1263,-19"/>
<text text-anchor="middle" x="1241" y="-7" font-family="Helvetica,sans-Serif" font-size="10.00">string</text>
</a>
</g>
</g>
<!-- Node2&#45;&gt;Node16 -->
<g id="edge23_Node000002_Node000016" class="edge">
<title>Node2&#45;&gt;Node16</title>
<g id="a_edge23_Node000002_Node000016"><a xlink:title=" ">
<path fill="none" stroke="#63b8ff" d="M1069.33,-164.99C1093.17,-158.05 1124.46,-146.48 1148,-129 1185.81,-100.92 1216.45,-53.7 1231.29,-28.17"/>
<polygon fill="#63b8ff" stroke="#63b8ff" points="1234.47,-29.67 1236.35,-19.24 1228.37,-26.22 1234.47,-29.67"/>
</a>
</g>
</g>
<!-- Node17 -->
<g id="Node000017" class="node">
<title>Node17</title>
<g id="a_Node000017"><a xlink:href="Window_8h.html" target="_top" xlink:title=" ">
<polygon fill="white" stroke="#666666" points="1285.5,-129 1196.5,-129 1196.5,-110 1285.5,-110 1285.5,-129"/>
<text text-anchor="middle" x="1241" y="-117" font-family="Helvetica,sans-Serif" font-size="10.00">Core/Window.h</text>
</a>
</g>
</g>
<!-- Node2&#45;&gt;Node17 -->
<g id="edge16_Node000002_Node000017" class="edge">
<title>Node2&#45;&gt;Node17</title>
<g id="a_edge16_Node000002_Node000017"><a xlink:title=" ">
<path fill="none" stroke="#63b8ff" d="M1067.26,-164.98C1102.61,-155.93 1158.67,-141.58 1197.51,-131.64"/>
<polygon fill="#63b8ff" stroke="#63b8ff" points="1198.66,-134.95 1207.48,-129.08 1196.93,-128.17 1198.66,-134.95"/>
</a>
</g>
</g>
<!-- Node19 -->
<g id="Node000019" class="node">
<title>Node19</title>
<g id="a_Node000019"><a xlink:title=" ">
<polygon fill="#e0e0e0" stroke="#999999" points="813.5,-129 748.5,-129 748.5,-110 813.5,-110 813.5,-129"/>
<text text-anchor="middle" x="781" y="-117" font-family="Helvetica,sans-Serif" font-size="10.00">functional</text>
</a>
</g>
</g>
<!-- Node2&#45;&gt;Node19 -->
<g id="edge20_Node000002_Node000019" class="edge">
<title>Node2&#45;&gt;Node19</title>
<g id="a_edge20_Node000002_Node000019"><a xlink:title=" ">
<path fill="none" stroke="#63b8ff" d="M993.35,-164.98C946.76,-155.23 870.76,-139.3 823.44,-129.39"/>
<polygon fill="#63b8ff" stroke="#63b8ff" points="824.01,-125.93 813.5,-127.31 822.57,-132.79 824.01,-125.93"/>
</a>
</g>
</g>
<!-- Node20 -->
<g id="Node000020" class="node">
<title>Node20</title>
<g id="a_Node000020"><a xlink:title=" ">
<polygon fill="#e0e0e0" stroke="#999999" points="890,-129 832,-129 832,-110 890,-110 890,-129"/>
<text text-anchor="middle" x="861" y="-117" font-family="Helvetica,sans-Serif" font-size="10.00">memory</text>
</a>
</g>
</g>
<!-- Node2&#45;&gt;Node20 -->
<g id="edge21_Node000002_Node000020" class="edge">
<title>Node2&#45;&gt;Node20</title>
<g id="a_edge21_Node000002_Node000020"><a xlink:title=" ">
<path fill="none" stroke="#63b8ff" d="M1006.2,-164.98C977.03,-156.05 931,-141.94 898.6,-132.02"/>
<polygon fill="#63b8ff" stroke="#63b8ff" points="899.6,-128.66 889.01,-129.08 897.55,-135.36 899.6,-128.66"/>
</a>
</g>
</g>
<!-- Node21 -->
<g id="Node000021" class="node">
<title>Node21</title>
<g id="a_Node000021"><a xlink:title=" ">
<polygon fill="#e0e0e0" stroke="#999999" points="940,-129 908,-129 908,-110 940,-110 940,-129"/>
<text text-anchor="middle" x="924" y="-117" font-family="Helvetica,sans-Serif" font-size="10.00">set</text>
</a>
</g>
</g>
<!-- Node2&#45;&gt;Node21 -->
<g id="edge22_Node000002_Node000021" class="edge">
<title>Node2&#45;&gt;Node21</title>
<g id="a_edge22_Node000002_Node000021"><a xlink:title=" ">
<path fill="none" stroke="#63b8ff" d="M1016.33,-164.98C998.19,-156.24 969.79,-142.56 949.28,-132.68"/>
<polygon fill="#63b8ff" stroke="#63b8ff" points="950.72,-129.49 940.2,-128.3 947.69,-135.8 950.72,-129.49"/>
</a>
</g>
</g>
<!-- Node22 -->
<g id="Node000022" class="node">
<title>Node22</title>
<g id="a_Node000022"><a xlink:title=" ">
<polygon fill="#e0e0e0" stroke="#999999" points="1005.5,-129 958.5,-129 958.5,-110 1005.5,-110 1005.5,-129"/>
<text text-anchor="middle" x="982" y="-117" font-family="Helvetica,sans-Serif" font-size="10.00">vector</text>
</a>
</g>
</g>
<!-- Node2&#45;&gt;Node22 -->
<g id="edge24_Node000002_Node000022" class="edge">
<title>Node2&#45;&gt;Node22</title>
<g id="a_edge24_Node000002_Node000022"><a xlink:title=" ">
<path fill="none" stroke="#63b8ff" d="M1025.41,-164.75C1017.84,-157.03 1006.62,-145.6 997.49,-136.28"/>
<polygon fill="#63b8ff" stroke="#63b8ff" points="999.93,-133.78 990.43,-129.09 994.93,-138.68 999.93,-133.78"/>
</a>
</g>
</g>
<!-- Node3&#45;&gt;Node4 -->
<g id="edge3_Node000003_Node000004" class="edge">
<title>Node3&#45;&gt;Node4</title>
<g id="a_edge3_Node000003_Node000004"><a xlink:title=" ">
<path fill="none" stroke="#63b8ff" d="M563.49,-60.72C470.55,-55.37 268.47,-42.18 88.18,-19.04"/>
<polygon fill="#63b8ff" stroke="#63b8ff" points="88.61,-15.57 78.25,-17.75 87.71,-22.51 88.61,-15.57"/>
</a>
</g>
</g>
<!-- Node5 -->
<g id="Node000005" class="node">
<title>Node5</title>
<g id="a_Node000005"><a xlink:title=" ">
<polygon fill="#e0e0e0" stroke="#999999" points="389.5,-19 226.5,-19 226.5,0 389.5,0 389.5,-19"/>
<text text-anchor="middle" x="308" y="-7" font-family="Helvetica,sans-Serif" font-size="10.00">glm/gtc/matrix_transform.hpp</text>
</a>
</g>
</g>
<!-- Node3&#45;&gt;Node5 -->
<g id="edge4_Node000003_Node000005" class="edge">
<title>Node3&#45;&gt;Node5</title>
<g id="a_edge4_Node000003_Node000005"><a xlink:title=" ">
<path fill="none" stroke="#63b8ff" d="M565.68,-54.98C511.71,-45.67 425.22,-30.74 367.52,-20.78"/>
<polygon fill="#63b8ff" stroke="#63b8ff" points="367.91,-17.29 357.46,-19.04 366.72,-24.19 367.91,-17.29"/>
</a>
</g>
</g>
<!-- Node6 -->
<g id="Node000006" class="node">
<title>Node6</title>
<g id="a_Node000006"><a xlink:title=" ">
<polygon fill="#e0e0e0" stroke="#999999" points="538,-19 408,-19 408,0 538,0 538,-19"/>
<text text-anchor="middle" x="473" y="-7" font-family="Helvetica,sans-Serif" font-size="10.00">glm/gtc/quaternion.hpp</text>
</a>
</g>
</g>
<!-- Node3&#45;&gt;Node6 -->
<g id="edge5_Node000003_Node000006" class="edge">
<title>Node3&#45;&gt;Node6</title>
<g id="a_edge5_Node000003_Node000006"><a xlink:title=" ">
<path fill="none" stroke="#63b8ff" d="M592.19,-54.98C568.83,-46.27 532.3,-32.63 505.83,-22.75"/>
<polygon fill="#63b8ff" stroke="#63b8ff" points="506.82,-19.39 496.23,-19.17 504.37,-25.95 506.82,-19.39"/>
</a>
</g>
</g>
<!-- Node7 -->
<g id="Node000007" class="node">
<title>Node7</title>
<g id="a_Node000007"><a xlink:title=" ">
<polygon fill="#e0e0e0" stroke="#999999" points="673.5,-19 556.5,-19 556.5,0 673.5,0 673.5,-19"/>
<text text-anchor="middle" x="615" y="-7" font-family="Helvetica,sans-Serif" font-size="10.00">glm/gtc/type_ptr.hpp</text>
</a>
</g>
</g>
<!-- Node3&#45;&gt;Node7 -->
<g id="edge6_Node000003_Node000007" class="edge">
<title>Node3&#45;&gt;Node7</title>
<g id="a_edge6_Node000003_Node000007"><a xlink:title=" ">
<path fill="none" stroke="#63b8ff" d="M615,-54.75C615,-47.8 615,-37.85 615,-29.13"/>
<polygon fill="#63b8ff" stroke="#63b8ff" points="618.5,-29.09 615,-19.09 611.5,-29.09 618.5,-29.09"/>
</a>
</g>
</g>
<!-- Node8 -->
<g id="Node000008" class="node">
<title>Node8</title>
<g id="a_Node000008"><a xlink:title=" ">
<polygon fill="#e0e0e0" stroke="#999999" points="822.5,-19 691.5,-19 691.5,0 822.5,0 822.5,-19"/>
<text text-anchor="middle" x="757" y="-7" font-family="Helvetica,sans-Serif" font-size="10.00">glm/gtx/quaternion.hpp</text>
</a>
</g>
</g>
<!-- Node3&#45;&gt;Node8 -->
<g id="edge7_Node000003_Node000008" class="edge">
<title>Node3&#45;&gt;Node8</title>
<g id="a_edge7_Node000003_Node000008"><a xlink:title=" ">
<path fill="none" stroke="#63b8ff" d="M637.81,-54.98C661.17,-46.27 697.7,-32.63 724.17,-22.75"/>
<polygon fill="#63b8ff" stroke="#63b8ff" points="725.63,-25.95 733.77,-19.17 723.18,-19.39 725.63,-25.95"/>
</a>
</g>
</g>
<!-- Node9 -->
<g id="Node000009" class="node">
<title>Node9</title>
<g id="a_Node000009"><a xlink:title=" ">
<polygon fill="#e0e0e0" stroke="#999999" points="967,-19 841,-19 841,0 967,0 967,-19"/>
<text text-anchor="middle" x="904" y="-7" font-family="Helvetica,sans-Serif" font-size="10.00">glm/gtx/transform.hpp</text>
</a>
</g>
</g>
<!-- Node3&#45;&gt;Node9 -->
<g id="edge8_Node000003_Node000009" class="edge">
<title>Node3&#45;&gt;Node9</title>
<g id="a_edge8_Node000003_Node000009"><a xlink:title=" ">
<path fill="none" stroke="#63b8ff" d="M661.43,-54.98C711.95,-45.72 792.74,-30.9 847.05,-20.94"/>
<polygon fill="#63b8ff" stroke="#63b8ff" points="848,-24.33 857.2,-19.08 846.74,-17.44 848,-24.33"/>
</a>
</g>
</g>
<!-- Node10 -->
<g id="Node000010" class="node">
<title>Node10</title>
<g id="a_Node000010"><a xlink:title=" ">
<polygon fill="#e0e0e0" stroke="#999999" points="1126.5,-19 985.5,-19 985.5,0 1126.5,0 1126.5,-19"/>
<text text-anchor="middle" x="1056" y="-7" font-family="Helvetica,sans-Serif" font-size="10.00">glm/gtx/vector_angle.hpp</text>
</a>
</g>
</g>
<!-- Node3&#45;&gt;Node10 -->
<g id="edge9_Node000003_Node000010" class="edge">
<title>Node3&#45;&gt;Node10</title>
<g id="a_edge9_Node000003_Node000010"><a xlink:title=" ">
<path fill="none" stroke="#63b8ff" d="M666.89,-57.26C742.96,-48.12 885.46,-31 975.28,-20.2"/>
<polygon fill="#63b8ff" stroke="#63b8ff" points="975.92,-23.65 985.43,-18.98 975.08,-16.7 975.92,-23.65"/>
</a>
</g>
</g>
<!-- Node11 -->
<g id="Node000011" class="node">
<title>Node11</title>
<g id="a_Node000011"><a xlink:title=" ">
<polygon fill="#e0e0e0" stroke="#999999" points="140,-19 96,-19 96,0 140,0 140,-19"/>
<text text-anchor="middle" x="118" y="-7" font-family="Helvetica,sans-Serif" font-size="10.00">bitset</text>
</a>
</g>
</g>
<!-- Node3&#45;&gt;Node11 -->
<g id="edge10_Node000003_Node000011" class="edge">
<title>Node3&#45;&gt;Node11</title>
<g id="a_edge10_Node000003_Node000011"><a xlink:title=" ">
<path fill="none" stroke="#63b8ff" d="M563.23,-61.47C478.65,-57.52 305.53,-46.78 150.43,-18.95"/>
<polygon fill="#63b8ff" stroke="#63b8ff" points="150.71,-15.44 140.24,-17.09 149.45,-22.33 150.71,-15.44"/>
</a>
</g>
</g>
<!-- Node12 -->
<g id="Node000012" class="node">
<title>Node12</title>
<g id="a_Node000012"><a xlink:title=" ">
<polygon fill="#e0e0e0" stroke="#999999" points="208,-19 158,-19 158,0 208,0 208,-19"/>
<text text-anchor="middle" x="183" y="-7" font-family="Helvetica,sans-Serif" font-size="10.00">cstdint</text>
</a>
</g>
</g>
<!-- Node3&#45;&gt;Node12 -->
<g id="edge11_Node000003_Node000012" class="edge">
<title>Node3&#45;&gt;Node12</title>
<g id="a_edge11_Node000003_Node000012"><a xlink:title=" ">
<path fill="none" stroke="#63b8ff" d="M563.48,-59.95C489.24,-54.35 347.76,-41.87 218.26,-19"/>
<polygon fill="#63b8ff" stroke="#63b8ff" points="218.63,-15.51 208.17,-17.19 217.4,-22.4 218.63,-15.51"/>
</a>
</g>
</g>
<!-- Node14 -->
<g id="Node000014" class="node">
<title>Node14</title>
<g id="a_Node000014"><a xlink:href="Event_8h.html" target="_top" xlink:title=" ">
<polygon fill="white" stroke="#666666" points="1148,-74 1038,-74 1038,-55 1148,-55 1148,-74"/>
<text text-anchor="middle" x="1093" y="-62" font-family="Helvetica,sans-Serif" font-size="10.00">Core/Event/Event.h</text>
</a>
</g>
</g>
<!-- Node13&#45;&gt;Node14 -->
<g id="edge13_Node000013_Node000014" class="edge">
<title>Node13&#45;&gt;Node14</title>
<g id="a_edge13_Node000013_Node000014"><a xlink:title=" ">
<path fill="none" stroke="#63b8ff" d="M1099.68,-109.75C1098.63,-102.8 1097.13,-92.85 1095.81,-84.13"/>
<polygon fill="#63b8ff" stroke="#63b8ff" points="1099.25,-83.45 1094.3,-74.09 1092.33,-84.5 1099.25,-83.45"/>
</a>
</g>
</g>
<!-- Node15 -->
<g id="Node000015" class="node">
<title>Node15</title>
<g id="a_Node000015"><a xlink:title=" ">
<polygon fill="#e0e0e0" stroke="#999999" points="1201,-19 1145,-19 1145,0 1201,0 1201,-19"/>
<text text-anchor="middle" x="1173" y="-7" font-family="Helvetica,sans-Serif" font-size="10.00">sstream</text>
</a>
</g>
</g>
<!-- Node14&#45;&gt;Node15 -->
<g id="edge14_Node000014_Node000015" class="edge">
<title>Node14&#45;&gt;Node15</title>
<g id="a_edge14_Node000014_Node000015"><a xlink:title=" ">
<path fill="none" stroke="#63b8ff" d="M1105.85,-54.98C1118.14,-46.84 1136.91,-34.41 1151.48,-24.76"/>
<polygon fill="#63b8ff" stroke="#63b8ff" points="1153.51,-27.61 1159.91,-19.17 1149.64,-21.78 1153.51,-27.61"/>
</a>
</g>
</g>
<!-- Node14&#45;&gt;Node16 -->
<g id="edge15_Node000014_Node000016" class="edge">
<title>Node14&#45;&gt;Node16</title>
<g id="a_edge15_Node000014_Node000016"><a xlink:title=" ">
<path fill="none" stroke="#63b8ff" d="M1116.78,-54.98C1141.81,-46.02 1181.37,-31.86 1209.1,-21.92"/>
<polygon fill="#63b8ff" stroke="#63b8ff" points="1210.5,-25.14 1218.73,-18.47 1208.14,-18.55 1210.5,-25.14"/>
</a>
</g>
</g>
<!-- Node17&#45;&gt;Node3 -->
<g id="edge17_Node000017_Node000003" class="edge">
<title>Node17&#45;&gt;Node3</title>
<g id="a_edge17_Node000017_Node000003"><a xlink:title=" ">
<path fill="none" stroke="#63b8ff" d="M1196.07,-114.32C1180.81,-112.92 1163.67,-111.37 1148,-110 977.58,-95.1 776.41,-78.6 677,-70.52"/>
<polygon fill="#63b8ff" stroke="#63b8ff" points="677.09,-67.01 666.84,-69.69 676.52,-73.99 677.09,-67.01"/>
</a>
</g>
</g>
<!-- Node17&#45;&gt;Node16 -->
<g id="edge19_Node000017_Node000016" class="edge">
<title>Node17&#45;&gt;Node16</title>
<g id="a_edge19_Node000017_Node000016"><a xlink:title=" ">
<path fill="none" stroke="#63b8ff" d="M1241,-109.66C1241,-92.17 1241,-52.8 1241,-29.27"/>
<polygon fill="#63b8ff" stroke="#63b8ff" points="1244.5,-29.16 1241,-19.16 1237.5,-29.16 1244.5,-29.16"/>
</a>
</g>
</g>
<!-- Node17&#45;&gt;Node18 -->
<g id="edge18_Node000017_Node000018" class="edge">
<title>Node17&#45;&gt;Node18</title>
<g id="a_edge18_Node000017_Node000018"><a xlink:title=" ">
<path fill="none" stroke="#63b8ff" d="M1252.41,-109.98C1263.11,-102 1279.34,-89.88 1292.16,-80.31"/>
<polygon fill="#63b8ff" stroke="#63b8ff" points="1294.47,-82.96 1300.39,-74.17 1290.28,-77.35 1294.47,-82.96"/>
</a>
</g>
</g>
<!-- Node24 -->
<g id="Node000024" class="node">
<title>Node24</title>
<g id="a_Node000024"><a xlink:title=" ">
<polygon fill="#e0e0e0" stroke="#999999" points="1392,-129 1342,-129 1342,-110 1392,-110 1392,-129"/>
<text text-anchor="middle" x="1367" y="-117" font-family="Helvetica,sans-Serif" font-size="10.00">format</text>
</a>
</g>
</g>
<!-- Node23&#45;&gt;Node24 -->
<g id="edge26_Node000023_Node000024" class="edge">
<title>Node23&#45;&gt;Node24</title>
<g id="a_edge26_Node000023_Node000024"><a xlink:title=" ">
<path fill="none" stroke="#63b8ff" d="M1414.84,-164.98C1406.5,-157.23 1393.97,-145.58 1383.82,-136.14"/>
<polygon fill="#63b8ff" stroke="#63b8ff" points="1386.03,-133.42 1376.32,-129.17 1381.26,-138.54 1386.03,-133.42"/>
</a>
</g>
</g>
<!-- Node23&#45;&gt;Node25 -->
<g id="edge27_Node000023_Node000025" class="edge">
<title>Node23&#45;&gt;Node25</title>
<g id="a_edge27_Node000023_Node000025"><a xlink:title=" ">
<path fill="none" stroke="#63b8ff" d="M1444.57,-164.98C1465.43,-156.34 1497.97,-142.87 1521.77,-133.02"/>
<polygon fill="#63b8ff" stroke="#63b8ff" points="1523.16,-136.23 1531.06,-129.17 1520.48,-129.76 1523.16,-136.23"/>
</a>
</g>
</g>
<!-- Node26 -->
<g id="Node000026" class="node">
<title>Node26</title>
<g id="a_Node000026"><a xlink:title=" ">
<polygon fill="#e0e0e0" stroke="#999999" points="1503.5,-129 1410.5,-129 1410.5,-110 1503.5,-110 1503.5,-129"/>
<text text-anchor="middle" x="1457" y="-117" font-family="Helvetica,sans-Serif" font-size="10.00">source_location</text>
</a>
</g>
</g>
<!-- Node23&#45;&gt;Node26 -->
<g id="edge28_Node000023_Node000026" class="edge">
<title>Node23&#45;&gt;Node26</title>
<g id="a_edge28_Node000023_Node000026"><a xlink:title=" ">
<path fill="none" stroke="#63b8ff" d="M1429.45,-164.75C1434.01,-157.42 1440.67,-146.73 1446.29,-137.7"/>
<polygon fill="#63b8ff" stroke="#63b8ff" points="1449.34,-139.43 1451.65,-129.09 1443.4,-135.73 1449.34,-139.43"/>
</a>
</g>
</g>
<!-- Node28 -->
<g id="Node000028" class="node">
<title>Node28</title>
<g id="a_Node000028"><a xlink:title=" ">
<polygon fill="#e0e0e0" stroke="#999999" points="1659.5,-129 1600.5,-129 1600.5,-110 1659.5,-110 1659.5,-129"/>
<text text-anchor="middle" x="1630" y="-117" font-family="Helvetica,sans-Serif" font-size="10.00">glad/gl.h</text>
</a>
</g>
</g>
<!-- Node27&#45;&gt;Node28 -->
<g id="edge30_Node000027_Node000028" class="edge">
<title>Node27&#45;&gt;Node28</title>
<g id="a_edge30_Node000027_Node000028"><a xlink:title=" ">
<path fill="none" stroke="#63b8ff" d="M1607.46,-164.75C1611.12,-157.57 1616.41,-147.18 1620.95,-138.27"/>
<polygon fill="#63b8ff" stroke="#63b8ff" points="1624.2,-139.59 1625.62,-129.09 1617.97,-136.41 1624.2,-139.59"/>
</a>
</g>
</g>
</g>
</svg>
