<?xml version="1.0" encoding="UTF-8" standalone="no"?>
<!DOCTYPE svg PUBLIC "-//W3C//DTD SVG 1.1//EN"
 "http://www.w3.org/Graphics/SVG/1.1/DTD/svg11.dtd">
<!-- Generated by graphviz version 2.43.0 (0)
 -->
<!-- Title: Core/Include/Core/BaseTypes.h Pages: 1 -->
<svg width="2748pt" height="357pt"
 viewBox="0.00 0.00 2748.00 357.00" xmlns="http://www.w3.org/2000/svg" xmlns:xlink="http://www.w3.org/1999/xlink">
<g id="graph0" class="graph" transform="scale(1 1) rotate(0) translate(4 353)">
<title>Core/Include/Core/BaseTypes.h</title>
<!-- Node1 -->
<g id="Node000001" class="node">
<title>Node1</title>
<g id="a_Node000001"><a xlink:title=" ">
<polygon fill="#999999" stroke="#666666" points="1109.5,-349 942.5,-349 942.5,-330 1109.5,-330 1109.5,-349"/>
<text text-anchor="middle" x="1026" y="-337" font-family="Helvetica,sans-Serif" font-size="10.00">Core/Include/Core/BaseTypes.h</text>
</a>
</g>
</g>
<!-- Node2 -->
<g id="Node000002" class="node">
<title>Node2</title>
<g id="a_Node000002"><a xlink:href="ExtraDataType_8h.html" target="_top" xlink:title=" ">
<polygon fill="white" stroke="#666666" points="1119.5,-162 988.5,-162 988.5,-132 1119.5,-132 1119.5,-162"/>
<text text-anchor="start" x="996.5" y="-150" font-family="Helvetica,sans-Serif" font-size="10.00">App/Include/Application</text>
<text text-anchor="middle" x="1054" y="-139" font-family="Helvetica,sans-Serif" font-size="10.00">/ExtraDataType.h</text>
</a>
</g>
</g>
<!-- Node1&#45;&gt;Node2 -->
<g id="edge1_Node000001_Node000002" class="edge">
<title>Node1&#45;&gt;Node2</title>
<g id="a_edge1_Node000001_Node000002"><a xlink:title=" ">
<path fill="none" stroke="#63b8ff" d="M1028.24,-320C1031.56,-293.09 1038.13,-241.61 1045,-198 1046.89,-185.98 1049.36,-172.39 1051.23,-162.41"/>
<polygon fill="#63b8ff" stroke="#63b8ff" points="1024.77,-319.58 1027.03,-329.93 1031.71,-320.43 1024.77,-319.58"/>
</a>
</g>
</g>
<!-- Node10 -->
<g id="Node000010" class="node">
<title>Node10</title>
<g id="a_Node000010"><a xlink:href="MeshExporter_8cpp.html" target="_top" xlink:title=" ">
<polygon fill="white" stroke="#666666" points="199.5,-90.5 38.5,-90.5 38.5,-71.5 199.5,-71.5 199.5,-90.5"/>
<text text-anchor="middle" x="119" y="-78.5" font-family="Helvetica,sans-Serif" font-size="10.00">App/Source/MeshExporter.cpp</text>
</a>
</g>
</g>
<!-- Node1&#45;&gt;Node10 -->
<g id="edge53_Node000001_Node000010" class="edge">
<title>Node1&#45;&gt;Node10</title>
<g id="a_edge53_Node000001_Node000010"><a xlink:title=" ">
<path fill="none" stroke="#63b8ff" d="M944.71,-328.72C883.28,-320.82 797.01,-308.62 722,-294 479.5,-246.72 389.77,-295.69 182,-162 153.16,-143.44 131.85,-107.07 123.22,-90.54"/>
<polygon fill="#63b8ff" stroke="#63b8ff" points="944.37,-332.21 954.73,-330 945.26,-325.26 944.37,-332.21"/>
</a>
</g>
</g>
<!-- Node13 -->
<g id="Node000013" class="node">
<title>Node13</title>
<g id="a_Node000013"><a xlink:href="Mesh_8h.html" target="_top" xlink:title=" ">
<polygon fill="white" stroke="#666666" points="970.5,-228 839.5,-228 839.5,-198 970.5,-198 970.5,-228"/>
<text text-anchor="start" x="847.5" y="-216" font-family="Helvetica,sans-Serif" font-size="10.00">App/Include/Application</text>
<text text-anchor="middle" x="905" y="-205" font-family="Helvetica,sans-Serif" font-size="10.00">/Mesh.h</text>
</a>
</g>
</g>
<!-- Node1&#45;&gt;Node13 -->
<g id="edge14_Node000001_Node000013" class="edge">
<title>Node1&#45;&gt;Node13</title>
<g id="a_edge14_Node000001_Node000013"><a xlink:title=" ">
<path fill="none" stroke="#63b8ff" d="M1010.49,-322.54C986.67,-298.04 941.48,-251.53 918.76,-228.16"/>
<polygon fill="#63b8ff" stroke="#63b8ff" points="1008.2,-325.21 1017.68,-329.94 1013.22,-320.33 1008.2,-325.21"/>
</a>
</g>
</g>
<!-- Node14 -->
<g id="Node000014" class="node">
<title>Node14</title>
<g id="a_Node000014"><a xlink:href="MeshExporter_8h.html" target="_top" xlink:title=" ">
<polygon fill="white" stroke="#666666" points="322.5,-162 191.5,-162 191.5,-132 322.5,-132 322.5,-162"/>
<text text-anchor="start" x="199.5" y="-150" font-family="Helvetica,sans-Serif" font-size="10.00">App/Include/Application</text>
<text text-anchor="middle" x="257" y="-139" font-family="Helvetica,sans-Serif" font-size="10.00">/MeshExporter.h</text>
</a>
</g>
</g>
<!-- Node1&#45;&gt;Node14 -->
<g id="edge42_Node000001_Node000014" class="edge">
<title>Node1&#45;&gt;Node14</title>
<g id="a_edge42_Node000001_Node000014"><a xlink:title=" ">
<path fill="none" stroke="#63b8ff" d="M979.21,-327.53C941.36,-318.62 886.71,-305.66 839,-294 644.96,-246.58 415.08,-188.28 311.91,-162.01"/>
<polygon fill="#63b8ff" stroke="#63b8ff" points="978.88,-331.05 989.42,-329.93 980.49,-324.24 978.88,-331.05"/>
</a>
</g>
</g>
<!-- Node18 -->
<g id="Node000018" class="node">
<title>Node18</title>
<g id="a_Node000018"><a xlink:href="PrimitiveProxy_8h.html" target="_top" xlink:title=" ">
<polygon fill="white" stroke="#666666" points="598.5,-162 467.5,-162 467.5,-132 598.5,-132 598.5,-162"/>
<text text-anchor="start" x="475.5" y="-150" font-family="Helvetica,sans-Serif" font-size="10.00">App/Include/Application</text>
<text text-anchor="middle" x="533" y="-139" font-family="Helvetica,sans-Serif" font-size="10.00">/PrimitiveProxy.h</text>
</a>
</g>
</g>
<!-- Node1&#45;&gt;Node18 -->
<g id="edge52_Node000001_Node000018" class="edge">
<title>Node1&#45;&gt;Node18</title>
<g id="a_edge52_Node000001_Node000018"><a xlink:title=" ">
<path fill="none" stroke="#63b8ff" d="M994.48,-326.32C907.09,-292.55 662.1,-197.89 569.27,-162.02"/>
<polygon fill="#63b8ff" stroke="#63b8ff" points="993.27,-329.6 1003.86,-329.94 995.79,-323.08 993.27,-329.6"/>
</a>
</g>
</g>
<!-- Node21 -->
<g id="Node000021" class="node">
<title>Node21</title>
<g id="a_Node000021"><a xlink:href="Primitive_8h.html" target="_top" xlink:title=" ">
<polygon fill="white" stroke="#666666" points="1189.5,-294 1058.5,-294 1058.5,-264 1189.5,-264 1189.5,-294"/>
<text text-anchor="start" x="1066.5" y="-282" font-family="Helvetica,sans-Serif" font-size="10.00">App/Include/Application</text>
<text text-anchor="middle" x="1124" y="-271" font-family="Helvetica,sans-Serif" font-size="10.00">/Primitive.h</text>
</a>
</g>
</g>
<!-- Node1&#45;&gt;Node21 -->
<g id="edge43_Node000001_Node000021" class="edge">
<title>Node1&#45;&gt;Node21</title>
<g id="a_edge43_Node000001_Node000021"><a xlink:title=" ">
<path fill="none" stroke="#63b8ff" d="M1049.36,-324.55C1064.77,-315.36 1084.89,-303.35 1100.36,-294.11"/>
<polygon fill="#63b8ff" stroke="#63b8ff" points="1047.25,-321.74 1040.46,-329.87 1050.84,-327.75 1047.25,-321.74"/>
</a>
</g>
</g>
<!-- Node27 -->
<g id="Node000027" class="node">
<title>Node27</title>
<g id="a_Node000027"><a xlink:href="Input_8h.html" target="_top" xlink:title=" ">
<polygon fill="white" stroke="#666666" points="2274,-228 2140,-228 2140,-198 2274,-198 2274,-228"/>
<text text-anchor="start" x="2148" y="-216" font-family="Helvetica,sans-Serif" font-size="10.00">Core/Include/Core/Event</text>
<text text-anchor="middle" x="2207" y="-205" font-family="Helvetica,sans-Serif" font-size="10.00">/Input.h</text>
</a>
</g>
</g>
<!-- Node1&#45;&gt;Node27 -->
<g id="edge54_Node000001_Node000027" class="edge">
<title>Node1&#45;&gt;Node27</title>
<g id="a_edge54_Node000001_Node000027"><a xlink:title=" ">
<path fill="none" stroke="#63b8ff" d="M1119.69,-332.9C1234.31,-325.68 1434.18,-311.9 1605,-294 1799.77,-273.59 2028.84,-240.68 2139.88,-224.16"/>
<polygon fill="#63b8ff" stroke="#63b8ff" points="1119.31,-329.42 1109.55,-333.54 1119.75,-336.4 1119.31,-329.42"/>
</a>
</g>
</g>
<!-- Node30 -->
<g id="Node000030" class="node">
<title>Node30</title>
<g id="a_Node000030"><a xlink:href="MathHelpers_8h.html" target="_top" xlink:title=" ">
<polygon fill="white" stroke="#666666" points="1824.5,-156.5 1647.5,-156.5 1647.5,-137.5 1824.5,-137.5 1824.5,-156.5"/>
<text text-anchor="middle" x="1736" y="-144.5" font-family="Helvetica,sans-Serif" font-size="10.00">Core/Include/Core/MathHelpers.h</text>
</a>
</g>
</g>
<!-- Node1&#45;&gt;Node30 -->
<g id="edge57_Node000001_Node000030" class="edge">
<title>Node1&#45;&gt;Node30</title>
<g id="a_edge57_Node000001_Node000030"><a xlink:title=" ">
<path fill="none" stroke="#63b8ff" d="M1069.49,-327.4C1104.28,-318.48 1154.31,-305.58 1198,-294 1391.18,-242.8 1622.77,-179.2 1705.1,-156.52"/>
<polygon fill="#63b8ff" stroke="#63b8ff" points="1068.47,-324.05 1059.65,-329.92 1070.2,-330.83 1068.47,-324.05"/>
</a>
</g>
</g>
<!-- Node32 -->
<g id="Node000032" class="node">
<title>Node32</title>
<g id="a_Node000032"><a xlink:href="Window_8h.html" target="_top" xlink:title=" ">
<polygon fill="white" stroke="#666666" points="2453.5,-288.5 2300.5,-288.5 2300.5,-269.5 2453.5,-269.5 2453.5,-288.5"/>
<text text-anchor="middle" x="2377" y="-276.5" font-family="Helvetica,sans-Serif" font-size="10.00">Core/Include/Core/Window.h</text>
</a>
</g>
</g>
<!-- Node1&#45;&gt;Node32 -->
<g id="edge63_Node000001_Node000032" class="edge">
<title>Node1&#45;&gt;Node32</title>
<g id="a_edge63_Node000001_Node000032"><a xlink:title=" ">
<path fill="none" stroke="#63b8ff" d="M1119.94,-334.58C1302.7,-326.93 1718.92,-309.42 2069,-294 2147.88,-290.52 2238.11,-286.41 2300.42,-283.54"/>
<polygon fill="#63b8ff" stroke="#63b8ff" points="1119.67,-331.09 1109.82,-335 1119.96,-338.08 1119.67,-331.09"/>
</a>
</g>
</g>
<!-- Node3 -->
<g id="Node000003" class="node">
<title>Node3</title>
<g id="a_Node000003"><a xlink:href="TestHelpers_8h.html" target="_top" xlink:title=" ">
<polygon fill="white" stroke="#666666" points="609.5,-96 478.5,-96 478.5,-66 609.5,-66 609.5,-96"/>
<text text-anchor="start" x="486.5" y="-84" font-family="Helvetica,sans-Serif" font-size="10.00">App/Include/Application</text>
<text text-anchor="middle" x="544" y="-73" font-family="Helvetica,sans-Serif" font-size="10.00">/TestHelpers.h</text>
</a>
</g>
</g>
<!-- Node2&#45;&gt;Node3 -->
<g id="edge2_Node000002_Node000003" class="edge">
<title>Node2&#45;&gt;Node3</title>
<g id="a_edge2_Node000002_Node000003"><a xlink:title=" ">
<path fill="none" stroke="#63b8ff" d="M978.15,-131.94C834.87,-110.86 796.8,-112.47 657,-96 641.69,-94.2 625.21,-92.19 609.71,-90.28"/>
<polygon fill="#63b8ff" stroke="#63b8ff" points="977.79,-135.43 988.2,-133.43 978.82,-128.51 977.79,-135.43"/>
</a>
</g>
</g>
<!-- Node5 -->
<g id="Node000005" class="node">
<title>Node5</title>
<g id="a_Node000005"><a xlink:href="MeshExporter__utest_8cpp.html" target="_top" xlink:title=" ">
<polygon fill="white" stroke="#666666" points="626,-30 462,-30 462,0 626,0 626,-30"/>
<text text-anchor="start" x="470" y="-18" font-family="Helvetica,sans-Serif" font-size="10.00">App/Test/Source/MeshExporter</text>
<text text-anchor="middle" x="544" y="-7" font-family="Helvetica,sans-Serif" font-size="10.00">_utest.cpp</text>
</a>
</g>
</g>
<!-- Node2&#45;&gt;Node5 -->
<g id="edge11_Node000002_Node000005" class="edge">
<title>Node2&#45;&gt;Node5</title>
<g id="a_edge11_Node000002_Node000005"><a xlink:title=" ">
<path fill="none" stroke="#63b8ff" d="M1012,-127.98C968.63,-110 898.65,-82.71 836,-66 766.18,-47.38 685.04,-34.14 626.04,-25.98"/>
<polygon fill="#63b8ff" stroke="#63b8ff" points="1010.79,-131.27 1021.36,-131.89 1013.48,-124.81 1010.79,-131.27"/>
</a>
</g>
</g>
<!-- Node7 -->
<g id="Node000007" class="node">
<title>Node7</title>
<g id="a_Node000007"><a xlink:href="Mesh__utest_8cpp.html" target="_top" xlink:title=" ">
<polygon fill="white" stroke="#666666" points="1205.5,-30 1082.5,-30 1082.5,0 1205.5,0 1205.5,-30"/>
<text text-anchor="start" x="1090.5" y="-18" font-family="Helvetica,sans-Serif" font-size="10.00">App/Test/Source/Mesh</text>
<text text-anchor="middle" x="1144" y="-7" font-family="Helvetica,sans-Serif" font-size="10.00">_utest.cpp</text>
</a>
</g>
</g>
<!-- Node2&#45;&gt;Node7 -->
<g id="edge13_Node000002_Node000007" class="edge">
<title>Node2&#45;&gt;Node7</title>
<g id="a_edge13_Node000002_Node000007"><a xlink:title=" ">
<path fill="none" stroke="#63b8ff" d="M1091.92,-126.59C1104.12,-118.63 1116.63,-108.36 1125,-96 1138.61,-75.91 1142.52,-47.22 1143.61,-30.22"/>
<polygon fill="#63b8ff" stroke="#63b8ff" points="1089.85,-123.75 1083.16,-131.97 1093.51,-129.72 1089.85,-123.75"/>
</a>
</g>
</g>
<!-- Node9 -->
<g id="Node000009" class="node">
<title>Node9</title>
<g id="a_Node000009"><a xlink:href="Mesh_8cpp.html" target="_top" xlink:title=" ">
<polygon fill="white" stroke="#666666" points="1503.5,-90.5 1382.5,-90.5 1382.5,-71.5 1503.5,-71.5 1503.5,-90.5"/>
<text text-anchor="middle" x="1443" y="-78.5" font-family="Helvetica,sans-Serif" font-size="10.00">App/Source/Mesh.cpp</text>
</a>
</g>
</g>
<!-- Node2&#45;&gt;Node9 -->
<g id="edge8_Node000002_Node000009" class="edge">
<title>Node2&#45;&gt;Node9</title>
<g id="a_edge8_Node000002_Node000009"><a xlink:title=" ">
<path fill="none" stroke="#63b8ff" d="M1129.68,-133.55C1206.73,-120.87 1324.14,-101.56 1391.21,-90.52"/>
<polygon fill="#63b8ff" stroke="#63b8ff" points="1128.85,-130.14 1119.55,-135.22 1129.98,-137.05 1128.85,-130.14"/>
</a>
</g>
</g>
<!-- Node2&#45;&gt;Node10 -->
<g id="edge9_Node000002_Node000010" class="edge">
<title>Node2&#45;&gt;Node10</title>
<g id="a_edge9_Node000002_Node000010"><a xlink:title=" ">
<path fill="none" stroke="#63b8ff" d="M978.07,-132.02C653.75,-94.59 568.38,-121.46 247,-96 228.5,-94.53 208.55,-92.55 190.02,-90.53"/>
<polygon fill="#63b8ff" stroke="#63b8ff" points="977.89,-135.52 988.23,-133.2 978.7,-128.57 977.89,-135.52"/>
</a>
</g>
</g>
<!-- Node11 -->
<g id="Node000011" class="node">
<title>Node11</title>
<g id="a_Node000011"><a xlink:href="MeshLoader_8cpp.html" target="_top" xlink:title=" ">
<polygon fill="white" stroke="#666666" points="1325.5,-90.5 1172.5,-90.5 1172.5,-71.5 1325.5,-71.5 1325.5,-90.5"/>
<text text-anchor="middle" x="1249" y="-78.5" font-family="Helvetica,sans-Serif" font-size="10.00">App/Source/MeshLoader.cpp</text>
</a>
</g>
</g>
<!-- Node2&#45;&gt;Node11 -->
<g id="edge10_Node000002_Node000011" class="edge">
<title>Node2&#45;&gt;Node11</title>
<g id="a_edge10_Node000002_Node000011"><a xlink:title=" ">
<path fill="none" stroke="#63b8ff" d="M1106.6,-128.74C1144.3,-116.36 1193.46,-100.23 1223.05,-90.52"/>
<polygon fill="#63b8ff" stroke="#63b8ff" points="1105.2,-125.51 1096.79,-131.95 1107.39,-132.16 1105.2,-125.51"/>
</a>
</g>
</g>
<!-- Node12 -->
<g id="Node000012" class="node">
<title>Node12</title>
<g id="a_Node000012"><a xlink:href="MeshLoader__utest_8cpp.html" target="_top" xlink:title=" ">
<polygon fill="white" stroke="#666666" points="1116,-96 960,-96 960,-66 1116,-66 1116,-96"/>
<text text-anchor="start" x="968" y="-84" font-family="Helvetica,sans-Serif" font-size="10.00">App/Test/Source/MeshLoader</text>
<text text-anchor="middle" x="1038" y="-73" font-family="Helvetica,sans-Serif" font-size="10.00">_utest.cpp</text>
</a>
</g>
</g>
<!-- Node2&#45;&gt;Node12 -->
<g id="edge12_Node000002_Node000012" class="edge">
<title>Node2&#45;&gt;Node12</title>
<g id="a_edge12_Node000002_Node000012"><a xlink:title=" ">
<path fill="none" stroke="#63b8ff" d="M1047.96,-121.83C1045.79,-113.17 1043.42,-103.7 1041.54,-96.16"/>
<polygon fill="#63b8ff" stroke="#63b8ff" points="1044.63,-122.94 1050.45,-131.8 1051.42,-121.25 1044.63,-122.94"/>
</a>
</g>
</g>
<!-- Node4 -->
<g id="Node000004" class="node">
<title>Node4</title>
<g id="a_Node000004"><a xlink:href="MeshCirculator__utest_8cpp.html" target="_top" xlink:title=" ">
<polygon fill="white" stroke="#666666" points="170,-30 0,-30 0,0 170,0 170,-30"/>
<text text-anchor="start" x="8" y="-18" font-family="Helvetica,sans-Serif" font-size="10.00">App/Test/Source/MeshCirculator</text>
<text text-anchor="middle" x="85" y="-7" font-family="Helvetica,sans-Serif" font-size="10.00">_utest.cpp</text>
</a>
</g>
</g>
<!-- Node3&#45;&gt;Node4 -->
<g id="edge3_Node000003_Node000004" class="edge">
<title>Node3&#45;&gt;Node4</title>
<g id="a_edge3_Node000003_Node000004"><a xlink:title=" ">
<path fill="none" stroke="#63b8ff" d="M468.23,-69.44C386.21,-58 255.69,-39.8 170.17,-27.88"/>
<polygon fill="#63b8ff" stroke="#63b8ff" points="467.85,-72.92 478.24,-70.83 468.82,-65.98 467.85,-72.92"/>
</a>
</g>
</g>
<!-- Node3&#45;&gt;Node5 -->
<g id="edge4_Node000003_Node000005" class="edge">
<title>Node3&#45;&gt;Node5</title>
<g id="a_edge4_Node000003_Node000005"><a xlink:title=" ">
<path fill="none" stroke="#63b8ff" d="M544,-55.54C544,-46.96 544,-37.61 544,-30.16"/>
<polygon fill="#63b8ff" stroke="#63b8ff" points="540.5,-55.8 544,-65.8 547.5,-55.8 540.5,-55.8"/>
</a>
</g>
</g>
<!-- Node6 -->
<g id="Node000006" class="node">
<title>Node6</title>
<g id="a_Node000006"><a xlink:href="MeshIntegrity__utest_8cpp.html" target="_top" xlink:title=" ">
<polygon fill="white" stroke="#666666" points="873,-30 709,-30 709,0 873,0 873,-30"/>
<text text-anchor="start" x="717" y="-18" font-family="Helvetica,sans-Serif" font-size="10.00">App/Test/Source/MeshIntegrity</text>
<text text-anchor="middle" x="791" y="-7" font-family="Helvetica,sans-Serif" font-size="10.00">_utest.cpp</text>
</a>
</g>
</g>
<!-- Node3&#45;&gt;Node6 -->
<g id="edge5_Node000003_Node000006" class="edge">
<title>Node3&#45;&gt;Node6</title>
<g id="a_edge5_Node000003_Node000006"><a xlink:title=" ">
<path fill="none" stroke="#63b8ff" d="M608.12,-63.39C648.1,-53.03 698.98,-39.84 736.92,-30.01"/>
<polygon fill="#63b8ff" stroke="#63b8ff" points="607.01,-60.06 598.21,-65.95 608.76,-66.83 607.01,-60.06"/>
</a>
</g>
</g>
<!-- Node3&#45;&gt;Node7 -->
<g id="edge6_Node000003_Node000007" class="edge">
<title>Node3&#45;&gt;Node7</title>
<g id="a_edge6_Node000003_Node000007"><a xlink:title=" ">
<path fill="none" stroke="#63b8ff" d="M620.08,-66.54C621.4,-66.36 622.7,-66.18 624,-66 788.92,-43.67 984.59,-27.66 1082.19,-20.39"/>
<polygon fill="#63b8ff" stroke="#63b8ff" points="619.24,-63.13 609.86,-68.06 620.26,-70.05 619.24,-63.13"/>
</a>
</g>
</g>
<!-- Node8 -->
<g id="Node000008" class="node">
<title>Node8</title>
<g id="a_Node000008"><a xlink:href="PrimitiveProxy__utest_8cpp.html" target="_top" xlink:title=" ">
<polygon fill="white" stroke="#666666" points="370.5,-30 229.5,-30 229.5,0 370.5,0 370.5,-30"/>
<text text-anchor="start" x="237.5" y="-18" font-family="Helvetica,sans-Serif" font-size="10.00">App/Test/Source/Primitive</text>
<text text-anchor="middle" x="300" y="-7" font-family="Helvetica,sans-Serif" font-size="10.00">Proxy_utest.cpp</text>
</a>
</g>
</g>
<!-- Node3&#45;&gt;Node8 -->
<g id="edge7_Node000003_Node000008" class="edge">
<title>Node3&#45;&gt;Node8</title>
<g id="a_edge7_Node000003_Node000008"><a xlink:title=" ">
<path fill="none" stroke="#63b8ff" d="M480.66,-63.39C441.16,-53.03 390.9,-39.84 353.42,-30.01"/>
<polygon fill="#63b8ff" stroke="#63b8ff" points="479.89,-66.8 490.45,-65.95 481.67,-60.03 479.89,-66.8"/>
</a>
</g>
</g>
<!-- Node13&#45;&gt;Node3 -->
<g id="edge37_Node000013_Node000003" class="edge">
<title>Node13&#45;&gt;Node3</title>
<g id="a_edge37_Node000013_Node000003"><a xlink:title=" ">
<path fill="none" stroke="#63b8ff" d="M874.11,-192.21C860.42,-183.23 844.23,-172.33 830,-162 812.59,-149.36 811.53,-141.04 792,-132 760.21,-117.28 671.77,-101.5 609.6,-91.68"/>
<polygon fill="#63b8ff" stroke="#63b8ff" points="872.4,-195.27 882.69,-197.8 876.23,-189.41 872.4,-195.27"/>
</a>
</g>
</g>
<!-- Node13&#45;&gt;Node4 -->
<g id="edge40_Node000013_Node000004" class="edge">
<title>Node13&#45;&gt;Node4</title>
<g id="a_edge40_Node000013_Node000004"><a xlink:title=" ">
<path fill="none" stroke="#63b8ff" d="M829.26,-209.68C669.66,-204.32 303.53,-189.39 182,-162 103.74,-144.36 59.18,-162.29 14,-96 6.49,-84.98 7.86,-77.84 14,-66 22.19,-50.21 37.92,-38.35 52.49,-30.16"/>
<polygon fill="#63b8ff" stroke="#63b8ff" points="829.36,-213.19 839.47,-210.02 829.59,-206.19 829.36,-213.19"/>
</a>
</g>
</g>
<!-- Node13&#45;&gt;Node7 -->
<g id="edge41_Node000013_Node000007" class="edge">
<title>Node13&#45;&gt;Node7</title>
<g id="a_edge41_Node000013_Node000007"><a xlink:title=" ">
<path fill="none" stroke="#63b8ff" d="M980.86,-203.66C1001.63,-201.58 1024.17,-199.52 1045,-198 1394.66,-172.55 1486.27,-213.88 1833,-162 1949.63,-144.55 2017.72,-189.18 2090,-96 2098.17,-85.46 2099.18,-75.67 2090,-66 2059.53,-33.88 1410.75,-20.41 1205.61,-16.95"/>
<polygon fill="#63b8ff" stroke="#63b8ff" points="980.41,-200.19 970.81,-204.68 981.12,-207.15 980.41,-200.19"/>
</a>
</g>
</g>
<!-- Node13&#45;&gt;Node9 -->
<g id="edge38_Node000013_Node000009" class="edge">
<title>Node13&#45;&gt;Node9</title>
<g id="a_edge38_Node000013_Node000009"><a xlink:title=" ">
<path fill="none" stroke="#63b8ff" d="M980.81,-203.79C1085.79,-192.2 1265.84,-171.39 1295,-162 1348.94,-144.63 1406.12,-107.64 1430.65,-90.75"/>
<polygon fill="#63b8ff" stroke="#63b8ff" points="980.14,-200.35 970.59,-204.92 980.91,-207.3 980.14,-200.35"/>
</a>
</g>
</g>
<!-- Node13&#45;&gt;Node14 -->
<g id="edge15_Node000013_Node000014" class="edge">
<title>Node13&#45;&gt;Node14</title>
<g id="a_edge15_Node000013_Node000014"><a xlink:title=" ">
<path fill="none" stroke="#63b8ff" d="M829.18,-204.51C701.07,-191.86 443.93,-166.46 322.87,-154.51"/>
<polygon fill="#63b8ff" stroke="#63b8ff" points="829,-208.01 839.3,-205.51 829.69,-201.05 829,-208.01"/>
</a>
</g>
</g>
<!-- Node15 -->
<g id="Node000015" class="node">
<title>Node15</title>
<g id="a_Node000015"><a xlink:href="MeshIntegrity_8h.html" target="_top" xlink:title=" ">
<polygon fill="white" stroke="#666666" points="970.5,-162 839.5,-162 839.5,-132 970.5,-132 970.5,-162"/>
<text text-anchor="start" x="847.5" y="-150" font-family="Helvetica,sans-Serif" font-size="10.00">App/Include/Application</text>
<text text-anchor="middle" x="905" y="-139" font-family="Helvetica,sans-Serif" font-size="10.00">/MeshIntegrity.h</text>
</a>
</g>
</g>
<!-- Node13&#45;&gt;Node15 -->
<g id="edge18_Node000013_Node000015" class="edge">
<title>Node13&#45;&gt;Node15</title>
<g id="a_edge18_Node000013_Node000015"><a xlink:title=" ">
<path fill="none" stroke="#63b8ff" d="M905,-187.54C905,-178.96 905,-169.61 905,-162.16"/>
<polygon fill="#63b8ff" stroke="#63b8ff" points="901.5,-187.8 905,-197.8 908.5,-187.8 901.5,-187.8"/>
</a>
</g>
</g>
<!-- Node17 -->
<g id="Node000017" class="node">
<title>Node17</title>
<g id="a_Node000017"><a xlink:href="MeshLoader_8h.html" target="_top" xlink:title=" ">
<polygon fill="white" stroke="#666666" points="1286.5,-162 1155.5,-162 1155.5,-132 1286.5,-132 1286.5,-162"/>
<text text-anchor="start" x="1163.5" y="-150" font-family="Helvetica,sans-Serif" font-size="10.00">App/Include/Application</text>
<text text-anchor="middle" x="1221" y="-139" font-family="Helvetica,sans-Serif" font-size="10.00">/MeshLoader.h</text>
</a>
</g>
</g>
<!-- Node13&#45;&gt;Node17 -->
<g id="edge23_Node000013_Node000017" class="edge">
<title>Node13&#45;&gt;Node17</title>
<g id="a_edge23_Node000013_Node000017"><a xlink:title=" ">
<path fill="none" stroke="#63b8ff" d="M980.93,-196.62C1034.2,-185.83 1104.69,-171.56 1155.5,-161.27"/>
<polygon fill="#63b8ff" stroke="#63b8ff" points="979.97,-193.25 970.86,-198.66 981.36,-200.11 979.97,-193.25"/>
</a>
</g>
</g>
<!-- Node13&#45;&gt;Node18 -->
<g id="edge27_Node000013_Node000018" class="edge">
<title>Node13&#45;&gt;Node18</title>
<g id="a_edge27_Node000013_Node000018"><a xlink:title=" ">
<path fill="none" stroke="#63b8ff" d="M829.05,-199.7C768.78,-189.84 682.43,-175.46 607,-162 604.3,-161.52 601.54,-161.02 598.75,-160.51"/>
<polygon fill="#63b8ff" stroke="#63b8ff" points="828.81,-203.21 839.24,-201.37 829.93,-196.3 828.81,-203.21"/>
</a>
</g>
</g>
<!-- Node20 -->
<g id="Node000020" class="node">
<title>Node20</title>
<g id="a_Node000020"><a xlink:href="MeshCirculator_8cpp.html" target="_top" xlink:title=" ">
<polygon fill="white" stroke="#666666" points="783.5,-156.5 616.5,-156.5 616.5,-137.5 783.5,-137.5 783.5,-156.5"/>
<text text-anchor="middle" x="700" y="-144.5" font-family="Helvetica,sans-Serif" font-size="10.00">App/Source/MeshCirculator.cpp</text>
</a>
</g>
</g>
<!-- Node13&#45;&gt;Node20 -->
<g id="edge39_Node000013_Node000020" class="edge">
<title>Node13&#45;&gt;Node20</title>
<g id="a_edge39_Node000013_Node000020"><a xlink:title=" ">
<path fill="none" stroke="#63b8ff" d="M850.46,-194.97C810.73,-182.57 758.59,-166.29 727.28,-156.52"/>
<polygon fill="#63b8ff" stroke="#63b8ff" points="849.42,-198.32 860.01,-197.95 851.51,-191.63 849.42,-198.32"/>
</a>
</g>
</g>
<!-- Node14&#45;&gt;Node5 -->
<g id="edge17_Node000014_Node000005" class="edge">
<title>Node14&#45;&gt;Node5</title>
<g id="a_edge17_Node000014_Node000005"><a xlink:title=" ">
<path fill="none" stroke="#63b8ff" d="M181.35,-142.89C97.79,-136.83 -19.02,-118.91 29,-66 32.6,-62.03 317.51,-36.15 461.95,-23.27"/>
<polygon fill="#63b8ff" stroke="#63b8ff" points="181.15,-146.39 191.36,-143.58 181.62,-139.4 181.15,-146.39"/>
</a>
</g>
</g>
<!-- Node14&#45;&gt;Node10 -->
<g id="edge16_Node000014_Node000010" class="edge">
<title>Node14&#45;&gt;Node10</title>
<g id="a_edge16_Node000014_Node000010"><a xlink:title=" ">
<path fill="none" stroke="#63b8ff" d="M217.37,-127.62C191.03,-115.41 157.68,-99.94 137.37,-90.52"/>
<polygon fill="#63b8ff" stroke="#63b8ff" points="216.17,-130.92 226.72,-131.95 219.12,-124.57 216.17,-130.92"/>
</a>
</g>
</g>
<!-- Node15&#45;&gt;Node6 -->
<g id="edge20_Node000015_Node000006" class="edge">
<title>Node15&#45;&gt;Node6</title>
<g id="a_edge20_Node000015_Node000006"><a xlink:title=" ">
<path fill="none" stroke="#63b8ff" d="M886.19,-123.94C872.39,-107.82 853.14,-85.45 836,-66 825.35,-53.91 813.1,-40.32 804.08,-30.37"/>
<polygon fill="#63b8ff" stroke="#63b8ff" points="883.72,-126.43 892.88,-131.76 889.04,-121.88 883.72,-126.43"/>
</a>
</g>
</g>
<!-- Node15&#45;&gt;Node7 -->
<g id="edge22_Node000015_Node000007" class="edge">
<title>Node15&#45;&gt;Node7</title>
<g id="a_edge22_Node000015_Node000007"><a xlink:title=" ">
<path fill="none" stroke="#63b8ff" d="M912.86,-122.28C920.03,-104.25 932.38,-80.19 951,-66 988.71,-37.26 1041.34,-24.96 1082.11,-19.73"/>
<polygon fill="#63b8ff" stroke="#63b8ff" points="909.51,-121.24 909.31,-131.84 916.07,-123.68 909.51,-121.24"/>
</a>
</g>
</g>
<!-- Node15&#45;&gt;Node12 -->
<g id="edge21_Node000015_Node000012" class="edge">
<title>Node15&#45;&gt;Node12</title>
<g id="a_edge21_Node000015_Node000012"><a xlink:title=" ">
<path fill="none" stroke="#63b8ff" d="M943.42,-127.51C964.28,-117.47 989.67,-105.26 1008.88,-96.01"/>
<polygon fill="#63b8ff" stroke="#63b8ff" points="941.68,-124.46 934.19,-131.95 944.72,-130.77 941.68,-124.46"/>
</a>
</g>
</g>
<!-- Node16 -->
<g id="Node000016" class="node">
<title>Node16</title>
<g id="a_Node000016"><a xlink:href="MeshIntegrity_8cpp.html" target="_top" xlink:title=" ">
<polygon fill="white" stroke="#666666" points="827.5,-90.5 666.5,-90.5 666.5,-71.5 827.5,-71.5 827.5,-90.5"/>
<text text-anchor="middle" x="747" y="-78.5" font-family="Helvetica,sans-Serif" font-size="10.00">App/Source/MeshIntegrity.cpp</text>
</a>
</g>
</g>
<!-- Node15&#45;&gt;Node16 -->
<g id="edge19_Node000015_Node000016" class="edge">
<title>Node15&#45;&gt;Node16</title>
<g id="a_edge19_Node000015_Node000016"><a xlink:title=" ">
<path fill="none" stroke="#63b8ff" d="M860.81,-128.1C830.48,-115.82 791.6,-100.06 768.03,-90.52"/>
<polygon fill="#63b8ff" stroke="#63b8ff" points="859.74,-131.44 870.33,-131.95 862.37,-124.96 859.74,-131.44"/>
</a>
</g>
</g>
<!-- Node17&#45;&gt;Node7 -->
<g id="edge26_Node000017_Node000007" class="edge">
<title>Node17&#45;&gt;Node7</title>
<g id="a_edge26_Node000017_Node000007"><a xlink:title=" ">
<path fill="none" stroke="#63b8ff" d="M1281.16,-128.43C1318.12,-114.5 1354.75,-92.91 1334,-66 1318.28,-45.6 1255,-31.87 1205.74,-24.04"/>
<polygon fill="#63b8ff" stroke="#63b8ff" points="1279.51,-125.31 1271.29,-131.98 1281.88,-131.89 1279.51,-125.31"/>
</a>
</g>
</g>
<!-- Node17&#45;&gt;Node11 -->
<g id="edge24_Node000017_Node000011" class="edge">
<title>Node17&#45;&gt;Node11</title>
<g id="a_edge24_Node000017_Node000011"><a xlink:title=" ">
<path fill="none" stroke="#63b8ff" d="M1231.23,-122.61C1236.07,-111.56 1241.55,-99.03 1245.13,-90.84"/>
<polygon fill="#63b8ff" stroke="#63b8ff" points="1228.02,-121.23 1227.21,-131.8 1234.43,-124.04 1228.02,-121.23"/>
</a>
</g>
</g>
<!-- Node17&#45;&gt;Node12 -->
<g id="edge25_Node000017_Node000012" class="edge">
<title>Node17&#45;&gt;Node12</title>
<g id="a_edge25_Node000017_Node000012"><a xlink:title=" ">
<path fill="none" stroke="#63b8ff" d="M1171.22,-128.59C1141.96,-118.36 1105.46,-105.59 1078.07,-96.01"/>
<polygon fill="#63b8ff" stroke="#63b8ff" points="1170.25,-131.96 1180.84,-131.95 1172.56,-125.35 1170.25,-131.96"/>
</a>
</g>
</g>
<!-- Node18&#45;&gt;Node3 -->
<g id="edge28_Node000018_Node000003" class="edge">
<title>Node18&#45;&gt;Node3</title>
<g id="a_edge28_Node000018_Node000003"><a xlink:title=" ">
<path fill="none" stroke="#63b8ff" d="M537.16,-121.83C538.64,-113.17 540.27,-103.7 541.57,-96.16"/>
<polygon fill="#63b8ff" stroke="#63b8ff" points="533.69,-121.35 535.44,-131.8 540.58,-122.53 533.69,-121.35"/>
</a>
</g>
</g>
<!-- Node18&#45;&gt;Node5 -->
<g id="edge33_Node000018_Node000005" class="edge">
<title>Node18&#45;&gt;Node5</title>
<g id="a_edge33_Node000018_Node000005"><a xlink:title=" ">
<path fill="none" stroke="#63b8ff" d="M496.61,-126.37C485.68,-118.49 475.01,-108.32 469,-96 463.15,-84.02 462.71,-77.76 469,-66 477.57,-50 493.77,-38.23 508.93,-30.15"/>
<polygon fill="#63b8ff" stroke="#63b8ff" points="494.69,-129.3 504.95,-131.95 498.59,-123.48 494.69,-129.3"/>
</a>
</g>
</g>
<!-- Node18&#45;&gt;Node7 -->
<g id="edge35_Node000018_Node000007" class="edge">
<title>Node18&#45;&gt;Node7</title>
<g id="a_edge35_Node000018_Node000007"><a xlink:title=" ">
<path fill="none" stroke="#63b8ff" d="M567.64,-126.92C583.3,-117.97 601.87,-106.89 618,-96 636.13,-83.77 636.68,-74.09 657,-66 732.8,-35.81 968.84,-22.78 1082.12,-18.15"/>
<polygon fill="#63b8ff" stroke="#63b8ff" points="565.78,-123.95 558.8,-131.93 569.23,-130.04 565.78,-123.95"/>
</a>
</g>
</g>
<!-- Node18&#45;&gt;Node8 -->
<g id="edge36_Node000018_Node000008" class="edge">
<title>Node18&#45;&gt;Node8</title>
<g id="a_edge36_Node000018_Node000008"><a xlink:title=" ">
<path fill="none" stroke="#63b8ff" d="M456.77,-143.4C381.3,-139.03 273.33,-127.33 247,-96 228.99,-74.57 257.45,-46.82 279.13,-30.26"/>
<polygon fill="#63b8ff" stroke="#63b8ff" points="457.01,-146.92 467.19,-143.97 457.39,-139.93 457.01,-146.92"/>
</a>
</g>
</g>
<!-- Node18&#45;&gt;Node9 -->
<g id="edge29_Node000018_Node000009" class="edge">
<title>Node18&#45;&gt;Node9</title>
<g id="a_edge29_Node000018_Node000009"><a xlink:title=" ">
<path fill="none" stroke="#63b8ff" d="M608.76,-131.9C929.99,-94.47 1015.07,-124.33 1334,-96 1350.06,-94.57 1367.39,-92.56 1383.41,-90.51"/>
<polygon fill="#63b8ff" stroke="#63b8ff" points="608.22,-128.44 598.69,-133.09 609.04,-135.39 608.22,-128.44"/>
</a>
</g>
</g>
<!-- Node18&#45;&gt;Node10 -->
<g id="edge30_Node000018_Node000010" class="edge">
<title>Node18&#45;&gt;Node10</title>
<g id="a_edge30_Node000018_Node000010"><a xlink:title=" ">
<path fill="none" stroke="#63b8ff" d="M457.41,-134.31C375.52,-121.65 246.85,-101.76 174.04,-90.51"/>
<polygon fill="#63b8ff" stroke="#63b8ff" points="456.98,-137.79 467.4,-135.86 458.05,-130.87 456.98,-137.79"/>
</a>
</g>
</g>
<!-- Node18&#45;&gt;Node11 -->
<g id="edge31_Node000018_Node000011" class="edge">
<title>Node18&#45;&gt;Node11</title>
<g id="a_edge31_Node000018_Node000011"><a xlink:title=" ">
<path fill="none" stroke="#63b8ff" d="M608.67,-131.88C837.6,-102.9 898.43,-116.65 1125,-96 1142.26,-94.43 1160.84,-92.47 1178.23,-90.52"/>
<polygon fill="#63b8ff" stroke="#63b8ff" points="608.18,-128.41 598.7,-133.15 609.07,-135.36 608.18,-128.41"/>
</a>
</g>
</g>
<!-- Node18&#45;&gt;Node12 -->
<g id="edge34_Node000018_Node000012" class="edge">
<title>Node18&#45;&gt;Node12</title>
<g id="a_edge34_Node000018_Node000012"><a xlink:title=" ">
<path fill="none" stroke="#63b8ff" d="M608.74,-131.8C737.12,-112.5 875.6,-97.7 959.91,-89.36"/>
<polygon fill="#63b8ff" stroke="#63b8ff" points="608.09,-128.35 598.73,-133.31 609.14,-135.28 608.09,-128.35"/>
</a>
</g>
</g>
<!-- Node19 -->
<g id="Node000019" class="node">
<title>Node19</title>
<g id="a_Node000019"><a xlink:href="PrimitiveProxy_8cpp.html" target="_top" xlink:title=" ">
<polygon fill="white" stroke="#666666" points="421.5,-90.5 256.5,-90.5 256.5,-71.5 421.5,-71.5 421.5,-90.5"/>
<text text-anchor="middle" x="339" y="-78.5" font-family="Helvetica,sans-Serif" font-size="10.00">App/Source/PrimitiveProxy.cpp</text>
</a>
</g>
</g>
<!-- Node18&#45;&gt;Node19 -->
<g id="edge32_Node000018_Node000019" class="edge">
<title>Node18&#45;&gt;Node19</title>
<g id="a_edge32_Node000018_Node000019"><a xlink:title=" ">
<path fill="none" stroke="#63b8ff" d="M480.67,-128.74C443.16,-116.36 394.26,-100.23 364.82,-90.52"/>
<polygon fill="#63b8ff" stroke="#63b8ff" points="479.83,-132.15 490.43,-131.95 482.03,-125.5 479.83,-132.15"/>
</a>
</g>
</g>
<!-- Node21&#45;&gt;Node13 -->
<g id="edge44_Node000021_Node000013" class="edge">
<title>Node21&#45;&gt;Node13</title>
<g id="a_edge44_Node000021_Node000013"><a xlink:title=" ">
<path fill="none" stroke="#63b8ff" d="M1066.24,-261.12C1030.93,-250.8 986.3,-237.76 952.95,-228.01"/>
<polygon fill="#63b8ff" stroke="#63b8ff" points="1065.36,-264.51 1075.94,-263.95 1067.32,-257.79 1065.36,-264.51"/>
</a>
</g>
</g>
<!-- Node22 -->
<g id="Node000022" class="node">
<title>Node22</title>
<g id="a_Node000022"><a xlink:href="VertexPair_8h.html" target="_top" xlink:title=" ">
<polygon fill="white" stroke="#666666" points="1508.5,-162 1377.5,-162 1377.5,-132 1508.5,-132 1508.5,-162"/>
<text text-anchor="start" x="1385.5" y="-150" font-family="Helvetica,sans-Serif" font-size="10.00">App/Include/Application</text>
<text text-anchor="middle" x="1443" y="-139" font-family="Helvetica,sans-Serif" font-size="10.00">/VertexPair.h</text>
</a>
</g>
</g>
<!-- Node21&#45;&gt;Node22 -->
<g id="edge45_Node000021_Node000022" class="edge">
<title>Node21&#45;&gt;Node22</title>
<g id="a_edge45_Node000021_Node000022"><a xlink:title=" ">
<path fill="none" stroke="#63b8ff" d="M1199.83,-272.9C1248.28,-267.08 1311.13,-254.63 1361,-228 1391.7,-211.6 1418.75,-180.24 1432.79,-162.03"/>
<polygon fill="#63b8ff" stroke="#63b8ff" points="1199.27,-269.44 1189.73,-274.04 1200.06,-276.4 1199.27,-269.44"/>
</a>
</g>
</g>
<!-- Node25 -->
<g id="Node000025" class="node">
<title>Node25</title>
<g id="a_Node000025"><a xlink:href="Primitive_8cpp.html" target="_top" xlink:title=" ">
<polygon fill="white" stroke="#666666" points="1193.5,-222.5 1054.5,-222.5 1054.5,-203.5 1193.5,-203.5 1193.5,-222.5"/>
<text text-anchor="middle" x="1124" y="-210.5" font-family="Helvetica,sans-Serif" font-size="10.00">App/Source/Primitive.cpp</text>
</a>
</g>
</g>
<!-- Node21&#45;&gt;Node25 -->
<g id="edge50_Node000021_Node000025" class="edge">
<title>Node21&#45;&gt;Node25</title>
<g id="a_edge50_Node000021_Node000025"><a xlink:title=" ">
<path fill="none" stroke="#63b8ff" d="M1124,-253.6C1124,-242.8 1124,-230.78 1124,-222.84"/>
<polygon fill="#63b8ff" stroke="#63b8ff" points="1120.5,-253.8 1124,-263.8 1127.5,-253.8 1120.5,-253.8"/>
</a>
</g>
</g>
<!-- Node26 -->
<g id="Node000026" class="node">
<title>Node26</title>
<g id="a_Node000026"><a xlink:href="Primitive__utest_8cpp.html" target="_top" xlink:title=" ">
<polygon fill="white" stroke="#666666" points="1352.5,-228 1211.5,-228 1211.5,-198 1352.5,-198 1352.5,-228"/>
<text text-anchor="start" x="1219.5" y="-216" font-family="Helvetica,sans-Serif" font-size="10.00">App/Test/Source/Primitive</text>
<text text-anchor="middle" x="1282" y="-205" font-family="Helvetica,sans-Serif" font-size="10.00">_utest.cpp</text>
</a>
</g>
</g>
<!-- Node21&#45;&gt;Node26 -->
<g id="edge51_Node000021_Node000026" class="edge">
<title>Node21&#45;&gt;Node26</title>
<g id="a_edge51_Node000021_Node000026"><a xlink:title=" ">
<path fill="none" stroke="#63b8ff" d="M1167.97,-260.19C1193.06,-250.02 1224.07,-237.47 1247.41,-228.01"/>
<polygon fill="#63b8ff" stroke="#63b8ff" points="1166.63,-256.96 1158.67,-263.95 1169.26,-263.44 1166.63,-256.96"/>
</a>
</g>
</g>
<!-- Node22&#45;&gt;Node9 -->
<g id="edge46_Node000022_Node000009" class="edge">
<title>Node22&#45;&gt;Node9</title>
<g id="a_edge46_Node000022_Node000009"><a xlink:title=" ">
<path fill="none" stroke="#63b8ff" d="M1443,-121.6C1443,-110.8 1443,-98.78 1443,-90.84"/>
<polygon fill="#63b8ff" stroke="#63b8ff" points="1439.5,-121.8 1443,-131.8 1446.5,-121.8 1439.5,-121.8"/>
</a>
</g>
</g>
<!-- Node22&#45;&gt;Node11 -->
<g id="edge47_Node000022_Node000011" class="edge">
<title>Node22&#45;&gt;Node11</title>
<g id="a_edge47_Node000022_Node000011"><a xlink:title=" ">
<path fill="none" stroke="#63b8ff" d="M1390.67,-128.74C1353.16,-116.36 1304.26,-100.23 1274.82,-90.52"/>
<polygon fill="#63b8ff" stroke="#63b8ff" points="1389.83,-132.15 1400.43,-131.95 1392.03,-125.5 1389.83,-132.15"/>
</a>
</g>
</g>
<!-- Node23 -->
<g id="Node000023" class="node">
<title>Node23</title>
<g id="a_Node000023"><a xlink:href="VertexPair_8cpp.html" target="_top" xlink:title=" ">
<polygon fill="white" stroke="#666666" points="1664.5,-90.5 1521.5,-90.5 1521.5,-71.5 1664.5,-71.5 1664.5,-90.5"/>
<text text-anchor="middle" x="1593" y="-78.5" font-family="Helvetica,sans-Serif" font-size="10.00">App/Source/VertexPair.cpp</text>
</a>
</g>
</g>
<!-- Node22&#45;&gt;Node23 -->
<g id="edge48_Node000022_Node000023" class="edge">
<title>Node22&#45;&gt;Node23</title>
<g id="a_edge48_Node000022_Node000023"><a xlink:title=" ">
<path fill="none" stroke="#63b8ff" d="M1485.33,-127.94C1514.06,-115.68 1550.76,-100.02 1573.04,-90.52"/>
<polygon fill="#63b8ff" stroke="#63b8ff" points="1483.74,-124.81 1475.92,-131.95 1486.49,-131.25 1483.74,-124.81"/>
</a>
</g>
</g>
<!-- Node24 -->
<g id="Node000024" class="node">
<title>Node24</title>
<g id="a_Node000024"><a xlink:href="VertexPair__utest_8cpp.html" target="_top" xlink:title=" ">
<polygon fill="white" stroke="#666666" points="1829,-96 1683,-96 1683,-66 1829,-66 1829,-96"/>
<text text-anchor="start" x="1691" y="-84" font-family="Helvetica,sans-Serif" font-size="10.00">App/Test/Source/VertexPair</text>
<text text-anchor="middle" x="1756" y="-73" font-family="Helvetica,sans-Serif" font-size="10.00">_utest.cpp</text>
</a>
</g>
</g>
<!-- Node22&#45;&gt;Node24 -->
<g id="edge49_Node000022_Node000024" class="edge">
<title>Node22&#45;&gt;Node24</title>
<g id="a_edge49_Node000022_Node000024"><a xlink:title=" ">
<path fill="none" stroke="#63b8ff" d="M1518.68,-130.53C1570.13,-120.01 1637.64,-106.2 1687.49,-96.01"/>
<polygon fill="#63b8ff" stroke="#63b8ff" points="1517.71,-127.15 1508.62,-132.58 1519.11,-134.01 1517.71,-127.15"/>
</a>
</g>
</g>
<!-- Node28 -->
<g id="Node000028" class="node">
<title>Node28</title>
<g id="a_Node000028"><a xlink:href="Application_8cpp.html" target="_top" xlink:title=" ">
<polygon fill="white" stroke="#666666" points="2290.5,-156.5 2137.5,-156.5 2137.5,-137.5 2290.5,-137.5 2290.5,-156.5"/>
<text text-anchor="middle" x="2214" y="-144.5" font-family="Helvetica,sans-Serif" font-size="10.00">Core/Source/Application.cpp</text>
</a>
</g>
</g>
<!-- Node27&#45;&gt;Node28 -->
<g id="edge55_Node000027_Node000028" class="edge">
<title>Node27&#45;&gt;Node28</title>
<g id="a_edge55_Node000027_Node000028"><a xlink:title=" ">
<path fill="none" stroke="#63b8ff" d="M2209.67,-187.6C2210.85,-176.8 2212.16,-164.78 2213.03,-156.84"/>
<polygon fill="#63b8ff" stroke="#63b8ff" points="2206.16,-187.48 2208.55,-197.8 2213.12,-188.24 2206.16,-187.48"/>
</a>
</g>
</g>
<!-- Node29 -->
<g id="Node000029" class="node">
<title>Node29</title>
<g id="a_Node000029"><a xlink:href="Input_8cpp.html" target="_top" xlink:title=" ">
<polygon fill="white" stroke="#666666" points="2431.5,-156.5 2308.5,-156.5 2308.5,-137.5 2431.5,-137.5 2431.5,-156.5"/>
<text text-anchor="middle" x="2370" y="-144.5" font-family="Helvetica,sans-Serif" font-size="10.00">Core/Source/Input.cpp</text>
</a>
</g>
</g>
<!-- Node27&#45;&gt;Node29 -->
<g id="edge56_Node000027_Node000029" class="edge">
<title>Node27&#45;&gt;Node29</title>
<g id="a_edge56_Node000027_Node000029"><a xlink:title=" ">
<path fill="none" stroke="#63b8ff" d="M2252.18,-194.26C2283.53,-181.95 2323.89,-166.11 2348.31,-156.52"/>
<polygon fill="#63b8ff" stroke="#63b8ff" points="2250.8,-191.04 2242.77,-197.95 2253.36,-197.56 2250.8,-191.04"/>
</a>
</g>
</g>
<!-- Node30&#45;&gt;Node5 -->
<g id="edge60_Node000030_Node000005" class="edge">
<title>Node30&#45;&gt;Node5</title>
<g id="a_edge60_Node000030_Node000005"><a xlink:title=" ">
<path fill="none" stroke="#63b8ff" d="M1772.71,-133.95C1811.72,-119.34 1864.42,-93.27 1838,-66 1793.99,-20.57 763.14,-33.83 700,-30 675.98,-28.54 649.92,-26.42 626.11,-24.27"/>
<polygon fill="#63b8ff" stroke="#63b8ff" points="1771.36,-130.72 1763.14,-137.41 1773.74,-137.3 1771.36,-130.72"/>
</a>
</g>
</g>
<!-- Node30&#45;&gt;Node7 -->
<g id="edge62_Node000030_Node000007" class="edge">
<title>Node30&#45;&gt;Node7</title>
<g id="a_edge62_Node000030_Node000007"><a xlink:title=" ">
<path fill="none" stroke="#63b8ff" d="M1787.96,-134.99C1837.83,-122.19 1901.41,-98.58 1871,-66 1826.05,-17.85 1373.14,-14.95 1205.75,-15.54"/>
<polygon fill="#63b8ff" stroke="#63b8ff" points="1787.07,-131.6 1778.2,-137.4 1788.75,-138.4 1787.07,-131.6"/>
</a>
</g>
</g>
<!-- Node30&#45;&gt;Node9 -->
<g id="edge58_Node000030_Node000009" class="edge">
<title>Node30&#45;&gt;Node9</title>
<g id="a_edge58_Node000030_Node000009"><a xlink:title=" ">
<path fill="none" stroke="#63b8ff" d="M1686.82,-135.26C1629.17,-122.67 1534.82,-102.06 1481.98,-90.51"/>
<polygon fill="#63b8ff" stroke="#63b8ff" points="1686.27,-138.72 1696.79,-137.44 1687.77,-131.88 1686.27,-138.72"/>
</a>
</g>
</g>
<!-- Node30&#45;&gt;Node12 -->
<g id="edge61_Node000030_Node000012" class="edge">
<title>Node30&#45;&gt;Node12</title>
<g id="a_edge61_Node000030_Node000012"><a xlink:title=" ">
<path fill="none" stroke="#63b8ff" d="M1636.97,-138.1C1522.69,-128.81 1329.14,-112.55 1163,-96 1147.9,-94.5 1131.78,-92.78 1116.32,-91.07"/>
<polygon fill="#63b8ff" stroke="#63b8ff" points="1636.85,-141.6 1647.1,-138.92 1637.42,-134.62 1636.85,-141.6"/>
</a>
</g>
</g>
<!-- Node31 -->
<g id="Node000031" class="node">
<title>Node31</title>
<g id="a_Node000031"><a xlink:href="MathHelpers__utest_8cpp.html" target="_top" xlink:title=" ">
<polygon fill="white" stroke="#666666" points="2081.5,-96 1922.5,-96 1922.5,-66 2081.5,-66 2081.5,-96"/>
<text text-anchor="start" x="1930.5" y="-84" font-family="Helvetica,sans-Serif" font-size="10.00">App/Test/Source/MathHelpers</text>
<text text-anchor="middle" x="2002" y="-73" font-family="Helvetica,sans-Serif" font-size="10.00">_utest.cpp</text>
</a>
</g>
</g>
<!-- Node30&#45;&gt;Node31 -->
<g id="edge59_Node000030_Node000031" class="edge">
<title>Node30&#45;&gt;Node31</title>
<g id="a_edge59_Node000030_Node000031"><a xlink:title=" ">
<path fill="none" stroke="#63b8ff" d="M1781.33,-135.09C1826.14,-124.31 1894.87,-107.78 1943.71,-96.02"/>
<polygon fill="#63b8ff" stroke="#63b8ff" points="1780.5,-131.69 1771.6,-137.44 1782.14,-138.5 1780.5,-131.69"/>
</a>
</g>
</g>
<!-- Node33 -->
<g id="Node000033" class="node">
<title>Node33</title>
<g id="a_Node000033"><a xlink:href="Application_8h.html" target="_top" xlink:title=" ">
<polygon fill="white" stroke="#666666" points="2462,-222.5 2292,-222.5 2292,-203.5 2462,-203.5 2462,-222.5"/>
<text text-anchor="middle" x="2377" y="-210.5" font-family="Helvetica,sans-Serif" font-size="10.00">Core/Include/Core/Application.h</text>
</a>
</g>
</g>
<!-- Node32&#45;&gt;Node33 -->
<g id="edge64_Node000032_Node000033" class="edge">
<title>Node32&#45;&gt;Node33</title>
<g id="a_edge64_Node000032_Node000033"><a xlink:title=" ">
<path fill="none" stroke="#63b8ff" d="M2377,-259.08C2377,-247.13 2377,-232.22 2377,-222.91"/>
<polygon fill="#63b8ff" stroke="#63b8ff" points="2373.5,-259.37 2377,-269.37 2380.5,-259.37 2373.5,-259.37"/>
</a>
</g>
</g>
<!-- Node36 -->
<g id="Node000036" class="node">
<title>Node36</title>
<g id="a_Node000036"><a xlink:href="Window_8cpp.html" target="_top" xlink:title=" ">
<polygon fill="white" stroke="#666666" points="2617.5,-222.5 2480.5,-222.5 2480.5,-203.5 2617.5,-203.5 2617.5,-222.5"/>
<text text-anchor="middle" x="2549" y="-210.5" font-family="Helvetica,sans-Serif" font-size="10.00">Core/Source/Window.cpp</text>
</a>
</g>
</g>
<!-- Node32&#45;&gt;Node36 -->
<g id="edge69_Node000032_Node000036" class="edge">
<title>Node32&#45;&gt;Node36</title>
<g id="a_edge69_Node000032_Node000036"><a xlink:title=" ">
<path fill="none" stroke="#63b8ff" d="M2409.68,-265.84C2443.66,-253.2 2495.98,-233.73 2525.9,-222.6"/>
<polygon fill="#63b8ff" stroke="#63b8ff" points="2408.35,-262.6 2400.2,-269.37 2410.79,-269.16 2408.35,-262.6"/>
</a>
</g>
</g>
<!-- Node33&#45;&gt;Node28 -->
<g id="edge67_Node000033_Node000028" class="edge">
<title>Node33&#45;&gt;Node28</title>
<g id="a_edge67_Node000033_Node000028"><a xlink:title=" ">
<path fill="none" stroke="#63b8ff" d="M2345.61,-199.68C2313.4,-187.03 2264.12,-167.68 2235.89,-156.6"/>
<polygon fill="#63b8ff" stroke="#63b8ff" points="2344.43,-202.97 2355.02,-203.37 2346.99,-196.46 2344.43,-202.97"/>
</a>
</g>
</g>
<!-- Node33&#45;&gt;Node29 -->
<g id="edge68_Node000033_Node000029" class="edge">
<title>Node33&#45;&gt;Node29</title>
<g id="a_edge68_Node000033_Node000029"><a xlink:title=" ">
<path fill="none" stroke="#63b8ff" d="M2374.93,-193.08C2373.62,-181.13 2371.99,-166.22 2370.97,-156.91"/>
<polygon fill="#63b8ff" stroke="#63b8ff" points="2371.49,-193.81 2376.06,-203.37 2378.45,-193.05 2371.49,-193.81"/>
</a>
</g>
</g>
<!-- Node34 -->
<g id="Node000034" class="node">
<title>Node34</title>
<g id="a_Node000034"><a xlink:href="AppLayer_8cpp.html" target="_top" xlink:title=" ">
<polygon fill="white" stroke="#666666" points="2590,-156.5 2450,-156.5 2450,-137.5 2590,-137.5 2590,-156.5"/>
<text text-anchor="middle" x="2520" y="-144.5" font-family="Helvetica,sans-Serif" font-size="10.00">App/Source/AppLayer.cpp</text>
</a>
</g>
</g>
<!-- Node33&#45;&gt;Node34 -->
<g id="edge65_Node000033_Node000034" class="edge">
<title>Node33&#45;&gt;Node34</title>
<g id="a_edge65_Node000033_Node000034"><a xlink:title=" ">
<path fill="none" stroke="#63b8ff" d="M2405.61,-199.19C2433.8,-186.58 2476.08,-167.66 2500.56,-156.7"/>
<polygon fill="#63b8ff" stroke="#63b8ff" points="2403.98,-196.09 2396.29,-203.37 2406.84,-202.48 2403.98,-196.09"/>
</a>
</g>
</g>
<!-- Node35 -->
<g id="Node000035" class="node">
<title>Node35</title>
<g id="a_Node000035"><a xlink:href="RunApp_8cpp.html" target="_top" xlink:title=" ">
<polygon fill="white" stroke="#666666" points="2740,-156.5 2608,-156.5 2608,-137.5 2740,-137.5 2740,-156.5"/>
<text text-anchor="middle" x="2674" y="-144.5" font-family="Helvetica,sans-Serif" font-size="10.00">App/Source/RunApp.cpp</text>
</a>
</g>
</g>
<!-- Node33&#45;&gt;Node35 -->
<g id="edge66_Node000033_Node000035" class="edge">
<title>Node33&#45;&gt;Node35</title>
<g id="a_edge66_Node000033_Node000035"><a xlink:title=" ">
<path fill="none" stroke="#63b8ff" d="M2426.85,-201.26C2485.29,-188.67 2580.93,-168.06 2634.49,-156.51"/>
<polygon fill="#63b8ff" stroke="#63b8ff" points="2425.78,-197.91 2416.75,-203.44 2427.26,-204.75 2425.78,-197.91"/>
</a>
</g>
</g>
</g>
</svg>
