<?xml version="1.0" encoding="UTF-8" standalone="no"?>
<!DOCTYPE svg PUBLIC "-//W3C//DTD SVG 1.1//EN"
 "http://www.w3.org/Graphics/SVG/1.1/DTD/svg11.dtd">
<!-- Generated by graphviz version 2.43.0 (0)
 -->
<!-- Title: Core/Include/Core/BaseTypes.h Pages: 1 -->
<svg width="2447pt" height="357pt"
 viewBox="0.00 0.00 2447.16 357.00" xmlns="http://www.w3.org/2000/svg" xmlns:xlink="http://www.w3.org/1999/xlink">
<g id="graph0" class="graph" transform="scale(1 1) rotate(0) translate(4 353)">
<title>Core/Include/Core/BaseTypes.h</title>
<!-- Node1 -->
<g id="Node000001" class="node">
<title>Node1</title>
<g id="a_Node000001"><a xlink:title=" ">
<polygon fill="#999999" stroke="#666666" points="1321.16,-349 1154.16,-349 1154.16,-330 1321.16,-330 1321.16,-349"/>
<text text-anchor="middle" x="1237.66" y="-337" font-family="Helvetica,sans-Serif" font-size="10.00">Core/Include/Core/BaseTypes.h</text>
</a>
</g>
</g>
<!-- Node2 -->
<g id="Node000002" class="node">
<title>Node2</title>
<g id="a_Node000002"><a xlink:href="ExtraDataType_8h.html" target="_top" xlink:title=" ">
<polygon fill="white" stroke="#666666" points="857.16,-162 726.16,-162 726.16,-132 857.16,-132 857.16,-162"/>
<text text-anchor="start" x="734.16" y="-150" font-family="Helvetica,sans-Serif" font-size="10.00">App/Include/Application</text>
<text text-anchor="middle" x="791.66" y="-139" font-family="Helvetica,sans-Serif" font-size="10.00">/ExtraDataType.h</text>
</a>
</g>
</g>
<!-- Node1&#45;&gt;Node2 -->
<g id="edge1_Node000001_Node000002" class="edge">
<title>Node1&#45;&gt;Node2</title>
<g id="a_edge1_Node000001_Node000002"><a xlink:title=" ">
<path fill="none" stroke="#63b8ff" d="M1208.17,-325.9C1128.29,-291.78 908.11,-197.74 824.47,-162.02"/>
<polygon fill="#63b8ff" stroke="#63b8ff" points="1207.06,-329.24 1217.63,-329.94 1209.81,-322.8 1207.06,-329.24"/>
</a>
</g>
</g>
<!-- Node10 -->
<g id="Node000010" class="node">
<title>Node10</title>
<g id="a_Node000010"><a xlink:href="MeshExporter_8cpp.html" target="_top" xlink:title=" ">
<polygon fill="white" stroke="#666666" points="177.16,-90.5 16.16,-90.5 16.16,-71.5 177.16,-71.5 177.16,-90.5"/>
<text text-anchor="middle" x="96.66" y="-78.5" font-family="Helvetica,sans-Serif" font-size="10.00">App/Source/MeshExporter.cpp</text>
</a>
</g>
</g>
<!-- Node1&#45;&gt;Node10 -->
<g id="edge53_Node000001_Node000010" class="edge">
<title>Node1&#45;&gt;Node10</title>
<g id="a_edge53_Node000001_Node000010"><a xlink:title=" ">
<path fill="none" stroke="#63b8ff" d="M1143.96,-331.65C1061.76,-324.82 939.22,-312.63 833.66,-294 597.15,-252.25 538.61,-234.52 309.66,-162 237.92,-139.28 155,-106.07 117.27,-90.57"/>
<polygon fill="#63b8ff" stroke="#63b8ff" points="1143.78,-335.15 1154.03,-332.48 1144.35,-328.17 1143.78,-335.15"/>
</a>
</g>
</g>
<!-- Node13 -->
<g id="Node000013" class="node">
<title>Node13</title>
<g id="a_Node000013"><a xlink:href="Mesh_8h.html" target="_top" xlink:title=" ">
<polygon fill="white" stroke="#666666" points="1233.16,-228 1102.16,-228 1102.16,-198 1233.16,-198 1233.16,-228"/>
<text text-anchor="start" x="1110.16" y="-216" font-family="Helvetica,sans-Serif" font-size="10.00">App/Include/Application</text>
<text text-anchor="middle" x="1167.66" y="-205" font-family="Helvetica,sans-Serif" font-size="10.00">/Mesh.h</text>
</a>
</g>
</g>
<!-- Node1&#45;&gt;Node13 -->
<g id="edge14_Node000001_Node000013" class="edge">
<title>Node1&#45;&gt;Node13</title>
<g id="a_edge14_Node000001_Node000013"><a xlink:title=" ">
<path fill="none" stroke="#63b8ff" d="M1227.77,-320.91C1213.78,-296.03 1188.48,-251.03 1175.62,-228.16"/>
<polygon fill="#63b8ff" stroke="#63b8ff" points="1224.9,-322.94 1232.85,-329.94 1231,-319.51 1224.9,-322.94"/>
</a>
</g>
</g>
<!-- Node14 -->
<g id="Node000014" class="node">
<title>Node14</title>
<g id="a_Node000014"><a xlink:href="MeshExporter_8h.html" target="_top" xlink:title=" ">
<polygon fill="white" stroke="#666666" points="450.16,-162 319.16,-162 319.16,-132 450.16,-132 450.16,-162"/>
<text text-anchor="start" x="327.16" y="-150" font-family="Helvetica,sans-Serif" font-size="10.00">App/Include/Application</text>
<text text-anchor="middle" x="384.66" y="-139" font-family="Helvetica,sans-Serif" font-size="10.00">/MeshExporter.h</text>
</a>
</g>
</g>
<!-- Node1&#45;&gt;Node14 -->
<g id="edge42_Node000001_Node000014" class="edge">
<title>Node1&#45;&gt;Node14</title>
<g id="a_edge42_Node000001_Node000014"><a xlink:title=" ">
<path fill="none" stroke="#63b8ff" d="M1165.01,-328.5C1109.39,-320.43 1030.88,-308.11 962.66,-294 765.27,-253.18 533.7,-189.97 434.19,-162.06"/>
<polygon fill="#63b8ff" stroke="#63b8ff" points="1164.72,-332 1175.12,-329.96 1165.72,-325.07 1164.72,-332"/>
</a>
</g>
</g>
<!-- Node18 -->
<g id="Node000018" class="node">
<title>Node18</title>
<g id="a_Node000018"><a xlink:href="PrimitiveProxy_8h.html" target="_top" xlink:title=" ">
<polygon fill="white" stroke="#666666" points="663.16,-162 532.16,-162 532.16,-132 663.16,-132 663.16,-162"/>
<text text-anchor="start" x="540.16" y="-150" font-family="Helvetica,sans-Serif" font-size="10.00">App/Include/Application</text>
<text text-anchor="middle" x="597.66" y="-139" font-family="Helvetica,sans-Serif" font-size="10.00">/PrimitiveProxy.h</text>
</a>
</g>
</g>
<!-- Node1&#45;&gt;Node18 -->
<g id="edge52_Node000001_Node000018" class="edge">
<title>Node1&#45;&gt;Node18</title>
<g id="a_edge52_Node000001_Node000018"><a xlink:title=" ">
<path fill="none" stroke="#63b8ff" d="M1193.28,-327.47C1158.89,-318.78 1110.11,-306.14 1067.66,-294 909.32,-248.71 722.97,-188.85 640.56,-162.04"/>
<polygon fill="#63b8ff" stroke="#63b8ff" points="1192.47,-330.87 1203.02,-329.92 1194.18,-324.08 1192.47,-330.87"/>
</a>
</g>
</g>
<!-- Node21 -->
<g id="Node000021" class="node">
<title>Node21</title>
<g id="a_Node000021"><a xlink:href="Primitive_8h.html" target="_top" xlink:title=" ">
<polygon fill="white" stroke="#666666" points="1426.16,-294 1295.16,-294 1295.16,-264 1426.16,-264 1426.16,-294"/>
<text text-anchor="start" x="1303.16" y="-282" font-family="Helvetica,sans-Serif" font-size="10.00">App/Include/Application</text>
<text text-anchor="middle" x="1360.66" y="-271" font-family="Helvetica,sans-Serif" font-size="10.00">/Primitive.h</text>
</a>
</g>
</g>
<!-- Node1&#45;&gt;Node21 -->
<g id="edge43_Node000001_Node000021" class="edge">
<title>Node1&#45;&gt;Node21</title>
<g id="a_edge43_Node000001_Node000021"><a xlink:title=" ">
<path fill="none" stroke="#63b8ff" d="M1264.81,-325.59C1284.35,-316.29 1310.72,-303.75 1330.85,-294.18"/>
<polygon fill="#63b8ff" stroke="#63b8ff" points="1263.07,-322.54 1255.54,-329.99 1266.08,-328.86 1263.07,-322.54"/>
</a>
</g>
</g>
<!-- Node27 -->
<g id="Node000027" class="node">
<title>Node27</title>
<g id="a_Node000027"><a xlink:href="Application_8h.html" target="_top" xlink:title=" ">
<polygon fill="white" stroke="#666666" points="2081.66,-222.5 1911.66,-222.5 1911.66,-203.5 2081.66,-203.5 2081.66,-222.5"/>
<text text-anchor="middle" x="1996.66" y="-210.5" font-family="Helvetica,sans-Serif" font-size="10.00">Core/Include/Core/Application.h</text>
</a>
</g>
</g>
<!-- Node1&#45;&gt;Node27 -->
<g id="edge54_Node000001_Node000027" class="edge">
<title>Node1&#45;&gt;Node27</title>
<g id="a_edge54_Node000001_Node000027"><a xlink:title=" ">
<path fill="none" stroke="#63b8ff" d="M1299.67,-328.33C1445.76,-304.36 1809.46,-244.71 1944.82,-222.5"/>
<polygon fill="#63b8ff" stroke="#63b8ff" points="1298.83,-324.92 1289.53,-329.99 1299.96,-331.83 1298.83,-324.92"/>
</a>
</g>
</g>
<!-- Node31 -->
<g id="Node000031" class="node">
<title>Node31</title>
<g id="a_Node000031"><a xlink:href="Input_8h.html" target="_top" xlink:title=" ">
<polygon fill="white" stroke="#666666" points="2304.66,-294 2170.66,-294 2170.66,-264 2304.66,-264 2304.66,-294"/>
<text text-anchor="start" x="2178.66" y="-282" font-family="Helvetica,sans-Serif" font-size="10.00">Core/Include/Core/Event</text>
<text text-anchor="middle" x="2237.66" y="-271" font-family="Helvetica,sans-Serif" font-size="10.00">/Input.h</text>
</a>
</g>
</g>
<!-- Node1&#45;&gt;Node31 -->
<g id="edge58_Node000001_Node000031" class="edge">
<title>Node1&#45;&gt;Node31</title>
<g id="a_edge58_Node000001_Node000031"><a xlink:title=" ">
<path fill="none" stroke="#63b8ff" d="M1331.41,-334.71C1487.4,-328.15 1810.05,-313.48 2082.66,-294 2111.5,-291.94 2143.31,-289.16 2170.56,-286.61"/>
<polygon fill="#63b8ff" stroke="#63b8ff" points="1331.22,-331.22 1321.38,-335.13 1331.52,-338.21 1331.22,-331.22"/>
</a>
</g>
</g>
<!-- Node33 -->
<g id="Node000033" class="node">
<title>Node33</title>
<g id="a_Node000033"><a xlink:href="MathHelpers_8h.html" target="_top" xlink:title=" ">
<polygon fill="white" stroke="#666666" points="1599.16,-156.5 1422.16,-156.5 1422.16,-137.5 1599.16,-137.5 1599.16,-156.5"/>
<text text-anchor="middle" x="1510.66" y="-144.5" font-family="Helvetica,sans-Serif" font-size="10.00">Core/Include/Core/MathHelpers.h</text>
</a>
</g>
</g>
<!-- Node1&#45;&gt;Node33 -->
<g id="edge60_Node000001_Node000033" class="edge">
<title>Node1&#45;&gt;Node33</title>
<g id="a_edge60_Node000001_Node000033"><a xlink:title=" ">
<path fill="none" stroke="#63b8ff" d="M1237.73,-319.61C1238.92,-289.31 1245.87,-230.01 1280.66,-198 1293.68,-186.01 1394.42,-167.35 1458.18,-156.54"/>
<polygon fill="#63b8ff" stroke="#63b8ff" points="1234.23,-319.61 1237.51,-329.68 1241.23,-319.76 1234.23,-319.61"/>
</a>
</g>
</g>
<!-- Node35 -->
<g id="Node000035" class="node">
<title>Node35</title>
<g id="a_Node000035"><a xlink:href="Window_8h.html" target="_top" xlink:title=" ">
<polygon fill="white" stroke="#666666" points="2073.16,-288.5 1920.16,-288.5 1920.16,-269.5 2073.16,-269.5 2073.16,-288.5"/>
<text text-anchor="middle" x="1996.66" y="-276.5" font-family="Helvetica,sans-Serif" font-size="10.00">Core/Include/Core/Window.h</text>
</a>
</g>
</g>
<!-- Node1&#45;&gt;Node35 -->
<g id="edge66_Node000001_Node000035" class="edge">
<title>Node1&#45;&gt;Node35</title>
<g id="a_edge66_Node000001_Node000035"><a xlink:title=" ">
<path fill="none" stroke="#63b8ff" d="M1331.37,-331.44C1446.56,-322.74 1648.01,-307.46 1820.66,-294 1853.2,-291.46 1889.13,-288.61 1919.99,-286.15"/>
<polygon fill="#63b8ff" stroke="#63b8ff" points="1330.88,-327.97 1321.18,-332.21 1331.41,-334.95 1330.88,-327.97"/>
</a>
</g>
</g>
<!-- Node3 -->
<g id="Node000003" class="node">
<title>Node3</title>
<g id="a_Node000003"><a xlink:href="TestHelpers_8h.html" target="_top" xlink:title=" ">
<polygon fill="white" stroke="#666666" points="663.16,-96 532.16,-96 532.16,-66 663.16,-66 663.16,-96"/>
<text text-anchor="start" x="540.16" y="-84" font-family="Helvetica,sans-Serif" font-size="10.00">App/Include/Application</text>
<text text-anchor="middle" x="597.66" y="-73" font-family="Helvetica,sans-Serif" font-size="10.00">/TestHelpers.h</text>
</a>
</g>
</g>
<!-- Node2&#45;&gt;Node3 -->
<g id="edge2_Node000002_Node000003" class="edge">
<title>Node2&#45;&gt;Node3</title>
<g id="a_edge2_Node000002_Node000003"><a xlink:title=" ">
<path fill="none" stroke="#63b8ff" d="M739.29,-128.72C708.2,-118.47 669.3,-105.63 640.13,-96.01"/>
<polygon fill="#63b8ff" stroke="#63b8ff" points="738.49,-132.15 749.09,-131.95 740.69,-125.5 738.49,-132.15"/>
</a>
</g>
</g>
<!-- Node5 -->
<g id="Node000005" class="node">
<title>Node5</title>
<g id="a_Node000005"><a xlink:href="MeshExporter__utest_8cpp.html" target="_top" xlink:title=" ">
<polygon fill="white" stroke="#666666" points="585.66,-30 421.66,-30 421.66,0 585.66,0 585.66,-30"/>
<text text-anchor="start" x="429.66" y="-18" font-family="Helvetica,sans-Serif" font-size="10.00">App/Test/Source/MeshExporter</text>
<text text-anchor="middle" x="503.66" y="-7" font-family="Helvetica,sans-Serif" font-size="10.00">_utest.cpp</text>
</a>
</g>
</g>
<!-- Node2&#45;&gt;Node5 -->
<g id="edge11_Node000002_Node000005" class="edge">
<title>Node2&#45;&gt;Node5</title>
<g id="a_edge11_Node000002_Node000005"><a xlink:title=" ">
<path fill="none" stroke="#63b8ff" d="M715.63,-136.16C641.08,-125.84 536.63,-109.29 522.66,-96 504.67,-78.88 502.36,-48.07 502.72,-30.09"/>
<polygon fill="#63b8ff" stroke="#63b8ff" points="715.55,-139.68 725.93,-137.58 716.5,-132.75 715.55,-139.68"/>
</a>
</g>
</g>
<!-- Node7 -->
<g id="Node000007" class="node">
<title>Node7</title>
<g id="a_Node000007"><a xlink:href="Mesh__utest_8cpp.html" target="_top" xlink:title=" ">
<polygon fill="white" stroke="#666666" points="1175.16,-30 1052.16,-30 1052.16,0 1175.16,0 1175.16,-30"/>
<text text-anchor="start" x="1060.16" y="-18" font-family="Helvetica,sans-Serif" font-size="10.00">App/Test/Source/Mesh</text>
<text text-anchor="middle" x="1113.66" y="-7" font-family="Helvetica,sans-Serif" font-size="10.00">_utest.cpp</text>
</a>
</g>
</g>
<!-- Node2&#45;&gt;Node7 -->
<g id="edge13_Node000002_Node000007" class="edge">
<title>Node2&#45;&gt;Node7</title>
<g id="a_edge13_Node000002_Node000007"><a xlink:title=" ">
<path fill="none" stroke="#63b8ff" d="M750.86,-127.35C721.83,-111.57 691.15,-88.08 710.66,-66 721.83,-53.35 941.8,-31.65 1051.93,-21.51"/>
<polygon fill="#63b8ff" stroke="#63b8ff" points="749.28,-130.47 759.76,-131.98 752.51,-124.26 749.28,-130.47"/>
</a>
</g>
</g>
<!-- Node9 -->
<g id="Node000009" class="node">
<title>Node9</title>
<g id="a_Node000009"><a xlink:href="Mesh_8cpp.html" target="_top" xlink:title=" ">
<polygon fill="white" stroke="#666666" points="1481.16,-90.5 1360.16,-90.5 1360.16,-71.5 1481.16,-71.5 1481.16,-90.5"/>
<text text-anchor="middle" x="1420.66" y="-78.5" font-family="Helvetica,sans-Serif" font-size="10.00">App/Source/Mesh.cpp</text>
</a>
</g>
</g>
<!-- Node2&#45;&gt;Node9 -->
<g id="edge8_Node000002_Node000009" class="edge">
<title>Node2&#45;&gt;Node9</title>
<g id="a_edge8_Node000002_Node000009"><a xlink:title=" ">
<path fill="none" stroke="#63b8ff" d="M867.32,-135.08C875.86,-133.97 884.44,-132.92 892.66,-132 1078.4,-111.16 1125.81,-115.91 1311.66,-96 1327.31,-94.32 1344.19,-92.27 1359.89,-90.26"/>
<polygon fill="#63b8ff" stroke="#63b8ff" points="866.79,-131.62 857.34,-136.39 867.71,-138.56 866.79,-131.62"/>
</a>
</g>
</g>
<!-- Node2&#45;&gt;Node10 -->
<g id="edge9_Node000002_Node000010" class="edge">
<title>Node2&#45;&gt;Node10</title>
<g id="a_edge9_Node000002_Node000010"><a xlink:title=" ">
<path fill="none" stroke="#63b8ff" d="M715.94,-136.82C701.26,-135.14 685.99,-133.46 671.66,-132 623.78,-127.13 323.91,-101.41 177.24,-88.87"/>
<polygon fill="#63b8ff" stroke="#63b8ff" points="715.66,-140.31 725.99,-137.99 716.46,-133.36 715.66,-140.31"/>
</a>
</g>
</g>
<!-- Node11 -->
<g id="Node000011" class="node">
<title>Node11</title>
<g id="a_Node000011"><a xlink:href="MeshLoader_8cpp.html" target="_top" xlink:title=" ">
<polygon fill="white" stroke="#666666" points="873.16,-90.5 720.16,-90.5 720.16,-71.5 873.16,-71.5 873.16,-90.5"/>
<text text-anchor="middle" x="796.66" y="-78.5" font-family="Helvetica,sans-Serif" font-size="10.00">App/Source/MeshLoader.cpp</text>
</a>
</g>
</g>
<!-- Node2&#45;&gt;Node11 -->
<g id="edge10_Node000002_Node000011" class="edge">
<title>Node2&#45;&gt;Node11</title>
<g id="a_edge10_Node000002_Node000011"><a xlink:title=" ">
<path fill="none" stroke="#63b8ff" d="M793.57,-121.6C794.41,-110.8 795.35,-98.78 795.97,-90.84"/>
<polygon fill="#63b8ff" stroke="#63b8ff" points="790.06,-121.55 792.77,-131.8 797.04,-122.1 790.06,-121.55"/>
</a>
</g>
</g>
<!-- Node12 -->
<g id="Node000012" class="node">
<title>Node12</title>
<g id="a_Node000012"><a xlink:href="MeshLoader__utest_8cpp.html" target="_top" xlink:title=" ">
<polygon fill="white" stroke="#666666" points="1047.66,-96 891.66,-96 891.66,-66 1047.66,-66 1047.66,-96"/>
<text text-anchor="start" x="899.66" y="-84" font-family="Helvetica,sans-Serif" font-size="10.00">App/Test/Source/MeshLoader</text>
<text text-anchor="middle" x="969.66" y="-73" font-family="Helvetica,sans-Serif" font-size="10.00">_utest.cpp</text>
</a>
</g>
</g>
<!-- Node2&#45;&gt;Node12 -->
<g id="edge12_Node000002_Node000012" class="edge">
<title>Node2&#45;&gt;Node12</title>
<g id="a_edge12_Node000002_Node000012"><a xlink:title=" ">
<path fill="none" stroke="#63b8ff" d="M840.45,-128.46C868.85,-118.25 904.16,-105.55 930.69,-96.01"/>
<polygon fill="#63b8ff" stroke="#63b8ff" points="838.95,-125.28 830.72,-131.95 841.32,-131.86 838.95,-125.28"/>
</a>
</g>
</g>
<!-- Node4 -->
<g id="Node000004" class="node">
<title>Node4</title>
<g id="a_Node000004"><a xlink:href="MeshCirculator__utest_8cpp.html" target="_top" xlink:title=" ">
<polygon fill="white" stroke="#666666" points="1623.66,-30 1453.66,-30 1453.66,0 1623.66,0 1623.66,-30"/>
<text text-anchor="start" x="1461.66" y="-18" font-family="Helvetica,sans-Serif" font-size="10.00">App/Test/Source/MeshCirculator</text>
<text text-anchor="middle" x="1538.66" y="-7" font-family="Helvetica,sans-Serif" font-size="10.00">_utest.cpp</text>
</a>
</g>
</g>
<!-- Node3&#45;&gt;Node4 -->
<g id="edge3_Node000003_Node000004" class="edge">
<title>Node3&#45;&gt;Node4</title>
<g id="a_edge3_Node000003_Node000004"><a xlink:title=" ">
<path fill="none" stroke="#63b8ff" d="M673.61,-69.93C685.98,-68.48 698.66,-67.1 710.66,-66 981.52,-41.07 1303.41,-25.71 1453.6,-19.37"/>
<polygon fill="#63b8ff" stroke="#63b8ff" points="672.82,-66.49 663.31,-71.16 673.66,-73.44 672.82,-66.49"/>
</a>
</g>
</g>
<!-- Node3&#45;&gt;Node5 -->
<g id="edge4_Node000003_Node000005" class="edge">
<title>Node3&#45;&gt;Node5</title>
<g id="a_edge4_Node000003_Node000005"><a xlink:title=" ">
<path fill="none" stroke="#63b8ff" d="M568.32,-60.03C554.1,-50.34 537.35,-38.94 524.46,-30.16"/>
<polygon fill="#63b8ff" stroke="#63b8ff" points="566.56,-63.06 576.8,-65.8 570.5,-57.28 566.56,-63.06"/>
</a>
</g>
</g>
<!-- Node6 -->
<g id="Node000006" class="node">
<title>Node6</title>
<g id="a_Node000006"><a xlink:href="MeshIntegrity__utest_8cpp.html" target="_top" xlink:title=" ">
<polygon fill="white" stroke="#666666" points="900.66,-30 736.66,-30 736.66,0 900.66,0 900.66,-30"/>
<text text-anchor="start" x="744.66" y="-18" font-family="Helvetica,sans-Serif" font-size="10.00">App/Test/Source/MeshIntegrity</text>
<text text-anchor="middle" x="818.66" y="-7" font-family="Helvetica,sans-Serif" font-size="10.00">_utest.cpp</text>
</a>
</g>
</g>
<!-- Node3&#45;&gt;Node6 -->
<g id="edge5_Node000003_Node000006" class="edge">
<title>Node3&#45;&gt;Node6</title>
<g id="a_edge5_Node000003_Node000006"><a xlink:title=" ">
<path fill="none" stroke="#63b8ff" d="M655.94,-63.12C691.58,-52.8 736.62,-39.76 770.27,-30.01"/>
<polygon fill="#63b8ff" stroke="#63b8ff" points="654.79,-59.81 646.16,-65.95 656.74,-66.54 654.79,-59.81"/>
</a>
</g>
</g>
<!-- Node3&#45;&gt;Node7 -->
<g id="edge6_Node000003_Node000007" class="edge">
<title>Node3&#45;&gt;Node7</title>
<g id="a_edge6_Node000003_Node000007"><a xlink:title=" ">
<path fill="none" stroke="#63b8ff" d="M673.74,-66.58C675.06,-66.38 676.36,-66.19 677.66,-66 810.75,-46.74 967.57,-30.27 1052.14,-21.9"/>
<polygon fill="#63b8ff" stroke="#63b8ff" points="672.88,-63.17 663.53,-68.15 673.95,-70.09 672.88,-63.17"/>
</a>
</g>
</g>
<!-- Node8 -->
<g id="Node000008" class="node">
<title>Node8</title>
<g id="a_Node000008"><a xlink:href="PrimitiveProxy__utest_8cpp.html" target="_top" xlink:title=" ">
<polygon fill="white" stroke="#666666" points="340.16,-30 199.16,-30 199.16,0 340.16,0 340.16,-30"/>
<text text-anchor="start" x="207.16" y="-18" font-family="Helvetica,sans-Serif" font-size="10.00">App/Test/Source/Primitive</text>
<text text-anchor="middle" x="269.66" y="-7" font-family="Helvetica,sans-Serif" font-size="10.00">Proxy_utest.cpp</text>
</a>
</g>
</g>
<!-- Node3&#45;&gt;Node8 -->
<g id="edge7_Node000003_Node000008" class="edge">
<title>Node3&#45;&gt;Node8</title>
<g id="a_edge7_Node000003_Node000008"><a xlink:title=" ">
<path fill="none" stroke="#63b8ff" d="M522.08,-65.25C467.32,-54.57 393.81,-40.22 340.24,-29.77"/>
<polygon fill="#63b8ff" stroke="#63b8ff" points="521.59,-68.72 532.07,-67.2 522.93,-61.85 521.59,-68.72"/>
</a>
</g>
</g>
<!-- Node13&#45;&gt;Node3 -->
<g id="edge37_Node000013_Node000003" class="edge">
<title>Node13&#45;&gt;Node3</title>
<g id="a_edge37_Node000013_Node000003"><a xlink:title=" ">
<path fill="none" stroke="#63b8ff" d="M1092.07,-207.99C982.08,-201.42 783.73,-186.57 716.66,-162 715.29,-161.5 652.09,-118.82 618.37,-96.01"/>
<polygon fill="#63b8ff" stroke="#63b8ff" points="1091.91,-211.49 1102.1,-208.58 1092.33,-204.5 1091.91,-211.49"/>
</a>
</g>
</g>
<!-- Node13&#45;&gt;Node4 -->
<g id="edge40_Node000013_Node000004" class="edge">
<title>Node13&#45;&gt;Node4</title>
<g id="a_edge40_Node000013_Node000004"><a xlink:title=" ">
<path fill="none" stroke="#63b8ff" d="M1243.64,-202.25C1256.01,-200.76 1268.68,-199.29 1280.66,-198 1454.16,-179.27 1508.15,-223 1671.66,-162 1718.81,-144.41 1740.68,-140.77 1763.66,-96 1793.81,-37.26 1699.38,-20.65 1623.7,-16.47"/>
<polygon fill="#63b8ff" stroke="#63b8ff" points="1242.85,-198.82 1233.35,-203.51 1243.7,-205.77 1242.85,-198.82"/>
</a>
</g>
</g>
<!-- Node13&#45;&gt;Node7 -->
<g id="edge41_Node000013_Node000007" class="edge">
<title>Node13&#45;&gt;Node7</title>
<g id="a_edge41_Node000013_Node000007"><a xlink:title=" ">
<path fill="none" stroke="#63b8ff" d="M1243.66,-202.44C1256.02,-200.93 1268.69,-199.4 1280.66,-198 1425.88,-181.01 1467.23,-202.71 1607.66,-162 1678.37,-141.5 1792.61,-120.08 1742.66,-66 1723.57,-45.33 1329.81,-25.63 1175.2,-18.66"/>
<polygon fill="#63b8ff" stroke="#63b8ff" points="1242.87,-199.01 1233.37,-203.71 1243.72,-205.96 1242.87,-199.01"/>
</a>
</g>
</g>
<!-- Node13&#45;&gt;Node9 -->
<g id="edge38_Node000013_Node000009" class="edge">
<title>Node13&#45;&gt;Node9</title>
<g id="a_edge38_Node000013_Node000009"><a xlink:title=" ">
<path fill="none" stroke="#63b8ff" d="M1243.44,-196.86C1298.36,-185.37 1364.82,-170.19 1375.66,-162 1400.32,-143.36 1413.45,-107.03 1418.36,-90.52"/>
<polygon fill="#63b8ff" stroke="#63b8ff" points="1242.41,-193.5 1233.33,-198.96 1243.84,-200.35 1242.41,-193.5"/>
</a>
</g>
</g>
<!-- Node13&#45;&gt;Node14 -->
<g id="edge15_Node000013_Node000014" class="edge">
<title>Node13&#45;&gt;Node14</title>
<g id="a_edge15_Node000013_Node000014"><a xlink:title=" ">
<path fill="none" stroke="#63b8ff" d="M1091.93,-206.71C971.36,-198.17 728.37,-180.41 522.66,-162 499.03,-159.89 473.16,-157.33 450.26,-154.98"/>
<polygon fill="#63b8ff" stroke="#63b8ff" points="1091.93,-210.22 1102.15,-207.44 1092.43,-203.24 1091.93,-210.22"/>
</a>
</g>
</g>
<!-- Node15 -->
<g id="Node000015" class="node">
<title>Node15</title>
<g id="a_Node000015"><a xlink:href="MeshIntegrity_8h.html" target="_top" xlink:title=" ">
<polygon fill="white" stroke="#666666" points="1182.16,-162 1051.16,-162 1051.16,-132 1182.16,-132 1182.16,-162"/>
<text text-anchor="start" x="1059.16" y="-150" font-family="Helvetica,sans-Serif" font-size="10.00">App/Include/Application</text>
<text text-anchor="middle" x="1116.66" y="-139" font-family="Helvetica,sans-Serif" font-size="10.00">/MeshIntegrity.h</text>
</a>
</g>
</g>
<!-- Node13&#45;&gt;Node15 -->
<g id="edge18_Node000013_Node000015" class="edge">
<title>Node13&#45;&gt;Node15</title>
<g id="a_edge18_Node000013_Node000015"><a xlink:title=" ">
<path fill="none" stroke="#63b8ff" d="M1149.97,-189.81C1142.67,-180.64 1134.41,-170.28 1127.95,-162.16"/>
<polygon fill="#63b8ff" stroke="#63b8ff" points="1147.37,-192.16 1156.34,-197.8 1152.85,-187.79 1147.37,-192.16"/>
</a>
</g>
</g>
<!-- Node17 -->
<g id="Node000017" class="node">
<title>Node17</title>
<g id="a_Node000017"><a xlink:href="MeshLoader_8h.html" target="_top" xlink:title=" ">
<polygon fill="white" stroke="#666666" points="1033.16,-162 902.16,-162 902.16,-132 1033.16,-132 1033.16,-162"/>
<text text-anchor="start" x="910.16" y="-150" font-family="Helvetica,sans-Serif" font-size="10.00">App/Include/Application</text>
<text text-anchor="middle" x="967.66" y="-139" font-family="Helvetica,sans-Serif" font-size="10.00">/MeshLoader.h</text>
</a>
</g>
</g>
<!-- Node13&#45;&gt;Node17 -->
<g id="edge23_Node000013_Node000017" class="edge">
<title>Node13&#45;&gt;Node17</title>
<g id="a_edge23_Node000013_Node000017"><a xlink:title=" ">
<path fill="none" stroke="#63b8ff" d="M1114.09,-194.86C1081.97,-184.58 1041.64,-171.68 1011.45,-162.01"/>
<polygon fill="#63b8ff" stroke="#63b8ff" points="1113.18,-198.24 1123.77,-197.95 1115.31,-191.57 1113.18,-198.24"/>
</a>
</g>
</g>
<!-- Node13&#45;&gt;Node18 -->
<g id="edge27_Node000013_Node000018" class="edge">
<title>Node13&#45;&gt;Node18</title>
<g id="a_edge27_Node000013_Node000018"><a xlink:title=" ">
<path fill="none" stroke="#63b8ff" d="M1091.93,-205.76C996.01,-197.5 825.71,-181.66 680.66,-162 675.01,-161.23 669.16,-160.38 663.29,-159.47"/>
<polygon fill="#63b8ff" stroke="#63b8ff" points="1091.86,-209.26 1102.12,-206.63 1092.45,-202.29 1091.86,-209.26"/>
</a>
</g>
</g>
<!-- Node20 -->
<g id="Node000020" class="node">
<title>Node20</title>
<g id="a_Node000020"><a xlink:href="MeshCirculator_8cpp.html" target="_top" xlink:title=" ">
<polygon fill="white" stroke="#666666" points="1367.16,-156.5 1200.16,-156.5 1200.16,-137.5 1367.16,-137.5 1367.16,-156.5"/>
<text text-anchor="middle" x="1283.66" y="-144.5" font-family="Helvetica,sans-Serif" font-size="10.00">App/Source/MeshCirculator.cpp</text>
</a>
</g>
</g>
<!-- Node13&#45;&gt;Node20 -->
<g id="edge39_Node000013_Node000020" class="edge">
<title>Node13&#45;&gt;Node20</title>
<g id="a_edge39_Node000013_Node000020"><a xlink:title=" ">
<path fill="none" stroke="#63b8ff" d="M1202.14,-192.97C1224.09,-180.87 1251.44,-165.78 1268.22,-156.52"/>
<polygon fill="#63b8ff" stroke="#63b8ff" points="1200.18,-190.06 1193.12,-197.95 1203.56,-196.19 1200.18,-190.06"/>
</a>
</g>
</g>
<!-- Node14&#45;&gt;Node5 -->
<g id="edge17_Node000014_Node000005" class="edge">
<title>Node14&#45;&gt;Node5</title>
<g id="a_edge17_Node000014_Node000005"><a xlink:title=" ">
<path fill="none" stroke="#63b8ff" d="M308.85,-141.26C204.25,-133.94 26.24,-118.34 6.66,-96 -2.13,-85.97 -2.28,-75.89 6.66,-66 10.11,-62.19 281.14,-36.59 421.45,-23.57"/>
<polygon fill="#63b8ff" stroke="#63b8ff" points="308.83,-144.77 319.05,-141.97 309.31,-137.78 308.83,-144.77"/>
</a>
</g>
</g>
<!-- Node14&#45;&gt;Node10 -->
<g id="edge16_Node000014_Node000010" class="edge">
<title>Node14&#45;&gt;Node10</title>
<g id="a_edge16_Node000014_Node000010"><a xlink:title=" ">
<path fill="none" stroke="#63b8ff" d="M311.55,-129.75C255.33,-117.26 179.9,-100.5 134.99,-90.52"/>
<polygon fill="#63b8ff" stroke="#63b8ff" points="310.94,-133.2 321.46,-131.95 312.45,-126.37 310.94,-133.2"/>
</a>
</g>
</g>
<!-- Node15&#45;&gt;Node6 -->
<g id="edge20_Node000015_Node000006" class="edge">
<title>Node15&#45;&gt;Node6</title>
<g id="a_edge20_Node000015_Node000006"><a xlink:title=" ">
<path fill="none" stroke="#63b8ff" d="M1105.42,-123.05C1095.23,-104.73 1078.48,-79.9 1056.66,-66 1010.19,-36.4 949.25,-23.98 900.67,-18.92"/>
<polygon fill="#63b8ff" stroke="#63b8ff" points="1102.36,-124.75 1110.14,-131.94 1108.54,-121.47 1102.36,-124.75"/>
</a>
</g>
</g>
<!-- Node15&#45;&gt;Node7 -->
<g id="edge22_Node000015_Node000007" class="edge">
<title>Node15&#45;&gt;Node7</title>
<g id="a_edge22_Node000015_Node000007"><a xlink:title=" ">
<path fill="none" stroke="#63b8ff" d="M1192.08,-131.26C1243.63,-120.42 1303.97,-105.91 1311.66,-96 1319.83,-85.47 1319.85,-76.52 1311.66,-66 1294.91,-44.5 1226.86,-30.79 1175.17,-23.27"/>
<polygon fill="#63b8ff" stroke="#63b8ff" points="1191.32,-127.84 1182.24,-133.31 1192.74,-134.7 1191.32,-127.84"/>
</a>
</g>
</g>
<!-- Node15&#45;&gt;Node12 -->
<g id="edge21_Node000015_Node000012" class="edge">
<title>Node15&#45;&gt;Node12</title>
<g id="a_edge21_Node000015_Node000012"><a xlink:title=" ">
<path fill="none" stroke="#63b8ff" d="M1075.13,-127.92C1051.9,-117.8 1023.37,-105.38 1001.84,-96.01"/>
<polygon fill="#63b8ff" stroke="#63b8ff" points="1073.83,-131.17 1084.4,-131.95 1076.63,-124.75 1073.83,-131.17"/>
</a>
</g>
</g>
<!-- Node16 -->
<g id="Node000016" class="node">
<title>Node16</title>
<g id="a_Node000016"><a xlink:href="MeshIntegrity_8cpp.html" target="_top" xlink:title=" ">
<polygon fill="white" stroke="#666666" points="1303.16,-90.5 1142.16,-90.5 1142.16,-71.5 1303.16,-71.5 1303.16,-90.5"/>
<text text-anchor="middle" x="1222.66" y="-78.5" font-family="Helvetica,sans-Serif" font-size="10.00">App/Source/MeshIntegrity.cpp</text>
</a>
</g>
</g>
<!-- Node15&#45;&gt;Node16 -->
<g id="edge19_Node000015_Node000016" class="edge">
<title>Node15&#45;&gt;Node16</title>
<g id="a_edge19_Node000015_Node000016"><a xlink:title=" ">
<path fill="none" stroke="#63b8ff" d="M1148.71,-126.65C1168.67,-114.6 1193.36,-99.69 1208.55,-90.52"/>
<polygon fill="#63b8ff" stroke="#63b8ff" points="1146.67,-123.79 1139.92,-131.95 1150.29,-129.78 1146.67,-123.79"/>
</a>
</g>
</g>
<!-- Node17&#45;&gt;Node7 -->
<g id="edge26_Node000017_Node000007" class="edge">
<title>Node17&#45;&gt;Node7</title>
<g id="a_edge26_Node000017_Node000007"><a xlink:title=" ">
<path fill="none" stroke="#63b8ff" d="M1009.43,-127.39C1025.25,-119.15 1042.77,-108.47 1056.66,-96 1078.35,-76.51 1096.5,-47.37 1106.16,-30.16"/>
<polygon fill="#63b8ff" stroke="#63b8ff" points="1007.71,-124.34 1000.35,-131.96 1010.86,-130.59 1007.71,-124.34"/>
</a>
</g>
</g>
<!-- Node17&#45;&gt;Node11 -->
<g id="edge24_Node000017_Node000011" class="edge">
<title>Node17&#45;&gt;Node11</title>
<g id="a_edge24_Node000017_Node000011"><a xlink:title=" ">
<path fill="none" stroke="#63b8ff" d="M920.68,-128.42C887.74,-116.09 845.15,-100.15 819.42,-90.52"/>
<polygon fill="#63b8ff" stroke="#63b8ff" points="919.54,-131.73 930.13,-131.95 921.99,-125.17 919.54,-131.73"/>
</a>
</g>
</g>
<!-- Node17&#45;&gt;Node12 -->
<g id="edge25_Node000017_Node000012" class="edge">
<title>Node17&#45;&gt;Node12</title>
<g id="a_edge25_Node000017_Node000012"><a xlink:title=" ">
<path fill="none" stroke="#63b8ff" d="M968.42,-121.54C968.69,-112.96 968.98,-103.61 969.22,-96.16"/>
<polygon fill="#63b8ff" stroke="#63b8ff" points="964.92,-121.69 968.1,-131.8 971.91,-121.91 964.92,-121.69"/>
</a>
</g>
</g>
<!-- Node18&#45;&gt;Node3 -->
<g id="edge28_Node000018_Node000003" class="edge">
<title>Node18&#45;&gt;Node3</title>
<g id="a_edge28_Node000018_Node000003"><a xlink:title=" ">
<path fill="none" stroke="#63b8ff" d="M597.66,-121.54C597.66,-112.96 597.66,-103.61 597.66,-96.16"/>
<polygon fill="#63b8ff" stroke="#63b8ff" points="594.16,-121.8 597.66,-131.8 601.16,-121.8 594.16,-121.8"/>
</a>
</g>
</g>
<!-- Node18&#45;&gt;Node5 -->
<g id="edge33_Node000018_Node000005" class="edge">
<title>Node18&#45;&gt;Node5</title>
<g id="a_edge33_Node000018_Node000005"><a xlink:title=" ">
<path fill="none" stroke="#63b8ff" d="M522.07,-137.23C425.89,-125.71 271.09,-105.79 262.66,-96 253.95,-85.9 254.24,-76.34 262.66,-66 282.59,-41.52 359.79,-28.64 421.52,-22.13"/>
<polygon fill="#63b8ff" stroke="#63b8ff" points="521.71,-140.71 532.06,-138.42 522.54,-133.76 521.71,-140.71"/>
</a>
</g>
</g>
<!-- Node18&#45;&gt;Node7 -->
<g id="edge35_Node000018_Node000007" class="edge">
<title>Node18&#45;&gt;Node7</title>
<g id="a_edge35_Node000018_Node000007"><a xlink:title=" ">
<path fill="none" stroke="#63b8ff" d="M559.68,-126.96C532.32,-110.81 503.36,-87 522.66,-66 531.55,-56.32 902.47,-30.26 1052.06,-20.12"/>
<polygon fill="#63b8ff" stroke="#63b8ff" points="558.01,-130.04 568.44,-131.92 561.46,-123.95 558.01,-130.04"/>
</a>
</g>
</g>
<!-- Node18&#45;&gt;Node8 -->
<g id="edge36_Node000018_Node000008" class="edge">
<title>Node18&#45;&gt;Node8</title>
<g id="a_edge36_Node000018_Node000008"><a xlink:title=" ">
<path fill="none" stroke="#63b8ff" d="M522.15,-137.58C423.29,-126.19 261.43,-106.13 252.66,-96 236.68,-77.53 249.84,-47.77 260.21,-30.22"/>
<polygon fill="#63b8ff" stroke="#63b8ff" points="521.77,-141.06 532.11,-138.72 522.57,-134.1 521.77,-141.06"/>
</a>
</g>
</g>
<!-- Node18&#45;&gt;Node9 -->
<g id="edge29_Node000018_Node000009" class="edge">
<title>Node18&#45;&gt;Node9</title>
<g id="a_edge29_Node000018_Node000009"><a xlink:title=" ">
<path fill="none" stroke="#63b8ff" d="M673.65,-136.41C687.93,-134.79 702.74,-133.24 716.66,-132 980.54,-108.51 1047.9,-120.89 1311.66,-96 1327.42,-94.51 1344.43,-92.52 1360.2,-90.5"/>
<polygon fill="#63b8ff" stroke="#63b8ff" points="672.9,-132.97 663.37,-137.59 673.71,-139.93 672.9,-132.97"/>
</a>
</g>
</g>
<!-- Node18&#45;&gt;Node10 -->
<g id="edge30_Node000018_Node000010" class="edge">
<title>Node18&#45;&gt;Node10</title>
<g id="a_edge30_Node000018_Node000010"><a xlink:title=" ">
<path fill="none" stroke="#63b8ff" d="M521.67,-137.19C440.04,-127.6 306.56,-111.54 191.66,-96 179.1,-94.3 165.63,-92.38 152.89,-90.51"/>
<polygon fill="#63b8ff" stroke="#63b8ff" points="521.51,-140.69 531.85,-138.38 522.32,-133.74 521.51,-140.69"/>
</a>
</g>
</g>
<!-- Node18&#45;&gt;Node11 -->
<g id="edge31_Node000018_Node000011" class="edge">
<title>Node18&#45;&gt;Node11</title>
<g id="a_edge31_Node000018_Node000011"><a xlink:title=" ">
<path fill="none" stroke="#63b8ff" d="M650.85,-128.89C689.39,-116.5 739.85,-100.27 770.18,-90.52"/>
<polygon fill="#63b8ff" stroke="#63b8ff" points="649.78,-125.56 641.33,-131.95 651.92,-132.23 649.78,-125.56"/>
</a>
</g>
</g>
<!-- Node18&#45;&gt;Node12 -->
<g id="edge34_Node000018_Node000012" class="edge">
<title>Node18&#45;&gt;Node12</title>
<g id="a_edge34_Node000018_Node000012"><a xlink:title=" ">
<path fill="none" stroke="#63b8ff" d="M673.26,-132.99C736.78,-122.06 827.22,-106.51 891.45,-95.45"/>
<polygon fill="#63b8ff" stroke="#63b8ff" points="672.57,-129.56 663.31,-134.71 673.76,-136.46 672.57,-129.56"/>
</a>
</g>
</g>
<!-- Node19 -->
<g id="Node000019" class="node">
<title>Node19</title>
<g id="a_Node000019"><a xlink:href="PrimitiveProxy_8cpp.html" target="_top" xlink:title=" ">
<polygon fill="white" stroke="#666666" points="437.16,-90.5 272.16,-90.5 272.16,-71.5 437.16,-71.5 437.16,-90.5"/>
<text text-anchor="middle" x="354.66" y="-78.5" font-family="Helvetica,sans-Serif" font-size="10.00">App/Source/PrimitiveProxy.cpp</text>
</a>
</g>
</g>
<!-- Node18&#45;&gt;Node19 -->
<g id="edge32_Node000018_Node000019" class="edge">
<title>Node18&#45;&gt;Node19</title>
<g id="a_edge32_Node000018_Node000019"><a xlink:title=" ">
<path fill="none" stroke="#63b8ff" d="M534.49,-129.36C487.22,-116.91 424.5,-100.4 387,-90.52"/>
<polygon fill="#63b8ff" stroke="#63b8ff" points="533.77,-132.79 544.33,-131.95 535.55,-126.02 533.77,-132.79"/>
</a>
</g>
</g>
<!-- Node21&#45;&gt;Node13 -->
<g id="edge44_Node000021_Node000013" class="edge">
<title>Node21&#45;&gt;Node13</title>
<g id="a_edge44_Node000021_Node000013"><a xlink:title=" ">
<path fill="none" stroke="#63b8ff" d="M1308.56,-260.72C1277.63,-250.47 1238.93,-237.63 1209.92,-228.01"/>
<polygon fill="#63b8ff" stroke="#63b8ff" points="1307.71,-264.13 1318.3,-263.95 1309.91,-257.49 1307.71,-264.13"/>
</a>
</g>
</g>
<!-- Node22 -->
<g id="Node000022" class="node">
<title>Node22</title>
<g id="a_Node000022"><a xlink:href="VertexPair_8h.html" target="_top" xlink:title=" ">
<polygon fill="white" stroke="#666666" points="1959.16,-162 1828.16,-162 1828.16,-132 1959.16,-132 1959.16,-162"/>
<text text-anchor="start" x="1836.16" y="-150" font-family="Helvetica,sans-Serif" font-size="10.00">App/Include/Application</text>
<text text-anchor="middle" x="1893.66" y="-139" font-family="Helvetica,sans-Serif" font-size="10.00">/VertexPair.h</text>
</a>
</g>
</g>
<!-- Node21&#45;&gt;Node22 -->
<g id="edge45_Node000021_Node000022" class="edge">
<title>Node21&#45;&gt;Node22</title>
<g id="a_edge45_Node000021_Node000022"><a xlink:title=" ">
<path fill="none" stroke="#63b8ff" d="M1436.22,-263.08C1482.65,-253.64 1543.26,-240.84 1596.66,-228 1684.54,-206.87 1786.03,-178.71 1844.73,-162.06"/>
<polygon fill="#63b8ff" stroke="#63b8ff" points="1435.34,-259.69 1426.24,-265.1 1436.73,-266.55 1435.34,-259.69"/>
</a>
</g>
</g>
<!-- Node25 -->
<g id="Node000025" class="node">
<title>Node25</title>
<g id="a_Node000025"><a xlink:href="Primitive_8cpp.html" target="_top" xlink:title=" ">
<polygon fill="white" stroke="#666666" points="1588.16,-222.5 1449.16,-222.5 1449.16,-203.5 1588.16,-203.5 1588.16,-222.5"/>
<text text-anchor="middle" x="1518.66" y="-210.5" font-family="Helvetica,sans-Serif" font-size="10.00">App/Source/Primitive.cpp</text>
</a>
</g>
</g>
<!-- Node21&#45;&gt;Node25 -->
<g id="edge50_Node000021_Node000025" class="edge">
<title>Node21&#45;&gt;Node25</title>
<g id="a_edge50_Node000021_Node000025"><a xlink:title=" ">
<path fill="none" stroke="#63b8ff" d="M1404.85,-260.1C1435.18,-247.82 1474.06,-232.06 1497.63,-222.52"/>
<polygon fill="#63b8ff" stroke="#63b8ff" points="1403.29,-256.96 1395.33,-263.95 1405.92,-263.44 1403.29,-256.96"/>
</a>
</g>
</g>
<!-- Node26 -->
<g id="Node000026" class="node">
<title>Node26</title>
<g id="a_Node000026"><a xlink:href="Primitive__utest_8cpp.html" target="_top" xlink:title=" ">
<polygon fill="white" stroke="#666666" points="1431.16,-228 1290.16,-228 1290.16,-198 1431.16,-198 1431.16,-228"/>
<text text-anchor="start" x="1298.16" y="-216" font-family="Helvetica,sans-Serif" font-size="10.00">App/Test/Source/Primitive</text>
<text text-anchor="middle" x="1360.66" y="-205" font-family="Helvetica,sans-Serif" font-size="10.00">_utest.cpp</text>
</a>
</g>
</g>
<!-- Node21&#45;&gt;Node26 -->
<g id="edge51_Node000021_Node000026" class="edge">
<title>Node21&#45;&gt;Node26</title>
<g id="a_edge51_Node000021_Node000026"><a xlink:title=" ">
<path fill="none" stroke="#63b8ff" d="M1360.66,-253.54C1360.66,-244.96 1360.66,-235.61 1360.66,-228.16"/>
<polygon fill="#63b8ff" stroke="#63b8ff" points="1357.16,-253.8 1360.66,-263.8 1364.16,-253.8 1357.16,-253.8"/>
</a>
</g>
</g>
<!-- Node22&#45;&gt;Node9 -->
<g id="edge46_Node000022_Node000009" class="edge">
<title>Node22&#45;&gt;Node9</title>
<g id="a_edge46_Node000022_Node000009"><a xlink:title=" ">
<path fill="none" stroke="#63b8ff" d="M1817.93,-135.75C1724.46,-123.11 1567.34,-101.85 1481.38,-90.22"/>
<polygon fill="#63b8ff" stroke="#63b8ff" points="1817.51,-139.23 1827.89,-137.1 1818.45,-132.29 1817.51,-139.23"/>
</a>
</g>
</g>
<!-- Node22&#45;&gt;Node11 -->
<g id="edge47_Node000022_Node000011" class="edge">
<title>Node22&#45;&gt;Node11</title>
<g id="a_edge47_Node000022_Node000011"><a xlink:title=" ">
<path fill="none" stroke="#63b8ff" d="M1818.03,-142.29C1584.24,-130.81 888.47,-96.62 882.66,-96 869.72,-94.63 855.77,-92.6 842.95,-90.51"/>
<polygon fill="#63b8ff" stroke="#63b8ff" points="1817.98,-145.79 1828.14,-142.78 1818.33,-138.8 1817.98,-145.79"/>
</a>
</g>
</g>
<!-- Node23 -->
<g id="Node000023" class="node">
<title>Node23</title>
<g id="a_Node000023"><a xlink:href="VertexPair_8cpp.html" target="_top" xlink:title=" ">
<polygon fill="white" stroke="#666666" points="2135.16,-90.5 1992.16,-90.5 1992.16,-71.5 2135.16,-71.5 2135.16,-90.5"/>
<text text-anchor="middle" x="2063.66" y="-78.5" font-family="Helvetica,sans-Serif" font-size="10.00">App/Source/VertexPair.cpp</text>
</a>
</g>
</g>
<!-- Node22&#45;&gt;Node23 -->
<g id="edge48_Node000022_Node000023" class="edge">
<title>Node22&#45;&gt;Node23</title>
<g id="a_edge48_Node000022_Node000023"><a xlink:title=" ">
<path fill="none" stroke="#63b8ff" d="M1940.36,-128.42C1973.11,-116.09 2015.46,-100.15 2041.04,-90.52"/>
<polygon fill="#63b8ff" stroke="#63b8ff" points="1939.09,-125.16 1930.97,-131.95 1941.56,-131.71 1939.09,-125.16"/>
</a>
</g>
</g>
<!-- Node24 -->
<g id="Node000024" class="node">
<title>Node24</title>
<g id="a_Node000024"><a xlink:href="VertexPair__utest_8cpp.html" target="_top" xlink:title=" ">
<polygon fill="white" stroke="#666666" points="1973.66,-96 1827.66,-96 1827.66,-66 1973.66,-66 1973.66,-96"/>
<text text-anchor="start" x="1835.66" y="-84" font-family="Helvetica,sans-Serif" font-size="10.00">App/Test/Source/VertexPair</text>
<text text-anchor="middle" x="1900.66" y="-73" font-family="Helvetica,sans-Serif" font-size="10.00">_utest.cpp</text>
</a>
</g>
</g>
<!-- Node22&#45;&gt;Node24 -->
<g id="edge49_Node000022_Node000024" class="edge">
<title>Node22&#45;&gt;Node24</title>
<g id="a_edge49_Node000022_Node000024"><a xlink:title=" ">
<path fill="none" stroke="#63b8ff" d="M1896.3,-121.83C1897.25,-113.17 1898.29,-103.7 1899.11,-96.16"/>
<polygon fill="#63b8ff" stroke="#63b8ff" points="1892.82,-121.48 1895.21,-131.8 1899.78,-122.24 1892.82,-121.48"/>
</a>
</g>
</g>
<!-- Node28 -->
<g id="Node000028" class="node">
<title>Node28</title>
<g id="a_Node000028"><a xlink:href="AppLayer_8cpp.html" target="_top" xlink:title=" ">
<polygon fill="white" stroke="#666666" points="2117.66,-156.5 1977.66,-156.5 1977.66,-137.5 2117.66,-137.5 2117.66,-156.5"/>
<text text-anchor="middle" x="2047.66" y="-144.5" font-family="Helvetica,sans-Serif" font-size="10.00">App/Source/AppLayer.cpp</text>
</a>
</g>
</g>
<!-- Node27&#45;&gt;Node28 -->
<g id="edge55_Node000027_Node000028" class="edge">
<title>Node27&#45;&gt;Node28</title>
<g id="a_edge55_Node000027_Node000028"><a xlink:title=" ">
<path fill="none" stroke="#63b8ff" d="M2009.99,-195.27C2019.78,-182.99 2032.68,-166.8 2040.56,-156.91"/>
<polygon fill="#63b8ff" stroke="#63b8ff" points="2007.03,-193.37 2003.54,-203.37 2012.51,-197.73 2007.03,-193.37"/>
</a>
</g>
</g>
<!-- Node29 -->
<g id="Node000029" class="node">
<title>Node29</title>
<g id="a_Node000029"><a xlink:href="RunApp_8cpp.html" target="_top" xlink:title=" ">
<polygon fill="white" stroke="#666666" points="2267.66,-156.5 2135.66,-156.5 2135.66,-137.5 2267.66,-137.5 2267.66,-156.5"/>
<text text-anchor="middle" x="2201.66" y="-144.5" font-family="Helvetica,sans-Serif" font-size="10.00">App/Source/RunApp.cpp</text>
</a>
</g>
</g>
<!-- Node27&#45;&gt;Node29 -->
<g id="edge56_Node000027_Node000029" class="edge">
<title>Node27&#45;&gt;Node29</title>
<g id="a_edge56_Node000027_Node000029"><a xlink:title=" ">
<path fill="none" stroke="#63b8ff" d="M2034.06,-200.32C2074.5,-187.7 2138.01,-167.87 2174.12,-156.6"/>
<polygon fill="#63b8ff" stroke="#63b8ff" points="2032.81,-197.05 2024.31,-203.37 2034.9,-203.73 2032.81,-197.05"/>
</a>
</g>
</g>
<!-- Node30 -->
<g id="Node000030" class="node">
<title>Node30</title>
<g id="a_Node000030"><a xlink:href="Application_8cpp.html" target="_top" xlink:title=" ">
<polygon fill="white" stroke="#666666" points="2439.16,-156.5 2286.16,-156.5 2286.16,-137.5 2439.16,-137.5 2439.16,-156.5"/>
<text text-anchor="middle" x="2362.66" y="-144.5" font-family="Helvetica,sans-Serif" font-size="10.00">Core/Source/Application.cpp</text>
</a>
</g>
</g>
<!-- Node27&#45;&gt;Node30 -->
<g id="edge57_Node000027_Node000030" class="edge">
<title>Node27&#45;&gt;Node30</title>
<g id="a_edge57_Node000027_Node000030"><a xlink:title=" ">
<path fill="none" stroke="#63b8ff" d="M2055.87,-201.65C2127.66,-189.09 2247.28,-168.17 2313.97,-156.51"/>
<polygon fill="#63b8ff" stroke="#63b8ff" points="2054.89,-198.26 2045.64,-203.44 2056.09,-205.16 2054.89,-198.26"/>
</a>
</g>
</g>
<!-- Node32 -->
<g id="Node000032" class="node">
<title>Node32</title>
<g id="a_Node000032"><a xlink:href="Input_8cpp.html" target="_top" xlink:title=" ">
<polygon fill="white" stroke="#666666" points="2378.16,-222.5 2255.16,-222.5 2255.16,-203.5 2378.16,-203.5 2378.16,-222.5"/>
<text text-anchor="middle" x="2316.66" y="-210.5" font-family="Helvetica,sans-Serif" font-size="10.00">Core/Source/Input.cpp</text>
</a>
</g>
</g>
<!-- Node31&#45;&gt;Node32 -->
<g id="edge59_Node000031_Node000032" class="edge">
<title>Node31&#45;&gt;Node32</title>
<g id="a_edge59_Node000031_Node000032"><a xlink:title=" ">
<path fill="none" stroke="#63b8ff" d="M2263.26,-257.26C2277.64,-245.61 2294.82,-231.69 2305.74,-222.84"/>
<polygon fill="#63b8ff" stroke="#63b8ff" points="2260.76,-254.78 2255.19,-263.8 2265.17,-260.22 2260.76,-254.78"/>
</a>
</g>
</g>
<!-- Node33&#45;&gt;Node5 -->
<g id="edge63_Node000033_Node000005" class="edge">
<title>Node33&#45;&gt;Node5</title>
<g id="a_edge63_Node000033_Node000005"><a xlink:title=" ">
<path fill="none" stroke="#63b8ff" d="M1511.55,-127.28C1511.32,-108.58 1507.67,-80.59 1489.66,-66 1456.72,-39.33 769.98,-32.32 727.66,-30 680.68,-27.42 628.18,-24.16 585.83,-21.44"/>
<polygon fill="#63b8ff" stroke="#63b8ff" points="1508.06,-127.22 1511.37,-137.28 1515.05,-127.35 1508.06,-127.22"/>
</a>
</g>
</g>
<!-- Node33&#45;&gt;Node7 -->
<g id="edge65_Node000033_Node000007" class="edge">
<title>Node33&#45;&gt;Node7</title>
<g id="a_edge65_Node000033_Node000007"><a xlink:title=" ">
<path fill="none" stroke="#63b8ff" d="M1520.86,-128.22C1529.64,-110.31 1538.7,-82.99 1523.66,-66 1500.99,-40.4 1284.47,-25.19 1175.57,-19.1"/>
<polygon fill="#63b8ff" stroke="#63b8ff" points="1517.64,-126.82 1516.05,-137.29 1523.83,-130.1 1517.64,-126.82"/>
</a>
</g>
</g>
<!-- Node33&#45;&gt;Node9 -->
<g id="edge61_Node000033_Node000009" class="edge">
<title>Node33&#45;&gt;Node9</title>
<g id="a_edge61_Node000033_Node000009"><a xlink:title=" ">
<path fill="none" stroke="#63b8ff" d="M1490.04,-131.33C1472.38,-118.78 1447.56,-101.13 1432.89,-90.7"/>
<polygon fill="#63b8ff" stroke="#63b8ff" points="1488.34,-134.43 1498.52,-137.37 1492.4,-128.72 1488.34,-134.43"/>
</a>
</g>
</g>
<!-- Node33&#45;&gt;Node12 -->
<g id="edge64_Node000033_Node000012" class="edge">
<title>Node33&#45;&gt;Node12</title>
<g id="a_edge64_Node000033_Node000012"><a xlink:title=" ">
<path fill="none" stroke="#63b8ff" d="M1428.47,-136.28C1325.19,-124.06 1149.21,-103.24 1047.85,-91.25"/>
<polygon fill="#63b8ff" stroke="#63b8ff" points="1428.2,-139.77 1438.54,-137.47 1429.02,-132.82 1428.2,-139.77"/>
</a>
</g>
</g>
<!-- Node34 -->
<g id="Node000034" class="node">
<title>Node34</title>
<g id="a_Node000034"><a xlink:href="MathHelpers__utest_8cpp.html" target="_top" xlink:title=" ">
<polygon fill="white" stroke="#666666" points="1734.16,-96 1575.16,-96 1575.16,-66 1734.16,-66 1734.16,-96"/>
<text text-anchor="start" x="1583.16" y="-84" font-family="Helvetica,sans-Serif" font-size="10.00">App/Test/Source/MathHelpers</text>
<text text-anchor="middle" x="1654.66" y="-73" font-family="Helvetica,sans-Serif" font-size="10.00">_utest.cpp</text>
</a>
</g>
</g>
<!-- Node33&#45;&gt;Node34 -->
<g id="edge62_Node000033_Node000034" class="edge">
<title>Node33&#45;&gt;Node34</title>
<g id="a_edge62_Node000033_Node000034"><a xlink:title=" ">
<path fill="none" stroke="#63b8ff" d="M1539.41,-133.22C1563.54,-122.5 1597.96,-107.2 1622.9,-96.12"/>
<polygon fill="#63b8ff" stroke="#63b8ff" points="1537.8,-130.11 1530.08,-137.37 1540.64,-136.51 1537.8,-130.11"/>
</a>
</g>
</g>
<!-- Node35&#45;&gt;Node27 -->
<g id="edge67_Node000035_Node000027" class="edge">
<title>Node35&#45;&gt;Node27</title>
<g id="a_edge67_Node000035_Node000027"><a xlink:title=" ">
<path fill="none" stroke="#63b8ff" d="M1996.66,-259.08C1996.66,-247.13 1996.66,-232.22 1996.66,-222.91"/>
<polygon fill="#63b8ff" stroke="#63b8ff" points="1993.16,-259.37 1996.66,-269.37 2000.16,-259.37 1993.16,-259.37"/>
</a>
</g>
</g>
<!-- Node36 -->
<g id="Node000036" class="node">
<title>Node36</title>
<g id="a_Node000036"><a xlink:href="Window_8cpp.html" target="_top" xlink:title=" ">
<polygon fill="white" stroke="#666666" points="2237.16,-222.5 2100.16,-222.5 2100.16,-203.5 2237.16,-203.5 2237.16,-222.5"/>
<text text-anchor="middle" x="2168.66" y="-210.5" font-family="Helvetica,sans-Serif" font-size="10.00">Core/Source/Window.cpp</text>
</a>
</g>
</g>
<!-- Node35&#45;&gt;Node36 -->
<g id="edge68_Node000035_Node000036" class="edge">
<title>Node35&#45;&gt;Node36</title>
<g id="a_edge68_Node000035_Node000036"><a xlink:title=" ">
<path fill="none" stroke="#63b8ff" d="M2029.34,-265.84C2063.32,-253.2 2115.64,-233.73 2145.56,-222.6"/>
<polygon fill="#63b8ff" stroke="#63b8ff" points="2028.01,-262.6 2019.86,-269.37 2030.45,-269.16 2028.01,-262.6"/>
</a>
</g>
</g>
</g>
</svg>
