<?xml version="1.0" encoding="UTF-8" standalone="no"?>
<!DOCTYPE svg PUBLIC "-//W3C//DTD SVG 1.1//EN"
 "http://www.w3.org/Graphics/SVG/1.1/DTD/svg11.dtd">
<!-- Generated by graphviz version 2.43.0 (0)
 -->
<!-- Title: Core/Source/Renderer/Buffer.cpp Pages: 1 -->
<svg width="182pt" height="148pt"
 viewBox="0.00 0.00 182.00 148.00" xmlns="http://www.w3.org/2000/svg" xmlns:xlink="http://www.w3.org/1999/xlink">
<g id="graph0" class="graph" transform="scale(1 1) rotate(0) translate(4 144)">
<title>Core/Source/Renderer/Buffer.cpp</title>
<!-- Node1 -->
<g id="Node000001" class="node">
<title>Node1</title>
<g id="a_Node000001"><a xlink:title=" ">
<polygon fill="#999999" stroke="#666666" points="125.5,-140 3.5,-140 3.5,-110 125.5,-110 125.5,-140"/>
<text text-anchor="start" x="11.5" y="-128" font-family="Helvetica,sans-Serif" font-size="10.00">Core/Source/Renderer</text>
<text text-anchor="middle" x="64.5" y="-117" font-family="Helvetica,sans-Serif" font-size="10.00">/Buffer.cpp</text>
</a>
</g>
</g>
<!-- Node2 -->
<g id="Node000002" class="node">
<title>Node2</title>
<g id="a_Node000002"><a xlink:href="Buffer_8h.html" target="_top" xlink:title=" ">
<polygon fill="white" stroke="#666666" points="174,-74 47,-74 47,-55 174,-55 174,-74"/>
<text text-anchor="middle" x="110.5" y="-62" font-family="Helvetica,sans-Serif" font-size="10.00">Core/Renderer/Buffer.h</text>
</a>
</g>
</g>
<!-- Node1&#45;&gt;Node2 -->
<g id="edge1_Node000001_Node000002" class="edge">
<title>Node1&#45;&gt;Node2</title>
<g id="a_edge1_Node000001_Node000002"><a xlink:title=" ">
<path fill="none" stroke="#63b8ff" d="M75.64,-109.84C82.18,-101.52 90.48,-90.96 97.34,-82.23"/>
<polygon fill="#63b8ff" stroke="#63b8ff" points="100.18,-84.29 103.61,-74.27 94.67,-79.96 100.18,-84.29"/>
</a>
</g>
</g>
<!-- Node3 -->
<g id="Node000003" class="node">
<title>Node3</title>
<g id="a_Node000003"><a xlink:title=" ">
<polygon fill="#e0e0e0" stroke="#999999" points="59,-19 0,-19 0,0 59,0 59,-19"/>
<text text-anchor="middle" x="29.5" y="-7" font-family="Helvetica,sans-Serif" font-size="10.00">glad/gl.h</text>
</a>
</g>
</g>
<!-- Node1&#45;&gt;Node3 -->
<g id="edge4_Node000001_Node000003" class="edge">
<title>Node1&#45;&gt;Node3</title>
<g id="a_edge4_Node000001_Node000003"><a xlink:title=" ">
<path fill="none" stroke="#63b8ff" d="M54.96,-109.76C48.96,-100.09 41.6,-86.78 37.5,-74 32.88,-59.58 30.91,-42.52 30.08,-29.71"/>
<polygon fill="#63b8ff" stroke="#63b8ff" points="33.56,-29.17 29.59,-19.35 26.57,-29.5 33.56,-29.17"/>
</a>
</g>
</g>
<!-- Node2&#45;&gt;Node3 -->
<g id="edge2_Node000002_Node000003" class="edge">
<title>Node2&#45;&gt;Node3</title>
<g id="a_edge2_Node000002_Node000003"><a xlink:title=" ">
<path fill="none" stroke="#63b8ff" d="M97.49,-54.98C85.04,-46.84 66.04,-34.41 51.29,-24.76"/>
<polygon fill="#63b8ff" stroke="#63b8ff" points="53.04,-21.72 42.75,-19.17 49.2,-27.57 53.04,-21.72"/>
</a>
</g>
</g>
<!-- Node4 -->
<g id="Node000004" class="node">
<title>Node4</title>
<g id="a_Node000004"><a xlink:title=" ">
<polygon fill="#e0e0e0" stroke="#999999" points="134,-19 87,-19 87,0 134,0 134,-19"/>
<text text-anchor="middle" x="110.5" y="-7" font-family="Helvetica,sans-Serif" font-size="10.00">vector</text>
</a>
</g>
</g>
<!-- Node2&#45;&gt;Node4 -->
<g id="edge3_Node000002_Node000004" class="edge">
<title>Node2&#45;&gt;Node4</title>
<g id="a_edge3_Node000002_Node000004"><a xlink:title=" ">
<path fill="none" stroke="#63b8ff" d="M110.5,-54.75C110.5,-47.8 110.5,-37.85 110.5,-29.13"/>
<polygon fill="#63b8ff" stroke="#63b8ff" points="114,-29.09 110.5,-19.09 107,-29.09 114,-29.09"/>
</a>
</g>
</g>
</g>
</svg>
