<?xml version="1.0" encoding="UTF-8" standalone="no"?>
<!DOCTYPE svg PUBLIC "-//W3C//DTD SVG 1.1//EN"
 "http://www.w3.org/Graphics/SVG/1.1/DTD/svg11.dtd">
<!-- Generated by graphviz version 2.43.0 (0)
 -->
<!-- Title: Core::KeyEvent Pages: 1 -->
<svg width="429pt" height="137pt"
 viewBox="0.00 0.00 429.00 137.00" xmlns="http://www.w3.org/2000/svg" xmlns:xlink="http://www.w3.org/1999/xlink">
<g id="graph0" class="graph" transform="scale(1 1) rotate(0) translate(4 133)">
<title>Core::KeyEvent</title>
<!-- Node1 -->
<g id="Node000001" class="node">
<title>Node1</title>
<g id="a_Node000001"><a xlink:title="Base class for keyboard events.">
<polygon fill="#999999" stroke="#666666" points="261,-74 170,-74 170,-55 261,-55 261,-74"/>
<text text-anchor="middle" x="215.5" y="-62" font-family="Helvetica,sans-Serif" font-size="10.00">Core::KeyEvent</text>
</a>
</g>
</g>
<!-- Node3 -->
<g id="Node000003" class="node">
<title>Node3</title>
<g id="a_Node000003"><a xlink:href="classCore_1_1KeyPressedEvent.html" target="_top" xlink:title="Event class for key press events.">
<polygon fill="white" stroke="#666666" points="129,-19 0,-19 0,0 129,0 129,-19"/>
<text text-anchor="middle" x="64.5" y="-7" font-family="Helvetica,sans-Serif" font-size="10.00">Core::KeyPressedEvent</text>
</a>
</g>
</g>
<!-- Node1&#45;&gt;Node3 -->
<g id="edge2_Node000001_Node000003" class="edge">
<title>Node1&#45;&gt;Node3</title>
<g id="a_edge2_Node000001_Node000003"><a xlink:title=" ">
<path fill="none" stroke="#63b8ff" d="M181.45,-51.55C153.41,-41.71 114.32,-27.98 89.2,-19.17"/>
<polygon fill="#63b8ff" stroke="#63b8ff" points="180.64,-54.98 191.24,-54.98 182.96,-48.37 180.64,-54.98"/>
</a>
</g>
</g>
<!-- Node4 -->
<g id="Node000004" class="node">
<title>Node4</title>
<g id="a_Node000004"><a xlink:href="classCore_1_1KeyReleasedEvent.html" target="_top" xlink:title="Event class for key release events.">
<polygon fill="white" stroke="#666666" points="283.5,-19 147.5,-19 147.5,0 283.5,0 283.5,-19"/>
<text text-anchor="middle" x="215.5" y="-7" font-family="Helvetica,sans-Serif" font-size="10.00">Core::KeyReleasedEvent</text>
</a>
</g>
</g>
<!-- Node1&#45;&gt;Node4 -->
<g id="edge3_Node000001_Node000004" class="edge">
<title>Node1&#45;&gt;Node4</title>
<g id="a_edge3_Node000001_Node000004"><a xlink:title=" ">
<path fill="none" stroke="#63b8ff" d="M215.5,-44.66C215.5,-35.93 215.5,-25.99 215.5,-19.09"/>
<polygon fill="#63b8ff" stroke="#63b8ff" points="212,-44.75 215.5,-54.75 219,-44.75 212,-44.75"/>
</a>
</g>
</g>
<!-- Node5 -->
<g id="Node000005" class="node">
<title>Node5</title>
<g id="a_Node000005"><a xlink:href="classCore_1_1KeyTypedEvent.html" target="_top" xlink:title="Event class for key typed events.">
<polygon fill="white" stroke="#666666" points="421,-19 302,-19 302,0 421,0 421,-19"/>
<text text-anchor="middle" x="361.5" y="-7" font-family="Helvetica,sans-Serif" font-size="10.00">Core::KeyTypedEvent</text>
</a>
</g>
</g>
<!-- Node1&#45;&gt;Node5 -->
<g id="edge4_Node000001_Node000005" class="edge">
<title>Node1&#45;&gt;Node5</title>
<g id="a_edge4_Node000001_Node000005"><a xlink:title=" ">
<path fill="none" stroke="#63b8ff" d="M248.42,-51.55C275.53,-41.71 313.33,-27.98 337.62,-19.17"/>
<polygon fill="#63b8ff" stroke="#63b8ff" points="247.16,-48.28 238.96,-54.98 249.55,-54.86 247.16,-48.28"/>
</a>
</g>
</g>
<!-- Node2 -->
<g id="Node000002" class="node">
<title>Node2</title>
<g id="a_Node000002"><a xlink:href="classCore_1_1Event.html" target="_top" xlink:title="Base class for all events.">
<polygon fill="white" stroke="#666666" points="252,-129 179,-129 179,-110 252,-110 252,-129"/>
<text text-anchor="middle" x="215.5" y="-117" font-family="Helvetica,sans-Serif" font-size="10.00">Core::Event</text>
</a>
</g>
</g>
<!-- Node2&#45;&gt;Node1 -->
<g id="edge1_Node000001_Node000002" class="edge">
<title>Node2&#45;&gt;Node1</title>
<g id="a_edge1_Node000001_Node000002"><a xlink:title=" ">
<path fill="none" stroke="#63b8ff" d="M215.5,-99.66C215.5,-90.93 215.5,-80.99 215.5,-74.09"/>
<polygon fill="#63b8ff" stroke="#63b8ff" points="212,-99.75 215.5,-109.75 219,-99.75 212,-99.75"/>
</a>
</g>
</g>
</g>
</svg>
