<?xml version="1.0" encoding="UTF-8" standalone="no"?>
<!DOCTYPE svg PUBLIC "-//W3C//DTD SVG 1.1//EN"
 "http://www.w3.org/Graphics/SVG/1.1/DTD/svg11.dtd">
<!-- Generated by graphviz version 2.43.0 (0)
 -->
<!-- Title: Core::Event::MouseButtonEvent Pages: 1 -->
<svg width="312pt" height="159pt"
 viewBox="0.00 0.00 312.00 159.00" xmlns="http://www.w3.org/2000/svg" xmlns:xlink="http://www.w3.org/1999/xlink">
<g id="graph0" class="graph" transform="scale(1 1) rotate(0) translate(4 155)">
<title>Core::Event::MouseButtonEvent</title>
<!-- Node1 -->
<g id="Node000001" class="node">
<title>Node1</title>
<g id="a_Node000001"><a xlink:title="Base class for mouse button events.">
<polygon fill="#999999" stroke="#666666" points="223,-96 80,-96 80,-66 223,-66 223,-96"/>
<text text-anchor="start" x="88" y="-84" font-family="Helvetica,sans-Serif" font-size="10.00">Core::Event::MouseButton</text>
<text text-anchor="middle" x="151.5" y="-73" font-family="Helvetica,sans-Serif" font-size="10.00">Event</text>
</a>
</g>
</g>
<!-- Node3 -->
<g id="Node000003" class="node">
<title>Node3</title>
<g id="a_Node000003"><a xlink:href="classCore_1_1Event_1_1MouseButtonPressedEvent.html" target="_top" xlink:title="Mouse button pressed event class.">
<polygon fill="white" stroke="#666666" points="143,-30 0,-30 0,0 143,0 143,-30"/>
<text text-anchor="start" x="8" y="-18" font-family="Helvetica,sans-Serif" font-size="10.00">Core::Event::MouseButton</text>
<text text-anchor="middle" x="71.5" y="-7" font-family="Helvetica,sans-Serif" font-size="10.00">PressedEvent</text>
</a>
</g>
</g>
<!-- Node1&#45;&gt;Node3 -->
<g id="edge2_Node000001_Node000003" class="edge">
<title>Node1&#45;&gt;Node3</title>
<g id="a_edge2_Node000001_Node000003"><a xlink:title=" ">
<path fill="none" stroke="#63b8ff" d="M125.85,-59.48C113.89,-49.91 99.97,-38.77 89.2,-30.16"/>
<polygon fill="#63b8ff" stroke="#63b8ff" points="123.75,-62.28 133.75,-65.8 128.12,-56.82 123.75,-62.28"/>
</a>
</g>
</g>
<!-- Node4 -->
<g id="Node000004" class="node">
<title>Node4</title>
<g id="a_Node000004"><a xlink:href="classCore_1_1Event_1_1MouseButtonReleasedEvent.html" target="_top" xlink:title="Mouse button released event class.">
<polygon fill="white" stroke="#666666" points="304,-30 161,-30 161,0 304,0 304,-30"/>
<text text-anchor="start" x="169" y="-18" font-family="Helvetica,sans-Serif" font-size="10.00">Core::Event::MouseButton</text>
<text text-anchor="middle" x="232.5" y="-7" font-family="Helvetica,sans-Serif" font-size="10.00">ReleasedEvent</text>
</a>
</g>
</g>
<!-- Node1&#45;&gt;Node4 -->
<g id="edge3_Node000001_Node000004" class="edge">
<title>Node1&#45;&gt;Node4</title>
<g id="a_edge3_Node000001_Node000004"><a xlink:title=" ">
<path fill="none" stroke="#63b8ff" d="M177.47,-59.48C189.58,-49.91 203.68,-38.77 214.57,-30.16"/>
<polygon fill="#63b8ff" stroke="#63b8ff" points="175.15,-56.85 169.48,-65.8 179.49,-62.34 175.15,-56.85"/>
</a>
</g>
</g>
<!-- Node2 -->
<g id="Node000002" class="node">
<title>Node2</title>
<g id="a_Node000002"><a xlink:href="classCore_1_1Event.html" target="_top" xlink:title="Base class for all events.">
<polygon fill="white" stroke="#666666" points="188,-151 115,-151 115,-132 188,-132 188,-151"/>
<text text-anchor="middle" x="151.5" y="-139" font-family="Helvetica,sans-Serif" font-size="10.00">Core::Event</text>
</a>
</g>
</g>
<!-- Node2&#45;&gt;Node1 -->
<g id="edge1_Node000001_Node000002" class="edge">
<title>Node2&#45;&gt;Node1</title>
<g id="a_edge1_Node000001_Node000002"><a xlink:title=" ">
<path fill="none" stroke="#63b8ff" d="M151.5,-121.65C151.5,-113.36 151.5,-103.78 151.5,-96.11"/>
<polygon fill="#63b8ff" stroke="#63b8ff" points="148,-121.87 151.5,-131.87 155,-121.87 148,-121.87"/>
</a>
</g>
</g>
</g>
</svg>
