<?xml version="1.0" encoding="UTF-8" standalone="no"?>
<!DOCTYPE svg PUBLIC "-//W3C//DTD SVG 1.1//EN"
 "http://www.w3.org/Graphics/SVG/1.1/DTD/svg11.dtd">
<!-- Generated by graphviz version 2.43.0 (0)
 -->
<!-- Title: Core::MouseButtonEvent Pages: 1 -->
<svg width="330pt" height="148pt"
 viewBox="0.00 0.00 329.50 148.00" xmlns="http://www.w3.org/2000/svg" xmlns:xlink="http://www.w3.org/1999/xlink">
<g id="graph0" class="graph" transform="scale(1 1) rotate(0) translate(4 144)">
<title>Core::MouseButtonEvent</title>
<!-- Node1 -->
<g id="Node000001" class="node">
<title>Node1</title>
<g id="a_Node000001"><a xlink:title="Base class for mouse button events.">
<polygon fill="#999999" stroke="#666666" points="227.5,-85 90.5,-85 90.5,-66 227.5,-66 227.5,-85"/>
<text text-anchor="middle" x="159" y="-73" font-family="Helvetica,sans-Serif" font-size="10.00">Core::MouseButtonEvent</text>
</a>
</g>
</g>
<!-- Node3 -->
<g id="Node000003" class="node">
<title>Node3</title>
<g id="a_Node000003"><a xlink:href="classCore_1_1MouseButtonPressedEvent.html" target="_top" xlink:title="Mouse button pressed event class.">
<polygon fill="white" stroke="#666666" points="148,-30 0,-30 0,0 148,0 148,-30"/>
<text text-anchor="start" x="8" y="-18" font-family="Helvetica,sans-Serif" font-size="10.00">Core::MouseButtonPressed</text>
<text text-anchor="middle" x="74" y="-7" font-family="Helvetica,sans-Serif" font-size="10.00">Event</text>
</a>
</g>
</g>
<!-- Node1&#45;&gt;Node3 -->
<g id="edge2_Node000001_Node000003" class="edge">
<title>Node1&#45;&gt;Node3</title>
<g id="a_edge2_Node000001_Node000003"><a xlink:title=" ">
<path fill="none" stroke="#63b8ff" d="M137.98,-60.03C124.71,-50.9 107.67,-39.17 94.51,-30.11"/>
<polygon fill="#63b8ff" stroke="#63b8ff" points="136.24,-63.08 146.46,-65.87 140.2,-57.32 136.24,-63.08"/>
</a>
</g>
</g>
<!-- Node4 -->
<g id="Node000004" class="node">
<title>Node4</title>
<g id="a_Node000004"><a xlink:href="classCore_1_1MouseButtonReleasedEvent.html" target="_top" xlink:title="Mouse button released event class.">
<polygon fill="white" stroke="#666666" points="321.5,-30 166.5,-30 166.5,0 321.5,0 321.5,-30"/>
<text text-anchor="start" x="174.5" y="-18" font-family="Helvetica,sans-Serif" font-size="10.00">Core::MouseButtonReleased</text>
<text text-anchor="middle" x="244" y="-7" font-family="Helvetica,sans-Serif" font-size="10.00">Event</text>
</a>
</g>
</g>
<!-- Node1&#45;&gt;Node4 -->
<g id="edge3_Node000001_Node000004" class="edge">
<title>Node1&#45;&gt;Node4</title>
<g id="a_edge3_Node000001_Node000004"><a xlink:title=" ">
<path fill="none" stroke="#63b8ff" d="M180.02,-60.03C193.29,-50.9 210.33,-39.17 223.49,-30.11"/>
<polygon fill="#63b8ff" stroke="#63b8ff" points="177.8,-57.32 171.54,-65.87 181.76,-63.08 177.8,-57.32"/>
</a>
</g>
</g>
<!-- Node2 -->
<g id="Node000002" class="node">
<title>Node2</title>
<g id="a_Node000002"><a xlink:href="classCore_1_1Event.html" target="_top" xlink:title="Base class for all events.">
<polygon fill="white" stroke="#666666" points="195.5,-140 122.5,-140 122.5,-121 195.5,-121 195.5,-140"/>
<text text-anchor="middle" x="159" y="-128" font-family="Helvetica,sans-Serif" font-size="10.00">Core::Event</text>
</a>
</g>
</g>
<!-- Node2&#45;&gt;Node1 -->
<g id="edge1_Node000001_Node000002" class="edge">
<title>Node2&#45;&gt;Node1</title>
<g id="a_edge1_Node000001_Node000002"><a xlink:title=" ">
<path fill="none" stroke="#63b8ff" d="M159,-110.66C159,-101.93 159,-91.99 159,-85.09"/>
<polygon fill="#63b8ff" stroke="#63b8ff" points="155.5,-110.75 159,-120.75 162.5,-110.75 155.5,-110.75"/>
</a>
</g>
</g>
</g>
</svg>
