<?xml version="1.0" encoding="UTF-8" standalone="no"?>
<!DOCTYPE svg PUBLIC "-//W3C//DTD SVG 1.1//EN"
 "http://www.w3.org/Graphics/SVG/1.1/DTD/svg11.dtd">
<!-- Generated by graphviz version 2.43.0 (0)
 -->
<!-- Title: Core::MouseButtonPressedEvent Pages: 1 -->
<svg width="156pt" height="148pt"
 viewBox="0.00 0.00 156.00 148.00" xmlns="http://www.w3.org/2000/svg" xmlns:xlink="http://www.w3.org/1999/xlink">
<g id="graph0" class="graph" transform="scale(1 1) rotate(0) translate(4 144)">
<title>Core::MouseButtonPressedEvent</title>
<!-- Node1 -->
<g id="Node000001" class="node">
<title>Node1</title>
<g id="a_Node000001"><a xlink:title="Mouse button pressed event class.">
<polygon fill="#999999" stroke="#666666" points="148,-30 0,-30 0,0 148,0 148,-30"/>
<text text-anchor="start" x="8" y="-18" font-family="Helvetica,sans-Serif" font-size="10.00">Core::MouseButtonPressed</text>
<text text-anchor="middle" x="74" y="-7" font-family="Helvetica,sans-Serif" font-size="10.00">Event</text>
</a>
</g>
</g>
<!-- Node2 -->
<g id="Node000002" class="node">
<title>Node2</title>
<g id="a_Node000002"><a xlink:href="classCore_1_1MouseButtonEvent.html" target="_top" xlink:title="Base class for mouse button events.">
<polygon fill="white" stroke="#666666" points="142.5,-85 5.5,-85 5.5,-66 142.5,-66 142.5,-85"/>
<text text-anchor="middle" x="74" y="-73" font-family="Helvetica,sans-Serif" font-size="10.00">Core::MouseButtonEvent</text>
</a>
</g>
</g>
<!-- Node2&#45;&gt;Node1 -->
<g id="edge1_Node000001_Node000002" class="edge">
<title>Node2&#45;&gt;Node1</title>
<g id="a_edge1_Node000001_Node000002"><a xlink:title=" ">
<path fill="none" stroke="#63b8ff" d="M74,-55.65C74,-47.36 74,-37.78 74,-30.11"/>
<polygon fill="#63b8ff" stroke="#63b8ff" points="70.5,-55.87 74,-65.87 77.5,-55.87 70.5,-55.87"/>
</a>
</g>
</g>
<!-- Node3 -->
<g id="Node000003" class="node">
<title>Node3</title>
<g id="a_Node000003"><a xlink:href="classCore_1_1Event.html" target="_top" xlink:title="Base class for all events.">
<polygon fill="white" stroke="#666666" points="110.5,-140 37.5,-140 37.5,-121 110.5,-121 110.5,-140"/>
<text text-anchor="middle" x="74" y="-128" font-family="Helvetica,sans-Serif" font-size="10.00">Core::Event</text>
</a>
</g>
</g>
<!-- Node3&#45;&gt;Node2 -->
<g id="edge2_Node000002_Node000003" class="edge">
<title>Node3&#45;&gt;Node2</title>
<g id="a_edge2_Node000002_Node000003"><a xlink:title=" ">
<path fill="none" stroke="#63b8ff" d="M74,-110.66C74,-101.93 74,-91.99 74,-85.09"/>
<polygon fill="#63b8ff" stroke="#63b8ff" points="70.5,-110.75 74,-120.75 77.5,-110.75 70.5,-110.75"/>
</a>
</g>
</g>
</g>
</svg>
