<?xml version="1.0" encoding="UTF-8" standalone="no"?>
<!DOCTYPE svg PUBLIC "-//W3C//DTD SVG 1.1//EN"
 "http://www.w3.org/Graphics/SVG/1.1/DTD/svg11.dtd">
<!-- Generated by graphviz version 2.43.0 (0)
 -->
<!-- Title: Core::Event::KeyEvent Pages: 1 -->
<svg width="441pt" height="113pt"
 viewBox="0.00 0.00 441.00 113.00" xmlns="http://www.w3.org/2000/svg" xmlns:xlink="http://www.w3.org/1999/xlink">
<g id="graph0" class="graph" transform="scale(1 1) rotate(0) translate(4 109)">
<title>Core::Event::KeyEvent</title>
<!-- Node1 -->
<g id="Node000001" class="node">
<title>Node1</title>
<g id="a_Node000001"><a xlink:title="Base class for keyboard events.">
<polygon fill="#999999" stroke="#666666" points="234,-62 109,-62 109,-43 234,-43 234,-62"/>
<text text-anchor="middle" x="171.5" y="-50" font-family="Helvetica,sans-Serif" font-size="10.00">Core::Event::KeyEvent</text>
</a>
</g>
</g>
<!-- Node3 -->
<g id="Node000003" class="node">
<title>Node3</title>
<g id="a_Node000003"><a xlink:href="classCore_1_1Event_1_1KeyPressedEvent.html" target="_top" xlink:title="Event class for key press events.">
<polygon fill="white" stroke="#666666" points="433,-105 270,-105 270,-86 433,-86 433,-105"/>
<text text-anchor="middle" x="351.5" y="-93" font-family="Helvetica,sans-Serif" font-size="10.00">Core::Event::KeyPressedEvent</text>
</a>
</g>
</g>
<!-- Node1&#45;&gt;Node3 -->
<g id="edge2_Node000001_Node000003" class="edge">
<title>Node1&#45;&gt;Node3</title>
<g id="a_edge2_Node000001_Node000003"><a xlink:title=" ">
<path fill="none" stroke="#63b8ff" d="M220.91,-64.51C236.57,-68.37 254.01,-72.65 270,-76.5 282.84,-79.6 296.85,-82.92 309.53,-85.91"/>
<polygon fill="#63b8ff" stroke="#63b8ff" points="221.46,-61.04 210.91,-62.05 219.78,-67.84 221.46,-61.04"/>
</a>
</g>
</g>
<!-- Node4 -->
<g id="Node000004" class="node">
<title>Node4</title>
<g id="a_Node000004"><a xlink:href="classCore_1_1Event_1_1KeyReleasedEvent.html" target="_top" xlink:title="Event class for key release events.">
<polygon fill="white" stroke="#666666" points="422.5,-67.5 280.5,-67.5 280.5,-37.5 422.5,-37.5 422.5,-67.5"/>
<text text-anchor="start" x="288.5" y="-55.5" font-family="Helvetica,sans-Serif" font-size="10.00">Core::Event::KeyReleased</text>
<text text-anchor="middle" x="351.5" y="-44.5" font-family="Helvetica,sans-Serif" font-size="10.00">Event</text>
</a>
</g>
</g>
<!-- Node1&#45;&gt;Node4 -->
<g id="edge3_Node000001_Node000004" class="edge">
<title>Node1&#45;&gt;Node4</title>
<g id="a_edge3_Node000001_Node000004"><a xlink:title=" ">
<path fill="none" stroke="#63b8ff" d="M244.51,-52.5C256.32,-52.5 268.55,-52.5 280.31,-52.5"/>
<polygon fill="#63b8ff" stroke="#63b8ff" points="244.26,-49 234.26,-52.5 244.26,-56 244.26,-49"/>
</a>
</g>
</g>
<!-- Node5 -->
<g id="Node000005" class="node">
<title>Node5</title>
<g id="a_Node000005"><a xlink:href="classCore_1_1Event_1_1KeyTypedEvent.html" target="_top" xlink:title="Event class for key typed events.">
<polygon fill="white" stroke="#666666" points="428,-19 275,-19 275,0 428,0 428,-19"/>
<text text-anchor="middle" x="351.5" y="-7" font-family="Helvetica,sans-Serif" font-size="10.00">Core::Event::KeyTypedEvent</text>
</a>
</g>
</g>
<!-- Node1&#45;&gt;Node5 -->
<g id="edge4_Node000001_Node000005" class="edge">
<title>Node1&#45;&gt;Node5</title>
<g id="a_edge4_Node000001_Node000005"><a xlink:title=" ">
<path fill="none" stroke="#63b8ff" d="M220.91,-40.49C236.57,-36.63 254.01,-32.35 270,-28.5 282.84,-25.4 296.85,-22.08 309.53,-19.09"/>
<polygon fill="#63b8ff" stroke="#63b8ff" points="219.78,-37.16 210.91,-42.95 221.46,-43.96 219.78,-37.16"/>
</a>
</g>
</g>
<!-- Node2 -->
<g id="Node000002" class="node">
<title>Node2</title>
<g id="a_Node000002"><a xlink:href="classCore_1_1Event.html" target="_top" xlink:title="Base class for all events.">
<polygon fill="white" stroke="#666666" points="73,-62 0,-62 0,-43 73,-43 73,-62"/>
<text text-anchor="middle" x="36.5" y="-50" font-family="Helvetica,sans-Serif" font-size="10.00">Core::Event</text>
</a>
</g>
</g>
<!-- Node2&#45;&gt;Node1 -->
<g id="edge1_Node000001_Node000002" class="edge">
<title>Node2&#45;&gt;Node1</title>
<g id="a_edge1_Node000001_Node000002"><a xlink:title=" ">
<path fill="none" stroke="#63b8ff" d="M83.28,-52.5C91.52,-52.5 100.23,-52.5 108.83,-52.5"/>
<polygon fill="#63b8ff" stroke="#63b8ff" points="83.14,-49 73.14,-52.5 83.14,-56 83.14,-49"/>
</a>
</g>
</g>
</g>
</svg>
