<?xml version="1.0" encoding="UTF-8" standalone="no"?>
<!DOCTYPE svg PUBLIC "-//W3C//DTD SVG 1.1//EN"
 "http://www.w3.org/Graphics/SVG/1.1/DTD/svg11.dtd">
<!-- Generated by graphviz version 2.43.0 (0)
 -->
<!-- Title: Core::Window Pages: 1 -->
<svg width="324pt" height="93pt"
 viewBox="0.00 0.00 324.00 93.00" xmlns="http://www.w3.org/2000/svg" xmlns:xlink="http://www.w3.org/1999/xlink">
<g id="graph0" class="graph" transform="scale(1 1) rotate(0) translate(4 89)">
<title>Core::Window</title>
<!-- Node1 -->
<g id="Node000001" class="node">
<title>Node1</title>
<g id="a_Node000001"><a xlink:title=" ">
<polygon fill="#999999" stroke="#666666" points="198,-19 114,-19 114,0 198,0 198,-19"/>
<text text-anchor="middle" x="156" y="-7" font-family="Helvetica,sans-Serif" font-size="10.00">Core::Window</text>
</a>
</g>
</g>
<!-- Node2 -->
<g id="Node000002" class="node">
<title>Node2</title>
<g id="a_Node000002"><a xlink:href="structCore_1_1WindowSpecification.html" target="_top" xlink:title=" ">
<polygon fill="white" stroke="#666666" points="146,-85 0,-85 0,-66 146,-66 146,-85"/>
<text text-anchor="middle" x="73" y="-73" font-family="Helvetica,sans-Serif" font-size="10.00">Core::WindowSpecification</text>
</a>
</g>
</g>
<!-- Node2&#45;&gt;Node1 -->
<g id="edge1_Node000001_Node000002" class="edge">
<title>Node2&#45;&gt;Node1</title>
<g id="a_edge1_Node000001_Node000002"><a xlink:title=" ">
<path fill="none" stroke="#9a32cd" stroke-dasharray="5,2" d="M92.47,-59.49C108.72,-46.96 131.31,-29.54 144.72,-19.2"/>
<polygon fill="#9a32cd" stroke="#9a32cd" points="89.98,-56.99 84.19,-65.87 94.25,-62.53 89.98,-56.99"/>
</a>
</g>
<text text-anchor="middle" x="160.5" y="-40" font-family="Helvetica,sans-Serif" font-size="10.00" fill="grey"> m_Specification</text>
</g>
<!-- Node3 -->
<g id="Node000003" class="node">
<title>Node3</title>
<g id="a_Node000003"><a xlink:href="structCore_1_1Window_1_1WindowData.html" target="_top" xlink:title=" ">
<polygon fill="white" stroke="#666666" points="316,-85 164,-85 164,-66 316,-66 316,-85"/>
<text text-anchor="middle" x="240" y="-73" font-family="Helvetica,sans-Serif" font-size="10.00">Core::Window::WindowData</text>
</a>
</g>
</g>
<!-- Node3&#45;&gt;Node1 -->
<g id="edge2_Node000001_Node000003" class="edge">
<title>Node3&#45;&gt;Node1</title>
<g id="a_edge2_Node000001_Node000003"><a xlink:title=" ">
<path fill="none" stroke="#9a32cd" stroke-dasharray="5,2" d="M226.35,-57.61C220.26,-50.71 212.73,-42.97 205,-37 195.97,-30.02 184.85,-23.85 175.49,-19.22"/>
<polygon fill="#9a32cd" stroke="#9a32cd" points="224.05,-60.32 233.18,-65.69 229.4,-55.8 224.05,-60.32"/>
</a>
</g>
<text text-anchor="middle" x="237" y="-40" font-family="Helvetica,sans-Serif" font-size="10.00" fill="grey"> m_Data</text>
</g>
</g>
</svg>
