<?xml version="1.0" encoding="UTF-8" standalone="no"?>
<!DOCTYPE svg PUBLIC "-//W3C//DTD SVG 1.1//EN"
 "http://www.w3.org/Graphics/SVG/1.1/DTD/svg11.dtd">
<!-- Generated by graphviz version 2.43.0 (0)
 -->
<!-- Title: App/Test Pages: 1 -->
<svg width="200pt" height="141pt"
 viewBox="0.00 0.00 199.50 141.00" xmlns="http://www.w3.org/2000/svg" xmlns:xlink="http://www.w3.org/1999/xlink">
<g id="graph0" class="graph" transform="scale(1 1) rotate(0) translate(4 137)">
<title>App/Test</title>
<g id="clust1" class="cluster">
<title>clusterdir_b1617d756d2224e91d37255e84e89ba2</title>
<g id="a_clust1"><a xlink:href="dir_b1617d756d2224e91d37255e84e89ba2.html" target="_top" xlink:title="App">
<polygon fill="#edf0f7" stroke="#404040" stroke-dasharray="5,2" points="8,-8 8,-125 144,-125 144,-8 8,-8"/>
<text text-anchor="middle" x="76" y="-113" font-family="Helvetica,sans-Serif" font-size="10.00">App</text>
</a>
</g>
</g>
<g id="clust2" class="cluster">
<title>clusterdir_5e289734afcfea783635eece142cb070</title>
<g id="a_clust2"><a xlink:href="dir_5e289734afcfea783635eece142cb070.html" target="_top">
<polygon fill="#edf0f7" stroke="#404040" stroke-width="2" points="16,-63 16,-98 136,-98 136,-63 16,-63"/>
</a>
</g>
</g>
<!-- dir_8375c9afe14e2d6744036dd32af5f2a6 -->
<g id="node1" class="node">
<title>dir_8375c9afe14e2d6744036dd32af5f2a6</title>
<g id="a_node1"><a xlink:href="dir_8375c9afe14e2d6744036dd32af5f2a6.html" target="_top" xlink:title="Include">
<polygon fill="#a2b4d6" stroke="red" points="75,-35 23,-35 23,-16 75,-16 75,-35"/>
<text text-anchor="middle" x="49" y="-23" font-family="Helvetica,sans-Serif" font-size="10.00">Include</text>
</a>
</g>
</g>
<!-- dir_5e289734afcfea783635eece142cb070 -->
<g id="node2" class="node">
<title>dir_5e289734afcfea783635eece142cb070</title>
<text text-anchor="middle" x="110" y="-78" font-family="Helvetica,sans-Serif" font-size="10.00">Test</text>
</g>
<!-- dir_8e86fe097a34bad52a8ab5cc81cd4832 -->
<g id="node3" class="node">
<title>dir_8e86fe097a34bad52a8ab5cc81cd4832</title>
<g id="a_node3"><a xlink:href="dir_8e86fe097a34bad52a8ab5cc81cd4832.html" target="_top" xlink:title="Source">
<polygon fill="#a2b4d6" stroke="#404040" points="74,-90 24,-90 24,-71 74,-71 74,-90"/>
<text text-anchor="middle" x="49" y="-78" font-family="Helvetica,sans-Serif" font-size="10.00">Source</text>
</a>
</g>
</g>
<!-- dir_8e86fe097a34bad52a8ab5cc81cd4832&#45;&gt;dir_8375c9afe14e2d6744036dd32af5f2a6 -->
<g id="edge1" class="edge">
<title>dir_8e86fe097a34bad52a8ab5cc81cd4832&#45;&gt;dir_8375c9afe14e2d6744036dd32af5f2a6</title>
<g id="a_edge1"><a xlink:href="dir_000010_000005.html" target="_top">
<path fill="none" stroke="#63b8ff" d="M49,-70.75C49,-63.8 49,-53.85 49,-45.13"/>
<polygon fill="#63b8ff" stroke="#63b8ff" points="52.5,-45.09 49,-35.09 45.5,-45.09 52.5,-45.09"/>
</a>
</g>
<g id="a_edge1&#45;headlabel"><a xlink:href="dir_000010_000005.html" target="_top" xlink:title="22">
<text text-anchor="middle" x="55.34" y="-46.18" font-family="Helvetica,sans-Serif" font-size="10.00" fill="#63b8ff">22</text>
</a>
</g>
</g>
<!-- dir_c6310732a22f63c0c2fc5595561e68f1 -->
<g id="node4" class="node">
<title>dir_c6310732a22f63c0c2fc5595561e68f1</title>
<g id="a_node4"><a xlink:href="dir_c6310732a22f63c0c2fc5595561e68f1.html" target="_top" xlink:title="Core">
<polygon fill="#edf0f7" stroke="red" points="191.5,-35 152.5,-35 152.5,-16 191.5,-16 191.5,-35"/>
<text text-anchor="middle" x="172" y="-23" font-family="Helvetica,sans-Serif" font-size="10.00">Core</text>
</a>
</g>
</g>
<!-- dir_8e86fe097a34bad52a8ab5cc81cd4832&#45;&gt;dir_c6310732a22f63c0c2fc5595561e68f1 -->
<g id="edge2" class="edge">
<title>dir_8e86fe097a34bad52a8ab5cc81cd4832&#45;&gt;dir_c6310732a22f63c0c2fc5595561e68f1</title>
<g id="a_edge2"><a xlink:href="dir_000010_000002.html" target="_top">
<path fill="none" stroke="#63b8ff" d="M66.2,-70.9C71.55,-68.29 77.49,-65.46 83,-63 102.75,-54.17 125.31,-44.92 142.77,-37.95"/>
<polygon fill="#63b8ff" stroke="#63b8ff" points="144.4,-41.07 152.41,-34.13 141.82,-34.56 144.4,-41.07"/>
</a>
</g>
<g id="a_edge2&#45;headlabel"><a xlink:href="dir_000010_000002.html" target="_top" xlink:title="5">
<text text-anchor="middle" x="142.11" y="-42.53" font-family="Helvetica,sans-Serif" font-size="10.00" fill="#63b8ff">5</text>
</a>
</g>
</g>
</g>
</svg>
