<?xml version="1.0" encoding="UTF-8" standalone="no"?>
<!DOCTYPE svg PUBLIC "-//W3C//DTD SVG 1.1//EN"
 "http://www.w3.org/Graphics/SVG/1.1/DTD/svg11.dtd">
<!-- Generated by graphviz version 2.43.0 (0)
 -->
<!-- Title: App Pages: 1 -->
<svg width="198pt" height="153pt"
 viewBox="0.00 0.00 198.00 153.00" xmlns="http://www.w3.org/2000/svg" xmlns:xlink="http://www.w3.org/1999/xlink">
<g id="graph0" class="graph" transform="scale(1 1) rotate(0) translate(4 149)">
<title>App</title>
<g id="clust1" class="cluster">
<title>clusterdir_b1617d756d2224e91d37255e84e89ba2</title>
<g id="a_clust1"><a xlink:href="dir_b1617d756d2224e91d37255e84e89ba2.html" target="_top">
<polygon fill="#edf0f7" stroke="#404040" stroke-width="2" points="8,-47 8,-137 182,-137 182,-47 8,-47"/>
</a>
</g>
</g>
<!-- dir_b1617d756d2224e91d37255e84e89ba2 -->
<g id="node1" class="node">
<title>dir_b1617d756d2224e91d37255e84e89ba2</title>
<text text-anchor="middle" x="156" y="-117" font-family="Helvetica,sans-Serif" font-size="10.00">App</text>
</g>
<!-- dir_8375c9afe14e2d6744036dd32af5f2a6 -->
<g id="node2" class="node">
<title>dir_8375c9afe14e2d6744036dd32af5f2a6</title>
<g id="a_node2"><a xlink:href="dir_8375c9afe14e2d6744036dd32af5f2a6.html" target="_top" xlink:title="Include">
<polygon fill="#a2b4d6" stroke="#404040" points="68,-74 16,-74 16,-55 68,-55 68,-74"/>
<text text-anchor="middle" x="42" y="-62" font-family="Helvetica,sans-Serif" font-size="10.00">Include</text>
</a>
</g>
</g>
<!-- dir_c6310732a22f63c0c2fc5595561e68f1 -->
<g id="node5" class="node">
<title>dir_c6310732a22f63c0c2fc5595561e68f1</title>
<g id="a_node5"><a xlink:href="dir_c6310732a22f63c0c2fc5595561e68f1.html" target="_top" xlink:title="Core">
<polygon fill="#edf0f7" stroke="red" points="115.5,-19 76.5,-19 76.5,0 115.5,0 115.5,-19"/>
<text text-anchor="middle" x="96" y="-7" font-family="Helvetica,sans-Serif" font-size="10.00">Core</text>
</a>
</g>
</g>
<!-- dir_8375c9afe14e2d6744036dd32af5f2a6&#45;&gt;dir_c6310732a22f63c0c2fc5595561e68f1 -->
<g id="edge1" class="edge">
<title>dir_8375c9afe14e2d6744036dd32af5f2a6&#45;&gt;dir_c6310732a22f63c0c2fc5595561e68f1</title>
<g id="a_edge1"><a xlink:href="dir_000005_000002.html" target="_top">
<path fill="none" stroke="#63b8ff" d="M50.92,-54.75C58.78,-47.03 70.43,-35.6 79.92,-26.28"/>
<polygon fill="#63b8ff" stroke="#63b8ff" points="82.56,-28.59 87.25,-19.09 77.66,-23.6 82.56,-28.59"/>
</a>
</g>
<g id="a_edge1&#45;headlabel"><a xlink:href="dir_000005_000002.html" target="_top" xlink:title="6">
<text text-anchor="middle" x="81.99" y="-30.64" font-family="Helvetica,sans-Serif" font-size="10.00" fill="#63b8ff">6</text>
</a>
</g>
</g>
<!-- dir_cf9197908170776670ed1dce209b353f -->
<g id="node3" class="node">
<title>dir_cf9197908170776670ed1dce209b353f</title>
<g id="a_node3"><a xlink:href="dir_cf9197908170776670ed1dce209b353f.html" target="_top" xlink:title="Source">
<polygon fill="#a2b4d6" stroke="#404040" points="66,-129 16,-129 16,-110 66,-110 66,-129"/>
<text text-anchor="middle" x="41" y="-117" font-family="Helvetica,sans-Serif" font-size="10.00">Source</text>
</a>
</g>
</g>
<!-- dir_cf9197908170776670ed1dce209b353f&#45;&gt;dir_8375c9afe14e2d6744036dd32af5f2a6 -->
<g id="edge2" class="edge">
<title>dir_cf9197908170776670ed1dce209b353f&#45;&gt;dir_8375c9afe14e2d6744036dd32af5f2a6</title>
<g id="a_edge2"><a xlink:href="dir_000009_000005.html" target="_top">
<path fill="none" stroke="#63b8ff" d="M41.17,-109.75C41.3,-102.8 41.48,-92.85 41.65,-84.13"/>
<polygon fill="#63b8ff" stroke="#63b8ff" points="45.15,-84.15 41.84,-74.09 38.15,-84.02 45.15,-84.15"/>
</a>
</g>
<g id="a_edge2&#45;headlabel"><a xlink:href="dir_000009_000005.html" target="_top" xlink:title="19">
<text text-anchor="middle" x="47.92" y="-85.3" font-family="Helvetica,sans-Serif" font-size="10.00" fill="#63b8ff">19</text>
</a>
</g>
</g>
<!-- dir_cf9197908170776670ed1dce209b353f&#45;&gt;dir_c6310732a22f63c0c2fc5595561e68f1 -->
<g id="edge3" class="edge">
<title>dir_cf9197908170776670ed1dce209b353f&#45;&gt;dir_c6310732a22f63c0c2fc5595561e68f1</title>
<g id="a_edge3"><a xlink:href="dir_000009_000002.html" target="_top">
<path fill="none" stroke="#63b8ff" d="M49.88,-109.71C57.98,-101.24 69.77,-87.71 77,-74 84.48,-59.83 89.44,-42.29 92.41,-29.24"/>
<polygon fill="#63b8ff" stroke="#63b8ff" points="95.91,-29.63 94.53,-19.12 89.06,-28.2 95.91,-29.63"/>
</a>
</g>
<g id="a_edge3&#45;headlabel"><a xlink:href="dir_000009_000002.html" target="_top" xlink:title="9">
<text text-anchor="middle" x="97.95" y="-31.23" font-family="Helvetica,sans-Serif" font-size="10.00" fill="#63b8ff">9</text>
</a>
</g>
</g>
<!-- dir_5e289734afcfea783635eece142cb070 -->
<g id="node4" class="node">
<title>dir_5e289734afcfea783635eece142cb070</title>
<g id="a_node4"><a xlink:href="dir_5e289734afcfea783635eece142cb070.html" target="_top" xlink:title="Test">
<polygon fill="#a2b4d6" stroke="#404040" points="120,-129 84,-129 84,-110 120,-110 120,-129"/>
<text text-anchor="middle" x="102" y="-117" font-family="Helvetica,sans-Serif" font-size="10.00">Test</text>
</a>
</g>
</g>
<!-- dir_5e289734afcfea783635eece142cb070&#45;&gt;dir_8375c9afe14e2d6744036dd32af5f2a6 -->
<g id="edge4" class="edge">
<title>dir_5e289734afcfea783635eece142cb070&#45;&gt;dir_8375c9afe14e2d6744036dd32af5f2a6</title>
<g id="a_edge4"><a xlink:href="dir_000013_000005.html" target="_top">
<path fill="none" stroke="#63b8ff" d="M92.36,-109.98C83.49,-102.15 70.13,-90.34 59.39,-80.86"/>
<polygon fill="#63b8ff" stroke="#63b8ff" points="61.63,-78.17 51.82,-74.17 56.99,-83.41 61.63,-78.17"/>
</a>
</g>
<g id="a_edge4&#45;headlabel"><a xlink:href="dir_000013_000005.html" target="_top" xlink:title="22">
<text text-anchor="middle" x="66.2" y="-75.92" font-family="Helvetica,sans-Serif" font-size="10.00" fill="#63b8ff">22</text>
</a>
</g>
</g>
<!-- dir_5e289734afcfea783635eece142cb070&#45;&gt;dir_c6310732a22f63c0c2fc5595561e68f1 -->
<g id="edge5" class="edge">
<title>dir_5e289734afcfea783635eece142cb070&#45;&gt;dir_c6310732a22f63c0c2fc5595561e68f1</title>
<g id="a_edge5"><a xlink:href="dir_000013_000002.html" target="_top">
<path fill="none" stroke="#63b8ff" d="M104.66,-109.63C108.35,-96.06 114.14,-69.35 110,-47 108.86,-40.83 106.71,-34.35 104.44,-28.59"/>
<polygon fill="#63b8ff" stroke="#63b8ff" points="107.57,-27.03 100.4,-19.23 101.15,-29.8 107.57,-27.03"/>
</a>
</g>
<g id="a_edge5&#45;headlabel"><a xlink:href="dir_000013_000002.html" target="_top" xlink:title="5">
<text text-anchor="middle" x="111.61" y="-26.7" font-family="Helvetica,sans-Serif" font-size="10.00" fill="#63b8ff">5</text>
</a>
</g>
</g>
</g>
</svg>
