<?xml version="1.0" encoding="UTF-8" standalone="no"?>
<!DOCTYPE svg PUBLIC "-//W3C//DTD SVG 1.1//EN"
 "http://www.w3.org/Graphics/SVG/1.1/DTD/svg11.dtd">
<!-- Generated by graphviz version 2.43.0 (0)
 -->
<!-- Title: Core/Include/Core/Event/Event.h Pages: 1 -->
<svg width="856pt" height="225pt"
 viewBox="0.00 0.00 856.00 225.00" xmlns="http://www.w3.org/2000/svg" xmlns:xlink="http://www.w3.org/1999/xlink">
<g id="graph0" class="graph" transform="scale(1 1) rotate(0) translate(4 221)">
<title>Core/Include/Core/Event/Event.h</title>
<!-- Node1 -->
<g id="Node000001" class="node">
<title>Node1</title>
<g id="a_Node000001"><a xlink:title=" ">
<polygon fill="#999999" stroke="#666666" points="524,-217 390,-217 390,-187 524,-187 524,-217"/>
<text text-anchor="start" x="398" y="-205" font-family="Helvetica,sans-Serif" font-size="10.00">Core/Include/Core/Event</text>
<text text-anchor="middle" x="457" y="-194" font-family="Helvetica,sans-Serif" font-size="10.00">/Event.h</text>
</a>
</g>
</g>
<!-- Node2 -->
<g id="Node000002" class="node">
<title>Node2</title>
<g id="a_Node000002"><a xlink:href="ApplicationEvent_8h.html" target="_top" xlink:title=" ">
<polygon fill="white" stroke="#666666" points="372,-151 238,-151 238,-121 372,-121 372,-151"/>
<text text-anchor="start" x="246" y="-139" font-family="Helvetica,sans-Serif" font-size="10.00">Core/Include/Core/Event</text>
<text text-anchor="middle" x="305" y="-128" font-family="Helvetica,sans-Serif" font-size="10.00">/ApplicationEvent.h</text>
</a>
</g>
</g>
<!-- Node1&#45;&gt;Node2 -->
<g id="edge1_Node000001_Node000002" class="edge">
<title>Node1&#45;&gt;Node2</title>
<g id="a_edge1_Node000001_Node000002"><a xlink:title=" ">
<path fill="none" stroke="#63b8ff" d="M414.38,-183.05C390.3,-172.91 360.64,-160.43 338.28,-151.01"/>
<polygon fill="#63b8ff" stroke="#63b8ff" points="413.07,-186.3 423.64,-186.95 415.78,-179.85 413.07,-186.3"/>
</a>
</g>
</g>
<!-- Node9 -->
<g id="Node000009" class="node">
<title>Node9</title>
<g id="a_Node000009"><a xlink:href="KeyEvents_8h.html" target="_top" xlink:title=" ">
<polygon fill="white" stroke="#666666" points="524,-151 390,-151 390,-121 524,-121 524,-151"/>
<text text-anchor="start" x="398" y="-139" font-family="Helvetica,sans-Serif" font-size="10.00">Core/Include/Core/Event</text>
<text text-anchor="middle" x="457" y="-128" font-family="Helvetica,sans-Serif" font-size="10.00">/KeyEvents.h</text>
</a>
</g>
</g>
<!-- Node1&#45;&gt;Node9 -->
<g id="edge8_Node000001_Node000009" class="edge">
<title>Node1&#45;&gt;Node9</title>
<g id="a_edge8_Node000001_Node000009"><a xlink:title=" ">
<path fill="none" stroke="#63b8ff" d="M457,-176.54C457,-167.96 457,-158.61 457,-151.16"/>
<polygon fill="#63b8ff" stroke="#63b8ff" points="453.5,-176.8 457,-186.8 460.5,-176.8 453.5,-176.8"/>
</a>
</g>
</g>
<!-- Node10 -->
<g id="Node000010" class="node">
<title>Node10</title>
<g id="a_Node000010"><a xlink:href="MouseEvents_8h.html" target="_top" xlink:title=" ">
<polygon fill="white" stroke="#666666" points="848,-151 714,-151 714,-121 848,-121 848,-151"/>
<text text-anchor="start" x="722" y="-139" font-family="Helvetica,sans-Serif" font-size="10.00">Core/Include/Core/Event</text>
<text text-anchor="middle" x="781" y="-128" font-family="Helvetica,sans-Serif" font-size="10.00">/MouseEvents.h</text>
</a>
</g>
</g>
<!-- Node1&#45;&gt;Node10 -->
<g id="edge11_Node000001_Node000010" class="edge">
<title>Node1&#45;&gt;Node10</title>
<g id="a_edge11_Node000001_Node000010"><a xlink:title=" ">
<path fill="none" stroke="#63b8ff" d="M534.14,-185.76C588.87,-174.95 661.63,-160.58 713.95,-150.24"/>
<polygon fill="#63b8ff" stroke="#63b8ff" points="533.27,-182.37 524.13,-187.74 534.62,-189.23 533.27,-182.37"/>
</a>
</g>
</g>
<!-- Node11 -->
<g id="Node000011" class="node">
<title>Node11</title>
<g id="a_Node000011"><a xlink:href="Layer_8h.html" target="_top" xlink:title=" ">
<polygon fill="white" stroke="#666666" points="219.5,-145.5 78.5,-145.5 78.5,-126.5 219.5,-126.5 219.5,-145.5"/>
<text text-anchor="middle" x="149" y="-133.5" font-family="Helvetica,sans-Serif" font-size="10.00">Core/Include/Core/Layer.h</text>
</a>
</g>
</g>
<!-- Node1&#45;&gt;Node11 -->
<g id="edge12_Node000001_Node000011" class="edge">
<title>Node1&#45;&gt;Node11</title>
<g id="a_edge12_Node000001_Node000011"><a xlink:title=" ">
<path fill="none" stroke="#63b8ff" d="M379.94,-184.99C319.75,-172.48 238.44,-155.59 190.09,-145.54"/>
<polygon fill="#63b8ff" stroke="#63b8ff" points="379.29,-188.43 389.79,-187.03 380.71,-181.57 379.29,-188.43"/>
</a>
</g>
</g>
<!-- Node13 -->
<g id="Node000013" class="node">
<title>Node13</title>
<g id="a_Node000013"><a xlink:href="Window_8h.html" target="_top" xlink:title=" ">
<polygon fill="white" stroke="#666666" points="695.5,-145.5 542.5,-145.5 542.5,-126.5 695.5,-126.5 695.5,-145.5"/>
<text text-anchor="middle" x="619" y="-133.5" font-family="Helvetica,sans-Serif" font-size="10.00">Core/Include/Core/Window.h</text>
</a>
</g>
</g>
<!-- Node1&#45;&gt;Node13 -->
<g id="edge17_Node000001_Node000013" class="edge">
<title>Node1&#45;&gt;Node13</title>
<g id="a_edge17_Node000001_Node000013"><a xlink:title=" ">
<path fill="none" stroke="#63b8ff" d="M501.91,-183.26C533.06,-170.95 573.17,-155.11 597.44,-145.52"/>
<polygon fill="#63b8ff" stroke="#63b8ff" points="500.57,-180.03 492.55,-186.95 503.14,-186.54 500.57,-180.03"/>
</a>
</g>
</g>
<!-- Node3 -->
<g id="Node000003" class="node">
<title>Node3</title>
<g id="a_Node000003"><a xlink:href="Application_8h.html" target="_top" xlink:title=" ">
<polygon fill="white" stroke="#666666" points="397,-79.5 227,-79.5 227,-60.5 397,-60.5 397,-79.5"/>
<text text-anchor="middle" x="312" y="-67.5" font-family="Helvetica,sans-Serif" font-size="10.00">Core/Include/Core/Application.h</text>
</a>
</g>
</g>
<!-- Node2&#45;&gt;Node3 -->
<g id="edge2_Node000002_Node000003" class="edge">
<title>Node2&#45;&gt;Node3</title>
<g id="a_edge2_Node000002_Node000003"><a xlink:title=" ">
<path fill="none" stroke="#63b8ff" d="M307.67,-110.6C308.85,-99.8 310.16,-87.78 311.03,-79.84"/>
<polygon fill="#63b8ff" stroke="#63b8ff" points="304.16,-110.48 306.55,-120.8 311.12,-111.24 304.16,-110.48"/>
</a>
</g>
</g>
<!-- Node8 -->
<g id="Node000008" class="node">
<title>Node8</title>
<g id="a_Node000008"><a xlink:href="Window_8cpp.html" target="_top" xlink:title=" ">
<polygon fill="white" stroke="#666666" points="552.5,-79.5 415.5,-79.5 415.5,-60.5 552.5,-60.5 552.5,-79.5"/>
<text text-anchor="middle" x="484" y="-67.5" font-family="Helvetica,sans-Serif" font-size="10.00">Core/Source/Window.cpp</text>
</a>
</g>
</g>
<!-- Node2&#45;&gt;Node8 -->
<g id="edge7_Node000002_Node000008" class="edge">
<title>Node2&#45;&gt;Node8</title>
<g id="a_edge7_Node000002_Node000008"><a xlink:title=" ">
<path fill="none" stroke="#63b8ff" d="M353.73,-117.58C388.28,-105.23 433.13,-89.19 460.18,-79.52"/>
<polygon fill="#63b8ff" stroke="#63b8ff" points="352.52,-114.29 344.28,-120.95 354.88,-120.88 352.52,-114.29"/>
</a>
</g>
</g>
<!-- Node4 -->
<g id="Node000004" class="node">
<title>Node4</title>
<g id="a_Node000004"><a xlink:href="AppLayer_8cpp.html" target="_top" xlink:title=" ">
<polygon fill="white" stroke="#666666" points="140,-19 0,-19 0,0 140,0 140,-19"/>
<text text-anchor="middle" x="70" y="-7" font-family="Helvetica,sans-Serif" font-size="10.00">App/Source/AppLayer.cpp</text>
</a>
</g>
</g>
<!-- Node3&#45;&gt;Node4 -->
<g id="edge3_Node000003_Node000004" class="edge">
<title>Node3&#45;&gt;Node4</title>
<g id="a_edge3_Node000003_Node000004"><a xlink:title=" ">
<path fill="none" stroke="#63b8ff" d="M266.95,-58.11C220.18,-46.8 148,-29.35 105.23,-19.02"/>
<polygon fill="#63b8ff" stroke="#63b8ff" points="266.27,-61.55 276.81,-60.49 267.91,-54.74 266.27,-61.55"/>
</a>
</g>
</g>
<!-- Node5 -->
<g id="Node000005" class="node">
<title>Node5</title>
<g id="a_Node000005"><a xlink:href="RunApp_8cpp.html" target="_top" xlink:title=" ">
<polygon fill="white" stroke="#666666" points="290,-19 158,-19 158,0 290,0 290,-19"/>
<text text-anchor="middle" x="224" y="-7" font-family="Helvetica,sans-Serif" font-size="10.00">App/Source/RunApp.cpp</text>
</a>
</g>
</g>
<!-- Node3&#45;&gt;Node5 -->
<g id="edge4_Node000003_Node000005" class="edge">
<title>Node3&#45;&gt;Node5</title>
<g id="a_edge4_Node000003_Node000005"><a xlink:title=" ">
<path fill="none" stroke="#63b8ff" d="M290.43,-54.66C273.71,-43.55 251.1,-28.51 237.04,-19.17"/>
<polygon fill="#63b8ff" stroke="#63b8ff" points="288.75,-57.75 299.02,-60.37 292.63,-51.92 288.75,-57.75"/>
</a>
</g>
</g>
<!-- Node6 -->
<g id="Node000006" class="node">
<title>Node6</title>
<g id="a_Node000006"><a xlink:href="Application_8cpp.html" target="_top" xlink:title=" ">
<polygon fill="white" stroke="#666666" points="461.5,-19 308.5,-19 308.5,0 461.5,0 461.5,-19"/>
<text text-anchor="middle" x="385" y="-7" font-family="Helvetica,sans-Serif" font-size="10.00">Core/Source/Application.cpp</text>
</a>
</g>
</g>
<!-- Node3&#45;&gt;Node6 -->
<g id="edge5_Node000003_Node000006" class="edge">
<title>Node3&#45;&gt;Node6</title>
<g id="a_edge5_Node000003_Node000006"><a xlink:title=" ">
<path fill="none" stroke="#63b8ff" d="M330.67,-54.04C344.46,-42.99 362.74,-28.34 374.18,-19.17"/>
<polygon fill="#63b8ff" stroke="#63b8ff" points="328.39,-51.38 322.77,-60.37 332.76,-56.85 328.39,-51.38"/>
</a>
</g>
</g>
<!-- Node7 -->
<g id="Node000007" class="node">
<title>Node7</title>
<g id="a_Node000007"><a xlink:href="Input_8cpp.html" target="_top" xlink:title=" ">
<polygon fill="white" stroke="#666666" points="602.5,-19 479.5,-19 479.5,0 602.5,0 602.5,-19"/>
<text text-anchor="middle" x="541" y="-7" font-family="Helvetica,sans-Serif" font-size="10.00">Core/Source/Input.cpp</text>
</a>
</g>
</g>
<!-- Node3&#45;&gt;Node7 -->
<g id="edge6_Node000003_Node000007" class="edge">
<title>Node3&#45;&gt;Node7</title>
<g id="a_edge6_Node000003_Node000007"><a xlink:title=" ">
<path fill="none" stroke="#63b8ff" d="M355.19,-57.97C399.46,-46.66 467.36,-29.31 507.66,-19.02"/>
<polygon fill="#63b8ff" stroke="#63b8ff" points="354.12,-54.63 345.3,-60.49 355.85,-61.41 354.12,-54.63"/>
</a>
</g>
</g>
<!-- Node9&#45;&gt;Node3 -->
<g id="edge9_Node000009_Node000003" class="edge">
<title>Node9&#45;&gt;Node3</title>
<g id="a_edge9_Node000009_Node000003"><a xlink:title=" ">
<path fill="none" stroke="#63b8ff" d="M415.72,-116.78C388,-104.54 352.74,-88.98 331.3,-79.52"/>
<polygon fill="#63b8ff" stroke="#63b8ff" points="414.62,-120.12 425.18,-120.95 417.44,-113.71 414.62,-120.12"/>
</a>
</g>
</g>
<!-- Node9&#45;&gt;Node8 -->
<g id="edge10_Node000009_Node000008" class="edge">
<title>Node9&#45;&gt;Node8</title>
<g id="a_edge10_Node000009_Node000008"><a xlink:title=" ">
<path fill="none" stroke="#63b8ff" d="M467.01,-111.28C471.64,-100.31 476.85,-87.94 480.27,-79.84"/>
<polygon fill="#63b8ff" stroke="#63b8ff" points="463.65,-110.22 462.99,-120.8 470.1,-112.94 463.65,-110.22"/>
</a>
</g>
</g>
<!-- Node11&#45;&gt;Node3 -->
<g id="edge16_Node000011_Node000003" class="edge">
<title>Node11&#45;&gt;Node3</title>
<g id="a_edge16_Node000011_Node000003"><a xlink:title=" ">
<path fill="none" stroke="#63b8ff" d="M180.39,-122.68C212.6,-110.03 261.88,-90.68 290.11,-79.6"/>
<polygon fill="#63b8ff" stroke="#63b8ff" points="179.01,-119.46 170.98,-126.37 181.57,-125.97 179.01,-119.46"/>
</a>
</g>
</g>
<!-- Node12 -->
<g id="Node000012" class="node">
<title>Node12</title>
<g id="a_Node000012"><a xlink:href="AppLayer_8h.html" target="_top" xlink:title=" ">
<polygon fill="white" stroke="#666666" points="208.5,-85 77.5,-85 77.5,-55 208.5,-55 208.5,-85"/>
<text text-anchor="start" x="85.5" y="-73" font-family="Helvetica,sans-Serif" font-size="10.00">App/Include/Application</text>
<text text-anchor="middle" x="143" y="-62" font-family="Helvetica,sans-Serif" font-size="10.00">/AppLayer.h</text>
</a>
</g>
</g>
<!-- Node11&#45;&gt;Node12 -->
<g id="edge13_Node000011_Node000012" class="edge">
<title>Node11&#45;&gt;Node12</title>
<g id="a_edge13_Node000011_Node000012"><a xlink:title=" ">
<path fill="none" stroke="#63b8ff" d="M147.25,-116.35C146.32,-106.47 145.2,-94.51 144.35,-85.36"/>
<polygon fill="#63b8ff" stroke="#63b8ff" points="143.77,-116.74 148.19,-126.37 150.74,-116.09 143.77,-116.74"/>
</a>
</g>
</g>
<!-- Node12&#45;&gt;Node4 -->
<g id="edge14_Node000012_Node000004" class="edge">
<title>Node12&#45;&gt;Node4</title>
<g id="a_edge14_Node000012_Node000004"><a xlink:title=" ">
<path fill="none" stroke="#63b8ff" d="M117.46,-48.53C104.96,-38.51 90.57,-26.98 80.94,-19.27"/>
<polygon fill="#63b8ff" stroke="#63b8ff" points="115.34,-51.32 125.33,-54.84 119.71,-45.85 115.34,-51.32"/>
</a>
</g>
</g>
<!-- Node12&#45;&gt;Node5 -->
<g id="edge15_Node000012_Node000005" class="edge">
<title>Node12&#45;&gt;Node5</title>
<g id="a_edge15_Node000012_Node000005"><a xlink:title=" ">
<path fill="none" stroke="#63b8ff" d="M170.95,-48.82C184.91,-38.73 201.08,-27.05 211.86,-19.27"/>
<polygon fill="#63b8ff" stroke="#63b8ff" points="168.67,-46.15 162.61,-54.84 172.76,-51.82 168.67,-46.15"/>
</a>
</g>
</g>
<!-- Node13&#45;&gt;Node3 -->
<g id="edge18_Node000013_Node000003" class="edge">
<title>Node13&#45;&gt;Node3</title>
<g id="a_edge18_Node000013_Node000003"><a xlink:title=" ">
<path fill="none" stroke="#63b8ff" d="M567.84,-124.34C507.48,-111.75 408.32,-91.08 352.84,-79.51"/>
<polygon fill="#63b8ff" stroke="#63b8ff" points="567.41,-127.82 577.92,-126.44 568.84,-120.97 567.41,-127.82"/>
</a>
</g>
</g>
<!-- Node13&#45;&gt;Node8 -->
<g id="edge19_Node000013_Node000008" class="edge">
<title>Node13&#45;&gt;Node8</title>
<g id="a_edge19_Node000013_Node000008"><a xlink:title=" ">
<path fill="none" stroke="#63b8ff" d="M591.64,-122.03C565.03,-109.42 525.37,-90.61 502.35,-79.7"/>
<polygon fill="#63b8ff" stroke="#63b8ff" points="590.26,-125.25 600.79,-126.37 593.26,-118.92 590.26,-125.25"/>
</a>
</g>
</g>
</g>
</svg>
