<?xml version="1.0" encoding="UTF-8" standalone="no"?>
<!DOCTYPE svg PUBLIC "-//W3C//DTD SVG 1.1//EN"
 "http://www.w3.org/Graphics/SVG/1.1/DTD/svg11.dtd">
<!-- Generated by graphviz version 2.43.0 (0)
 -->
<!-- Title: Core/Include/Core/Event/Event.h Pages: 1 -->
<svg width="846pt" height="225pt"
 viewBox="0.00 0.00 845.50 225.00" xmlns="http://www.w3.org/2000/svg" xmlns:xlink="http://www.w3.org/1999/xlink">
<g id="graph0" class="graph" transform="scale(1 1) rotate(0) translate(4 221)">
<title>Core/Include/Core/Event/Event.h</title>
<!-- Node1 -->
<g id="Node000001" class="node">
<title>Node1</title>
<g id="a_Node000001"><a xlink:title=" ">
<polygon fill="#999999" stroke="#666666" points="362,-217 228,-217 228,-187 362,-187 362,-217"/>
<text text-anchor="start" x="236" y="-205" font-family="Helvetica,sans-Serif" font-size="10.00">Core/Include/Core/Event</text>
<text text-anchor="middle" x="295" y="-194" font-family="Helvetica,sans-Serif" font-size="10.00">/Event.h</text>
</a>
</g>
</g>
<!-- Node2 -->
<g id="Node000002" class="node">
<title>Node2</title>
<g id="a_Node000002"><a xlink:href="ApplicationEvent_8h.html" target="_top" xlink:title=" ">
<polygon fill="white" stroke="#666666" points="134,-151 0,-151 0,-121 134,-121 134,-151"/>
<text text-anchor="start" x="8" y="-139" font-family="Helvetica,sans-Serif" font-size="10.00">Core/Include/Core/Event</text>
<text text-anchor="middle" x="67" y="-128" font-family="Helvetica,sans-Serif" font-size="10.00">/ApplicationEvent.h</text>
</a>
</g>
</g>
<!-- Node1&#45;&gt;Node2 -->
<g id="edge1_Node000001_Node000002" class="edge">
<title>Node1&#45;&gt;Node2</title>
<g id="a_edge1_Node000001_Node000002"><a xlink:title=" ">
<path fill="none" stroke="#63b8ff" d="M234.87,-184.12C198.11,-173.8 151.64,-160.76 116.92,-151.01"/>
<polygon fill="#63b8ff" stroke="#63b8ff" points="234.39,-187.62 244.96,-186.95 236.28,-180.88 234.39,-187.62"/>
</a>
</g>
</g>
<!-- Node3 -->
<g id="Node000003" class="node">
<title>Node3</title>
<g id="a_Node000003"><a xlink:href="KeyEvents_8h.html" target="_top" xlink:title=" ">
<polygon fill="white" stroke="#666666" points="286,-151 152,-151 152,-121 286,-121 286,-151"/>
<text text-anchor="start" x="160" y="-139" font-family="Helvetica,sans-Serif" font-size="10.00">Core/Include/Core/Event</text>
<text text-anchor="middle" x="219" y="-128" font-family="Helvetica,sans-Serif" font-size="10.00">/KeyEvents.h</text>
</a>
</g>
</g>
<!-- Node1&#45;&gt;Node3 -->
<g id="edge2_Node000001_Node000003" class="edge">
<title>Node1&#45;&gt;Node3</title>
<g id="a_edge2_Node000001_Node000003"><a xlink:title=" ">
<path fill="none" stroke="#63b8ff" d="M270.3,-180.2C259.02,-170.7 245.95,-159.69 235.82,-151.16"/>
<polygon fill="#63b8ff" stroke="#63b8ff" points="268.23,-183.03 278.13,-186.8 272.74,-177.68 268.23,-183.03"/>
</a>
</g>
</g>
<!-- Node4 -->
<g id="Node000004" class="node">
<title>Node4</title>
<g id="a_Node000004"><a xlink:href="MouseEvents_8h.html" target="_top" xlink:title=" ">
<polygon fill="white" stroke="#666666" points="438,-151 304,-151 304,-121 438,-121 438,-151"/>
<text text-anchor="start" x="312" y="-139" font-family="Helvetica,sans-Serif" font-size="10.00">Core/Include/Core/Event</text>
<text text-anchor="middle" x="371" y="-128" font-family="Helvetica,sans-Serif" font-size="10.00">/MouseEvents.h</text>
</a>
</g>
</g>
<!-- Node1&#45;&gt;Node4 -->
<g id="edge3_Node000001_Node000004" class="edge">
<title>Node1&#45;&gt;Node4</title>
<g id="a_edge3_Node000001_Node000004"><a xlink:title=" ">
<path fill="none" stroke="#63b8ff" d="M319.7,-180.2C330.98,-170.7 344.05,-159.69 354.18,-151.16"/>
<polygon fill="#63b8ff" stroke="#63b8ff" points="317.26,-177.68 311.87,-186.8 321.77,-183.03 317.26,-177.68"/>
</a>
</g>
</g>
<!-- Node5 -->
<g id="Node000005" class="node">
<title>Node5</title>
<g id="a_Node000005"><a xlink:href="Layer_8h.html" target="_top" xlink:title=" ">
<polygon fill="white" stroke="#666666" points="597.5,-145.5 456.5,-145.5 456.5,-126.5 597.5,-126.5 597.5,-145.5"/>
<text text-anchor="middle" x="527" y="-133.5" font-family="Helvetica,sans-Serif" font-size="10.00">Core/Include/Core/Layer.h</text>
</a>
</g>
</g>
<!-- Node1&#45;&gt;Node5 -->
<g id="edge4_Node000001_Node000005" class="edge">
<title>Node1&#45;&gt;Node5</title>
<g id="a_edge4_Node000001_Node000005"><a xlink:title=" ">
<path fill="none" stroke="#63b8ff" d="M355.59,-184.29C400.69,-171.84 460.39,-155.37 496.12,-145.52"/>
<polygon fill="#63b8ff" stroke="#63b8ff" points="354.62,-180.92 345.91,-186.95 356.48,-187.67 354.62,-180.92"/>
</a>
</g>
</g>
<!-- Node6 -->
<g id="Node000006" class="node">
<title>Node6</title>
<g id="a_Node000006"><a xlink:href="AppLayer_8h.html" target="_top" xlink:title=" ">
<polygon fill="white" stroke="#666666" points="507.5,-85 376.5,-85 376.5,-55 507.5,-55 507.5,-85"/>
<text text-anchor="start" x="384.5" y="-73" font-family="Helvetica,sans-Serif" font-size="10.00">App/Include/Application</text>
<text text-anchor="middle" x="442" y="-62" font-family="Helvetica,sans-Serif" font-size="10.00">/AppLayer.h</text>
</a>
</g>
</g>
<!-- Node5&#45;&gt;Node6 -->
<g id="edge5_Node000005_Node000006" class="edge">
<title>Node5&#45;&gt;Node6</title>
<g id="a_edge5_Node000005_Node000006"><a xlink:title=" ">
<path fill="none" stroke="#63b8ff" d="M507.5,-120.32C493.45,-109.74 474.62,-95.56 460.75,-85.12"/>
<polygon fill="#63b8ff" stroke="#63b8ff" points="505.44,-123.15 515.54,-126.37 509.65,-117.56 505.44,-123.15"/>
</a>
</g>
</g>
<!-- Node9 -->
<g id="Node000009" class="node">
<title>Node9</title>
<g id="a_Node000009"><a xlink:href="Application_8h.html" target="_top" xlink:title=" ">
<polygon fill="white" stroke="#666666" points="696,-79.5 526,-79.5 526,-60.5 696,-60.5 696,-79.5"/>
<text text-anchor="middle" x="611" y="-67.5" font-family="Helvetica,sans-Serif" font-size="10.00">Core/Include/Core/Application.h</text>
</a>
</g>
</g>
<!-- Node5&#45;&gt;Node9 -->
<g id="edge8_Node000005_Node000009" class="edge">
<title>Node5&#45;&gt;Node9</title>
<g id="a_edge8_Node000005_Node000009"><a xlink:title=" ">
<path fill="none" stroke="#63b8ff" d="M546.7,-119.99C563.15,-107.46 586.01,-90.04 599.58,-79.7"/>
<polygon fill="#63b8ff" stroke="#63b8ff" points="544.16,-117.52 538.33,-126.37 548.4,-123.09 544.16,-117.52"/>
</a>
</g>
</g>
<!-- Node7 -->
<g id="Node000007" class="node">
<title>Node7</title>
<g id="a_Node000007"><a xlink:href="AppLayer_8cpp.html" target="_top" xlink:title=" ">
<polygon fill="white" stroke="#666666" points="666,-19 526,-19 526,0 666,0 666,-19"/>
<text text-anchor="middle" x="596" y="-7" font-family="Helvetica,sans-Serif" font-size="10.00">App/Source/AppLayer.cpp</text>
</a>
</g>
</g>
<!-- Node6&#45;&gt;Node7 -->
<g id="edge6_Node000006_Node000007" class="edge">
<title>Node6&#45;&gt;Node7</title>
<g id="a_edge6_Node000006_Node000007"><a xlink:title=" ">
<path fill="none" stroke="#63b8ff" d="M488.51,-51.33C516.55,-40.68 551.03,-27.58 573.26,-19.14"/>
<polygon fill="#63b8ff" stroke="#63b8ff" points="486.99,-48.16 478.89,-54.99 489.48,-54.71 486.99,-48.16"/>
</a>
</g>
</g>
<!-- Node8 -->
<g id="Node000008" class="node">
<title>Node8</title>
<g id="a_Node000008"><a xlink:href="RunApp_8cpp.html" target="_top" xlink:title=" ">
<polygon fill="white" stroke="#666666" points="508,-19 376,-19 376,0 508,0 508,-19"/>
<text text-anchor="middle" x="442" y="-7" font-family="Helvetica,sans-Serif" font-size="10.00">App/Source/RunApp.cpp</text>
</a>
</g>
</g>
<!-- Node6&#45;&gt;Node8 -->
<g id="edge7_Node000006_Node000008" class="edge">
<title>Node6&#45;&gt;Node8</title>
<g id="a_edge7_Node000006_Node000008"><a xlink:title=" ">
<path fill="none" stroke="#63b8ff" d="M442,-44.75C442,-35.72 442,-26.03 442,-19.27"/>
<polygon fill="#63b8ff" stroke="#63b8ff" points="438.5,-44.84 442,-54.84 445.5,-44.84 438.5,-44.84"/>
</a>
</g>
</g>
<!-- Node9&#45;&gt;Node7 -->
<g id="edge9_Node000009_Node000007" class="edge">
<title>Node9&#45;&gt;Node7</title>
<g id="a_edge9_Node000009_Node000007"><a xlink:title=" ">
<path fill="none" stroke="#63b8ff" d="M606.25,-50.49C603.57,-40.01 600.33,-27.39 598.22,-19.17"/>
<polygon fill="#63b8ff" stroke="#63b8ff" points="602.91,-51.55 608.79,-60.37 609.69,-49.81 602.91,-51.55"/>
</a>
</g>
</g>
<!-- Node9&#45;&gt;Node8 -->
<g id="edge10_Node000009_Node000008" class="edge">
<title>Node9&#45;&gt;Node8</title>
<g id="a_edge10_Node000009_Node000008"><a xlink:title=" ">
<path fill="none" stroke="#63b8ff" d="M576.83,-57.17C544.14,-45.86 495.65,-29.07 466.6,-19.02"/>
<polygon fill="#63b8ff" stroke="#63b8ff" points="575.83,-60.53 586.43,-60.49 578.12,-53.91 575.83,-60.53"/>
</a>
</g>
</g>
<!-- Node10 -->
<g id="Node000010" class="node">
<title>Node10</title>
<g id="a_Node000010"><a xlink:href="Application_8cpp.html" target="_top" xlink:title=" ">
<polygon fill="white" stroke="#666666" points="837.5,-19 684.5,-19 684.5,0 837.5,0 837.5,-19"/>
<text text-anchor="middle" x="761" y="-7" font-family="Helvetica,sans-Serif" font-size="10.00">Core/Source/Application.cpp</text>
</a>
</g>
</g>
<!-- Node9&#45;&gt;Node10 -->
<g id="edge11_Node000009_Node000010" class="edge">
<title>Node9&#45;&gt;Node10</title>
<g id="a_edge11_Node000009_Node000010"><a xlink:title=" ">
<path fill="none" stroke="#63b8ff" d="M642.46,-56.73C671.45,-45.42 713.71,-28.94 739.16,-19.02"/>
<polygon fill="#63b8ff" stroke="#63b8ff" points="640.86,-53.6 632.81,-60.49 643.4,-60.12 640.86,-53.6"/>
</a>
</g>
</g>
</g>
</svg>
