<?xml version="1.0" encoding="UTF-8" standalone="no"?>
<!DOCTYPE svg PUBLIC "-//W3C//DTD SVG 1.1//EN"
 "http://www.w3.org/Graphics/SVG/1.1/DTD/svg11.dtd">
<!-- Generated by graphviz version 2.43.0 (0)
 -->
<!-- Title: App/Include/Application/ExtraDataTypes.h Pages: 1 -->
<svg width="1201pt" height="148pt"
 viewBox="0.00 0.00 1200.50 148.00" xmlns="http://www.w3.org/2000/svg" xmlns:xlink="http://www.w3.org/1999/xlink">
<g id="graph0" class="graph" transform="scale(1 1) rotate(0) translate(4 144)">
<title>App/Include/Application/ExtraDataTypes.h</title>
<!-- Node1 -->
<g id="Node000001" class="node">
<title>Node1</title>
<g id="a_Node000001"><a xlink:title=" ">
<polygon fill="#999999" stroke="#666666" points="1100.5,-140 969.5,-140 969.5,-110 1100.5,-110 1100.5,-140"/>
<text text-anchor="start" x="977.5" y="-128" font-family="Helvetica,sans-Serif" font-size="10.00">App/Include/Application</text>
<text text-anchor="middle" x="1035" y="-117" font-family="Helvetica,sans-Serif" font-size="10.00">/ExtraDataTypes.h</text>
</a>
</g>
</g>
<!-- Node2 -->
<g id="Node000002" class="node">
<title>Node2</title>
<g id="a_Node000002"><a xlink:href="BaseTypes_8h.html" target="_top" xlink:title=" ">
<polygon fill="white" stroke="#666666" points="825.5,-74 722.5,-74 722.5,-55 825.5,-55 825.5,-74"/>
<text text-anchor="middle" x="774" y="-62" font-family="Helvetica,sans-Serif" font-size="10.00">Core/BaseTypes.h</text>
</a>
</g>
</g>
<!-- Node1&#45;&gt;Node2 -->
<g id="edge1_Node000001_Node000002" class="edge">
<title>Node1&#45;&gt;Node2</title>
<g id="a_edge1_Node000001_Node000002"><a xlink:title=" ">
<path fill="none" stroke="#63b8ff" d="M972.48,-109.99C926.27,-99.63 864.28,-85.73 821.95,-76.25"/>
<polygon fill="#63b8ff" stroke="#63b8ff" points="822.69,-72.83 812.16,-74.05 821.15,-79.66 822.69,-72.83"/>
</a>
</g>
</g>
<!-- Node12 -->
<g id="Node000012" class="node">
<title>Node12</title>
<g id="a_Node000012"><a xlink:title=" ">
<polygon fill="#e0e0e0" stroke="#999999" points="1192.5,-19 1145.5,-19 1145.5,0 1192.5,0 1192.5,-19"/>
<text text-anchor="middle" x="1169" y="-7" font-family="Helvetica,sans-Serif" font-size="10.00">vector</text>
</a>
</g>
</g>
<!-- Node1&#45;&gt;Node12 -->
<g id="edge14_Node000001_Node000012" class="edge">
<title>Node1&#45;&gt;Node12</title>
<g id="a_edge14_Node000001_Node000012"><a xlink:title=" ">
<path fill="none" stroke="#63b8ff" d="M1029.03,-109.84C1023.71,-94.75 1018.39,-70.91 1030,-55 1033.23,-50.58 1095.47,-31.84 1135.56,-20.13"/>
<polygon fill="#63b8ff" stroke="#63b8ff" points="1136.6,-23.48 1145.22,-17.32 1134.64,-16.76 1136.6,-23.48"/>
</a>
</g>
</g>
<!-- Node13 -->
<g id="Node000013" class="node">
<title>Node13</title>
<g id="a_Node000013"><a xlink:title=" ">
<polygon fill="#e0e0e0" stroke="#999999" points="1081,-74 1039,-74 1039,-55 1081,-55 1081,-74"/>
<text text-anchor="middle" x="1060" y="-62" font-family="Helvetica,sans-Serif" font-size="10.00">array</text>
</a>
</g>
</g>
<!-- Node1&#45;&gt;Node13 -->
<g id="edge12_Node000001_Node000013" class="edge">
<title>Node1&#45;&gt;Node13</title>
<g id="a_edge12_Node000001_Node000013"><a xlink:title=" ">
<path fill="none" stroke="#63b8ff" d="M1041.05,-109.84C1044.42,-101.95 1048.65,-92.05 1052.26,-83.61"/>
<polygon fill="#63b8ff" stroke="#63b8ff" points="1055.54,-84.84 1056.25,-74.27 1049.11,-82.09 1055.54,-84.84"/>
</a>
</g>
</g>
<!-- Node14 -->
<g id="Node000014" class="node">
<title>Node14</title>
<g id="a_Node000014"><a xlink:title=" ">
<polygon fill="#e0e0e0" stroke="#999999" points="1143,-74 1099,-74 1099,-55 1143,-55 1143,-74"/>
<text text-anchor="middle" x="1121" y="-62" font-family="Helvetica,sans-Serif" font-size="10.00">string</text>
</a>
</g>
</g>
<!-- Node1&#45;&gt;Node14 -->
<g id="edge13_Node000001_Node000014" class="edge">
<title>Node1&#45;&gt;Node14</title>
<g id="a_edge13_Node000001_Node000014"><a xlink:title=" ">
<path fill="none" stroke="#63b8ff" d="M1055.82,-109.84C1069.15,-100.77 1086.39,-89.04 1099.79,-79.92"/>
<polygon fill="#63b8ff" stroke="#63b8ff" points="1102.07,-82.61 1108.37,-74.09 1098.13,-76.83 1102.07,-82.61"/>
</a>
</g>
</g>
<!-- Node3 -->
<g id="Node000003" class="node">
<title>Node3</title>
<g id="a_Node000003"><a xlink:title=" ">
<polygon fill="#e0e0e0" stroke="#999999" points="78,-19 0,-19 0,0 78,0 78,-19"/>
<text text-anchor="middle" x="39" y="-7" font-family="Helvetica,sans-Serif" font-size="10.00">glm/glm.hpp</text>
</a>
</g>
</g>
<!-- Node2&#45;&gt;Node3 -->
<g id="edge2_Node000002_Node000003" class="edge">
<title>Node2&#45;&gt;Node3</title>
<g id="a_edge2_Node000002_Node000003"><a xlink:title=" ">
<path fill="none" stroke="#63b8ff" d="M722.11,-62.1C608.85,-58.61 330.87,-47.77 88.31,-19.02"/>
<polygon fill="#63b8ff" stroke="#63b8ff" points="88.59,-15.53 78.24,-17.81 87.75,-22.48 88.59,-15.53"/>
</a>
</g>
</g>
<!-- Node4 -->
<g id="Node000004" class="node">
<title>Node4</title>
<g id="a_Node000004"><a xlink:title=" ">
<polygon fill="#e0e0e0" stroke="#999999" points="259.5,-19 96.5,-19 96.5,0 259.5,0 259.5,-19"/>
<text text-anchor="middle" x="178" y="-7" font-family="Helvetica,sans-Serif" font-size="10.00">glm/gtc/matrix_transform.hpp</text>
</a>
</g>
</g>
<!-- Node2&#45;&gt;Node4 -->
<g id="edge3_Node000002_Node000004" class="edge">
<title>Node2&#45;&gt;Node4</title>
<g id="a_edge3_Node000002_Node000004"><a xlink:title=" ">
<path fill="none" stroke="#63b8ff" d="M722.38,-59.04C632.71,-51.28 442.1,-34.68 269.86,-19.07"/>
<polygon fill="#63b8ff" stroke="#63b8ff" points="270.13,-15.58 259.85,-18.17 269.49,-22.55 270.13,-15.58"/>
</a>
</g>
</g>
<!-- Node5 -->
<g id="Node000005" class="node">
<title>Node5</title>
<g id="a_Node000005"><a xlink:title=" ">
<polygon fill="#e0e0e0" stroke="#999999" points="408,-19 278,-19 278,0 408,0 408,-19"/>
<text text-anchor="middle" x="343" y="-7" font-family="Helvetica,sans-Serif" font-size="10.00">glm/gtc/quaternion.hpp</text>
</a>
</g>
</g>
<!-- Node2&#45;&gt;Node5 -->
<g id="edge4_Node000002_Node000005" class="edge">
<title>Node2&#45;&gt;Node5</title>
<g id="a_edge4_Node000002_Node000005"><a xlink:title=" ">
<path fill="none" stroke="#63b8ff" d="M722.44,-57.16C646.89,-47.87 505.65,-30.5 418.43,-19.78"/>
<polygon fill="#63b8ff" stroke="#63b8ff" points="418.68,-16.28 408.33,-18.53 417.83,-23.23 418.68,-16.28"/>
</a>
</g>
</g>
<!-- Node6 -->
<g id="Node000006" class="node">
<title>Node6</title>
<g id="a_Node000006"><a xlink:title=" ">
<polygon fill="#e0e0e0" stroke="#999999" points="543.5,-19 426.5,-19 426.5,0 543.5,0 543.5,-19"/>
<text text-anchor="middle" x="485" y="-7" font-family="Helvetica,sans-Serif" font-size="10.00">glm/gtc/type_ptr.hpp</text>
</a>
</g>
</g>
<!-- Node2&#45;&gt;Node6 -->
<g id="edge5_Node000002_Node000006" class="edge">
<title>Node2&#45;&gt;Node6</title>
<g id="a_edge5_Node000002_Node000006"><a xlink:title=" ">
<path fill="none" stroke="#63b8ff" d="M727.57,-54.98C677.05,-45.72 596.26,-30.9 541.95,-20.94"/>
<polygon fill="#63b8ff" stroke="#63b8ff" points="542.26,-17.44 531.8,-19.08 541,-24.33 542.26,-17.44"/>
</a>
</g>
</g>
<!-- Node7 -->
<g id="Node000007" class="node">
<title>Node7</title>
<g id="a_Node000007"><a xlink:title=" ">
<polygon fill="#e0e0e0" stroke="#999999" points="692.5,-19 561.5,-19 561.5,0 692.5,0 692.5,-19"/>
<text text-anchor="middle" x="627" y="-7" font-family="Helvetica,sans-Serif" font-size="10.00">glm/gtx/quaternion.hpp</text>
</a>
</g>
</g>
<!-- Node2&#45;&gt;Node7 -->
<g id="edge6_Node000002_Node000007" class="edge">
<title>Node2&#45;&gt;Node7</title>
<g id="a_edge6_Node000002_Node000007"><a xlink:title=" ">
<path fill="none" stroke="#63b8ff" d="M750.38,-54.98C726.1,-46.23 688.05,-32.51 660.63,-22.62"/>
<polygon fill="#63b8ff" stroke="#63b8ff" points="661.64,-19.27 651.05,-19.17 659.27,-25.85 661.64,-19.27"/>
</a>
</g>
</g>
<!-- Node8 -->
<g id="Node000008" class="node">
<title>Node8</title>
<g id="a_Node000008"><a xlink:title=" ">
<polygon fill="#e0e0e0" stroke="#999999" points="837,-19 711,-19 711,0 837,0 837,-19"/>
<text text-anchor="middle" x="774" y="-7" font-family="Helvetica,sans-Serif" font-size="10.00">glm/gtx/transform.hpp</text>
</a>
</g>
</g>
<!-- Node2&#45;&gt;Node8 -->
<g id="edge7_Node000002_Node000008" class="edge">
<title>Node2&#45;&gt;Node8</title>
<g id="a_edge7_Node000002_Node000008"><a xlink:title=" ">
<path fill="none" stroke="#63b8ff" d="M774,-54.75C774,-47.8 774,-37.85 774,-29.13"/>
<polygon fill="#63b8ff" stroke="#63b8ff" points="777.5,-29.09 774,-19.09 770.5,-29.09 777.5,-29.09"/>
</a>
</g>
</g>
<!-- Node9 -->
<g id="Node000009" class="node">
<title>Node9</title>
<g id="a_Node000009"><a xlink:title=" ">
<polygon fill="#e0e0e0" stroke="#999999" points="996.5,-19 855.5,-19 855.5,0 996.5,0 996.5,-19"/>
<text text-anchor="middle" x="926" y="-7" font-family="Helvetica,sans-Serif" font-size="10.00">glm/gtx/vector_angle.hpp</text>
</a>
</g>
</g>
<!-- Node2&#45;&gt;Node9 -->
<g id="edge8_Node000002_Node000009" class="edge">
<title>Node2&#45;&gt;Node9</title>
<g id="a_edge8_Node000002_Node000009"><a xlink:title=" ">
<path fill="none" stroke="#63b8ff" d="M798.42,-54.98C823.72,-46.16 863.45,-32.31 891.86,-22.41"/>
<polygon fill="#63b8ff" stroke="#63b8ff" points="893.1,-25.68 901.39,-19.08 890.79,-19.07 893.1,-25.68"/>
</a>
</g>
</g>
<!-- Node10 -->
<g id="Node000010" class="node">
<title>Node10</title>
<g id="a_Node000010"><a xlink:title=" ">
<polygon fill="#e0e0e0" stroke="#999999" points="1059,-19 1015,-19 1015,0 1059,0 1059,-19"/>
<text text-anchor="middle" x="1037" y="-7" font-family="Helvetica,sans-Serif" font-size="10.00">bitset</text>
</a>
</g>
</g>
<!-- Node2&#45;&gt;Node10 -->
<g id="edge9_Node000002_Node000010" class="edge">
<title>Node2&#45;&gt;Node10</title>
<g id="a_edge9_Node000002_Node000010"><a xlink:title=" ">
<path fill="none" stroke="#63b8ff" d="M824.47,-54.99C869.42,-47.15 937.17,-34.69 1004.74,-19.15"/>
<polygon fill="#63b8ff" stroke="#63b8ff" points="1005.75,-22.51 1014.7,-16.84 1004.17,-15.69 1005.75,-22.51"/>
</a>
</g>
</g>
<!-- Node11 -->
<g id="Node000011" class="node">
<title>Node11</title>
<g id="a_Node000011"><a xlink:title=" ">
<polygon fill="#e0e0e0" stroke="#999999" points="1127,-19 1077,-19 1077,0 1127,0 1127,-19"/>
<text text-anchor="middle" x="1102" y="-7" font-family="Helvetica,sans-Serif" font-size="10.00">cstdint</text>
</a>
</g>
</g>
<!-- Node2&#45;&gt;Node11 -->
<g id="edge10_Node000002_Node000011" class="edge">
<title>Node2&#45;&gt;Node11</title>
<g id="a_edge10_Node000002_Node000011"><a xlink:title=" ">
<path fill="none" stroke="#63b8ff" d="M825.51,-57.21C882.34,-49.93 976.67,-36.86 1066.96,-19.05"/>
<polygon fill="#63b8ff" stroke="#63b8ff" points="1067.69,-22.47 1076.81,-17.08 1066.32,-15.6 1067.69,-22.47"/>
</a>
</g>
</g>
<!-- Node2&#45;&gt;Node12 -->
<g id="edge11_Node000002_Node000012" class="edge">
<title>Node2&#45;&gt;Node12</title>
<g id="a_edge11_Node000002_Node000012"><a xlink:title=" ">
<path fill="none" stroke="#63b8ff" d="M825.58,-59.28C894.1,-53.21 1019.02,-40.52 1135.16,-18.91"/>
<polygon fill="#63b8ff" stroke="#63b8ff" points="1136.11,-22.29 1145.29,-17 1134.81,-15.41 1136.11,-22.29"/>
</a>
</g>
</g>
</g>
</svg>
