<?xml version="1.0" encoding="UTF-8" standalone="no"?>
<!DOCTYPE svg PUBLIC "-//W3C//DTD SVG 1.1//EN"
 "http://www.w3.org/Graphics/SVG/1.1/DTD/svg11.dtd">
<!-- Generated by graphviz version 2.43.0 (0)
 -->
<!-- Title: Graphical Class Hierarchy Pages: 1 -->
<svg width="596pt" height="369pt"
 viewBox="0.00 0.00 596.00 368.50" xmlns="http://www.w3.org/2000/svg" xmlns:xlink="http://www.w3.org/1999/xlink">
<g id="graph0" class="graph" transform="scale(1 1) rotate(0) translate(4 364.5)">
<title>Graphical Class Hierarchy</title>
<!-- Node0 -->
<g id="Node000000" class="node">
<title>Node0</title>
<g id="a_Node000000"><a xlink:href="classData_1_1ExtraData_1_1BaseExtraDataType.html" target="_top" xlink:title="Base class for extra data type.">
<polygon fill="white" stroke="#666666" points="150,-175 0,-175 0,-145 150,-145 150,-175"/>
<text text-anchor="start" x="8" y="-163" font-family="Helvetica,sans-Serif" font-size="10.00">Data::ExtraData::BaseExtra</text>
<text text-anchor="middle" x="75" y="-152" font-family="Helvetica,sans-Serif" font-size="10.00">DataType</text>
</a>
</g>
</g>
<!-- Node1 -->
<g id="Node000001" class="node">
<title>Node1</title>
<g id="a_Node000001"><a xlink:href="classData_1_1ExtraData_1_1SingleDataExtraData.html" target="_top" xlink:title=" ">
<polygon fill="white" stroke="#666666" points="361,-360.5 207,-360.5 207,-319.5 361,-319.5 361,-360.5"/>
<text text-anchor="start" x="215" y="-348.5" font-family="Helvetica,sans-Serif" font-size="10.00">Data::ExtraData::SingleData</text>
<text text-anchor="start" x="215" y="-337.5" font-family="Helvetica,sans-Serif" font-size="10.00">ExtraData&lt; std::vector&lt;</text>
<text text-anchor="middle" x="284" y="-326.5" font-family="Helvetica,sans-Serif" font-size="10.00"> Core::BaseType::Vec3 &gt; &gt;</text>
</a>
</g>
</g>
<!-- Node0&#45;&gt;Node1 -->
<g id="edge13_Node000000_Node000001" class="edge">
<title>Node0&#45;&gt;Node1</title>
<g id="a_edge13_Node000000_Node000001"><a xlink:title=" ">
<path fill="none" stroke="#63b8ff" d="M88.8,-184.34C106.63,-216.05 141.76,-271.28 186,-304 194.16,-310.04 203.44,-315.16 212.95,-319.48"/>
<polygon fill="#63b8ff" stroke="#63b8ff" points="91.72,-182.39 83.84,-175.31 85.59,-185.76 91.72,-182.39"/>
</a>
</g>
</g>
<!-- Node3 -->
<g id="Node000003" class="node">
<title>Node3</title>
<g id="a_Node000003"><a xlink:href="classData_1_1ExtraData_1_1SingleDataExtraData.html" target="_top" xlink:title=" ">
<polygon fill="white" stroke="#666666" points="361,-295 207,-295 207,-265 361,-265 361,-295"/>
<text text-anchor="start" x="215" y="-283" font-family="Helvetica,sans-Serif" font-size="10.00">Data::ExtraData::SingleData</text>
<text text-anchor="middle" x="284" y="-272" font-family="Helvetica,sans-Serif" font-size="10.00">ExtraData&lt; bool &gt;</text>
</a>
</g>
</g>
<!-- Node0&#45;&gt;Node3 -->
<g id="edge15_Node000000_Node000003" class="edge">
<title>Node0&#45;&gt;Node3</title>
<g id="a_edge15_Node000000_Node000003"><a xlink:title=" ">
<path fill="none" stroke="#63b8ff" d="M100.03,-181.73C121.39,-200.19 154.09,-226.41 186,-244 200.94,-252.24 218.16,-259.32 233.89,-264.97"/>
<polygon fill="#63b8ff" stroke="#63b8ff" points="102.26,-179.03 92.43,-175.07 97.64,-184.29 102.26,-179.03"/>
</a>
</g>
</g>
<!-- Node5 -->
<g id="Node000005" class="node">
<title>Node5</title>
<g id="a_Node000005"><a xlink:href="classData_1_1ExtraData_1_1SingleDataExtraData.html" target="_top" xlink:title=" ">
<polygon fill="white" stroke="#666666" points="361,-234.5 207,-234.5 207,-193.5 361,-193.5 361,-234.5"/>
<text text-anchor="start" x="215" y="-222.5" font-family="Helvetica,sans-Serif" font-size="10.00">Data::ExtraData::SingleData</text>
<text text-anchor="start" x="215" y="-211.5" font-family="Helvetica,sans-Serif" font-size="10.00">ExtraData&lt; Core::BaseType</text>
<text text-anchor="middle" x="284" y="-200.5" font-family="Helvetica,sans-Serif" font-size="10.00">::Vec3 &gt;</text>
</a>
</g>
</g>
<!-- Node0&#45;&gt;Node5 -->
<g id="edge17_Node000000_Node000005" class="edge">
<title>Node0&#45;&gt;Node5</title>
<g id="a_edge17_Node000000_Node000005"><a xlink:title=" ">
<path fill="none" stroke="#63b8ff" d="M143.4,-177.58C163.62,-182.86 185.93,-188.68 206.68,-194.09"/>
<polygon fill="#63b8ff" stroke="#63b8ff" points="144.22,-174.18 133.66,-175.04 142.45,-180.95 144.22,-174.18"/>
</a>
</g>
</g>
<!-- Node8 -->
<g id="Node000008" class="node">
<title>Node8</title>
<g id="a_Node000008"><a xlink:href="classData_1_1ExtraData_1_1SingleDataExtraData.html" target="_top" xlink:title=" ">
<polygon fill="white" stroke="#666666" points="361,-175 207,-175 207,-145 361,-145 361,-175"/>
<text text-anchor="start" x="215" y="-163" font-family="Helvetica,sans-Serif" font-size="10.00">Data::ExtraData::SingleData</text>
<text text-anchor="middle" x="284" y="-152" font-family="Helvetica,sans-Serif" font-size="10.00">ExtraData&lt; std::string &gt;</text>
</a>
</g>
</g>
<!-- Node0&#45;&gt;Node8 -->
<g id="edge20_Node000000_Node000008" class="edge">
<title>Node0&#45;&gt;Node8</title>
<g id="a_edge20_Node000000_Node000008"><a xlink:title=" ">
<path fill="none" stroke="#63b8ff" d="M160.21,-160C175.67,-160 191.72,-160 206.93,-160"/>
<polygon fill="#63b8ff" stroke="#63b8ff" points="160.15,-156.5 150.15,-160 160.15,-163.5 160.15,-156.5"/>
</a>
</g>
</g>
<!-- Node10 -->
<g id="Node000010" class="node">
<title>Node10</title>
<g id="a_Node000010"><a xlink:href="classData_1_1ExtraData_1_1SingleDataExtraData.html" target="_top" xlink:title=" ">
<polygon fill="white" stroke="#666666" points="362.5,-126.5 205.5,-126.5 205.5,-85.5 362.5,-85.5 362.5,-126.5"/>
<text text-anchor="start" x="213.5" y="-114.5" font-family="Helvetica,sans-Serif" font-size="10.00">Data::ExtraData::SingleData</text>
<text text-anchor="start" x="213.5" y="-103.5" font-family="Helvetica,sans-Serif" font-size="10.00">ExtraData&lt; std::array&lt; Core</text>
<text text-anchor="middle" x="284" y="-92.5" font-family="Helvetica,sans-Serif" font-size="10.00">::BaseType::Vec2, 3 &gt; &gt;</text>
</a>
</g>
</g>
<!-- Node0&#45;&gt;Node10 -->
<g id="edge22_Node000000_Node000010" class="edge">
<title>Node0&#45;&gt;Node10</title>
<g id="a_edge22_Node000000_Node000010"><a xlink:title=" ">
<path fill="none" stroke="#63b8ff" d="M143.46,-142.4C163.16,-137.26 184.86,-131.6 205.15,-126.31"/>
<polygon fill="#63b8ff" stroke="#63b8ff" points="142.45,-139.05 133.66,-144.96 144.22,-145.82 142.45,-139.05"/>
</a>
</g>
</g>
<!-- Node12 -->
<g id="Node000012" class="node">
<title>Node12</title>
<g id="a_Node000012"><a xlink:href="classData_1_1ExtraData_1_1ObjectMaterialData.html" target="_top" xlink:title="Store object material data defined within a MTL file.">
<polygon fill="white" stroke="#666666" points="382,-67.5 186,-67.5 186,-48.5 382,-48.5 382,-67.5"/>
<text text-anchor="middle" x="284" y="-55.5" font-family="Helvetica,sans-Serif" font-size="10.00">Data::ExtraData::ObjectMaterialData</text>
</a>
</g>
</g>
<!-- Node0&#45;&gt;Node12 -->
<g id="edge24_Node000000_Node000012" class="edge">
<title>Node0&#45;&gt;Node12</title>
<g id="a_edge24_Node000000_Node000012"><a xlink:title=" ">
<path fill="none" stroke="#63b8ff" d="M98.25,-137.88C119.12,-118.47 152.12,-91.04 186,-76 193.75,-72.56 202.13,-69.78 210.6,-67.53"/>
<polygon fill="#63b8ff" stroke="#63b8ff" points="95.71,-135.46 90.87,-144.89 100.53,-140.54 95.71,-135.46"/>
</a>
</g>
</g>
<!-- Node13 -->
<g id="Node000013" class="node">
<title>Node13</title>
<g id="a_Node000013"><a xlink:href="classData_1_1ExtraData_1_1SingleDataExtraData.html" target="_top" xlink:title="Base class for extra data type with only one attribute.">
<polygon fill="white" stroke="#666666" points="361,-30 207,-30 207,0 361,0 361,-30"/>
<text text-anchor="start" x="215" y="-18" font-family="Helvetica,sans-Serif" font-size="10.00">Data::ExtraData::SingleData</text>
<text text-anchor="middle" x="284" y="-7" font-family="Helvetica,sans-Serif" font-size="10.00">ExtraData&lt; T &gt;</text>
</a>
</g>
</g>
<!-- Node0&#45;&gt;Node13 -->
<g id="edge25_Node000000_Node000013" class="edge">
<title>Node0&#45;&gt;Node13</title>
<g id="a_edge25_Node000000_Node000013"><a xlink:title=" ">
<path fill="none" stroke="#63b8ff" d="M91.23,-136.04C110.09,-108.39 144.82,-63.56 186,-39 192.48,-35.13 199.56,-31.89 206.85,-29.17"/>
<polygon fill="#63b8ff" stroke="#63b8ff" points="88.09,-134.45 85.46,-144.71 93.91,-138.33 88.09,-134.45"/>
</a>
</g>
</g>
<!-- Node2 -->
<g id="Node000002" class="node">
<title>Node2</title>
<g id="a_Node000002"><a xlink:href="classData_1_1ExtraData_1_1FlatVertexNormalsExtraData.html" target="_top" xlink:title="Extra data type to store vertex flat normals.">
<polygon fill="white" stroke="#666666" points="578.5,-358 427.5,-358 427.5,-328 578.5,-328 578.5,-358"/>
<text text-anchor="start" x="435.5" y="-346" font-family="Helvetica,sans-Serif" font-size="10.00">Data::ExtraData::FlatVertex</text>
<text text-anchor="middle" x="503" y="-335" font-family="Helvetica,sans-Serif" font-size="10.00">NormalsExtraData</text>
</a>
</g>
</g>
<!-- Node1&#45;&gt;Node2 -->
<g id="edge14_Node000001_Node000002" class="edge">
<title>Node1&#45;&gt;Node2</title>
<g id="a_edge14_Node000001_Node000002"><a xlink:title=" ">
<path fill="none" stroke="#63b8ff" d="M371.4,-341.19C389.94,-341.45 409.39,-341.72 427.44,-341.97"/>
<polygon fill="#63b8ff" stroke="#63b8ff" points="371.25,-337.69 361.2,-341.05 371.15,-344.69 371.25,-337.69"/>
</a>
</g>
</g>
<!-- Node4 -->
<g id="Node000004" class="node">
<title>Node4</title>
<g id="a_Node000004"><a xlink:href="classData_1_1ExtraData_1_1IsBoundaryVertexExtraData.html" target="_top" xlink:title="Extra data type to store a boolean that tells if the vertex is ona boundary of the mesh.">
<polygon fill="white" stroke="#666666" points="580.5,-310 425.5,-310 425.5,-280 580.5,-280 580.5,-310"/>
<text text-anchor="start" x="433.5" y="-298" font-family="Helvetica,sans-Serif" font-size="10.00">Data::ExtraData::IsBoundary</text>
<text text-anchor="middle" x="503" y="-287" font-family="Helvetica,sans-Serif" font-size="10.00">VertexExtraData</text>
</a>
</g>
</g>
<!-- Node3&#45;&gt;Node4 -->
<g id="edge16_Node000003_Node000004" class="edge">
<title>Node3&#45;&gt;Node4</title>
<g id="a_edge16_Node000003_Node000004"><a xlink:title=" ">
<path fill="none" stroke="#63b8ff" d="M371.54,-285.98C389.3,-287.21 407.87,-288.49 425.25,-289.69"/>
<polygon fill="#63b8ff" stroke="#63b8ff" points="371.42,-282.47 361.2,-285.27 370.94,-289.45 371.42,-282.47"/>
</a>
</g>
</g>
<!-- Node6 -->
<g id="Node000006" class="node">
<title>Node6</title>
<g id="a_Node000006"><a xlink:href="classData_1_1ExtraData_1_1SmoothVertexNormalExtraData.html" target="_top" xlink:title="Extra data type to store a smooth vertex normal.">
<polygon fill="white" stroke="#666666" points="588,-262 418,-262 418,-232 588,-232 588,-262"/>
<text text-anchor="start" x="426" y="-250" font-family="Helvetica,sans-Serif" font-size="10.00">Data::ExtraData::SmoothVertex</text>
<text text-anchor="middle" x="503" y="-239" font-family="Helvetica,sans-Serif" font-size="10.00">NormalExtraData</text>
</a>
</g>
</g>
<!-- Node5&#45;&gt;Node6 -->
<g id="edge18_Node000005_Node000006" class="edge">
<title>Node5&#45;&gt;Node6</title>
<g id="a_edge18_Node000005_Node000006"><a xlink:title=" ">
<path fill="none" stroke="#63b8ff" d="M371.19,-227.11C386.56,-229.44 402.54,-231.87 417.85,-234.2"/>
<polygon fill="#63b8ff" stroke="#63b8ff" points="371.61,-223.63 361.2,-225.59 370.56,-230.55 371.61,-223.63"/>
</a>
</g>
</g>
<!-- Node7 -->
<g id="Node000007" class="node">
<title>Node7</title>
<g id="a_Node000007"><a xlink:href="classData_1_1ExtraData_1_1TriangleNormalExtraData.html" target="_top" xlink:title="Extra data type to store a triangle normal.">
<polygon fill="white" stroke="#666666" points="572.5,-214 433.5,-214 433.5,-184 572.5,-184 572.5,-214"/>
<text text-anchor="start" x="441.5" y="-202" font-family="Helvetica,sans-Serif" font-size="10.00">Data::ExtraData::Triangle</text>
<text text-anchor="middle" x="503" y="-191" font-family="Helvetica,sans-Serif" font-size="10.00">NormalExtraData</text>
</a>
</g>
</g>
<!-- Node5&#45;&gt;Node7 -->
<g id="edge19_Node000005_Node000007" class="edge">
<title>Node5&#45;&gt;Node7</title>
<g id="a_edge19_Node000005_Node000007"><a xlink:title=" ">
<path fill="none" stroke="#63b8ff" d="M371.21,-208.04C391.81,-206.62 413.53,-205.12 433.23,-203.75"/>
<polygon fill="#63b8ff" stroke="#63b8ff" points="370.94,-204.55 361.2,-208.73 371.42,-211.53 370.94,-204.55"/>
</a>
</g>
</g>
<!-- Node9 -->
<g id="Node000009" class="node">
<title>Node9</title>
<g id="a_Node000009"><a xlink:href="classData_1_1ExtraData_1_1TriangleMaterialName.html" target="_top" xlink:title="Extra data type to store a triangle material name.">
<polygon fill="white" stroke="#666666" points="572.5,-166 433.5,-166 433.5,-136 572.5,-136 572.5,-166"/>
<text text-anchor="start" x="441.5" y="-154" font-family="Helvetica,sans-Serif" font-size="10.00">Data::ExtraData::Triangle</text>
<text text-anchor="middle" x="503" y="-143" font-family="Helvetica,sans-Serif" font-size="10.00">MaterialName</text>
</a>
</g>
</g>
<!-- Node8&#45;&gt;Node9 -->
<g id="edge21_Node000008_Node000009" class="edge">
<title>Node8&#45;&gt;Node9</title>
<g id="a_edge21_Node000008_Node000009"><a xlink:title=" ">
<path fill="none" stroke="#63b8ff" d="M371.21,-156.42C391.81,-155.57 413.53,-154.67 433.23,-153.85"/>
<polygon fill="#63b8ff" stroke="#63b8ff" points="371.05,-152.93 361.2,-156.84 371.34,-159.92 371.05,-152.93"/>
</a>
</g>
</g>
<!-- Node11 -->
<g id="Node000011" class="node">
<title>Node11</title>
<g id="a_Node000011"><a xlink:href="classData_1_1ExtraData_1_1VerticesTexCoordsExtraData.html" target="_top" xlink:title="Extra data type to store texture coordinates for each vertex of a triangle.">
<polygon fill="white" stroke="#666666" points="573,-118 433,-118 433,-88 573,-88 573,-118"/>
<text text-anchor="start" x="441" y="-106" font-family="Helvetica,sans-Serif" font-size="10.00">Data::ExtraData::Vertices</text>
<text text-anchor="middle" x="503" y="-95" font-family="Helvetica,sans-Serif" font-size="10.00">TexCoordsExtraData</text>
</a>
</g>
</g>
<!-- Node10&#45;&gt;Node11 -->
<g id="edge23_Node000010_Node000011" class="edge">
<title>Node10&#45;&gt;Node11</title>
<g id="a_edge23_Node000010_Node000011"><a xlink:title=" ">
<path fill="none" stroke="#63b8ff" d="M372.75,-104.79C392.72,-104.51 413.67,-104.22 432.74,-103.96"/>
<polygon fill="#63b8ff" stroke="#63b8ff" points="372.68,-101.29 362.73,-104.93 372.78,-108.29 372.68,-101.29"/>
</a>
</g>
</g>
</g>
</svg>
