<?xml version="1.0" encoding="UTF-8" standalone="no"?>
<!DOCTYPE svg PUBLIC "-//W3C//DTD SVG 1.1//EN"
 "http://www.w3.org/Graphics/SVG/1.1/DTD/svg11.dtd">
<!-- Generated by graphviz version 2.43.0 (0)
 -->
<!-- Title: Graphical Class Hierarchy Pages: 1 -->
<svg width="452pt" height="292pt"
 viewBox="0.00 0.00 452.00 292.00" xmlns="http://www.w3.org/2000/svg" xmlns:xlink="http://www.w3.org/1999/xlink">
<g id="graph0" class="graph" transform="scale(1 1) rotate(0) translate(4 288)">
<title>Graphical Class Hierarchy</title>
<!-- Node0 -->
<g id="Node000000" class="node">
<title>Node0</title>
<g id="a_Node000000"><a xlink:href="classCore_1_1Event.html" target="_top" xlink:title="Base class for all events.">
<polygon fill="white" stroke="#666666" points="73,-111 0,-111 0,-92 73,-92 73,-111"/>
<text text-anchor="middle" x="36.5" y="-99" font-family="Helvetica,sans-Serif" font-size="10.00">Core::Event</text>
</a>
</g>
</g>
<!-- Node1 -->
<g id="Node000001" class="node">
<title>Node1</title>
<g id="a_Node000001"><a xlink:href="classCore_1_1KeyEvent.html" target="_top" xlink:title="Base class for keyboard events.">
<polygon fill="white" stroke="#666666" points="226.5,-228 135.5,-228 135.5,-209 226.5,-209 226.5,-228"/>
<text text-anchor="middle" x="181" y="-216" font-family="Helvetica,sans-Serif" font-size="10.00">Core::KeyEvent</text>
</a>
</g>
</g>
<!-- Node0&#45;&gt;Node1 -->
<g id="edge1_Node000000_Node000001" class="edge">
<title>Node0&#45;&gt;Node1</title>
<g id="a_edge1_Node000000_Node000001"><a xlink:title=" ">
<path fill="none" stroke="#63b8ff" d="M51.85,-119.13C65.5,-135.24 87.14,-159.12 109,-176.5 125.25,-189.42 145.87,-201.18 160.7,-208.95"/>
<polygon fill="#63b8ff" stroke="#63b8ff" points="54.23,-116.52 45.14,-111.07 48.85,-121 54.23,-116.52"/>
</a>
</g>
</g>
<!-- Node5 -->
<g id="Node000005" class="node">
<title>Node5</title>
<g id="a_Node000005"><a xlink:href="classCore_1_1MouseButtonEvent.html" target="_top" xlink:title="Base class for mouse button events.">
<polygon fill="white" stroke="#666666" points="249.5,-167 112.5,-167 112.5,-148 249.5,-148 249.5,-167"/>
<text text-anchor="middle" x="181" y="-155" font-family="Helvetica,sans-Serif" font-size="10.00">Core::MouseButtonEvent</text>
</a>
</g>
</g>
<!-- Node0&#45;&gt;Node5 -->
<g id="edge5_Node000000_Node000005" class="edge">
<title>Node0&#45;&gt;Node5</title>
<g id="a_edge5_Node000000_Node000005"><a xlink:title=" ">
<path fill="none" stroke="#63b8ff" d="M62.59,-116.18C76.03,-123.61 93.06,-132.33 109,-138.5 118.28,-142.09 128.5,-145.26 138.22,-147.93"/>
<polygon fill="#63b8ff" stroke="#63b8ff" points="63.93,-112.92 53.5,-111.06 60.5,-119.02 63.93,-112.92"/>
</a>
</g>
</g>
<!-- Node8 -->
<g id="Node000008" class="node">
<title>Node8</title>
<g id="a_Node000008"><a xlink:href="classCore_1_1MouseMovedEvent.html" target="_top" xlink:title="Mouse moved event class.">
<polygon fill="white" stroke="#666666" points="250,-130 112,-130 112,-111 250,-111 250,-130"/>
<text text-anchor="middle" x="181" y="-118" font-family="Helvetica,sans-Serif" font-size="10.00">Core::MouseMovedEvent</text>
</a>
</g>
</g>
<!-- Node0&#45;&gt;Node8 -->
<g id="edge8_Node000000_Node000008" class="edge">
<title>Node0&#45;&gt;Node8</title>
<g id="a_edge8_Node000000_Node000008"><a xlink:title=" ">
<path fill="none" stroke="#63b8ff" d="M83.12,-107.58C92.28,-108.8 102.09,-110.11 111.82,-111.41"/>
<polygon fill="#63b8ff" stroke="#63b8ff" points="83.47,-104.1 73.09,-106.25 82.54,-111.04 83.47,-104.1"/>
</a>
</g>
</g>
<!-- Node9 -->
<g id="Node000009" class="node">
<title>Node9</title>
<g id="a_Node000009"><a xlink:href="classCore_1_1MouseScrolledEvent.html" target="_top" xlink:title="Mouse scrolled event class.">
<polygon fill="white" stroke="#666666" points="253,-93 109,-93 109,-74 253,-74 253,-93"/>
<text text-anchor="middle" x="181" y="-81" font-family="Helvetica,sans-Serif" font-size="10.00">Core::MouseScrolledEvent</text>
</a>
</g>
</g>
<!-- Node0&#45;&gt;Node9 -->
<g id="edge9_Node000000_Node000009" class="edge">
<title>Node0&#45;&gt;Node9</title>
<g id="a_edge9_Node000000_Node000009"><a xlink:title=" ">
<path fill="none" stroke="#63b8ff" d="M83.14,-95.74C91.32,-94.7 100.02,-93.6 108.73,-92.5"/>
<polygon fill="#63b8ff" stroke="#63b8ff" points="82.57,-92.28 73.09,-97 83.45,-99.22 82.57,-92.28"/>
</a>
</g>
</g>
<!-- Node10 -->
<g id="Node000010" class="node">
<title>Node10</title>
<g id="a_Node000010"><a xlink:href="classCore_1_1WindowCloseEvent.html" target="_top" xlink:title="Event class for window close events.">
<polygon fill="white" stroke="#666666" points="250.5,-56 111.5,-56 111.5,-37 250.5,-37 250.5,-56"/>
<text text-anchor="middle" x="181" y="-44" font-family="Helvetica,sans-Serif" font-size="10.00">Core::WindowCloseEvent</text>
</a>
</g>
</g>
<!-- Node0&#45;&gt;Node10 -->
<g id="edge10_Node000000_Node000010" class="edge">
<title>Node0&#45;&gt;Node10</title>
<g id="a_edge10_Node000000_Node000010"><a xlink:title=" ">
<path fill="none" stroke="#63b8ff" d="M62.56,-86.73C75.99,-79.28 93.02,-70.57 109,-64.5 117.44,-61.29 126.66,-58.48 135.58,-56.09"/>
<polygon fill="#63b8ff" stroke="#63b8ff" points="60.45,-83.9 53.48,-91.88 63.91,-89.99 60.45,-83.9"/>
</a>
</g>
</g>
<!-- Node11 -->
<g id="Node000011" class="node">
<title>Node11</title>
<g id="a_Node000011"><a xlink:href="classCore_1_1WindowResizeEvent.html" target="_top" xlink:title="Event class for window resize events.">
<polygon fill="white" stroke="#666666" points="253,-19 109,-19 109,0 253,0 253,-19"/>
<text text-anchor="middle" x="181" y="-7" font-family="Helvetica,sans-Serif" font-size="10.00">Core::WindowResizeEvent</text>
</a>
</g>
</g>
<!-- Node0&#45;&gt;Node11 -->
<g id="edge11_Node000000_Node000011" class="edge">
<title>Node0&#45;&gt;Node11</title>
<g id="a_edge11_Node000000_Node000011"><a xlink:title=" ">
<path fill="none" stroke="#63b8ff" d="M50.23,-83.42C63.13,-66.46 84.62,-41.64 109,-27.5 114.94,-24.06 121.53,-21.26 128.24,-19"/>
<polygon fill="#63b8ff" stroke="#63b8ff" points="47.09,-81.79 43.98,-91.92 52.73,-85.94 47.09,-81.79"/>
</a>
</g>
</g>
<!-- Node2 -->
<g id="Node000002" class="node">
<title>Node2</title>
<g id="a_Node000002"><a xlink:href="classCore_1_1KeyPressedEvent.html" target="_top" xlink:title="Event class for key press events.">
<polygon fill="white" stroke="#666666" points="431,-284 302,-284 302,-265 431,-265 431,-284"/>
<text text-anchor="middle" x="366.5" y="-272" font-family="Helvetica,sans-Serif" font-size="10.00">Core::KeyPressedEvent</text>
</a>
</g>
</g>
<!-- Node1&#45;&gt;Node2 -->
<g id="edge2_Node000001_Node000002" class="edge">
<title>Node1&#45;&gt;Node2</title>
<g id="a_edge2_Node000001_Node000002"><a xlink:title=" ">
<path fill="none" stroke="#63b8ff" d="M215.8,-231.58C236.7,-239.4 264.18,-249.2 289,-256.5 299.34,-259.54 310.58,-262.42 321.19,-264.95"/>
<polygon fill="#63b8ff" stroke="#63b8ff" points="216.99,-228.29 206.4,-228.03 214.52,-234.84 216.99,-228.29"/>
</a>
</g>
</g>
<!-- Node3 -->
<g id="Node000003" class="node">
<title>Node3</title>
<g id="a_Node000003"><a xlink:href="classCore_1_1KeyReleasedEvent.html" target="_top" xlink:title="Event class for key release events.">
<polygon fill="white" stroke="#666666" points="434.5,-247 298.5,-247 298.5,-228 434.5,-228 434.5,-247"/>
<text text-anchor="middle" x="366.5" y="-235" font-family="Helvetica,sans-Serif" font-size="10.00">Core::KeyReleasedEvent</text>
</a>
</g>
</g>
<!-- Node1&#45;&gt;Node3 -->
<g id="edge3_Node000001_Node000003" class="edge">
<title>Node1&#45;&gt;Node3</title>
<g id="a_edge3_Node000001_Node000003"><a xlink:title=" ">
<path fill="none" stroke="#63b8ff" d="M236.98,-224.19C256.22,-226.18 278.04,-228.44 298.16,-230.53"/>
<polygon fill="#63b8ff" stroke="#63b8ff" points="237.2,-220.7 226.89,-223.15 236.48,-227.66 237.2,-220.7"/>
</a>
</g>
</g>
<!-- Node4 -->
<g id="Node000004" class="node">
<title>Node4</title>
<g id="a_Node000004"><a xlink:href="classCore_1_1KeyTypedEvent.html" target="_top" xlink:title="Event class for key typed events.">
<polygon fill="white" stroke="#666666" points="426,-210 307,-210 307,-191 426,-191 426,-210"/>
<text text-anchor="middle" x="366.5" y="-198" font-family="Helvetica,sans-Serif" font-size="10.00">Core::KeyTypedEvent</text>
</a>
</g>
</g>
<!-- Node1&#45;&gt;Node4 -->
<g id="edge4_Node000001_Node000004" class="edge">
<title>Node1&#45;&gt;Node4</title>
<g id="a_edge4_Node000001_Node000004"><a xlink:title=" ">
<path fill="none" stroke="#63b8ff" d="M237.07,-213.1C259.09,-210.94 284.49,-208.45 306.86,-206.25"/>
<polygon fill="#63b8ff" stroke="#63b8ff" points="236.5,-209.64 226.89,-214.1 237.18,-216.6 236.5,-209.64"/>
</a>
</g>
</g>
<!-- Node6 -->
<g id="Node000006" class="node">
<title>Node6</title>
<g id="a_Node000006"><a xlink:href="classCore_1_1MouseButtonPressedEvent.html" target="_top" xlink:title="Mouse button pressed event class.">
<polygon fill="white" stroke="#666666" points="440.5,-172.5 292.5,-172.5 292.5,-142.5 440.5,-142.5 440.5,-172.5"/>
<text text-anchor="start" x="300.5" y="-160.5" font-family="Helvetica,sans-Serif" font-size="10.00">Core::MouseButtonPressed</text>
<text text-anchor="middle" x="366.5" y="-149.5" font-family="Helvetica,sans-Serif" font-size="10.00">Event</text>
</a>
</g>
</g>
<!-- Node5&#45;&gt;Node6 -->
<g id="edge6_Node000005_Node000006" class="edge">
<title>Node5&#45;&gt;Node6</title>
<g id="a_edge6_Node000005_Node000006"><a xlink:title=" ">
<path fill="none" stroke="#63b8ff" d="M259.77,-157.5C270.53,-157.5 281.55,-157.5 292.23,-157.5"/>
<polygon fill="#63b8ff" stroke="#63b8ff" points="259.55,-154 249.55,-157.5 259.55,-161 259.55,-154"/>
</a>
</g>
</g>
<!-- Node7 -->
<g id="Node000007" class="node">
<title>Node7</title>
<g id="a_Node000007"><a xlink:href="classCore_1_1MouseButtonReleasedEvent.html" target="_top" xlink:title="Mouse button released event class.">
<polygon fill="white" stroke="#666666" points="444,-124.5 289,-124.5 289,-94.5 444,-94.5 444,-124.5"/>
<text text-anchor="start" x="297" y="-112.5" font-family="Helvetica,sans-Serif" font-size="10.00">Core::MouseButtonReleased</text>
<text text-anchor="middle" x="366.5" y="-101.5" font-family="Helvetica,sans-Serif" font-size="10.00">Event</text>
</a>
</g>
</g>
<!-- Node5&#45;&gt;Node7 -->
<g id="edge7_Node000005_Node000007" class="edge">
<title>Node5&#45;&gt;Node7</title>
<g id="a_edge7_Node000005_Node000007"><a xlink:title=" ">
<path fill="none" stroke="#63b8ff" d="M228.66,-145.3C252.76,-138.99 282.4,-131.24 307.92,-124.56"/>
<polygon fill="#63b8ff" stroke="#63b8ff" points="227.48,-141.99 218.69,-147.9 229.25,-148.76 227.48,-141.99"/>
</a>
</g>
</g>
</g>
</svg>
