<?xml version="1.0" encoding="UTF-8" standalone="no"?>
<!DOCTYPE svg PUBLIC "-//W3C//DTD SVG 1.1//EN"
 "http://www.w3.org/Graphics/SVG/1.1/DTD/svg11.dtd">
<!-- Generated by graphviz version 2.43.0 (0)
 -->
<!-- Title: Graphical Class Hierarchy Pages: 1 -->
<svg width="488pt" height="344pt"
 viewBox="0.00 0.00 488.00 343.50" xmlns="http://www.w3.org/2000/svg" xmlns:xlink="http://www.w3.org/1999/xlink">
<g id="graph0" class="graph" transform="scale(1 1) rotate(0) translate(4 339.5)">
<title>Graphical Class Hierarchy</title>
<!-- Node0 -->
<g id="Node000000" class="node">
<title>Node0</title>
<g id="a_Node000000"><a xlink:href="classCore_1_1Event.html" target="_top" xlink:title="Base class for all events.">
<polygon fill="white" stroke="#666666" points="73,-141.5 0,-141.5 0,-122.5 73,-122.5 73,-141.5"/>
<text text-anchor="middle" x="36.5" y="-129.5" font-family="Helvetica,sans-Serif" font-size="10.00">Core::Event</text>
</a>
</g>
</g>
<!-- Node1 -->
<g id="Node000001" class="node">
<title>Node1</title>
<g id="a_Node000001"><a xlink:href="classCore_1_1Event_1_1KeyEvent.html" target="_top" xlink:title="Base class for keyboard events.">
<polygon fill="white" stroke="#666666" points="257.5,-270.5 132.5,-270.5 132.5,-251.5 257.5,-251.5 257.5,-270.5"/>
<text text-anchor="middle" x="195" y="-258.5" font-family="Helvetica,sans-Serif" font-size="10.00">Core::Event::KeyEvent</text>
</a>
</g>
</g>
<!-- Node0&#45;&gt;Node1 -->
<g id="edge1_Node000000_Node000001" class="edge">
<title>Node0&#45;&gt;Node1</title>
<g id="a_edge1_Node000000_Node000001"><a xlink:title=" ">
<path fill="none" stroke="#63b8ff" d="M48.64,-150.38C61.26,-169.97 83.44,-200.88 109,-221 126.04,-234.42 148.32,-244.69 165.79,-251.46"/>
<polygon fill="#63b8ff" stroke="#63b8ff" points="51.51,-148.38 43.23,-141.77 45.59,-152.1 51.51,-148.38"/>
</a>
</g>
</g>
<!-- Node5 -->
<g id="Node000005" class="node">
<title>Node5</title>
<g id="a_Node000005"><a xlink:href="classCore_1_1Event_1_1MouseButtonEvent.html" target="_top" xlink:title="Base class for mouse button events.">
<polygon fill="white" stroke="#666666" points="266.5,-212 123.5,-212 123.5,-182 266.5,-182 266.5,-212"/>
<text text-anchor="start" x="131.5" y="-200" font-family="Helvetica,sans-Serif" font-size="10.00">Core::Event::MouseButton</text>
<text text-anchor="middle" x="195" y="-189" font-family="Helvetica,sans-Serif" font-size="10.00">Event</text>
</a>
</g>
</g>
<!-- Node0&#45;&gt;Node5 -->
<g id="edge5_Node000000_Node000005" class="edge">
<title>Node0&#45;&gt;Node5</title>
<g id="a_edge5_Node000000_Node000005"><a xlink:title=" ">
<path fill="none" stroke="#63b8ff" d="M61.06,-146.95C74.69,-155.14 92.38,-165.01 109,-172 117.65,-175.64 127,-178.96 136.23,-181.91"/>
<polygon fill="#63b8ff" stroke="#63b8ff" points="62.7,-143.85 52.34,-141.6 59.04,-149.81 62.7,-143.85"/>
</a>
</g>
</g>
<!-- Node8 -->
<g id="Node000008" class="node">
<title>Node8</title>
<g id="a_Node000008"><a xlink:href="classCore_1_1Event_1_1MouseMovedEvent.html" target="_top" xlink:title="Mouse moved event class.">
<polygon fill="white" stroke="#666666" points="281,-163.5 109,-163.5 109,-144.5 281,-144.5 281,-163.5"/>
<text text-anchor="middle" x="195" y="-151.5" font-family="Helvetica,sans-Serif" font-size="10.00">Core::Event::MouseMovedEvent</text>
</a>
</g>
</g>
<!-- Node0&#45;&gt;Node8 -->
<g id="edge8_Node000000_Node000008" class="edge">
<title>Node0&#45;&gt;Node8</title>
<g id="a_edge8_Node000000_Node000008"><a xlink:title=" ">
<path fill="none" stroke="#63b8ff" d="M83.01,-138.4C96.53,-140.3 111.65,-142.42 126.27,-144.48"/>
<polygon fill="#63b8ff" stroke="#63b8ff" points="83.4,-134.92 73.01,-136.99 82.43,-141.85 83.4,-134.92"/>
</a>
</g>
</g>
<!-- Node9 -->
<g id="Node000009" class="node">
<title>Node9</title>
<g id="a_Node000009"><a xlink:href="classCore_1_1Event_1_1MouseScrolledEvent.html" target="_top" xlink:title="Mouse scrolled event class.">
<polygon fill="white" stroke="#666666" points="270,-126 120,-126 120,-96 270,-96 270,-126"/>
<text text-anchor="start" x="128" y="-114" font-family="Helvetica,sans-Serif" font-size="10.00">Core::Event::MouseScrolled</text>
<text text-anchor="middle" x="195" y="-103" font-family="Helvetica,sans-Serif" font-size="10.00">Event</text>
</a>
</g>
</g>
<!-- Node0&#45;&gt;Node9 -->
<g id="edge9_Node000000_Node000009" class="edge">
<title>Node0&#45;&gt;Node9</title>
<g id="a_edge9_Node000000_Node000009"><a xlink:title=" ">
<path fill="none" stroke="#63b8ff" d="M83.24,-125.86C94.76,-124.32 107.43,-122.62 119.95,-120.94"/>
<polygon fill="#63b8ff" stroke="#63b8ff" points="82.46,-122.44 73.01,-127.23 83.39,-129.37 82.46,-122.44"/>
</a>
</g>
</g>
<!-- Node10 -->
<g id="Node000010" class="node">
<title>Node10</title>
<g id="a_Node000010"><a xlink:href="classCore_1_1Event_1_1WindowCloseEvent.html" target="_top" xlink:title="Event class for window close events.">
<polygon fill="white" stroke="#666666" points="267.5,-78 122.5,-78 122.5,-48 267.5,-48 267.5,-78"/>
<text text-anchor="start" x="130.5" y="-66" font-family="Helvetica,sans-Serif" font-size="10.00">Core::Event::WindowClose</text>
<text text-anchor="middle" x="195" y="-55" font-family="Helvetica,sans-Serif" font-size="10.00">Event</text>
</a>
</g>
</g>
<!-- Node0&#45;&gt;Node10 -->
<g id="edge10_Node000000_Node000010" class="edge">
<title>Node0&#45;&gt;Node10</title>
<g id="a_edge10_Node000000_Node000010"><a xlink:title=" ">
<path fill="none" stroke="#63b8ff" d="M58.59,-116.46C72.37,-106.89 91.08,-94.97 109,-87 116.43,-83.7 124.42,-80.73 132.43,-78.11"/>
<polygon fill="#63b8ff" stroke="#63b8ff" points="56.43,-113.7 50.3,-122.34 60.48,-119.41 56.43,-113.7"/>
</a>
</g>
</g>
<!-- Node11 -->
<g id="Node000011" class="node">
<title>Node11</title>
<g id="a_Node000011"><a xlink:href="classCore_1_1Event_1_1WindowResizeEvent.html" target="_top" xlink:title="Event class for window resize events.">
<polygon fill="white" stroke="#666666" points="270,-30 120,-30 120,0 270,0 270,-30"/>
<text text-anchor="start" x="128" y="-18" font-family="Helvetica,sans-Serif" font-size="10.00">Core::Event::WindowResize</text>
<text text-anchor="middle" x="195" y="-7" font-family="Helvetica,sans-Serif" font-size="10.00">Event</text>
</a>
</g>
</g>
<!-- Node0&#45;&gt;Node11 -->
<g id="edge11_Node000000_Node000011" class="edge">
<title>Node0&#45;&gt;Node11</title>
<g id="a_edge11_Node000000_Node000011"><a xlink:title=" ">
<path fill="none" stroke="#63b8ff" d="M46.92,-113.52C58.64,-92.38 80.61,-58.22 109,-39 114.08,-35.56 119.65,-32.61 125.42,-30.08"/>
<polygon fill="#63b8ff" stroke="#63b8ff" points="43.77,-112 42.14,-122.47 49.94,-115.3 43.77,-112"/>
</a>
</g>
</g>
<!-- Node2 -->
<g id="Node000002" class="node">
<title>Node2</title>
<g id="a_Node000002"><a xlink:href="classCore_1_1Event_1_1KeyPressedEvent.html" target="_top" xlink:title="Event class for key press events.">
<polygon fill="white" stroke="#666666" points="480,-335.5 317,-335.5 317,-316.5 480,-316.5 480,-335.5"/>
<text text-anchor="middle" x="398.5" y="-323.5" font-family="Helvetica,sans-Serif" font-size="10.00">Core::Event::KeyPressedEvent</text>
</a>
</g>
</g>
<!-- Node1&#45;&gt;Node2 -->
<g id="edge2_Node000001_Node000002" class="edge">
<title>Node1&#45;&gt;Node2</title>
<g id="a_edge2_Node000001_Node000002"><a xlink:title=" ">
<path fill="none" stroke="#63b8ff" d="M227.82,-274.41C251.99,-284.28 286.22,-297.56 317,-307 328.39,-310.49 340.86,-313.72 352.51,-316.48"/>
<polygon fill="#63b8ff" stroke="#63b8ff" points="229.02,-271.12 218.44,-270.55 226.35,-277.59 229.02,-271.12"/>
</a>
</g>
</g>
<!-- Node3 -->
<g id="Node000003" class="node">
<title>Node3</title>
<g id="a_Node000003"><a xlink:href="classCore_1_1Event_1_1KeyReleasedEvent.html" target="_top" xlink:title="Event class for key release events.">
<polygon fill="white" stroke="#666666" points="469.5,-298 327.5,-298 327.5,-268 469.5,-268 469.5,-298"/>
<text text-anchor="start" x="335.5" y="-286" font-family="Helvetica,sans-Serif" font-size="10.00">Core::Event::KeyReleased</text>
<text text-anchor="middle" x="398.5" y="-275" font-family="Helvetica,sans-Serif" font-size="10.00">Event</text>
</a>
</g>
</g>
<!-- Node1&#45;&gt;Node3 -->
<g id="edge3_Node000001_Node000003" class="edge">
<title>Node1&#45;&gt;Node3</title>
<g id="a_edge3_Node000001_Node000003"><a xlink:title=" ">
<path fill="none" stroke="#63b8ff" d="M267.52,-268.81C286.9,-270.92 307.85,-273.21 327.16,-275.32"/>
<polygon fill="#63b8ff" stroke="#63b8ff" points="267.87,-265.33 257.55,-267.72 267.11,-272.29 267.87,-265.33"/>
</a>
</g>
</g>
<!-- Node4 -->
<g id="Node000004" class="node">
<title>Node4</title>
<g id="a_Node000004"><a xlink:href="classCore_1_1Event_1_1KeyTypedEvent.html" target="_top" xlink:title="Event class for key typed events.">
<polygon fill="white" stroke="#666666" points="475,-249.5 322,-249.5 322,-230.5 475,-230.5 475,-249.5"/>
<text text-anchor="middle" x="398.5" y="-237.5" font-family="Helvetica,sans-Serif" font-size="10.00">Core::Event::KeyTypedEvent</text>
</a>
</g>
</g>
<!-- Node1&#45;&gt;Node4 -->
<g id="edge4_Node000001_Node000004" class="edge">
<title>Node1&#45;&gt;Node4</title>
<g id="a_edge4_Node000001_Node000004"><a xlink:title=" ">
<path fill="none" stroke="#63b8ff" d="M267.7,-253.53C285.23,-251.7 304.04,-249.74 321.75,-247.89"/>
<polygon fill="#63b8ff" stroke="#63b8ff" points="267.13,-250.07 257.55,-254.59 267.86,-257.03 267.13,-250.07"/>
</a>
</g>
</g>
<!-- Node6 -->
<g id="Node000006" class="node">
<title>Node6</title>
<g id="a_Node000006"><a xlink:href="classCore_1_1Event_1_1MouseButtonPressedEvent.html" target="_top" xlink:title="Mouse button pressed event class.">
<polygon fill="white" stroke="#666666" points="470,-212 327,-212 327,-182 470,-182 470,-212"/>
<text text-anchor="start" x="335" y="-200" font-family="Helvetica,sans-Serif" font-size="10.00">Core::Event::MouseButton</text>
<text text-anchor="middle" x="398.5" y="-189" font-family="Helvetica,sans-Serif" font-size="10.00">PressedEvent</text>
</a>
</g>
</g>
<!-- Node5&#45;&gt;Node6 -->
<g id="edge6_Node000005_Node000006" class="edge">
<title>Node5&#45;&gt;Node6</title>
<g id="a_edge6_Node000005_Node000006"><a xlink:title=" ">
<path fill="none" stroke="#63b8ff" d="M276.94,-197C293.49,-197 310.77,-197 326.91,-197"/>
<polygon fill="#63b8ff" stroke="#63b8ff" points="276.76,-193.5 266.76,-197 276.76,-200.5 276.76,-193.5"/>
</a>
</g>
</g>
<!-- Node7 -->
<g id="Node000007" class="node">
<title>Node7</title>
<g id="a_Node000007"><a xlink:href="classCore_1_1Event_1_1MouseButtonReleasedEvent.html" target="_top" xlink:title="Mouse button released event class.">
<polygon fill="white" stroke="#666666" points="470,-164 327,-164 327,-134 470,-134 470,-164"/>
<text text-anchor="start" x="335" y="-152" font-family="Helvetica,sans-Serif" font-size="10.00">Core::Event::MouseButton</text>
<text text-anchor="middle" x="398.5" y="-141" font-family="Helvetica,sans-Serif" font-size="10.00">ReleasedEvent</text>
</a>
</g>
</g>
<!-- Node5&#45;&gt;Node7 -->
<g id="edge7_Node000005_Node000007" class="edge">
<title>Node5&#45;&gt;Node7</title>
<g id="a_edge7_Node000005_Node000007"><a xlink:title=" ">
<path fill="none" stroke="#63b8ff" d="M269.22,-179.56C290.62,-174.46 313.81,-168.93 334.52,-164"/>
<polygon fill="#63b8ff" stroke="#63b8ff" points="268.12,-176.22 259.2,-181.94 269.74,-183.03 268.12,-176.22"/>
</a>
</g>
</g>
</g>
</svg>
