<?xml version="1.0" encoding="UTF-8" standalone="no"?>
<!DOCTYPE svg PUBLIC "-//W3C//DTD SVG 1.1//EN"
 "http://www.w3.org/Graphics/SVG/1.1/DTD/svg11.dtd">
<!-- Generated by graphviz version 2.43.0 (0)
 -->
<!-- Title: Core/Include/Core/Event/Input.h Pages: 1 -->
<svg width="1273pt" height="148pt"
 viewBox="0.00 0.00 1273.00 148.00" xmlns="http://www.w3.org/2000/svg" xmlns:xlink="http://www.w3.org/1999/xlink">
<g id="graph0" class="graph" transform="scale(1 1) rotate(0) translate(4 144)">
<title>Core/Include/Core/Event/Input.h</title>
<!-- Node1 -->
<g id="Node000001" class="node">
<title>Node1</title>
<g id="a_Node000001"><a xlink:title=" ">
<polygon fill="#999999" stroke="#666666" points="1105,-140 971,-140 971,-110 1105,-110 1105,-140"/>
<text text-anchor="start" x="979" y="-128" font-family="Helvetica,sans-Serif" font-size="10.00">Core/Include/Core/Event</text>
<text text-anchor="middle" x="1038" y="-117" font-family="Helvetica,sans-Serif" font-size="10.00">/Input.h</text>
</a>
</g>
</g>
<!-- Node2 -->
<g id="Node000002" class="node">
<title>Node2</title>
<g id="a_Node000002"><a xlink:href="BaseTypes_8h.html" target="_top" xlink:title=" ">
<polygon fill="white" stroke="#666666" points="825.5,-74 722.5,-74 722.5,-55 825.5,-55 825.5,-74"/>
<text text-anchor="middle" x="774" y="-62" font-family="Helvetica,sans-Serif" font-size="10.00">Core/BaseTypes.h</text>
</a>
</g>
</g>
<!-- Node1&#45;&gt;Node2 -->
<g id="edge1_Node000001_Node000002" class="edge">
<title>Node1&#45;&gt;Node2</title>
<g id="a_edge1_Node000001_Node000002"><a xlink:title=" ">
<path fill="none" stroke="#63b8ff" d="M974.77,-109.99C928.02,-99.63 865.31,-85.73 822.5,-76.25"/>
<polygon fill="#63b8ff" stroke="#63b8ff" points="823.12,-72.8 812.6,-74.05 821.61,-79.63 823.12,-72.8"/>
</a>
</g>
</g>
<!-- Node13 -->
<g id="Node000013" class="node">
<title>Node13</title>
<g id="a_Node000013"><a xlink:href="Event_2KeyCodes_8h.html" target="_top" xlink:title=" ">
<polygon fill="white" stroke="#666666" points="1103,-74 973,-74 973,-55 1103,-55 1103,-74"/>
<text text-anchor="middle" x="1038" y="-62" font-family="Helvetica,sans-Serif" font-size="10.00">Core/Event/KeyCodes.h</text>
</a>
</g>
</g>
<!-- Node1&#45;&gt;Node13 -->
<g id="edge12_Node000001_Node000013" class="edge">
<title>Node1&#45;&gt;Node13</title>
<g id="a_edge12_Node000001_Node000013"><a xlink:title=" ">
<path fill="none" stroke="#63b8ff" d="M1038,-109.84C1038,-102.21 1038,-92.7 1038,-84.45"/>
<polygon fill="#63b8ff" stroke="#63b8ff" points="1041.5,-84.27 1038,-74.27 1034.5,-84.27 1041.5,-84.27"/>
</a>
</g>
</g>
<!-- Node14 -->
<g id="Node000014" class="node">
<title>Node14</title>
<g id="a_Node000014"><a xlink:href="MouseCodes_8h.html" target="_top" xlink:title=" ">
<polygon fill="white" stroke="#666666" points="1265,-74 1121,-74 1121,-55 1265,-55 1265,-74"/>
<text text-anchor="middle" x="1193" y="-62" font-family="Helvetica,sans-Serif" font-size="10.00">Core/Event/MouseCodes.h</text>
</a>
</g>
</g>
<!-- Node1&#45;&gt;Node14 -->
<g id="edge14_Node000001_Node000014" class="edge">
<title>Node1&#45;&gt;Node14</title>
<g id="a_edge14_Node000001_Node000014"><a xlink:title=" ">
<path fill="none" stroke="#63b8ff" d="M1075.13,-109.99C1101.22,-100.14 1135.78,-87.1 1160.73,-77.68"/>
<polygon fill="#63b8ff" stroke="#63b8ff" points="1161.99,-80.94 1170.11,-74.14 1159.52,-74.4 1161.99,-80.94"/>
</a>
</g>
</g>
<!-- Node3 -->
<g id="Node000003" class="node">
<title>Node3</title>
<g id="a_Node000003"><a xlink:title=" ">
<polygon fill="#e0e0e0" stroke="#999999" points="78,-19 0,-19 0,0 78,0 78,-19"/>
<text text-anchor="middle" x="39" y="-7" font-family="Helvetica,sans-Serif" font-size="10.00">glm/glm.hpp</text>
</a>
</g>
</g>
<!-- Node2&#45;&gt;Node3 -->
<g id="edge2_Node000002_Node000003" class="edge">
<title>Node2&#45;&gt;Node3</title>
<g id="a_edge2_Node000002_Node000003"><a xlink:title=" ">
<path fill="none" stroke="#63b8ff" d="M722.11,-62.1C608.85,-58.61 330.87,-47.77 88.31,-19.02"/>
<polygon fill="#63b8ff" stroke="#63b8ff" points="88.59,-15.53 78.24,-17.81 87.75,-22.48 88.59,-15.53"/>
</a>
</g>
</g>
<!-- Node4 -->
<g id="Node000004" class="node">
<title>Node4</title>
<g id="a_Node000004"><a xlink:title=" ">
<polygon fill="#e0e0e0" stroke="#999999" points="259.5,-19 96.5,-19 96.5,0 259.5,0 259.5,-19"/>
<text text-anchor="middle" x="178" y="-7" font-family="Helvetica,sans-Serif" font-size="10.00">glm/gtc/matrix_transform.hpp</text>
</a>
</g>
</g>
<!-- Node2&#45;&gt;Node4 -->
<g id="edge3_Node000002_Node000004" class="edge">
<title>Node2&#45;&gt;Node4</title>
<g id="a_edge3_Node000002_Node000004"><a xlink:title=" ">
<path fill="none" stroke="#63b8ff" d="M722.38,-59.04C632.71,-51.28 442.1,-34.68 269.86,-19.07"/>
<polygon fill="#63b8ff" stroke="#63b8ff" points="270.13,-15.58 259.85,-18.17 269.49,-22.55 270.13,-15.58"/>
</a>
</g>
</g>
<!-- Node5 -->
<g id="Node000005" class="node">
<title>Node5</title>
<g id="a_Node000005"><a xlink:title=" ">
<polygon fill="#e0e0e0" stroke="#999999" points="408,-19 278,-19 278,0 408,0 408,-19"/>
<text text-anchor="middle" x="343" y="-7" font-family="Helvetica,sans-Serif" font-size="10.00">glm/gtc/quaternion.hpp</text>
</a>
</g>
</g>
<!-- Node2&#45;&gt;Node5 -->
<g id="edge4_Node000002_Node000005" class="edge">
<title>Node2&#45;&gt;Node5</title>
<g id="a_edge4_Node000002_Node000005"><a xlink:title=" ">
<path fill="none" stroke="#63b8ff" d="M722.44,-57.16C646.89,-47.87 505.65,-30.5 418.43,-19.78"/>
<polygon fill="#63b8ff" stroke="#63b8ff" points="418.68,-16.28 408.33,-18.53 417.83,-23.23 418.68,-16.28"/>
</a>
</g>
</g>
<!-- Node6 -->
<g id="Node000006" class="node">
<title>Node6</title>
<g id="a_Node000006"><a xlink:title=" ">
<polygon fill="#e0e0e0" stroke="#999999" points="543.5,-19 426.5,-19 426.5,0 543.5,0 543.5,-19"/>
<text text-anchor="middle" x="485" y="-7" font-family="Helvetica,sans-Serif" font-size="10.00">glm/gtc/type_ptr.hpp</text>
</a>
</g>
</g>
<!-- Node2&#45;&gt;Node6 -->
<g id="edge5_Node000002_Node000006" class="edge">
<title>Node2&#45;&gt;Node6</title>
<g id="a_edge5_Node000002_Node000006"><a xlink:title=" ">
<path fill="none" stroke="#63b8ff" d="M727.57,-54.98C677.05,-45.72 596.26,-30.9 541.95,-20.94"/>
<polygon fill="#63b8ff" stroke="#63b8ff" points="542.26,-17.44 531.8,-19.08 541,-24.33 542.26,-17.44"/>
</a>
</g>
</g>
<!-- Node7 -->
<g id="Node000007" class="node">
<title>Node7</title>
<g id="a_Node000007"><a xlink:title=" ">
<polygon fill="#e0e0e0" stroke="#999999" points="692.5,-19 561.5,-19 561.5,0 692.5,0 692.5,-19"/>
<text text-anchor="middle" x="627" y="-7" font-family="Helvetica,sans-Serif" font-size="10.00">glm/gtx/quaternion.hpp</text>
</a>
</g>
</g>
<!-- Node2&#45;&gt;Node7 -->
<g id="edge6_Node000002_Node000007" class="edge">
<title>Node2&#45;&gt;Node7</title>
<g id="a_edge6_Node000002_Node000007"><a xlink:title=" ">
<path fill="none" stroke="#63b8ff" d="M750.38,-54.98C726.1,-46.23 688.05,-32.51 660.63,-22.62"/>
<polygon fill="#63b8ff" stroke="#63b8ff" points="661.64,-19.27 651.05,-19.17 659.27,-25.85 661.64,-19.27"/>
</a>
</g>
</g>
<!-- Node8 -->
<g id="Node000008" class="node">
<title>Node8</title>
<g id="a_Node000008"><a xlink:title=" ">
<polygon fill="#e0e0e0" stroke="#999999" points="837,-19 711,-19 711,0 837,0 837,-19"/>
<text text-anchor="middle" x="774" y="-7" font-family="Helvetica,sans-Serif" font-size="10.00">glm/gtx/transform.hpp</text>
</a>
</g>
</g>
<!-- Node2&#45;&gt;Node8 -->
<g id="edge7_Node000002_Node000008" class="edge">
<title>Node2&#45;&gt;Node8</title>
<g id="a_edge7_Node000002_Node000008"><a xlink:title=" ">
<path fill="none" stroke="#63b8ff" d="M774,-54.75C774,-47.8 774,-37.85 774,-29.13"/>
<polygon fill="#63b8ff" stroke="#63b8ff" points="777.5,-29.09 774,-19.09 770.5,-29.09 777.5,-29.09"/>
</a>
</g>
</g>
<!-- Node9 -->
<g id="Node000009" class="node">
<title>Node9</title>
<g id="a_Node000009"><a xlink:title=" ">
<polygon fill="#e0e0e0" stroke="#999999" points="996.5,-19 855.5,-19 855.5,0 996.5,0 996.5,-19"/>
<text text-anchor="middle" x="926" y="-7" font-family="Helvetica,sans-Serif" font-size="10.00">glm/gtx/vector_angle.hpp</text>
</a>
</g>
</g>
<!-- Node2&#45;&gt;Node9 -->
<g id="edge8_Node000002_Node000009" class="edge">
<title>Node2&#45;&gt;Node9</title>
<g id="a_edge8_Node000002_Node000009"><a xlink:title=" ">
<path fill="none" stroke="#63b8ff" d="M798.42,-54.98C823.72,-46.16 863.45,-32.31 891.86,-22.41"/>
<polygon fill="#63b8ff" stroke="#63b8ff" points="893.1,-25.68 901.39,-19.08 890.79,-19.07 893.1,-25.68"/>
</a>
</g>
</g>
<!-- Node10 -->
<g id="Node000010" class="node">
<title>Node10</title>
<g id="a_Node000010"><a xlink:title=" ">
<polygon fill="#e0e0e0" stroke="#999999" points="1059,-19 1015,-19 1015,0 1059,0 1059,-19"/>
<text text-anchor="middle" x="1037" y="-7" font-family="Helvetica,sans-Serif" font-size="10.00">bitset</text>
</a>
</g>
</g>
<!-- Node2&#45;&gt;Node10 -->
<g id="edge9_Node000002_Node000010" class="edge">
<title>Node2&#45;&gt;Node10</title>
<g id="a_edge9_Node000002_Node000010"><a xlink:title=" ">
<path fill="none" stroke="#63b8ff" d="M824.47,-54.99C869.42,-47.15 937.17,-34.69 1004.74,-19.15"/>
<polygon fill="#63b8ff" stroke="#63b8ff" points="1005.75,-22.51 1014.7,-16.84 1004.17,-15.69 1005.75,-22.51"/>
</a>
</g>
</g>
<!-- Node11 -->
<g id="Node000011" class="node">
<title>Node11</title>
<g id="a_Node000011"><a xlink:title=" ">
<polygon fill="#e0e0e0" stroke="#999999" points="1193,-19 1143,-19 1143,0 1193,0 1193,-19"/>
<text text-anchor="middle" x="1168" y="-7" font-family="Helvetica,sans-Serif" font-size="10.00">cstdint</text>
</a>
</g>
</g>
<!-- Node2&#45;&gt;Node11 -->
<g id="edge10_Node000002_Node000011" class="edge">
<title>Node2&#45;&gt;Node11</title>
<g id="a_edge10_Node000002_Node000011"><a xlink:title=" ">
<path fill="none" stroke="#63b8ff" d="M825.57,-59.12C893.75,-52.89 1017.76,-40.03 1132.79,-19.02"/>
<polygon fill="#63b8ff" stroke="#63b8ff" points="1133.63,-22.42 1142.82,-17.16 1132.35,-15.54 1133.63,-22.42"/>
</a>
</g>
</g>
<!-- Node12 -->
<g id="Node000012" class="node">
<title>Node12</title>
<g id="a_Node000012"><a xlink:title=" ">
<polygon fill="#e0e0e0" stroke="#999999" points="1124.5,-19 1077.5,-19 1077.5,0 1124.5,0 1124.5,-19"/>
<text text-anchor="middle" x="1101" y="-7" font-family="Helvetica,sans-Serif" font-size="10.00">vector</text>
</a>
</g>
</g>
<!-- Node2&#45;&gt;Node12 -->
<g id="edge11_Node000002_Node000012" class="edge">
<title>Node2&#45;&gt;Node12</title>
<g id="a_edge11_Node000002_Node000012"><a xlink:title=" ">
<path fill="none" stroke="#63b8ff" d="M825.53,-57.32C882.38,-50.13 976.73,-37.15 1067.38,-18.93"/>
<polygon fill="#63b8ff" stroke="#63b8ff" points="1068.17,-22.34 1077.27,-16.92 1066.78,-15.48 1068.17,-22.34"/>
</a>
</g>
</g>
<!-- Node13&#45;&gt;Node11 -->
<g id="edge13_Node000013_Node000011" class="edge">
<title>Node13&#45;&gt;Node11</title>
<g id="a_edge13_Node000013_Node000011"><a xlink:title=" ">
<path fill="none" stroke="#63b8ff" d="M1058.89,-54.98C1080.08,-46.34 1113.13,-32.87 1137.3,-23.02"/>
<polygon fill="#63b8ff" stroke="#63b8ff" points="1138.79,-26.19 1146.73,-19.17 1136.15,-19.7 1138.79,-26.19"/>
</a>
</g>
</g>
</g>
</svg>
