<?xml version="1.0" encoding="UTF-8" standalone="no"?>
<!DOCTYPE svg PUBLIC "-//W3C//DTD SVG 1.1//EN"
 "http://www.w3.org/Graphics/SVG/1.1/DTD/svg11.dtd">
<!-- Generated by graphviz version 2.43.0 (0)
 -->
<!-- Title: Core/Source/Input.cpp Pages: 1 -->
<svg width="1287pt" height="247pt"
 viewBox="0.00 0.00 1287.05 247.00" xmlns="http://www.w3.org/2000/svg" xmlns:xlink="http://www.w3.org/1999/xlink">
<g id="graph0" class="graph" transform="scale(1 1) rotate(0) translate(4 243)">
<title>Core/Source/Input.cpp</title>
<!-- Node1 -->
<g id="Node000001" class="node">
<title>Node1</title>
<g id="a_Node000001"><a xlink:title=" ">
<polygon fill="#999999" stroke="#666666" points="1076.5,-239 953.5,-239 953.5,-220 1076.5,-220 1076.5,-239"/>
<text text-anchor="middle" x="1015" y="-227" font-family="Helvetica,sans-Serif" font-size="10.00">Core/Source/Input.cpp</text>
</a>
</g>
</g>
<!-- Node2 -->
<g id="Node000002" class="node">
<title>Node2</title>
<g id="a_Node000002"><a xlink:href="Input_8h.html" target="_top" xlink:title=" ">
<polygon fill="white" stroke="#666666" points="475.5,-129 368.5,-129 368.5,-110 475.5,-110 475.5,-129"/>
<text text-anchor="middle" x="422" y="-117" font-family="Helvetica,sans-Serif" font-size="10.00">Core/Event/Input.h</text>
</a>
</g>
</g>
<!-- Node1&#45;&gt;Node2 -->
<g id="edge1_Node000001_Node000002" class="edge">
<title>Node1&#45;&gt;Node2</title>
<g id="a_edge1_Node000001_Node000002"><a xlink:title=" ">
<path fill="none" stroke="#63b8ff" d="M967.97,-219.94C860.28,-200.32 596.07,-152.2 479.2,-130.92"/>
<polygon fill="#63b8ff" stroke="#63b8ff" points="479.5,-127.41 469.03,-129.07 478.24,-134.3 479.5,-127.41"/>
</a>
</g>
</g>
<!-- Node15 -->
<g id="Node000015" class="node">
<title>Node15</title>
<g id="a_Node000015"><a xlink:href="Application_8h.html" target="_top" xlink:title=" ">
<polygon fill="white" stroke="#666666" points="1068,-184 962,-184 962,-165 1068,-165 1068,-184"/>
<text text-anchor="middle" x="1015" y="-172" font-family="Helvetica,sans-Serif" font-size="10.00">Core/Application.h</text>
</a>
</g>
</g>
<!-- Node1&#45;&gt;Node15 -->
<g id="edge15_Node000001_Node000015" class="edge">
<title>Node1&#45;&gt;Node15</title>
<g id="a_edge15_Node000001_Node000015"><a xlink:title=" ">
<path fill="none" stroke="#63b8ff" d="M1015,-219.75C1015,-212.8 1015,-202.85 1015,-194.13"/>
<polygon fill="#63b8ff" stroke="#63b8ff" points="1018.5,-194.09 1015,-184.09 1011.5,-194.09 1018.5,-194.09"/>
</a>
</g>
</g>
<!-- Node23 -->
<g id="Node000023" class="node">
<title>Node23</title>
<g id="a_Node000023"><a xlink:title=" ">
<polygon fill="#e0e0e0" stroke="#999999" points="1267.5,-74 1184.5,-74 1184.5,-55 1267.5,-55 1267.5,-74"/>
<text text-anchor="middle" x="1226" y="-62" font-family="Helvetica,sans-Serif" font-size="10.00">GLFW/glfw3.h</text>
</a>
</g>
</g>
<!-- Node1&#45;&gt;Node23 -->
<g id="edge36_Node000001_Node000023" class="edge">
<title>Node1&#45;&gt;Node23</title>
<g id="a_edge36_Node000001_Node000023"><a xlink:title=" ">
<path fill="none" stroke="#63b8ff" d="M1069.77,-219.91C1120.83,-208.69 1194.19,-183.58 1229,-129 1237.52,-115.64 1235.54,-97.28 1232.16,-83.74"/>
<polygon fill="#63b8ff" stroke="#63b8ff" points="1235.5,-82.71 1229.31,-74.11 1228.78,-84.69 1235.5,-82.71"/>
</a>
</g>
</g>
<!-- Node3 -->
<g id="Node000003" class="node">
<title>Node3</title>
<g id="a_Node000003"><a xlink:href="BaseTypes_8h.html" target="_top" xlink:title=" ">
<polygon fill="white" stroke="#666666" points="608.5,-74 505.5,-74 505.5,-55 608.5,-55 608.5,-74"/>
<text text-anchor="middle" x="557" y="-62" font-family="Helvetica,sans-Serif" font-size="10.00">Core/BaseTypes.h</text>
</a>
</g>
</g>
<!-- Node2&#45;&gt;Node3 -->
<g id="edge2_Node000002_Node000003" class="edge">
<title>Node2&#45;&gt;Node3</title>
<g id="a_edge2_Node000002_Node000003"><a xlink:title=" ">
<path fill="none" stroke="#63b8ff" d="M443.69,-109.98C465.8,-101.3 500.32,-87.75 525.45,-77.88"/>
<polygon fill="#63b8ff" stroke="#63b8ff" points="526.89,-81.08 534.92,-74.17 524.33,-74.57 526.89,-81.08"/>
</a>
</g>
</g>
<!-- Node13 -->
<g id="Node000013" class="node">
<title>Node13</title>
<g id="a_Node000013"><a xlink:href="KeyCodes_8h.html" target="_top" xlink:title=" ">
<polygon fill="white" stroke="#666666" points="487,-74 357,-74 357,-55 487,-55 487,-74"/>
<text text-anchor="middle" x="422" y="-62" font-family="Helvetica,sans-Serif" font-size="10.00">Core/Event/KeyCodes.h</text>
</a>
</g>
</g>
<!-- Node2&#45;&gt;Node13 -->
<g id="edge12_Node000002_Node000013" class="edge">
<title>Node2&#45;&gt;Node13</title>
<g id="a_edge12_Node000002_Node000013"><a xlink:title=" ">
<path fill="none" stroke="#63b8ff" d="M422,-109.75C422,-102.8 422,-92.85 422,-84.13"/>
<polygon fill="#63b8ff" stroke="#63b8ff" points="425.5,-84.09 422,-74.09 418.5,-84.09 425.5,-84.09"/>
</a>
</g>
</g>
<!-- Node14 -->
<g id="Node000014" class="node">
<title>Node14</title>
<g id="a_Node000014"><a xlink:href="MouseCodes_8h.html" target="_top" xlink:title=" ">
<polygon fill="white" stroke="#666666" points="339,-74 195,-74 195,-55 339,-55 339,-74"/>
<text text-anchor="middle" x="267" y="-62" font-family="Helvetica,sans-Serif" font-size="10.00">Core/Event/MouseCodes.h</text>
</a>
</g>
</g>
<!-- Node2&#45;&gt;Node14 -->
<g id="edge14_Node000002_Node000014" class="edge">
<title>Node2&#45;&gt;Node14</title>
<g id="a_edge14_Node000002_Node000014"><a xlink:title=" ">
<path fill="none" stroke="#63b8ff" d="M397.1,-109.98C371.3,-101.16 330.78,-87.31 301.82,-77.41"/>
<polygon fill="#63b8ff" stroke="#63b8ff" points="302.69,-74.01 292.1,-74.08 300.43,-80.63 302.69,-74.01"/>
</a>
</g>
</g>
<!-- Node4 -->
<g id="Node000004" class="node">
<title>Node4</title>
<g id="a_Node000004"><a xlink:title=" ">
<polygon fill="#e0e0e0" stroke="#999999" points="512,-19 434,-19 434,0 512,0 512,-19"/>
<text text-anchor="middle" x="473" y="-7" font-family="Helvetica,sans-Serif" font-size="10.00">glm/glm.hpp</text>
</a>
</g>
</g>
<!-- Node3&#45;&gt;Node4 -->
<g id="edge3_Node000003_Node000004" class="edge">
<title>Node3&#45;&gt;Node4</title>
<g id="a_edge3_Node000003_Node000004"><a xlink:title=" ">
<path fill="none" stroke="#63b8ff" d="M543.5,-54.98C530.6,-46.84 510.9,-34.41 495.6,-24.76"/>
<polygon fill="#63b8ff" stroke="#63b8ff" points="497.07,-21.55 486.74,-19.17 493.33,-27.47 497.07,-21.55"/>
</a>
</g>
</g>
<!-- Node5 -->
<g id="Node000005" class="node">
<title>Node5</title>
<g id="a_Node000005"><a xlink:title=" ">
<polygon fill="#e0e0e0" stroke="#999999" points="693.5,-19 530.5,-19 530.5,0 693.5,0 693.5,-19"/>
<text text-anchor="middle" x="612" y="-7" font-family="Helvetica,sans-Serif" font-size="10.00">glm/gtc/matrix_transform.hpp</text>
</a>
</g>
</g>
<!-- Node3&#45;&gt;Node5 -->
<g id="edge4_Node000003_Node000005" class="edge">
<title>Node3&#45;&gt;Node5</title>
<g id="a_edge4_Node000003_Node000005"><a xlink:title=" ">
<path fill="none" stroke="#63b8ff" d="M566.08,-54.75C574.09,-47.03 585.96,-35.6 595.62,-26.28"/>
<polygon fill="#63b8ff" stroke="#63b8ff" points="598.31,-28.55 603.09,-19.09 593.46,-23.51 598.31,-28.55"/>
</a>
</g>
</g>
<!-- Node6 -->
<g id="Node000006" class="node">
<title>Node6</title>
<g id="a_Node000006"><a xlink:title=" ">
<polygon fill="#e0e0e0" stroke="#999999" points="842,-19 712,-19 712,0 842,0 842,-19"/>
<text text-anchor="middle" x="777" y="-7" font-family="Helvetica,sans-Serif" font-size="10.00">glm/gtc/quaternion.hpp</text>
</a>
</g>
</g>
<!-- Node3&#45;&gt;Node6 -->
<g id="edge5_Node000003_Node000006" class="edge">
<title>Node3&#45;&gt;Node6</title>
<g id="a_edge5_Node000003_Node000006"><a xlink:title=" ">
<path fill="none" stroke="#63b8ff" d="M592.35,-54.98C630.16,-45.87 690.26,-31.4 731.57,-21.45"/>
<polygon fill="#63b8ff" stroke="#63b8ff" points="732.47,-24.83 741.38,-19.08 730.83,-18.02 732.47,-24.83"/>
</a>
</g>
</g>
<!-- Node7 -->
<g id="Node000007" class="node">
<title>Node7</title>
<g id="a_Node000007"><a xlink:title=" ">
<polygon fill="#e0e0e0" stroke="#999999" points="977.5,-19 860.5,-19 860.5,0 977.5,0 977.5,-19"/>
<text text-anchor="middle" x="919" y="-7" font-family="Helvetica,sans-Serif" font-size="10.00">glm/gtc/type_ptr.hpp</text>
</a>
</g>
</g>
<!-- Node3&#45;&gt;Node7 -->
<g id="edge6_Node000003_Node000007" class="edge">
<title>Node3&#45;&gt;Node7</title>
<g id="a_edge6_Node000003_Node000007"><a xlink:title=" ">
<path fill="none" stroke="#63b8ff" d="M608.87,-55.91C672.5,-46.59 780.57,-30.77 850.85,-20.48"/>
<polygon fill="#63b8ff" stroke="#63b8ff" points="851.55,-23.91 860.94,-19 850.54,-16.99 851.55,-23.91"/>
</a>
</g>
</g>
<!-- Node8 -->
<g id="Node000008" class="node">
<title>Node8</title>
<g id="a_Node000008"><a xlink:title=" ">
<polygon fill="#e0e0e0" stroke="#999999" points="1126.5,-19 995.5,-19 995.5,0 1126.5,0 1126.5,-19"/>
<text text-anchor="middle" x="1061" y="-7" font-family="Helvetica,sans-Serif" font-size="10.00">glm/gtx/quaternion.hpp</text>
</a>
</g>
</g>
<!-- Node3&#45;&gt;Node8 -->
<g id="edge7_Node000003_Node000008" class="edge">
<title>Node3&#45;&gt;Node8</title>
<g id="a_edge7_Node000003_Node000008"><a xlink:title=" ">
<path fill="none" stroke="#63b8ff" d="M608.65,-58.34C687.51,-50.43 842.96,-34.67 985.03,-19.21"/>
<polygon fill="#63b8ff" stroke="#63b8ff" points="985.68,-22.66 995.24,-18.09 984.92,-15.7 985.68,-22.66"/>
</a>
</g>
</g>
<!-- Node9 -->
<g id="Node000009" class="node">
<title>Node9</title>
<g id="a_Node000009"><a xlink:title=" ">
<polygon fill="#e0e0e0" stroke="#999999" points="194,-19 68,-19 68,0 194,0 194,-19"/>
<text text-anchor="middle" x="131" y="-7" font-family="Helvetica,sans-Serif" font-size="10.00">glm/gtx/transform.hpp</text>
</a>
</g>
</g>
<!-- Node3&#45;&gt;Node9 -->
<g id="edge8_Node000003_Node000009" class="edge">
<title>Node3&#45;&gt;Node9</title>
<g id="a_edge8_Node000003_Node000009"><a xlink:title=" ">
<path fill="none" stroke="#63b8ff" d="M505.42,-56.25C502.24,-55.82 499.07,-55.4 496,-55 441.3,-47.85 294.08,-30.07 204.21,-19.27"/>
<polygon fill="#63b8ff" stroke="#63b8ff" points="204.43,-15.78 194.08,-18.06 203.59,-22.73 204.43,-15.78"/>
</a>
</g>
</g>
<!-- Node10 -->
<g id="Node000010" class="node">
<title>Node10</title>
<g id="a_Node000010"><a xlink:title=" ">
<polygon fill="#e0e0e0" stroke="#999999" points="353.5,-19 212.5,-19 212.5,0 353.5,0 353.5,-19"/>
<text text-anchor="middle" x="283" y="-7" font-family="Helvetica,sans-Serif" font-size="10.00">glm/gtx/vector_angle.hpp</text>
</a>
</g>
</g>
<!-- Node3&#45;&gt;Node10 -->
<g id="edge9_Node000003_Node000010" class="edge">
<title>Node3&#45;&gt;Node10</title>
<g id="a_edge9_Node000003_Node000010"><a xlink:title=" ">
<path fill="none" stroke="#63b8ff" d="M512.98,-54.98C465.18,-45.74 388.8,-30.97 337.32,-21.01"/>
<polygon fill="#63b8ff" stroke="#63b8ff" points="337.85,-17.54 327.37,-19.08 336.52,-24.42 337.85,-17.54"/>
</a>
</g>
</g>
<!-- Node11 -->
<g id="Node000011" class="node">
<title>Node11</title>
<g id="a_Node000011"><a xlink:title=" ">
<polygon fill="#e0e0e0" stroke="#999999" points="416,-19 372,-19 372,0 416,0 416,-19"/>
<text text-anchor="middle" x="394" y="-7" font-family="Helvetica,sans-Serif" font-size="10.00">bitset</text>
</a>
</g>
</g>
<!-- Node3&#45;&gt;Node11 -->
<g id="edge10_Node000003_Node000011" class="edge">
<title>Node3&#45;&gt;Node11</title>
<g id="a_edge10_Node000003_Node000011"><a xlink:title=" ">
<path fill="none" stroke="#63b8ff" d="M530.81,-54.98C502.27,-45.7 456.59,-30.85 425.96,-20.89"/>
<polygon fill="#63b8ff" stroke="#63b8ff" points="426.79,-17.48 416.2,-17.72 424.62,-24.14 426.79,-17.48"/>
</a>
</g>
</g>
<!-- Node12 -->
<g id="Node000012" class="node">
<title>Node12</title>
<g id="a_Node000012"><a xlink:title=" ">
<polygon fill="#e0e0e0" stroke="#999999" points="50,-19 0,-19 0,0 50,0 50,-19"/>
<text text-anchor="middle" x="25" y="-7" font-family="Helvetica,sans-Serif" font-size="10.00">cstdint</text>
</a>
</g>
</g>
<!-- Node3&#45;&gt;Node12 -->
<g id="edge11_Node000003_Node000012" class="edge">
<title>Node3&#45;&gt;Node12</title>
<g id="a_edge11_Node000003_Node000012"><a xlink:title=" ">
<path fill="none" stroke="#63b8ff" d="M505.44,-56.11C502.25,-55.71 499.08,-55.34 496,-55 305.52,-33.9 253.01,-50.18 60.05,-18.9"/>
<polygon fill="#63b8ff" stroke="#63b8ff" points="60.59,-15.44 50.16,-17.27 59.46,-22.35 60.59,-15.44"/>
</a>
</g>
</g>
<!-- Node13&#45;&gt;Node12 -->
<g id="edge13_Node000013_Node000012" class="edge">
<title>Node13&#45;&gt;Node12</title>
<g id="a_edge13_Node000013_Node000012"><a xlink:title=" ">
<path fill="none" stroke="#63b8ff" d="M356.85,-55.95C267.29,-45.52 112.1,-27.2 60.31,-18.91"/>
<polygon fill="#63b8ff" stroke="#63b8ff" points="60.62,-15.41 50.18,-17.16 59.44,-22.31 60.62,-15.41"/>
</a>
</g>
</g>
<!-- Node16 -->
<g id="Node000016" class="node">
<title>Node16</title>
<g id="a_Node000016"><a xlink:href="ApplicationEvent_8h.html" target="_top" xlink:title=" ">
<polygon fill="white" stroke="#666666" points="809,-129 645,-129 645,-110 809,-110 809,-129"/>
<text text-anchor="middle" x="727" y="-117" font-family="Helvetica,sans-Serif" font-size="10.00">Core/Event/ApplicationEvent.h</text>
</a>
</g>
</g>
<!-- Node15&#45;&gt;Node16 -->
<g id="edge16_Node000015_Node000016" class="edge">
<title>Node15&#45;&gt;Node16</title>
<g id="a_edge16_Node000015_Node000016"><a xlink:title=" ">
<path fill="none" stroke="#63b8ff" d="M968.73,-164.98C918.39,-155.72 837.88,-140.9 783.76,-130.94"/>
<polygon fill="#63b8ff" stroke="#63b8ff" points="784.1,-127.45 773.63,-129.08 782.84,-134.33 784.1,-127.45"/>
</a>
</g>
</g>
<!-- Node19 -->
<g id="Node000019" class="node">
<title>Node19</title>
<g id="a_Node000019"><a xlink:title=" ">
<polygon fill="#e0e0e0" stroke="#999999" points="1263,-19 1219,-19 1219,0 1263,0 1263,-19"/>
<text text-anchor="middle" x="1241" y="-7" font-family="Helvetica,sans-Serif" font-size="10.00">string</text>
</a>
</g>
</g>
<!-- Node15&#45;&gt;Node19 -->
<g id="edge34_Node000015_Node000019" class="edge">
<title>Node15&#45;&gt;Node19</title>
<g id="a_edge34_Node000015_Node000019"><a xlink:title=" ">
<path fill="none" stroke="#63b8ff" d="M1068.06,-171.82C1113.54,-168.28 1179.37,-158.02 1229,-129 1257.01,-112.62 1265.61,-104.38 1277,-74 1283.49,-56.71 1270.92,-38.52 1258.89,-26.07"/>
<polygon fill="#63b8ff" stroke="#63b8ff" points="1261.28,-23.51 1251.64,-19.11 1256.43,-28.56 1261.28,-23.51"/>
</a>
</g>
</g>
<!-- Node20 -->
<g id="Node000020" class="node">
<title>Node20</title>
<g id="a_Node000020"><a xlink:href="KeyEvents_8h.html" target="_top" xlink:title=" ">
<polygon fill="white" stroke="#666666" points="626.5,-129 493.5,-129 493.5,-110 626.5,-110 626.5,-129"/>
<text text-anchor="middle" x="560" y="-117" font-family="Helvetica,sans-Serif" font-size="10.00">Core/Event/KeyEvents.h</text>
</a>
</g>
</g>
<!-- Node15&#45;&gt;Node20 -->
<g id="edge20_Node000015_Node000020" class="edge">
<title>Node15&#45;&gt;Node20</title>
<g id="a_edge20_Node000015_Node000020"><a xlink:title=" ">
<path fill="none" stroke="#63b8ff" d="M961.92,-167.32C881.7,-157.97 729.19,-140.21 636.85,-129.45"/>
<polygon fill="#63b8ff" stroke="#63b8ff" points="637.06,-125.95 626.72,-128.27 636.25,-132.91 637.06,-125.95"/>
</a>
</g>
</g>
<!-- Node21 -->
<g id="Node000021" class="node">
<title>Node21</title>
<g id="a_Node000021"><a xlink:href="Layer_8h.html" target="_top" xlink:title=" ">
<polygon fill="white" stroke="#666666" points="904.5,-129 827.5,-129 827.5,-110 904.5,-110 904.5,-129"/>
<text text-anchor="middle" x="866" y="-117" font-family="Helvetica,sans-Serif" font-size="10.00">Core/Layer.h</text>
</a>
</g>
</g>
<!-- Node15&#45;&gt;Node21 -->
<g id="edge23_Node000015_Node000021" class="edge">
<title>Node15&#45;&gt;Node21</title>
<g id="a_edge23_Node000015_Node000021"><a xlink:title=" ">
<path fill="none" stroke="#63b8ff" d="M991.06,-164.98C966.44,-156.23 927.88,-142.51 900.08,-132.62"/>
<polygon fill="#63b8ff" stroke="#63b8ff" points="900.97,-129.22 890.38,-129.17 898.62,-135.82 900.97,-129.22"/>
</a>
</g>
</g>
<!-- Node22 -->
<g id="Node000022" class="node">
<title>Node22</title>
<g id="a_Node000022"><a xlink:href="Window_8h.html" target="_top" xlink:title=" ">
<polygon fill="white" stroke="#666666" points="1203.5,-129 1114.5,-129 1114.5,-110 1203.5,-110 1203.5,-129"/>
<text text-anchor="middle" x="1159" y="-117" font-family="Helvetica,sans-Serif" font-size="10.00">Core/Window.h</text>
</a>
</g>
</g>
<!-- Node15&#45;&gt;Node22 -->
<g id="edge25_Node000015_Node000022" class="edge">
<title>Node15&#45;&gt;Node22</title>
<g id="a_edge25_Node000015_Node000022"><a xlink:title=" ">
<path fill="none" stroke="#63b8ff" d="M1038.14,-164.98C1061.82,-156.27 1098.87,-142.63 1125.71,-132.75"/>
<polygon fill="#63b8ff" stroke="#63b8ff" points="1127.27,-135.91 1135.44,-129.17 1124.85,-129.34 1127.27,-135.91"/>
</a>
</g>
</g>
<!-- Node24 -->
<g id="Node000024" class="node">
<title>Node24</title>
<g id="a_Node000024"><a xlink:title=" ">
<polygon fill="#e0e0e0" stroke="#999999" points="1166.5,-74 1101.5,-74 1101.5,-55 1166.5,-55 1166.5,-74"/>
<text text-anchor="middle" x="1134" y="-62" font-family="Helvetica,sans-Serif" font-size="10.00">functional</text>
</a>
</g>
</g>
<!-- Node15&#45;&gt;Node24 -->
<g id="edge31_Node000015_Node000024" class="edge">
<title>Node15&#45;&gt;Node24</title>
<g id="a_edge31_Node000015_Node000024"><a xlink:title=" ">
<path fill="none" stroke="#63b8ff" d="M1068.27,-168.92C1120.62,-163.18 1195.17,-151.28 1213,-129 1229.89,-107.89 1198.06,-89.25 1169.9,-77.71"/>
<polygon fill="#63b8ff" stroke="#63b8ff" points="1171.15,-74.45 1160.56,-74.08 1168.61,-80.97 1171.15,-74.45"/>
</a>
</g>
</g>
<!-- Node25 -->
<g id="Node000025" class="node">
<title>Node25</title>
<g id="a_Node000025"><a xlink:title=" ">
<polygon fill="#e0e0e0" stroke="#999999" points="981,-129 923,-129 923,-110 981,-110 981,-129"/>
<text text-anchor="middle" x="952" y="-117" font-family="Helvetica,sans-Serif" font-size="10.00">memory</text>
</a>
</g>
</g>
<!-- Node15&#45;&gt;Node25 -->
<g id="edge32_Node000015_Node000025" class="edge">
<title>Node15&#45;&gt;Node25</title>
<g id="a_edge32_Node000015_Node000025"><a xlink:title=" ">
<path fill="none" stroke="#63b8ff" d="M1004.88,-164.98C995.56,-157.15 981.53,-145.34 970.26,-135.86"/>
<polygon fill="#63b8ff" stroke="#63b8ff" points="972.21,-132.93 962.31,-129.17 967.71,-138.29 972.21,-132.93"/>
</a>
</g>
</g>
<!-- Node26 -->
<g id="Node000026" class="node">
<title>Node26</title>
<g id="a_Node000026"><a xlink:title=" ">
<polygon fill="#e0e0e0" stroke="#999999" points="1031,-129 999,-129 999,-110 1031,-110 1031,-129"/>
<text text-anchor="middle" x="1015" y="-117" font-family="Helvetica,sans-Serif" font-size="10.00">set</text>
</a>
</g>
</g>
<!-- Node15&#45;&gt;Node26 -->
<g id="edge33_Node000015_Node000026" class="edge">
<title>Node15&#45;&gt;Node26</title>
<g id="a_edge33_Node000015_Node000026"><a xlink:title=" ">
<path fill="none" stroke="#63b8ff" d="M1015,-164.75C1015,-157.8 1015,-147.85 1015,-139.13"/>
<polygon fill="#63b8ff" stroke="#63b8ff" points="1018.5,-139.09 1015,-129.09 1011.5,-139.09 1018.5,-139.09"/>
</a>
</g>
</g>
<!-- Node27 -->
<g id="Node000027" class="node">
<title>Node27</title>
<g id="a_Node000027"><a xlink:title=" ">
<polygon fill="#e0e0e0" stroke="#999999" points="1096.5,-129 1049.5,-129 1049.5,-110 1096.5,-110 1096.5,-129"/>
<text text-anchor="middle" x="1073" y="-117" font-family="Helvetica,sans-Serif" font-size="10.00">vector</text>
</a>
</g>
</g>
<!-- Node15&#45;&gt;Node27 -->
<g id="edge35_Node000015_Node000027" class="edge">
<title>Node15&#45;&gt;Node27</title>
<g id="a_edge35_Node000015_Node000027"><a xlink:title=" ">
<path fill="none" stroke="#63b8ff" d="M1024.32,-164.98C1032.81,-157.23 1045.56,-145.58 1055.88,-136.14"/>
<polygon fill="#63b8ff" stroke="#63b8ff" points="1058.49,-138.5 1063.51,-129.17 1053.77,-133.33 1058.49,-138.5"/>
</a>
</g>
</g>
<!-- Node17 -->
<g id="Node000017" class="node">
<title>Node17</title>
<g id="a_Node000017"><a xlink:href="Event_8h.html" target="_top" xlink:title=" ">
<polygon fill="white" stroke="#666666" points="983,-74 873,-74 873,-55 983,-55 983,-74"/>
<text text-anchor="middle" x="928" y="-62" font-family="Helvetica,sans-Serif" font-size="10.00">Core/Event/Event.h</text>
</a>
</g>
</g>
<!-- Node16&#45;&gt;Node17 -->
<g id="edge17_Node000016_Node000017" class="edge">
<title>Node16&#45;&gt;Node17</title>
<g id="a_edge17_Node000016_Node000017"><a xlink:title=" ">
<path fill="none" stroke="#63b8ff" d="M759.29,-109.98C793.62,-100.93 848.06,-86.58 885.77,-76.64"/>
<polygon fill="#63b8ff" stroke="#63b8ff" points="886.68,-80.02 895.45,-74.08 884.89,-73.25 886.68,-80.02"/>
</a>
</g>
</g>
<!-- Node18 -->
<g id="Node000018" class="node">
<title>Node18</title>
<g id="a_Node000018"><a xlink:title=" ">
<polygon fill="#e0e0e0" stroke="#999999" points="1201,-19 1145,-19 1145,0 1201,0 1201,-19"/>
<text text-anchor="middle" x="1173" y="-7" font-family="Helvetica,sans-Serif" font-size="10.00">sstream</text>
</a>
</g>
</g>
<!-- Node17&#45;&gt;Node18 -->
<g id="edge18_Node000017_Node000018" class="edge">
<title>Node17&#45;&gt;Node18</title>
<g id="a_edge18_Node000017_Node000018"><a xlink:title=" ">
<path fill="none" stroke="#63b8ff" d="M968.69,-54.98C1008.6,-46.59 1071.44,-33.26 1134.95,-19.21"/>
<polygon fill="#63b8ff" stroke="#63b8ff" points="1135.72,-22.62 1144.73,-17.04 1134.21,-15.79 1135.72,-22.62"/>
</a>
</g>
</g>
<!-- Node17&#45;&gt;Node19 -->
<g id="edge19_Node000017_Node000019" class="edge">
<title>Node17&#45;&gt;Node19</title>
<g id="a_edge19_Node000017_Node000019"><a xlink:title=" ">
<path fill="none" stroke="#63b8ff" d="M983.19,-56.64C1038.11,-49.39 1124.94,-36.83 1208.78,-19.06"/>
<polygon fill="#63b8ff" stroke="#63b8ff" points="1209.68,-22.45 1218.72,-16.93 1208.21,-15.6 1209.68,-22.45"/>
</a>
</g>
</g>
<!-- Node20&#45;&gt;Node13 -->
<g id="edge22_Node000020_Node000013" class="edge">
<title>Node20&#45;&gt;Node13</title>
<g id="a_edge22_Node000020_Node000013"><a xlink:title=" ">
<path fill="none" stroke="#63b8ff" d="M537.83,-109.98C515.23,-101.3 479.94,-87.75 454.25,-77.88"/>
<polygon fill="#63b8ff" stroke="#63b8ff" points="455.17,-74.49 444.58,-74.17 452.66,-81.02 455.17,-74.49"/>
</a>
</g>
</g>
<!-- Node20&#45;&gt;Node17 -->
<g id="edge21_Node000020_Node000017" class="edge">
<title>Node20&#45;&gt;Node17</title>
<g id="a_edge21_Node000020_Node000017"><a xlink:title=" ">
<path fill="none" stroke="#63b8ff" d="M619.13,-109.98C685.7,-100.4 793.57,-84.86 862.62,-74.92"/>
<polygon fill="#63b8ff" stroke="#63b8ff" points="863.53,-78.32 872.93,-73.43 862.53,-71.39 863.53,-78.32"/>
</a>
</g>
</g>
<!-- Node21&#45;&gt;Node17 -->
<g id="edge24_Node000021_Node000017" class="edge">
<title>Node21&#45;&gt;Node17</title>
<g id="a_edge24_Node000021_Node000017"><a xlink:title=" ">
<path fill="none" stroke="#63b8ff" d="M875.96,-109.98C885.13,-102.15 898.94,-90.34 910.03,-80.86"/>
<polygon fill="#63b8ff" stroke="#63b8ff" points="912.53,-83.33 917.86,-74.17 907.98,-78.01 912.53,-83.33"/>
</a>
</g>
</g>
<!-- Node22&#45;&gt;Node3 -->
<g id="edge26_Node000022_Node000003" class="edge">
<title>Node22&#45;&gt;Node3</title>
<g id="a_edge26_Node000022_Node000003"><a xlink:title=" ">
<path fill="none" stroke="#63b8ff" d="M1114.22,-111.07C1111.44,-110.68 1108.68,-110.32 1106,-110 929.77,-88.76 720.46,-74.93 618.7,-68.92"/>
<polygon fill="#63b8ff" stroke="#63b8ff" points="618.79,-65.42 608.6,-68.33 618.38,-72.41 618.79,-65.42"/>
</a>
</g>
</g>
<!-- Node22&#45;&gt;Node17 -->
<g id="edge27_Node000022_Node000017" class="edge">
<title>Node22&#45;&gt;Node17</title>
<g id="a_edge27_Node000022_Node000017"><a xlink:title=" ">
<path fill="none" stroke="#63b8ff" d="M1121.89,-109.98C1082.01,-100.84 1018.54,-86.27 975.16,-76.32"/>
<polygon fill="#63b8ff" stroke="#63b8ff" points="975.93,-72.91 965.41,-74.08 974.37,-79.73 975.93,-72.91"/>
</a>
</g>
</g>
<!-- Node22&#45;&gt;Node19 -->
<g id="edge30_Node000022_Node000019" class="edge">
<title>Node22&#45;&gt;Node19</title>
<g id="a_edge30_Node000022_Node000019"><a xlink:title=" ">
<path fill="none" stroke="#63b8ff" d="M1137.94,-109.96C1112.91,-98.56 1076.49,-77.2 1093,-55 1094.79,-52.6 1166.18,-31.87 1209.14,-19.57"/>
<polygon fill="#63b8ff" stroke="#63b8ff" points="1210.22,-22.9 1218.87,-16.79 1208.3,-16.17 1210.22,-22.9"/>
</a>
</g>
</g>
<!-- Node22&#45;&gt;Node23 -->
<g id="edge28_Node000022_Node000023" class="edge">
<title>Node22&#45;&gt;Node23</title>
<g id="a_edge28_Node000022_Node000023"><a xlink:title=" ">
<path fill="none" stroke="#63b8ff" d="M1169.76,-109.98C1179.77,-102.07 1194.89,-90.11 1206.93,-80.58"/>
<polygon fill="#63b8ff" stroke="#63b8ff" points="1209.37,-83.12 1215.04,-74.17 1205.03,-77.63 1209.37,-83.12"/>
</a>
</g>
</g>
<!-- Node22&#45;&gt;Node24 -->
<g id="edge29_Node000022_Node000024" class="edge">
<title>Node22&#45;&gt;Node24</title>
<g id="a_edge29_Node000022_Node000024"><a xlink:title=" ">
<path fill="none" stroke="#63b8ff" d="M1154.87,-109.75C1151.49,-102.57 1146.58,-92.18 1142.38,-83.27"/>
<polygon fill="#63b8ff" stroke="#63b8ff" points="1145.48,-81.64 1138.05,-74.09 1139.15,-84.63 1145.48,-81.64"/>
</a>
</g>
</g>
</g>
</svg>
