<?xml version="1.0" encoding="UTF-8" standalone="no"?>
<!DOCTYPE svg PUBLIC "-//W3C//DTD SVG 1.1//EN"
 "http://www.w3.org/Graphics/SVG/1.1/DTD/svg11.dtd">
<!-- Generated by graphviz version 2.43.0 (0)
 -->
<!-- Title: Core/Include/Core/Event/KeyCodes.h Pages: 1 -->
<svg width="611pt" height="225pt"
 viewBox="0.00 0.00 610.50 225.00" xmlns="http://www.w3.org/2000/svg" xmlns:xlink="http://www.w3.org/1999/xlink">
<g id="graph0" class="graph" transform="scale(1 1) rotate(0) translate(4 221)">
<title>Core/Include/Core/Event/KeyCodes.h</title>
<!-- Node1 -->
<g id="Node000001" class="node">
<title>Node1</title>
<g id="a_Node000001"><a xlink:title=" ">
<polygon fill="#999999" stroke="#666666" points="238.5,-217 104.5,-217 104.5,-187 238.5,-187 238.5,-217"/>
<text text-anchor="start" x="112.5" y="-205" font-family="Helvetica,sans-Serif" font-size="10.00">Core/Include/Core/Event</text>
<text text-anchor="middle" x="171.5" y="-194" font-family="Helvetica,sans-Serif" font-size="10.00">/KeyCodes.h</text>
</a>
</g>
</g>
<!-- Node2 -->
<g id="Node000002" class="node">
<title>Node2</title>
<g id="a_Node000002"><a xlink:href="Input_8h.html" target="_top" xlink:title=" ">
<polygon fill="white" stroke="#666666" points="238.5,-85 104.5,-85 104.5,-55 238.5,-55 238.5,-85"/>
<text text-anchor="start" x="112.5" y="-73" font-family="Helvetica,sans-Serif" font-size="10.00">Core/Include/Core/Event</text>
<text text-anchor="middle" x="171.5" y="-62" font-family="Helvetica,sans-Serif" font-size="10.00">/Input.h</text>
</a>
</g>
</g>
<!-- Node1&#45;&gt;Node2 -->
<g id="edge1_Node000001_Node000002" class="edge">
<title>Node1&#45;&gt;Node2</title>
<g id="a_edge1_Node000001_Node000002"><a xlink:title=" ">
<path fill="none" stroke="#63b8ff" d="M171.5,-176.68C171.5,-149.7 171.5,-107.11 171.5,-85.14"/>
<polygon fill="#63b8ff" stroke="#63b8ff" points="168,-176.84 171.5,-186.84 175,-176.84 168,-176.84"/>
</a>
</g>
</g>
<!-- Node3 -->
<g id="Node000003" class="node">
<title>Node3</title>
<g id="a_Node000003"><a xlink:href="Application_8cpp.html" target="_top" xlink:title=" ">
<polygon fill="white" stroke="#666666" points="153,-19 0,-19 0,0 153,0 153,-19"/>
<text text-anchor="middle" x="76.5" y="-7" font-family="Helvetica,sans-Serif" font-size="10.00">Core/Source/Application.cpp</text>
</a>
</g>
</g>
<!-- Node1&#45;&gt;Node3 -->
<g id="edge11_Node000001_Node000003" class="edge">
<title>Node1&#45;&gt;Node3</title>
<g id="a_edge11_Node000001_Node000003"><a xlink:title=" ">
<path fill="none" stroke="#63b8ff" d="M153.65,-178.71C136.48,-156.25 110.92,-120.01 95.5,-85 85.49,-62.28 80,-33.25 77.74,-19.07"/>
<polygon fill="#63b8ff" stroke="#63b8ff" points="151.1,-181.13 160,-186.89 156.63,-176.84 151.1,-181.13"/>
</a>
</g>
</g>
<!-- Node5 -->
<g id="Node000005" class="node">
<title>Node5</title>
<g id="a_Node000005"><a xlink:href="KeyEvents_8h.html" target="_top" xlink:title=" ">
<polygon fill="white" stroke="#666666" points="408.5,-151 274.5,-151 274.5,-121 408.5,-121 408.5,-151"/>
<text text-anchor="start" x="282.5" y="-139" font-family="Helvetica,sans-Serif" font-size="10.00">Core/Include/Core/Event</text>
<text text-anchor="middle" x="341.5" y="-128" font-family="Helvetica,sans-Serif" font-size="10.00">/KeyEvents.h</text>
</a>
</g>
</g>
<!-- Node1&#45;&gt;Node5 -->
<g id="edge4_Node000001_Node000005" class="edge">
<title>Node1&#45;&gt;Node5</title>
<g id="a_edge4_Node000001_Node000005"><a xlink:title=" ">
<path fill="none" stroke="#63b8ff" d="M218.46,-183.32C245.51,-173.14 279.05,-160.51 304.28,-151.01"/>
<polygon fill="#63b8ff" stroke="#63b8ff" points="216.93,-180.16 208.81,-186.95 219.4,-186.71 216.93,-180.16"/>
</a>
</g>
</g>
<!-- Node2&#45;&gt;Node3 -->
<g id="edge2_Node000002_Node000003" class="edge">
<title>Node2&#45;&gt;Node3</title>
<g id="a_edge2_Node000002_Node000003"><a xlink:title=" ">
<path fill="none" stroke="#63b8ff" d="M139.59,-49.35C122.9,-39.07 103.33,-27.02 90.46,-19.09"/>
<polygon fill="#63b8ff" stroke="#63b8ff" points="138.15,-52.58 148.5,-54.84 141.82,-46.61 138.15,-52.58"/>
</a>
</g>
</g>
<!-- Node4 -->
<g id="Node000004" class="node">
<title>Node4</title>
<g id="a_Node000004"><a xlink:href="Input_8cpp.html" target="_top" xlink:title=" ">
<polygon fill="white" stroke="#666666" points="294,-19 171,-19 171,0 294,0 294,-19"/>
<text text-anchor="middle" x="232.5" y="-7" font-family="Helvetica,sans-Serif" font-size="10.00">Core/Source/Input.cpp</text>
</a>
</g>
</g>
<!-- Node2&#45;&gt;Node4 -->
<g id="edge3_Node000002_Node000004" class="edge">
<title>Node2&#45;&gt;Node4</title>
<g id="a_edge3_Node000002_Node000004"><a xlink:title=" ">
<path fill="none" stroke="#63b8ff" d="M193.74,-47.67C203.97,-37.86 215.55,-26.76 223.36,-19.27"/>
<polygon fill="#63b8ff" stroke="#63b8ff" points="191.06,-45.39 186.27,-54.84 195.91,-50.44 191.06,-45.39"/>
</a>
</g>
</g>
<!-- Node6 -->
<g id="Node000006" class="node">
<title>Node6</title>
<g id="a_Node000006"><a xlink:href="Application_8h.html" target="_top" xlink:title=" ">
<polygon fill="white" stroke="#666666" points="426.5,-79.5 256.5,-79.5 256.5,-60.5 426.5,-60.5 426.5,-79.5"/>
<text text-anchor="middle" x="341.5" y="-67.5" font-family="Helvetica,sans-Serif" font-size="10.00">Core/Include/Core/Application.h</text>
</a>
</g>
</g>
<!-- Node5&#45;&gt;Node6 -->
<g id="edge5_Node000005_Node000006" class="edge">
<title>Node5&#45;&gt;Node6</title>
<g id="a_edge5_Node000005_Node000006"><a xlink:title=" ">
<path fill="none" stroke="#63b8ff" d="M341.5,-110.6C341.5,-99.8 341.5,-87.78 341.5,-79.84"/>
<polygon fill="#63b8ff" stroke="#63b8ff" points="338,-110.8 341.5,-120.8 345,-110.8 338,-110.8"/>
</a>
</g>
</g>
<!-- Node9 -->
<g id="Node000009" class="node">
<title>Node9</title>
<g id="a_Node000009"><a xlink:href="Window_8cpp.html" target="_top" xlink:title=" ">
<polygon fill="white" stroke="#666666" points="582,-79.5 445,-79.5 445,-60.5 582,-60.5 582,-79.5"/>
<text text-anchor="middle" x="513.5" y="-67.5" font-family="Helvetica,sans-Serif" font-size="10.00">Core/Source/Window.cpp</text>
</a>
</g>
</g>
<!-- Node5&#45;&gt;Node9 -->
<g id="edge10_Node000005_Node000009" class="edge">
<title>Node5&#45;&gt;Node9</title>
<g id="a_edge10_Node000005_Node000009"><a xlink:title=" ">
<path fill="none" stroke="#63b8ff" d="M388.75,-117.42C421.89,-105.09 464.73,-89.15 490.61,-79.52"/>
<polygon fill="#63b8ff" stroke="#63b8ff" points="387.4,-114.19 379.25,-120.95 389.84,-120.75 387.4,-114.19"/>
</a>
</g>
</g>
<!-- Node6&#45;&gt;Node3 -->
<g id="edge8_Node000006_Node000003" class="edge">
<title>Node6&#45;&gt;Node3</title>
<g id="a_edge8_Node000006_Node000003"><a xlink:title=" ">
<path fill="none" stroke="#63b8ff" d="M293.13,-58.32C241.95,-47.02 162.2,-29.42 115.08,-19.02"/>
<polygon fill="#63b8ff" stroke="#63b8ff" points="292.45,-61.76 302.97,-60.49 293.96,-54.92 292.45,-61.76"/>
</a>
</g>
</g>
<!-- Node6&#45;&gt;Node4 -->
<g id="edge9_Node000006_Node000004" class="edge">
<title>Node6&#45;&gt;Node4</title>
<g id="a_edge9_Node000006_Node000004"><a xlink:title=" ">
<path fill="none" stroke="#63b8ff" d="M316.49,-55.58C295.64,-44.38 266.55,-28.77 248.65,-19.17"/>
<polygon fill="#63b8ff" stroke="#63b8ff" points="314.95,-58.72 325.42,-60.37 318.26,-52.56 314.95,-58.72"/>
</a>
</g>
</g>
<!-- Node7 -->
<g id="Node000007" class="node">
<title>Node7</title>
<g id="a_Node000007"><a xlink:href="AppLayer_8cpp.html" target="_top" xlink:title=" ">
<polygon fill="white" stroke="#666666" points="452.5,-19 312.5,-19 312.5,0 452.5,0 452.5,-19"/>
<text text-anchor="middle" x="382.5" y="-7" font-family="Helvetica,sans-Serif" font-size="10.00">App/Source/AppLayer.cpp</text>
</a>
</g>
</g>
<!-- Node6&#45;&gt;Node7 -->
<g id="edge6_Node000006_Node000007" class="edge">
<title>Node6&#45;&gt;Node7</title>
<g id="a_edge6_Node000006_Node000007"><a xlink:title=" ">
<path fill="none" stroke="#63b8ff" d="M353.32,-52.13C360.88,-41.35 370.36,-27.82 376.43,-19.17"/>
<polygon fill="#63b8ff" stroke="#63b8ff" points="350.42,-50.17 347.55,-60.37 356.16,-54.19 350.42,-50.17"/>
</a>
</g>
</g>
<!-- Node8 -->
<g id="Node000008" class="node">
<title>Node8</title>
<g id="a_Node000008"><a xlink:href="RunApp_8cpp.html" target="_top" xlink:title=" ">
<polygon fill="white" stroke="#666666" points="602.5,-19 470.5,-19 470.5,0 602.5,0 602.5,-19"/>
<text text-anchor="middle" x="536.5" y="-7" font-family="Helvetica,sans-Serif" font-size="10.00">App/Source/RunApp.cpp</text>
</a>
</g>
</g>
<!-- Node6&#45;&gt;Node8 -->
<g id="edge7_Node000006_Node000008" class="edge">
<title>Node6&#45;&gt;Node8</title>
<g id="a_edge7_Node000006_Node000008"><a xlink:title=" ">
<path fill="none" stroke="#63b8ff" d="M379.47,-57.61C417.19,-46.29 474.16,-29.2 508.11,-19.02"/>
<polygon fill="#63b8ff" stroke="#63b8ff" points="378.43,-54.27 369.85,-60.49 380.44,-60.97 378.43,-54.27"/>
</a>
</g>
</g>
</g>
</svg>
