<?xml version="1.0" encoding="UTF-8" standalone="no"?>
<!DOCTYPE svg PUBLIC "-//W3C//DTD SVG 1.1//EN"
 "http://www.w3.org/Graphics/SVG/1.1/DTD/svg11.dtd">
<!-- Generated by graphviz version 2.43.0 (0)
 -->
<!-- Title: App/Test/Source/MathHelpers_utest.cpp Pages: 1 -->
<svg width="1135pt" height="203pt"
 viewBox="0.00 0.00 1135.00 203.00" xmlns="http://www.w3.org/2000/svg" xmlns:xlink="http://www.w3.org/1999/xlink">
<g id="graph0" class="graph" transform="scale(1 1) rotate(0) translate(4 199)">
<title>App/Test/Source/MathHelpers_utest.cpp</title>
<!-- Node1 -->
<g id="Node000001" class="node">
<title>Node1</title>
<g id="a_Node000001"><a xlink:title=" ">
<polygon fill="#999999" stroke="#666666" points="856.5,-195 697.5,-195 697.5,-165 856.5,-165 856.5,-195"/>
<text text-anchor="start" x="705.5" y="-183" font-family="Helvetica,sans-Serif" font-size="10.00">App/Test/Source/MathHelpers</text>
<text text-anchor="middle" x="777" y="-172" font-family="Helvetica,sans-Serif" font-size="10.00">_utest.cpp</text>
</a>
</g>
</g>
<!-- Node2 -->
<g id="Node000002" class="node">
<title>Node2</title>
<g id="a_Node000002"><a xlink:href="MathHelpers_8h.html" target="_top" xlink:title=" ">
<polygon fill="white" stroke="#666666" points="776.5,-129 663.5,-129 663.5,-110 776.5,-110 776.5,-129"/>
<text text-anchor="middle" x="720" y="-117" font-family="Helvetica,sans-Serif" font-size="10.00">Core/MathHelpers.h</text>
</a>
</g>
</g>
<!-- Node1&#45;&gt;Node2 -->
<g id="edge1_Node000001_Node000002" class="edge">
<title>Node1&#45;&gt;Node2</title>
<g id="a_edge1_Node000001_Node000002"><a xlink:title=" ">
<path fill="none" stroke="#63b8ff" d="M763.2,-164.84C754.93,-156.35 744.38,-145.52 735.77,-136.69"/>
<polygon fill="#63b8ff" stroke="#63b8ff" points="738.03,-133.99 728.54,-129.27 733.01,-138.87 738.03,-133.99"/>
</a>
</g>
</g>
<!-- Node15 -->
<g id="Node000015" class="node">
<title>Node15</title>
<g id="a_Node000015"><a xlink:title=" ">
<polygon fill="#e0e0e0" stroke="#999999" points="873,-129 795,-129 795,-110 873,-110 873,-129"/>
<text text-anchor="middle" x="834" y="-117" font-family="Helvetica,sans-Serif" font-size="10.00">gtest/gtest.h</text>
</a>
</g>
</g>
<!-- Node1&#45;&gt;Node15 -->
<g id="edge14_Node000001_Node000015" class="edge">
<title>Node1&#45;&gt;Node15</title>
<g id="a_edge14_Node000001_Node000015"><a xlink:title=" ">
<path fill="none" stroke="#63b8ff" d="M790.8,-164.84C799.07,-156.35 809.62,-145.52 818.23,-136.69"/>
<polygon fill="#63b8ff" stroke="#63b8ff" points="820.99,-138.87 825.46,-129.27 815.97,-133.99 820.99,-138.87"/>
</a>
</g>
</g>
<!-- Node3 -->
<g id="Node000003" class="node">
<title>Node3</title>
<g id="a_Node000003"><a xlink:href="BaseTypes_8h.html" target="_top" xlink:title=" ">
<polygon fill="white" stroke="#666666" points="678.5,-74 575.5,-74 575.5,-55 678.5,-55 678.5,-74"/>
<text text-anchor="middle" x="627" y="-62" font-family="Helvetica,sans-Serif" font-size="10.00">Core/BaseTypes.h</text>
</a>
</g>
</g>
<!-- Node2&#45;&gt;Node3 -->
<g id="edge2_Node000002_Node000003" class="edge">
<title>Node2&#45;&gt;Node3</title>
<g id="a_edge2_Node000002_Node000003"><a xlink:title=" ">
<path fill="none" stroke="#63b8ff" d="M705.06,-109.98C690.5,-101.69 668.13,-88.94 651.07,-79.22"/>
<polygon fill="#63b8ff" stroke="#63b8ff" points="652.64,-76.08 642.21,-74.17 649.17,-82.16 652.64,-76.08"/>
</a>
</g>
</g>
<!-- Node13 -->
<g id="Node000013" class="node">
<title>Node13</title>
<g id="a_Node000013"><a xlink:title=" ">
<polygon fill="#e0e0e0" stroke="#999999" points="743.5,-74 696.5,-74 696.5,-55 743.5,-55 743.5,-74"/>
<text text-anchor="middle" x="720" y="-62" font-family="Helvetica,sans-Serif" font-size="10.00">cmath</text>
</a>
</g>
</g>
<!-- Node2&#45;&gt;Node13 -->
<g id="edge12_Node000002_Node000013" class="edge">
<title>Node2&#45;&gt;Node13</title>
<g id="a_edge12_Node000002_Node000013"><a xlink:title=" ">
<path fill="none" stroke="#63b8ff" d="M720,-109.75C720,-102.8 720,-92.85 720,-84.13"/>
<polygon fill="#63b8ff" stroke="#63b8ff" points="723.5,-84.09 720,-74.09 716.5,-84.09 723.5,-84.09"/>
</a>
</g>
</g>
<!-- Node14 -->
<g id="Node000014" class="node">
<title>Node14</title>
<g id="a_Node000014"><a xlink:title=" ">
<polygon fill="#e0e0e0" stroke="#999999" points="806,-74 762,-74 762,-55 806,-55 806,-74"/>
<text text-anchor="middle" x="784" y="-62" font-family="Helvetica,sans-Serif" font-size="10.00">limits</text>
</a>
</g>
</g>
<!-- Node2&#45;&gt;Node14 -->
<g id="edge13_Node000002_Node000014" class="edge">
<title>Node2&#45;&gt;Node14</title>
<g id="a_edge13_Node000002_Node000014"><a xlink:title=" ">
<path fill="none" stroke="#63b8ff" d="M730.28,-109.98C739.84,-102.07 754.28,-90.11 765.78,-80.58"/>
<polygon fill="#63b8ff" stroke="#63b8ff" points="768.06,-83.24 773.53,-74.17 763.6,-77.85 768.06,-83.24"/>
</a>
</g>
</g>
<!-- Node4 -->
<g id="Node000004" class="node">
<title>Node4</title>
<g id="a_Node000004"><a xlink:title=" ">
<polygon fill="#e0e0e0" stroke="#999999" points="78,-19 0,-19 0,0 78,0 78,-19"/>
<text text-anchor="middle" x="39" y="-7" font-family="Helvetica,sans-Serif" font-size="10.00">glm/glm.hpp</text>
</a>
</g>
</g>
<!-- Node3&#45;&gt;Node4 -->
<g id="edge3_Node000003_Node000004" class="edge">
<title>Node3&#45;&gt;Node4</title>
<g id="a_edge3_Node000003_Node000004"><a xlink:title=" ">
<path fill="none" stroke="#63b8ff" d="M575.46,-60.85C480.93,-55.65 273.33,-42.61 88.43,-19.07"/>
<polygon fill="#63b8ff" stroke="#63b8ff" points="88.61,-15.56 78.25,-17.76 87.72,-22.5 88.61,-15.56"/>
</a>
</g>
</g>
<!-- Node5 -->
<g id="Node000005" class="node">
<title>Node5</title>
<g id="a_Node000005"><a xlink:title=" ">
<polygon fill="#e0e0e0" stroke="#999999" points="259.5,-19 96.5,-19 96.5,0 259.5,0 259.5,-19"/>
<text text-anchor="middle" x="178" y="-7" font-family="Helvetica,sans-Serif" font-size="10.00">glm/gtc/matrix_transform.hpp</text>
</a>
</g>
</g>
<!-- Node3&#45;&gt;Node5 -->
<g id="edge4_Node000003_Node000005" class="edge">
<title>Node3&#45;&gt;Node5</title>
<g id="a_edge4_Node000003_Node000005"><a xlink:title=" ">
<path fill="none" stroke="#63b8ff" d="M575.49,-57.42C498.45,-48.33 352.44,-31.09 260.45,-20.23"/>
<polygon fill="#63b8ff" stroke="#63b8ff" points="260.68,-16.73 250.33,-19.04 259.86,-23.69 260.68,-16.73"/>
</a>
</g>
</g>
<!-- Node6 -->
<g id="Node000006" class="node">
<title>Node6</title>
<g id="a_Node000006"><a xlink:title=" ">
<polygon fill="#e0e0e0" stroke="#999999" points="408,-19 278,-19 278,0 408,0 408,-19"/>
<text text-anchor="middle" x="343" y="-7" font-family="Helvetica,sans-Serif" font-size="10.00">glm/gtc/quaternion.hpp</text>
</a>
</g>
</g>
<!-- Node3&#45;&gt;Node6 -->
<g id="edge5_Node000003_Node000006" class="edge">
<title>Node3&#45;&gt;Node6</title>
<g id="a_edge5_Node000003_Node000006"><a xlink:title=" ">
<path fill="none" stroke="#63b8ff" d="M581.37,-54.98C531.73,-45.72 452.34,-30.9 398.97,-20.94"/>
<polygon fill="#63b8ff" stroke="#63b8ff" points="399.46,-17.48 388.99,-19.08 398.18,-24.36 399.46,-17.48"/>
</a>
</g>
</g>
<!-- Node7 -->
<g id="Node000007" class="node">
<title>Node7</title>
<g id="a_Node000007"><a xlink:title=" ">
<polygon fill="#e0e0e0" stroke="#999999" points="543.5,-19 426.5,-19 426.5,0 543.5,0 543.5,-19"/>
<text text-anchor="middle" x="485" y="-7" font-family="Helvetica,sans-Serif" font-size="10.00">glm/gtc/type_ptr.hpp</text>
</a>
</g>
</g>
<!-- Node3&#45;&gt;Node7 -->
<g id="edge6_Node000003_Node000007" class="edge">
<title>Node3&#45;&gt;Node7</title>
<g id="a_edge6_Node000003_Node000007"><a xlink:title=" ">
<path fill="none" stroke="#63b8ff" d="M604.19,-54.98C580.83,-46.27 544.3,-32.63 517.83,-22.75"/>
<polygon fill="#63b8ff" stroke="#63b8ff" points="518.82,-19.39 508.23,-19.17 516.37,-25.95 518.82,-19.39"/>
</a>
</g>
</g>
<!-- Node8 -->
<g id="Node000008" class="node">
<title>Node8</title>
<g id="a_Node000008"><a xlink:title=" ">
<polygon fill="#e0e0e0" stroke="#999999" points="692.5,-19 561.5,-19 561.5,0 692.5,0 692.5,-19"/>
<text text-anchor="middle" x="627" y="-7" font-family="Helvetica,sans-Serif" font-size="10.00">glm/gtx/quaternion.hpp</text>
</a>
</g>
</g>
<!-- Node3&#45;&gt;Node8 -->
<g id="edge7_Node000003_Node000008" class="edge">
<title>Node3&#45;&gt;Node8</title>
<g id="a_edge7_Node000003_Node000008"><a xlink:title=" ">
<path fill="none" stroke="#63b8ff" d="M627,-54.75C627,-47.8 627,-37.85 627,-29.13"/>
<polygon fill="#63b8ff" stroke="#63b8ff" points="630.5,-29.09 627,-19.09 623.5,-29.09 630.5,-29.09"/>
</a>
</g>
</g>
<!-- Node9 -->
<g id="Node000009" class="node">
<title>Node9</title>
<g id="a_Node000009"><a xlink:title=" ">
<polygon fill="#e0e0e0" stroke="#999999" points="837,-19 711,-19 711,0 837,0 837,-19"/>
<text text-anchor="middle" x="774" y="-7" font-family="Helvetica,sans-Serif" font-size="10.00">glm/gtx/transform.hpp</text>
</a>
</g>
</g>
<!-- Node3&#45;&gt;Node9 -->
<g id="edge8_Node000003_Node000009" class="edge">
<title>Node3&#45;&gt;Node9</title>
<g id="a_edge8_Node000003_Node000009"><a xlink:title=" ">
<path fill="none" stroke="#63b8ff" d="M650.62,-54.98C674.9,-46.23 712.95,-32.51 740.37,-22.62"/>
<polygon fill="#63b8ff" stroke="#63b8ff" points="741.73,-25.85 749.95,-19.17 739.36,-19.27 741.73,-25.85"/>
</a>
</g>
</g>
<!-- Node10 -->
<g id="Node000010" class="node">
<title>Node10</title>
<g id="a_Node000010"><a xlink:title=" ">
<polygon fill="#e0e0e0" stroke="#999999" points="996.5,-19 855.5,-19 855.5,0 996.5,0 996.5,-19"/>
<text text-anchor="middle" x="926" y="-7" font-family="Helvetica,sans-Serif" font-size="10.00">glm/gtx/vector_angle.hpp</text>
</a>
</g>
</g>
<!-- Node3&#45;&gt;Node10 -->
<g id="edge9_Node000003_Node000010" class="edge">
<title>Node3&#45;&gt;Node10</title>
<g id="a_edge9_Node000003_Node000010"><a xlink:title=" ">
<path fill="none" stroke="#63b8ff" d="M675.04,-54.98C727.41,-45.7 811.24,-30.84 867.43,-20.88"/>
<polygon fill="#63b8ff" stroke="#63b8ff" points="868.35,-24.27 877.58,-19.08 867.13,-17.38 868.35,-24.27"/>
</a>
</g>
</g>
<!-- Node11 -->
<g id="Node000011" class="node">
<title>Node11</title>
<g id="a_Node000011"><a xlink:title=" ">
<polygon fill="#e0e0e0" stroke="#999999" points="1059,-19 1015,-19 1015,0 1059,0 1059,-19"/>
<text text-anchor="middle" x="1037" y="-7" font-family="Helvetica,sans-Serif" font-size="10.00">bitset</text>
</a>
</g>
</g>
<!-- Node3&#45;&gt;Node11 -->
<g id="edge10_Node000003_Node000011" class="edge">
<title>Node3&#45;&gt;Node11</title>
<g id="a_edge10_Node000003_Node000011"><a xlink:title=" ">
<path fill="none" stroke="#63b8ff" d="M678.57,-56.22C681.76,-55.8 684.92,-55.39 688,-55 825.95,-37.58 864.6,-45.51 1004.91,-18.93"/>
<polygon fill="#63b8ff" stroke="#63b8ff" points="1005.58,-22.37 1014.75,-17.05 1004.27,-15.49 1005.58,-22.37"/>
</a>
</g>
</g>
<!-- Node12 -->
<g id="Node000012" class="node">
<title>Node12</title>
<g id="a_Node000012"><a xlink:title=" ">
<polygon fill="#e0e0e0" stroke="#999999" points="1127,-19 1077,-19 1077,0 1127,0 1127,-19"/>
<text text-anchor="middle" x="1102" y="-7" font-family="Helvetica,sans-Serif" font-size="10.00">cstdint</text>
</a>
</g>
</g>
<!-- Node3&#45;&gt;Node12 -->
<g id="edge11_Node000003_Node000012" class="edge">
<title>Node3&#45;&gt;Node12</title>
<g id="a_edge11_Node000003_Node000012"><a xlink:title=" ">
<path fill="none" stroke="#63b8ff" d="M678.56,-56.15C681.76,-55.75 684.92,-55.36 688,-55 853.29,-35.66 899.06,-47.19 1066.92,-18.93"/>
<polygon fill="#63b8ff" stroke="#63b8ff" points="1067.57,-22.37 1076.84,-17.24 1066.39,-15.47 1067.57,-22.37"/>
</a>
</g>
</g>
</g>
</svg>
