<?xml version="1.0" encoding="UTF-8" standalone="no"?>
<!DOCTYPE svg PUBLIC "-//W3C//DTD SVG 1.1//EN"
 "http://www.w3.org/Graphics/SVG/1.1/DTD/svg11.dtd">
<!-- Generated by graphviz version 2.43.0 (0)
 -->
<!-- Title: App/Source/MeshIntegrity.cpp Pages: 1 -->
<svg width="1135pt" height="302pt"
 viewBox="0.00 0.00 1135.00 302.00" xmlns="http://www.w3.org/2000/svg" xmlns:xlink="http://www.w3.org/1999/xlink">
<g id="graph0" class="graph" transform="scale(1 1) rotate(0) translate(4 298)">
<title>App/Source/MeshIntegrity.cpp</title>
<!-- Node1 -->
<g id="Node000001" class="node">
<title>Node1</title>
<g id="a_Node000001"><a xlink:title=" ">
<polygon fill="#999999" stroke="#666666" points="952.5,-294 791.5,-294 791.5,-275 952.5,-275 952.5,-294"/>
<text text-anchor="middle" x="872" y="-282" font-family="Helvetica,sans-Serif" font-size="10.00">App/Source/MeshIntegrity.cpp</text>
</a>
</g>
</g>
<!-- Node2 -->
<g id="Node000002" class="node">
<title>Node2</title>
<g id="a_Node000002"><a xlink:href="MeshIntegrity_8h.html" target="_top" xlink:title=" ">
<polygon fill="white" stroke="#666666" points="946.5,-239 797.5,-239 797.5,-220 946.5,-220 946.5,-239"/>
<text text-anchor="middle" x="872" y="-227" font-family="Helvetica,sans-Serif" font-size="10.00">Application/MeshIntegrity.h</text>
</a>
</g>
</g>
<!-- Node1&#45;&gt;Node2 -->
<g id="edge1_Node000001_Node000002" class="edge">
<title>Node1&#45;&gt;Node2</title>
<g id="a_edge1_Node000001_Node000002"><a xlink:title=" ">
<path fill="none" stroke="#63b8ff" d="M872,-274.75C872,-267.8 872,-257.85 872,-249.13"/>
<polygon fill="#63b8ff" stroke="#63b8ff" points="875.5,-249.09 872,-239.09 868.5,-249.09 875.5,-249.09"/>
</a>
</g>
</g>
<!-- Node3 -->
<g id="Node000003" class="node">
<title>Node3</title>
<g id="a_Node000003"><a xlink:href="Mesh_8h.html" target="_top" xlink:title=" ">
<polygon fill="white" stroke="#666666" points="866,-184 756,-184 756,-165 866,-165 866,-184"/>
<text text-anchor="middle" x="811" y="-172" font-family="Helvetica,sans-Serif" font-size="10.00">Application/Mesh.h</text>
</a>
</g>
</g>
<!-- Node2&#45;&gt;Node3 -->
<g id="edge2_Node000002_Node000003" class="edge">
<title>Node2&#45;&gt;Node3</title>
<g id="a_edge2_Node000002_Node000003"><a xlink:title=" ">
<path fill="none" stroke="#63b8ff" d="M862.2,-219.98C853.18,-212.15 839.59,-200.34 828.68,-190.86"/>
<polygon fill="#63b8ff" stroke="#63b8ff" points="830.82,-188.09 820.98,-184.17 826.23,-193.37 830.82,-188.09"/>
</a>
</g>
</g>
<!-- Node18 -->
<g id="Node000018" class="node">
<title>Node18</title>
<g id="a_Node000018"><a xlink:title=" ">
<polygon fill="#e0e0e0" stroke="#999999" points="1127,-19 1077,-19 1077,0 1127,0 1127,-19"/>
<text text-anchor="middle" x="1102" y="-7" font-family="Helvetica,sans-Serif" font-size="10.00">cstdint</text>
</a>
</g>
</g>
<!-- Node2&#45;&gt;Node18 -->
<g id="edge22_Node000002_Node000018" class="edge">
<title>Node2&#45;&gt;Node18</title>
<g id="a_edge22_Node000002_Node000018"><a xlink:title=" ">
<path fill="none" stroke="#63b8ff" d="M881.02,-219.95C915.58,-187.2 1039.92,-69.34 1085.28,-26.34"/>
<polygon fill="#63b8ff" stroke="#63b8ff" points="1087.95,-28.64 1092.8,-19.22 1083.13,-23.56 1087.95,-28.64"/>
</a>
</g>
</g>
<!-- Node4 -->
<g id="Node000004" class="node">
<title>Node4</title>
<g id="a_Node000004"><a xlink:href="ExtraDataContainer_8h.html" target="_top" xlink:title=" ">
<polygon fill="white" stroke="#666666" points="587.5,-129 408.5,-129 408.5,-110 587.5,-110 587.5,-129"/>
<text text-anchor="middle" x="498" y="-117" font-family="Helvetica,sans-Serif" font-size="10.00">Application/ExtraDataContainer.h</text>
</a>
</g>
</g>
<!-- Node3&#45;&gt;Node4 -->
<g id="edge3_Node000003_Node000004" class="edge">
<title>Node3&#45;&gt;Node4</title>
<g id="a_edge3_Node000003_Node000004"><a xlink:title=" ">
<path fill="none" stroke="#63b8ff" d="M760.71,-164.98C705.58,-155.65 617.15,-140.67 558.32,-130.71"/>
<polygon fill="#63b8ff" stroke="#63b8ff" points="558.87,-127.26 548.42,-129.04 557.7,-134.16 558.87,-127.26"/>
</a>
</g>
</g>
<!-- Node8 -->
<g id="Node000008" class="node">
<title>Node8</title>
<g id="a_Node000008"><a xlink:href="Primitive_8h.html" target="_top" xlink:title=" ">
<polygon fill="white" stroke="#666666" points="819,-129 691,-129 691,-110 819,-110 819,-129"/>
<text text-anchor="middle" x="755" y="-117" font-family="Helvetica,sans-Serif" font-size="10.00">Application/Primitive.h</text>
</a>
</g>
</g>
<!-- Node3&#45;&gt;Node8 -->
<g id="edge7_Node000003_Node000008" class="edge">
<title>Node3&#45;&gt;Node8</title>
<g id="a_edge7_Node000003_Node000008"><a xlink:title=" ">
<path fill="none" stroke="#63b8ff" d="M802,-164.98C793.81,-157.23 781.49,-145.58 771.53,-136.14"/>
<polygon fill="#63b8ff" stroke="#63b8ff" points="773.83,-133.5 764.16,-129.17 769.02,-138.59 773.83,-133.5"/>
</a>
</g>
</g>
<!-- Node9 -->
<g id="Node000009" class="node">
<title>Node9</title>
<g id="a_Node000009"><a xlink:href="BaseTypes_8h.html" target="_top" xlink:title=" ">
<polygon fill="white" stroke="#666666" points="715.5,-74 612.5,-74 612.5,-55 715.5,-55 715.5,-74"/>
<text text-anchor="middle" x="664" y="-62" font-family="Helvetica,sans-Serif" font-size="10.00">Core/BaseTypes.h</text>
</a>
</g>
</g>
<!-- Node3&#45;&gt;Node9 -->
<g id="edge19_Node000003_Node000009" class="edge">
<title>Node3&#45;&gt;Node9</title>
<g id="a_edge19_Node000003_Node000009"><a xlink:title=" ">
<path fill="none" stroke="#63b8ff" d="M755.7,-166.36C730.11,-160.35 701.21,-149.31 682,-129 670.57,-116.91 666.32,-98.11 664.77,-84.1"/>
<polygon fill="#63b8ff" stroke="#63b8ff" points="668.26,-83.82 664.03,-74.11 661.28,-84.34 668.26,-83.82"/>
</a>
</g>
</g>
<!-- Node20 -->
<g id="Node000020" class="node">
<title>Node20</title>
<g id="a_Node000020"><a xlink:title=" ">
<polygon fill="#e0e0e0" stroke="#999999" points="895,-129 837,-129 837,-110 895,-110 895,-129"/>
<text text-anchor="middle" x="866" y="-117" font-family="Helvetica,sans-Serif" font-size="10.00">memory</text>
</a>
</g>
</g>
<!-- Node3&#45;&gt;Node20 -->
<g id="edge20_Node000003_Node000020" class="edge">
<title>Node3&#45;&gt;Node20</title>
<g id="a_edge20_Node000003_Node000020"><a xlink:title=" ">
<path fill="none" stroke="#63b8ff" d="M820.08,-164.75C828.09,-157.03 839.96,-145.6 849.62,-136.28"/>
<polygon fill="#63b8ff" stroke="#63b8ff" points="852.31,-138.55 857.09,-129.09 847.46,-133.51 852.31,-138.55"/>
</a>
</g>
</g>
<!-- Node21 -->
<g id="Node000021" class="node">
<title>Node21</title>
<g id="a_Node000021"><a xlink:title=" ">
<polygon fill="#e0e0e0" stroke="#999999" points="960.5,-129 913.5,-129 913.5,-110 960.5,-110 960.5,-129"/>
<text text-anchor="middle" x="937" y="-117" font-family="Helvetica,sans-Serif" font-size="10.00">vector</text>
</a>
</g>
</g>
<!-- Node3&#45;&gt;Node21 -->
<g id="edge21_Node000003_Node000021" class="edge">
<title>Node3&#45;&gt;Node21</title>
<g id="a_edge21_Node000003_Node000021"><a xlink:title=" ">
<path fill="none" stroke="#63b8ff" d="M831.24,-164.98C851.7,-156.38 883.53,-142.99 906.93,-133.15"/>
<polygon fill="#63b8ff" stroke="#63b8ff" points="908.53,-136.27 916.39,-129.17 905.81,-129.82 908.53,-136.27"/>
</a>
</g>
</g>
<!-- Node5 -->
<g id="Node000005" class="node">
<title>Node5</title>
<g id="a_Node000005"><a xlink:title=" ">
<polygon fill="#e0e0e0" stroke="#999999" points="400.5,-74 365.5,-74 365.5,-55 400.5,-55 400.5,-74"/>
<text text-anchor="middle" x="383" y="-62" font-family="Helvetica,sans-Serif" font-size="10.00">any</text>
</a>
</g>
</g>
<!-- Node4&#45;&gt;Node5 -->
<g id="edge4_Node000004_Node000005" class="edge">
<title>Node4&#45;&gt;Node5</title>
<g id="a_edge4_Node000004_Node000005"><a xlink:title=" ">
<path fill="none" stroke="#63b8ff" d="M479.52,-109.98C460.69,-101.31 431.29,-87.76 409.88,-77.89"/>
<polygon fill="#63b8ff" stroke="#63b8ff" points="411.22,-74.65 400.68,-73.65 408.29,-81.01 411.22,-74.65"/>
</a>
</g>
</g>
<!-- Node6 -->
<g id="Node000006" class="node">
<title>Node6</title>
<g id="a_Node000006"><a xlink:title=" ">
<polygon fill="#e0e0e0" stroke="#999999" points="483.5,-74 418.5,-74 418.5,-55 483.5,-55 483.5,-74"/>
<text text-anchor="middle" x="451" y="-62" font-family="Helvetica,sans-Serif" font-size="10.00">typeindex</text>
</a>
</g>
</g>
<!-- Node4&#45;&gt;Node6 -->
<g id="edge5_Node000004_Node000006" class="edge">
<title>Node4&#45;&gt;Node6</title>
<g id="a_edge5_Node000004_Node000006"><a xlink:title=" ">
<path fill="none" stroke="#63b8ff" d="M490.24,-109.75C483.53,-102.18 473.66,-91.05 465.49,-81.84"/>
<polygon fill="#63b8ff" stroke="#63b8ff" points="467.87,-79.25 458.62,-74.09 462.63,-83.89 467.87,-79.25"/>
</a>
</g>
</g>
<!-- Node7 -->
<g id="Node000007" class="node">
<title>Node7</title>
<g id="a_Node000007"><a xlink:title=" ">
<polygon fill="#e0e0e0" stroke="#999999" points="594.5,-74 501.5,-74 501.5,-55 594.5,-55 594.5,-74"/>
<text text-anchor="middle" x="548" y="-62" font-family="Helvetica,sans-Serif" font-size="10.00">unordered_map</text>
</a>
</g>
</g>
<!-- Node4&#45;&gt;Node7 -->
<g id="edge6_Node000004_Node000007" class="edge">
<title>Node4&#45;&gt;Node7</title>
<g id="a_edge6_Node000004_Node000007"><a xlink:title=" ">
<path fill="none" stroke="#63b8ff" d="M506.26,-109.75C513.46,-102.11 524.11,-90.82 532.85,-81.56"/>
<polygon fill="#63b8ff" stroke="#63b8ff" points="535.58,-83.76 539.9,-74.09 530.49,-78.96 535.58,-83.76"/>
</a>
</g>
</g>
<!-- Node8&#45;&gt;Node9 -->
<g id="edge8_Node000008_Node000009" class="edge">
<title>Node8&#45;&gt;Node9</title>
<g id="a_edge8_Node000008_Node000009"><a xlink:title=" ">
<path fill="none" stroke="#63b8ff" d="M740.38,-109.98C726.14,-101.69 704.25,-88.94 687.55,-79.22"/>
<polygon fill="#63b8ff" stroke="#63b8ff" points="689.29,-76.18 678.89,-74.17 685.77,-82.23 689.29,-76.18"/>
</a>
</g>
</g>
<!-- Node19 -->
<g id="Node000019" class="node">
<title>Node19</title>
<g id="a_Node000019"><a xlink:title=" ">
<polygon fill="#e0e0e0" stroke="#999999" points="776,-74 734,-74 734,-55 776,-55 776,-74"/>
<text text-anchor="middle" x="755" y="-62" font-family="Helvetica,sans-Serif" font-size="10.00">array</text>
</a>
</g>
</g>
<!-- Node8&#45;&gt;Node19 -->
<g id="edge18_Node000008_Node000019" class="edge">
<title>Node8&#45;&gt;Node19</title>
<g id="a_edge18_Node000008_Node000019"><a xlink:title=" ">
<path fill="none" stroke="#63b8ff" d="M755,-109.75C755,-102.8 755,-92.85 755,-84.13"/>
<polygon fill="#63b8ff" stroke="#63b8ff" points="758.5,-84.09 755,-74.09 751.5,-84.09 758.5,-84.09"/>
</a>
</g>
</g>
<!-- Node10 -->
<g id="Node000010" class="node">
<title>Node10</title>
<g id="a_Node000010"><a xlink:title=" ">
<polygon fill="#e0e0e0" stroke="#999999" points="78,-19 0,-19 0,0 78,0 78,-19"/>
<text text-anchor="middle" x="39" y="-7" font-family="Helvetica,sans-Serif" font-size="10.00">glm/glm.hpp</text>
</a>
</g>
</g>
<!-- Node9&#45;&gt;Node10 -->
<g id="edge9_Node000009_Node000010" class="edge">
<title>Node9&#45;&gt;Node10</title>
<g id="a_edge9_Node000009_Node000010"><a xlink:title=" ">
<path fill="none" stroke="#63b8ff" d="M612.45,-56.06C609.25,-55.68 606.08,-55.32 603,-55 377.59,-31.46 316.88,-46.64 88.2,-19.01"/>
<polygon fill="#63b8ff" stroke="#63b8ff" points="88.59,-15.54 78.24,-17.8 87.74,-22.48 88.59,-15.54"/>
</a>
</g>
</g>
<!-- Node11 -->
<g id="Node000011" class="node">
<title>Node11</title>
<g id="a_Node000011"><a xlink:title=" ">
<polygon fill="#e0e0e0" stroke="#999999" points="259.5,-19 96.5,-19 96.5,0 259.5,0 259.5,-19"/>
<text text-anchor="middle" x="178" y="-7" font-family="Helvetica,sans-Serif" font-size="10.00">glm/gtc/matrix_transform.hpp</text>
</a>
</g>
</g>
<!-- Node9&#45;&gt;Node11 -->
<g id="edge10_Node000009_Node000011" class="edge">
<title>Node9&#45;&gt;Node11</title>
<g id="a_edge10_Node000009_Node000011"><a xlink:title=" ">
<path fill="none" stroke="#63b8ff" d="M612.43,-56.19C609.24,-55.77 606.08,-55.38 603,-55 488.24,-41 355.72,-27.56 269.58,-19.18"/>
<polygon fill="#63b8ff" stroke="#63b8ff" points="269.86,-15.69 259.57,-18.21 269.18,-22.66 269.86,-15.69"/>
</a>
</g>
</g>
<!-- Node12 -->
<g id="Node000012" class="node">
<title>Node12</title>
<g id="a_Node000012"><a xlink:title=" ">
<polygon fill="#e0e0e0" stroke="#999999" points="408,-19 278,-19 278,0 408,0 408,-19"/>
<text text-anchor="middle" x="343" y="-7" font-family="Helvetica,sans-Serif" font-size="10.00">glm/gtc/quaternion.hpp</text>
</a>
</g>
</g>
<!-- Node9&#45;&gt;Node12 -->
<g id="edge11_Node000009_Node000012" class="edge">
<title>Node9&#45;&gt;Node12</title>
<g id="a_edge11_Node000009_Node000012"><a xlink:title=" ">
<path fill="none" stroke="#63b8ff" d="M612.43,-54.98C555.88,-45.65 465.19,-30.67 404.86,-20.71"/>
<polygon fill="#63b8ff" stroke="#63b8ff" points="405.15,-17.21 394.71,-19.04 404.01,-24.12 405.15,-17.21"/>
</a>
</g>
</g>
<!-- Node13 -->
<g id="Node000013" class="node">
<title>Node13</title>
<g id="a_Node000013"><a xlink:title=" ">
<polygon fill="#e0e0e0" stroke="#999999" points="543.5,-19 426.5,-19 426.5,0 543.5,0 543.5,-19"/>
<text text-anchor="middle" x="485" y="-7" font-family="Helvetica,sans-Serif" font-size="10.00">glm/gtc/type_ptr.hpp</text>
</a>
</g>
</g>
<!-- Node9&#45;&gt;Node13 -->
<g id="edge12_Node000009_Node000013" class="edge">
<title>Node9&#45;&gt;Node13</title>
<g id="a_edge12_Node000009_Node000013"><a xlink:title=" ">
<path fill="none" stroke="#63b8ff" d="M635.24,-54.98C605.06,-46.05 557.43,-31.94 523.9,-22.02"/>
<polygon fill="#63b8ff" stroke="#63b8ff" points="524.57,-18.57 513.98,-19.08 522.58,-25.28 524.57,-18.57"/>
</a>
</g>
</g>
<!-- Node14 -->
<g id="Node000014" class="node">
<title>Node14</title>
<g id="a_Node000014"><a xlink:title=" ">
<polygon fill="#e0e0e0" stroke="#999999" points="692.5,-19 561.5,-19 561.5,0 692.5,0 692.5,-19"/>
<text text-anchor="middle" x="627" y="-7" font-family="Helvetica,sans-Serif" font-size="10.00">glm/gtx/quaternion.hpp</text>
</a>
</g>
</g>
<!-- Node9&#45;&gt;Node14 -->
<g id="edge13_Node000009_Node000014" class="edge">
<title>Node9&#45;&gt;Node14</title>
<g id="a_edge13_Node000009_Node000014"><a xlink:title=" ">
<path fill="none" stroke="#63b8ff" d="M657.89,-54.75C652.72,-47.34 645.15,-36.5 638.81,-27.41"/>
<polygon fill="#63b8ff" stroke="#63b8ff" points="641.59,-25.29 633,-19.09 635.85,-29.29 641.59,-25.29"/>
</a>
</g>
</g>
<!-- Node15 -->
<g id="Node000015" class="node">
<title>Node15</title>
<g id="a_Node000015"><a xlink:title=" ">
<polygon fill="#e0e0e0" stroke="#999999" points="837,-19 711,-19 711,0 837,0 837,-19"/>
<text text-anchor="middle" x="774" y="-7" font-family="Helvetica,sans-Serif" font-size="10.00">glm/gtx/transform.hpp</text>
</a>
</g>
</g>
<!-- Node9&#45;&gt;Node15 -->
<g id="edge14_Node000009_Node000015" class="edge">
<title>Node9&#45;&gt;Node15</title>
<g id="a_edge14_Node000009_Node000015"><a xlink:title=" ">
<path fill="none" stroke="#63b8ff" d="M681.67,-54.98C699.29,-46.5 726.58,-33.35 746.93,-23.54"/>
<polygon fill="#63b8ff" stroke="#63b8ff" points="748.52,-26.66 756.01,-19.17 745.48,-20.36 748.52,-26.66"/>
</a>
</g>
</g>
<!-- Node16 -->
<g id="Node000016" class="node">
<title>Node16</title>
<g id="a_Node000016"><a xlink:title=" ">
<polygon fill="#e0e0e0" stroke="#999999" points="996.5,-19 855.5,-19 855.5,0 996.5,0 996.5,-19"/>
<text text-anchor="middle" x="926" y="-7" font-family="Helvetica,sans-Serif" font-size="10.00">glm/gtx/vector_angle.hpp</text>
</a>
</g>
</g>
<!-- Node9&#45;&gt;Node16 -->
<g id="edge15_Node000009_Node000016" class="edge">
<title>Node9&#45;&gt;Node16</title>
<g id="a_edge15_Node000009_Node000016"><a xlink:title=" ">
<path fill="none" stroke="#63b8ff" d="M706.09,-54.98C751.7,-45.76 824.52,-31.03 873.75,-21.07"/>
<polygon fill="#63b8ff" stroke="#63b8ff" points="874.47,-24.5 883.58,-19.08 873.08,-17.63 874.47,-24.5"/>
</a>
</g>
</g>
<!-- Node17 -->
<g id="Node000017" class="node">
<title>Node17</title>
<g id="a_Node000017"><a xlink:title=" ">
<polygon fill="#e0e0e0" stroke="#999999" points="1059,-19 1015,-19 1015,0 1059,0 1059,-19"/>
<text text-anchor="middle" x="1037" y="-7" font-family="Helvetica,sans-Serif" font-size="10.00">bitset</text>
</a>
</g>
</g>
<!-- Node9&#45;&gt;Node17 -->
<g id="edge16_Node000009_Node000017" class="edge">
<title>Node9&#45;&gt;Node17</title>
<g id="a_edge16_Node000009_Node000017"><a xlink:title=" ">
<path fill="none" stroke="#63b8ff" d="M715.58,-56.27C718.77,-55.84 721.93,-55.41 725,-55 846.63,-38.74 880.82,-43.45 1004.86,-18.98"/>
<polygon fill="#63b8ff" stroke="#63b8ff" points="1005.62,-22.4 1014.74,-17.01 1004.25,-15.53 1005.62,-22.4"/>
</a>
</g>
</g>
<!-- Node9&#45;&gt;Node18 -->
<g id="edge17_Node000009_Node000018" class="edge">
<title>Node9&#45;&gt;Node18</title>
<g id="a_edge17_Node000009_Node000018"><a xlink:title=" ">
<path fill="none" stroke="#63b8ff" d="M715.57,-56.19C718.76,-55.78 721.92,-55.38 725,-55 873.88,-36.82 915.29,-45.27 1066.7,-18.99"/>
<polygon fill="#63b8ff" stroke="#63b8ff" points="1067.59,-22.39 1076.83,-17.21 1066.38,-15.49 1067.59,-22.39"/>
</a>
</g>
</g>
</g>
</svg>
