<?xml version="1.0" encoding="UTF-8" standalone="no"?>
<!DOCTYPE svg PUBLIC "-//W3C//DTD SVG 1.1//EN"
 "http://www.w3.org/Graphics/SVG/1.1/DTD/svg11.dtd">
<!-- Generated by graphviz version 2.43.0 (0)
 -->
<!-- Title: App/Test/Source/MeshIntegrity_utest.cpp Pages: 1 -->
<svg width="1135pt" height="368pt"
 viewBox="0.00 0.00 1135.00 368.00" xmlns="http://www.w3.org/2000/svg" xmlns:xlink="http://www.w3.org/1999/xlink">
<g id="graph0" class="graph" transform="scale(1 1) rotate(0) translate(4 364)">
<title>App/Test/Source/MeshIntegrity_utest.cpp</title>
<!-- Node1 -->
<g id="Node000001" class="node">
<title>Node1</title>
<g id="a_Node000001"><a xlink:title=" ">
<polygon fill="#999999" stroke="#666666" points="520,-360 356,-360 356,-330 520,-330 520,-360"/>
<text text-anchor="start" x="364" y="-348" font-family="Helvetica,sans-Serif" font-size="10.00">App/Test/Source/MeshIntegrity</text>
<text text-anchor="middle" x="438" y="-337" font-family="Helvetica,sans-Serif" font-size="10.00">_utest.cpp</text>
</a>
</g>
</g>
<!-- Node2 -->
<g id="Node000002" class="node">
<title>Node2</title>
<g id="a_Node000002"><a xlink:href="MeshIntegrity_8h.html" target="_top" xlink:title=" ">
<polygon fill="white" stroke="#666666" points="290.5,-239 141.5,-239 141.5,-220 290.5,-220 290.5,-239"/>
<text text-anchor="middle" x="216" y="-227" font-family="Helvetica,sans-Serif" font-size="10.00">Application/MeshIntegrity.h</text>
</a>
</g>
</g>
<!-- Node1&#45;&gt;Node2 -->
<g id="edge1_Node000001_Node000002" class="edge">
<title>Node1&#45;&gt;Node2</title>
<g id="a_edge1_Node000001_Node000002"><a xlink:title=" ">
<path fill="none" stroke="#63b8ff" d="M410.33,-329.85C367.09,-307.75 284.09,-265.31 241.94,-243.76"/>
<polygon fill="#63b8ff" stroke="#63b8ff" points="243.37,-240.56 232.87,-239.12 240.18,-246.79 243.37,-240.56"/>
</a>
</g>
</g>
<!-- Node22 -->
<g id="Node000022" class="node">
<title>Node22</title>
<g id="a_Node000022"><a xlink:href="TestHelpers_8h.html" target="_top" xlink:title=" ">
<polygon fill="white" stroke="#666666" points="508,-294 368,-294 368,-275 508,-275 508,-294"/>
<text text-anchor="middle" x="438" y="-282" font-family="Helvetica,sans-Serif" font-size="10.00">Application/TestHelpers.h</text>
</a>
</g>
</g>
<!-- Node1&#45;&gt;Node22 -->
<g id="edge23_Node000001_Node000022" class="edge">
<title>Node1&#45;&gt;Node22</title>
<g id="a_edge23_Node000001_Node000022"><a xlink:title=" ">
<path fill="none" stroke="#63b8ff" d="M438,-329.84C438,-322.21 438,-312.7 438,-304.45"/>
<polygon fill="#63b8ff" stroke="#63b8ff" points="441.5,-304.27 438,-294.27 434.5,-304.27 441.5,-304.27"/>
</a>
</g>
</g>
<!-- Node26 -->
<g id="Node000026" class="node">
<title>Node26</title>
<g id="a_Node000026"><a xlink:title=" ">
<polygon fill="#e0e0e0" stroke="#999999" points="604,-294 526,-294 526,-275 604,-275 604,-294"/>
<text text-anchor="middle" x="565" y="-282" font-family="Helvetica,sans-Serif" font-size="10.00">gtest/gtest.h</text>
</a>
</g>
</g>
<!-- Node1&#45;&gt;Node26 -->
<g id="edge33_Node000001_Node000026" class="edge">
<title>Node1&#45;&gt;Node26</title>
<g id="a_edge33_Node000001_Node000026"><a xlink:title=" ">
<path fill="none" stroke="#63b8ff" d="M468.42,-329.99C489.23,-320.4 516.62,-307.79 536.91,-298.44"/>
<polygon fill="#63b8ff" stroke="#63b8ff" points="538.63,-301.5 546.24,-294.14 535.7,-295.14 538.63,-301.5"/>
</a>
</g>
</g>
<!-- Node3 -->
<g id="Node000003" class="node">
<title>Node3</title>
<g id="a_Node000003"><a xlink:href="Mesh_8h.html" target="_top" xlink:title=" ">
<polygon fill="white" stroke="#666666" points="490,-184 380,-184 380,-165 490,-165 490,-184"/>
<text text-anchor="middle" x="435" y="-172" font-family="Helvetica,sans-Serif" font-size="10.00">Application/Mesh.h</text>
</a>
</g>
</g>
<!-- Node2&#45;&gt;Node3 -->
<g id="edge2_Node000002_Node000003" class="edge">
<title>Node2&#45;&gt;Node3</title>
<g id="a_edge2_Node000002_Node000003"><a xlink:title=" ">
<path fill="none" stroke="#63b8ff" d="M251.19,-219.98C288.83,-210.87 348.66,-196.4 389.77,-186.45"/>
<polygon fill="#63b8ff" stroke="#63b8ff" points="390.64,-189.84 399.54,-184.08 389,-183.03 390.64,-189.84"/>
</a>
</g>
</g>
<!-- Node18 -->
<g id="Node000018" class="node">
<title>Node18</title>
<g id="a_Node000018"><a xlink:title=" ">
<polygon fill="#e0e0e0" stroke="#999999" points="50,-19 0,-19 0,0 50,0 50,-19"/>
<text text-anchor="middle" x="25" y="-7" font-family="Helvetica,sans-Serif" font-size="10.00">cstdint</text>
</a>
</g>
</g>
<!-- Node2&#45;&gt;Node18 -->
<g id="edge22_Node000002_Node000018" class="edge">
<title>Node2&#45;&gt;Node18</title>
<g id="a_edge22_Node000002_Node000018"><a xlink:title=" ">
<path fill="none" stroke="#63b8ff" d="M206.86,-219.74C189.27,-202.76 149.76,-163.95 119,-129 88.22,-94.02 54.95,-50.6 37.43,-27.24"/>
<polygon fill="#63b8ff" stroke="#63b8ff" points="40.11,-24.99 31.32,-19.07 34.5,-29.18 40.11,-24.99"/>
</a>
</g>
</g>
<!-- Node4 -->
<g id="Node000004" class="node">
<title>Node4</title>
<g id="a_Node000004"><a xlink:href="ExtraDataContainer_8h.html" target="_top" xlink:title=" ">
<polygon fill="white" stroke="#666666" points="307.5,-129 128.5,-129 128.5,-110 307.5,-110 307.5,-129"/>
<text text-anchor="middle" x="218" y="-117" font-family="Helvetica,sans-Serif" font-size="10.00">Application/ExtraDataContainer.h</text>
</a>
</g>
</g>
<!-- Node3&#45;&gt;Node4 -->
<g id="edge3_Node000003_Node000004" class="edge">
<title>Node3&#45;&gt;Node4</title>
<g id="a_edge3_Node000003_Node000004"><a xlink:title=" ">
<path fill="none" stroke="#63b8ff" d="M400.14,-164.98C362.91,-155.89 303.8,-141.46 263.07,-131.51"/>
<polygon fill="#63b8ff" stroke="#63b8ff" points="263.68,-128.05 253.14,-129.08 262.02,-134.85 263.68,-128.05"/>
</a>
</g>
</g>
<!-- Node8 -->
<g id="Node000008" class="node">
<title>Node8</title>
<g id="a_Node000008"><a xlink:href="Primitive_8h.html" target="_top" xlink:title=" ">
<polygon fill="white" stroke="#666666" points="606,-129 478,-129 478,-110 606,-110 606,-129"/>
<text text-anchor="middle" x="542" y="-117" font-family="Helvetica,sans-Serif" font-size="10.00">Application/Primitive.h</text>
</a>
</g>
</g>
<!-- Node3&#45;&gt;Node8 -->
<g id="edge7_Node000003_Node000008" class="edge">
<title>Node3&#45;&gt;Node8</title>
<g id="a_edge7_Node000003_Node000008"><a xlink:title=" ">
<path fill="none" stroke="#63b8ff" d="M452.19,-164.98C469.25,-156.54 495.63,-143.47 515.4,-133.68"/>
<polygon fill="#63b8ff" stroke="#63b8ff" points="517.09,-136.75 524.5,-129.17 513.98,-130.47 517.09,-136.75"/>
</a>
</g>
</g>
<!-- Node9 -->
<g id="Node000009" class="node">
<title>Node9</title>
<g id="a_Node000009"><a xlink:href="BaseTypes_8h.html" target="_top" xlink:title=" ">
<polygon fill="white" stroke="#666666" points="593.5,-74 490.5,-74 490.5,-55 593.5,-55 593.5,-74"/>
<text text-anchor="middle" x="542" y="-62" font-family="Helvetica,sans-Serif" font-size="10.00">Core/BaseTypes.h</text>
</a>
</g>
</g>
<!-- Node3&#45;&gt;Node9 -->
<g id="edge19_Node000003_Node000009" class="edge">
<title>Node3&#45;&gt;Node9</title>
<g id="a_edge19_Node000003_Node000009"><a xlink:title=" ">
<path fill="none" stroke="#63b8ff" d="M437.96,-164.8C442.77,-151.66 453.36,-126.54 469,-110 481.38,-96.91 498.44,-86.22 512.95,-78.61"/>
<polygon fill="#63b8ff" stroke="#63b8ff" points="514.67,-81.66 522.04,-74.06 511.54,-75.4 514.67,-81.66"/>
</a>
</g>
</g>
<!-- Node20 -->
<g id="Node000020" class="node">
<title>Node20</title>
<g id="a_Node000020"><a xlink:title=" ">
<polygon fill="#e0e0e0" stroke="#999999" points="422,-129 364,-129 364,-110 422,-110 422,-129"/>
<text text-anchor="middle" x="393" y="-117" font-family="Helvetica,sans-Serif" font-size="10.00">memory</text>
</a>
</g>
</g>
<!-- Node3&#45;&gt;Node20 -->
<g id="edge20_Node000003_Node000020" class="edge">
<title>Node3&#45;&gt;Node20</title>
<g id="a_edge20_Node000003_Node000020"><a xlink:title=" ">
<path fill="none" stroke="#63b8ff" d="M428.06,-164.75C422.13,-157.26 413.43,-146.28 406.18,-137.13"/>
<polygon fill="#63b8ff" stroke="#63b8ff" points="408.76,-134.75 399.81,-129.09 403.27,-139.1 408.76,-134.75"/>
</a>
</g>
</g>
<!-- Node21 -->
<g id="Node000021" class="node">
<title>Node21</title>
<g id="a_Node000021"><a xlink:title=" ">
<polygon fill="#e0e0e0" stroke="#999999" points="671.5,-129 624.5,-129 624.5,-110 671.5,-110 671.5,-129"/>
<text text-anchor="middle" x="648" y="-117" font-family="Helvetica,sans-Serif" font-size="10.00">vector</text>
</a>
</g>
</g>
<!-- Node3&#45;&gt;Node21 -->
<g id="edge21_Node000003_Node000021" class="edge">
<title>Node3&#45;&gt;Node21</title>
<g id="a_edge21_Node000003_Node000021"><a xlink:title=" ">
<path fill="none" stroke="#63b8ff" d="M469.87,-164.99C504.16,-156.59 558.27,-143.28 614.45,-129.12"/>
<polygon fill="#63b8ff" stroke="#63b8ff" points="615.37,-132.5 624.21,-126.66 613.66,-125.71 615.37,-132.5"/>
</a>
</g>
</g>
<!-- Node5 -->
<g id="Node000005" class="node">
<title>Node5</title>
<g id="a_Node000005"><a xlink:title=" ">
<polygon fill="#e0e0e0" stroke="#999999" points="167.5,-74 132.5,-74 132.5,-55 167.5,-55 167.5,-74"/>
<text text-anchor="middle" x="150" y="-62" font-family="Helvetica,sans-Serif" font-size="10.00">any</text>
</a>
</g>
</g>
<!-- Node4&#45;&gt;Node5 -->
<g id="edge4_Node000004_Node000005" class="edge">
<title>Node4&#45;&gt;Node5</title>
<g id="a_edge4_Node000004_Node000005"><a xlink:title=" ">
<path fill="none" stroke="#63b8ff" d="M207.07,-109.98C196.92,-102.07 181.58,-90.11 169.35,-80.58"/>
<polygon fill="#63b8ff" stroke="#63b8ff" points="171.16,-77.56 161.12,-74.17 166.86,-83.08 171.16,-77.56"/>
</a>
</g>
</g>
<!-- Node6 -->
<g id="Node000006" class="node">
<title>Node6</title>
<g id="a_Node000006"><a xlink:title=" ">
<polygon fill="#e0e0e0" stroke="#999999" points="250.5,-74 185.5,-74 185.5,-55 250.5,-55 250.5,-74"/>
<text text-anchor="middle" x="218" y="-62" font-family="Helvetica,sans-Serif" font-size="10.00">typeindex</text>
</a>
</g>
</g>
<!-- Node4&#45;&gt;Node6 -->
<g id="edge5_Node000004_Node000006" class="edge">
<title>Node4&#45;&gt;Node6</title>
<g id="a_edge5_Node000004_Node000006"><a xlink:title=" ">
<path fill="none" stroke="#63b8ff" d="M218,-109.75C218,-102.8 218,-92.85 218,-84.13"/>
<polygon fill="#63b8ff" stroke="#63b8ff" points="221.5,-84.09 218,-74.09 214.5,-84.09 221.5,-84.09"/>
</a>
</g>
</g>
<!-- Node7 -->
<g id="Node000007" class="node">
<title>Node7</title>
<g id="a_Node000007"><a xlink:title=" ">
<polygon fill="#e0e0e0" stroke="#999999" points="361.5,-74 268.5,-74 268.5,-55 361.5,-55 361.5,-74"/>
<text text-anchor="middle" x="315" y="-62" font-family="Helvetica,sans-Serif" font-size="10.00">unordered_map</text>
</a>
</g>
</g>
<!-- Node4&#45;&gt;Node7 -->
<g id="edge6_Node000004_Node000007" class="edge">
<title>Node4&#45;&gt;Node7</title>
<g id="a_edge6_Node000004_Node000007"><a xlink:title=" ">
<path fill="none" stroke="#63b8ff" d="M233.58,-109.98C248.77,-101.69 272.1,-88.94 289.9,-79.22"/>
<polygon fill="#63b8ff" stroke="#63b8ff" points="292.03,-82.04 299.13,-74.17 288.68,-75.89 292.03,-82.04"/>
</a>
</g>
</g>
<!-- Node8&#45;&gt;Node9 -->
<g id="edge8_Node000008_Node000009" class="edge">
<title>Node8&#45;&gt;Node9</title>
<g id="a_edge8_Node000008_Node000009"><a xlink:title=" ">
<path fill="none" stroke="#63b8ff" d="M542,-109.75C542,-102.8 542,-92.85 542,-84.13"/>
<polygon fill="#63b8ff" stroke="#63b8ff" points="545.5,-84.09 542,-74.09 538.5,-84.09 545.5,-84.09"/>
</a>
</g>
</g>
<!-- Node19 -->
<g id="Node000019" class="node">
<title>Node19</title>
<g id="a_Node000019"><a xlink:title=" ">
<polygon fill="#e0e0e0" stroke="#999999" points="737,-74 695,-74 695,-55 737,-55 737,-74"/>
<text text-anchor="middle" x="716" y="-62" font-family="Helvetica,sans-Serif" font-size="10.00">array</text>
</a>
</g>
</g>
<!-- Node8&#45;&gt;Node19 -->
<g id="edge18_Node000008_Node000019" class="edge">
<title>Node8&#45;&gt;Node19</title>
<g id="a_edge18_Node000008_Node000019"><a xlink:title=" ">
<path fill="none" stroke="#63b8ff" d="M569.96,-109.98C601.42,-100.4 652.4,-84.87 685.05,-74.93"/>
<polygon fill="#63b8ff" stroke="#63b8ff" points="686.41,-78.17 694.95,-71.91 684.37,-71.48 686.41,-78.17"/>
</a>
</g>
</g>
<!-- Node10 -->
<g id="Node000010" class="node">
<title>Node10</title>
<g id="a_Node000010"><a xlink:title=" ">
<polygon fill="#e0e0e0" stroke="#999999" points="797,-19 719,-19 719,0 797,0 797,-19"/>
<text text-anchor="middle" x="758" y="-7" font-family="Helvetica,sans-Serif" font-size="10.00">glm/glm.hpp</text>
</a>
</g>
</g>
<!-- Node9&#45;&gt;Node10 -->
<g id="edge9_Node000009_Node000010" class="edge">
<title>Node9&#45;&gt;Node10</title>
<g id="a_edge9_Node000009_Node000010"><a xlink:title=" ">
<path fill="none" stroke="#63b8ff" d="M576.7,-54.98C613.75,-45.89 672.59,-31.46 713.13,-21.51"/>
<polygon fill="#63b8ff" stroke="#63b8ff" points="714.15,-24.86 723.02,-19.08 712.48,-18.07 714.15,-24.86"/>
</a>
</g>
</g>
<!-- Node11 -->
<g id="Node000011" class="node">
<title>Node11</title>
<g id="a_Node000011"><a xlink:title=" ">
<polygon fill="#e0e0e0" stroke="#999999" points="978.5,-19 815.5,-19 815.5,0 978.5,0 978.5,-19"/>
<text text-anchor="middle" x="897" y="-7" font-family="Helvetica,sans-Serif" font-size="10.00">glm/gtc/matrix_transform.hpp</text>
</a>
</g>
</g>
<!-- Node9&#45;&gt;Node11 -->
<g id="edge10_Node000009_Node000011" class="edge">
<title>Node9&#45;&gt;Node11</title>
<g id="a_edge10_Node000009_Node000011"><a xlink:title=" ">
<path fill="none" stroke="#63b8ff" d="M593.62,-55.79C655.99,-46.48 761.09,-30.79 829.75,-20.54"/>
<polygon fill="#63b8ff" stroke="#63b8ff" points="830.65,-23.94 840.03,-19.01 829.62,-17.02 830.65,-23.94"/>
</a>
</g>
</g>
<!-- Node12 -->
<g id="Node000012" class="node">
<title>Node12</title>
<g id="a_Node000012"><a xlink:title=" ">
<polygon fill="#e0e0e0" stroke="#999999" points="1127,-19 997,-19 997,0 1127,0 1127,-19"/>
<text text-anchor="middle" x="1062" y="-7" font-family="Helvetica,sans-Serif" font-size="10.00">glm/gtc/quaternion.hpp</text>
</a>
</g>
</g>
<!-- Node9&#45;&gt;Node12 -->
<g id="edge11_Node000009_Node000012" class="edge">
<title>Node9&#45;&gt;Node12</title>
<g id="a_edge11_Node000009_Node000012"><a xlink:title=" ">
<path fill="none" stroke="#63b8ff" d="M593.53,-58.61C674.74,-50.85 837.72,-35.05 986.41,-19.16"/>
<polygon fill="#63b8ff" stroke="#63b8ff" points="987.07,-22.61 996.64,-18.06 986.32,-15.65 987.07,-22.61"/>
</a>
</g>
</g>
<!-- Node13 -->
<g id="Node000013" class="node">
<title>Node13</title>
<g id="a_Node000013"><a xlink:title=" ">
<polygon fill="#e0e0e0" stroke="#999999" points="185.5,-19 68.5,-19 68.5,0 185.5,0 185.5,-19"/>
<text text-anchor="middle" x="127" y="-7" font-family="Helvetica,sans-Serif" font-size="10.00">glm/gtc/type_ptr.hpp</text>
</a>
</g>
</g>
<!-- Node9&#45;&gt;Node13 -->
<g id="edge12_Node000009_Node000013" class="edge">
<title>Node9&#45;&gt;Node13</title>
<g id="a_edge12_Node000009_Node000013"><a xlink:title=" ">
<path fill="none" stroke="#63b8ff" d="M490.28,-56.89C415.92,-47.4 278.66,-29.87 195.81,-19.29"/>
<polygon fill="#63b8ff" stroke="#63b8ff" points="196.1,-15.8 185.74,-18 195.21,-22.74 196.1,-15.8"/>
</a>
</g>
</g>
<!-- Node14 -->
<g id="Node000014" class="node">
<title>Node14</title>
<g id="a_Node000014"><a xlink:title=" ">
<polygon fill="#e0e0e0" stroke="#999999" points="334.5,-19 203.5,-19 203.5,0 334.5,0 334.5,-19"/>
<text text-anchor="middle" x="269" y="-7" font-family="Helvetica,sans-Serif" font-size="10.00">glm/gtx/quaternion.hpp</text>
</a>
</g>
</g>
<!-- Node9&#45;&gt;Node14 -->
<g id="edge13_Node000009_Node000014" class="edge">
<title>Node9&#45;&gt;Node14</title>
<g id="a_edge13_Node000009_Node000014"><a xlink:title=" ">
<path fill="none" stroke="#63b8ff" d="M498.14,-54.98C450.52,-45.74 374.42,-30.97 323.12,-21.01"/>
<polygon fill="#63b8ff" stroke="#63b8ff" points="323.69,-17.55 313.21,-19.08 322.36,-24.42 323.69,-17.55"/>
</a>
</g>
</g>
<!-- Node15 -->
<g id="Node000015" class="node">
<title>Node15</title>
<g id="a_Node000015"><a xlink:title=" ">
<polygon fill="#e0e0e0" stroke="#999999" points="479,-19 353,-19 353,0 479,0 479,-19"/>
<text text-anchor="middle" x="416" y="-7" font-family="Helvetica,sans-Serif" font-size="10.00">glm/gtx/transform.hpp</text>
</a>
</g>
</g>
<!-- Node9&#45;&gt;Node15 -->
<g id="edge14_Node000009_Node000015" class="edge">
<title>Node9&#45;&gt;Node15</title>
<g id="a_edge14_Node000009_Node000015"><a xlink:title=" ">
<path fill="none" stroke="#63b8ff" d="M521.76,-54.98C501.3,-46.38 469.47,-32.99 446.07,-23.15"/>
<polygon fill="#63b8ff" stroke="#63b8ff" points="447.19,-19.82 436.61,-19.17 444.47,-26.27 447.19,-19.82"/>
</a>
</g>
</g>
<!-- Node16 -->
<g id="Node000016" class="node">
<title>Node16</title>
<g id="a_Node000016"><a xlink:title=" ">
<polygon fill="#e0e0e0" stroke="#999999" points="638.5,-19 497.5,-19 497.5,0 638.5,0 638.5,-19"/>
<text text-anchor="middle" x="568" y="-7" font-family="Helvetica,sans-Serif" font-size="10.00">glm/gtx/vector_angle.hpp</text>
</a>
</g>
</g>
<!-- Node9&#45;&gt;Node16 -->
<g id="edge15_Node000009_Node000016" class="edge">
<title>Node9&#45;&gt;Node16</title>
<g id="a_edge15_Node000009_Node000016"><a xlink:title=" ">
<path fill="none" stroke="#63b8ff" d="M546.29,-54.75C549.81,-47.57 554.91,-37.18 559.28,-28.27"/>
<polygon fill="#63b8ff" stroke="#63b8ff" points="562.52,-29.61 563.79,-19.09 556.24,-26.53 562.52,-29.61"/>
</a>
</g>
</g>
<!-- Node17 -->
<g id="Node000017" class="node">
<title>Node17</title>
<g id="a_Node000017"><a xlink:title=" ">
<polygon fill="#e0e0e0" stroke="#999999" points="701,-19 657,-19 657,0 701,0 701,-19"/>
<text text-anchor="middle" x="679" y="-7" font-family="Helvetica,sans-Serif" font-size="10.00">bitset</text>
</a>
</g>
</g>
<!-- Node9&#45;&gt;Node17 -->
<g id="edge16_Node000009_Node000017" class="edge">
<title>Node9&#45;&gt;Node17</title>
<g id="a_edge16_Node000009_Node000017"><a xlink:title=" ">
<path fill="none" stroke="#63b8ff" d="M564.01,-54.98C586.45,-46.3 621.48,-32.75 646.99,-22.88"/>
<polygon fill="#63b8ff" stroke="#63b8ff" points="648.52,-26.04 656.59,-19.17 646,-19.51 648.52,-26.04"/>
</a>
</g>
</g>
<!-- Node9&#45;&gt;Node18 -->
<g id="edge17_Node000009_Node000018" class="edge">
<title>Node9&#45;&gt;Node18</title>
<g id="a_edge17_Node000009_Node000018"><a xlink:title=" ">
<path fill="none" stroke="#63b8ff" d="M490.2,-61.33C403.22,-57.12 222.28,-45.94 60.31,-18.96"/>
<polygon fill="#63b8ff" stroke="#63b8ff" points="60.6,-15.46 50.16,-17.25 59.44,-22.36 60.6,-15.46"/>
</a>
</g>
</g>
<!-- Node22&#45;&gt;Node3 -->
<g id="edge29_Node000022_Node000003" class="edge">
<title>Node22&#45;&gt;Node3</title>
<g id="a_edge29_Node000022_Node000003"><a xlink:title=" ">
<path fill="none" stroke="#63b8ff" d="M448.08,-274.84C460.61,-262.95 479.48,-240.7 472,-220 468.06,-209.09 460.14,-198.96 452.64,-191.14"/>
<polygon fill="#63b8ff" stroke="#63b8ff" points="455.05,-188.6 445.44,-184.13 450.16,-193.61 455.05,-188.6"/>
</a>
</g>
</g>
<!-- Node23 -->
<g id="Node000023" class="node">
<title>Node23</title>
<g id="a_Node000023"><a xlink:href="ExtraDataType_8h.html" target="_top" xlink:title=" ">
<polygon fill="white" stroke="#666666" points="777.5,-184 622.5,-184 622.5,-165 777.5,-165 777.5,-184"/>
<text text-anchor="middle" x="700" y="-172" font-family="Helvetica,sans-Serif" font-size="10.00">Application/ExtraDataType.h</text>
</a>
</g>
</g>
<!-- Node22&#45;&gt;Node23 -->
<g id="edge24_Node000022_Node000023" class="edge">
<title>Node22&#45;&gt;Node23</title>
<g id="a_edge24_Node000022_Node000023"><a xlink:title=" ">
<path fill="none" stroke="#63b8ff" d="M459,-274.84C505.29,-255.76 616.28,-210.01 669.94,-187.89"/>
<polygon fill="#63b8ff" stroke="#63b8ff" points="671.35,-191.09 679.27,-184.05 668.69,-184.62 671.35,-191.09"/>
</a>
</g>
</g>
<!-- Node25 -->
<g id="Node000025" class="node">
<title>Node25</title>
<g id="a_Node000025"><a xlink:href="PrimitiveProxy_8h.html" target="_top" xlink:title=" ">
<polygon fill="white" stroke="#666666" points="463,-239 309,-239 309,-220 463,-220 463,-239"/>
<text text-anchor="middle" x="386" y="-227" font-family="Helvetica,sans-Serif" font-size="10.00">Application/PrimitiveProxy.h</text>
</a>
</g>
</g>
<!-- Node22&#45;&gt;Node25 -->
<g id="edge30_Node000022_Node000025" class="edge">
<title>Node22&#45;&gt;Node25</title>
<g id="a_edge30_Node000022_Node000025"><a xlink:title=" ">
<path fill="none" stroke="#63b8ff" d="M429.41,-274.75C421.84,-267.03 410.62,-255.6 401.49,-246.28"/>
<polygon fill="#63b8ff" stroke="#63b8ff" points="403.93,-243.78 394.43,-239.09 398.93,-248.68 403.93,-243.78"/>
</a>
</g>
</g>
<!-- Node23&#45;&gt;Node9 -->
<g id="edge25_Node000023_Node000009" class="edge">
<title>Node23&#45;&gt;Node9</title>
<g id="a_edge25_Node000023_Node000009"><a xlink:title=" ">
<path fill="none" stroke="#63b8ff" d="M699.86,-164.84C699.16,-151.31 695.83,-125.11 681,-110 660.7,-89.31 630.79,-78.23 603.91,-72.29"/>
<polygon fill="#63b8ff" stroke="#63b8ff" points="604.28,-68.8 593.78,-70.26 602.9,-75.66 604.28,-68.8"/>
</a>
</g>
</g>
<!-- Node23&#45;&gt;Node19 -->
<g id="edge26_Node000023_Node000019" class="edge">
<title>Node23&#45;&gt;Node19</title>
<g id="a_edge26_Node000023_Node000019"><a xlink:title=" ">
<path fill="none" stroke="#63b8ff" d="M731.42,-164.97C749.34,-158.32 770.3,-147.09 781,-129 793.07,-108.59 768.57,-90.26 746.27,-78.6"/>
<polygon fill="#63b8ff" stroke="#63b8ff" points="747.8,-75.45 737.28,-74.17 744.71,-81.73 747.8,-75.45"/>
</a>
</g>
</g>
<!-- Node23&#45;&gt;Node21 -->
<g id="edge28_Node000023_Node000021" class="edge">
<title>Node23&#45;&gt;Node21</title>
<g id="a_edge28_Node000023_Node000021"><a xlink:title=" ">
<path fill="none" stroke="#63b8ff" d="M691.41,-164.75C683.84,-157.03 672.62,-145.6 663.49,-136.28"/>
<polygon fill="#63b8ff" stroke="#63b8ff" points="665.93,-133.78 656.43,-129.09 660.93,-138.68 665.93,-133.78"/>
</a>
</g>
</g>
<!-- Node24 -->
<g id="Node000024" class="node">
<title>Node24</title>
<g id="a_Node000024"><a xlink:title=" ">
<polygon fill="#e0e0e0" stroke="#999999" points="772,-129 728,-129 728,-110 772,-110 772,-129"/>
<text text-anchor="middle" x="750" y="-117" font-family="Helvetica,sans-Serif" font-size="10.00">string</text>
</a>
</g>
</g>
<!-- Node23&#45;&gt;Node24 -->
<g id="edge27_Node000023_Node000024" class="edge">
<title>Node23&#45;&gt;Node24</title>
<g id="a_edge27_Node000023_Node000024"><a xlink:title=" ">
<path fill="none" stroke="#63b8ff" d="M708.26,-164.75C715.46,-157.11 726.11,-145.82 734.85,-136.56"/>
<polygon fill="#63b8ff" stroke="#63b8ff" points="737.58,-138.76 741.9,-129.09 732.49,-133.96 737.58,-138.76"/>
</a>
</g>
</g>
<!-- Node25&#45;&gt;Node3 -->
<g id="edge31_Node000025_Node000003" class="edge">
<title>Node25&#45;&gt;Node3</title>
<g id="a_edge31_Node000025_Node000003"><a xlink:title=" ">
<path fill="none" stroke="#63b8ff" d="M394.09,-219.75C401.16,-212.11 411.59,-200.82 420.15,-191.56"/>
<polygon fill="#63b8ff" stroke="#63b8ff" points="422.84,-193.81 427.06,-184.09 417.7,-189.06 422.84,-193.81"/>
</a>
</g>
</g>
<!-- Node25&#45;&gt;Node9 -->
<g id="edge32_Node000025_Node000009" class="edge">
<title>Node25&#45;&gt;Node9</title>
<g id="a_edge32_Node000025_Node000009"><a xlink:title=" ">
<path fill="none" stroke="#63b8ff" d="M379.12,-219.72C363.41,-198.54 328.24,-143.87 355,-110 370.5,-90.38 431.92,-78.48 480.2,-71.99"/>
<polygon fill="#63b8ff" stroke="#63b8ff" points="480.81,-75.44 490.28,-70.68 479.91,-68.5 480.81,-75.44"/>
</a>
</g>
</g>
</g>
</svg>
