<?xml version="1.0" encoding="UTF-8" standalone="no"?>
<!DOCTYPE svg PUBLIC "-//W3C//DTD SVG 1.1//EN"
 "http://www.w3.org/Graphics/SVG/1.1/DTD/svg11.dtd">
<!-- Generated by graphviz version 2.43.0 (0)
 -->
<!-- Title: App/Source/MeshExporter.cpp Pages: 1 -->
<svg width="1511pt" height="302pt"
 viewBox="0.00 0.00 1510.50 302.00" xmlns="http://www.w3.org/2000/svg" xmlns:xlink="http://www.w3.org/1999/xlink">
<g id="graph0" class="graph" transform="scale(1 1) rotate(0) translate(4 298)">
<title>App/Source/MeshExporter.cpp</title>
<!-- Node1 -->
<g id="Node000001" class="node">
<title>Node1</title>
<g id="a_Node000001"><a xlink:title=" ">
<polygon fill="#999999" stroke="#666666" points="1159,-294 998,-294 998,-275 1159,-275 1159,-294"/>
<text text-anchor="middle" x="1078.5" y="-282" font-family="Helvetica,sans-Serif" font-size="10.00">App/Source/MeshExporter.cpp</text>
</a>
</g>
</g>
<!-- Node2 -->
<g id="Node000002" class="node">
<title>Node2</title>
<g id="a_Node000002"><a xlink:href="MeshExporter_8h.html" target="_top" xlink:title=" ">
<polygon fill="white" stroke="#666666" points="939.5,-239 789.5,-239 789.5,-220 939.5,-220 939.5,-239"/>
<text text-anchor="middle" x="864.5" y="-227" font-family="Helvetica,sans-Serif" font-size="10.00">Application/MeshExporter.h</text>
</a>
</g>
</g>
<!-- Node1&#45;&gt;Node2 -->
<g id="edge1_Node000001_Node000002" class="edge">
<title>Node1&#45;&gt;Node2</title>
<g id="a_edge1_Node000001_Node000002"><a xlink:title=" ">
<path fill="none" stroke="#63b8ff" d="M1044.12,-274.98C1007.41,-265.89 949.12,-251.46 908.95,-241.51"/>
<polygon fill="#63b8ff" stroke="#63b8ff" points="909.7,-238.09 899.15,-239.08 908.02,-244.88 909.7,-238.09"/>
</a>
</g>
</g>
<!-- Node4 -->
<g id="Node000004" class="node">
<title>Node4</title>
<g id="a_Node000004"><a xlink:href="ExtraDataContainer_8h.html" target="_top" xlink:title=" ">
<polygon fill="white" stroke="#666666" points="488,-129 309,-129 309,-110 488,-110 488,-129"/>
<text text-anchor="middle" x="398.5" y="-117" font-family="Helvetica,sans-Serif" font-size="10.00">Application/ExtraDataContainer.h</text>
</a>
</g>
</g>
<!-- Node1&#45;&gt;Node4 -->
<g id="edge25_Node000001_Node000004" class="edge">
<title>Node1&#45;&gt;Node4</title>
<g id="a_edge25_Node000001_Node000004"><a xlink:title=" ">
<path fill="none" stroke="#63b8ff" d="M997.73,-280.63C849.61,-274.87 545.67,-260.59 502.5,-239 457.37,-216.43 423.3,-164.91 407.77,-137.84"/>
<polygon fill="#63b8ff" stroke="#63b8ff" points="410.82,-136.12 402.9,-129.08 404.7,-139.52 410.82,-136.12"/>
</a>
</g>
</g>
<!-- Node9 -->
<g id="Node000009" class="node">
<title>Node9</title>
<g id="a_Node000009"><a xlink:href="BaseTypes_8h.html" target="_top" xlink:title=" ">
<polygon fill="white" stroke="#666666" points="663,-74 560,-74 560,-55 663,-55 663,-74"/>
<text text-anchor="middle" x="611.5" y="-62" font-family="Helvetica,sans-Serif" font-size="10.00">Core/BaseTypes.h</text>
</a>
</g>
</g>
<!-- Node1&#45;&gt;Node9 -->
<g id="edge34_Node000001_Node000009" class="edge">
<title>Node1&#45;&gt;Node9</title>
<g id="a_edge34_Node000001_Node000009"><a xlink:title=" ">
<path fill="none" stroke="#63b8ff" d="M997.76,-282.03C865.28,-278.77 613.63,-268.7 586.5,-239 546.52,-195.24 581.85,-117.63 601.03,-83.02"/>
<polygon fill="#63b8ff" stroke="#63b8ff" points="604.21,-84.51 606.15,-74.1 598.14,-81.02 604.21,-84.51"/>
</a>
</g>
</g>
<!-- Node23 -->
<g id="Node000023" class="node">
<title>Node23</title>
<g id="a_Node000023"><a xlink:href="ExtraDataType_8h.html" target="_top" xlink:title=" ">
<polygon fill="white" stroke="#666666" points="1072,-184 917,-184 917,-165 1072,-165 1072,-184"/>
<text text-anchor="middle" x="994.5" y="-172" font-family="Helvetica,sans-Serif" font-size="10.00">Application/ExtraDataType.h</text>
</a>
</g>
</g>
<!-- Node1&#45;&gt;Node23 -->
<g id="edge26_Node000001_Node000023" class="edge">
<title>Node1&#45;&gt;Node23</title>
<g id="a_edge26_Node000001_Node000023"><a xlink:title=" ">
<path fill="none" stroke="#63b8ff" d="M1059.98,-274.88C1045.64,-267.32 1026.29,-255.03 1014.5,-239 1004.76,-225.76 999.67,-207.64 997.07,-194.14"/>
<polygon fill="#63b8ff" stroke="#63b8ff" points="1000.5,-193.4 995.42,-184.1 993.59,-194.54 1000.5,-193.4"/>
</a>
</g>
</g>
<!-- Node25 -->
<g id="Node000025" class="node">
<title>Node25</title>
<g id="a_Node000025"><a xlink:href="PrimitiveProxy_8h.html" target="_top" xlink:title=" ">
<polygon fill="white" stroke="#666666" points="749.5,-239 595.5,-239 595.5,-220 749.5,-220 749.5,-239"/>
<text text-anchor="middle" x="672.5" y="-227" font-family="Helvetica,sans-Serif" font-size="10.00">Application/PrimitiveProxy.h</text>
</a>
</g>
</g>
<!-- Node1&#45;&gt;Node25 -->
<g id="edge31_Node000001_Node000025" class="edge">
<title>Node1&#45;&gt;Node25</title>
<g id="a_edge31_Node000001_Node000025"><a xlink:title=" ">
<path fill="none" stroke="#63b8ff" d="M1013.27,-274.98C940.87,-265.53 824.2,-250.3 747.93,-240.35"/>
<polygon fill="#63b8ff" stroke="#63b8ff" points="748.27,-236.86 737.91,-239.04 747.37,-243.8 748.27,-236.86"/>
</a>
</g>
</g>
<!-- Node26 -->
<g id="Node000026" class="node">
<title>Node26</title>
<g id="a_Node000026"><a xlink:href="PrintHelpers_8h.html" target="_top" xlink:title=" ">
<polygon fill="white" stroke="#666666" points="1134,-239 1023,-239 1023,-220 1134,-220 1134,-239"/>
<text text-anchor="middle" x="1078.5" y="-227" font-family="Helvetica,sans-Serif" font-size="10.00">Core/PrintHelpers.h</text>
</a>
</g>
</g>
<!-- Node1&#45;&gt;Node26 -->
<g id="edge35_Node000001_Node000026" class="edge">
<title>Node1&#45;&gt;Node26</title>
<g id="a_edge35_Node000001_Node000026"><a xlink:title=" ">
<path fill="none" stroke="#63b8ff" d="M1078.5,-274.75C1078.5,-267.8 1078.5,-257.85 1078.5,-249.13"/>
<polygon fill="#63b8ff" stroke="#63b8ff" points="1082,-249.09 1078.5,-239.09 1075,-249.09 1082,-249.09"/>
</a>
</g>
</g>
<!-- Node28 -->
<g id="Node000028" class="node">
<title>Node28</title>
<g id="a_Node000028"><a xlink:title=" ">
<polygon fill="#e0e0e0" stroke="#999999" points="1368.5,-184 1308.5,-184 1308.5,-165 1368.5,-165 1368.5,-184"/>
<text text-anchor="middle" x="1338.5" y="-172" font-family="Helvetica,sans-Serif" font-size="10.00">iostream</text>
</a>
</g>
</g>
<!-- Node1&#45;&gt;Node28 -->
<g id="edge42_Node000001_Node000028" class="edge">
<title>Node1&#45;&gt;Node28</title>
<g id="a_edge42_Node000001_Node000028"><a xlink:title=" ">
<path fill="none" stroke="#63b8ff" d="M1089.96,-274.95C1108.39,-261.56 1146.12,-235.56 1181.5,-220 1202.43,-210.79 1259.41,-195.5 1298.64,-185.46"/>
<polygon fill="#63b8ff" stroke="#63b8ff" points="1299.61,-188.82 1308.44,-182.96 1297.89,-182.04 1299.61,-188.82"/>
</a>
</g>
</g>
<!-- Node30 -->
<g id="Node000030" class="node">
<title>Node30</title>
<g id="a_Node000030"><a xlink:title=" ">
<polygon fill="#e0e0e0" stroke="#999999" points="1254.5,-239 1190.5,-239 1190.5,-220 1254.5,-220 1254.5,-239"/>
<text text-anchor="middle" x="1222.5" y="-227" font-family="Helvetica,sans-Serif" font-size="10.00">algorithm</text>
</a>
</g>
</g>
<!-- Node1&#45;&gt;Node30 -->
<g id="edge39_Node000001_Node000030" class="edge">
<title>Node1&#45;&gt;Node30</title>
<g id="a_edge39_Node000001_Node000030"><a xlink:title=" ">
<path fill="none" stroke="#63b8ff" d="M1101.64,-274.98C1125.32,-266.27 1162.37,-252.63 1189.21,-242.75"/>
<polygon fill="#63b8ff" stroke="#63b8ff" points="1190.77,-245.91 1198.94,-239.17 1188.35,-239.34 1190.77,-245.91"/>
</a>
</g>
</g>
<!-- Node31 -->
<g id="Node000031" class="node">
<title>Node31</title>
<g id="a_Node000031"><a xlink:title=" ">
<polygon fill="#e0e0e0" stroke="#999999" points="1324.5,-239 1272.5,-239 1272.5,-220 1324.5,-220 1324.5,-239"/>
<text text-anchor="middle" x="1298.5" y="-227" font-family="Helvetica,sans-Serif" font-size="10.00">cassert</text>
</a>
</g>
</g>
<!-- Node1&#45;&gt;Node31 -->
<g id="edge40_Node000001_Node000031" class="edge">
<title>Node1&#45;&gt;Node31</title>
<g id="a_edge40_Node000001_Node000031"><a xlink:title=" ">
<path fill="none" stroke="#63b8ff" d="M1113.97,-274.99C1149.18,-266.54 1204.96,-253.14 1262.19,-239.31"/>
<polygon fill="#63b8ff" stroke="#63b8ff" points="1263.23,-242.66 1272.13,-236.91 1261.59,-235.86 1263.23,-242.66"/>
</a>
</g>
</g>
<!-- Node32 -->
<g id="Node000032" class="node">
<title>Node32</title>
<g id="a_Node000032"><a xlink:title=" ">
<polygon fill="#e0e0e0" stroke="#999999" points="1398,-239 1343,-239 1343,-220 1398,-220 1398,-239"/>
<text text-anchor="middle" x="1370.5" y="-227" font-family="Helvetica,sans-Serif" font-size="10.00">fstream</text>
</a>
</g>
</g>
<!-- Node1&#45;&gt;Node32 -->
<g id="edge41_Node000001_Node000032" class="edge">
<title>Node1&#45;&gt;Node32</title>
<g id="a_edge41_Node000001_Node000032"><a xlink:title=" ">
<path fill="none" stroke="#63b8ff" d="M1132.38,-274.95C1181.88,-266.9 1257.5,-254.13 1332.55,-239.1"/>
<polygon fill="#63b8ff" stroke="#63b8ff" points="1333.54,-242.47 1342.65,-237.06 1332.16,-235.61 1333.54,-242.47"/>
</a>
</g>
</g>
<!-- Node33 -->
<g id="Node000033" class="node">
<title>Node33</title>
<g id="a_Node000033"><a xlink:title=" ">
<polygon fill="#e0e0e0" stroke="#999999" points="1502.5,-239 1416.5,-239 1416.5,-220 1502.5,-220 1502.5,-239"/>
<text text-anchor="middle" x="1459.5" y="-227" font-family="Helvetica,sans-Serif" font-size="10.00">unordered_set</text>
</a>
</g>
</g>
<!-- Node1&#45;&gt;Node33 -->
<g id="edge43_Node000001_Node000033" class="edge">
<title>Node1&#45;&gt;Node33</title>
<g id="a_edge43_Node000001_Node000033"><a xlink:title=" ">
<path fill="none" stroke="#63b8ff" d="M1145.68,-274.96C1210.02,-266.66 1310.09,-253.43 1406.47,-239.12"/>
<polygon fill="#63b8ff" stroke="#63b8ff" points="1407.01,-242.58 1416.38,-237.64 1405.98,-235.65 1407.01,-242.58"/>
</a>
</g>
</g>
<!-- Node3 -->
<g id="Node000003" class="node">
<title>Node3</title>
<g id="a_Node000003"><a xlink:href="Mesh_8h.html" target="_top" xlink:title=" ">
<polygon fill="white" stroke="#666666" points="727.5,-184 617.5,-184 617.5,-165 727.5,-165 727.5,-184"/>
<text text-anchor="middle" x="672.5" y="-172" font-family="Helvetica,sans-Serif" font-size="10.00">Application/Mesh.h</text>
</a>
</g>
</g>
<!-- Node2&#45;&gt;Node3 -->
<g id="edge2_Node000002_Node000003" class="edge">
<title>Node2&#45;&gt;Node3</title>
<g id="a_edge2_Node000002_Node000003"><a xlink:title=" ">
<path fill="none" stroke="#63b8ff" d="M833.65,-219.98C801,-210.97 749.3,-196.7 713.3,-186.76"/>
<polygon fill="#63b8ff" stroke="#63b8ff" points="714.16,-183.37 703.59,-184.08 712.3,-190.12 714.16,-183.37"/>
</a>
</g>
</g>
<!-- Node2&#45;&gt;Node9 -->
<g id="edge22_Node000002_Node000009" class="edge">
<title>Node2&#45;&gt;Node9</title>
<g id="a_edge22_Node000002_Node000009"><a xlink:title=" ">
<path fill="none" stroke="#63b8ff" d="M851.41,-219.98C834.54,-207.88 808.78,-184.99 821.5,-165 844.08,-129.52 925.87,-141.94 898.5,-110 870.1,-76.86 748.88,-68.19 673.35,-66.05"/>
<polygon fill="#63b8ff" stroke="#63b8ff" points="673.1,-62.54 663.01,-65.79 672.92,-69.54 673.1,-62.54"/>
</a>
</g>
</g>
<!-- Node18 -->
<g id="Node000018" class="node">
<title>Node18</title>
<g id="a_Node000018"><a xlink:title=" ">
<polygon fill="#e0e0e0" stroke="#999999" points="1126.5,-19 1076.5,-19 1076.5,0 1126.5,0 1126.5,-19"/>
<text text-anchor="middle" x="1101.5" y="-7" font-family="Helvetica,sans-Serif" font-size="10.00">cstdint</text>
</a>
</g>
</g>
<!-- Node2&#45;&gt;Node18 -->
<g id="edge23_Node000002_Node000018" class="edge">
<title>Node2&#45;&gt;Node18</title>
<g id="a_edge23_Node000002_Node000018"><a xlink:title=" ">
<path fill="none" stroke="#63b8ff" d="M939.76,-222.38C994.62,-216.26 1062.54,-204.7 1081.5,-184 1121.05,-140.83 1112.31,-64.07 1105.63,-28.96"/>
<polygon fill="#63b8ff" stroke="#63b8ff" points="1109.05,-28.2 1103.6,-19.11 1102.2,-29.62 1109.05,-28.2"/>
</a>
</g>
</g>
<!-- Node22 -->
<g id="Node000022" class="node">
<title>Node22</title>
<g id="a_Node000022"><a xlink:title=" ">
<polygon fill="#e0e0e0" stroke="#999999" points="898.5,-184 830.5,-184 830.5,-165 898.5,-165 898.5,-184"/>
<text text-anchor="middle" x="864.5" y="-172" font-family="Helvetica,sans-Serif" font-size="10.00">filesystem</text>
</a>
</g>
</g>
<!-- Node2&#45;&gt;Node22 -->
<g id="edge24_Node000002_Node000022" class="edge">
<title>Node2&#45;&gt;Node22</title>
<g id="a_edge24_Node000002_Node000022"><a xlink:title=" ">
<path fill="none" stroke="#63b8ff" d="M864.5,-219.75C864.5,-212.8 864.5,-202.85 864.5,-194.13"/>
<polygon fill="#63b8ff" stroke="#63b8ff" points="868,-194.09 864.5,-184.09 861,-194.09 868,-194.09"/>
</a>
</g>
</g>
<!-- Node3&#45;&gt;Node4 -->
<g id="edge3_Node000003_Node000004" class="edge">
<title>Node3&#45;&gt;Node4</title>
<g id="a_edge3_Node000003_Node000004"><a xlink:title=" ">
<path fill="none" stroke="#63b8ff" d="M628.48,-164.98C580.68,-155.74 504.3,-140.97 452.82,-131.01"/>
<polygon fill="#63b8ff" stroke="#63b8ff" points="453.35,-127.54 442.87,-129.08 452.02,-134.42 453.35,-127.54"/>
</a>
</g>
</g>
<!-- Node8 -->
<g id="Node000008" class="node">
<title>Node8</title>
<g id="a_Node000008"><a xlink:href="Primitive_8h.html" target="_top" xlink:title=" ">
<polygon fill="white" stroke="#666666" points="824.5,-129 696.5,-129 696.5,-110 824.5,-110 824.5,-129"/>
<text text-anchor="middle" x="760.5" y="-117" font-family="Helvetica,sans-Serif" font-size="10.00">Application/Primitive.h</text>
</a>
</g>
</g>
<!-- Node3&#45;&gt;Node8 -->
<g id="edge7_Node000003_Node000008" class="edge">
<title>Node3&#45;&gt;Node8</title>
<g id="a_edge7_Node000003_Node000008"><a xlink:title=" ">
<path fill="none" stroke="#63b8ff" d="M686.64,-164.98C700.29,-156.77 721.19,-144.18 737.28,-134.49"/>
<polygon fill="#63b8ff" stroke="#63b8ff" points="739.34,-137.33 746.1,-129.17 735.73,-131.33 739.34,-137.33"/>
</a>
</g>
</g>
<!-- Node3&#45;&gt;Node9 -->
<g id="edge19_Node000003_Node000009" class="edge">
<title>Node3&#45;&gt;Node9</title>
<g id="a_edge19_Node000003_Node000009"><a xlink:title=" ">
<path fill="none" stroke="#63b8ff" d="M652.3,-164.91C638.03,-157.64 619.99,-145.71 611.5,-129 604.48,-115.18 605.17,-97.38 607.22,-84.15"/>
<polygon fill="#63b8ff" stroke="#63b8ff" points="610.66,-84.77 609.12,-74.29 603.79,-83.44 610.66,-84.77"/>
</a>
</g>
</g>
<!-- Node20 -->
<g id="Node000020" class="node">
<title>Node20</title>
<g id="a_Node000020"><a xlink:title=" ">
<polygon fill="#e0e0e0" stroke="#999999" points="678.5,-129 620.5,-129 620.5,-110 678.5,-110 678.5,-129"/>
<text text-anchor="middle" x="649.5" y="-117" font-family="Helvetica,sans-Serif" font-size="10.00">memory</text>
</a>
</g>
</g>
<!-- Node3&#45;&gt;Node20 -->
<g id="edge20_Node000003_Node000020" class="edge">
<title>Node3&#45;&gt;Node20</title>
<g id="a_edge20_Node000003_Node000020"><a xlink:title=" ">
<path fill="none" stroke="#63b8ff" d="M668.7,-164.75C665.59,-157.57 661.08,-147.18 657.21,-138.27"/>
<polygon fill="#63b8ff" stroke="#63b8ff" points="660.42,-136.87 653.23,-129.09 654,-139.66 660.42,-136.87"/>
</a>
</g>
</g>
<!-- Node21 -->
<g id="Node000021" class="node">
<title>Node21</title>
<g id="a_Node000021"><a xlink:title=" ">
<polygon fill="#e0e0e0" stroke="#999999" points="890,-129 843,-129 843,-110 890,-110 890,-129"/>
<text text-anchor="middle" x="866.5" y="-117" font-family="Helvetica,sans-Serif" font-size="10.00">vector</text>
</a>
</g>
</g>
<!-- Node3&#45;&gt;Node21 -->
<g id="edge21_Node000003_Node000021" class="edge">
<title>Node3&#45;&gt;Node21</title>
<g id="a_edge21_Node000003_Node000021"><a xlink:title=" ">
<path fill="none" stroke="#63b8ff" d="M703.67,-164.98C739.11,-155.3 796.75,-139.56 833.1,-129.63"/>
<polygon fill="#63b8ff" stroke="#63b8ff" points="834.02,-133 842.75,-126.99 832.18,-126.25 834.02,-133"/>
</a>
</g>
</g>
<!-- Node5 -->
<g id="Node000005" class="node">
<title>Node5</title>
<g id="a_Node000005"><a xlink:title=" ">
<polygon fill="#e0e0e0" stroke="#999999" points="348,-74 313,-74 313,-55 348,-55 348,-74"/>
<text text-anchor="middle" x="330.5" y="-62" font-family="Helvetica,sans-Serif" font-size="10.00">any</text>
</a>
</g>
</g>
<!-- Node4&#45;&gt;Node5 -->
<g id="edge4_Node000004_Node000005" class="edge">
<title>Node4&#45;&gt;Node5</title>
<g id="a_edge4_Node000004_Node000005"><a xlink:title=" ">
<path fill="none" stroke="#63b8ff" d="M387.57,-109.98C377.42,-102.07 362.08,-90.11 349.85,-80.58"/>
<polygon fill="#63b8ff" stroke="#63b8ff" points="351.66,-77.56 341.62,-74.17 347.36,-83.08 351.66,-77.56"/>
</a>
</g>
</g>
<!-- Node6 -->
<g id="Node000006" class="node">
<title>Node6</title>
<g id="a_Node000006"><a xlink:title=" ">
<polygon fill="#e0e0e0" stroke="#999999" points="431,-74 366,-74 366,-55 431,-55 431,-74"/>
<text text-anchor="middle" x="398.5" y="-62" font-family="Helvetica,sans-Serif" font-size="10.00">typeindex</text>
</a>
</g>
</g>
<!-- Node4&#45;&gt;Node6 -->
<g id="edge5_Node000004_Node000006" class="edge">
<title>Node4&#45;&gt;Node6</title>
<g id="a_edge5_Node000004_Node000006"><a xlink:title=" ">
<path fill="none" stroke="#63b8ff" d="M398.5,-109.75C398.5,-102.8 398.5,-92.85 398.5,-84.13"/>
<polygon fill="#63b8ff" stroke="#63b8ff" points="402,-84.09 398.5,-74.09 395,-84.09 402,-84.09"/>
</a>
</g>
</g>
<!-- Node7 -->
<g id="Node000007" class="node">
<title>Node7</title>
<g id="a_Node000007"><a xlink:title=" ">
<polygon fill="#e0e0e0" stroke="#999999" points="542,-74 449,-74 449,-55 542,-55 542,-74"/>
<text text-anchor="middle" x="495.5" y="-62" font-family="Helvetica,sans-Serif" font-size="10.00">unordered_map</text>
</a>
</g>
</g>
<!-- Node4&#45;&gt;Node7 -->
<g id="edge6_Node000004_Node000007" class="edge">
<title>Node4&#45;&gt;Node7</title>
<g id="a_edge6_Node000004_Node000007"><a xlink:title=" ">
<path fill="none" stroke="#63b8ff" d="M414.08,-109.98C429.27,-101.69 452.6,-88.94 470.4,-79.22"/>
<polygon fill="#63b8ff" stroke="#63b8ff" points="472.53,-82.04 479.63,-74.17 469.18,-75.89 472.53,-82.04"/>
</a>
</g>
</g>
<!-- Node8&#45;&gt;Node9 -->
<g id="edge8_Node000008_Node000009" class="edge">
<title>Node8&#45;&gt;Node9</title>
<g id="a_edge8_Node000008_Node000009"><a xlink:title=" ">
<path fill="none" stroke="#63b8ff" d="M736.56,-109.98C711.94,-101.23 673.38,-87.51 645.58,-77.62"/>
<polygon fill="#63b8ff" stroke="#63b8ff" points="646.47,-74.22 635.88,-74.17 644.12,-80.82 646.47,-74.22"/>
</a>
</g>
</g>
<!-- Node19 -->
<g id="Node000019" class="node">
<title>Node19</title>
<g id="a_Node000019"><a xlink:title=" ">
<polygon fill="#e0e0e0" stroke="#999999" points="898.5,-74 856.5,-74 856.5,-55 898.5,-55 898.5,-74"/>
<text text-anchor="middle" x="877.5" y="-62" font-family="Helvetica,sans-Serif" font-size="10.00">array</text>
</a>
</g>
</g>
<!-- Node8&#45;&gt;Node19 -->
<g id="edge18_Node000008_Node000019" class="edge">
<title>Node8&#45;&gt;Node19</title>
<g id="a_edge18_Node000008_Node000019"><a xlink:title=" ">
<path fill="none" stroke="#63b8ff" d="M779.3,-109.98C798.12,-101.46 827.32,-88.23 849,-78.41"/>
<polygon fill="#63b8ff" stroke="#63b8ff" points="850.7,-81.48 858.36,-74.17 847.81,-75.11 850.7,-81.48"/>
</a>
</g>
</g>
<!-- Node10 -->
<g id="Node000010" class="node">
<title>Node10</title>
<g id="a_Node000010"><a xlink:title=" ">
<polygon fill="#e0e0e0" stroke="#999999" points="728.5,-19 650.5,-19 650.5,0 728.5,0 728.5,-19"/>
<text text-anchor="middle" x="689.5" y="-7" font-family="Helvetica,sans-Serif" font-size="10.00">glm/glm.hpp</text>
</a>
</g>
</g>
<!-- Node9&#45;&gt;Node10 -->
<g id="edge9_Node000009_Node000010" class="edge">
<title>Node9&#45;&gt;Node10</title>
<g id="a_edge9_Node000009_Node000010"><a xlink:title=" ">
<path fill="none" stroke="#63b8ff" d="M624.03,-54.98C635.9,-46.92 653.96,-34.65 668.11,-25.03"/>
<polygon fill="#63b8ff" stroke="#63b8ff" points="670.44,-27.69 676.74,-19.17 666.5,-21.9 670.44,-27.69"/>
</a>
</g>
</g>
<!-- Node11 -->
<g id="Node000011" class="node">
<title>Node11</title>
<g id="a_Node000011"><a xlink:title=" ">
<polygon fill="#e0e0e0" stroke="#999999" points="910,-19 747,-19 747,0 910,0 910,-19"/>
<text text-anchor="middle" x="828.5" y="-7" font-family="Helvetica,sans-Serif" font-size="10.00">glm/gtc/matrix_transform.hpp</text>
</a>
</g>
</g>
<!-- Node9&#45;&gt;Node11 -->
<g id="edge10_Node000009_Node000011" class="edge">
<title>Node9&#45;&gt;Node11</title>
<g id="a_edge10_Node000009_Node000011"><a xlink:title=" ">
<path fill="none" stroke="#63b8ff" d="M646.36,-54.98C683.59,-45.89 742.7,-31.46 783.43,-21.51"/>
<polygon fill="#63b8ff" stroke="#63b8ff" points="784.48,-24.85 793.36,-19.08 782.82,-18.05 784.48,-24.85"/>
</a>
</g>
</g>
<!-- Node12 -->
<g id="Node000012" class="node">
<title>Node12</title>
<g id="a_Node000012"><a xlink:title=" ">
<polygon fill="#e0e0e0" stroke="#999999" points="1058.5,-19 928.5,-19 928.5,0 1058.5,0 1058.5,-19"/>
<text text-anchor="middle" x="993.5" y="-7" font-family="Helvetica,sans-Serif" font-size="10.00">glm/gtc/quaternion.hpp</text>
</a>
</g>
</g>
<!-- Node9&#45;&gt;Node12 -->
<g id="edge11_Node000009_Node000012" class="edge">
<title>Node9&#45;&gt;Node12</title>
<g id="a_edge11_Node000009_Node000012"><a xlink:title=" ">
<path fill="none" stroke="#63b8ff" d="M663.02,-56.35C729.73,-47.1 846.37,-30.91 921.73,-20.46"/>
<polygon fill="#63b8ff" stroke="#63b8ff" points="922.66,-23.86 932.08,-19.02 921.7,-16.93 922.66,-23.86"/>
</a>
</g>
</g>
<!-- Node13 -->
<g id="Node000013" class="node">
<title>Node13</title>
<g id="a_Node000013"><a xlink:title=" ">
<polygon fill="#e0e0e0" stroke="#999999" points="117,-19 0,-19 0,0 117,0 117,-19"/>
<text text-anchor="middle" x="58.5" y="-7" font-family="Helvetica,sans-Serif" font-size="10.00">glm/gtc/type_ptr.hpp</text>
</a>
</g>
</g>
<!-- Node9&#45;&gt;Node13 -->
<g id="edge12_Node000009_Node000013" class="edge">
<title>Node9&#45;&gt;Node13</title>
<g id="a_edge12_Node000009_Node000013"><a xlink:title=" ">
<path fill="none" stroke="#63b8ff" d="M559.94,-56.12C556.75,-55.72 553.58,-55.34 550.5,-55 365.33,-34.27 315.7,-38.77 127.27,-19.15"/>
<polygon fill="#63b8ff" stroke="#63b8ff" points="127.62,-15.67 117.31,-18.1 126.89,-22.63 127.62,-15.67"/>
</a>
</g>
</g>
<!-- Node14 -->
<g id="Node000014" class="node">
<title>Node14</title>
<g id="a_Node000014"><a xlink:title=" ">
<polygon fill="#e0e0e0" stroke="#999999" points="266,-19 135,-19 135,0 266,0 266,-19"/>
<text text-anchor="middle" x="200.5" y="-7" font-family="Helvetica,sans-Serif" font-size="10.00">glm/gtx/quaternion.hpp</text>
</a>
</g>
</g>
<!-- Node9&#45;&gt;Node14 -->
<g id="edge13_Node000009_Node000014" class="edge">
<title>Node9&#45;&gt;Node14</title>
<g id="a_edge13_Node000009_Node000014"><a xlink:title=" ">
<path fill="none" stroke="#63b8ff" d="M559.92,-56.27C556.73,-55.84 553.57,-55.41 550.5,-55 456.03,-42.41 347.1,-28.69 276.19,-19.86"/>
<polygon fill="#63b8ff" stroke="#63b8ff" points="276.36,-16.35 266,-18.59 275.5,-23.3 276.36,-16.35"/>
</a>
</g>
</g>
<!-- Node15 -->
<g id="Node000015" class="node">
<title>Node15</title>
<g id="a_Node000015"><a xlink:title=" ">
<polygon fill="#e0e0e0" stroke="#999999" points="410.5,-19 284.5,-19 284.5,0 410.5,0 410.5,-19"/>
<text text-anchor="middle" x="347.5" y="-7" font-family="Helvetica,sans-Serif" font-size="10.00">glm/gtx/transform.hpp</text>
</a>
</g>
</g>
<!-- Node9&#45;&gt;Node15 -->
<g id="edge14_Node000009_Node000015" class="edge">
<title>Node9&#45;&gt;Node15</title>
<g id="a_edge14_Node000009_Node000015"><a xlink:title=" ">
<path fill="none" stroke="#63b8ff" d="M569.08,-54.98C523.13,-45.76 449.75,-31.03 400.15,-21.07"/>
<polygon fill="#63b8ff" stroke="#63b8ff" points="400.74,-17.62 390.25,-19.08 399.36,-24.48 400.74,-17.62"/>
</a>
</g>
</g>
<!-- Node16 -->
<g id="Node000016" class="node">
<title>Node16</title>
<g id="a_Node000016"><a xlink:title=" ">
<polygon fill="#e0e0e0" stroke="#999999" points="570,-19 429,-19 429,0 570,0 570,-19"/>
<text text-anchor="middle" x="499.5" y="-7" font-family="Helvetica,sans-Serif" font-size="10.00">glm/gtx/vector_angle.hpp</text>
</a>
</g>
</g>
<!-- Node9&#45;&gt;Node16 -->
<g id="edge15_Node000009_Node000016" class="edge">
<title>Node9&#45;&gt;Node16</title>
<g id="a_edge15_Node000009_Node000016"><a xlink:title=" ">
<path fill="none" stroke="#63b8ff" d="M593.51,-54.98C575.57,-46.5 547.78,-33.35 527.07,-23.54"/>
<polygon fill="#63b8ff" stroke="#63b8ff" points="528.36,-20.28 517.82,-19.17 525.36,-26.61 528.36,-20.28"/>
</a>
</g>
</g>
<!-- Node17 -->
<g id="Node000017" class="node">
<title>Node17</title>
<g id="a_Node000017"><a xlink:title=" ">
<polygon fill="#e0e0e0" stroke="#999999" points="632.5,-19 588.5,-19 588.5,0 632.5,0 632.5,-19"/>
<text text-anchor="middle" x="610.5" y="-7" font-family="Helvetica,sans-Serif" font-size="10.00">bitset</text>
</a>
</g>
</g>
<!-- Node9&#45;&gt;Node17 -->
<g id="edge16_Node000009_Node000017" class="edge">
<title>Node9&#45;&gt;Node17</title>
<g id="a_edge16_Node000009_Node000017"><a xlink:title=" ">
<path fill="none" stroke="#63b8ff" d="M611.33,-54.75C611.2,-47.8 611.02,-37.85 610.85,-29.13"/>
<polygon fill="#63b8ff" stroke="#63b8ff" points="614.35,-29.02 610.66,-19.09 607.35,-29.15 614.35,-29.02"/>
</a>
</g>
</g>
<!-- Node9&#45;&gt;Node18 -->
<g id="edge17_Node000009_Node000018" class="edge">
<title>Node9&#45;&gt;Node18</title>
<g id="a_edge17_Node000009_Node000018"><a xlink:title=" ">
<path fill="none" stroke="#63b8ff" d="M663.12,-60.95C746.17,-56.31 914.66,-44.64 1066.37,-18.94"/>
<polygon fill="#63b8ff" stroke="#63b8ff" points="1067.07,-22.37 1076.34,-17.23 1065.89,-15.48 1067.07,-22.37"/>
</a>
</g>
</g>
<!-- Node23&#45;&gt;Node9 -->
<g id="edge27_Node000023_Node000009" class="edge">
<title>Node23&#45;&gt;Node9</title>
<g id="a_edge27_Node000023_Node000009"><a xlink:title=" ">
<path fill="none" stroke="#63b8ff" d="M988.87,-164.75C979.22,-150.58 958.08,-122.92 932.5,-110 888.4,-87.73 753.74,-75.08 673.53,-69.32"/>
<polygon fill="#63b8ff" stroke="#63b8ff" points="673.29,-65.8 663.07,-68.59 672.8,-72.78 673.29,-65.8"/>
</a>
</g>
</g>
<!-- Node23&#45;&gt;Node19 -->
<g id="edge28_Node000023_Node000019" class="edge">
<title>Node23&#45;&gt;Node19</title>
<g id="a_edge28_Node000023_Node000019"><a xlink:title=" ">
<path fill="none" stroke="#63b8ff" d="M993.28,-164.61C991.02,-151.23 985.01,-125.8 970.5,-110 953.93,-91.96 928.49,-80.49 908.41,-73.72"/>
<polygon fill="#63b8ff" stroke="#63b8ff" points="909.34,-70.34 898.75,-70.68 907.24,-77.02 909.34,-70.34"/>
</a>
</g>
</g>
<!-- Node23&#45;&gt;Node21 -->
<g id="edge30_Node000023_Node000021" class="edge">
<title>Node23&#45;&gt;Node21</title>
<g id="a_edge30_Node000023_Node000021"><a xlink:title=" ">
<path fill="none" stroke="#63b8ff" d="M973.93,-164.98C953.07,-156.34 920.53,-142.87 896.73,-133.02"/>
<polygon fill="#63b8ff" stroke="#63b8ff" points="898.02,-129.76 887.44,-129.17 895.34,-136.23 898.02,-129.76"/>
</a>
</g>
</g>
<!-- Node24 -->
<g id="Node000024" class="node">
<title>Node24</title>
<g id="a_Node000024"><a xlink:title=" ">
<polygon fill="#e0e0e0" stroke="#999999" points="1066.5,-129 1022.5,-129 1022.5,-110 1066.5,-110 1066.5,-129"/>
<text text-anchor="middle" x="1044.5" y="-117" font-family="Helvetica,sans-Serif" font-size="10.00">string</text>
</a>
</g>
</g>
<!-- Node23&#45;&gt;Node24 -->
<g id="edge29_Node000023_Node000024" class="edge">
<title>Node23&#45;&gt;Node24</title>
<g id="a_edge29_Node000023_Node000024"><a xlink:title=" ">
<path fill="none" stroke="#63b8ff" d="M1002.76,-164.75C1009.96,-157.11 1020.61,-145.82 1029.35,-136.56"/>
<polygon fill="#63b8ff" stroke="#63b8ff" points="1032.08,-138.76 1036.4,-129.09 1026.99,-133.96 1032.08,-138.76"/>
</a>
</g>
</g>
<!-- Node25&#45;&gt;Node3 -->
<g id="edge32_Node000025_Node000003" class="edge">
<title>Node25&#45;&gt;Node3</title>
<g id="a_edge32_Node000025_Node000003"><a xlink:title=" ">
<path fill="none" stroke="#63b8ff" d="M672.5,-219.75C672.5,-212.8 672.5,-202.85 672.5,-194.13"/>
<polygon fill="#63b8ff" stroke="#63b8ff" points="676,-194.09 672.5,-184.09 669,-194.09 676,-194.09"/>
</a>
</g>
</g>
<!-- Node25&#45;&gt;Node9 -->
<g id="edge33_Node000025_Node000009" class="edge">
<title>Node25&#45;&gt;Node9</title>
<g id="a_edge33_Node000025_Node000009"><a xlink:title=" ">
<path fill="none" stroke="#63b8ff" d="M651.88,-219.87C637.19,-212.57 618.38,-200.64 608.5,-184 590,-152.85 598.36,-108.51 605.39,-83.84"/>
<polygon fill="#63b8ff" stroke="#63b8ff" points="608.82,-84.6 608.42,-74.02 602.13,-82.54 608.82,-84.6"/>
</a>
</g>
</g>
<!-- Node27 -->
<g id="Node000027" class="node">
<title>Node27</title>
<g id="a_Node000027"><a xlink:title=" ">
<polygon fill="#e0e0e0" stroke="#999999" points="1290.5,-184 1240.5,-184 1240.5,-165 1290.5,-165 1290.5,-184"/>
<text text-anchor="middle" x="1265.5" y="-172" font-family="Helvetica,sans-Serif" font-size="10.00">format</text>
</a>
</g>
</g>
<!-- Node26&#45;&gt;Node27 -->
<g id="edge36_Node000026_Node000027" class="edge">
<title>Node26&#45;&gt;Node27</title>
<g id="a_edge36_Node000026_Node000027"><a xlink:title=" ">
<path fill="none" stroke="#63b8ff" d="M1108.54,-219.98C1141.81,-210.56 1195.36,-195.38 1230.5,-185.42"/>
<polygon fill="#63b8ff" stroke="#63b8ff" points="1231.66,-188.73 1240.33,-182.63 1229.75,-181.99 1231.66,-188.73"/>
</a>
</g>
</g>
<!-- Node26&#45;&gt;Node28 -->
<g id="edge37_Node000026_Node000028" class="edge">
<title>Node26&#45;&gt;Node28</title>
<g id="a_edge37_Node000026_Node000028"><a xlink:title=" ">
<path fill="none" stroke="#63b8ff" d="M1122.15,-219.92C1164.67,-211.52 1231.4,-198.21 1298.39,-184.21"/>
<polygon fill="#63b8ff" stroke="#63b8ff" points="1299.21,-187.61 1308.28,-182.14 1297.77,-180.76 1299.21,-187.61"/>
</a>
</g>
</g>
<!-- Node29 -->
<g id="Node000029" class="node">
<title>Node29</title>
<g id="a_Node000029"><a xlink:title=" ">
<polygon fill="#e0e0e0" stroke="#999999" points="1222,-184 1129,-184 1129,-165 1222,-165 1222,-184"/>
<text text-anchor="middle" x="1175.5" y="-172" font-family="Helvetica,sans-Serif" font-size="10.00">source_location</text>
</a>
</g>
</g>
<!-- Node26&#45;&gt;Node29 -->
<g id="edge38_Node000026_Node000029" class="edge">
<title>Node26&#45;&gt;Node29</title>
<g id="a_edge38_Node000026_Node000029"><a xlink:title=" ">
<path fill="none" stroke="#63b8ff" d="M1094.08,-219.98C1109.27,-211.69 1132.6,-198.94 1150.4,-189.22"/>
<polygon fill="#63b8ff" stroke="#63b8ff" points="1152.53,-192.04 1159.63,-184.17 1149.18,-185.89 1152.53,-192.04"/>
</a>
</g>
</g>
</g>
</svg>
