<?xml version="1.0" encoding="UTF-8" standalone="no"?>
<!DOCTYPE svg PUBLIC "-//W3C//DTD SVG 1.1//EN"
 "http://www.w3.org/Graphics/SVG/1.1/DTD/svg11.dtd">
<!-- Generated by graphviz version 2.43.0 (0)
 -->
<!-- Title: App/Test/Source/Mesh_utest.cpp Pages: 1 -->
<svg width="1210pt" height="368pt"
 viewBox="0.00 0.00 1209.50 368.00" xmlns="http://www.w3.org/2000/svg" xmlns:xlink="http://www.w3.org/1999/xlink">
<g id="graph0" class="graph" transform="scale(1 1) rotate(0) translate(4 364)">
<title>App/Test/Source/Mesh_utest.cpp</title>
<!-- Node1 -->
<g id="Node000001" class="node">
<title>Node1</title>
<g id="a_Node000001"><a xlink:title=" ">
<polygon fill="#999999" stroke="#666666" points="590.5,-360 467.5,-360 467.5,-330 590.5,-330 590.5,-360"/>
<text text-anchor="start" x="475.5" y="-348" font-family="Helvetica,sans-Serif" font-size="10.00">App/Test/Source/Mesh</text>
<text text-anchor="middle" x="529" y="-337" font-family="Helvetica,sans-Serif" font-size="10.00">_utest.cpp</text>
</a>
</g>
</g>
<!-- Node2 -->
<g id="Node000002" class="node">
<title>Node2</title>
<g id="a_Node000002"><a xlink:href="ExtraDataType_8h.html" target="_top" xlink:title=" ">
<polygon fill="white" stroke="#666666" points="647.5,-184 492.5,-184 492.5,-165 647.5,-165 647.5,-184"/>
<text text-anchor="middle" x="570" y="-172" font-family="Helvetica,sans-Serif" font-size="10.00">Application/ExtraDataType.h</text>
</a>
</g>
</g>
<!-- Node1&#45;&gt;Node2 -->
<g id="edge1_Node000001_Node000002" class="edge">
<title>Node1&#45;&gt;Node2</title>
<g id="a_edge1_Node000001_Node000002"><a xlink:title=" ">
<path fill="none" stroke="#63b8ff" d="M555.76,-329.86C584.92,-312.76 629.96,-280.97 649,-239 659.58,-215.7 632.65,-198.38 607.41,-187.76"/>
<polygon fill="#63b8ff" stroke="#63b8ff" points="608.49,-184.43 597.9,-184.03 605.92,-190.94 608.49,-184.43"/>
</a>
</g>
</g>
<!-- Node16 -->
<g id="Node000016" class="node">
<title>Node16</title>
<g id="a_Node000016"><a xlink:href="Mesh_8h.html" target="_top" xlink:title=" ">
<polygon fill="white" stroke="#666666" points="437,-184 327,-184 327,-165 437,-165 437,-184"/>
<text text-anchor="middle" x="382" y="-172" font-family="Helvetica,sans-Serif" font-size="10.00">Application/Mesh.h</text>
</a>
</g>
</g>
<!-- Node1&#45;&gt;Node16 -->
<g id="edge15_Node000001_Node000016" class="edge">
<title>Node1&#45;&gt;Node16</title>
<g id="a_edge15_Node000001_Node000016"><a xlink:title=" ">
<path fill="none" stroke="#63b8ff" d="M467.34,-333.6C443.19,-326.42 417.4,-314.33 401,-294 377.86,-265.31 377.63,-219.68 379.7,-194.23"/>
<polygon fill="#63b8ff" stroke="#63b8ff" points="383.2,-194.39 380.73,-184.09 376.23,-193.68 383.2,-194.39"/>
</a>
</g>
</g>
<!-- Node23 -->
<g id="Node000023" class="node">
<title>Node23</title>
<g id="a_Node000023"><a xlink:href="MeshIntegrity_8h.html" target="_top" xlink:title=" ">
<polygon fill="white" stroke="#666666" points="230.5,-239 81.5,-239 81.5,-220 230.5,-220 230.5,-239"/>
<text text-anchor="middle" x="156" y="-227" font-family="Helvetica,sans-Serif" font-size="10.00">Application/MeshIntegrity.h</text>
</a>
</g>
</g>
<!-- Node1&#45;&gt;Node23 -->
<g id="edge26_Node000001_Node000023" class="edge">
<title>Node1&#45;&gt;Node23</title>
<g id="a_edge26_Node000001_Node000023"><a xlink:title=" ">
<path fill="none" stroke="#63b8ff" d="M467.42,-340.13C385.62,-334.06 246.39,-320.18 203,-294 185.26,-283.29 172.08,-263.1 164.27,-248.35"/>
<polygon fill="#63b8ff" stroke="#63b8ff" points="167.3,-246.59 159.72,-239.19 161.03,-249.7 167.3,-246.59"/>
</a>
</g>
</g>
<!-- Node24 -->
<g id="Node000024" class="node">
<title>Node24</title>
<g id="a_Node000024"><a xlink:href="MeshLoader_8h.html" target="_top" xlink:title=" ">
<polygon fill="white" stroke="#666666" points="354,-294 212,-294 212,-275 354,-275 354,-294"/>
<text text-anchor="middle" x="283" y="-282" font-family="Helvetica,sans-Serif" font-size="10.00">Application/MeshLoader.h</text>
</a>
</g>
</g>
<!-- Node1&#45;&gt;Node24 -->
<g id="edge29_Node000001_Node000024" class="edge">
<title>Node1&#45;&gt;Node24</title>
<g id="a_edge29_Node000001_Node000024"><a xlink:title=" ">
<path fill="none" stroke="#63b8ff" d="M470.08,-329.99C426.8,-319.7 368.83,-305.91 328.95,-296.43"/>
<polygon fill="#63b8ff" stroke="#63b8ff" points="329.51,-292.96 318.97,-294.05 327.89,-299.77 329.51,-292.96"/>
</a>
</g>
</g>
<!-- Node26 -->
<g id="Node000026" class="node">
<title>Node26</title>
<g id="a_Node000026"><a xlink:href="PrimitiveProxy_8h.html" target="_top" xlink:title=" ">
<polygon fill="white" stroke="#666666" points="640,-239 486,-239 486,-220 640,-220 640,-239"/>
<text text-anchor="middle" x="563" y="-227" font-family="Helvetica,sans-Serif" font-size="10.00">Application/PrimitiveProxy.h</text>
</a>
</g>
</g>
<!-- Node1&#45;&gt;Node26 -->
<g id="edge32_Node000001_Node000026" class="edge">
<title>Node1&#45;&gt;Node26</title>
<g id="a_edge32_Node000001_Node000026"><a xlink:title=" ">
<path fill="none" stroke="#63b8ff" d="M540.2,-329.58C546.94,-320.04 554.97,-306.95 559,-294 563.48,-279.63 564.32,-262.56 564.13,-249.74"/>
<polygon fill="#63b8ff" stroke="#63b8ff" points="567.61,-249.23 563.74,-239.36 560.62,-249.49 567.61,-249.23"/>
</a>
</g>
</g>
<!-- Node27 -->
<g id="Node000027" class="node">
<title>Node27</title>
<g id="a_Node000027"><a xlink:href="TestHelpers_8h.html" target="_top" xlink:title=" ">
<polygon fill="white" stroke="#666666" points="550,-294 410,-294 410,-275 550,-275 550,-294"/>
<text text-anchor="middle" x="480" y="-282" font-family="Helvetica,sans-Serif" font-size="10.00">Application/TestHelpers.h</text>
</a>
</g>
</g>
<!-- Node1&#45;&gt;Node27 -->
<g id="edge35_Node000001_Node000027" class="edge">
<title>Node1&#45;&gt;Node27</title>
<g id="a_edge35_Node000001_Node000027"><a xlink:title=" ">
<path fill="none" stroke="#63b8ff" d="M517.14,-329.84C510.1,-321.43 501.14,-310.74 493.79,-301.96"/>
<polygon fill="#63b8ff" stroke="#63b8ff" points="496.45,-299.68 487.35,-294.27 491.08,-304.18 496.45,-299.68"/>
</a>
</g>
</g>
<!-- Node28 -->
<g id="Node000028" class="node">
<title>Node28</title>
<g id="a_Node000028"><a xlink:href="MathHelpers_8h.html" target="_top" xlink:title=" ">
<polygon fill="white" stroke="#666666" points="809.5,-294 696.5,-294 696.5,-275 809.5,-275 809.5,-294"/>
<text text-anchor="middle" x="753" y="-282" font-family="Helvetica,sans-Serif" font-size="10.00">Core/MathHelpers.h</text>
</a>
</g>
</g>
<!-- Node1&#45;&gt;Node28 -->
<g id="edge39_Node000001_Node000028" class="edge">
<title>Node1&#45;&gt;Node28</title>
<g id="a_edge39_Node000001_Node000028"><a xlink:title=" ">
<path fill="none" stroke="#63b8ff" d="M582.66,-329.99C621.82,-319.76 674.18,-306.09 710.47,-296.61"/>
<polygon fill="#63b8ff" stroke="#63b8ff" points="711.46,-299.97 720.25,-294.05 709.69,-293.19 711.46,-299.97"/>
</a>
</g>
</g>
<!-- Node31 -->
<g id="Node000031" class="node">
<title>Node31</title>
<g id="a_Node000031"><a xlink:title=" ">
<polygon fill="#e0e0e0" stroke="#999999" points="906,-294 828,-294 828,-275 906,-275 906,-294"/>
<text text-anchor="middle" x="867" y="-282" font-family="Helvetica,sans-Serif" font-size="10.00">gtest/gtest.h</text>
</a>
</g>
</g>
<!-- Node1&#45;&gt;Node31 -->
<g id="edge43_Node000001_Node000031" class="edge">
<title>Node1&#45;&gt;Node31</title>
<g id="a_edge43_Node000001_Node000031"><a xlink:title=" ">
<path fill="none" stroke="#63b8ff" d="M590.68,-333.45C647.16,-323.77 733.37,-308.95 817.94,-294.18"/>
<polygon fill="#63b8ff" stroke="#63b8ff" points="818.72,-297.6 827.97,-292.43 817.52,-290.7 818.72,-297.6"/>
</a>
</g>
</g>
<!-- Node3 -->
<g id="Node000003" class="node">
<title>Node3</title>
<g id="a_Node000003"><a xlink:href="BaseTypes_8h.html" target="_top" xlink:title=" ">
<polygon fill="white" stroke="#666666" points="687.5,-74 584.5,-74 584.5,-55 687.5,-55 687.5,-74"/>
<text text-anchor="middle" x="636" y="-62" font-family="Helvetica,sans-Serif" font-size="10.00">Core/BaseTypes.h</text>
</a>
</g>
</g>
<!-- Node2&#45;&gt;Node3 -->
<g id="edge2_Node000002_Node000003" class="edge">
<title>Node2&#45;&gt;Node3</title>
<g id="a_edge2_Node000002_Node000003"><a xlink:title=" ">
<path fill="none" stroke="#63b8ff" d="M592.04,-164.91C607.08,-157.76 625.87,-145.99 635,-129 642.34,-115.34 641.92,-97.53 640.05,-84.25"/>
<polygon fill="#63b8ff" stroke="#63b8ff" points="643.48,-83.57 638.27,-74.34 636.59,-84.81 643.48,-83.57"/>
</a>
</g>
</g>
<!-- Node13 -->
<g id="Node000013" class="node">
<title>Node13</title>
<g id="a_Node000013"><a xlink:title=" ">
<polygon fill="#e0e0e0" stroke="#999999" points="472,-74 430,-74 430,-55 472,-55 472,-74"/>
<text text-anchor="middle" x="451" y="-62" font-family="Helvetica,sans-Serif" font-size="10.00">array</text>
</a>
</g>
</g>
<!-- Node2&#45;&gt;Node13 -->
<g id="edge12_Node000002_Node000013" class="edge">
<title>Node2&#45;&gt;Node13</title>
<g id="a_edge12_Node000002_Node000013"><a xlink:title=" ">
<path fill="none" stroke="#63b8ff" d="M566.85,-164.69C561.74,-151.41 550.5,-126.12 534,-110 519.14,-95.48 498.58,-84.42 481.65,-76.95"/>
<polygon fill="#63b8ff" stroke="#63b8ff" points="482.74,-73.61 472.16,-72.97 480.03,-80.07 482.74,-73.61"/>
</a>
</g>
</g>
<!-- Node14 -->
<g id="Node000014" class="node">
<title>Node14</title>
<g id="a_Node000014"><a xlink:title=" ">
<polygon fill="#e0e0e0" stroke="#999999" points="626,-129 582,-129 582,-110 626,-110 626,-129"/>
<text text-anchor="middle" x="604" y="-117" font-family="Helvetica,sans-Serif" font-size="10.00">string</text>
</a>
</g>
</g>
<!-- Node2&#45;&gt;Node14 -->
<g id="edge13_Node000002_Node000014" class="edge">
<title>Node2&#45;&gt;Node14</title>
<g id="a_edge13_Node000002_Node000014"><a xlink:title=" ">
<path fill="none" stroke="#63b8ff" d="M575.62,-164.75C580.32,-157.42 587.18,-146.73 592.97,-137.7"/>
<polygon fill="#63b8ff" stroke="#63b8ff" points="596.04,-139.4 598.49,-129.09 590.15,-135.62 596.04,-139.4"/>
</a>
</g>
</g>
<!-- Node15 -->
<g id="Node000015" class="node">
<title>Node15</title>
<g id="a_Node000015"><a xlink:title=" ">
<polygon fill="#e0e0e0" stroke="#999999" points="525.5,-129 478.5,-129 478.5,-110 525.5,-110 525.5,-129"/>
<text text-anchor="middle" x="502" y="-117" font-family="Helvetica,sans-Serif" font-size="10.00">vector</text>
</a>
</g>
</g>
<!-- Node2&#45;&gt;Node15 -->
<g id="edge14_Node000002_Node000015" class="edge">
<title>Node2&#45;&gt;Node15</title>
<g id="a_edge14_Node000002_Node000015"><a xlink:title=" ">
<path fill="none" stroke="#63b8ff" d="M559.08,-164.98C548.93,-157.07 533.58,-145.11 521.36,-135.58"/>
<polygon fill="#63b8ff" stroke="#63b8ff" points="523.17,-132.56 513.13,-129.17 518.86,-138.08 523.17,-132.56"/>
</a>
</g>
</g>
<!-- Node4 -->
<g id="Node000004" class="node">
<title>Node4</title>
<g id="a_Node000004"><a xlink:title=" ">
<polygon fill="#e0e0e0" stroke="#999999" points="736,-19 658,-19 658,0 736,0 736,-19"/>
<text text-anchor="middle" x="697" y="-7" font-family="Helvetica,sans-Serif" font-size="10.00">glm/glm.hpp</text>
</a>
</g>
</g>
<!-- Node3&#45;&gt;Node4 -->
<g id="edge3_Node000003_Node000004" class="edge">
<title>Node3&#45;&gt;Node4</title>
<g id="a_edge3_Node000003_Node000004"><a xlink:title=" ">
<path fill="none" stroke="#63b8ff" d="M645.8,-54.98C654.82,-47.15 668.41,-35.34 679.32,-25.86"/>
<polygon fill="#63b8ff" stroke="#63b8ff" points="681.77,-28.37 687.02,-19.17 677.18,-23.09 681.77,-28.37"/>
</a>
</g>
</g>
<!-- Node5 -->
<g id="Node000005" class="node">
<title>Node5</title>
<g id="a_Node000005"><a xlink:title=" ">
<polygon fill="#e0e0e0" stroke="#999999" points="917.5,-19 754.5,-19 754.5,0 917.5,0 917.5,-19"/>
<text text-anchor="middle" x="836" y="-7" font-family="Helvetica,sans-Serif" font-size="10.00">glm/gtc/matrix_transform.hpp</text>
</a>
</g>
</g>
<!-- Node3&#45;&gt;Node5 -->
<g id="edge4_Node000003_Node000005" class="edge">
<title>Node3&#45;&gt;Node5</title>
<g id="a_edge4_Node000003_Node000005"><a xlink:title=" ">
<path fill="none" stroke="#63b8ff" d="M668.14,-54.98C702.15,-45.97 756,-31.7 793.5,-21.76"/>
<polygon fill="#63b8ff" stroke="#63b8ff" points="794.85,-25.03 803.62,-19.08 793.05,-18.26 794.85,-25.03"/>
</a>
</g>
</g>
<!-- Node6 -->
<g id="Node000006" class="node">
<title>Node6</title>
<g id="a_Node000006"><a xlink:title=" ">
<polygon fill="#e0e0e0" stroke="#999999" points="1066,-19 936,-19 936,0 1066,0 1066,-19"/>
<text text-anchor="middle" x="1001" y="-7" font-family="Helvetica,sans-Serif" font-size="10.00">glm/gtc/quaternion.hpp</text>
</a>
</g>
</g>
<!-- Node3&#45;&gt;Node6 -->
<g id="edge5_Node000003_Node000006" class="edge">
<title>Node3&#45;&gt;Node6</title>
<g id="a_edge5_Node000003_Node000006"><a xlink:title=" ">
<path fill="none" stroke="#63b8ff" d="M687.52,-56.02C751.49,-46.73 860.82,-30.86 931.98,-20.52"/>
<polygon fill="#63b8ff" stroke="#63b8ff" points="932.8,-23.94 942.19,-19.04 931.79,-17.01 932.8,-23.94"/>
</a>
</g>
</g>
<!-- Node7 -->
<g id="Node000007" class="node">
<title>Node7</title>
<g id="a_Node000007"><a xlink:title=" ">
<polygon fill="#e0e0e0" stroke="#999999" points="1201.5,-19 1084.5,-19 1084.5,0 1201.5,0 1201.5,-19"/>
<text text-anchor="middle" x="1143" y="-7" font-family="Helvetica,sans-Serif" font-size="10.00">glm/gtc/type_ptr.hpp</text>
</a>
</g>
</g>
<!-- Node3&#45;&gt;Node7 -->
<g id="edge6_Node000003_Node000007" class="edge">
<title>Node3&#45;&gt;Node7</title>
<g id="a_edge6_Node000003_Node000007"><a xlink:title=" ">
<path fill="none" stroke="#63b8ff" d="M687.74,-58.65C768.04,-51.04 927.75,-35.54 1074.33,-19.05"/>
<polygon fill="#63b8ff" stroke="#63b8ff" points="1074.86,-22.51 1084.41,-17.91 1074.08,-15.56 1074.86,-22.51"/>
</a>
</g>
</g>
<!-- Node8 -->
<g id="Node000008" class="node">
<title>Node8</title>
<g id="a_Node000008"><a xlink:title=" ">
<polygon fill="#e0e0e0" stroke="#999999" points="273.5,-19 142.5,-19 142.5,0 273.5,0 273.5,-19"/>
<text text-anchor="middle" x="208" y="-7" font-family="Helvetica,sans-Serif" font-size="10.00">glm/gtx/quaternion.hpp</text>
</a>
</g>
</g>
<!-- Node3&#45;&gt;Node8 -->
<g id="edge7_Node000003_Node000008" class="edge">
<title>Node3&#45;&gt;Node8</title>
<g id="a_edge7_Node000003_Node000008"><a xlink:title=" ">
<path fill="none" stroke="#63b8ff" d="M584.38,-57.11C509.52,-47.84 370.37,-30.61 283.85,-19.89"/>
<polygon fill="#63b8ff" stroke="#63b8ff" points="284.18,-16.41 273.83,-18.65 283.32,-23.35 284.18,-16.41"/>
</a>
</g>
</g>
<!-- Node9 -->
<g id="Node000009" class="node">
<title>Node9</title>
<g id="a_Node000009"><a xlink:title=" ">
<polygon fill="#e0e0e0" stroke="#999999" points="418,-19 292,-19 292,0 418,0 418,-19"/>
<text text-anchor="middle" x="355" y="-7" font-family="Helvetica,sans-Serif" font-size="10.00">glm/gtx/transform.hpp</text>
</a>
</g>
</g>
<!-- Node3&#45;&gt;Node9 -->
<g id="edge8_Node000003_Node000009" class="edge">
<title>Node3&#45;&gt;Node9</title>
<g id="a_edge8_Node000003_Node000009"><a xlink:title=" ">
<path fill="none" stroke="#63b8ff" d="M590.86,-54.98C541.74,-45.72 463.18,-30.9 410.38,-20.94"/>
<polygon fill="#63b8ff" stroke="#63b8ff" points="410.98,-17.5 400.5,-19.08 409.68,-24.37 410.98,-17.5"/>
</a>
</g>
</g>
<!-- Node10 -->
<g id="Node000010" class="node">
<title>Node10</title>
<g id="a_Node000010"><a xlink:title=" ">
<polygon fill="#e0e0e0" stroke="#999999" points="577.5,-19 436.5,-19 436.5,0 577.5,0 577.5,-19"/>
<text text-anchor="middle" x="507" y="-7" font-family="Helvetica,sans-Serif" font-size="10.00">glm/gtx/vector_angle.hpp</text>
</a>
</g>
</g>
<!-- Node3&#45;&gt;Node10 -->
<g id="edge9_Node000003_Node000010" class="edge">
<title>Node3&#45;&gt;Node10</title>
<g id="a_edge9_Node000003_Node000010"><a xlink:title=" ">
<path fill="none" stroke="#63b8ff" d="M615.28,-54.98C594.24,-46.34 561.45,-32.87 537.47,-23.02"/>
<polygon fill="#63b8ff" stroke="#63b8ff" points="538.69,-19.73 528.11,-19.17 536.03,-26.21 538.69,-19.73"/>
</a>
</g>
</g>
<!-- Node11 -->
<g id="Node000011" class="node">
<title>Node11</title>
<g id="a_Node000011"><a xlink:title=" ">
<polygon fill="#e0e0e0" stroke="#999999" points="640,-19 596,-19 596,0 640,0 640,-19"/>
<text text-anchor="middle" x="618" y="-7" font-family="Helvetica,sans-Serif" font-size="10.00">bitset</text>
</a>
</g>
</g>
<!-- Node3&#45;&gt;Node11 -->
<g id="edge10_Node000003_Node000011" class="edge">
<title>Node3&#45;&gt;Node11</title>
<g id="a_edge10_Node000003_Node000011"><a xlink:title=" ">
<path fill="none" stroke="#63b8ff" d="M633.03,-54.75C630.65,-47.72 627.21,-37.62 624.23,-28.84"/>
<polygon fill="#63b8ff" stroke="#63b8ff" points="627.45,-27.43 620.92,-19.09 620.82,-29.68 627.45,-27.43"/>
</a>
</g>
</g>
<!-- Node12 -->
<g id="Node000012" class="node">
<title>Node12</title>
<g id="a_Node000012"><a xlink:title=" ">
<polygon fill="#e0e0e0" stroke="#999999" points="88,-19 38,-19 38,0 88,0 88,-19"/>
<text text-anchor="middle" x="63" y="-7" font-family="Helvetica,sans-Serif" font-size="10.00">cstdint</text>
</a>
</g>
</g>
<!-- Node3&#45;&gt;Node12 -->
<g id="edge11_Node000003_Node000012" class="edge">
<title>Node3&#45;&gt;Node12</title>
<g id="a_edge11_Node000003_Node000012"><a xlink:title=" ">
<path fill="none" stroke="#63b8ff" d="M584.18,-59.48C492.91,-52.26 297.57,-36.27 133,-19 121.75,-17.82 109.49,-16.38 98.43,-15.03"/>
<polygon fill="#63b8ff" stroke="#63b8ff" points="98.61,-11.52 88.25,-13.77 97.75,-18.47 98.61,-11.52"/>
</a>
</g>
</g>
<!-- Node16&#45;&gt;Node3 -->
<g id="edge23_Node000016_Node000003" class="edge">
<title>Node16&#45;&gt;Node3</title>
<g id="a_edge23_Node000016_Node000003"><a xlink:title=" ">
<path fill="none" stroke="#63b8ff" d="M391.41,-164.77C406.59,-151.14 437.95,-124.83 469,-110 502.5,-94.01 542.62,-83.08 575.14,-76.06"/>
<polygon fill="#63b8ff" stroke="#63b8ff" points="575.9,-79.47 584.97,-74 574.46,-72.62 575.9,-79.47"/>
</a>
</g>
</g>
<!-- Node16&#45;&gt;Node15 -->
<g id="edge25_Node000016_Node000015" class="edge">
<title>Node16&#45;&gt;Node15</title>
<g id="a_edge25_Node000016_Node000015"><a xlink:title=" ">
<path fill="none" stroke="#63b8ff" d="M401.28,-164.98C420.67,-156.42 450.81,-143.11 473.07,-133.28"/>
<polygon fill="#63b8ff" stroke="#63b8ff" points="474.64,-136.41 482.37,-129.17 471.81,-130.01 474.64,-136.41"/>
</a>
</g>
</g>
<!-- Node17 -->
<g id="Node000017" class="node">
<title>Node17</title>
<g id="a_Node000017"><a xlink:href="ExtraDataContainer_8h.html" target="_top" xlink:title=" ">
<polygon fill="white" stroke="#666666" points="199.5,-129 20.5,-129 20.5,-110 199.5,-110 199.5,-129"/>
<text text-anchor="middle" x="110" y="-117" font-family="Helvetica,sans-Serif" font-size="10.00">Application/ExtraDataContainer.h</text>
</a>
</g>
</g>
<!-- Node16&#45;&gt;Node17 -->
<g id="edge16_Node000016_Node000017" class="edge">
<title>Node16&#45;&gt;Node17</title>
<g id="a_edge16_Node000016_Node000017"><a xlink:title=" ">
<path fill="none" stroke="#63b8ff" d="M338.3,-164.98C290.86,-155.74 215.04,-140.97 163.92,-131.01"/>
<polygon fill="#63b8ff" stroke="#63b8ff" points="164.53,-127.56 154.05,-129.08 163.19,-134.43 164.53,-127.56"/>
</a>
</g>
</g>
<!-- Node21 -->
<g id="Node000021" class="node">
<title>Node21</title>
<g id="a_Node000021"><a xlink:href="Primitive_8h.html" target="_top" xlink:title=" ">
<polygon fill="white" stroke="#666666" points="422,-129 294,-129 294,-110 422,-110 422,-129"/>
<text text-anchor="middle" x="358" y="-117" font-family="Helvetica,sans-Serif" font-size="10.00">Application/Primitive.h</text>
</a>
</g>
</g>
<!-- Node16&#45;&gt;Node21 -->
<g id="edge20_Node000016_Node000021" class="edge">
<title>Node16&#45;&gt;Node21</title>
<g id="a_edge20_Node000016_Node000021"><a xlink:title=" ">
<path fill="none" stroke="#63b8ff" d="M378.04,-164.75C374.79,-157.57 370.08,-147.18 366.05,-138.27"/>
<polygon fill="#63b8ff" stroke="#63b8ff" points="369.21,-136.75 361.89,-129.09 362.83,-139.64 369.21,-136.75"/>
</a>
</g>
</g>
<!-- Node22 -->
<g id="Node000022" class="node">
<title>Node22</title>
<g id="a_Node000022"><a xlink:title=" ">
<polygon fill="#e0e0e0" stroke="#999999" points="276,-129 218,-129 218,-110 276,-110 276,-129"/>
<text text-anchor="middle" x="247" y="-117" font-family="Helvetica,sans-Serif" font-size="10.00">memory</text>
</a>
</g>
</g>
<!-- Node16&#45;&gt;Node22 -->
<g id="edge24_Node000016_Node000022" class="edge">
<title>Node16&#45;&gt;Node22</title>
<g id="a_edge24_Node000016_Node000022"><a xlink:title=" ">
<path fill="none" stroke="#63b8ff" d="M360.31,-164.98C338.2,-156.3 303.68,-142.75 278.55,-132.88"/>
<polygon fill="#63b8ff" stroke="#63b8ff" points="279.67,-129.57 269.09,-129.17 277.12,-136.08 279.67,-129.57"/>
</a>
</g>
</g>
<!-- Node18 -->
<g id="Node000018" class="node">
<title>Node18</title>
<g id="a_Node000018"><a xlink:title=" ">
<polygon fill="#e0e0e0" stroke="#999999" points="249.5,-74 214.5,-74 214.5,-55 249.5,-55 249.5,-74"/>
<text text-anchor="middle" x="232" y="-62" font-family="Helvetica,sans-Serif" font-size="10.00">any</text>
</a>
</g>
</g>
<!-- Node17&#45;&gt;Node18 -->
<g id="edge17_Node000017_Node000018" class="edge">
<title>Node17&#45;&gt;Node18</title>
<g id="a_edge17_Node000017_Node000018"><a xlink:title=" ">
<path fill="none" stroke="#63b8ff" d="M129.6,-109.98C150.02,-101.11 182.16,-87.15 204.98,-77.24"/>
<polygon fill="#63b8ff" stroke="#63b8ff" points="206.65,-80.33 214.43,-73.13 203.86,-73.91 206.65,-80.33"/>
</a>
</g>
</g>
<!-- Node19 -->
<g id="Node000019" class="node">
<title>Node19</title>
<g id="a_Node000019"><a xlink:title=" ">
<polygon fill="#e0e0e0" stroke="#999999" points="85.5,-74 20.5,-74 20.5,-55 85.5,-55 85.5,-74"/>
<text text-anchor="middle" x="53" y="-62" font-family="Helvetica,sans-Serif" font-size="10.00">typeindex</text>
</a>
</g>
</g>
<!-- Node17&#45;&gt;Node19 -->
<g id="edge18_Node000017_Node000019" class="edge">
<title>Node17&#45;&gt;Node19</title>
<g id="a_edge18_Node000017_Node000019"><a xlink:title=" ">
<path fill="none" stroke="#63b8ff" d="M100.84,-109.98C92.5,-102.23 79.97,-90.58 69.83,-81.14"/>
<polygon fill="#63b8ff" stroke="#63b8ff" points="72.03,-78.42 62.33,-74.17 67.27,-83.54 72.03,-78.42"/>
</a>
</g>
</g>
<!-- Node20 -->
<g id="Node000020" class="node">
<title>Node20</title>
<g id="a_Node000020"><a xlink:title=" ">
<polygon fill="#e0e0e0" stroke="#999999" points="196.5,-74 103.5,-74 103.5,-55 196.5,-55 196.5,-74"/>
<text text-anchor="middle" x="150" y="-62" font-family="Helvetica,sans-Serif" font-size="10.00">unordered_map</text>
</a>
</g>
</g>
<!-- Node17&#45;&gt;Node20 -->
<g id="edge19_Node000017_Node000020" class="edge">
<title>Node17&#45;&gt;Node20</title>
<g id="a_edge19_Node000017_Node000020"><a xlink:title=" ">
<path fill="none" stroke="#63b8ff" d="M116.61,-109.75C122.26,-102.26 130.55,-91.28 137.45,-82.13"/>
<polygon fill="#63b8ff" stroke="#63b8ff" points="140.29,-84.18 143.52,-74.09 134.7,-79.96 140.29,-84.18"/>
</a>
</g>
</g>
<!-- Node21&#45;&gt;Node3 -->
<g id="edge21_Node000021_Node000003" class="edge">
<title>Node21&#45;&gt;Node3</title>
<g id="a_edge21_Node000021_Node000003"><a xlink:title=" ">
<path fill="none" stroke="#63b8ff" d="M402.67,-109.98C451.16,-100.74 528.65,-85.97 580.89,-76.01"/>
<polygon fill="#63b8ff" stroke="#63b8ff" points="581.82,-79.39 590.99,-74.08 580.51,-72.52 581.82,-79.39"/>
</a>
</g>
</g>
<!-- Node21&#45;&gt;Node13 -->
<g id="edge22_Node000021_Node000013" class="edge">
<title>Node21&#45;&gt;Node13</title>
<g id="a_edge22_Node000021_Node000013"><a xlink:title=" ">
<path fill="none" stroke="#63b8ff" d="M372.94,-109.98C387.5,-101.69 409.87,-88.94 426.94,-79.22"/>
<polygon fill="#63b8ff" stroke="#63b8ff" points="428.83,-82.16 435.79,-74.17 425.37,-76.08 428.83,-82.16"/>
</a>
</g>
</g>
<!-- Node23&#45;&gt;Node12 -->
<g id="edge28_Node000023_Node000012" class="edge">
<title>Node23&#45;&gt;Node12</title>
<g id="a_edge28_Node000023_Node000012"><a xlink:title=" ">
<path fill="none" stroke="#63b8ff" d="M131.16,-219.92C96.87,-206.57 36.39,-177.22 11,-129 -4.32,-99.9 -2.75,-84.87 11,-55 16.75,-42.52 27.91,-32.24 38.43,-24.71"/>
<polygon fill="#63b8ff" stroke="#63b8ff" points="40.57,-27.49 46.97,-19.05 36.7,-21.65 40.57,-27.49"/>
</a>
</g>
</g>
<!-- Node23&#45;&gt;Node16 -->
<g id="edge27_Node000023_Node000016" class="edge">
<title>Node23&#45;&gt;Node16</title>
<g id="a_edge27_Node000023_Node000016"><a xlink:title=" ">
<path fill="none" stroke="#63b8ff" d="M192.31,-219.98C231.24,-210.86 293.16,-196.33 335.6,-186.38"/>
<polygon fill="#63b8ff" stroke="#63b8ff" points="336.47,-189.77 345.41,-184.08 334.87,-182.96 336.47,-189.77"/>
</a>
</g>
</g>
<!-- Node24&#45;&gt;Node16 -->
<g id="edge30_Node000024_Node000016" class="edge">
<title>Node24&#45;&gt;Node16</title>
<g id="a_edge30_Node000024_Node000016"><a xlink:title=" ">
<path fill="none" stroke="#63b8ff" d="M291.44,-274.7C299.96,-265.76 313.49,-251.51 325,-239 339.65,-223.08 356.13,-204.67 367.59,-191.78"/>
<polygon fill="#63b8ff" stroke="#63b8ff" points="370.31,-193.99 374.33,-184.19 365.07,-189.35 370.31,-193.99"/>
</a>
</g>
</g>
<!-- Node25 -->
<g id="Node000025" class="node">
<title>Node25</title>
<g id="a_Node000025"><a xlink:title=" ">
<polygon fill="#e0e0e0" stroke="#999999" points="316,-239 248,-239 248,-220 316,-220 316,-239"/>
<text text-anchor="middle" x="282" y="-227" font-family="Helvetica,sans-Serif" font-size="10.00">filesystem</text>
</a>
</g>
</g>
<!-- Node24&#45;&gt;Node25 -->
<g id="edge31_Node000024_Node000025" class="edge">
<title>Node24&#45;&gt;Node25</title>
<g id="a_edge31_Node000024_Node000025"><a xlink:title=" ">
<path fill="none" stroke="#63b8ff" d="M282.84,-274.75C282.71,-267.8 282.52,-257.85 282.35,-249.13"/>
<polygon fill="#63b8ff" stroke="#63b8ff" points="285.85,-249.02 282.16,-239.09 278.85,-249.15 285.85,-249.02"/>
</a>
</g>
</g>
<!-- Node26&#45;&gt;Node3 -->
<g id="edge34_Node000026_Node000003" class="edge">
<title>Node26&#45;&gt;Node3</title>
<g id="a_edge34_Node000026_Node000003"><a xlink:title=" ">
<path fill="none" stroke="#63b8ff" d="M603.2,-219.87C622.69,-213.45 644.36,-202.48 656,-184 675.85,-152.51 658.32,-107.35 645.87,-82.88"/>
<polygon fill="#63b8ff" stroke="#63b8ff" points="648.93,-81.19 641.12,-74.03 642.76,-84.49 648.93,-81.19"/>
</a>
</g>
</g>
<!-- Node26&#45;&gt;Node16 -->
<g id="edge33_Node000026_Node000016" class="edge">
<title>Node26&#45;&gt;Node16</title>
<g id="a_edge33_Node000026_Node000016"><a xlink:title=" ">
<path fill="none" stroke="#63b8ff" d="M533.92,-219.98C503.4,-211.05 455.24,-196.94 421.34,-187.02"/>
<polygon fill="#63b8ff" stroke="#63b8ff" points="421.89,-183.53 411.31,-184.08 419.92,-190.25 421.89,-183.53"/>
</a>
</g>
</g>
<!-- Node27&#45;&gt;Node2 -->
<g id="edge36_Node000027_Node000002" class="edge">
<title>Node27&#45;&gt;Node2</title>
<g id="a_edge36_Node000027_Node000002"><a xlink:title=" ">
<path fill="none" stroke="#63b8ff" d="M476.71,-274.91C472.33,-261.92 466.29,-236.99 477,-220 486.73,-204.56 503.47,-194.35 520.09,-187.67"/>
<polygon fill="#63b8ff" stroke="#63b8ff" points="521.61,-190.84 529.8,-184.13 519.21,-184.26 521.61,-190.84"/>
</a>
</g>
</g>
<!-- Node27&#45;&gt;Node16 -->
<g id="edge37_Node000027_Node000016" class="edge">
<title>Node27&#45;&gt;Node16</title>
<g id="a_edge37_Node000027_Node000016"><a xlink:title=" ">
<path fill="none" stroke="#63b8ff" d="M471.98,-274.66C455.53,-256.54 417.77,-214.91 396.77,-191.77"/>
<polygon fill="#63b8ff" stroke="#63b8ff" points="399.17,-189.21 389.86,-184.16 393.99,-193.92 399.17,-189.21"/>
</a>
</g>
</g>
<!-- Node27&#45;&gt;Node26 -->
<g id="edge38_Node000027_Node000026" class="edge">
<title>Node27&#45;&gt;Node26</title>
<g id="a_edge38_Node000027_Node000026"><a xlink:title=" ">
<path fill="none" stroke="#63b8ff" d="M493.34,-274.98C506.09,-266.84 525.56,-254.41 540.67,-244.76"/>
<polygon fill="#63b8ff" stroke="#63b8ff" points="542.88,-247.5 549.42,-239.17 539.11,-241.6 542.88,-247.5"/>
</a>
</g>
</g>
<!-- Node28&#45;&gt;Node3 -->
<g id="edge40_Node000028_Node000003" class="edge">
<title>Node28&#45;&gt;Node3</title>
<g id="a_edge40_Node000028_Node000003"><a xlink:title=" ">
<path fill="none" stroke="#63b8ff" d="M750.11,-274.74C741.23,-248.48 712.67,-168.63 675,-110 668.42,-99.76 659.58,-89.46 651.97,-81.36"/>
<polygon fill="#63b8ff" stroke="#63b8ff" points="654.39,-78.82 644.92,-74.07 649.36,-83.69 654.39,-78.82"/>
</a>
</g>
</g>
<!-- Node29 -->
<g id="Node000029" class="node">
<title>Node29</title>
<g id="a_Node000029"><a xlink:title=" ">
<polygon fill="#e0e0e0" stroke="#999999" points="805.5,-239 758.5,-239 758.5,-220 805.5,-220 805.5,-239"/>
<text text-anchor="middle" x="782" y="-227" font-family="Helvetica,sans-Serif" font-size="10.00">cmath</text>
</a>
</g>
</g>
<!-- Node28&#45;&gt;Node29 -->
<g id="edge41_Node000028_Node000029" class="edge">
<title>Node28&#45;&gt;Node29</title>
<g id="a_edge41_Node000028_Node000029"><a xlink:title=" ">
<path fill="none" stroke="#63b8ff" d="M757.79,-274.75C761.76,-267.49 767.53,-256.95 772.44,-247.98"/>
<polygon fill="#63b8ff" stroke="#63b8ff" points="775.57,-249.54 777.3,-239.09 769.43,-246.18 775.57,-249.54"/>
</a>
</g>
</g>
<!-- Node30 -->
<g id="Node000030" class="node">
<title>Node30</title>
<g id="a_Node000030"><a xlink:title=" ">
<polygon fill="#e0e0e0" stroke="#999999" points="868,-239 824,-239 824,-220 868,-220 868,-239"/>
<text text-anchor="middle" x="846" y="-227" font-family="Helvetica,sans-Serif" font-size="10.00">limits</text>
</a>
</g>
</g>
<!-- Node28&#45;&gt;Node30 -->
<g id="edge42_Node000028_Node000030" class="edge">
<title>Node28&#45;&gt;Node30</title>
<g id="a_edge42_Node000028_Node000030"><a xlink:title=" ">
<path fill="none" stroke="#63b8ff" d="M767.94,-274.98C782.5,-266.69 804.87,-253.94 821.94,-244.22"/>
<polygon fill="#63b8ff" stroke="#63b8ff" points="823.83,-247.16 830.79,-239.17 820.37,-241.08 823.83,-247.16"/>
</a>
</g>
</g>
</g>
</svg>
