<?xml version="1.0" encoding="UTF-8" standalone="no"?>
<!DOCTYPE svg PUBLIC "-//W3C//DTD SVG 1.1//EN"
 "http://www.w3.org/Graphics/SVG/1.1/DTD/svg11.dtd">
<!-- Generated by graphviz version 2.43.0 (0)
 -->
<!-- Title: App/Source/Mesh.cpp Pages: 1 -->
<svg width="1135pt" height="302pt"
 viewBox="0.00 0.00 1135.00 302.00" xmlns="http://www.w3.org/2000/svg" xmlns:xlink="http://www.w3.org/1999/xlink">
<g id="graph0" class="graph" transform="scale(1 1) rotate(0) translate(4 298)">
<title>App/Source/Mesh.cpp</title>
<!-- Node1 -->
<g id="Node000001" class="node">
<title>Node1</title>
<g id="a_Node000001"><a xlink:title=" ">
<polygon fill="#999999" stroke="#666666" points="819.5,-294 698.5,-294 698.5,-275 819.5,-275 819.5,-294"/>
<text text-anchor="middle" x="759" y="-282" font-family="Helvetica,sans-Serif" font-size="10.00">App/Source/Mesh.cpp</text>
</a>
</g>
</g>
<!-- Node2 -->
<g id="Node000002" class="node">
<title>Node2</title>
<g id="a_Node000002"><a xlink:href="Mesh_8h.html" target="_top" xlink:title=" ">
<polygon fill="white" stroke="#666666" points="599,-184 489,-184 489,-165 599,-165 599,-184"/>
<text text-anchor="middle" x="544" y="-172" font-family="Helvetica,sans-Serif" font-size="10.00">Application/Mesh.h</text>
</a>
</g>
</g>
<!-- Node1&#45;&gt;Node2 -->
<g id="edge1_Node000001_Node000002" class="edge">
<title>Node1&#45;&gt;Node2</title>
<g id="a_edge1_Node000001_Node000002"><a xlink:title=" ">
<path fill="none" stroke="#63b8ff" d="M735.39,-274.91C713.22,-266.57 679.3,-253.14 651,-239 620.53,-223.78 587.01,-203.22 565.75,-189.67"/>
<polygon fill="#63b8ff" stroke="#63b8ff" points="567.47,-186.62 557.16,-184.16 563.68,-192.51 567.47,-186.62"/>
</a>
</g>
</g>
<!-- Node21 -->
<g id="Node000021" class="node">
<title>Node21</title>
<g id="a_Node000021"><a xlink:href="ExtraDataType_8h.html" target="_top" xlink:title=" ">
<polygon fill="white" stroke="#666666" points="959.5,-184 804.5,-184 804.5,-165 959.5,-165 959.5,-184"/>
<text text-anchor="middle" x="882" y="-172" font-family="Helvetica,sans-Serif" font-size="10.00">Application/ExtraDataType.h</text>
</a>
</g>
</g>
<!-- Node1&#45;&gt;Node21 -->
<g id="edge21_Node000001_Node000021" class="edge">
<title>Node1&#45;&gt;Node21</title>
<g id="a_edge21_Node000001_Node000021"><a xlink:title=" ">
<path fill="none" stroke="#63b8ff" d="M767.87,-274.62C780.48,-262.1 804.46,-238.7 826,-220 837.84,-209.72 851.62,-198.76 862.55,-190.28"/>
<polygon fill="#63b8ff" stroke="#63b8ff" points="864.82,-192.96 870.61,-184.08 860.55,-187.41 864.82,-192.96"/>
</a>
</g>
</g>
<!-- Node23 -->
<g id="Node000023" class="node">
<title>Node23</title>
<g id="a_Node000023"><a xlink:href="PrimitiveProxy_8h.html" target="_top" xlink:title=" ">
<polygon fill="white" stroke="#666666" points="604,-239 450,-239 450,-220 604,-220 604,-239"/>
<text text-anchor="middle" x="527" y="-227" font-family="Helvetica,sans-Serif" font-size="10.00">Application/PrimitiveProxy.h</text>
</a>
</g>
</g>
<!-- Node1&#45;&gt;Node23 -->
<g id="edge26_Node000001_Node000023" class="edge">
<title>Node1&#45;&gt;Node23</title>
<g id="a_edge26_Node000001_Node000023"><a xlink:title=" ">
<path fill="none" stroke="#63b8ff" d="M721.73,-274.98C681.68,-265.84 617.93,-251.27 574.36,-241.32"/>
<polygon fill="#63b8ff" stroke="#63b8ff" points="575.1,-237.9 564.57,-239.08 573.54,-244.72 575.1,-237.9"/>
</a>
</g>
</g>
<!-- Node24 -->
<g id="Node000024" class="node">
<title>Node24</title>
<g id="a_Node000024"><a xlink:href="VertexPair_8h.html" target="_top" xlink:title=" ">
<polygon fill="white" stroke="#666666" points="1110,-184 978,-184 978,-165 1110,-165 1110,-184"/>
<text text-anchor="middle" x="1044" y="-172" font-family="Helvetica,sans-Serif" font-size="10.00">Application/VertexPair.h</text>
</a>
</g>
</g>
<!-- Node1&#45;&gt;Node24 -->
<g id="edge29_Node000001_Node000024" class="edge">
<title>Node1&#45;&gt;Node24</title>
<g id="a_edge29_Node000001_Node000024"><a xlink:title=" ">
<path fill="none" stroke="#63b8ff" d="M772.14,-274.82C797.12,-258.35 849.82,-223.89 859,-220 896.95,-203.92 941.85,-192.94 977.92,-185.91"/>
<polygon fill="#63b8ff" stroke="#63b8ff" points="978.66,-189.33 987.84,-184.03 977.36,-182.45 978.66,-189.33"/>
</a>
</g>
</g>
<!-- Node26 -->
<g id="Node000026" class="node">
<title>Node26</title>
<g id="a_Node000026"><a xlink:href="MathHelpers_8h.html" target="_top" xlink:title=" ">
<polygon fill="white" stroke="#666666" points="773.5,-239 660.5,-239 660.5,-220 773.5,-220 773.5,-239"/>
<text text-anchor="middle" x="717" y="-227" font-family="Helvetica,sans-Serif" font-size="10.00">Core/MathHelpers.h</text>
</a>
</g>
</g>
<!-- Node1&#45;&gt;Node26 -->
<g id="edge33_Node000001_Node000026" class="edge">
<title>Node1&#45;&gt;Node26</title>
<g id="a_edge33_Node000001_Node000026"><a xlink:title=" ">
<path fill="none" stroke="#63b8ff" d="M752.06,-274.75C746.13,-267.26 737.43,-256.28 730.18,-247.13"/>
<polygon fill="#63b8ff" stroke="#63b8ff" points="732.76,-244.75 723.81,-239.09 727.27,-249.1 732.76,-244.75"/>
</a>
</g>
</g>
<!-- Node29 -->
<g id="Node000029" class="node">
<title>Node29</title>
<g id="a_Node000029"><a xlink:title=" ">
<polygon fill="#e0e0e0" stroke="#999999" points="924,-239 868,-239 868,-220 924,-220 924,-239"/>
<text text-anchor="middle" x="896" y="-227" font-family="Helvetica,sans-Serif" font-size="10.00">numeric</text>
</a>
</g>
</g>
<!-- Node1&#45;&gt;Node29 -->
<g id="edge37_Node000001_Node000029" class="edge">
<title>Node1&#45;&gt;Node29</title>
<g id="a_edge37_Node000001_Node000029"><a xlink:title=" ">
<path fill="none" stroke="#63b8ff" d="M781.01,-274.98C803.45,-266.3 838.48,-252.75 863.99,-242.88"/>
<polygon fill="#63b8ff" stroke="#63b8ff" points="865.52,-246.04 873.59,-239.17 863,-239.51 865.52,-246.04"/>
</a>
</g>
</g>
<!-- Node3 -->
<g id="Node000003" class="node">
<title>Node3</title>
<g id="a_Node000003"><a xlink:href="ExtraDataContainer_8h.html" target="_top" xlink:title=" ">
<polygon fill="white" stroke="#666666" points="401.5,-129 222.5,-129 222.5,-110 401.5,-110 401.5,-129"/>
<text text-anchor="middle" x="312" y="-117" font-family="Helvetica,sans-Serif" font-size="10.00">Application/ExtraDataContainer.h</text>
</a>
</g>
</g>
<!-- Node2&#45;&gt;Node3 -->
<g id="edge2_Node000002_Node000003" class="edge">
<title>Node2&#45;&gt;Node3</title>
<g id="a_edge2_Node000002_Node000003"><a xlink:title=" ">
<path fill="none" stroke="#63b8ff" d="M506.73,-164.98C466.68,-155.84 402.93,-141.27 359.36,-131.32"/>
<polygon fill="#63b8ff" stroke="#63b8ff" points="360.1,-127.9 349.57,-129.08 358.54,-134.72 360.1,-127.9"/>
</a>
</g>
</g>
<!-- Node7 -->
<g id="Node000007" class="node">
<title>Node7</title>
<g id="a_Node000007"><a xlink:href="Primitive_8h.html" target="_top" xlink:title=" ">
<polygon fill="white" stroke="#666666" points="904,-129 776,-129 776,-110 904,-110 904,-129"/>
<text text-anchor="middle" x="840" y="-117" font-family="Helvetica,sans-Serif" font-size="10.00">Application/Primitive.h</text>
</a>
</g>
</g>
<!-- Node2&#45;&gt;Node7 -->
<g id="edge6_Node000002_Node000007" class="edge">
<title>Node2&#45;&gt;Node7</title>
<g id="a_edge6_Node000002_Node000007"><a xlink:title=" ">
<path fill="none" stroke="#63b8ff" d="M591.56,-164.98C643.4,-155.7 726.39,-140.84 782.01,-130.88"/>
<polygon fill="#63b8ff" stroke="#63b8ff" points="782.84,-134.29 792.07,-129.08 781.61,-127.4 782.84,-134.29"/>
</a>
</g>
</g>
<!-- Node8 -->
<g id="Node000008" class="node">
<title>Node8</title>
<g id="a_Node000008"><a xlink:href="BaseTypes_8h.html" target="_top" xlink:title=" ">
<polygon fill="white" stroke="#666666" points="699.5,-74 596.5,-74 596.5,-55 699.5,-55 699.5,-74"/>
<text text-anchor="middle" x="648" y="-62" font-family="Helvetica,sans-Serif" font-size="10.00">Core/BaseTypes.h</text>
</a>
</g>
</g>
<!-- Node2&#45;&gt;Node8 -->
<g id="edge18_Node000002_Node000008" class="edge">
<title>Node2&#45;&gt;Node8</title>
<g id="a_edge18_Node000002_Node000008"><a xlink:title=" ">
<path fill="none" stroke="#63b8ff" d="M544.5,-164.7C545.69,-151.44 549.68,-126.16 563,-110 575.05,-95.39 593.16,-84.98 609.57,-77.92"/>
<polygon fill="#63b8ff" stroke="#63b8ff" points="611,-81.12 618.98,-74.15 608.4,-74.62 611,-81.12"/>
</a>
</g>
</g>
<!-- Node19 -->
<g id="Node000019" class="node">
<title>Node19</title>
<g id="a_Node000019"><a xlink:title=" ">
<polygon fill="#e0e0e0" stroke="#999999" points="516,-129 458,-129 458,-110 516,-110 516,-129"/>
<text text-anchor="middle" x="487" y="-117" font-family="Helvetica,sans-Serif" font-size="10.00">memory</text>
</a>
</g>
</g>
<!-- Node2&#45;&gt;Node19 -->
<g id="edge19_Node000002_Node000019" class="edge">
<title>Node2&#45;&gt;Node19</title>
<g id="a_edge19_Node000002_Node000019"><a xlink:title=" ">
<path fill="none" stroke="#63b8ff" d="M534.84,-164.98C526.5,-157.23 513.97,-145.58 503.82,-136.14"/>
<polygon fill="#63b8ff" stroke="#63b8ff" points="506.03,-133.42 496.32,-129.17 501.26,-138.54 506.03,-133.42"/>
</a>
</g>
</g>
<!-- Node20 -->
<g id="Node000020" class="node">
<title>Node20</title>
<g id="a_Node000020"><a xlink:title=" ">
<polygon fill="#e0e0e0" stroke="#999999" points="619.5,-129 572.5,-129 572.5,-110 619.5,-110 619.5,-129"/>
<text text-anchor="middle" x="596" y="-117" font-family="Helvetica,sans-Serif" font-size="10.00">vector</text>
</a>
</g>
</g>
<!-- Node2&#45;&gt;Node20 -->
<g id="edge20_Node000002_Node000020" class="edge">
<title>Node2&#45;&gt;Node20</title>
<g id="a_edge20_Node000002_Node000020"><a xlink:title=" ">
<path fill="none" stroke="#63b8ff" d="M552.59,-164.75C560.16,-157.03 571.38,-145.6 580.51,-136.28"/>
<polygon fill="#63b8ff" stroke="#63b8ff" points="583.07,-138.68 587.57,-129.09 578.07,-133.78 583.07,-138.68"/>
</a>
</g>
</g>
<!-- Node4 -->
<g id="Node000004" class="node">
<title>Node4</title>
<g id="a_Node000004"><a xlink:title=" ">
<polygon fill="#e0e0e0" stroke="#999999" points="261.5,-74 226.5,-74 226.5,-55 261.5,-55 261.5,-74"/>
<text text-anchor="middle" x="244" y="-62" font-family="Helvetica,sans-Serif" font-size="10.00">any</text>
</a>
</g>
</g>
<!-- Node3&#45;&gt;Node4 -->
<g id="edge3_Node000003_Node000004" class="edge">
<title>Node3&#45;&gt;Node4</title>
<g id="a_edge3_Node000003_Node000004"><a xlink:title=" ">
<path fill="none" stroke="#63b8ff" d="M301.07,-109.98C290.92,-102.07 275.58,-90.11 263.35,-80.58"/>
<polygon fill="#63b8ff" stroke="#63b8ff" points="265.16,-77.56 255.12,-74.17 260.86,-83.08 265.16,-77.56"/>
</a>
</g>
</g>
<!-- Node5 -->
<g id="Node000005" class="node">
<title>Node5</title>
<g id="a_Node000005"><a xlink:title=" ">
<polygon fill="#e0e0e0" stroke="#999999" points="344.5,-74 279.5,-74 279.5,-55 344.5,-55 344.5,-74"/>
<text text-anchor="middle" x="312" y="-62" font-family="Helvetica,sans-Serif" font-size="10.00">typeindex</text>
</a>
</g>
</g>
<!-- Node3&#45;&gt;Node5 -->
<g id="edge4_Node000003_Node000005" class="edge">
<title>Node3&#45;&gt;Node5</title>
<g id="a_edge4_Node000003_Node000005"><a xlink:title=" ">
<path fill="none" stroke="#63b8ff" d="M312,-109.75C312,-102.8 312,-92.85 312,-84.13"/>
<polygon fill="#63b8ff" stroke="#63b8ff" points="315.5,-84.09 312,-74.09 308.5,-84.09 315.5,-84.09"/>
</a>
</g>
</g>
<!-- Node6 -->
<g id="Node000006" class="node">
<title>Node6</title>
<g id="a_Node000006"><a xlink:title=" ">
<polygon fill="#e0e0e0" stroke="#999999" points="455.5,-74 362.5,-74 362.5,-55 455.5,-55 455.5,-74"/>
<text text-anchor="middle" x="409" y="-62" font-family="Helvetica,sans-Serif" font-size="10.00">unordered_map</text>
</a>
</g>
</g>
<!-- Node3&#45;&gt;Node6 -->
<g id="edge5_Node000003_Node000006" class="edge">
<title>Node3&#45;&gt;Node6</title>
<g id="a_edge5_Node000003_Node000006"><a xlink:title=" ">
<path fill="none" stroke="#63b8ff" d="M327.58,-109.98C342.77,-101.69 366.1,-88.94 383.9,-79.22"/>
<polygon fill="#63b8ff" stroke="#63b8ff" points="386.03,-82.04 393.13,-74.17 382.68,-75.89 386.03,-82.04"/>
</a>
</g>
</g>
<!-- Node7&#45;&gt;Node8 -->
<g id="edge7_Node000007_Node000008" class="edge">
<title>Node7&#45;&gt;Node8</title>
<g id="a_edge7_Node000007_Node000008"><a xlink:title=" ">
<path fill="none" stroke="#63b8ff" d="M809.15,-109.98C776.5,-100.97 724.8,-86.7 688.8,-76.76"/>
<polygon fill="#63b8ff" stroke="#63b8ff" points="689.66,-73.37 679.09,-74.08 687.8,-80.12 689.66,-73.37"/>
</a>
</g>
</g>
<!-- Node18 -->
<g id="Node000018" class="node">
<title>Node18</title>
<g id="a_Node000018"><a xlink:title=" ">
<polygon fill="#e0e0e0" stroke="#999999" points="907,-74 865,-74 865,-55 907,-55 907,-74"/>
<text text-anchor="middle" x="886" y="-62" font-family="Helvetica,sans-Serif" font-size="10.00">array</text>
</a>
</g>
</g>
<!-- Node7&#45;&gt;Node18 -->
<g id="edge17_Node000007_Node000018" class="edge">
<title>Node7&#45;&gt;Node18</title>
<g id="a_edge17_Node000007_Node000018"><a xlink:title=" ">
<path fill="none" stroke="#63b8ff" d="M847.6,-109.75C854.16,-102.18 863.82,-91.05 871.81,-81.84"/>
<polygon fill="#63b8ff" stroke="#63b8ff" points="874.63,-83.94 878.55,-74.09 869.35,-79.35 874.63,-83.94"/>
</a>
</g>
</g>
<!-- Node9 -->
<g id="Node000009" class="node">
<title>Node9</title>
<g id="a_Node000009"><a xlink:title=" ">
<polygon fill="#e0e0e0" stroke="#999999" points="883,-19 805,-19 805,0 883,0 883,-19"/>
<text text-anchor="middle" x="844" y="-7" font-family="Helvetica,sans-Serif" font-size="10.00">glm/glm.hpp</text>
</a>
</g>
</g>
<!-- Node8&#45;&gt;Node9 -->
<g id="edge8_Node000008_Node000009" class="edge">
<title>Node8&#45;&gt;Node9</title>
<g id="a_edge8_Node000008_Node000009"><a xlink:title=" ">
<path fill="none" stroke="#63b8ff" d="M679.49,-54.98C712.82,-45.97 765.6,-31.7 802.35,-21.76"/>
<polygon fill="#63b8ff" stroke="#63b8ff" points="803.52,-25.07 812.26,-19.08 801.7,-18.31 803.52,-25.07"/>
</a>
</g>
</g>
<!-- Node10 -->
<g id="Node000010" class="node">
<title>Node10</title>
<g id="a_Node000010"><a xlink:title=" ">
<polygon fill="#e0e0e0" stroke="#999999" points="1064.5,-19 901.5,-19 901.5,0 1064.5,0 1064.5,-19"/>
<text text-anchor="middle" x="983" y="-7" font-family="Helvetica,sans-Serif" font-size="10.00">glm/gtc/matrix_transform.hpp</text>
</a>
</g>
</g>
<!-- Node8&#45;&gt;Node10 -->
<g id="edge9_Node000008_Node000010" class="edge">
<title>Node8&#45;&gt;Node10</title>
<g id="a_edge9_Node000008_Node000010"><a xlink:title=" ">
<path fill="none" stroke="#63b8ff" d="M699.61,-55.33C758.67,-45.99 855.43,-30.68 919.17,-20.6"/>
<polygon fill="#63b8ff" stroke="#63b8ff" points="919.78,-24.05 929.11,-19.03 918.69,-17.13 919.78,-24.05"/>
</a>
</g>
</g>
<!-- Node11 -->
<g id="Node000011" class="node">
<title>Node11</title>
<g id="a_Node000011"><a xlink:title=" ">
<polygon fill="#e0e0e0" stroke="#999999" points="130,-19 0,-19 0,0 130,0 130,-19"/>
<text text-anchor="middle" x="65" y="-7" font-family="Helvetica,sans-Serif" font-size="10.00">glm/gtc/quaternion.hpp</text>
</a>
</g>
</g>
<!-- Node8&#45;&gt;Node11 -->
<g id="edge10_Node000008_Node000011" class="edge">
<title>Node8&#45;&gt;Node11</title>
<g id="a_edge10_Node000008_Node000011"><a xlink:title=" ">
<path fill="none" stroke="#63b8ff" d="M596.3,-59.45C506.02,-52.27 313.53,-36.51 140.42,-19.12"/>
<polygon fill="#63b8ff" stroke="#63b8ff" points="140.66,-15.63 130.36,-18.1 139.96,-22.59 140.66,-15.63"/>
</a>
</g>
</g>
<!-- Node12 -->
<g id="Node000012" class="node">
<title>Node12</title>
<g id="a_Node000012"><a xlink:title=" ">
<polygon fill="#e0e0e0" stroke="#999999" points="265.5,-19 148.5,-19 148.5,0 265.5,0 265.5,-19"/>
<text text-anchor="middle" x="207" y="-7" font-family="Helvetica,sans-Serif" font-size="10.00">glm/gtc/type_ptr.hpp</text>
</a>
</g>
</g>
<!-- Node8&#45;&gt;Node12 -->
<g id="edge11_Node000008_Node000012" class="edge">
<title>Node8&#45;&gt;Node12</title>
<g id="a_edge11_Node000008_Node000012"><a xlink:title=" ">
<path fill="none" stroke="#63b8ff" d="M596.26,-57.47C526.04,-49.26 396.37,-34 275.96,-19.23"/>
<polygon fill="#63b8ff" stroke="#63b8ff" points="276.17,-15.73 265.82,-17.99 275.32,-22.68 276.17,-15.73"/>
</a>
</g>
</g>
<!-- Node13 -->
<g id="Node000013" class="node">
<title>Node13</title>
<g id="a_Node000013"><a xlink:title=" ">
<polygon fill="#e0e0e0" stroke="#999999" points="414.5,-19 283.5,-19 283.5,0 414.5,0 414.5,-19"/>
<text text-anchor="middle" x="349" y="-7" font-family="Helvetica,sans-Serif" font-size="10.00">glm/gtx/quaternion.hpp</text>
</a>
</g>
</g>
<!-- Node8&#45;&gt;Node13 -->
<g id="edge12_Node000008_Node000013" class="edge">
<title>Node8&#45;&gt;Node13</title>
<g id="a_edge12_Node000008_Node000013"><a xlink:title=" ">
<path fill="none" stroke="#63b8ff" d="M599.96,-54.98C547.59,-45.7 463.76,-30.84 407.57,-20.88"/>
<polygon fill="#63b8ff" stroke="#63b8ff" points="407.87,-17.38 397.42,-19.08 406.65,-24.27 407.87,-17.38"/>
</a>
</g>
</g>
<!-- Node14 -->
<g id="Node000014" class="node">
<title>Node14</title>
<g id="a_Node000014"><a xlink:title=" ">
<polygon fill="#e0e0e0" stroke="#999999" points="559,-19 433,-19 433,0 559,0 559,-19"/>
<text text-anchor="middle" x="496" y="-7" font-family="Helvetica,sans-Serif" font-size="10.00">glm/gtx/transform.hpp</text>
</a>
</g>
</g>
<!-- Node8&#45;&gt;Node14 -->
<g id="edge13_Node000008_Node000014" class="edge">
<title>Node8&#45;&gt;Node14</title>
<g id="a_edge13_Node000008_Node000014"><a xlink:title=" ">
<path fill="none" stroke="#63b8ff" d="M623.58,-54.98C598.28,-46.16 558.55,-32.31 530.14,-22.41"/>
<polygon fill="#63b8ff" stroke="#63b8ff" points="531.21,-19.07 520.61,-19.08 528.9,-25.68 531.21,-19.07"/>
</a>
</g>
</g>
<!-- Node15 -->
<g id="Node000015" class="node">
<title>Node15</title>
<g id="a_Node000015"><a xlink:title=" ">
<polygon fill="#e0e0e0" stroke="#999999" points="718.5,-19 577.5,-19 577.5,0 718.5,0 718.5,-19"/>
<text text-anchor="middle" x="648" y="-7" font-family="Helvetica,sans-Serif" font-size="10.00">glm/gtx/vector_angle.hpp</text>
</a>
</g>
</g>
<!-- Node8&#45;&gt;Node15 -->
<g id="edge14_Node000008_Node000015" class="edge">
<title>Node8&#45;&gt;Node15</title>
<g id="a_edge14_Node000008_Node000015"><a xlink:title=" ">
<path fill="none" stroke="#63b8ff" d="M648,-54.75C648,-47.8 648,-37.85 648,-29.13"/>
<polygon fill="#63b8ff" stroke="#63b8ff" points="651.5,-29.09 648,-19.09 644.5,-29.09 651.5,-29.09"/>
</a>
</g>
</g>
<!-- Node16 -->
<g id="Node000016" class="node">
<title>Node16</title>
<g id="a_Node000016"><a xlink:title=" ">
<polygon fill="#e0e0e0" stroke="#999999" points="1127,-19 1083,-19 1083,0 1127,0 1127,-19"/>
<text text-anchor="middle" x="1105" y="-7" font-family="Helvetica,sans-Serif" font-size="10.00">bitset</text>
</a>
</g>
</g>
<!-- Node8&#45;&gt;Node16 -->
<g id="edge15_Node000008_Node000016" class="edge">
<title>Node8&#45;&gt;Node16</title>
<g id="a_edge15_Node000008_Node000016"><a xlink:title=" ">
<path fill="none" stroke="#63b8ff" d="M699.54,-60.84C778.15,-56.19 932.8,-44.7 1072.7,-18.95"/>
<polygon fill="#63b8ff" stroke="#63b8ff" points="1073.56,-22.35 1082.75,-17.07 1072.28,-15.47 1073.56,-22.35"/>
</a>
</g>
</g>
<!-- Node17 -->
<g id="Node000017" class="node">
<title>Node17</title>
<g id="a_Node000017"><a xlink:title=" ">
<polygon fill="#e0e0e0" stroke="#999999" points="787,-19 737,-19 737,0 787,0 787,-19"/>
<text text-anchor="middle" x="762" y="-7" font-family="Helvetica,sans-Serif" font-size="10.00">cstdint</text>
</a>
</g>
</g>
<!-- Node8&#45;&gt;Node17 -->
<g id="edge16_Node000008_Node000017" class="edge">
<title>Node8&#45;&gt;Node17</title>
<g id="a_edge16_Node000008_Node000017"><a xlink:title=" ">
<path fill="none" stroke="#63b8ff" d="M666.32,-54.98C684.66,-46.46 713.11,-33.23 734.23,-23.41"/>
<polygon fill="#63b8ff" stroke="#63b8ff" points="735.76,-26.56 743.35,-19.17 732.81,-20.21 735.76,-26.56"/>
</a>
</g>
</g>
<!-- Node21&#45;&gt;Node8 -->
<g id="edge22_Node000021_Node000008" class="edge">
<title>Node21&#45;&gt;Node8</title>
<g id="a_edge22_Node000021_Node000008"><a xlink:title=" ">
<path fill="none" stroke="#63b8ff" d="M857.42,-164.96C833.89,-156.57 797.56,-143 767,-129 748.75,-120.64 701.57,-95 672.4,-78.97"/>
<polygon fill="#63b8ff" stroke="#63b8ff" points="674.07,-75.89 663.62,-74.14 670.69,-82.03 674.07,-75.89"/>
</a>
</g>
</g>
<!-- Node21&#45;&gt;Node18 -->
<g id="edge23_Node000021_Node000018" class="edge">
<title>Node21&#45;&gt;Node18</title>
<g id="a_edge23_Node000021_Node000018"><a xlink:title=" ">
<path fill="none" stroke="#63b8ff" d="M890.48,-164.85C898.05,-156.47 908.6,-143.01 913,-129 918.08,-112.81 909.28,-95.1 900.4,-82.51"/>
<polygon fill="#63b8ff" stroke="#63b8ff" points="902.98,-80.13 894.11,-74.33 897.43,-84.4 902.98,-80.13"/>
</a>
</g>
</g>
<!-- Node21&#45;&gt;Node20 -->
<g id="edge25_Node000021_Node000020" class="edge">
<title>Node21&#45;&gt;Node20</title>
<g id="a_edge25_Node000021_Node000020"><a xlink:title=" ">
<path fill="none" stroke="#63b8ff" d="M836.05,-164.98C778.29,-154.28 680.53,-136.16 629.41,-126.69"/>
<polygon fill="#63b8ff" stroke="#63b8ff" points="630.01,-123.24 619.54,-124.86 628.73,-130.13 630.01,-123.24"/>
</a>
</g>
</g>
<!-- Node22 -->
<g id="Node000022" class="node">
<title>Node22</title>
<g id="a_Node000022"><a xlink:title=" ">
<polygon fill="#e0e0e0" stroke="#999999" points="720,-129 676,-129 676,-110 720,-110 720,-129"/>
<text text-anchor="middle" x="698" y="-117" font-family="Helvetica,sans-Serif" font-size="10.00">string</text>
</a>
</g>
</g>
<!-- Node21&#45;&gt;Node22 -->
<g id="edge24_Node000021_Node000022" class="edge">
<title>Node21&#45;&gt;Node22</title>
<g id="a_edge24_Node000021_Node000022"><a xlink:title=" ">
<path fill="none" stroke="#63b8ff" d="M852.44,-164.98C819.02,-155.36 764.79,-139.74 730.29,-129.8"/>
<polygon fill="#63b8ff" stroke="#63b8ff" points="730.83,-126.32 720.26,-126.91 728.9,-133.04 730.83,-126.32"/>
</a>
</g>
</g>
<!-- Node23&#45;&gt;Node2 -->
<g id="edge27_Node000023_Node000002" class="edge">
<title>Node23&#45;&gt;Node2</title>
<g id="a_edge27_Node000023_Node000002"><a xlink:title=" ">
<path fill="none" stroke="#63b8ff" d="M529.81,-219.75C532.06,-212.72 535.3,-202.62 538.12,-193.84"/>
<polygon fill="#63b8ff" stroke="#63b8ff" points="541.52,-194.68 541.25,-184.09 534.86,-192.54 541.52,-194.68"/>
</a>
</g>
</g>
<!-- Node23&#45;&gt;Node8 -->
<g id="edge28_Node000023_Node000008" class="edge">
<title>Node23&#45;&gt;Node8</title>
<g id="a_edge28_Node000023_Node000008"><a xlink:title=" ">
<path fill="none" stroke="#63b8ff" d="M513.46,-219.79C483.79,-199.65 418.05,-148.64 449,-110 466.02,-88.76 534.37,-76.98 586.26,-70.96"/>
<polygon fill="#63b8ff" stroke="#63b8ff" points="586.85,-74.42 596.4,-69.83 586.08,-67.46 586.85,-74.42"/>
</a>
</g>
</g>
<!-- Node24&#45;&gt;Node7 -->
<g id="edge30_Node000024_Node000007" class="edge">
<title>Node24&#45;&gt;Node7</title>
<g id="a_edge30_Node000024_Node000007"><a xlink:title=" ">
<path fill="none" stroke="#63b8ff" d="M1011.22,-164.98C976.38,-155.93 921.13,-141.58 882.86,-131.64"/>
<polygon fill="#63b8ff" stroke="#63b8ff" points="883.59,-128.21 873.03,-129.08 881.83,-134.98 883.59,-128.21"/>
</a>
</g>
</g>
<!-- Node24&#45;&gt;Node16 -->
<g id="edge31_Node000024_Node000016" class="edge">
<title>Node24&#45;&gt;Node16</title>
<g id="a_edge31_Node000024_Node000016"><a xlink:title=" ">
<path fill="none" stroke="#63b8ff" d="M1055.25,-164.93C1065.04,-156.8 1078.77,-143.68 1086,-129 1101.98,-96.55 1105.03,-53.62 1105.33,-29.35"/>
<polygon fill="#63b8ff" stroke="#63b8ff" points="1108.83,-29.04 1105.3,-19.05 1101.83,-29.06 1108.83,-29.04"/>
</a>
</g>
</g>
<!-- Node25 -->
<g id="Node000025" class="node">
<title>Node25</title>
<g id="a_Node000025"><a xlink:title=" ">
<polygon fill="#e0e0e0" stroke="#999999" points="1076.5,-129 1011.5,-129 1011.5,-110 1076.5,-110 1076.5,-129"/>
<text text-anchor="middle" x="1044" y="-117" font-family="Helvetica,sans-Serif" font-size="10.00">stdexcept</text>
</a>
</g>
</g>
<!-- Node24&#45;&gt;Node25 -->
<g id="edge32_Node000024_Node000025" class="edge">
<title>Node24&#45;&gt;Node25</title>
<g id="a_edge32_Node000024_Node000025"><a xlink:title=" ">
<path fill="none" stroke="#63b8ff" d="M1044,-164.75C1044,-157.8 1044,-147.85 1044,-139.13"/>
<polygon fill="#63b8ff" stroke="#63b8ff" points="1047.5,-139.09 1044,-129.09 1040.5,-139.09 1047.5,-139.09"/>
</a>
</g>
</g>
<!-- Node26&#45;&gt;Node8 -->
<g id="edge34_Node000026_Node000008" class="edge">
<title>Node26&#45;&gt;Node8</title>
<g id="a_edge34_Node000026_Node000008"><a xlink:title=" ">
<path fill="none" stroke="#63b8ff" d="M702.69,-219.79C691.1,-211.94 675.38,-199.29 667,-184 649.54,-152.14 647.05,-108.7 647.24,-84.24"/>
<polygon fill="#63b8ff" stroke="#63b8ff" points="650.74,-84.25 647.48,-74.17 643.74,-84.08 650.74,-84.25"/>
</a>
</g>
</g>
<!-- Node27 -->
<g id="Node000027" class="node">
<title>Node27</title>
<g id="a_Node000027"><a xlink:title=" ">
<polygon fill="#e0e0e0" stroke="#999999" points="723.5,-184 676.5,-184 676.5,-165 723.5,-165 723.5,-184"/>
<text text-anchor="middle" x="700" y="-172" font-family="Helvetica,sans-Serif" font-size="10.00">cmath</text>
</a>
</g>
</g>
<!-- Node26&#45;&gt;Node27 -->
<g id="edge35_Node000026_Node000027" class="edge">
<title>Node26&#45;&gt;Node27</title>
<g id="a_edge35_Node000026_Node000027"><a xlink:title=" ">
<path fill="none" stroke="#63b8ff" d="M714.19,-219.75C711.94,-212.72 708.7,-202.62 705.88,-193.84"/>
<polygon fill="#63b8ff" stroke="#63b8ff" points="709.14,-192.54 702.75,-184.09 702.48,-194.68 709.14,-192.54"/>
</a>
</g>
</g>
<!-- Node28 -->
<g id="Node000028" class="node">
<title>Node28</title>
<g id="a_Node000028"><a xlink:title=" ">
<polygon fill="#e0e0e0" stroke="#999999" points="786,-184 742,-184 742,-165 786,-165 786,-184"/>
<text text-anchor="middle" x="764" y="-172" font-family="Helvetica,sans-Serif" font-size="10.00">limits</text>
</a>
</g>
</g>
<!-- Node26&#45;&gt;Node28 -->
<g id="edge36_Node000026_Node000028" class="edge">
<title>Node26&#45;&gt;Node28</title>
<g id="a_edge36_Node000026_Node000028"><a xlink:title=" ">
<path fill="none" stroke="#63b8ff" d="M724.76,-219.75C731.47,-212.18 741.34,-201.05 749.51,-191.84"/>
<polygon fill="#63b8ff" stroke="#63b8ff" points="752.37,-193.89 756.38,-184.09 747.13,-189.25 752.37,-193.89"/>
</a>
</g>
</g>
</g>
</svg>
