<?xml version="1.0" encoding="UTF-8" standalone="no"?>
<!DOCTYPE svg PUBLIC "-//W3C//DTD SVG 1.1//EN"
 "http://www.w3.org/Graphics/SVG/1.1/DTD/svg11.dtd">
<!-- Generated by graphviz version 2.43.0 (0)
 -->
<!-- Title: App/Test/Source/MeshLoader_utest.cpp Pages: 1 -->
<svg width="1135pt" height="313pt"
 viewBox="0.00 0.00 1135.00 313.00" xmlns="http://www.w3.org/2000/svg" xmlns:xlink="http://www.w3.org/1999/xlink">
<g id="graph0" class="graph" transform="scale(1 1) rotate(0) translate(4 309)">
<title>App/Test/Source/MeshLoader_utest.cpp</title>
<!-- Node1 -->
<g id="Node000001" class="node">
<title>Node1</title>
<g id="a_Node000001"><a xlink:title=" ">
<polygon fill="#999999" stroke="#666666" points="540,-305 384,-305 384,-275 540,-275 540,-305"/>
<text text-anchor="start" x="392" y="-293" font-family="Helvetica,sans-Serif" font-size="10.00">App/Test/Source/MeshLoader</text>
<text text-anchor="middle" x="462" y="-282" font-family="Helvetica,sans-Serif" font-size="10.00">_utest.cpp</text>
</a>
</g>
</g>
<!-- Node2 -->
<g id="Node000002" class="node">
<title>Node2</title>
<g id="a_Node000002"><a xlink:href="ExtraDataType_8h.html" target="_top" xlink:title=" ">
<polygon fill="white" stroke="#666666" points="322.5,-184 167.5,-184 167.5,-165 322.5,-165 322.5,-184"/>
<text text-anchor="middle" x="245" y="-172" font-family="Helvetica,sans-Serif" font-size="10.00">Application/ExtraDataType.h</text>
</a>
</g>
</g>
<!-- Node1&#45;&gt;Node2 -->
<g id="edge1_Node000001_Node000002" class="edge">
<title>Node1&#45;&gt;Node2</title>
<g id="a_edge1_Node000001_Node000002"><a xlink:title=" ">
<path fill="none" stroke="#63b8ff" d="M385.05,-274.94C356.44,-267.34 324.72,-255.92 299,-239 280.75,-227 265.25,-207.07 255.6,-192.74"/>
<polygon fill="#63b8ff" stroke="#63b8ff" points="258.5,-190.78 250.13,-184.27 252.61,-194.57 258.5,-190.78"/>
</a>
</g>
</g>
<!-- Node16 -->
<g id="Node000016" class="node">
<title>Node16</title>
<g id="a_Node000016"><a xlink:href="MeshIntegrity_8h.html" target="_top" xlink:title=" ">
<polygon fill="white" stroke="#666666" points="252.5,-239 103.5,-239 103.5,-220 252.5,-220 252.5,-239"/>
<text text-anchor="middle" x="178" y="-227" font-family="Helvetica,sans-Serif" font-size="10.00">Application/MeshIntegrity.h</text>
</a>
</g>
</g>
<!-- Node1&#45;&gt;Node16 -->
<g id="edge15_Node000001_Node000016" class="edge">
<title>Node1&#45;&gt;Node16</title>
<g id="a_edge15_Node000001_Node000016"><a xlink:title=" ">
<path fill="none" stroke="#63b8ff" d="M393.97,-274.99C343.48,-264.59 275.66,-250.62 229.59,-241.13"/>
<polygon fill="#63b8ff" stroke="#63b8ff" points="230.03,-237.64 219.53,-239.05 228.61,-244.5 230.03,-237.64"/>
</a>
</g>
</g>
<!-- Node24 -->
<g id="Node000024" class="node">
<title>Node24</title>
<g id="a_Node000024"><a xlink:href="MeshLoader_8h.html" target="_top" xlink:title=" ">
<polygon fill="white" stroke="#666666" points="450,-239 308,-239 308,-220 450,-220 450,-239"/>
<text text-anchor="middle" x="379" y="-227" font-family="Helvetica,sans-Serif" font-size="10.00">Application/MeshLoader.h</text>
</a>
</g>
</g>
<!-- Node1&#45;&gt;Node24 -->
<g id="edge28_Node000001_Node000024" class="edge">
<title>Node1&#45;&gt;Node24</title>
<g id="a_edge28_Node000001_Node000024"><a xlink:title=" ">
<path fill="none" stroke="#63b8ff" d="M441.91,-274.84C429.12,-265.83 412.6,-254.18 399.7,-245.09"/>
<polygon fill="#63b8ff" stroke="#63b8ff" points="401.63,-242.17 391.44,-239.27 397.59,-247.89 401.63,-242.17"/>
</a>
</g>
</g>
<!-- Node26 -->
<g id="Node000026" class="node">
<title>Node26</title>
<g id="a_Node000026"><a xlink:href="PrimitiveProxy_8h.html" target="_top" xlink:title=" ">
<polygon fill="white" stroke="#666666" points="622,-239 468,-239 468,-220 622,-220 622,-239"/>
<text text-anchor="middle" x="545" y="-227" font-family="Helvetica,sans-Serif" font-size="10.00">Application/PrimitiveProxy.h</text>
</a>
</g>
</g>
<!-- Node1&#45;&gt;Node26 -->
<g id="edge31_Node000001_Node000026" class="edge">
<title>Node1&#45;&gt;Node26</title>
<g id="a_edge31_Node000001_Node000026"><a xlink:title=" ">
<path fill="none" stroke="#63b8ff" d="M482.09,-274.84C494.88,-265.83 511.4,-254.18 524.3,-245.09"/>
<polygon fill="#63b8ff" stroke="#63b8ff" points="526.41,-247.89 532.56,-239.27 522.37,-242.17 526.41,-247.89"/>
</a>
</g>
</g>
<!-- Node27 -->
<g id="Node000027" class="node">
<title>Node27</title>
<g id="a_Node000027"><a xlink:href="MathHelpers_8h.html" target="_top" xlink:title=" ">
<polygon fill="white" stroke="#666666" points="753.5,-239 640.5,-239 640.5,-220 753.5,-220 753.5,-239"/>
<text text-anchor="middle" x="697" y="-227" font-family="Helvetica,sans-Serif" font-size="10.00">Core/MathHelpers.h</text>
</a>
</g>
</g>
<!-- Node1&#45;&gt;Node27 -->
<g id="edge34_Node000001_Node000027" class="edge">
<title>Node1&#45;&gt;Node27</title>
<g id="a_edge34_Node000001_Node000027"><a xlink:title=" ">
<path fill="none" stroke="#63b8ff" d="M518.29,-274.99C559.55,-264.72 614.78,-250.97 652.86,-241.49"/>
<polygon fill="#63b8ff" stroke="#63b8ff" points="653.78,-244.87 662.64,-239.05 652.09,-238.07 653.78,-244.87"/>
</a>
</g>
</g>
<!-- Node30 -->
<g id="Node000030" class="node">
<title>Node30</title>
<g id="a_Node000030"><a xlink:title=" ">
<polygon fill="#e0e0e0" stroke="#999999" points="850,-239 772,-239 772,-220 850,-220 850,-239"/>
<text text-anchor="middle" x="811" y="-227" font-family="Helvetica,sans-Serif" font-size="10.00">gtest/gtest.h</text>
</a>
</g>
</g>
<!-- Node1&#45;&gt;Node30 -->
<g id="edge38_Node000001_Node000030" class="edge">
<title>Node1&#45;&gt;Node30</title>
<g id="a_edge38_Node000001_Node000030"><a xlink:title=" ">
<path fill="none" stroke="#63b8ff" d="M540.31,-276.23C598.71,-266.65 680.72,-253.08 762.06,-239.15"/>
<polygon fill="#63b8ff" stroke="#63b8ff" points="762.71,-242.59 771.97,-237.45 761.53,-235.69 762.71,-242.59"/>
</a>
</g>
</g>
<!-- Node3 -->
<g id="Node000003" class="node">
<title>Node3</title>
<g id="a_Node000003"><a xlink:href="BaseTypes_8h.html" target="_top" xlink:title=" ">
<polygon fill="white" stroke="#666666" points="636.5,-74 533.5,-74 533.5,-55 636.5,-55 636.5,-74"/>
<text text-anchor="middle" x="585" y="-62" font-family="Helvetica,sans-Serif" font-size="10.00">Core/BaseTypes.h</text>
</a>
</g>
</g>
<!-- Node2&#45;&gt;Node3 -->
<g id="edge2_Node000002_Node000003" class="edge">
<title>Node2&#45;&gt;Node3</title>
<g id="a_edge2_Node000002_Node000003"><a xlink:title=" ">
<path fill="none" stroke="#63b8ff" d="M244.84,-164.98C245.09,-151.14 247.75,-123.93 264,-110 301.83,-77.55 441.05,-68.7 523.2,-66.33"/>
<polygon fill="#63b8ff" stroke="#63b8ff" points="523.51,-69.82 533.41,-66.06 523.32,-62.83 523.51,-69.82"/>
</a>
</g>
</g>
<!-- Node13 -->
<g id="Node000013" class="node">
<title>Node13</title>
<g id="a_Node000013"><a xlink:title=" ">
<polygon fill="#e0e0e0" stroke="#999999" points="326,-74 284,-74 284,-55 326,-55 326,-74"/>
<text text-anchor="middle" x="305" y="-62" font-family="Helvetica,sans-Serif" font-size="10.00">array</text>
</a>
</g>
</g>
<!-- Node2&#45;&gt;Node13 -->
<g id="edge12_Node000002_Node000013" class="edge">
<title>Node2&#45;&gt;Node13</title>
<g id="a_edge12_Node000002_Node000013"><a xlink:title=" ">
<path fill="none" stroke="#63b8ff" d="M239.39,-164.71C231.98,-151.9 221,-127.69 231,-110 240.29,-93.57 258.33,-82.54 274.28,-75.57"/>
<polygon fill="#63b8ff" stroke="#63b8ff" points="275.86,-78.71 283.84,-71.75 273.25,-72.21 275.86,-78.71"/>
</a>
</g>
</g>
<!-- Node14 -->
<g id="Node000014" class="node">
<title>Node14</title>
<g id="a_Node000014"><a xlink:title=" ">
<polygon fill="#e0e0e0" stroke="#999999" points="179,-129 135,-129 135,-110 179,-110 179,-129"/>
<text text-anchor="middle" x="157" y="-117" font-family="Helvetica,sans-Serif" font-size="10.00">string</text>
</a>
</g>
</g>
<!-- Node2&#45;&gt;Node14 -->
<g id="edge13_Node000002_Node000014" class="edge">
<title>Node2&#45;&gt;Node14</title>
<g id="a_edge13_Node000002_Node000014"><a xlink:title=" ">
<path fill="none" stroke="#63b8ff" d="M230.86,-164.98C217.21,-156.77 196.31,-144.18 180.22,-134.49"/>
<polygon fill="#63b8ff" stroke="#63b8ff" points="181.77,-131.33 171.4,-129.17 178.16,-137.33 181.77,-131.33"/>
</a>
</g>
</g>
<!-- Node15 -->
<g id="Node000015" class="node">
<title>Node15</title>
<g id="a_Node000015"><a xlink:title=" ">
<polygon fill="#e0e0e0" stroke="#999999" points="320.5,-129 273.5,-129 273.5,-110 320.5,-110 320.5,-129"/>
<text text-anchor="middle" x="297" y="-117" font-family="Helvetica,sans-Serif" font-size="10.00">vector</text>
</a>
</g>
</g>
<!-- Node2&#45;&gt;Node15 -->
<g id="edge14_Node000002_Node000015" class="edge">
<title>Node2&#45;&gt;Node15</title>
<g id="a_edge14_Node000002_Node000015"><a xlink:title=" ">
<path fill="none" stroke="#63b8ff" d="M253.59,-164.75C261.16,-157.03 272.38,-145.6 281.51,-136.28"/>
<polygon fill="#63b8ff" stroke="#63b8ff" points="284.07,-138.68 288.57,-129.09 279.07,-133.78 284.07,-138.68"/>
</a>
</g>
</g>
<!-- Node4 -->
<g id="Node000004" class="node">
<title>Node4</title>
<g id="a_Node000004"><a xlink:title=" ">
<polygon fill="#e0e0e0" stroke="#999999" points="1127,-19 1049,-19 1049,0 1127,0 1127,-19"/>
<text text-anchor="middle" x="1088" y="-7" font-family="Helvetica,sans-Serif" font-size="10.00">glm/glm.hpp</text>
</a>
</g>
</g>
<!-- Node3&#45;&gt;Node4 -->
<g id="edge3_Node000003_Node000004" class="edge">
<title>Node3&#45;&gt;Node4</title>
<g id="a_edge3_Node000003_Node000004"><a xlink:title=" ">
<path fill="none" stroke="#63b8ff" d="M636.69,-58.31C647.68,-57.21 659.23,-56.06 670,-55 831.21,-39.1 874.62,-41.33 1038.79,-19.07"/>
<polygon fill="#63b8ff" stroke="#63b8ff" points="1039.31,-22.53 1048.75,-17.71 1038.37,-15.59 1039.31,-22.53"/>
</a>
</g>
</g>
<!-- Node5 -->
<g id="Node000005" class="node">
<title>Node5</title>
<g id="a_Node000005"><a xlink:title=" ">
<polygon fill="#e0e0e0" stroke="#999999" points="231.5,-19 68.5,-19 68.5,0 231.5,0 231.5,-19"/>
<text text-anchor="middle" x="150" y="-7" font-family="Helvetica,sans-Serif" font-size="10.00">glm/gtc/matrix_transform.hpp</text>
</a>
</g>
</g>
<!-- Node3&#45;&gt;Node5 -->
<g id="edge4_Node000003_Node000005" class="edge">
<title>Node3&#45;&gt;Node5</title>
<g id="a_edge4_Node000003_Node000005"><a xlink:title=" ">
<path fill="none" stroke="#63b8ff" d="M533.39,-57.21C458.3,-48.06 318.27,-31 229.83,-20.23"/>
<polygon fill="#63b8ff" stroke="#63b8ff" points="230.19,-16.74 219.84,-19.01 229.34,-23.69 230.19,-16.74"/>
</a>
</g>
</g>
<!-- Node6 -->
<g id="Node000006" class="node">
<title>Node6</title>
<g id="a_Node000006"><a xlink:title=" ">
<polygon fill="#e0e0e0" stroke="#999999" points="380,-19 250,-19 250,0 380,0 380,-19"/>
<text text-anchor="middle" x="315" y="-7" font-family="Helvetica,sans-Serif" font-size="10.00">glm/gtc/quaternion.hpp</text>
</a>
</g>
</g>
<!-- Node3&#45;&gt;Node6 -->
<g id="edge5_Node000003_Node000006" class="edge">
<title>Node3&#45;&gt;Node6</title>
<g id="a_edge5_Node000003_Node000006"><a xlink:title=" ">
<path fill="none" stroke="#63b8ff" d="M541.62,-54.98C494.62,-45.76 419.57,-31.03 368.84,-21.07"/>
<polygon fill="#63b8ff" stroke="#63b8ff" points="369.21,-17.57 358.72,-19.08 367.86,-24.44 369.21,-17.57"/>
</a>
</g>
</g>
<!-- Node7 -->
<g id="Node000007" class="node">
<title>Node7</title>
<g id="a_Node000007"><a xlink:title=" ">
<polygon fill="#e0e0e0" stroke="#999999" points="515.5,-19 398.5,-19 398.5,0 515.5,0 515.5,-19"/>
<text text-anchor="middle" x="457" y="-7" font-family="Helvetica,sans-Serif" font-size="10.00">glm/gtc/type_ptr.hpp</text>
</a>
</g>
</g>
<!-- Node3&#45;&gt;Node7 -->
<g id="edge6_Node000003_Node000007" class="edge">
<title>Node3&#45;&gt;Node7</title>
<g id="a_edge6_Node000003_Node000007"><a xlink:title=" ">
<path fill="none" stroke="#63b8ff" d="M564.43,-54.98C543.57,-46.34 511.03,-32.87 487.23,-23.02"/>
<polygon fill="#63b8ff" stroke="#63b8ff" points="488.52,-19.76 477.94,-19.17 485.84,-26.23 488.52,-19.76"/>
</a>
</g>
</g>
<!-- Node8 -->
<g id="Node000008" class="node">
<title>Node8</title>
<g id="a_Node000008"><a xlink:title=" ">
<polygon fill="#e0e0e0" stroke="#999999" points="664.5,-19 533.5,-19 533.5,0 664.5,0 664.5,-19"/>
<text text-anchor="middle" x="599" y="-7" font-family="Helvetica,sans-Serif" font-size="10.00">glm/gtx/quaternion.hpp</text>
</a>
</g>
</g>
<!-- Node3&#45;&gt;Node8 -->
<g id="edge7_Node000003_Node000008" class="edge">
<title>Node3&#45;&gt;Node8</title>
<g id="a_edge7_Node000003_Node000008"><a xlink:title=" ">
<path fill="none" stroke="#63b8ff" d="M587.31,-54.75C589.17,-47.72 591.84,-37.62 594.15,-28.84"/>
<polygon fill="#63b8ff" stroke="#63b8ff" points="597.56,-29.65 596.73,-19.09 590.79,-27.86 597.56,-29.65"/>
</a>
</g>
</g>
<!-- Node9 -->
<g id="Node000009" class="node">
<title>Node9</title>
<g id="a_Node000009"><a xlink:title=" ">
<polygon fill="#e0e0e0" stroke="#999999" points="809,-19 683,-19 683,0 809,0 809,-19"/>
<text text-anchor="middle" x="746" y="-7" font-family="Helvetica,sans-Serif" font-size="10.00">glm/gtx/transform.hpp</text>
</a>
</g>
</g>
<!-- Node3&#45;&gt;Node9 -->
<g id="edge8_Node000003_Node000009" class="edge">
<title>Node3&#45;&gt;Node9</title>
<g id="a_edge8_Node000003_Node000009"><a xlink:title=" ">
<path fill="none" stroke="#63b8ff" d="M610.87,-54.98C637.78,-46.13 680.12,-32.19 710.23,-22.28"/>
<polygon fill="#63b8ff" stroke="#63b8ff" points="711.53,-25.53 719.93,-19.08 709.34,-18.88 711.53,-25.53"/>
</a>
</g>
</g>
<!-- Node10 -->
<g id="Node000010" class="node">
<title>Node10</title>
<g id="a_Node000010"><a xlink:title=" ">
<polygon fill="#e0e0e0" stroke="#999999" points="968.5,-19 827.5,-19 827.5,0 968.5,0 968.5,-19"/>
<text text-anchor="middle" x="898" y="-7" font-family="Helvetica,sans-Serif" font-size="10.00">glm/gtx/vector_angle.hpp</text>
</a>
</g>
</g>
<!-- Node3&#45;&gt;Node10 -->
<g id="edge9_Node000003_Node000010" class="edge">
<title>Node3&#45;&gt;Node10</title>
<g id="a_edge9_Node000003_Node000010"><a xlink:title=" ">
<path fill="none" stroke="#63b8ff" d="M635.29,-54.98C690.42,-45.65 778.85,-30.67 837.68,-20.71"/>
<polygon fill="#63b8ff" stroke="#63b8ff" points="838.3,-24.16 847.58,-19.04 837.13,-17.26 838.3,-24.16"/>
</a>
</g>
</g>
<!-- Node11 -->
<g id="Node000011" class="node">
<title>Node11</title>
<g id="a_Node000011"><a xlink:title=" ">
<polygon fill="#e0e0e0" stroke="#999999" points="1031,-19 987,-19 987,0 1031,0 1031,-19"/>
<text text-anchor="middle" x="1009" y="-7" font-family="Helvetica,sans-Serif" font-size="10.00">bitset</text>
</a>
</g>
</g>
<!-- Node3&#45;&gt;Node11 -->
<g id="edge10_Node000003_Node000011" class="edge">
<title>Node3&#45;&gt;Node11</title>
<g id="a_edge10_Node000003_Node000011"><a xlink:title=" ">
<path fill="none" stroke="#63b8ff" d="M636.85,-58.08C729.54,-48.33 918.73,-28.14 976.71,-18.81"/>
<polygon fill="#63b8ff" stroke="#63b8ff" points="977.5,-22.22 986.75,-17.05 976.29,-15.33 977.5,-22.22"/>
</a>
</g>
</g>
<!-- Node12 -->
<g id="Node000012" class="node">
<title>Node12</title>
<g id="a_Node000012"><a xlink:title=" ">
<polygon fill="#e0e0e0" stroke="#999999" points="50,-19 0,-19 0,0 50,0 50,-19"/>
<text text-anchor="middle" x="25" y="-7" font-family="Helvetica,sans-Serif" font-size="10.00">cstdint</text>
</a>
</g>
</g>
<!-- Node3&#45;&gt;Node12 -->
<g id="edge11_Node000003_Node000012" class="edge">
<title>Node3&#45;&gt;Node12</title>
<g id="a_edge11_Node000003_Node000012"><a xlink:title=" ">
<path fill="none" stroke="#63b8ff" d="M533.14,-61.87C440.16,-58.35 238.87,-48.02 60.26,-18.94"/>
<polygon fill="#63b8ff" stroke="#63b8ff" points="60.59,-15.44 50.16,-17.27 59.45,-22.35 60.59,-15.44"/>
</a>
</g>
</g>
<!-- Node16&#45;&gt;Node12 -->
<g id="edge27_Node000016_Node000012" class="edge">
<title>Node16&#45;&gt;Node12</title>
<g id="a_edge27_Node000016_Node000012"><a xlink:title=" ">
<path fill="none" stroke="#63b8ff" d="M172,-219.95C149.2,-187.47 67.67,-71.29 36.88,-27.43"/>
<polygon fill="#63b8ff" stroke="#63b8ff" points="39.73,-25.4 31.12,-19.22 34,-29.42 39.73,-25.4"/>
</a>
</g>
</g>
<!-- Node17 -->
<g id="Node000017" class="node">
<title>Node17</title>
<g id="a_Node000017"><a xlink:href="Mesh_8h.html" target="_top" xlink:title=" ">
<polygon fill="white" stroke="#666666" points="555,-184 445,-184 445,-165 555,-165 555,-184"/>
<text text-anchor="middle" x="500" y="-172" font-family="Helvetica,sans-Serif" font-size="10.00">Application/Mesh.h</text>
</a>
</g>
</g>
<!-- Node16&#45;&gt;Node17 -->
<g id="edge16_Node000016_Node000017" class="edge">
<title>Node16&#45;&gt;Node17</title>
<g id="a_edge16_Node000016_Node000017"><a xlink:title=" ">
<path fill="none" stroke="#63b8ff" d="M229.73,-219.98C286.45,-210.65 377.43,-195.67 437.94,-185.71"/>
<polygon fill="#63b8ff" stroke="#63b8ff" points="438.83,-189.12 448.13,-184.04 437.69,-182.21 438.83,-189.12"/>
</a>
</g>
</g>
<!-- Node17&#45;&gt;Node3 -->
<g id="edge24_Node000017_Node000003" class="edge">
<title>Node17&#45;&gt;Node3</title>
<g id="a_edge24_Node000017_Node000003"><a xlink:title=" ">
<path fill="none" stroke="#63b8ff" d="M512.77,-164.76C524.11,-156.52 540.62,-143.33 552,-129 562.97,-115.18 571.93,-97.15 577.73,-83.83"/>
<polygon fill="#63b8ff" stroke="#63b8ff" points="581.07,-84.91 581.68,-74.34 574.61,-82.22 581.07,-84.91"/>
</a>
</g>
</g>
<!-- Node17&#45;&gt;Node15 -->
<g id="edge26_Node000017_Node000015" class="edge">
<title>Node17&#45;&gt;Node15</title>
<g id="a_edge26_Node000017_Node000015"><a xlink:title=" ">
<path fill="none" stroke="#63b8ff" d="M467.38,-164.98C429.89,-155.2 368.65,-139.21 330.7,-129.3"/>
<polygon fill="#63b8ff" stroke="#63b8ff" points="331.22,-125.82 320.66,-126.68 329.45,-132.59 331.22,-125.82"/>
</a>
</g>
</g>
<!-- Node18 -->
<g id="Node000018" class="node">
<title>Node18</title>
<g id="a_Node000018"><a xlink:href="ExtraDataContainer_8h.html" target="_top" xlink:title=" ">
<polygon fill="white" stroke="#666666" points="854.5,-129 675.5,-129 675.5,-110 854.5,-110 854.5,-129"/>
<text text-anchor="middle" x="765" y="-117" font-family="Helvetica,sans-Serif" font-size="10.00">Application/ExtraDataContainer.h</text>
</a>
</g>
</g>
<!-- Node17&#45;&gt;Node18 -->
<g id="edge17_Node000017_Node000018" class="edge">
<title>Node17&#45;&gt;Node18</title>
<g id="a_edge17_Node000017_Node000018"><a xlink:title=" ">
<path fill="none" stroke="#63b8ff" d="M542.58,-164.98C588.7,-155.76 662.36,-141.03 712.16,-131.07"/>
<polygon fill="#63b8ff" stroke="#63b8ff" points="712.97,-134.48 722.09,-129.08 711.6,-127.61 712.97,-134.48"/>
</a>
</g>
</g>
<!-- Node22 -->
<g id="Node000022" class="node">
<title>Node22</title>
<g id="a_Node000022"><a xlink:href="Primitive_8h.html" target="_top" xlink:title=" ">
<polygon fill="white" stroke="#666666" points="467,-129 339,-129 339,-110 467,-110 467,-129"/>
<text text-anchor="middle" x="403" y="-117" font-family="Helvetica,sans-Serif" font-size="10.00">Application/Primitive.h</text>
</a>
</g>
</g>
<!-- Node17&#45;&gt;Node22 -->
<g id="edge21_Node000017_Node000022" class="edge">
<title>Node17&#45;&gt;Node22</title>
<g id="a_edge21_Node000017_Node000022"><a xlink:title=" ">
<path fill="none" stroke="#63b8ff" d="M484.42,-164.98C469.23,-156.69 445.9,-143.94 428.1,-134.22"/>
<polygon fill="#63b8ff" stroke="#63b8ff" points="429.32,-130.89 418.87,-129.17 425.97,-137.04 429.32,-130.89"/>
</a>
</g>
</g>
<!-- Node23 -->
<g id="Node000023" class="node">
<title>Node23</title>
<g id="a_Node000023"><a xlink:title=" ">
<polygon fill="#e0e0e0" stroke="#999999" points="543,-129 485,-129 485,-110 543,-110 543,-129"/>
<text text-anchor="middle" x="514" y="-117" font-family="Helvetica,sans-Serif" font-size="10.00">memory</text>
</a>
</g>
</g>
<!-- Node17&#45;&gt;Node23 -->
<g id="edge25_Node000017_Node000023" class="edge">
<title>Node17&#45;&gt;Node23</title>
<g id="a_edge25_Node000017_Node000023"><a xlink:title=" ">
<path fill="none" stroke="#63b8ff" d="M502.31,-164.75C504.17,-157.72 506.84,-147.62 509.15,-138.84"/>
<polygon fill="#63b8ff" stroke="#63b8ff" points="512.56,-139.65 511.73,-129.09 505.79,-137.86 512.56,-139.65"/>
</a>
</g>
</g>
<!-- Node19 -->
<g id="Node000019" class="node">
<title>Node19</title>
<g id="a_Node000019"><a xlink:title=" ">
<polygon fill="#e0e0e0" stroke="#999999" points="714.5,-74 679.5,-74 679.5,-55 714.5,-55 714.5,-74"/>
<text text-anchor="middle" x="697" y="-62" font-family="Helvetica,sans-Serif" font-size="10.00">any</text>
</a>
</g>
</g>
<!-- Node18&#45;&gt;Node19 -->
<g id="edge18_Node000018_Node000019" class="edge">
<title>Node18&#45;&gt;Node19</title>
<g id="a_edge18_Node000018_Node000019"><a xlink:title=" ">
<path fill="none" stroke="#63b8ff" d="M754.07,-109.98C743.92,-102.07 728.58,-90.11 716.35,-80.58"/>
<polygon fill="#63b8ff" stroke="#63b8ff" points="718.16,-77.56 708.12,-74.17 713.86,-83.08 718.16,-77.56"/>
</a>
</g>
</g>
<!-- Node20 -->
<g id="Node000020" class="node">
<title>Node20</title>
<g id="a_Node000020"><a xlink:title=" ">
<polygon fill="#e0e0e0" stroke="#999999" points="797.5,-74 732.5,-74 732.5,-55 797.5,-55 797.5,-74"/>
<text text-anchor="middle" x="765" y="-62" font-family="Helvetica,sans-Serif" font-size="10.00">typeindex</text>
</a>
</g>
</g>
<!-- Node18&#45;&gt;Node20 -->
<g id="edge19_Node000018_Node000020" class="edge">
<title>Node18&#45;&gt;Node20</title>
<g id="a_edge19_Node000018_Node000020"><a xlink:title=" ">
<path fill="none" stroke="#63b8ff" d="M765,-109.75C765,-102.8 765,-92.85 765,-84.13"/>
<polygon fill="#63b8ff" stroke="#63b8ff" points="768.5,-84.09 765,-74.09 761.5,-84.09 768.5,-84.09"/>
</a>
</g>
</g>
<!-- Node21 -->
<g id="Node000021" class="node">
<title>Node21</title>
<g id="a_Node000021"><a xlink:title=" ">
<polygon fill="#e0e0e0" stroke="#999999" points="908.5,-74 815.5,-74 815.5,-55 908.5,-55 908.5,-74"/>
<text text-anchor="middle" x="862" y="-62" font-family="Helvetica,sans-Serif" font-size="10.00">unordered_map</text>
</a>
</g>
</g>
<!-- Node18&#45;&gt;Node21 -->
<g id="edge20_Node000018_Node000021" class="edge">
<title>Node18&#45;&gt;Node21</title>
<g id="a_edge20_Node000018_Node000021"><a xlink:title=" ">
<path fill="none" stroke="#63b8ff" d="M780.58,-109.98C795.77,-101.69 819.1,-88.94 836.9,-79.22"/>
<polygon fill="#63b8ff" stroke="#63b8ff" points="839.03,-82.04 846.13,-74.17 835.68,-75.89 839.03,-82.04"/>
</a>
</g>
</g>
<!-- Node22&#45;&gt;Node3 -->
<g id="edge22_Node000022_Node000003" class="edge">
<title>Node22&#45;&gt;Node3</title>
<g id="a_edge22_Node000022_Node000003"><a xlink:title=" ">
<path fill="none" stroke="#63b8ff" d="M432.24,-109.98C463.06,-101.01 511.78,-86.82 545.89,-76.89"/>
<polygon fill="#63b8ff" stroke="#63b8ff" points="546.91,-80.24 555.53,-74.08 544.95,-73.52 546.91,-80.24"/>
</a>
</g>
</g>
<!-- Node22&#45;&gt;Node13 -->
<g id="edge23_Node000022_Node000013" class="edge">
<title>Node22&#45;&gt;Node13</title>
<g id="a_edge23_Node000022_Node000013"><a xlink:title=" ">
<path fill="none" stroke="#63b8ff" d="M387.25,-109.98C371.77,-101.61 347.91,-88.7 329.86,-78.95"/>
<polygon fill="#63b8ff" stroke="#63b8ff" points="331.49,-75.85 321.03,-74.17 328.16,-82.01 331.49,-75.85"/>
</a>
</g>
</g>
<!-- Node24&#45;&gt;Node17 -->
<g id="edge29_Node000024_Node000017" class="edge">
<title>Node24&#45;&gt;Node17</title>
<g id="a_edge29_Node000024_Node000017"><a xlink:title=" ">
<path fill="none" stroke="#63b8ff" d="M398.44,-219.98C417.99,-211.42 448.38,-198.11 470.82,-188.28"/>
<polygon fill="#63b8ff" stroke="#63b8ff" points="472.45,-191.39 480.21,-184.17 469.64,-184.98 472.45,-191.39"/>
</a>
</g>
</g>
<!-- Node25 -->
<g id="Node000025" class="node">
<title>Node25</title>
<g id="a_Node000025"><a xlink:title=" ">
<polygon fill="#e0e0e0" stroke="#999999" points="413,-184 345,-184 345,-165 413,-165 413,-184"/>
<text text-anchor="middle" x="379" y="-172" font-family="Helvetica,sans-Serif" font-size="10.00">filesystem</text>
</a>
</g>
</g>
<!-- Node24&#45;&gt;Node25 -->
<g id="edge30_Node000024_Node000025" class="edge">
<title>Node24&#45;&gt;Node25</title>
<g id="a_edge30_Node000024_Node000025"><a xlink:title=" ">
<path fill="none" stroke="#63b8ff" d="M379,-219.75C379,-212.8 379,-202.85 379,-194.13"/>
<polygon fill="#63b8ff" stroke="#63b8ff" points="382.5,-194.09 379,-184.09 375.5,-194.09 382.5,-194.09"/>
</a>
</g>
</g>
<!-- Node26&#45;&gt;Node3 -->
<g id="edge33_Node000026_Node000003" class="edge">
<title>Node26&#45;&gt;Node3</title>
<g id="a_edge33_Node000026_Node000003"><a xlink:title=" ">
<path fill="none" stroke="#63b8ff" d="M549.39,-219.85C553.7,-211.04 560.16,-196.88 564,-184 574.25,-149.58 580.2,-107.97 583.01,-84.33"/>
<polygon fill="#63b8ff" stroke="#63b8ff" points="586.5,-84.61 584.14,-74.28 579.54,-83.83 586.5,-84.61"/>
</a>
</g>
</g>
<!-- Node26&#45;&gt;Node17 -->
<g id="edge32_Node000026_Node000017" class="edge">
<title>Node26&#45;&gt;Node17</title>
<g id="a_edge32_Node000026_Node000017"><a xlink:title=" ">
<path fill="none" stroke="#63b8ff" d="M537.57,-219.75C531.15,-212.18 521.69,-201.05 513.88,-191.84"/>
<polygon fill="#63b8ff" stroke="#63b8ff" points="516.43,-189.45 507.29,-184.09 511.1,-193.98 516.43,-189.45"/>
</a>
</g>
</g>
<!-- Node27&#45;&gt;Node3 -->
<g id="edge35_Node000027_Node000003" class="edge">
<title>Node27&#45;&gt;Node3</title>
<g id="a_edge35_Node000027_Node000003"><a xlink:title=" ">
<path fill="none" stroke="#63b8ff" d="M691.03,-219.98C684.78,-211.04 674.66,-196.55 666,-184 641.12,-147.95 612.22,-105.53 596.55,-82.49"/>
<polygon fill="#63b8ff" stroke="#63b8ff" points="599.39,-80.44 590.87,-74.14 593.6,-84.38 599.39,-80.44"/>
</a>
</g>
</g>
<!-- Node28 -->
<g id="Node000028" class="node">
<title>Node28</title>
<g id="a_Node000028"><a xlink:title=" ">
<polygon fill="#e0e0e0" stroke="#999999" points="784.5,-184 737.5,-184 737.5,-165 784.5,-165 784.5,-184"/>
<text text-anchor="middle" x="761" y="-172" font-family="Helvetica,sans-Serif" font-size="10.00">cmath</text>
</a>
</g>
</g>
<!-- Node27&#45;&gt;Node28 -->
<g id="edge36_Node000027_Node000028" class="edge">
<title>Node27&#45;&gt;Node28</title>
<g id="a_edge36_Node000027_Node000028"><a xlink:title=" ">
<path fill="none" stroke="#63b8ff" d="M707.28,-219.98C716.84,-212.07 731.28,-200.11 742.78,-190.58"/>
<polygon fill="#63b8ff" stroke="#63b8ff" points="745.06,-193.24 750.53,-184.17 740.6,-187.85 745.06,-193.24"/>
</a>
</g>
</g>
<!-- Node29 -->
<g id="Node000029" class="node">
<title>Node29</title>
<g id="a_Node000029"><a xlink:title=" ">
<polygon fill="#e0e0e0" stroke="#999999" points="719,-184 675,-184 675,-165 719,-165 719,-184"/>
<text text-anchor="middle" x="697" y="-172" font-family="Helvetica,sans-Serif" font-size="10.00">limits</text>
</a>
</g>
</g>
<!-- Node27&#45;&gt;Node29 -->
<g id="edge37_Node000027_Node000029" class="edge">
<title>Node27&#45;&gt;Node29</title>
<g id="a_edge37_Node000027_Node000029"><a xlink:title=" ">
<path fill="none" stroke="#63b8ff" d="M697,-219.75C697,-212.8 697,-202.85 697,-194.13"/>
<polygon fill="#63b8ff" stroke="#63b8ff" points="700.5,-194.09 697,-184.09 693.5,-194.09 700.5,-194.09"/>
</a>
</g>
</g>
</g>
</svg>
