<?xml version="1.0" encoding="UTF-8" standalone="no"?>
<!DOCTYPE svg PUBLIC "-//W3C//DTD SVG 1.1//EN"
 "http://www.w3.org/Graphics/SVG/1.1/DTD/svg11.dtd">
<!-- Generated by graphviz version 2.43.0 (0)
 -->
<!-- Title: App/Include/Application/MeshExporter.h Pages: 1 -->
<svg width="1135pt" height="258pt"
 viewBox="0.00 0.00 1134.50 258.00" xmlns="http://www.w3.org/2000/svg" xmlns:xlink="http://www.w3.org/1999/xlink">
<g id="graph0" class="graph" transform="scale(1 1) rotate(0) translate(4 254)">
<title>App/Include/Application/MeshExporter.h</title>
<!-- Node1 -->
<g id="Node000001" class="node">
<title>Node1</title>
<g id="a_Node000001"><a xlink:title=" ">
<polygon fill="#999999" stroke="#666666" points="879,-250 748,-250 748,-220 879,-220 879,-250"/>
<text text-anchor="start" x="756" y="-238" font-family="Helvetica,sans-Serif" font-size="10.00">App/Include/Application</text>
<text text-anchor="middle" x="813.5" y="-227" font-family="Helvetica,sans-Serif" font-size="10.00">/MeshExporter.h</text>
</a>
</g>
</g>
<!-- Node2 -->
<g id="Node000002" class="node">
<title>Node2</title>
<g id="a_Node000002"><a xlink:href="Mesh_8h.html" target="_top" xlink:title=" ">
<polygon fill="white" stroke="#666666" points="665.5,-184 555.5,-184 555.5,-165 665.5,-165 665.5,-184"/>
<text text-anchor="middle" x="610.5" y="-172" font-family="Helvetica,sans-Serif" font-size="10.00">Application/Mesh.h</text>
</a>
</g>
</g>
<!-- Node1&#45;&gt;Node2 -->
<g id="edge1_Node000001_Node000002" class="edge">
<title>Node1&#45;&gt;Node2</title>
<g id="a_edge1_Node000001_Node000002"><a xlink:title=" ">
<path fill="none" stroke="#63b8ff" d="M764.88,-219.99C729.69,-209.85 682.74,-196.32 649.9,-186.85"/>
<polygon fill="#63b8ff" stroke="#63b8ff" points="650.76,-183.46 640.18,-184.05 648.82,-190.19 650.76,-183.46"/>
</a>
</g>
</g>
<!-- Node8 -->
<g id="Node000008" class="node">
<title>Node8</title>
<g id="a_Node000008"><a xlink:href="BaseTypes_8h.html" target="_top" xlink:title=" ">
<polygon fill="white" stroke="#666666" points="805,-74 702,-74 702,-55 805,-55 805,-74"/>
<text text-anchor="middle" x="753.5" y="-62" font-family="Helvetica,sans-Serif" font-size="10.00">Core/BaseTypes.h</text>
</a>
</g>
</g>
<!-- Node1&#45;&gt;Node8 -->
<g id="edge21_Node000001_Node000008" class="edge">
<title>Node1&#45;&gt;Node8</title>
<g id="a_edge21_Node000001_Node000008"><a xlink:title=" ">
<path fill="none" stroke="#63b8ff" d="M808.49,-219.92C797.66,-189.52 772.1,-117.73 760.03,-83.83"/>
<polygon fill="#63b8ff" stroke="#63b8ff" points="763.27,-82.5 756.62,-74.25 756.67,-84.85 763.27,-82.5"/>
</a>
</g>
</g>
<!-- Node17 -->
<g id="Node000017" class="node">
<title>Node17</title>
<g id="a_Node000017"><a xlink:title=" ">
<polygon fill="#e0e0e0" stroke="#999999" points="1126.5,-19 1076.5,-19 1076.5,0 1126.5,0 1126.5,-19"/>
<text text-anchor="middle" x="1101.5" y="-7" font-family="Helvetica,sans-Serif" font-size="10.00">cstdint</text>
</a>
</g>
</g>
<!-- Node1&#45;&gt;Node17 -->
<g id="edge22_Node000001_Node000017" class="edge">
<title>Node1&#45;&gt;Node17</title>
<g id="a_edge22_Node000001_Node000017"><a xlink:title=" ">
<path fill="none" stroke="#63b8ff" d="M818.94,-219.98C825.26,-205.02 836.87,-181.28 852.5,-165 918.39,-96.36 1020.91,-45.55 1071.37,-23.15"/>
<polygon fill="#63b8ff" stroke="#63b8ff" points="1072.98,-26.27 1080.74,-19.06 1070.17,-19.85 1072.98,-26.27"/>
</a>
</g>
</g>
<!-- Node21 -->
<g id="Node000021" class="node">
<title>Node21</title>
<g id="a_Node000021"><a xlink:title=" ">
<polygon fill="#e0e0e0" stroke="#999999" points="929.5,-184 861.5,-184 861.5,-165 929.5,-165 929.5,-184"/>
<text text-anchor="middle" x="895.5" y="-172" font-family="Helvetica,sans-Serif" font-size="10.00">filesystem</text>
</a>
</g>
</g>
<!-- Node1&#45;&gt;Node21 -->
<g id="edge23_Node000001_Node000021" class="edge">
<title>Node1&#45;&gt;Node21</title>
<g id="a_edge23_Node000001_Node000021"><a xlink:title=" ">
<path fill="none" stroke="#63b8ff" d="M833.35,-219.84C845.98,-210.83 862.3,-199.18 875.05,-190.09"/>
<polygon fill="#63b8ff" stroke="#63b8ff" points="877.1,-192.92 883.21,-184.27 873.04,-187.22 877.1,-192.92"/>
</a>
</g>
</g>
<!-- Node3 -->
<g id="Node000003" class="node">
<title>Node3</title>
<g id="a_Node000003"><a xlink:href="ExtraDataContainer_8h.html" target="_top" xlink:title=" ">
<polygon fill="white" stroke="#666666" points="439,-129 260,-129 260,-110 439,-110 439,-129"/>
<text text-anchor="middle" x="349.5" y="-117" font-family="Helvetica,sans-Serif" font-size="10.00">Application/ExtraDataContainer.h</text>
</a>
</g>
</g>
<!-- Node2&#45;&gt;Node3 -->
<g id="edge2_Node000002_Node000003" class="edge">
<title>Node2&#45;&gt;Node3</title>
<g id="a_edge2_Node000002_Node000003"><a xlink:title=" ">
<path fill="none" stroke="#63b8ff" d="M568.57,-164.98C523.23,-155.78 450.89,-141.09 401.85,-131.13"/>
<polygon fill="#63b8ff" stroke="#63b8ff" points="402.26,-127.64 391.76,-129.08 400.87,-134.5 402.26,-127.64"/>
</a>
</g>
</g>
<!-- Node7 -->
<g id="Node000007" class="node">
<title>Node7</title>
<g id="a_Node000007"><a xlink:href="Primitive_8h.html" target="_top" xlink:title=" ">
<polygon fill="white" stroke="#666666" points="727.5,-129 599.5,-129 599.5,-110 727.5,-110 727.5,-129"/>
<text text-anchor="middle" x="663.5" y="-117" font-family="Helvetica,sans-Serif" font-size="10.00">Application/Primitive.h</text>
</a>
</g>
</g>
<!-- Node2&#45;&gt;Node7 -->
<g id="edge6_Node000002_Node000007" class="edge">
<title>Node2&#45;&gt;Node7</title>
<g id="a_edge6_Node000002_Node000007"><a xlink:title=" ">
<path fill="none" stroke="#63b8ff" d="M619.25,-164.75C626.97,-157.03 638.4,-145.6 647.72,-136.28"/>
<polygon fill="#63b8ff" stroke="#63b8ff" points="650.31,-138.64 654.91,-129.09 645.36,-133.69 650.31,-138.64"/>
</a>
</g>
</g>
<!-- Node2&#45;&gt;Node8 -->
<g id="edge18_Node000002_Node000008" class="edge">
<title>Node2&#45;&gt;Node8</title>
<g id="a_edge18_Node000002_Node000008"><a xlink:title=" ">
<path fill="none" stroke="#63b8ff" d="M665.62,-165.93C690.4,-159.84 718.15,-148.84 736.5,-129 747.64,-116.96 751.63,-98.42 752.99,-84.47"/>
<polygon fill="#63b8ff" stroke="#63b8ff" points="756.5,-84.28 753.61,-74.09 749.52,-83.86 756.5,-84.28"/>
</a>
</g>
</g>
<!-- Node19 -->
<g id="Node000019" class="node">
<title>Node19</title>
<g id="a_Node000019"><a xlink:title=" ">
<polygon fill="#e0e0e0" stroke="#999999" points="515.5,-129 457.5,-129 457.5,-110 515.5,-110 515.5,-129"/>
<text text-anchor="middle" x="486.5" y="-117" font-family="Helvetica,sans-Serif" font-size="10.00">memory</text>
</a>
</g>
</g>
<!-- Node2&#45;&gt;Node19 -->
<g id="edge19_Node000002_Node000019" class="edge">
<title>Node2&#45;&gt;Node19</title>
<g id="a_edge19_Node000002_Node000019"><a xlink:title=" ">
<path fill="none" stroke="#63b8ff" d="M590.58,-164.98C570.45,-156.38 539.12,-142.99 516.09,-133.15"/>
<polygon fill="#63b8ff" stroke="#63b8ff" points="517.36,-129.88 506.79,-129.17 514.6,-136.32 517.36,-129.88"/>
</a>
</g>
</g>
<!-- Node20 -->
<g id="Node000020" class="node">
<title>Node20</title>
<g id="a_Node000020"><a xlink:title=" ">
<polygon fill="#e0e0e0" stroke="#999999" points="581,-129 534,-129 534,-110 581,-110 581,-129"/>
<text text-anchor="middle" x="557.5" y="-117" font-family="Helvetica,sans-Serif" font-size="10.00">vector</text>
</a>
</g>
</g>
<!-- Node2&#45;&gt;Node20 -->
<g id="edge20_Node000002_Node000020" class="edge">
<title>Node2&#45;&gt;Node20</title>
<g id="a_edge20_Node000002_Node000020"><a xlink:title=" ">
<path fill="none" stroke="#63b8ff" d="M601.75,-164.75C594.03,-157.03 582.6,-145.6 573.28,-136.28"/>
<polygon fill="#63b8ff" stroke="#63b8ff" points="575.64,-133.69 566.09,-129.09 570.69,-138.64 575.64,-133.69"/>
</a>
</g>
</g>
<!-- Node4 -->
<g id="Node000004" class="node">
<title>Node4</title>
<g id="a_Node000004"><a xlink:title=" ">
<polygon fill="#e0e0e0" stroke="#999999" points="299,-74 264,-74 264,-55 299,-55 299,-74"/>
<text text-anchor="middle" x="281.5" y="-62" font-family="Helvetica,sans-Serif" font-size="10.00">any</text>
</a>
</g>
</g>
<!-- Node3&#45;&gt;Node4 -->
<g id="edge3_Node000003_Node000004" class="edge">
<title>Node3&#45;&gt;Node4</title>
<g id="a_edge3_Node000003_Node000004"><a xlink:title=" ">
<path fill="none" stroke="#63b8ff" d="M338.57,-109.98C328.42,-102.07 313.08,-90.11 300.85,-80.58"/>
<polygon fill="#63b8ff" stroke="#63b8ff" points="302.66,-77.56 292.62,-74.17 298.36,-83.08 302.66,-77.56"/>
</a>
</g>
</g>
<!-- Node5 -->
<g id="Node000005" class="node">
<title>Node5</title>
<g id="a_Node000005"><a xlink:title=" ">
<polygon fill="#e0e0e0" stroke="#999999" points="382,-74 317,-74 317,-55 382,-55 382,-74"/>
<text text-anchor="middle" x="349.5" y="-62" font-family="Helvetica,sans-Serif" font-size="10.00">typeindex</text>
</a>
</g>
</g>
<!-- Node3&#45;&gt;Node5 -->
<g id="edge4_Node000003_Node000005" class="edge">
<title>Node3&#45;&gt;Node5</title>
<g id="a_edge4_Node000003_Node000005"><a xlink:title=" ">
<path fill="none" stroke="#63b8ff" d="M349.5,-109.75C349.5,-102.8 349.5,-92.85 349.5,-84.13"/>
<polygon fill="#63b8ff" stroke="#63b8ff" points="353,-84.09 349.5,-74.09 346,-84.09 353,-84.09"/>
</a>
</g>
</g>
<!-- Node6 -->
<g id="Node000006" class="node">
<title>Node6</title>
<g id="a_Node000006"><a xlink:title=" ">
<polygon fill="#e0e0e0" stroke="#999999" points="493,-74 400,-74 400,-55 493,-55 493,-74"/>
<text text-anchor="middle" x="446.5" y="-62" font-family="Helvetica,sans-Serif" font-size="10.00">unordered_map</text>
</a>
</g>
</g>
<!-- Node3&#45;&gt;Node6 -->
<g id="edge5_Node000003_Node000006" class="edge">
<title>Node3&#45;&gt;Node6</title>
<g id="a_edge5_Node000003_Node000006"><a xlink:title=" ">
<path fill="none" stroke="#63b8ff" d="M365.08,-109.98C380.27,-101.69 403.6,-88.94 421.4,-79.22"/>
<polygon fill="#63b8ff" stroke="#63b8ff" points="423.53,-82.04 430.63,-74.17 420.18,-75.89 423.53,-82.04"/>
</a>
</g>
</g>
<!-- Node7&#45;&gt;Node8 -->
<g id="edge7_Node000007_Node000008" class="edge">
<title>Node7&#45;&gt;Node8</title>
<g id="a_edge7_Node000007_Node000008"><a xlink:title=" ">
<path fill="none" stroke="#63b8ff" d="M677.96,-109.98C691.92,-101.77 713.29,-89.18 729.75,-79.49"/>
<polygon fill="#63b8ff" stroke="#63b8ff" points="731.94,-82.26 738.78,-74.17 728.38,-76.23 731.94,-82.26"/>
</a>
</g>
</g>
<!-- Node18 -->
<g id="Node000018" class="node">
<title>Node18</title>
<g id="a_Node000018"><a xlink:title=" ">
<polygon fill="#e0e0e0" stroke="#999999" points="683.5,-74 641.5,-74 641.5,-55 683.5,-55 683.5,-74"/>
<text text-anchor="middle" x="662.5" y="-62" font-family="Helvetica,sans-Serif" font-size="10.00">array</text>
</a>
</g>
</g>
<!-- Node7&#45;&gt;Node18 -->
<g id="edge17_Node000007_Node000018" class="edge">
<title>Node7&#45;&gt;Node18</title>
<g id="a_edge17_Node000007_Node000018"><a xlink:title=" ">
<path fill="none" stroke="#63b8ff" d="M663.33,-109.75C663.2,-102.8 663.02,-92.85 662.85,-84.13"/>
<polygon fill="#63b8ff" stroke="#63b8ff" points="666.35,-84.02 662.66,-74.09 659.35,-84.15 666.35,-84.02"/>
</a>
</g>
</g>
<!-- Node9 -->
<g id="Node000009" class="node">
<title>Node9</title>
<g id="a_Node000009"><a xlink:title=" ">
<polygon fill="#e0e0e0" stroke="#999999" points="1058.5,-19 980.5,-19 980.5,0 1058.5,0 1058.5,-19"/>
<text text-anchor="middle" x="1019.5" y="-7" font-family="Helvetica,sans-Serif" font-size="10.00">glm/glm.hpp</text>
</a>
</g>
</g>
<!-- Node8&#45;&gt;Node9 -->
<g id="edge8_Node000008_Node000009" class="edge">
<title>Node8&#45;&gt;Node9</title>
<g id="a_edge8_Node000008_Node000009"><a xlink:title=" ">
<path fill="none" stroke="#63b8ff" d="M796.24,-54.98C843.78,-45.51 920.44,-30.24 970.41,-20.28"/>
<polygon fill="#63b8ff" stroke="#63b8ff" points="971.21,-23.69 980.34,-18.3 969.84,-16.83 971.21,-23.69"/>
</a>
</g>
</g>
<!-- Node10 -->
<g id="Node000010" class="node">
<title>Node10</title>
<g id="a_Node000010"><a xlink:title=" ">
<polygon fill="#e0e0e0" stroke="#999999" points="163,-19 0,-19 0,0 163,0 163,-19"/>
<text text-anchor="middle" x="81.5" y="-7" font-family="Helvetica,sans-Serif" font-size="10.00">glm/gtc/matrix_transform.hpp</text>
</a>
</g>
</g>
<!-- Node8&#45;&gt;Node10 -->
<g id="edge9_Node000008_Node000010" class="edge">
<title>Node8&#45;&gt;Node10</title>
<g id="a_edge9_Node000008_Node000010"><a xlink:title=" ">
<path fill="none" stroke="#63b8ff" d="M701.95,-56.06C698.75,-55.68 695.58,-55.32 692.5,-55 465.35,-31.34 405.1,-37.59 173.43,-19.05"/>
<polygon fill="#63b8ff" stroke="#63b8ff" points="173.59,-15.55 163.34,-18.24 173.03,-22.53 173.59,-15.55"/>
</a>
</g>
</g>
<!-- Node11 -->
<g id="Node000011" class="node">
<title>Node11</title>
<g id="a_Node000011"><a xlink:title=" ">
<polygon fill="#e0e0e0" stroke="#999999" points="311.5,-19 181.5,-19 181.5,0 311.5,0 311.5,-19"/>
<text text-anchor="middle" x="246.5" y="-7" font-family="Helvetica,sans-Serif" font-size="10.00">glm/gtc/quaternion.hpp</text>
</a>
</g>
</g>
<!-- Node8&#45;&gt;Node11 -->
<g id="edge10_Node000008_Node000011" class="edge">
<title>Node8&#45;&gt;Node11</title>
<g id="a_edge10_Node000008_Node000011"><a xlink:title=" ">
<path fill="none" stroke="#63b8ff" d="M701.93,-56.16C698.74,-55.75 695.58,-55.36 692.5,-55 530.76,-35.91 487.37,-36.45 321.9,-19.13"/>
<polygon fill="#63b8ff" stroke="#63b8ff" points="322.17,-15.64 311.86,-18.07 321.44,-22.6 322.17,-15.64"/>
</a>
</g>
</g>
<!-- Node12 -->
<g id="Node000012" class="node">
<title>Node12</title>
<g id="a_Node000012"><a xlink:title=" ">
<polygon fill="#e0e0e0" stroke="#999999" points="447,-19 330,-19 330,0 447,0 447,-19"/>
<text text-anchor="middle" x="388.5" y="-7" font-family="Helvetica,sans-Serif" font-size="10.00">glm/gtc/type_ptr.hpp</text>
</a>
</g>
</g>
<!-- Node8&#45;&gt;Node12 -->
<g id="edge11_Node000008_Node000012" class="edge">
<title>Node8&#45;&gt;Node12</title>
<g id="a_edge11_Node000008_Node000012"><a xlink:title=" ">
<path fill="none" stroke="#63b8ff" d="M701.98,-56.02C637.92,-46.72 528.37,-30.81 457.21,-20.48"/>
<polygon fill="#63b8ff" stroke="#63b8ff" points="457.4,-16.97 447,-18.99 456.39,-23.9 457.4,-16.97"/>
</a>
</g>
</g>
<!-- Node13 -->
<g id="Node000013" class="node">
<title>Node13</title>
<g id="a_Node000013"><a xlink:title=" ">
<polygon fill="#e0e0e0" stroke="#999999" points="596,-19 465,-19 465,0 596,0 596,-19"/>
<text text-anchor="middle" x="530.5" y="-7" font-family="Helvetica,sans-Serif" font-size="10.00">glm/gtx/quaternion.hpp</text>
</a>
</g>
</g>
<!-- Node8&#45;&gt;Node13 -->
<g id="edge12_Node000008_Node000013" class="edge">
<title>Node8&#45;&gt;Node13</title>
<g id="a_edge12_Node000008_Node000013"><a xlink:title=" ">
<path fill="none" stroke="#63b8ff" d="M717.67,-54.98C679.34,-45.87 618.42,-31.4 576.55,-21.45"/>
<polygon fill="#63b8ff" stroke="#63b8ff" points="577.15,-17.99 566.61,-19.08 575.53,-24.8 577.15,-17.99"/>
</a>
</g>
</g>
<!-- Node14 -->
<g id="Node000014" class="node">
<title>Node14</title>
<g id="a_Node000014"><a xlink:title=" ">
<polygon fill="#e0e0e0" stroke="#999999" points="740.5,-19 614.5,-19 614.5,0 740.5,0 740.5,-19"/>
<text text-anchor="middle" x="677.5" y="-7" font-family="Helvetica,sans-Serif" font-size="10.00">glm/gtx/transform.hpp</text>
</a>
</g>
</g>
<!-- Node8&#45;&gt;Node14 -->
<g id="edge13_Node000008_Node000014" class="edge">
<title>Node8&#45;&gt;Node14</title>
<g id="a_edge13_Node000008_Node000014"><a xlink:title=" ">
<path fill="none" stroke="#63b8ff" d="M741.29,-54.98C729.72,-46.92 712.12,-34.65 698.34,-25.03"/>
<polygon fill="#63b8ff" stroke="#63b8ff" points="700.14,-22.02 689.93,-19.17 696.13,-27.76 700.14,-22.02"/>
</a>
</g>
</g>
<!-- Node15 -->
<g id="Node000015" class="node">
<title>Node15</title>
<g id="a_Node000015"><a xlink:title=" ">
<polygon fill="#e0e0e0" stroke="#999999" points="900,-19 759,-19 759,0 900,0 900,-19"/>
<text text-anchor="middle" x="829.5" y="-7" font-family="Helvetica,sans-Serif" font-size="10.00">glm/gtx/vector_angle.hpp</text>
</a>
</g>
</g>
<!-- Node8&#45;&gt;Node15 -->
<g id="edge14_Node000008_Node000015" class="edge">
<title>Node8&#45;&gt;Node15</title>
<g id="a_edge14_Node000008_Node000015"><a xlink:title=" ">
<path fill="none" stroke="#63b8ff" d="M765.71,-54.98C777.28,-46.92 794.88,-34.65 808.66,-25.03"/>
<polygon fill="#63b8ff" stroke="#63b8ff" points="810.87,-27.76 817.07,-19.17 806.86,-22.02 810.87,-27.76"/>
</a>
</g>
</g>
<!-- Node16 -->
<g id="Node000016" class="node">
<title>Node16</title>
<g id="a_Node000016"><a xlink:title=" ">
<polygon fill="#e0e0e0" stroke="#999999" points="962.5,-19 918.5,-19 918.5,0 962.5,0 962.5,-19"/>
<text text-anchor="middle" x="940.5" y="-7" font-family="Helvetica,sans-Serif" font-size="10.00">bitset</text>
</a>
</g>
</g>
<!-- Node8&#45;&gt;Node16 -->
<g id="edge15_Node000008_Node000016" class="edge">
<title>Node8&#45;&gt;Node16</title>
<g id="a_edge15_Node000008_Node000016"><a xlink:title=" ">
<path fill="none" stroke="#63b8ff" d="M783.54,-54.98C817.84,-45.26 873.71,-29.43 908.72,-19.51"/>
<polygon fill="#63b8ff" stroke="#63b8ff" points="909.77,-22.85 918.43,-16.75 907.86,-16.11 909.77,-22.85"/>
</a>
</g>
</g>
<!-- Node8&#45;&gt;Node17 -->
<g id="edge16_Node000008_Node000017" class="edge">
<title>Node8&#45;&gt;Node17</title>
<g id="a_edge16_Node000008_Node000017"><a xlink:title=" ">
<path fill="none" stroke="#63b8ff" d="M805.03,-56.86C876.6,-47.53 1003.52,-30.58 1066.12,-19.05"/>
<polygon fill="#63b8ff" stroke="#63b8ff" points="1067.15,-22.42 1076.31,-17.11 1065.84,-15.54 1067.15,-22.42"/>
</a>
</g>
</g>
</g>
</svg>
