<?xml version="1.0" encoding="UTF-8" standalone="no"?>
<!DOCTYPE svg PUBLIC "-//W3C//DTD SVG 1.1//EN"
 "http://www.w3.org/Graphics/SVG/1.1/DTD/svg11.dtd">
<!-- Generated by graphviz version 2.43.0 (0)
 -->
<!-- Title: App/Source/MeshLoader.cpp Pages: 1 -->
<svg width="1399pt" height="302pt"
 viewBox="0.00 0.00 1399.00 302.00" xmlns="http://www.w3.org/2000/svg" xmlns:xlink="http://www.w3.org/1999/xlink">
<g id="graph0" class="graph" transform="scale(1 1) rotate(0) translate(4 298)">
<title>App/Source/MeshLoader.cpp</title>
<!-- Node1 -->
<g id="Node000001" class="node">
<title>Node1</title>
<g id="a_Node000001"><a xlink:title=" ">
<polygon fill="#999999" stroke="#666666" points="1125,-294 972,-294 972,-275 1125,-275 1125,-294"/>
<text text-anchor="middle" x="1048.5" y="-282" font-family="Helvetica,sans-Serif" font-size="10.00">App/Source/MeshLoader.cpp</text>
</a>
</g>
</g>
<!-- Node2 -->
<g id="Node000002" class="node">
<title>Node2</title>
<g id="a_Node000002"><a xlink:href="MeshLoader_8h.html" target="_top" xlink:title=" ">
<polygon fill="white" stroke="#666666" points="822.5,-239 680.5,-239 680.5,-220 822.5,-220 822.5,-239"/>
<text text-anchor="middle" x="751.5" y="-227" font-family="Helvetica,sans-Serif" font-size="10.00">Application/MeshLoader.h</text>
</a>
</g>
</g>
<!-- Node1&#45;&gt;Node2 -->
<g id="edge1_Node000001_Node000002" class="edge">
<title>Node1&#45;&gt;Node2</title>
<g id="a_edge1_Node000001_Node000002"><a xlink:title=" ">
<path fill="none" stroke="#63b8ff" d="M1000.78,-274.98C948.76,-265.7 865.5,-250.84 809.68,-240.88"/>
<polygon fill="#63b8ff" stroke="#63b8ff" points="810.05,-237.39 799.59,-239.08 808.82,-244.28 810.05,-237.39"/>
</a>
</g>
</g>
<!-- Node7 -->
<g id="Node000007" class="node">
<title>Node7</title>
<g id="a_Node000007"><a xlink:title=" ">
<polygon fill="#e0e0e0" stroke="#999999" points="338,-74 245,-74 245,-55 338,-55 338,-74"/>
<text text-anchor="middle" x="291.5" y="-62" font-family="Helvetica,sans-Serif" font-size="10.00">unordered_map</text>
</a>
</g>
</g>
<!-- Node1&#45;&gt;Node7 -->
<g id="edge42_Node000001_Node000007" class="edge">
<title>Node1&#45;&gt;Node7</title>
<g id="a_edge42_Node000001_Node000007"><a xlink:title=" ">
<path fill="none" stroke="#63b8ff" d="M971.86,-281.29C842.3,-276.88 585.7,-265.1 499.5,-239 403.15,-209.83 359.17,-211.52 301.5,-129 292.41,-115.99 290.33,-97.85 290.28,-84.28"/>
<polygon fill="#63b8ff" stroke="#63b8ff" points="293.78,-84.28 290.61,-74.18 286.79,-84.06 293.78,-84.28"/>
</a>
</g>
</g>
<!-- Node23 -->
<g id="Node000023" class="node">
<title>Node23</title>
<g id="a_Node000023"><a xlink:href="ExtraDataType_8h.html" target="_top" xlink:title=" ">
<polygon fill="white" stroke="#666666" points="922,-184 767,-184 767,-165 922,-165 922,-184"/>
<text text-anchor="middle" x="844.5" y="-172" font-family="Helvetica,sans-Serif" font-size="10.00">Application/ExtraDataType.h</text>
</a>
</g>
</g>
<!-- Node1&#45;&gt;Node23 -->
<g id="edge23_Node000001_Node000023" class="edge">
<title>Node1&#45;&gt;Node23</title>
<g id="a_edge23_Node000001_Node000023"><a xlink:title=" ">
<path fill="none" stroke="#63b8ff" d="M1032.15,-274.84C996.55,-256 911.83,-211.14 869.48,-188.73"/>
<polygon fill="#63b8ff" stroke="#63b8ff" points="871.12,-185.63 860.64,-184.05 867.84,-191.82 871.12,-185.63"/>
</a>
</g>
</g>
<!-- Node25 -->
<g id="Node000025" class="node">
<title>Node25</title>
<g id="a_Node000025"><a xlink:href="PrimitiveProxy_8h.html" target="_top" xlink:title=" ">
<polygon fill="white" stroke="#666666" points="662.5,-239 508.5,-239 508.5,-220 662.5,-220 662.5,-239"/>
<text text-anchor="middle" x="585.5" y="-227" font-family="Helvetica,sans-Serif" font-size="10.00">Application/PrimitiveProxy.h</text>
</a>
</g>
</g>
<!-- Node1&#45;&gt;Node25 -->
<g id="edge28_Node000001_Node000025" class="edge">
<title>Node1&#45;&gt;Node25</title>
<g id="a_edge28_Node000001_Node000025"><a xlink:title=" ">
<path fill="none" stroke="#63b8ff" d="M974.11,-274.98C891.12,-265.49 757.14,-250.15 670.19,-240.19"/>
<polygon fill="#63b8ff" stroke="#63b8ff" points="670.42,-236.7 660.09,-239.04 669.62,-243.65 670.42,-236.7"/>
</a>
</g>
</g>
<!-- Node26 -->
<g id="Node000026" class="node">
<title>Node26</title>
<g id="a_Node000026"><a xlink:href="VertexPair_8h.html" target="_top" xlink:title=" ">
<polygon fill="white" stroke="#666666" points="1072.5,-184 940.5,-184 940.5,-165 1072.5,-165 1072.5,-184"/>
<text text-anchor="middle" x="1006.5" y="-172" font-family="Helvetica,sans-Serif" font-size="10.00">Application/VertexPair.h</text>
</a>
</g>
</g>
<!-- Node1&#45;&gt;Node26 -->
<g id="edge31_Node000001_Node000026" class="edge">
<title>Node1&#45;&gt;Node26</title>
<g id="a_edge31_Node000001_Node000026"><a xlink:title=" ">
<path fill="none" stroke="#63b8ff" d="M1043.71,-274.82C1038.95,-265.98 1031.64,-251.79 1026.5,-239 1020.57,-224.24 1015.23,-206.99 1011.57,-194.19"/>
<polygon fill="#63b8ff" stroke="#63b8ff" points="1014.86,-192.97 1008.8,-184.28 1008.11,-194.85 1014.86,-192.97"/>
</a>
</g>
</g>
<!-- Node28 -->
<g id="Node000028" class="node">
<title>Node28</title>
<g id="a_Node000028"><a xlink:href="PrintHelpers_8h.html" target="_top" xlink:title=" ">
<polygon fill="white" stroke="#666666" points="1146,-239 1035,-239 1035,-220 1146,-220 1146,-239"/>
<text text-anchor="middle" x="1090.5" y="-227" font-family="Helvetica,sans-Serif" font-size="10.00">Core/PrintHelpers.h</text>
</a>
</g>
</g>
<!-- Node1&#45;&gt;Node28 -->
<g id="edge35_Node000001_Node000028" class="edge">
<title>Node1&#45;&gt;Node28</title>
<g id="a_edge35_Node000001_Node000028"><a xlink:title=" ">
<path fill="none" stroke="#63b8ff" d="M1055.44,-274.75C1061.37,-267.26 1070.07,-256.28 1077.32,-247.13"/>
<polygon fill="#63b8ff" stroke="#63b8ff" points="1080.23,-249.1 1083.69,-239.09 1074.74,-244.75 1080.23,-249.1"/>
</a>
</g>
</g>
<!-- Node30 -->
<g id="Node000030" class="node">
<title>Node30</title>
<g id="a_Node000030"><a xlink:title=" ">
<polygon fill="#e0e0e0" stroke="#999999" points="1330.5,-184 1270.5,-184 1270.5,-165 1330.5,-165 1330.5,-184"/>
<text text-anchor="middle" x="1300.5" y="-172" font-family="Helvetica,sans-Serif" font-size="10.00">iostream</text>
</a>
</g>
</g>
<!-- Node1&#45;&gt;Node30 -->
<g id="edge41_Node000001_Node000030" class="edge">
<title>Node1&#45;&gt;Node30</title>
<g id="a_edge41_Node000001_Node000030"><a xlink:title=" ">
<path fill="none" stroke="#63b8ff" d="M1070.41,-274.9C1092.18,-266.25 1126.41,-252.3 1155.5,-239 1172.67,-231.15 1176.33,-227.85 1193.5,-220 1218.73,-208.46 1247.82,-196.45 1269.3,-187.81"/>
<polygon fill="#63b8ff" stroke="#63b8ff" points="1270.6,-191.06 1278.59,-184.1 1268,-184.56 1270.6,-191.06"/>
</a>
</g>
</g>
<!-- Node32 -->
<g id="Node000032" class="node">
<title>Node32</title>
<g id="a_Node000032"><a xlink:title=" ">
<polygon fill="#e0e0e0" stroke="#999999" points="1254.5,-239 1202.5,-239 1202.5,-220 1254.5,-220 1254.5,-239"/>
<text text-anchor="middle" x="1228.5" y="-227" font-family="Helvetica,sans-Serif" font-size="10.00">cassert</text>
</a>
</g>
</g>
<!-- Node1&#45;&gt;Node32 -->
<g id="edge39_Node000001_Node000032" class="edge">
<title>Node1&#45;&gt;Node32</title>
<g id="a_edge39_Node000001_Node000032"><a xlink:title=" ">
<path fill="none" stroke="#63b8ff" d="M1077.42,-274.98C1108.67,-265.78 1158.53,-251.1 1192.34,-241.15"/>
<polygon fill="#63b8ff" stroke="#63b8ff" points="1193.68,-244.4 1202.29,-238.22 1191.7,-237.69 1193.68,-244.4"/>
</a>
</g>
</g>
<!-- Node33 -->
<g id="Node000033" class="node">
<title>Node33</title>
<g id="a_Node000033"><a xlink:title=" ">
<polygon fill="#e0e0e0" stroke="#999999" points="1328,-239 1273,-239 1273,-220 1328,-220 1328,-239"/>
<text text-anchor="middle" x="1300.5" y="-227" font-family="Helvetica,sans-Serif" font-size="10.00">fstream</text>
</a>
</g>
</g>
<!-- Node1&#45;&gt;Node33 -->
<g id="edge40_Node000001_Node000033" class="edge">
<title>Node1&#45;&gt;Node33</title>
<g id="a_edge40_Node000001_Node000033"><a xlink:title=" ">
<path fill="none" stroke="#63b8ff" d="M1090.98,-274.99C1132.28,-266.66 1197.02,-253.42 1262.54,-239.17"/>
<polygon fill="#63b8ff" stroke="#63b8ff" points="1263.61,-242.52 1272.63,-236.97 1262.12,-235.68 1263.61,-242.52"/>
</a>
</g>
</g>
<!-- Node34 -->
<g id="Node000034" class="node">
<title>Node34</title>
<g id="a_Node000034"><a xlink:title=" ">
<polygon fill="#e0e0e0" stroke="#999999" points="1391,-239 1346,-239 1346,-220 1391,-220 1391,-239"/>
<text text-anchor="middle" x="1368.5" y="-227" font-family="Helvetica,sans-Serif" font-size="10.00">utility</text>
</a>
</g>
</g>
<!-- Node1&#45;&gt;Node34 -->
<g id="edge43_Node000001_Node000034" class="edge">
<title>Node1&#45;&gt;Node34</title>
<g id="a_edge43_Node000001_Node000034"><a xlink:title=" ">
<path fill="none" stroke="#63b8ff" d="M1118.69,-274.99C1175.06,-267.62 1256.4,-255.83 1335.72,-239.18"/>
<polygon fill="#63b8ff" stroke="#63b8ff" points="1336.83,-242.53 1345.89,-237.02 1335.38,-235.68 1336.83,-242.53"/>
</a>
</g>
</g>
<!-- Node3 -->
<g id="Node000003" class="node">
<title>Node3</title>
<g id="a_Node000003"><a xlink:href="Mesh_8h.html" target="_top" xlink:title=" ">
<polygon fill="white" stroke="#666666" points="662.5,-184 552.5,-184 552.5,-165 662.5,-165 662.5,-184"/>
<text text-anchor="middle" x="607.5" y="-172" font-family="Helvetica,sans-Serif" font-size="10.00">Application/Mesh.h</text>
</a>
</g>
</g>
<!-- Node2&#45;&gt;Node3 -->
<g id="edge2_Node000002_Node000003" class="edge">
<title>Node2&#45;&gt;Node3</title>
<g id="a_edge2_Node000002_Node000003"><a xlink:title=" ">
<path fill="none" stroke="#63b8ff" d="M728.36,-219.98C704.68,-211.27 667.63,-197.63 640.79,-187.75"/>
<polygon fill="#63b8ff" stroke="#63b8ff" points="641.65,-184.34 631.06,-184.17 639.23,-190.91 641.65,-184.34"/>
</a>
</g>
</g>
<!-- Node22 -->
<g id="Node000022" class="node">
<title>Node22</title>
<g id="a_Node000022"><a xlink:title=" ">
<polygon fill="#e0e0e0" stroke="#999999" points="748.5,-184 680.5,-184 680.5,-165 748.5,-165 748.5,-184"/>
<text text-anchor="middle" x="714.5" y="-172" font-family="Helvetica,sans-Serif" font-size="10.00">filesystem</text>
</a>
</g>
</g>
<!-- Node2&#45;&gt;Node22 -->
<g id="edge22_Node000002_Node000022" class="edge">
<title>Node2&#45;&gt;Node22</title>
<g id="a_edge22_Node000002_Node000022"><a xlink:title=" ">
<path fill="none" stroke="#63b8ff" d="M745.39,-219.75C740.22,-212.34 732.65,-201.5 726.31,-192.41"/>
<polygon fill="#63b8ff" stroke="#63b8ff" points="729.09,-190.29 720.5,-184.09 723.35,-194.29 729.09,-190.29"/>
</a>
</g>
</g>
<!-- Node4 -->
<g id="Node000004" class="node">
<title>Node4</title>
<g id="a_Node000004"><a xlink:href="ExtraDataContainer_8h.html" target="_top" xlink:title=" ">
<polygon fill="white" stroke="#666666" points="490,-129 311,-129 311,-110 490,-110 490,-129"/>
<text text-anchor="middle" x="400.5" y="-117" font-family="Helvetica,sans-Serif" font-size="10.00">Application/ExtraDataContainer.h</text>
</a>
</g>
</g>
<!-- Node3&#45;&gt;Node4 -->
<g id="edge3_Node000003_Node000004" class="edge">
<title>Node3&#45;&gt;Node4</title>
<g id="a_edge3_Node000003_Node000004"><a xlink:title=" ">
<path fill="none" stroke="#63b8ff" d="M574.24,-164.98C538.89,-155.93 482.83,-141.58 443.99,-131.64"/>
<polygon fill="#63b8ff" stroke="#63b8ff" points="444.57,-128.17 434.02,-129.08 442.84,-134.95 444.57,-128.17"/>
</a>
</g>
</g>
<!-- Node8 -->
<g id="Node000008" class="node">
<title>Node8</title>
<g id="a_Node000008"><a xlink:href="Primitive_8h.html" target="_top" xlink:title=" ">
<polygon fill="white" stroke="#666666" points="892.5,-129 764.5,-129 764.5,-110 892.5,-110 892.5,-129"/>
<text text-anchor="middle" x="828.5" y="-117" font-family="Helvetica,sans-Serif" font-size="10.00">Application/Primitive.h</text>
</a>
</g>
</g>
<!-- Node3&#45;&gt;Node8 -->
<g id="edge7_Node000003_Node000008" class="edge">
<title>Node3&#45;&gt;Node8</title>
<g id="a_edge7_Node000003_Node000008"><a xlink:title=" ">
<path fill="none" stroke="#63b8ff" d="M643.01,-164.98C680.99,-155.87 741.37,-141.4 782.86,-131.45"/>
<polygon fill="#63b8ff" stroke="#63b8ff" points="783.81,-134.82 792.71,-129.08 782.17,-128.01 783.81,-134.82"/>
</a>
</g>
</g>
<!-- Node9 -->
<g id="Node000009" class="node">
<title>Node9</title>
<g id="a_Node000009"><a xlink:href="BaseTypes_8h.html" target="_top" xlink:title=" ">
<polygon fill="white" stroke="#666666" points="665,-74 562,-74 562,-55 665,-55 665,-74"/>
<text text-anchor="middle" x="613.5" y="-62" font-family="Helvetica,sans-Serif" font-size="10.00">Core/BaseTypes.h</text>
</a>
</g>
</g>
<!-- Node3&#45;&gt;Node9 -->
<g id="edge19_Node000003_Node000009" class="edge">
<title>Node3&#45;&gt;Node9</title>
<g id="a_edge19_Node000003_Node000009"><a xlink:title=" ">
<path fill="none" stroke="#63b8ff" d="M597.88,-164.74C585.93,-152.75 567.98,-130.38 575.5,-110 579.56,-98.99 587.69,-88.86 595.4,-81.05"/>
<polygon fill="#63b8ff" stroke="#63b8ff" points="597.92,-83.48 602.79,-74.07 593.11,-78.39 597.92,-83.48"/>
</a>
</g>
</g>
<!-- Node20 -->
<g id="Node000020" class="node">
<title>Node20</title>
<g id="a_Node000020"><a xlink:title=" ">
<polygon fill="#e0e0e0" stroke="#999999" points="642.5,-129 584.5,-129 584.5,-110 642.5,-110 642.5,-129"/>
<text text-anchor="middle" x="613.5" y="-117" font-family="Helvetica,sans-Serif" font-size="10.00">memory</text>
</a>
</g>
</g>
<!-- Node3&#45;&gt;Node20 -->
<g id="edge20_Node000003_Node000020" class="edge">
<title>Node3&#45;&gt;Node20</title>
<g id="a_edge20_Node000003_Node000020"><a xlink:title=" ">
<path fill="none" stroke="#63b8ff" d="M608.49,-164.75C609.28,-157.8 610.4,-147.85 611.39,-139.13"/>
<polygon fill="#63b8ff" stroke="#63b8ff" points="614.88,-139.42 612.53,-129.09 607.92,-138.63 614.88,-139.42"/>
</a>
</g>
</g>
<!-- Node21 -->
<g id="Node000021" class="node">
<title>Node21</title>
<g id="a_Node000021"><a xlink:title=" ">
<polygon fill="#e0e0e0" stroke="#999999" points="708,-129 661,-129 661,-110 708,-110 708,-129"/>
<text text-anchor="middle" x="684.5" y="-117" font-family="Helvetica,sans-Serif" font-size="10.00">vector</text>
</a>
</g>
</g>
<!-- Node3&#45;&gt;Node21 -->
<g id="edge21_Node000003_Node000021" class="edge">
<title>Node3&#45;&gt;Node21</title>
<g id="a_edge21_Node000003_Node000021"><a xlink:title=" ">
<path fill="none" stroke="#63b8ff" d="M619.87,-164.98C631.59,-156.92 649.42,-144.65 663.39,-135.03"/>
<polygon fill="#63b8ff" stroke="#63b8ff" points="665.65,-137.72 671.9,-129.17 661.68,-131.96 665.65,-137.72"/>
</a>
</g>
</g>
<!-- Node5 -->
<g id="Node000005" class="node">
<title>Node5</title>
<g id="a_Node000005"><a xlink:title=" ">
<polygon fill="#e0e0e0" stroke="#999999" points="409,-74 374,-74 374,-55 409,-55 409,-74"/>
<text text-anchor="middle" x="391.5" y="-62" font-family="Helvetica,sans-Serif" font-size="10.00">any</text>
</a>
</g>
</g>
<!-- Node4&#45;&gt;Node5 -->
<g id="edge4_Node000004_Node000005" class="edge">
<title>Node4&#45;&gt;Node5</title>
<g id="a_edge4_Node000004_Node000005"><a xlink:title=" ">
<path fill="none" stroke="#63b8ff" d="M399.01,-109.75C397.83,-102.8 396.14,-92.85 394.66,-84.13"/>
<polygon fill="#63b8ff" stroke="#63b8ff" points="398.08,-83.36 392.96,-74.09 391.18,-84.53 398.08,-83.36"/>
</a>
</g>
</g>
<!-- Node6 -->
<g id="Node000006" class="node">
<title>Node6</title>
<g id="a_Node000006"><a xlink:title=" ">
<polygon fill="#e0e0e0" stroke="#999999" points="492,-74 427,-74 427,-55 492,-55 492,-74"/>
<text text-anchor="middle" x="459.5" y="-62" font-family="Helvetica,sans-Serif" font-size="10.00">typeindex</text>
</a>
</g>
</g>
<!-- Node4&#45;&gt;Node6 -->
<g id="edge5_Node000004_Node000006" class="edge">
<title>Node4&#45;&gt;Node6</title>
<g id="a_edge5_Node000004_Node000006"><a xlink:title=" ">
<path fill="none" stroke="#63b8ff" d="M409.98,-109.98C418.7,-102.15 431.84,-90.34 442.4,-80.86"/>
<polygon fill="#63b8ff" stroke="#63b8ff" points="444.75,-83.46 449.85,-74.17 440.07,-78.25 444.75,-83.46"/>
</a>
</g>
</g>
<!-- Node4&#45;&gt;Node7 -->
<g id="edge6_Node000004_Node000007" class="edge">
<title>Node4&#45;&gt;Node7</title>
<g id="a_edge6_Node000004_Node000007"><a xlink:title=" ">
<path fill="none" stroke="#63b8ff" d="M382.99,-109.98C365.53,-101.5 338.49,-88.35 318.33,-78.54"/>
<polygon fill="#63b8ff" stroke="#63b8ff" points="319.86,-75.4 309.33,-74.17 316.79,-81.69 319.86,-75.4"/>
</a>
</g>
</g>
<!-- Node8&#45;&gt;Node9 -->
<g id="edge8_Node000008_Node000009" class="edge">
<title>Node8&#45;&gt;Node9</title>
<g id="a_edge8_Node000008_Node000009"><a xlink:title=" ">
<path fill="none" stroke="#63b8ff" d="M793.96,-109.98C757.08,-100.89 698.51,-86.46 658.16,-76.51"/>
<polygon fill="#63b8ff" stroke="#63b8ff" points="658.86,-73.08 648.31,-74.08 657.19,-79.87 658.86,-73.08"/>
</a>
</g>
</g>
<!-- Node19 -->
<g id="Node000019" class="node">
<title>Node19</title>
<g id="a_Node000019"><a xlink:title=" ">
<polygon fill="#e0e0e0" stroke="#999999" points="895.5,-74 853.5,-74 853.5,-55 895.5,-55 895.5,-74"/>
<text text-anchor="middle" x="874.5" y="-62" font-family="Helvetica,sans-Serif" font-size="10.00">array</text>
</a>
</g>
</g>
<!-- Node8&#45;&gt;Node19 -->
<g id="edge18_Node000008_Node000019" class="edge">
<title>Node8&#45;&gt;Node19</title>
<g id="a_edge18_Node000008_Node000019"><a xlink:title=" ">
<path fill="none" stroke="#63b8ff" d="M836.1,-109.75C842.66,-102.18 852.32,-91.05 860.31,-81.84"/>
<polygon fill="#63b8ff" stroke="#63b8ff" points="863.13,-83.94 867.05,-74.09 857.85,-79.35 863.13,-83.94"/>
</a>
</g>
</g>
<!-- Node10 -->
<g id="Node000010" class="node">
<title>Node10</title>
<g id="a_Node000010"><a xlink:title=" ">
<polygon fill="#e0e0e0" stroke="#999999" points="734.5,-19 656.5,-19 656.5,0 734.5,0 734.5,-19"/>
<text text-anchor="middle" x="695.5" y="-7" font-family="Helvetica,sans-Serif" font-size="10.00">glm/glm.hpp</text>
</a>
</g>
</g>
<!-- Node9&#45;&gt;Node10 -->
<g id="edge9_Node000009_Node000010" class="edge">
<title>Node9&#45;&gt;Node10</title>
<g id="a_edge9_Node000009_Node000010"><a xlink:title=" ">
<path fill="none" stroke="#63b8ff" d="M626.67,-54.98C639.27,-46.84 658.5,-34.41 673.44,-24.76"/>
<polygon fill="#63b8ff" stroke="#63b8ff" points="675.59,-27.54 682.09,-19.17 671.79,-21.66 675.59,-27.54"/>
</a>
</g>
</g>
<!-- Node11 -->
<g id="Node000011" class="node">
<title>Node11</title>
<g id="a_Node000011"><a xlink:title=" ">
<polygon fill="#e0e0e0" stroke="#999999" points="916,-19 753,-19 753,0 916,0 916,-19"/>
<text text-anchor="middle" x="834.5" y="-7" font-family="Helvetica,sans-Serif" font-size="10.00">glm/gtc/matrix_transform.hpp</text>
</a>
</g>
</g>
<!-- Node9&#45;&gt;Node11 -->
<g id="edge10_Node000009_Node000011" class="edge">
<title>Node9&#45;&gt;Node11</title>
<g id="a_edge10_Node000009_Node000011"><a xlink:title=" ">
<path fill="none" stroke="#63b8ff" d="M649.01,-54.98C686.99,-45.87 747.37,-31.4 788.86,-21.45"/>
<polygon fill="#63b8ff" stroke="#63b8ff" points="789.81,-24.82 798.71,-19.08 788.17,-18.01 789.81,-24.82"/>
</a>
</g>
</g>
<!-- Node12 -->
<g id="Node000012" class="node">
<title>Node12</title>
<g id="a_Node000012"><a xlink:title=" ">
<polygon fill="#e0e0e0" stroke="#999999" points="1064.5,-19 934.5,-19 934.5,0 1064.5,0 1064.5,-19"/>
<text text-anchor="middle" x="999.5" y="-7" font-family="Helvetica,sans-Serif" font-size="10.00">glm/gtc/quaternion.hpp</text>
</a>
</g>
</g>
<!-- Node9&#45;&gt;Node12 -->
<g id="edge11_Node000009_Node000012" class="edge">
<title>Node9&#45;&gt;Node12</title>
<g id="a_edge11_Node000009_Node000012"><a xlink:title=" ">
<path fill="none" stroke="#63b8ff" d="M665.16,-56.41C732.59,-47.15 850.99,-30.89 927.28,-20.42"/>
<polygon fill="#63b8ff" stroke="#63b8ff" points="927.87,-23.87 937.3,-19.04 926.91,-16.93 927.87,-23.87"/>
</a>
</g>
</g>
<!-- Node13 -->
<g id="Node000013" class="node">
<title>Node13</title>
<g id="a_Node000013"><a xlink:title=" ">
<polygon fill="#e0e0e0" stroke="#999999" points="117,-19 0,-19 0,0 117,0 117,-19"/>
<text text-anchor="middle" x="58.5" y="-7" font-family="Helvetica,sans-Serif" font-size="10.00">glm/gtc/type_ptr.hpp</text>
</a>
</g>
</g>
<!-- Node9&#45;&gt;Node13 -->
<g id="edge12_Node000009_Node000013" class="edge">
<title>Node9&#45;&gt;Node13</title>
<g id="a_edge12_Node000009_Node000013"><a xlink:title=" ">
<path fill="none" stroke="#63b8ff" d="M561.8,-59.39C474.48,-52.31 291.97,-36.95 127.61,-19.2"/>
<polygon fill="#63b8ff" stroke="#63b8ff" points="127.63,-15.68 117.31,-18.08 126.88,-22.64 127.63,-15.68"/>
</a>
</g>
</g>
<!-- Node14 -->
<g id="Node000014" class="node">
<title>Node14</title>
<g id="a_Node000014"><a xlink:title=" ">
<polygon fill="#e0e0e0" stroke="#999999" points="266,-19 135,-19 135,0 266,0 266,-19"/>
<text text-anchor="middle" x="200.5" y="-7" font-family="Helvetica,sans-Serif" font-size="10.00">glm/gtx/quaternion.hpp</text>
</a>
</g>
</g>
<!-- Node9&#45;&gt;Node14 -->
<g id="edge13_Node000009_Node000014" class="edge">
<title>Node9&#45;&gt;Node14</title>
<g id="a_edge13_Node000009_Node000014"><a xlink:title=" ">
<path fill="none" stroke="#63b8ff" d="M561.61,-56.84C489.65,-47.61 359.09,-30.85 276.23,-20.22"/>
<polygon fill="#63b8ff" stroke="#63b8ff" points="276.49,-16.72 266.12,-18.92 275.6,-23.67 276.49,-16.72"/>
</a>
</g>
</g>
<!-- Node15 -->
<g id="Node000015" class="node">
<title>Node15</title>
<g id="a_Node000015"><a xlink:title=" ">
<polygon fill="#e0e0e0" stroke="#999999" points="410.5,-19 284.5,-19 284.5,0 410.5,0 410.5,-19"/>
<text text-anchor="middle" x="347.5" y="-7" font-family="Helvetica,sans-Serif" font-size="10.00">glm/gtx/transform.hpp</text>
</a>
</g>
</g>
<!-- Node9&#45;&gt;Node15 -->
<g id="edge14_Node000009_Node000015" class="edge">
<title>Node9&#45;&gt;Node15</title>
<g id="a_edge14_Node000009_Node000015"><a xlink:title=" ">
<path fill="none" stroke="#63b8ff" d="M570.76,-54.98C524.46,-45.76 450.52,-31.03 400.54,-21.07"/>
<polygon fill="#63b8ff" stroke="#63b8ff" points="401.06,-17.6 390.57,-19.08 399.7,-24.47 401.06,-17.6"/>
</a>
</g>
</g>
<!-- Node16 -->
<g id="Node000016" class="node">
<title>Node16</title>
<g id="a_Node000016"><a xlink:title=" ">
<polygon fill="#e0e0e0" stroke="#999999" points="570,-19 429,-19 429,0 570,0 570,-19"/>
<text text-anchor="middle" x="499.5" y="-7" font-family="Helvetica,sans-Serif" font-size="10.00">glm/gtx/vector_angle.hpp</text>
</a>
</g>
</g>
<!-- Node9&#45;&gt;Node16 -->
<g id="edge15_Node000009_Node000016" class="edge">
<title>Node9&#45;&gt;Node16</title>
<g id="a_edge15_Node000009_Node000016"><a xlink:title=" ">
<path fill="none" stroke="#63b8ff" d="M595.18,-54.98C576.84,-46.46 548.39,-33.23 527.27,-23.41"/>
<polygon fill="#63b8ff" stroke="#63b8ff" points="528.69,-20.21 518.15,-19.17 525.74,-26.56 528.69,-20.21"/>
</a>
</g>
</g>
<!-- Node17 -->
<g id="Node000017" class="node">
<title>Node17</title>
<g id="a_Node000017"><a xlink:title=" ">
<polygon fill="#e0e0e0" stroke="#999999" points="1126.5,-19 1082.5,-19 1082.5,0 1126.5,0 1126.5,-19"/>
<text text-anchor="middle" x="1104.5" y="-7" font-family="Helvetica,sans-Serif" font-size="10.00">bitset</text>
</a>
</g>
</g>
<!-- Node9&#45;&gt;Node17 -->
<g id="edge16_Node000009_Node000017" class="edge">
<title>Node9&#45;&gt;Node17</title>
<g id="a_edge16_Node000009_Node000017"><a xlink:title=" ">
<path fill="none" stroke="#63b8ff" d="M665.3,-61.38C749.04,-57.32 919.4,-46.46 1072.22,-18.93"/>
<polygon fill="#63b8ff" stroke="#63b8ff" points="1073.05,-22.33 1082.25,-17.09 1071.79,-15.45 1073.05,-22.33"/>
</a>
</g>
</g>
<!-- Node18 -->
<g id="Node000018" class="node">
<title>Node18</title>
<g id="a_Node000018"><a xlink:title=" ">
<polygon fill="#e0e0e0" stroke="#999999" points="638.5,-19 588.5,-19 588.5,0 638.5,0 638.5,-19"/>
<text text-anchor="middle" x="613.5" y="-7" font-family="Helvetica,sans-Serif" font-size="10.00">cstdint</text>
</a>
</g>
</g>
<!-- Node9&#45;&gt;Node18 -->
<g id="edge17_Node000009_Node000018" class="edge">
<title>Node9&#45;&gt;Node18</title>
<g id="a_edge17_Node000009_Node000018"><a xlink:title=" ">
<path fill="none" stroke="#63b8ff" d="M613.5,-54.75C613.5,-47.8 613.5,-37.85 613.5,-29.13"/>
<polygon fill="#63b8ff" stroke="#63b8ff" points="617,-29.09 613.5,-19.09 610,-29.09 617,-29.09"/>
</a>
</g>
</g>
<!-- Node23&#45;&gt;Node9 -->
<g id="edge24_Node000023_Node000009" class="edge">
<title>Node23&#45;&gt;Node9</title>
<g id="a_edge24_Node000023_Node000009"><a xlink:title=" ">
<path fill="none" stroke="#63b8ff" d="M827.28,-164.9C794.95,-148.74 727.39,-115.05 716.5,-110 692.2,-98.73 664.29,-86.73 643.66,-78.04"/>
<polygon fill="#63b8ff" stroke="#63b8ff" points="644.74,-74.69 634.16,-74.05 642.03,-81.15 644.74,-74.69"/>
</a>
</g>
</g>
<!-- Node23&#45;&gt;Node19 -->
<g id="edge25_Node000023_Node000019" class="edge">
<title>Node23&#45;&gt;Node19</title>
<g id="a_edge25_Node000023_Node000019"><a xlink:title=" ">
<path fill="none" stroke="#63b8ff" d="M862.85,-164.88C876.29,-157.46 893.52,-145.36 901.5,-129 909.1,-113.43 899.49,-95.19 889.7,-82.26"/>
<polygon fill="#63b8ff" stroke="#63b8ff" points="892.16,-79.74 883.1,-74.26 886.76,-84.2 892.16,-79.74"/>
</a>
</g>
</g>
<!-- Node23&#45;&gt;Node21 -->
<g id="edge27_Node000023_Node000021" class="edge">
<title>Node23&#45;&gt;Node21</title>
<g id="a_edge27_Node000023_Node000021"><a xlink:title=" ">
<path fill="none" stroke="#63b8ff" d="M818.79,-164.98C791.33,-155.89 747.71,-141.44 717.68,-131.49"/>
<polygon fill="#63b8ff" stroke="#63b8ff" points="718.65,-128.13 708.06,-128.3 716.45,-134.77 718.65,-128.13"/>
</a>
</g>
</g>
<!-- Node24 -->
<g id="Node000024" class="node">
<title>Node24</title>
<g id="a_Node000024"><a xlink:title=" ">
<polygon fill="#e0e0e0" stroke="#999999" points="992.5,-129 948.5,-129 948.5,-110 992.5,-110 992.5,-129"/>
<text text-anchor="middle" x="970.5" y="-117" font-family="Helvetica,sans-Serif" font-size="10.00">string</text>
</a>
</g>
</g>
<!-- Node23&#45;&gt;Node24 -->
<g id="edge26_Node000023_Node000024" class="edge">
<title>Node23&#45;&gt;Node24</title>
<g id="a_edge26_Node000023_Node000024"><a xlink:title=" ">
<path fill="none" stroke="#63b8ff" d="M864.74,-164.98C885.2,-156.38 917.03,-142.99 940.43,-133.15"/>
<polygon fill="#63b8ff" stroke="#63b8ff" points="942.03,-136.27 949.89,-129.17 939.31,-129.82 942.03,-136.27"/>
</a>
</g>
</g>
<!-- Node25&#45;&gt;Node3 -->
<g id="edge29_Node000025_Node000003" class="edge">
<title>Node25&#45;&gt;Node3</title>
<g id="a_edge29_Node000025_Node000003"><a xlink:title=" ">
<path fill="none" stroke="#63b8ff" d="M589.13,-219.75C592.08,-212.65 596.33,-202.4 600.01,-193.56"/>
<polygon fill="#63b8ff" stroke="#63b8ff" points="603.33,-194.67 603.93,-184.09 596.87,-191.98 603.33,-194.67"/>
</a>
</g>
</g>
<!-- Node25&#45;&gt;Node9 -->
<g id="edge30_Node000025_Node000009" class="edge">
<title>Node25&#45;&gt;Node9</title>
<g id="a_edge30_Node000025_Node000009"><a xlink:title=" ">
<path fill="none" stroke="#63b8ff" d="M573.29,-219.86C563.15,-211.88 549.46,-199.01 543.5,-184 540.38,-176.15 541.59,-173.23 543.5,-165 549.66,-138.47 554.85,-132.28 570.5,-110 577.8,-99.61 587.53,-89.32 595.88,-81.26"/>
<polygon fill="#63b8ff" stroke="#63b8ff" points="598.43,-83.67 603.35,-74.29 593.65,-78.56 598.43,-83.67"/>
</a>
</g>
</g>
<!-- Node26&#45;&gt;Node8 -->
<g id="edge32_Node000026_Node000008" class="edge">
<title>Node26&#45;&gt;Node8</title>
<g id="a_edge32_Node000026_Node000008"><a xlink:title=" ">
<path fill="none" stroke="#63b8ff" d="M977.9,-164.98C947.89,-156.05 900.52,-141.94 867.18,-132.02"/>
<polygon fill="#63b8ff" stroke="#63b8ff" points="867.91,-128.58 857.32,-129.08 865.91,-135.29 867.91,-128.58"/>
</a>
</g>
</g>
<!-- Node26&#45;&gt;Node17 -->
<g id="edge33_Node000026_Node000017" class="edge">
<title>Node26&#45;&gt;Node17</title>
<g id="a_edge33_Node000026_Node000017"><a xlink:title=" ">
<path fill="none" stroke="#63b8ff" d="M1033.46,-164.94C1050.79,-158.02 1072.27,-146.51 1084.5,-129 1105.44,-99.03 1107.08,-54.56 1106.04,-29.49"/>
<polygon fill="#63b8ff" stroke="#63b8ff" points="1109.51,-28.94 1105.4,-19.17 1102.52,-29.37 1109.51,-28.94"/>
</a>
</g>
</g>
<!-- Node27 -->
<g id="Node000027" class="node">
<title>Node27</title>
<g id="a_Node000027"><a xlink:title=" ">
<polygon fill="#e0e0e0" stroke="#999999" points="1076,-129 1011,-129 1011,-110 1076,-110 1076,-129"/>
<text text-anchor="middle" x="1043.5" y="-117" font-family="Helvetica,sans-Serif" font-size="10.00">stdexcept</text>
</a>
</g>
</g>
<!-- Node26&#45;&gt;Node27 -->
<g id="edge34_Node000026_Node000027" class="edge">
<title>Node26&#45;&gt;Node27</title>
<g id="a_edge34_Node000026_Node000027"><a xlink:title=" ">
<path fill="none" stroke="#63b8ff" d="M1012.61,-164.75C1017.78,-157.34 1025.35,-146.5 1031.69,-137.41"/>
<polygon fill="#63b8ff" stroke="#63b8ff" points="1034.65,-139.29 1037.5,-129.09 1028.91,-135.29 1034.65,-139.29"/>
</a>
</g>
</g>
<!-- Node29 -->
<g id="Node000029" class="node">
<title>Node29</title>
<g id="a_Node000029"><a xlink:title=" ">
<polygon fill="#e0e0e0" stroke="#999999" points="1252.5,-184 1202.5,-184 1202.5,-165 1252.5,-165 1252.5,-184"/>
<text text-anchor="middle" x="1227.5" y="-172" font-family="Helvetica,sans-Serif" font-size="10.00">format</text>
</a>
</g>
</g>
<!-- Node28&#45;&gt;Node29 -->
<g id="edge36_Node000028_Node000029" class="edge">
<title>Node28&#45;&gt;Node29</title>
<g id="a_edge36_Node000028_Node000029"><a xlink:title=" ">
<path fill="none" stroke="#63b8ff" d="M1112.51,-219.98C1134.95,-211.3 1169.98,-197.75 1195.49,-187.88"/>
<polygon fill="#63b8ff" stroke="#63b8ff" points="1197.02,-191.04 1205.09,-184.17 1194.5,-184.51 1197.02,-191.04"/>
</a>
</g>
</g>
<!-- Node28&#45;&gt;Node30 -->
<g id="edge37_Node000028_Node000030" class="edge">
<title>Node28&#45;&gt;Node30</title>
<g id="a_edge37_Node000028_Node000030"><a xlink:title=" ">
<path fill="none" stroke="#63b8ff" d="M1124.24,-219.98C1161.36,-210.62 1220.97,-195.57 1260.43,-185.61"/>
<polygon fill="#63b8ff" stroke="#63b8ff" points="1261.41,-188.97 1270.25,-183.13 1259.7,-182.19 1261.41,-188.97"/>
</a>
</g>
</g>
<!-- Node31 -->
<g id="Node000031" class="node">
<title>Node31</title>
<g id="a_Node000031"><a xlink:title=" ">
<polygon fill="#e0e0e0" stroke="#999999" points="1184,-184 1091,-184 1091,-165 1184,-165 1184,-184"/>
<text text-anchor="middle" x="1137.5" y="-172" font-family="Helvetica,sans-Serif" font-size="10.00">source_location</text>
</a>
</g>
</g>
<!-- Node28&#45;&gt;Node31 -->
<g id="edge38_Node000028_Node000031" class="edge">
<title>Node28&#45;&gt;Node31</title>
<g id="a_edge38_Node000028_Node000031"><a xlink:title=" ">
<path fill="none" stroke="#63b8ff" d="M1098.26,-219.75C1104.97,-212.18 1114.84,-201.05 1123.01,-191.84"/>
<polygon fill="#63b8ff" stroke="#63b8ff" points="1125.87,-193.89 1129.88,-184.09 1120.63,-189.25 1125.87,-193.89"/>
</a>
</g>
</g>
</g>
</svg>
