<?xml version="1.0" encoding="UTF-8" standalone="no"?>
<!DOCTYPE svg PUBLIC "-//W3C//DTD SVG 1.1//EN"
 "http://www.w3.org/Graphics/SVG/1.1/DTD/svg11.dtd">
<!-- Generated by graphviz version 2.43.0 (0)
 -->
<!-- Title: App/Test/Source/MeshExporter_utest.cpp Pages: 1 -->
<svg width="1541pt" height="368pt"
 viewBox="0.00 0.00 1541.00 368.00" xmlns="http://www.w3.org/2000/svg" xmlns:xlink="http://www.w3.org/1999/xlink">
<g id="graph0" class="graph" transform="scale(1 1) rotate(0) translate(4 364)">
<title>App/Test/Source/MeshExporter_utest.cpp</title>
<!-- Node1 -->
<g id="Node000001" class="node">
<title>Node1</title>
<g id="a_Node000001"><a xlink:title=" ">
<polygon fill="#999999" stroke="#666666" points="1093.5,-360 929.5,-360 929.5,-330 1093.5,-330 1093.5,-360"/>
<text text-anchor="start" x="937.5" y="-348" font-family="Helvetica,sans-Serif" font-size="10.00">App/Test/Source/MeshExporter</text>
<text text-anchor="middle" x="1011.5" y="-337" font-family="Helvetica,sans-Serif" font-size="10.00">_utest.cpp</text>
</a>
</g>
</g>
<!-- Node2 -->
<g id="Node000002" class="node">
<title>Node2</title>
<g id="a_Node000002"><a xlink:href="ExtraDataType_8h.html" target="_top" xlink:title=" ">
<polygon fill="white" stroke="#666666" points="327,-184 172,-184 172,-165 327,-165 327,-184"/>
<text text-anchor="middle" x="249.5" y="-172" font-family="Helvetica,sans-Serif" font-size="10.00">Application/ExtraDataType.h</text>
</a>
</g>
</g>
<!-- Node1&#45;&gt;Node2 -->
<g id="edge1_Node000001_Node000002" class="edge">
<title>Node1&#45;&gt;Node2</title>
<g id="a_edge1_Node000001_Node000002"><a xlink:title=" ">
<path fill="none" stroke="#63b8ff" d="M929.46,-342.63C833.23,-339.39 669.53,-328.7 533.5,-294 433.49,-268.49 322.69,-214 274.34,-188.79"/>
<polygon fill="#63b8ff" stroke="#63b8ff" points="275.74,-185.57 265.26,-184.02 272.48,-191.77 275.74,-185.57"/>
</a>
</g>
</g>
<!-- Node16 -->
<g id="Node000016" class="node">
<title>Node16</title>
<g id="a_Node000016"><a xlink:href="MeshExporter_8h.html" target="_top" xlink:title=" ">
<polygon fill="white" stroke="#666666" points="898.5,-239 748.5,-239 748.5,-220 898.5,-220 898.5,-239"/>
<text text-anchor="middle" x="823.5" y="-227" font-family="Helvetica,sans-Serif" font-size="10.00">Application/MeshExporter.h</text>
</a>
</g>
</g>
<!-- Node1&#45;&gt;Node16 -->
<g id="edge15_Node000001_Node000016" class="edge">
<title>Node1&#45;&gt;Node16</title>
<g id="a_edge15_Node000001_Node000016"><a xlink:title=" ">
<path fill="none" stroke="#63b8ff" d="M980.52,-329.85C960.67,-320.42 934.58,-307.35 912.5,-294 887.46,-278.87 860.31,-258.94 842.67,-245.47"/>
<polygon fill="#63b8ff" stroke="#63b8ff" points="844.43,-242.41 834.37,-239.08 840.16,-247.96 844.43,-242.41"/>
</a>
</g>
</g>
<!-- Node24 -->
<g id="Node000024" class="node">
<title>Node24</title>
<g id="a_Node000024"><a xlink:title=" ">
<polygon fill="#e0e0e0" stroke="#999999" points="936.5,-184 868.5,-184 868.5,-165 936.5,-165 936.5,-184"/>
<text text-anchor="middle" x="902.5" y="-172" font-family="Helvetica,sans-Serif" font-size="10.00">filesystem</text>
</a>
</g>
</g>
<!-- Node1&#45;&gt;Node24 -->
<g id="edge46_Node000001_Node000024" class="edge">
<title>Node1&#45;&gt;Node24</title>
<g id="a_edge46_Node000001_Node000024"><a xlink:title=" ">
<path fill="none" stroke="#63b8ff" d="M986.37,-329.9C972.66,-321.11 956.33,-308.69 945.5,-294 922.64,-262.99 910.88,-218.59 905.77,-193.88"/>
<polygon fill="#63b8ff" stroke="#63b8ff" points="909.2,-193.19 903.88,-184.04 902.33,-194.52 909.2,-193.19"/>
</a>
</g>
</g>
<!-- Node25 -->
<g id="Node000025" class="node">
<title>Node25</title>
<g id="a_Node000025"><a xlink:href="PrimitiveProxy_8h.html" target="_top" xlink:title=" ">
<polygon fill="white" stroke="#666666" points="730.5,-239 576.5,-239 576.5,-220 730.5,-220 730.5,-239"/>
<text text-anchor="middle" x="653.5" y="-227" font-family="Helvetica,sans-Serif" font-size="10.00">Application/PrimitiveProxy.h</text>
</a>
</g>
</g>
<!-- Node1&#45;&gt;Node25 -->
<g id="edge30_Node000001_Node000025" class="edge">
<title>Node1&#45;&gt;Node25</title>
<g id="a_edge30_Node000001_Node000025"><a xlink:title=" ">
<path fill="none" stroke="#63b8ff" d="M967.24,-329.97C895.89,-307.35 756.73,-263.23 690.39,-242.2"/>
<polygon fill="#63b8ff" stroke="#63b8ff" points="691.36,-238.83 680.77,-239.14 689.24,-245.5 691.36,-238.83"/>
</a>
</g>
</g>
<!-- Node26 -->
<g id="Node000026" class="node">
<title>Node26</title>
<g id="a_Node000026"><a xlink:href="TestHelpers_8h.html" target="_top" xlink:title=" ">
<polygon fill="white" stroke="#666666" points="682.5,-294 542.5,-294 542.5,-275 682.5,-275 682.5,-294"/>
<text text-anchor="middle" x="612.5" y="-282" font-family="Helvetica,sans-Serif" font-size="10.00">Application/TestHelpers.h</text>
</a>
</g>
</g>
<!-- Node1&#45;&gt;Node26 -->
<g id="edge33_Node000001_Node000026" class="edge">
<title>Node1&#45;&gt;Node26</title>
<g id="a_edge33_Node000001_Node000026"><a xlink:title=" ">
<path fill="none" stroke="#63b8ff" d="M929.31,-331.95C855.97,-321.2 749.82,-305.63 680.98,-295.54"/>
<polygon fill="#63b8ff" stroke="#63b8ff" points="681.09,-292.02 670.68,-294.03 680.07,-298.94 681.09,-292.02"/>
</a>
</g>
</g>
<!-- Node27 -->
<g id="Node000027" class="node">
<title>Node27</title>
<g id="a_Node000027"><a xlink:href="MathHelpers_8h.html" target="_top" xlink:title=" ">
<polygon fill="white" stroke="#666666" points="1068,-294 955,-294 955,-275 1068,-275 1068,-294"/>
<text text-anchor="middle" x="1011.5" y="-282" font-family="Helvetica,sans-Serif" font-size="10.00">Core/MathHelpers.h</text>
</a>
</g>
</g>
<!-- Node1&#45;&gt;Node27 -->
<g id="edge37_Node000001_Node000027" class="edge">
<title>Node1&#45;&gt;Node27</title>
<g id="a_edge37_Node000001_Node000027"><a xlink:title=" ">
<path fill="none" stroke="#63b8ff" d="M1011.5,-329.84C1011.5,-322.21 1011.5,-312.7 1011.5,-304.45"/>
<polygon fill="#63b8ff" stroke="#63b8ff" points="1015,-304.27 1011.5,-294.27 1008,-304.27 1015,-304.27"/>
</a>
</g>
</g>
<!-- Node30 -->
<g id="Node000030" class="node">
<title>Node30</title>
<g id="a_Node000030"><a xlink:href="PrintHelpers_8h.html" target="_top" xlink:title=" ">
<polygon fill="white" stroke="#666666" points="1197,-294 1086,-294 1086,-275 1197,-275 1197,-294"/>
<text text-anchor="middle" x="1141.5" y="-282" font-family="Helvetica,sans-Serif" font-size="10.00">Core/PrintHelpers.h</text>
</a>
</g>
</g>
<!-- Node1&#45;&gt;Node30 -->
<g id="edge41_Node000001_Node000030" class="edge">
<title>Node1&#45;&gt;Node30</title>
<g id="a_edge41_Node000001_Node000030"><a xlink:title=" ">
<path fill="none" stroke="#63b8ff" d="M1042.64,-329.99C1064.04,-320.36 1092.23,-307.67 1113.03,-298.31"/>
<polygon fill="#63b8ff" stroke="#63b8ff" points="1114.62,-301.43 1122.3,-294.14 1111.75,-295.05 1114.62,-301.43"/>
</a>
</g>
</g>
<!-- Node34 -->
<g id="Node000034" class="node">
<title>Node34</title>
<g id="a_Node000034"><a xlink:title=" ">
<polygon fill="#e0e0e0" stroke="#999999" points="1293.5,-294 1215.5,-294 1215.5,-275 1293.5,-275 1293.5,-294"/>
<text text-anchor="middle" x="1254.5" y="-282" font-family="Helvetica,sans-Serif" font-size="10.00">gtest/gtest.h</text>
</a>
</g>
</g>
<!-- Node1&#45;&gt;Node34 -->
<g id="edge45_Node000001_Node000034" class="edge">
<title>Node1&#45;&gt;Node34</title>
<g id="a_edge45_Node000001_Node000034"><a xlink:title=" ">
<path fill="none" stroke="#63b8ff" d="M1069.7,-329.99C1112.46,-319.7 1169.72,-305.91 1209.11,-296.43"/>
<polygon fill="#63b8ff" stroke="#63b8ff" points="1210.07,-299.8 1218.97,-294.05 1208.43,-292.99 1210.07,-299.8"/>
</a>
</g>
</g>
<!-- Node35 -->
<g id="Node000035" class="node">
<title>Node35</title>
<g id="a_Node000035"><a xlink:title=" ">
<polygon fill="#e0e0e0" stroke="#999999" points="1367,-294 1312,-294 1312,-275 1367,-275 1367,-294"/>
<text text-anchor="middle" x="1339.5" y="-282" font-family="Helvetica,sans-Serif" font-size="10.00">fstream</text>
</a>
</g>
</g>
<!-- Node1&#45;&gt;Node35 -->
<g id="edge47_Node000001_Node000035" class="edge">
<title>Node1&#45;&gt;Node35</title>
<g id="a_edge47_Node000001_Node000035"><a xlink:title=" ">
<path fill="none" stroke="#63b8ff" d="M1093.57,-331.15C1149.48,-322.1 1225.4,-309.25 1301.42,-294.12"/>
<polygon fill="#63b8ff" stroke="#63b8ff" points="1302.54,-297.47 1311.66,-292.07 1301.16,-290.6 1302.54,-297.47"/>
</a>
</g>
</g>
<!-- Node36 -->
<g id="Node000036" class="node">
<title>Node36</title>
<g id="a_Node000036"><a xlink:title=" ">
<polygon fill="#e0e0e0" stroke="#999999" points="1441.5,-294 1385.5,-294 1385.5,-275 1441.5,-275 1441.5,-294"/>
<text text-anchor="middle" x="1413.5" y="-282" font-family="Helvetica,sans-Serif" font-size="10.00">sstream</text>
</a>
</g>
</g>
<!-- Node1&#45;&gt;Node36 -->
<g id="edge48_Node000001_Node000036" class="edge">
<title>Node1&#45;&gt;Node36</title>
<g id="a_edge48_Node000001_Node000036"><a xlink:title=" ">
<path fill="none" stroke="#63b8ff" d="M1093.74,-334.87C1165.62,-326.4 1272.96,-312.57 1375.38,-294.06"/>
<polygon fill="#63b8ff" stroke="#63b8ff" points="1376.06,-297.5 1385.27,-292.26 1374.81,-290.61 1376.06,-297.5"/>
</a>
</g>
</g>
<!-- Node37 -->
<g id="Node000037" class="node">
<title>Node37</title>
<g id="a_Node000037"><a xlink:title=" ">
<polygon fill="#e0e0e0" stroke="#999999" points="1533,-294 1460,-294 1460,-275 1533,-275 1533,-294"/>
<text text-anchor="middle" x="1496.5" y="-282" font-family="Helvetica,sans-Serif" font-size="10.00">string_view</text>
</a>
</g>
</g>
<!-- Node1&#45;&gt;Node37 -->
<g id="edge49_Node000001_Node000037" class="edge">
<title>Node1&#45;&gt;Node37</title>
<g id="a_edge49_Node000001_Node000037"><a xlink:title=" ">
<path fill="none" stroke="#63b8ff" d="M1093.85,-336.34C1179.99,-327.94 1319.35,-313.24 1449.71,-294.02"/>
<polygon fill="#63b8ff" stroke="#63b8ff" points="1450.5,-297.44 1459.88,-292.5 1449.47,-290.51 1450.5,-297.44"/>
</a>
</g>
</g>
<!-- Node3 -->
<g id="Node000003" class="node">
<title>Node3</title>
<g id="a_Node000003"><a xlink:href="BaseTypes_8h.html" target="_top" xlink:title=" ">
<polygon fill="white" stroke="#666666" points="702,-74 599,-74 599,-55 702,-55 702,-74"/>
<text text-anchor="middle" x="650.5" y="-62" font-family="Helvetica,sans-Serif" font-size="10.00">Core/BaseTypes.h</text>
</a>
</g>
</g>
<!-- Node2&#45;&gt;Node3 -->
<g id="edge2_Node000002_Node000003" class="edge">
<title>Node2&#45;&gt;Node3</title>
<g id="a_edge2_Node000002_Node000003"><a xlink:title=" ">
<path fill="none" stroke="#63b8ff" d="M302.69,-164.93C342.88,-157.64 399.03,-145.67 446.5,-129 464.69,-122.61 467.44,-116.76 485.5,-110 523.27,-95.85 567.45,-84.18 600.59,-76.35"/>
<polygon fill="#63b8ff" stroke="#63b8ff" points="601.55,-79.72 610.5,-74.04 599.96,-72.9 601.55,-79.72"/>
</a>
</g>
</g>
<!-- Node13 -->
<g id="Node000013" class="node">
<title>Node13</title>
<g id="a_Node000013"><a xlink:title=" ">
<polygon fill="#e0e0e0" stroke="#999999" points="312.5,-74 270.5,-74 270.5,-55 312.5,-55 312.5,-74"/>
<text text-anchor="middle" x="291.5" y="-62" font-family="Helvetica,sans-Serif" font-size="10.00">array</text>
</a>
</g>
</g>
<!-- Node2&#45;&gt;Node13 -->
<g id="edge12_Node000002_Node000013" class="edge">
<title>Node2&#45;&gt;Node13</title>
<g id="a_edge12_Node000002_Node000013"><a xlink:title=" ">
<path fill="none" stroke="#63b8ff" d="M228.66,-164.96C204.36,-153.72 169.35,-132.7 184.5,-110 193.3,-96.81 231.84,-82.99 260.15,-74.32"/>
<polygon fill="#63b8ff" stroke="#63b8ff" points="261.46,-77.58 270.04,-71.37 259.46,-70.87 261.46,-77.58"/>
</a>
</g>
</g>
<!-- Node14 -->
<g id="Node000014" class="node">
<title>Node14</title>
<g id="a_Node000014"><a xlink:title=" ">
<polygon fill="#e0e0e0" stroke="#999999" points="137.5,-129 93.5,-129 93.5,-110 137.5,-110 137.5,-129"/>
<text text-anchor="middle" x="115.5" y="-117" font-family="Helvetica,sans-Serif" font-size="10.00">string</text>
</a>
</g>
</g>
<!-- Node2&#45;&gt;Node14 -->
<g id="edge13_Node000002_Node000014" class="edge">
<title>Node2&#45;&gt;Node14</title>
<g id="a_edge13_Node000002_Node000014"><a xlink:title=" ">
<path fill="none" stroke="#63b8ff" d="M227.97,-164.98C206.03,-156.3 171.76,-142.75 146.81,-132.88"/>
<polygon fill="#63b8ff" stroke="#63b8ff" points="148.01,-129.59 137.42,-129.17 145.43,-136.1 148.01,-129.59"/>
</a>
</g>
</g>
<!-- Node15 -->
<g id="Node000015" class="node">
<title>Node15</title>
<g id="a_Node000015"><a xlink:title=" ">
<polygon fill="#e0e0e0" stroke="#999999" points="241,-129 194,-129 194,-110 241,-110 241,-129"/>
<text text-anchor="middle" x="217.5" y="-117" font-family="Helvetica,sans-Serif" font-size="10.00">vector</text>
</a>
</g>
</g>
<!-- Node2&#45;&gt;Node15 -->
<g id="edge14_Node000002_Node000015" class="edge">
<title>Node2&#45;&gt;Node15</title>
<g id="a_edge14_Node000002_Node000015"><a xlink:title=" ">
<path fill="none" stroke="#63b8ff" d="M244.22,-164.75C239.79,-157.42 233.34,-146.73 227.88,-137.7"/>
<polygon fill="#63b8ff" stroke="#63b8ff" points="230.85,-135.84 222.69,-129.09 224.86,-139.46 230.85,-135.84"/>
</a>
</g>
</g>
<!-- Node4 -->
<g id="Node000004" class="node">
<title>Node4</title>
<g id="a_Node000004"><a xlink:title=" ">
<polygon fill="#e0e0e0" stroke="#999999" points="728.5,-19 650.5,-19 650.5,0 728.5,0 728.5,-19"/>
<text text-anchor="middle" x="689.5" y="-7" font-family="Helvetica,sans-Serif" font-size="10.00">glm/glm.hpp</text>
</a>
</g>
</g>
<!-- Node3&#45;&gt;Node4 -->
<g id="edge3_Node000003_Node000004" class="edge">
<title>Node3&#45;&gt;Node4</title>
<g id="a_edge3_Node000003_Node000004"><a xlink:title=" ">
<path fill="none" stroke="#63b8ff" d="M656.94,-54.75C662.39,-47.34 670.36,-36.5 677.06,-27.41"/>
<polygon fill="#63b8ff" stroke="#63b8ff" points="680.07,-29.22 683.18,-19.09 674.43,-25.07 680.07,-29.22"/>
</a>
</g>
</g>
<!-- Node5 -->
<g id="Node000005" class="node">
<title>Node5</title>
<g id="a_Node000005"><a xlink:title=" ">
<polygon fill="#e0e0e0" stroke="#999999" points="910,-19 747,-19 747,0 910,0 910,-19"/>
<text text-anchor="middle" x="828.5" y="-7" font-family="Helvetica,sans-Serif" font-size="10.00">glm/gtc/matrix_transform.hpp</text>
</a>
</g>
</g>
<!-- Node3&#45;&gt;Node5 -->
<g id="edge4_Node000003_Node000005" class="edge">
<title>Node3&#45;&gt;Node5</title>
<g id="a_edge4_Node000003_Node000005"><a xlink:title=" ">
<path fill="none" stroke="#63b8ff" d="M679.1,-54.98C709.11,-46.05 756.48,-31.94 789.82,-22.02"/>
<polygon fill="#63b8ff" stroke="#63b8ff" points="791.09,-25.29 799.68,-19.08 789.09,-18.58 791.09,-25.29"/>
</a>
</g>
</g>
<!-- Node6 -->
<g id="Node000006" class="node">
<title>Node6</title>
<g id="a_Node000006"><a xlink:title=" ">
<polygon fill="#e0e0e0" stroke="#999999" points="1058.5,-19 928.5,-19 928.5,0 1058.5,0 1058.5,-19"/>
<text text-anchor="middle" x="993.5" y="-7" font-family="Helvetica,sans-Serif" font-size="10.00">glm/gtc/quaternion.hpp</text>
</a>
</g>
</g>
<!-- Node3&#45;&gt;Node6 -->
<g id="edge5_Node000003_Node000006" class="edge">
<title>Node3&#45;&gt;Node6</title>
<g id="a_edge5_Node000003_Node000006"><a xlink:title=" ">
<path fill="none" stroke="#63b8ff" d="M702.22,-55.51C762.53,-46.19 862.32,-30.77 927.99,-20.62"/>
<polygon fill="#63b8ff" stroke="#63b8ff" points="928.88,-24.03 938.23,-19.04 927.81,-17.11 928.88,-24.03"/>
</a>
</g>
</g>
<!-- Node7 -->
<g id="Node000007" class="node">
<title>Node7</title>
<g id="a_Node000007"><a xlink:title=" ">
<polygon fill="#e0e0e0" stroke="#999999" points="117,-19 0,-19 0,0 117,0 117,-19"/>
<text text-anchor="middle" x="58.5" y="-7" font-family="Helvetica,sans-Serif" font-size="10.00">glm/gtc/type_ptr.hpp</text>
</a>
</g>
</g>
<!-- Node3&#45;&gt;Node7 -->
<g id="edge6_Node000003_Node000007" class="edge">
<title>Node3&#45;&gt;Node7</title>
<g id="a_edge6_Node000003_Node000007"><a xlink:title=" ">
<path fill="none" stroke="#63b8ff" d="M598.64,-59.82C506.1,-53.11 306.16,-37.88 127.42,-19.17"/>
<polygon fill="#63b8ff" stroke="#63b8ff" points="127.62,-15.67 117.31,-18.1 126.89,-22.63 127.62,-15.67"/>
</a>
</g>
</g>
<!-- Node8 -->
<g id="Node000008" class="node">
<title>Node8</title>
<g id="a_Node000008"><a xlink:title=" ">
<polygon fill="#e0e0e0" stroke="#999999" points="266,-19 135,-19 135,0 266,0 266,-19"/>
<text text-anchor="middle" x="200.5" y="-7" font-family="Helvetica,sans-Serif" font-size="10.00">glm/gtx/quaternion.hpp</text>
</a>
</g>
</g>
<!-- Node3&#45;&gt;Node8 -->
<g id="edge7_Node000003_Node000008" class="edge">
<title>Node3&#45;&gt;Node8</title>
<g id="a_edge7_Node000003_Node000008"><a xlink:title=" ">
<path fill="none" stroke="#63b8ff" d="M598.88,-57.42C519.66,-48.09 367.69,-30.19 276.07,-19.4"/>
<polygon fill="#63b8ff" stroke="#63b8ff" points="276.36,-15.91 266.02,-18.22 275.55,-22.86 276.36,-15.91"/>
</a>
</g>
</g>
<!-- Node9 -->
<g id="Node000009" class="node">
<title>Node9</title>
<g id="a_Node000009"><a xlink:title=" ">
<polygon fill="#e0e0e0" stroke="#999999" points="410.5,-19 284.5,-19 284.5,0 410.5,0 410.5,-19"/>
<text text-anchor="middle" x="347.5" y="-7" font-family="Helvetica,sans-Serif" font-size="10.00">glm/gtx/transform.hpp</text>
</a>
</g>
</g>
<!-- Node3&#45;&gt;Node9 -->
<g id="edge8_Node000003_Node000009" class="edge">
<title>Node3&#45;&gt;Node9</title>
<g id="a_edge8_Node000003_Node000009"><a xlink:title=" ">
<path fill="none" stroke="#63b8ff" d="M601.82,-54.98C548.56,-45.67 463.19,-30.74 406.25,-20.78"/>
<polygon fill="#63b8ff" stroke="#63b8ff" points="406.77,-17.31 396.31,-19.04 405.56,-24.21 406.77,-17.31"/>
</a>
</g>
</g>
<!-- Node10 -->
<g id="Node000010" class="node">
<title>Node10</title>
<g id="a_Node000010"><a xlink:title=" ">
<polygon fill="#e0e0e0" stroke="#999999" points="570,-19 429,-19 429,0 570,0 570,-19"/>
<text text-anchor="middle" x="499.5" y="-7" font-family="Helvetica,sans-Serif" font-size="10.00">glm/gtx/vector_angle.hpp</text>
</a>
</g>
</g>
<!-- Node3&#45;&gt;Node10 -->
<g id="edge9_Node000003_Node000010" class="edge">
<title>Node3&#45;&gt;Node10</title>
<g id="a_edge9_Node000003_Node000010"><a xlink:title=" ">
<path fill="none" stroke="#63b8ff" d="M626.24,-54.98C601.18,-46.19 561.87,-32.39 533.67,-22.49"/>
<polygon fill="#63b8ff" stroke="#63b8ff" points="534.8,-19.18 524.2,-19.17 532.48,-25.78 534.8,-19.18"/>
</a>
</g>
</g>
<!-- Node11 -->
<g id="Node000011" class="node">
<title>Node11</title>
<g id="a_Node000011"><a xlink:title=" ">
<polygon fill="#e0e0e0" stroke="#999999" points="632.5,-19 588.5,-19 588.5,0 632.5,0 632.5,-19"/>
<text text-anchor="middle" x="610.5" y="-7" font-family="Helvetica,sans-Serif" font-size="10.00">bitset</text>
</a>
</g>
</g>
<!-- Node3&#45;&gt;Node11 -->
<g id="edge10_Node000003_Node000011" class="edge">
<title>Node3&#45;&gt;Node11</title>
<g id="a_edge10_Node000003_Node000011"><a xlink:title=" ">
<path fill="none" stroke="#63b8ff" d="M643.89,-54.75C638.24,-47.26 629.96,-36.28 623.05,-27.13"/>
<polygon fill="#63b8ff" stroke="#63b8ff" points="625.8,-24.96 616.98,-19.09 620.21,-29.18 625.8,-24.96"/>
</a>
</g>
</g>
<!-- Node12 -->
<g id="Node000012" class="node">
<title>Node12</title>
<g id="a_Node000012"><a xlink:title=" ">
<polygon fill="#e0e0e0" stroke="#999999" points="1126.5,-19 1076.5,-19 1076.5,0 1126.5,0 1126.5,-19"/>
<text text-anchor="middle" x="1101.5" y="-7" font-family="Helvetica,sans-Serif" font-size="10.00">cstdint</text>
</a>
</g>
</g>
<!-- Node3&#45;&gt;Node12 -->
<g id="edge11_Node000003_Node000012" class="edge">
<title>Node3&#45;&gt;Node12</title>
<g id="a_edge11_Node000003_Node000012"><a xlink:title=" ">
<path fill="none" stroke="#63b8ff" d="M702.18,-60.3C779.38,-55.01 929.47,-42.77 1066.1,-19.01"/>
<polygon fill="#63b8ff" stroke="#63b8ff" points="1067.09,-22.39 1076.33,-17.2 1065.88,-15.5 1067.09,-22.39"/>
</a>
</g>
</g>
<!-- Node16&#45;&gt;Node3 -->
<g id="edge27_Node000016_Node000003" class="edge">
<title>Node16&#45;&gt;Node3</title>
<g id="a_edge27_Node000016_Node000003"><a xlink:title=" ">
<path fill="none" stroke="#63b8ff" d="M821.38,-219.74C815.73,-198.12 798.28,-141.67 763.5,-110 746.21,-94.25 722.68,-83.8 701.57,-77"/>
<polygon fill="#63b8ff" stroke="#63b8ff" points="702.35,-73.58 691.76,-74.05 700.33,-80.28 702.35,-73.58"/>
</a>
</g>
</g>
<!-- Node16&#45;&gt;Node12 -->
<g id="edge28_Node000016_Node000012" class="edge">
<title>Node16&#45;&gt;Node12</title>
<g id="a_edge28_Node000016_Node000012"><a xlink:title=" ">
<path fill="none" stroke="#63b8ff" d="M826.81,-219.84C832.13,-206.77 843.62,-181.73 859.5,-165 923.7,-97.34 1023.33,-46.05 1072.3,-23.35"/>
<polygon fill="#63b8ff" stroke="#63b8ff" points="1074.04,-26.4 1081.68,-19.06 1071.13,-20.04 1074.04,-26.4"/>
</a>
</g>
</g>
<!-- Node17 -->
<g id="Node000017" class="node">
<title>Node17</title>
<g id="a_Node000017"><a xlink:href="Mesh_8h.html" target="_top" xlink:title=" ">
<polygon fill="white" stroke="#666666" points="659.5,-184 549.5,-184 549.5,-165 659.5,-165 659.5,-184"/>
<text text-anchor="middle" x="604.5" y="-172" font-family="Helvetica,sans-Serif" font-size="10.00">Application/Mesh.h</text>
</a>
</g>
</g>
<!-- Node16&#45;&gt;Node17 -->
<g id="edge16_Node000016_Node000017" class="edge">
<title>Node16&#45;&gt;Node17</title>
<g id="a_edge16_Node000016_Node000017"><a xlink:title=" ">
<path fill="none" stroke="#63b8ff" d="M788.31,-219.98C750.67,-210.87 690.84,-196.4 649.73,-186.45"/>
<polygon fill="#63b8ff" stroke="#63b8ff" points="650.5,-183.03 639.96,-184.08 648.86,-189.84 650.5,-183.03"/>
</a>
</g>
</g>
<!-- Node16&#45;&gt;Node24 -->
<g id="edge29_Node000016_Node000024" class="edge">
<title>Node16&#45;&gt;Node24</title>
<g id="a_edge29_Node000016_Node000024"><a xlink:title=" ">
<path fill="none" stroke="#63b8ff" d="M836.19,-219.98C848.33,-211.84 866.86,-199.41 881.25,-189.76"/>
<polygon fill="#63b8ff" stroke="#63b8ff" points="883.22,-192.65 889.58,-184.17 879.32,-186.84 883.22,-192.65"/>
</a>
</g>
</g>
<!-- Node17&#45;&gt;Node3 -->
<g id="edge24_Node000017_Node000003" class="edge">
<title>Node17&#45;&gt;Node3</title>
<g id="a_edge24_Node000017_Node000003"><a xlink:title=" ">
<path fill="none" stroke="#63b8ff" d="M610.57,-164.99C616.55,-156.29 625.63,-142.21 631.5,-129 637.93,-114.52 642.94,-97.25 646.2,-84.38"/>
<polygon fill="#63b8ff" stroke="#63b8ff" points="649.67,-84.92 648.6,-74.38 642.86,-83.29 649.67,-84.92"/>
</a>
</g>
</g>
<!-- Node17&#45;&gt;Node15 -->
<g id="edge26_Node000017_Node000015" class="edge">
<title>Node17&#45;&gt;Node15</title>
<g id="a_edge26_Node000017_Node000015"><a xlink:title=" ">
<path fill="none" stroke="#63b8ff" d="M549.4,-168.92C481.35,-162.74 361.93,-150.22 251.18,-129.11"/>
<polygon fill="#63b8ff" stroke="#63b8ff" points="251.67,-125.64 241.18,-127.17 250.34,-132.51 251.67,-125.64"/>
</a>
</g>
</g>
<!-- Node18 -->
<g id="Node000018" class="node">
<title>Node18</title>
<g id="a_Node000018"><a xlink:href="ExtraDataContainer_8h.html" target="_top" xlink:title=" ">
<polygon fill="white" stroke="#666666" points="438,-129 259,-129 259,-110 438,-110 438,-129"/>
<text text-anchor="middle" x="348.5" y="-117" font-family="Helvetica,sans-Serif" font-size="10.00">Application/ExtraDataContainer.h</text>
</a>
</g>
</g>
<!-- Node17&#45;&gt;Node18 -->
<g id="edge17_Node000017_Node000018" class="edge">
<title>Node17&#45;&gt;Node18</title>
<g id="a_edge17_Node000017_Node000018"><a xlink:title=" ">
<path fill="none" stroke="#63b8ff" d="M563.37,-164.98C518.9,-155.78 447.95,-141.09 399.85,-131.13"/>
<polygon fill="#63b8ff" stroke="#63b8ff" points="400.46,-127.68 389.95,-129.08 399.04,-134.54 400.46,-127.68"/>
</a>
</g>
</g>
<!-- Node22 -->
<g id="Node000022" class="node">
<title>Node22</title>
<g id="a_Node000022"><a xlink:href="Primitive_8h.html" target="_top" xlink:title=" ">
<polygon fill="white" stroke="#666666" points="622.5,-129 494.5,-129 494.5,-110 622.5,-110 622.5,-129"/>
<text text-anchor="middle" x="558.5" y="-117" font-family="Helvetica,sans-Serif" font-size="10.00">Application/Primitive.h</text>
</a>
</g>
</g>
<!-- Node17&#45;&gt;Node22 -->
<g id="edge21_Node000017_Node000022" class="edge">
<title>Node17&#45;&gt;Node22</title>
<g id="a_edge21_Node000017_Node000022"><a xlink:title=" ">
<path fill="none" stroke="#63b8ff" d="M596.9,-164.75C590.34,-157.18 580.68,-146.05 572.69,-136.84"/>
<polygon fill="#63b8ff" stroke="#63b8ff" points="575.15,-134.35 565.95,-129.09 569.87,-138.94 575.15,-134.35"/>
</a>
</g>
</g>
<!-- Node23 -->
<g id="Node000023" class="node">
<title>Node23</title>
<g id="a_Node000023"><a xlink:title=" ">
<polygon fill="#e0e0e0" stroke="#999999" points="736.5,-129 678.5,-129 678.5,-110 736.5,-110 736.5,-129"/>
<text text-anchor="middle" x="707.5" y="-117" font-family="Helvetica,sans-Serif" font-size="10.00">memory</text>
</a>
</g>
</g>
<!-- Node17&#45;&gt;Node23 -->
<g id="edge25_Node000017_Node000023" class="edge">
<title>Node17&#45;&gt;Node23</title>
<g id="a_edge25_Node000017_Node000023"><a xlink:title=" ">
<path fill="none" stroke="#63b8ff" d="M621.05,-164.98C637.39,-156.57 662.63,-143.59 681.63,-133.81"/>
<polygon fill="#63b8ff" stroke="#63b8ff" points="683.36,-136.86 690.65,-129.17 680.16,-130.63 683.36,-136.86"/>
</a>
</g>
</g>
<!-- Node19 -->
<g id="Node000019" class="node">
<title>Node19</title>
<g id="a_Node000019"><a xlink:title=" ">
<polygon fill="#e0e0e0" stroke="#999999" points="366,-74 331,-74 331,-55 366,-55 366,-74"/>
<text text-anchor="middle" x="348.5" y="-62" font-family="Helvetica,sans-Serif" font-size="10.00">any</text>
</a>
</g>
</g>
<!-- Node18&#45;&gt;Node19 -->
<g id="edge18_Node000018_Node000019" class="edge">
<title>Node18&#45;&gt;Node19</title>
<g id="a_edge18_Node000018_Node000019"><a xlink:title=" ">
<path fill="none" stroke="#63b8ff" d="M348.5,-109.75C348.5,-102.8 348.5,-92.85 348.5,-84.13"/>
<polygon fill="#63b8ff" stroke="#63b8ff" points="352,-84.09 348.5,-74.09 345,-84.09 352,-84.09"/>
</a>
</g>
</g>
<!-- Node20 -->
<g id="Node000020" class="node">
<title>Node20</title>
<g id="a_Node000020"><a xlink:title=" ">
<polygon fill="#e0e0e0" stroke="#999999" points="449,-74 384,-74 384,-55 449,-55 449,-74"/>
<text text-anchor="middle" x="416.5" y="-62" font-family="Helvetica,sans-Serif" font-size="10.00">typeindex</text>
</a>
</g>
</g>
<!-- Node18&#45;&gt;Node20 -->
<g id="edge19_Node000018_Node000020" class="edge">
<title>Node18&#45;&gt;Node20</title>
<g id="a_edge19_Node000018_Node000020"><a xlink:title=" ">
<path fill="none" stroke="#63b8ff" d="M359.43,-109.98C369.58,-102.07 384.92,-90.11 397.15,-80.58"/>
<polygon fill="#63b8ff" stroke="#63b8ff" points="399.64,-83.08 405.38,-74.17 395.34,-77.56 399.64,-83.08"/>
</a>
</g>
</g>
<!-- Node21 -->
<g id="Node000021" class="node">
<title>Node21</title>
<g id="a_Node000021"><a xlink:title=" ">
<polygon fill="#e0e0e0" stroke="#999999" points="252,-74 159,-74 159,-55 252,-55 252,-74"/>
<text text-anchor="middle" x="205.5" y="-62" font-family="Helvetica,sans-Serif" font-size="10.00">unordered_map</text>
</a>
</g>
</g>
<!-- Node18&#45;&gt;Node21 -->
<g id="edge20_Node000018_Node000021" class="edge">
<title>Node18&#45;&gt;Node21</title>
<g id="a_edge20_Node000018_Node000021"><a xlink:title=" ">
<path fill="none" stroke="#63b8ff" d="M325.52,-109.98C302,-101.27 265.21,-87.63 238.56,-77.75"/>
<polygon fill="#63b8ff" stroke="#63b8ff" points="239.49,-74.36 228.89,-74.17 237.05,-80.93 239.49,-74.36"/>
</a>
</g>
</g>
<!-- Node22&#45;&gt;Node3 -->
<g id="edge22_Node000022_Node000003" class="edge">
<title>Node22&#45;&gt;Node3</title>
<g id="a_edge22_Node000022_Node000003"><a xlink:title=" ">
<path fill="none" stroke="#63b8ff" d="M573.28,-109.98C587.68,-101.69 609.81,-88.94 626.69,-79.22"/>
<polygon fill="#63b8ff" stroke="#63b8ff" points="628.53,-82.19 635.45,-74.17 625.04,-76.13 628.53,-82.19"/>
</a>
</g>
</g>
<!-- Node22&#45;&gt;Node13 -->
<g id="edge23_Node000022_Node000013" class="edge">
<title>Node22&#45;&gt;Node13</title>
<g id="a_edge23_Node000022_Node000013"><a xlink:title=" ">
<path fill="none" stroke="#63b8ff" d="M505.5,-109.96C459.54,-102.24 391.05,-89.97 322.81,-74.14"/>
<polygon fill="#63b8ff" stroke="#63b8ff" points="323.28,-70.65 312.74,-71.78 321.68,-77.47 323.28,-70.65"/>
</a>
</g>
</g>
<!-- Node25&#45;&gt;Node3 -->
<g id="edge32_Node000025_Node000003" class="edge">
<title>Node25&#45;&gt;Node3</title>
<g id="a_edge32_Node000025_Node000003"><a xlink:title=" ">
<path fill="none" stroke="#63b8ff" d="M669.29,-220C702.29,-201.08 773.31,-153.74 745.5,-110 735.62,-94.45 718.71,-84.25 701.88,-77.58"/>
<polygon fill="#63b8ff" stroke="#63b8ff" points="702.62,-74.13 692.03,-74.06 700.26,-80.72 702.62,-74.13"/>
</a>
</g>
</g>
<!-- Node25&#45;&gt;Node17 -->
<g id="edge31_Node000025_Node000017" class="edge">
<title>Node25&#45;&gt;Node17</title>
<g id="a_edge31_Node000025_Node000017"><a xlink:title=" ">
<path fill="none" stroke="#63b8ff" d="M645.41,-219.75C638.34,-212.11 627.91,-200.82 619.35,-191.56"/>
<polygon fill="#63b8ff" stroke="#63b8ff" points="621.8,-189.06 612.44,-184.09 616.66,-193.81 621.8,-189.06"/>
</a>
</g>
</g>
<!-- Node26&#45;&gt;Node2 -->
<g id="edge34_Node000026_Node000002" class="edge">
<title>Node26&#45;&gt;Node2</title>
<g id="a_edge34_Node000026_Node000002"><a xlink:title=" ">
<path fill="none" stroke="#63b8ff" d="M583.71,-274.94C518.85,-255.64 361.24,-208.74 288.04,-186.97"/>
<polygon fill="#63b8ff" stroke="#63b8ff" points="288.87,-183.56 278.29,-184.07 286.88,-190.27 288.87,-183.56"/>
</a>
</g>
</g>
<!-- Node26&#45;&gt;Node17 -->
<g id="edge35_Node000026_Node000017" class="edge">
<title>Node26&#45;&gt;Node17</title>
<g id="a_edge35_Node000026_Node000017"><a xlink:title=" ">
<path fill="none" stroke="#63b8ff" d="M599.01,-274.75C588.21,-266.87 573.85,-254.21 567.5,-239 560.34,-221.84 573.32,-203.64 585.84,-191.14"/>
<polygon fill="#63b8ff" stroke="#63b8ff" points="588.42,-193.52 593.38,-184.16 583.67,-188.38 588.42,-193.52"/>
</a>
</g>
</g>
<!-- Node26&#45;&gt;Node25 -->
<g id="edge36_Node000026_Node000025" class="edge">
<title>Node26&#45;&gt;Node25</title>
<g id="a_edge36_Node000026_Node000025"><a xlink:title=" ">
<path fill="none" stroke="#63b8ff" d="M619.27,-274.75C625.06,-267.26 633.56,-256.28 640.64,-247.13"/>
<polygon fill="#63b8ff" stroke="#63b8ff" points="643.51,-249.14 646.86,-239.09 637.97,-244.86 643.51,-249.14"/>
</a>
</g>
</g>
<!-- Node27&#45;&gt;Node3 -->
<g id="edge38_Node000027_Node000003" class="edge">
<title>Node27&#45;&gt;Node3</title>
<g id="a_edge38_Node000027_Node000003"><a xlink:title=" ">
<path fill="none" stroke="#63b8ff" d="M1005.69,-274.77C999.86,-265.9 990.73,-251.69 983.5,-239 965.19,-206.88 973.45,-189.2 945.5,-165 878.79,-107.23 777.19,-82.68 712.33,-72.47"/>
<polygon fill="#63b8ff" stroke="#63b8ff" points="712.65,-68.98 702.24,-70.95 711.61,-75.9 712.65,-68.98"/>
</a>
</g>
</g>
<!-- Node28 -->
<g id="Node000028" class="node">
<title>Node28</title>
<g id="a_Node000028"><a xlink:title=" ">
<polygon fill="#e0e0e0" stroke="#999999" points="1040,-239 993,-239 993,-220 1040,-220 1040,-239"/>
<text text-anchor="middle" x="1016.5" y="-227" font-family="Helvetica,sans-Serif" font-size="10.00">cmath</text>
</a>
</g>
</g>
<!-- Node27&#45;&gt;Node28 -->
<g id="edge39_Node000027_Node000028" class="edge">
<title>Node27&#45;&gt;Node28</title>
<g id="a_edge39_Node000027_Node000028"><a xlink:title=" ">
<path fill="none" stroke="#63b8ff" d="M1012.33,-274.75C1012.98,-267.8 1013.92,-257.85 1014.74,-249.13"/>
<polygon fill="#63b8ff" stroke="#63b8ff" points="1018.23,-249.37 1015.69,-239.09 1011.27,-248.72 1018.23,-249.37"/>
</a>
</g>
</g>
<!-- Node29 -->
<g id="Node000029" class="node">
<title>Node29</title>
<g id="a_Node000029"><a xlink:title=" ">
<polygon fill="#e0e0e0" stroke="#999999" points="1102.5,-239 1058.5,-239 1058.5,-220 1102.5,-220 1102.5,-239"/>
<text text-anchor="middle" x="1080.5" y="-227" font-family="Helvetica,sans-Serif" font-size="10.00">limits</text>
</a>
</g>
</g>
<!-- Node27&#45;&gt;Node29 -->
<g id="edge40_Node000027_Node000029" class="edge">
<title>Node27&#45;&gt;Node29</title>
<g id="a_edge40_Node000027_Node000029"><a xlink:title=" ">
<path fill="none" stroke="#63b8ff" d="M1022.59,-274.98C1032.99,-267 1048.76,-254.88 1061.22,-245.31"/>
<polygon fill="#63b8ff" stroke="#63b8ff" points="1063.41,-248.04 1069.21,-239.17 1059.15,-242.49 1063.41,-248.04"/>
</a>
</g>
</g>
<!-- Node31 -->
<g id="Node000031" class="node">
<title>Node31</title>
<g id="a_Node000031"><a xlink:title=" ">
<polygon fill="#e0e0e0" stroke="#999999" points="1170.5,-239 1120.5,-239 1120.5,-220 1170.5,-220 1170.5,-239"/>
<text text-anchor="middle" x="1145.5" y="-227" font-family="Helvetica,sans-Serif" font-size="10.00">format</text>
</a>
</g>
</g>
<!-- Node30&#45;&gt;Node31 -->
<g id="edge42_Node000030_Node000031" class="edge">
<title>Node30&#45;&gt;Node31</title>
<g id="a_edge42_Node000030_Node000031"><a xlink:title=" ">
<path fill="none" stroke="#63b8ff" d="M1142.16,-274.75C1142.68,-267.8 1143.44,-257.85 1144.09,-249.13"/>
<polygon fill="#63b8ff" stroke="#63b8ff" points="1147.59,-249.32 1144.85,-239.09 1140.61,-248.8 1147.59,-249.32"/>
</a>
</g>
</g>
<!-- Node32 -->
<g id="Node000032" class="node">
<title>Node32</title>
<g id="a_Node000032"><a xlink:title=" ">
<polygon fill="#e0e0e0" stroke="#999999" points="1248.5,-239 1188.5,-239 1188.5,-220 1248.5,-220 1248.5,-239"/>
<text text-anchor="middle" x="1218.5" y="-227" font-family="Helvetica,sans-Serif" font-size="10.00">iostream</text>
</a>
</g>
</g>
<!-- Node30&#45;&gt;Node32 -->
<g id="edge43_Node000030_Node000032" class="edge">
<title>Node30&#45;&gt;Node32</title>
<g id="a_edge43_Node000030_Node000032"><a xlink:title=" ">
<path fill="none" stroke="#63b8ff" d="M1153.87,-274.98C1165.59,-266.92 1183.42,-254.65 1197.39,-245.03"/>
<polygon fill="#63b8ff" stroke="#63b8ff" points="1199.65,-247.72 1205.9,-239.17 1195.68,-241.96 1199.65,-247.72"/>
</a>
</g>
</g>
<!-- Node33 -->
<g id="Node000033" class="node">
<title>Node33</title>
<g id="a_Node000033"><a xlink:title=" ">
<polygon fill="#e0e0e0" stroke="#999999" points="1360,-239 1267,-239 1267,-220 1360,-220 1360,-239"/>
<text text-anchor="middle" x="1313.5" y="-227" font-family="Helvetica,sans-Serif" font-size="10.00">source_location</text>
</a>
</g>
</g>
<!-- Node30&#45;&gt;Node33 -->
<g id="edge44_Node000030_Node000033" class="edge">
<title>Node30&#45;&gt;Node33</title>
<g id="a_edge44_Node000030_Node000033"><a xlink:title=" ">
<path fill="none" stroke="#63b8ff" d="M1169.13,-274.98C1198.01,-266.09 1243.51,-252.07 1275.7,-242.15"/>
<polygon fill="#63b8ff" stroke="#63b8ff" points="1277.12,-245.37 1285.65,-239.08 1275.06,-238.68 1277.12,-245.37"/>
</a>
</g>
</g>
</g>
</svg>
