<?xml version="1.0" encoding="UTF-8" standalone="no"?>
<!DOCTYPE svg PUBLIC "-//W3C//DTD SVG 1.1//EN"
 "http://www.w3.org/Graphics/SVG/1.1/DTD/svg11.dtd">
<!-- Generated by graphviz version 2.43.0 (0)
 -->
<!-- Title: App/Test/Source/PrimitiveProxy_utest.cpp Pages: 1 -->
<svg width="1201pt" height="368pt"
 viewBox="0.00 0.00 1200.50 368.00" xmlns="http://www.w3.org/2000/svg" xmlns:xlink="http://www.w3.org/1999/xlink">
<g id="graph0" class="graph" transform="scale(1 1) rotate(0) translate(4 364)">
<title>App/Test/Source/PrimitiveProxy_utest.cpp</title>
<!-- Node1 -->
<g id="Node000001" class="node">
<title>Node1</title>
<g id="a_Node000001"><a xlink:title=" ">
<polygon fill="#999999" stroke="#666666" points="926.5,-360 785.5,-360 785.5,-330 926.5,-330 926.5,-360"/>
<text text-anchor="start" x="793.5" y="-348" font-family="Helvetica,sans-Serif" font-size="10.00">App/Test/Source/Primitive</text>
<text text-anchor="middle" x="856" y="-337" font-family="Helvetica,sans-Serif" font-size="10.00">Proxy_utest.cpp</text>
</a>
</g>
</g>
<!-- Node2 -->
<g id="Node000002" class="node">
<title>Node2</title>
<g id="a_Node000002"><a xlink:href="PrimitiveProxy_8h.html" target="_top" xlink:title=" ">
<polygon fill="white" stroke="#666666" points="830,-239 676,-239 676,-220 830,-220 830,-239"/>
<text text-anchor="middle" x="753" y="-227" font-family="Helvetica,sans-Serif" font-size="10.00">Application/PrimitiveProxy.h</text>
</a>
</g>
</g>
<!-- Node1&#45;&gt;Node2 -->
<g id="edge1_Node000001_Node000002" class="edge">
<title>Node1&#45;&gt;Node2</title>
<g id="a_edge1_Node000001_Node000002"><a xlink:title=" ">
<path fill="none" stroke="#63b8ff" d="M824.01,-329.86C808.04,-321.42 789.51,-309.35 777,-294 766.41,-281.01 760.18,-262.86 756.73,-249.29"/>
<polygon fill="#63b8ff" stroke="#63b8ff" points="760.07,-248.17 754.46,-239.18 753.24,-249.71 760.07,-248.17"/>
</a>
</g>
</g>
<!-- Node22 -->
<g id="Node000022" class="node">
<title>Node22</title>
<g id="a_Node000022"><a xlink:href="TestHelpers_8h.html" target="_top" xlink:title=" ">
<polygon fill="white" stroke="#666666" points="926,-294 786,-294 786,-275 926,-275 926,-294"/>
<text text-anchor="middle" x="856" y="-282" font-family="Helvetica,sans-Serif" font-size="10.00">Application/TestHelpers.h</text>
</a>
</g>
</g>
<!-- Node1&#45;&gt;Node22 -->
<g id="edge24_Node000001_Node000022" class="edge">
<title>Node1&#45;&gt;Node22</title>
<g id="a_edge24_Node000001_Node000022"><a xlink:title=" ">
<path fill="none" stroke="#63b8ff" d="M856,-329.84C856,-322.21 856,-312.7 856,-304.45"/>
<polygon fill="#63b8ff" stroke="#63b8ff" points="859.5,-304.27 856,-294.27 852.5,-304.27 859.5,-304.27"/>
</a>
</g>
</g>
<!-- Node25 -->
<g id="Node000025" class="node">
<title>Node25</title>
<g id="a_Node000025"><a xlink:title=" ">
<polygon fill="#e0e0e0" stroke="#999999" points="1022,-294 944,-294 944,-275 1022,-275 1022,-294"/>
<text text-anchor="middle" x="983" y="-282" font-family="Helvetica,sans-Serif" font-size="10.00">gtest/gtest.h</text>
</a>
</g>
</g>
<!-- Node1&#45;&gt;Node25 -->
<g id="edge32_Node000001_Node000025" class="edge">
<title>Node1&#45;&gt;Node25</title>
<g id="a_edge32_Node000001_Node000025"><a xlink:title=" ">
<path fill="none" stroke="#63b8ff" d="M886.42,-329.99C907.23,-320.4 934.62,-307.79 954.91,-298.44"/>
<polygon fill="#63b8ff" stroke="#63b8ff" points="956.63,-301.5 964.24,-294.14 953.7,-295.14 956.63,-301.5"/>
</a>
</g>
</g>
<!-- Node3 -->
<g id="Node000003" class="node">
<title>Node3</title>
<g id="a_Node000003"><a xlink:href="Mesh_8h.html" target="_top" xlink:title=" ">
<polygon fill="white" stroke="#666666" points="849,-184 739,-184 739,-165 849,-165 849,-184"/>
<text text-anchor="middle" x="794" y="-172" font-family="Helvetica,sans-Serif" font-size="10.00">Application/Mesh.h</text>
</a>
</g>
</g>
<!-- Node2&#45;&gt;Node3 -->
<g id="edge2_Node000002_Node000003" class="edge">
<title>Node2&#45;&gt;Node3</title>
<g id="a_edge2_Node000002_Node000003"><a xlink:title=" ">
<path fill="none" stroke="#63b8ff" d="M759.77,-219.75C765.56,-212.26 774.06,-201.28 781.14,-192.13"/>
<polygon fill="#63b8ff" stroke="#63b8ff" points="784.01,-194.14 787.36,-184.09 778.47,-189.86 784.01,-194.14"/>
</a>
</g>
</g>
<!-- Node9 -->
<g id="Node000009" class="node">
<title>Node9</title>
<g id="a_Node000009"><a xlink:href="BaseTypes_8h.html" target="_top" xlink:title=" ">
<polygon fill="white" stroke="#666666" points="832.5,-74 729.5,-74 729.5,-55 832.5,-55 832.5,-74"/>
<text text-anchor="middle" x="781" y="-62" font-family="Helvetica,sans-Serif" font-size="10.00">Core/BaseTypes.h</text>
</a>
</g>
</g>
<!-- Node2&#45;&gt;Node9 -->
<g id="edge23_Node000002_Node000009" class="edge">
<title>Node2&#45;&gt;Node9</title>
<g id="a_edge23_Node000002_Node000009"><a xlink:title=" ">
<path fill="none" stroke="#63b8ff" d="M743.38,-219.85C722.3,-199.83 675.76,-149.05 699,-110 707.92,-95.02 723.84,-84.76 739.29,-77.91"/>
<polygon fill="#63b8ff" stroke="#63b8ff" points="740.83,-81.07 748.79,-74.08 738.2,-74.58 740.83,-81.07"/>
</a>
</g>
</g>
<!-- Node4 -->
<g id="Node000004" class="node">
<title>Node4</title>
<g id="a_Node000004"><a xlink:href="ExtraDataContainer_8h.html" target="_top" xlink:title=" ">
<polygon fill="white" stroke="#666666" points="651.5,-129 472.5,-129 472.5,-110 651.5,-110 651.5,-129"/>
<text text-anchor="middle" x="562" y="-117" font-family="Helvetica,sans-Serif" font-size="10.00">Application/ExtraDataContainer.h</text>
</a>
</g>
</g>
<!-- Node3&#45;&gt;Node4 -->
<g id="edge3_Node000003_Node000004" class="edge">
<title>Node3&#45;&gt;Node4</title>
<g id="a_edge3_Node000003_Node000004"><a xlink:title=" ">
<path fill="none" stroke="#63b8ff" d="M756.73,-164.98C716.68,-155.84 652.93,-141.27 609.36,-131.32"/>
<polygon fill="#63b8ff" stroke="#63b8ff" points="610.1,-127.9 599.57,-129.08 608.54,-134.72 610.1,-127.9"/>
</a>
</g>
</g>
<!-- Node8 -->
<g id="Node000008" class="node">
<title>Node8</title>
<g id="a_Node000008"><a xlink:href="Primitive_8h.html" target="_top" xlink:title=" ">
<polygon fill="white" stroke="#666666" points="950,-129 822,-129 822,-110 950,-110 950,-129"/>
<text text-anchor="middle" x="886" y="-117" font-family="Helvetica,sans-Serif" font-size="10.00">Application/Primitive.h</text>
</a>
</g>
</g>
<!-- Node3&#45;&gt;Node8 -->
<g id="edge7_Node000003_Node000008" class="edge">
<title>Node3&#45;&gt;Node8</title>
<g id="a_edge7_Node000003_Node000008"><a xlink:title=" ">
<path fill="none" stroke="#63b8ff" d="M808.78,-164.98C823.18,-156.69 845.31,-143.94 862.19,-134.22"/>
<polygon fill="#63b8ff" stroke="#63b8ff" points="864.03,-137.19 870.95,-129.17 860.54,-131.13 864.03,-137.19"/>
</a>
</g>
</g>
<!-- Node3&#45;&gt;Node9 -->
<g id="edge20_Node000003_Node000009" class="edge">
<title>Node3&#45;&gt;Node9</title>
<g id="a_edge20_Node000003_Node000009"><a xlink:title=" ">
<path fill="none" stroke="#63b8ff" d="M792.94,-164.66C790.83,-147.17 786.09,-107.8 783.26,-84.27"/>
<polygon fill="#63b8ff" stroke="#63b8ff" points="786.71,-83.67 782.04,-74.16 779.76,-84.51 786.71,-83.67"/>
</a>
</g>
</g>
<!-- Node19 -->
<g id="Node000019" class="node">
<title>Node19</title>
<g id="a_Node000019"><a xlink:title=" ">
<polygon fill="#e0e0e0" stroke="#999999" points="1192.5,-19 1145.5,-19 1145.5,0 1192.5,0 1192.5,-19"/>
<text text-anchor="middle" x="1169" y="-7" font-family="Helvetica,sans-Serif" font-size="10.00">vector</text>
</a>
</g>
</g>
<!-- Node3&#45;&gt;Node19 -->
<g id="edge22_Node000003_Node000019" class="edge">
<title>Node3&#45;&gt;Node19</title>
<g id="a_edge22_Node000003_Node000019"><a xlink:title=" ">
<path fill="none" stroke="#63b8ff" d="M845.69,-164.99C879.19,-158.19 923.11,-146.78 959,-129 1007.27,-105.08 1008.1,-81.51 1055,-55 1080.78,-40.43 1112.28,-28.53 1135.63,-20.72"/>
<polygon fill="#63b8ff" stroke="#63b8ff" points="1137,-23.96 1145.41,-17.52 1134.82,-17.3 1137,-23.96"/>
</a>
</g>
</g>
<!-- Node21 -->
<g id="Node000021" class="node">
<title>Node21</title>
<g id="a_Node000021"><a xlink:title=" ">
<polygon fill="#e0e0e0" stroke="#999999" points="766,-129 708,-129 708,-110 766,-110 766,-129"/>
<text text-anchor="middle" x="737" y="-117" font-family="Helvetica,sans-Serif" font-size="10.00">memory</text>
</a>
</g>
</g>
<!-- Node3&#45;&gt;Node21 -->
<g id="edge21_Node000003_Node000021" class="edge">
<title>Node3&#45;&gt;Node21</title>
<g id="a_edge21_Node000003_Node000021"><a xlink:title=" ">
<path fill="none" stroke="#63b8ff" d="M784.84,-164.98C776.5,-157.23 763.97,-145.58 753.82,-136.14"/>
<polygon fill="#63b8ff" stroke="#63b8ff" points="756.03,-133.42 746.32,-129.17 751.26,-138.54 756.03,-133.42"/>
</a>
</g>
</g>
<!-- Node5 -->
<g id="Node000005" class="node">
<title>Node5</title>
<g id="a_Node000005"><a xlink:title=" ">
<polygon fill="#e0e0e0" stroke="#999999" points="579.5,-74 544.5,-74 544.5,-55 579.5,-55 579.5,-74"/>
<text text-anchor="middle" x="562" y="-62" font-family="Helvetica,sans-Serif" font-size="10.00">any</text>
</a>
</g>
</g>
<!-- Node4&#45;&gt;Node5 -->
<g id="edge4_Node000004_Node000005" class="edge">
<title>Node4&#45;&gt;Node5</title>
<g id="a_edge4_Node000004_Node000005"><a xlink:title=" ">
<path fill="none" stroke="#63b8ff" d="M562,-109.75C562,-102.8 562,-92.85 562,-84.13"/>
<polygon fill="#63b8ff" stroke="#63b8ff" points="565.5,-84.09 562,-74.09 558.5,-84.09 565.5,-84.09"/>
</a>
</g>
</g>
<!-- Node6 -->
<g id="Node000006" class="node">
<title>Node6</title>
<g id="a_Node000006"><a xlink:title=" ">
<polygon fill="#e0e0e0" stroke="#999999" points="662.5,-74 597.5,-74 597.5,-55 662.5,-55 662.5,-74"/>
<text text-anchor="middle" x="630" y="-62" font-family="Helvetica,sans-Serif" font-size="10.00">typeindex</text>
</a>
</g>
</g>
<!-- Node4&#45;&gt;Node6 -->
<g id="edge5_Node000004_Node000006" class="edge">
<title>Node4&#45;&gt;Node6</title>
<g id="a_edge5_Node000004_Node000006"><a xlink:title=" ">
<path fill="none" stroke="#63b8ff" d="M572.93,-109.98C583.08,-102.07 598.42,-90.11 610.65,-80.58"/>
<polygon fill="#63b8ff" stroke="#63b8ff" points="613.14,-83.08 618.88,-74.17 608.84,-77.56 613.14,-83.08"/>
</a>
</g>
</g>
<!-- Node7 -->
<g id="Node000007" class="node">
<title>Node7</title>
<g id="a_Node000007"><a xlink:title=" ">
<polygon fill="#e0e0e0" stroke="#999999" points="526.5,-74 433.5,-74 433.5,-55 526.5,-55 526.5,-74"/>
<text text-anchor="middle" x="480" y="-62" font-family="Helvetica,sans-Serif" font-size="10.00">unordered_map</text>
</a>
</g>
</g>
<!-- Node4&#45;&gt;Node7 -->
<g id="edge6_Node000004_Node000007" class="edge">
<title>Node4&#45;&gt;Node7</title>
<g id="a_edge6_Node000004_Node000007"><a xlink:title=" ">
<path fill="none" stroke="#63b8ff" d="M548.83,-109.98C536.23,-101.84 517,-89.41 502.06,-79.76"/>
<polygon fill="#63b8ff" stroke="#63b8ff" points="503.71,-76.66 493.41,-74.17 499.91,-82.54 503.71,-76.66"/>
</a>
</g>
</g>
<!-- Node8&#45;&gt;Node9 -->
<g id="edge8_Node000008_Node000009" class="edge">
<title>Node8&#45;&gt;Node9</title>
<g id="a_edge8_Node000008_Node000009"><a xlink:title=" ">
<path fill="none" stroke="#63b8ff" d="M869.13,-109.98C852.39,-101.54 826.5,-88.47 807.11,-78.68"/>
<polygon fill="#63b8ff" stroke="#63b8ff" points="808.68,-75.55 798.18,-74.17 805.53,-81.8 808.68,-75.55"/>
</a>
</g>
</g>
<!-- Node20 -->
<g id="Node000020" class="node">
<title>Node20</title>
<g id="a_Node000020"><a xlink:title=" ">
<polygon fill="#e0e0e0" stroke="#999999" points="929,-74 887,-74 887,-55 929,-55 929,-74"/>
<text text-anchor="middle" x="908" y="-62" font-family="Helvetica,sans-Serif" font-size="10.00">array</text>
</a>
</g>
</g>
<!-- Node8&#45;&gt;Node20 -->
<g id="edge19_Node000008_Node000020" class="edge">
<title>Node8&#45;&gt;Node20</title>
<g id="a_edge19_Node000008_Node000020"><a xlink:title=" ">
<path fill="none" stroke="#63b8ff" d="M889.63,-109.75C892.58,-102.65 896.83,-92.4 900.51,-83.56"/>
<polygon fill="#63b8ff" stroke="#63b8ff" points="903.83,-84.67 904.43,-74.09 897.37,-81.98 903.83,-84.67"/>
</a>
</g>
</g>
<!-- Node10 -->
<g id="Node000010" class="node">
<title>Node10</title>
<g id="a_Node000010"><a xlink:title=" ">
<polygon fill="#e0e0e0" stroke="#999999" points="78,-19 0,-19 0,0 78,0 78,-19"/>
<text text-anchor="middle" x="39" y="-7" font-family="Helvetica,sans-Serif" font-size="10.00">glm/glm.hpp</text>
</a>
</g>
</g>
<!-- Node9&#45;&gt;Node10 -->
<g id="edge9_Node000009_Node000010" class="edge">
<title>Node9&#45;&gt;Node10</title>
<g id="a_edge9_Node000009_Node000010"><a xlink:title=" ">
<path fill="none" stroke="#63b8ff" d="M729.45,-59.31C711.29,-57.88 690.75,-56.31 672,-55 415.44,-37.1 347.39,-49.44 88.33,-19.02"/>
<polygon fill="#63b8ff" stroke="#63b8ff" points="88.58,-15.52 78.24,-17.82 87.76,-22.48 88.58,-15.52"/>
</a>
</g>
</g>
<!-- Node11 -->
<g id="Node000011" class="node">
<title>Node11</title>
<g id="a_Node000011"><a xlink:title=" ">
<polygon fill="#e0e0e0" stroke="#999999" points="259.5,-19 96.5,-19 96.5,0 259.5,0 259.5,-19"/>
<text text-anchor="middle" x="178" y="-7" font-family="Helvetica,sans-Serif" font-size="10.00">glm/gtc/matrix_transform.hpp</text>
</a>
</g>
</g>
<!-- Node9&#45;&gt;Node11 -->
<g id="edge10_Node000009_Node000011" class="edge">
<title>Node9&#45;&gt;Node11</title>
<g id="a_edge10_Node000009_Node000011"><a xlink:title=" ">
<path fill="none" stroke="#63b8ff" d="M729.39,-59.13C638.79,-51.42 444.96,-34.83 270.02,-19.09"/>
<polygon fill="#63b8ff" stroke="#63b8ff" points="270.12,-15.58 259.85,-18.17 269.5,-22.55 270.12,-15.58"/>
</a>
</g>
</g>
<!-- Node12 -->
<g id="Node000012" class="node">
<title>Node12</title>
<g id="a_Node000012"><a xlink:title=" ">
<polygon fill="#e0e0e0" stroke="#999999" points="408,-19 278,-19 278,0 408,0 408,-19"/>
<text text-anchor="middle" x="343" y="-7" font-family="Helvetica,sans-Serif" font-size="10.00">glm/gtc/quaternion.hpp</text>
</a>
</g>
</g>
<!-- Node9&#45;&gt;Node12 -->
<g id="edge11_Node000009_Node000012" class="edge">
<title>Node9&#45;&gt;Node12</title>
<g id="a_edge11_Node000009_Node000012"><a xlink:title=" ">
<path fill="none" stroke="#63b8ff" d="M729.47,-57.26C652.5,-47.95 507.06,-30.35 418.21,-19.6"/>
<polygon fill="#63b8ff" stroke="#63b8ff" points="418.54,-16.12 408.2,-18.39 417.7,-23.07 418.54,-16.12"/>
</a>
</g>
</g>
<!-- Node13 -->
<g id="Node000013" class="node">
<title>Node13</title>
<g id="a_Node000013"><a xlink:title=" ">
<polygon fill="#e0e0e0" stroke="#999999" points="543.5,-19 426.5,-19 426.5,0 543.5,0 543.5,-19"/>
<text text-anchor="middle" x="485" y="-7" font-family="Helvetica,sans-Serif" font-size="10.00">glm/gtc/type_ptr.hpp</text>
</a>
</g>
</g>
<!-- Node9&#45;&gt;Node13 -->
<g id="edge12_Node000009_Node000013" class="edge">
<title>Node9&#45;&gt;Node13</title>
<g id="a_edge12_Node000009_Node000013"><a xlink:title=" ">
<path fill="none" stroke="#63b8ff" d="M733.44,-54.98C681.6,-45.7 598.61,-30.84 542.99,-20.88"/>
<polygon fill="#63b8ff" stroke="#63b8ff" points="543.39,-17.4 532.93,-19.08 542.16,-24.29 543.39,-17.4"/>
</a>
</g>
</g>
<!-- Node14 -->
<g id="Node000014" class="node">
<title>Node14</title>
<g id="a_Node000014"><a xlink:title=" ">
<polygon fill="#e0e0e0" stroke="#999999" points="692.5,-19 561.5,-19 561.5,0 692.5,0 692.5,-19"/>
<text text-anchor="middle" x="627" y="-7" font-family="Helvetica,sans-Serif" font-size="10.00">glm/gtx/quaternion.hpp</text>
</a>
</g>
</g>
<!-- Node9&#45;&gt;Node14 -->
<g id="edge13_Node000009_Node000014" class="edge">
<title>Node9&#45;&gt;Node14</title>
<g id="a_edge13_Node000009_Node000014"><a xlink:title=" ">
<path fill="none" stroke="#63b8ff" d="M756.26,-54.98C730.63,-46.16 690.37,-32.31 661.59,-22.41"/>
<polygon fill="#63b8ff" stroke="#63b8ff" points="662.53,-19.03 651.94,-19.08 660.25,-25.65 662.53,-19.03"/>
</a>
</g>
</g>
<!-- Node15 -->
<g id="Node000015" class="node">
<title>Node15</title>
<g id="a_Node000015"><a xlink:title=" ">
<polygon fill="#e0e0e0" stroke="#999999" points="837,-19 711,-19 711,0 837,0 837,-19"/>
<text text-anchor="middle" x="774" y="-7" font-family="Helvetica,sans-Serif" font-size="10.00">glm/gtx/transform.hpp</text>
</a>
</g>
</g>
<!-- Node9&#45;&gt;Node15 -->
<g id="edge14_Node000009_Node000015" class="edge">
<title>Node9&#45;&gt;Node15</title>
<g id="a_edge14_Node000009_Node000015"><a xlink:title=" ">
<path fill="none" stroke="#63b8ff" d="M779.84,-54.75C778.93,-47.8 777.61,-37.85 776.46,-29.13"/>
<polygon fill="#63b8ff" stroke="#63b8ff" points="779.91,-28.54 775.13,-19.09 772.97,-29.46 779.91,-28.54"/>
</a>
</g>
</g>
<!-- Node16 -->
<g id="Node000016" class="node">
<title>Node16</title>
<g id="a_Node000016"><a xlink:title=" ">
<polygon fill="#e0e0e0" stroke="#999999" points="996.5,-19 855.5,-19 855.5,0 996.5,0 996.5,-19"/>
<text text-anchor="middle" x="926" y="-7" font-family="Helvetica,sans-Serif" font-size="10.00">glm/gtx/vector_angle.hpp</text>
</a>
</g>
</g>
<!-- Node9&#45;&gt;Node16 -->
<g id="edge15_Node000009_Node000016" class="edge">
<title>Node9&#45;&gt;Node16</title>
<g id="a_edge15_Node000009_Node000016"><a xlink:title=" ">
<path fill="none" stroke="#63b8ff" d="M804.3,-54.98C828.25,-46.23 865.78,-32.51 892.83,-22.62"/>
<polygon fill="#63b8ff" stroke="#63b8ff" points="894.09,-25.89 902.28,-19.17 891.69,-19.32 894.09,-25.89"/>
</a>
</g>
</g>
<!-- Node17 -->
<g id="Node000017" class="node">
<title>Node17</title>
<g id="a_Node000017"><a xlink:title=" ">
<polygon fill="#e0e0e0" stroke="#999999" points="1059,-19 1015,-19 1015,0 1059,0 1059,-19"/>
<text text-anchor="middle" x="1037" y="-7" font-family="Helvetica,sans-Serif" font-size="10.00">bitset</text>
</a>
</g>
</g>
<!-- Node9&#45;&gt;Node17 -->
<g id="edge16_Node000009_Node000017" class="edge">
<title>Node9&#45;&gt;Node17</title>
<g id="a_edge16_Node000009_Node000017"><a xlink:title=" ">
<path fill="none" stroke="#63b8ff" d="M829.5,-54.96C872.98,-47.06 938.73,-34.55 1004.56,-19.21"/>
<polygon fill="#63b8ff" stroke="#63b8ff" points="1005.77,-22.52 1014.7,-16.82 1004.16,-15.71 1005.77,-22.52"/>
</a>
</g>
</g>
<!-- Node18 -->
<g id="Node000018" class="node">
<title>Node18</title>
<g id="a_Node000018"><a xlink:title=" ">
<polygon fill="#e0e0e0" stroke="#999999" points="1127,-19 1077,-19 1077,0 1127,0 1127,-19"/>
<text text-anchor="middle" x="1102" y="-7" font-family="Helvetica,sans-Serif" font-size="10.00">cstdint</text>
</a>
</g>
</g>
<!-- Node9&#45;&gt;Node18 -->
<g id="edge17_Node000009_Node000018" class="edge">
<title>Node9&#45;&gt;Node18</title>
<g id="a_edge17_Node000009_Node000018"><a xlink:title=" ">
<path fill="none" stroke="#63b8ff" d="M832.58,-56.95C888.14,-49.56 979.32,-36.52 1066.97,-19.05"/>
<polygon fill="#63b8ff" stroke="#63b8ff" points="1067.7,-22.48 1076.81,-17.07 1066.31,-15.61 1067.7,-22.48"/>
</a>
</g>
</g>
<!-- Node9&#45;&gt;Node19 -->
<g id="edge18_Node000009_Node000019" class="edge">
<title>Node9&#45;&gt;Node19</title>
<g id="a_edge18_Node000009_Node000019"><a xlink:title=" ">
<path fill="none" stroke="#63b8ff" d="M832.76,-59.1C900.21,-52.9 1021.93,-40.14 1135.39,-18.87"/>
<polygon fill="#63b8ff" stroke="#63b8ff" points="1136.12,-22.3 1145.29,-16.99 1134.81,-15.42 1136.12,-22.3"/>
</a>
</g>
</g>
<!-- Node22&#45;&gt;Node2 -->
<g id="edge31_Node000022_Node000002" class="edge">
<title>Node22&#45;&gt;Node2</title>
<g id="a_edge31_Node000022_Node000002"><a xlink:title=" ">
<path fill="none" stroke="#63b8ff" d="M839.45,-274.98C823.11,-266.57 797.87,-253.59 778.87,-243.81"/>
<polygon fill="#63b8ff" stroke="#63b8ff" points="780.34,-240.63 769.85,-239.17 777.14,-246.86 780.34,-240.63"/>
</a>
</g>
</g>
<!-- Node22&#45;&gt;Node3 -->
<g id="edge30_Node000022_Node000003" class="edge">
<title>Node22&#45;&gt;Node3</title>
<g id="a_edge30_Node000022_Node000003"><a xlink:title=" ">
<path fill="none" stroke="#63b8ff" d="M855.12,-274.73C853.53,-261.94 849.32,-237.76 839,-220 832.49,-208.8 822.43,-198.48 813.48,-190.6"/>
<polygon fill="#63b8ff" stroke="#63b8ff" points="815.61,-187.82 805.69,-184.1 811.12,-193.19 815.61,-187.82"/>
</a>
</g>
</g>
<!-- Node23 -->
<g id="Node000023" class="node">
<title>Node23</title>
<g id="a_Node000023"><a xlink:href="ExtraDataTypes_8h.html" target="_top" xlink:title=" ">
<polygon fill="white" stroke="#666666" points="1166,-129 1006,-129 1006,-110 1166,-110 1166,-129"/>
<text text-anchor="middle" x="1086" y="-117" font-family="Helvetica,sans-Serif" font-size="10.00">Application/ExtraDataTypes.h</text>
</a>
</g>
</g>
<!-- Node22&#45;&gt;Node23 -->
<g id="edge25_Node000022_Node000023" class="edge">
<title>Node22&#45;&gt;Node23</title>
<g id="a_edge25_Node000022_Node000023"><a xlink:title=" ">
<path fill="none" stroke="#63b8ff" d="M868.04,-274.97C905.22,-248.62 1018.48,-168.35 1065.35,-135.13"/>
<polygon fill="#63b8ff" stroke="#63b8ff" points="1067.66,-137.78 1073.8,-129.15 1063.62,-132.07 1067.66,-137.78"/>
</a>
</g>
</g>
<!-- Node23&#45;&gt;Node9 -->
<g id="edge26_Node000023_Node000009" class="edge">
<title>Node23&#45;&gt;Node9</title>
<g id="a_edge26_Node000023_Node000009"><a xlink:title=" ">
<path fill="none" stroke="#63b8ff" d="M1037,-109.98C983.38,-100.67 897.46,-85.74 840.14,-75.78"/>
<polygon fill="#63b8ff" stroke="#63b8ff" points="840.59,-72.3 830.13,-74.04 839.39,-79.2 840.59,-72.3"/>
</a>
</g>
</g>
<!-- Node23&#45;&gt;Node19 -->
<g id="edge29_Node000023_Node000019" class="edge">
<title>Node23&#45;&gt;Node19</title>
<g id="a_edge29_Node000023_Node000019"><a xlink:title=" ">
<path fill="none" stroke="#63b8ff" d="M1092.79,-109.66C1106.6,-91.69 1138.15,-50.64 1156.02,-27.38"/>
<polygon fill="#63b8ff" stroke="#63b8ff" points="1159.03,-29.22 1162.35,-19.16 1153.48,-24.95 1159.03,-29.22"/>
</a>
</g>
</g>
<!-- Node23&#45;&gt;Node20 -->
<g id="edge27_Node000023_Node000020" class="edge">
<title>Node23&#45;&gt;Node20</title>
<g id="a_edge27_Node000023_Node000020"><a xlink:title=" ">
<path fill="none" stroke="#63b8ff" d="M1057.4,-109.98C1024.89,-100.31 972.03,-84.57 938.68,-74.64"/>
<polygon fill="#63b8ff" stroke="#63b8ff" points="939.59,-71.25 929,-71.75 937.59,-77.96 939.59,-71.25"/>
</a>
</g>
</g>
<!-- Node24 -->
<g id="Node000024" class="node">
<title>Node24</title>
<g id="a_Node000024"><a xlink:title=" ">
<polygon fill="#e0e0e0" stroke="#999999" points="1108,-74 1064,-74 1064,-55 1108,-55 1108,-74"/>
<text text-anchor="middle" x="1086" y="-62" font-family="Helvetica,sans-Serif" font-size="10.00">string</text>
</a>
</g>
</g>
<!-- Node23&#45;&gt;Node24 -->
<g id="edge28_Node000023_Node000024" class="edge">
<title>Node23&#45;&gt;Node24</title>
<g id="a_edge28_Node000023_Node000024"><a xlink:title=" ">
<path fill="none" stroke="#63b8ff" d="M1086,-109.75C1086,-102.8 1086,-92.85 1086,-84.13"/>
<polygon fill="#63b8ff" stroke="#63b8ff" points="1089.5,-84.09 1086,-74.09 1082.5,-84.09 1089.5,-84.09"/>
</a>
</g>
</g>
</g>
</svg>
