<?xml version="1.0" encoding="UTF-8" standalone="no"?>
<!DOCTYPE svg PUBLIC "-//W3C//DTD SVG 1.1//EN"
 "http://www.w3.org/Graphics/SVG/1.1/DTD/svg11.dtd">
<!-- Generated by graphviz version 2.43.0 (0)
 -->
<!-- Title: App/Source/RunApp.cpp Pages: 1 -->
<svg width="1724pt" height="247pt"
 viewBox="0.00 0.00 1723.50 247.00" xmlns="http://www.w3.org/2000/svg" xmlns:xlink="http://www.w3.org/1999/xlink">
<g id="graph0" class="graph" transform="scale(1 1) rotate(0) translate(4 243)">
<title>App/Source/RunApp.cpp</title>
<!-- Node1 -->
<g id="Node000001" class="node">
<title>Node1</title>
<g id="a_Node000001"><a xlink:title=" ">
<polygon fill="#999999" stroke="#666666" points="633.5,-239 501.5,-239 501.5,-220 633.5,-220 633.5,-239"/>
<text text-anchor="middle" x="567.5" y="-227" font-family="Helvetica,sans-Serif" font-size="10.00">App/Source/RunApp.cpp</text>
</a>
</g>
</g>
<!-- Node2 -->
<g id="Node000002" class="node">
<title>Node2</title>
<g id="a_Node000002"><a xlink:href="AppLayer_8h.html" target="_top" xlink:title=" ">
<polygon fill="white" stroke="#666666" points="173.5,-184 45.5,-184 45.5,-165 173.5,-165 173.5,-184"/>
<text text-anchor="middle" x="109.5" y="-172" font-family="Helvetica,sans-Serif" font-size="10.00">Application/AppLayer.h</text>
</a>
</g>
</g>
<!-- Node1&#45;&gt;Node2 -->
<g id="edge1_Node000001_Node000002" class="edge">
<title>Node1&#45;&gt;Node2</title>
<g id="a_edge1_Node000001_Node000002"><a xlink:title=" ">
<path fill="none" stroke="#63b8ff" d="M501.39,-220.85C417.16,-211.1 271.96,-194.3 183.92,-184.11"/>
<polygon fill="#63b8ff" stroke="#63b8ff" points="184.08,-180.61 173.74,-182.93 183.27,-187.56 184.08,-180.61"/>
</a>
</g>
</g>
<!-- Node8 -->
<g id="Node000008" class="node">
<title>Node8</title>
<g id="a_Node000008"><a xlink:href="Application_8h.html" target="_top" xlink:title=" ">
<polygon fill="white" stroke="#666666" points="522.5,-184 416.5,-184 416.5,-165 522.5,-165 522.5,-184"/>
<text text-anchor="middle" x="469.5" y="-172" font-family="Helvetica,sans-Serif" font-size="10.00">Core/Application.h</text>
</a>
</g>
</g>
<!-- Node1&#45;&gt;Node8 -->
<g id="edge7_Node000001_Node000008" class="edge">
<title>Node1&#45;&gt;Node8</title>
<g id="a_edge7_Node000001_Node000008"><a xlink:title=" ">
<path fill="none" stroke="#63b8ff" d="M551.75,-219.98C536.27,-211.61 512.41,-198.7 494.36,-188.95"/>
<polygon fill="#63b8ff" stroke="#63b8ff" points="495.99,-185.85 485.53,-184.17 492.66,-192.01 495.99,-185.85"/>
</a>
</g>
</g>
<!-- Node28 -->
<g id="Node000028" class="node">
<title>Node28</title>
<g id="a_Node000028"><a xlink:title=" ">
<polygon fill="#e0e0e0" stroke="#999999" points="594,-184 541,-184 541,-165 594,-165 594,-184"/>
<text text-anchor="middle" x="567.5" y="-172" font-family="Helvetica,sans-Serif" font-size="10.00">imgui.h</text>
</a>
</g>
</g>
<!-- Node1&#45;&gt;Node28 -->
<g id="edge35_Node000001_Node000028" class="edge">
<title>Node1&#45;&gt;Node28</title>
<g id="a_edge35_Node000001_Node000028"><a xlink:title=" ">
<path fill="none" stroke="#63b8ff" d="M567.5,-219.75C567.5,-212.8 567.5,-202.85 567.5,-194.13"/>
<polygon fill="#63b8ff" stroke="#63b8ff" points="571,-194.09 567.5,-184.09 564,-194.09 571,-194.09"/>
</a>
</g>
</g>
<!-- Node29 -->
<g id="Node000029" class="node">
<title>Node29</title>
<g id="a_Node000029"><a xlink:title=" ">
<polygon fill="#e0e0e0" stroke="#999999" points="717,-184 612,-184 612,-165 717,-165 717,-184"/>
<text text-anchor="middle" x="664.5" y="-172" font-family="Helvetica,sans-Serif" font-size="10.00">imgui_impl_glfw.h</text>
</a>
</g>
</g>
<!-- Node1&#45;&gt;Node29 -->
<g id="edge36_Node000001_Node000029" class="edge">
<title>Node1&#45;&gt;Node29</title>
<g id="a_edge36_Node000001_Node000029"><a xlink:title=" ">
<path fill="none" stroke="#63b8ff" d="M583.08,-219.98C598.27,-211.69 621.6,-198.94 639.4,-189.22"/>
<polygon fill="#63b8ff" stroke="#63b8ff" points="641.53,-192.04 648.63,-184.17 638.18,-185.89 641.53,-192.04"/>
</a>
</g>
</g>
<!-- Node30 -->
<g id="Node000030" class="node">
<title>Node30</title>
<g id="a_Node000030"><a xlink:title=" ">
<polygon fill="#e0e0e0" stroke="#999999" points="860,-184 735,-184 735,-165 860,-165 860,-184"/>
<text text-anchor="middle" x="797.5" y="-172" font-family="Helvetica,sans-Serif" font-size="10.00">imgui_impl_opengl3.h</text>
</a>
</g>
</g>
<!-- Node1&#45;&gt;Node30 -->
<g id="edge37_Node000001_Node000030" class="edge">
<title>Node1&#45;&gt;Node30</title>
<g id="a_edge37_Node000001_Node000030"><a xlink:title=" ">
<path fill="none" stroke="#63b8ff" d="M604.45,-219.98C644.07,-210.86 707.09,-196.33 750.27,-186.38"/>
<polygon fill="#63b8ff" stroke="#63b8ff" points="751.3,-189.74 760.26,-184.08 749.73,-182.92 751.3,-189.74"/>
</a>
</g>
</g>
<!-- Node3 -->
<g id="Node000003" class="node">
<title>Node3</title>
<g id="a_Node000003"><a xlink:href="Layer_8h.html" target="_top" xlink:title=" ">
<polygon fill="white" stroke="#666666" points="148,-129 71,-129 71,-110 148,-110 148,-129"/>
<text text-anchor="middle" x="109.5" y="-117" font-family="Helvetica,sans-Serif" font-size="10.00">Core/Layer.h</text>
</a>
</g>
</g>
<!-- Node2&#45;&gt;Node3 -->
<g id="edge2_Node000002_Node000003" class="edge">
<title>Node2&#45;&gt;Node3</title>
<g id="a_edge2_Node000002_Node000003"><a xlink:title=" ">
<path fill="none" stroke="#63b8ff" d="M109.5,-164.75C109.5,-157.8 109.5,-147.85 109.5,-139.13"/>
<polygon fill="#63b8ff" stroke="#63b8ff" points="113,-139.09 109.5,-129.09 106,-139.09 113,-139.09"/>
</a>
</g>
</g>
<!-- Node7 -->
<g id="Node000007" class="node">
<title>Node7</title>
<g id="a_Node000007"><a xlink:title=" ">
<polygon fill="#e0e0e0" stroke="#999999" points="53,-129 0,-129 0,-110 53,-110 53,-129"/>
<text text-anchor="middle" x="26.5" y="-117" font-family="Helvetica,sans-Serif" font-size="10.00">stdint.h</text>
</a>
</g>
</g>
<!-- Node2&#45;&gt;Node7 -->
<g id="edge6_Node000002_Node000007" class="edge">
<title>Node2&#45;&gt;Node7</title>
<g id="a_edge6_Node000002_Node000007"><a xlink:title=" ">
<path fill="none" stroke="#63b8ff" d="M96.16,-164.98C83.41,-156.84 63.95,-144.41 48.83,-134.76"/>
<polygon fill="#63b8ff" stroke="#63b8ff" points="50.39,-131.6 40.08,-129.17 46.62,-137.5 50.39,-131.6"/>
</a>
</g>
</g>
<!-- Node4 -->
<g id="Node000004" class="node">
<title>Node4</title>
<g id="a_Node000004"><a xlink:href="Event_8h.html" target="_top" xlink:title=" ">
<polygon fill="white" stroke="#666666" points="522.5,-74 412.5,-74 412.5,-55 522.5,-55 522.5,-74"/>
<text text-anchor="middle" x="467.5" y="-62" font-family="Helvetica,sans-Serif" font-size="10.00">Core/Event/Event.h</text>
</a>
</g>
</g>
<!-- Node3&#45;&gt;Node4 -->
<g id="edge3_Node000003_Node000004" class="edge">
<title>Node3&#45;&gt;Node4</title>
<g id="a_edge3_Node000003_Node000004"><a xlink:title=" ">
<path fill="none" stroke="#63b8ff" d="M148.25,-111.53C151.38,-111 154.49,-110.48 157.5,-110 241.79,-96.49 339.3,-82.81 402.1,-74.26"/>
<polygon fill="#63b8ff" stroke="#63b8ff" points="402.82,-77.69 412.26,-72.87 401.88,-70.75 402.82,-77.69"/>
</a>
</g>
</g>
<!-- Node5 -->
<g id="Node000005" class="node">
<title>Node5</title>
<g id="a_Node000005"><a xlink:title=" ">
<polygon fill="#e0e0e0" stroke="#999999" points="495.5,-19 439.5,-19 439.5,0 495.5,0 495.5,-19"/>
<text text-anchor="middle" x="467.5" y="-7" font-family="Helvetica,sans-Serif" font-size="10.00">sstream</text>
</a>
</g>
</g>
<!-- Node4&#45;&gt;Node5 -->
<g id="edge4_Node000004_Node000005" class="edge">
<title>Node4&#45;&gt;Node5</title>
<g id="a_edge4_Node000004_Node000005"><a xlink:title=" ">
<path fill="none" stroke="#63b8ff" d="M467.5,-54.75C467.5,-47.8 467.5,-37.85 467.5,-29.13"/>
<polygon fill="#63b8ff" stroke="#63b8ff" points="471,-29.09 467.5,-19.09 464,-29.09 471,-29.09"/>
</a>
</g>
</g>
<!-- Node6 -->
<g id="Node000006" class="node">
<title>Node6</title>
<g id="a_Node000006"><a xlink:title=" ">
<polygon fill="#e0e0e0" stroke="#999999" points="570.5,-19 526.5,-19 526.5,0 570.5,0 570.5,-19"/>
<text text-anchor="middle" x="548.5" y="-7" font-family="Helvetica,sans-Serif" font-size="10.00">string</text>
</a>
</g>
</g>
<!-- Node4&#45;&gt;Node6 -->
<g id="edge5_Node000004_Node000006" class="edge">
<title>Node4&#45;&gt;Node6</title>
<g id="a_edge5_Node000004_Node000006"><a xlink:title=" ">
<path fill="none" stroke="#63b8ff" d="M480.51,-54.98C492.96,-46.84 511.96,-34.41 526.71,-24.76"/>
<polygon fill="#63b8ff" stroke="#63b8ff" points="528.8,-27.57 535.25,-19.17 524.96,-21.72 528.8,-27.57"/>
</a>
</g>
</g>
<!-- Node8&#45;&gt;Node3 -->
<g id="edge14_Node000008_Node000003" class="edge">
<title>Node8&#45;&gt;Node3</title>
<g id="a_edge14_Node000008_Node000003"><a xlink:title=" ">
<path fill="none" stroke="#63b8ff" d="M416.42,-166.48C356.33,-158.41 255.26,-144.47 158.23,-129.07"/>
<polygon fill="#63b8ff" stroke="#63b8ff" points="158.68,-125.6 148.25,-127.48 157.58,-132.51 158.68,-125.6"/>
</a>
</g>
</g>
<!-- Node8&#45;&gt;Node6 -->
<g id="edge33_Node000008_Node000006" class="edge">
<title>Node8&#45;&gt;Node6</title>
<g id="a_edge33_Node000008_Node000006"><a xlink:title=" ">
<path fill="none" stroke="#63b8ff" d="M488.74,-164.92C502.97,-157.52 521.53,-145.42 531.5,-129 550.3,-98.01 551.38,-54.26 550.15,-29.51"/>
<polygon fill="#63b8ff" stroke="#63b8ff" points="553.63,-29.04 549.46,-19.3 546.64,-29.52 553.63,-29.04"/>
</a>
</g>
</g>
<!-- Node9 -->
<g id="Node000009" class="node">
<title>Node9</title>
<g id="a_Node000009"><a xlink:href="ApplicationEvent_8h.html" target="_top" xlink:title=" ">
<polygon fill="white" stroke="#666666" points="330.5,-129 166.5,-129 166.5,-110 330.5,-110 330.5,-129"/>
<text text-anchor="middle" x="248.5" y="-117" font-family="Helvetica,sans-Serif" font-size="10.00">Core/Event/ApplicationEvent.h</text>
</a>
</g>
</g>
<!-- Node8&#45;&gt;Node9 -->
<g id="edge8_Node000008_Node000009" class="edge">
<title>Node8&#45;&gt;Node9</title>
<g id="a_edge8_Node000008_Node000009"><a xlink:title=" ">
<path fill="none" stroke="#63b8ff" d="M433.99,-164.98C396.01,-155.87 335.63,-141.4 294.14,-131.45"/>
<polygon fill="#63b8ff" stroke="#63b8ff" points="294.83,-128.01 284.29,-129.08 293.19,-134.82 294.83,-128.01"/>
</a>
</g>
</g>
<!-- Node10 -->
<g id="Node000010" class="node">
<title>Node10</title>
<g id="a_Node000010"><a xlink:href="KeyEvents_8h.html" target="_top" xlink:title=" ">
<polygon fill="white" stroke="#666666" points="712,-129 579,-129 579,-110 712,-110 712,-129"/>
<text text-anchor="middle" x="645.5" y="-117" font-family="Helvetica,sans-Serif" font-size="10.00">Core/Event/KeyEvents.h</text>
</a>
</g>
</g>
<!-- Node8&#45;&gt;Node10 -->
<g id="edge10_Node000008_Node000010" class="edge">
<title>Node8&#45;&gt;Node10</title>
<g id="a_edge10_Node000008_Node000010"><a xlink:title=" ">
<path fill="none" stroke="#63b8ff" d="M497.78,-164.98C527.45,-156.05 574.29,-141.94 607.25,-132.02"/>
<polygon fill="#63b8ff" stroke="#63b8ff" points="608.43,-135.32 617,-129.08 606.42,-128.61 608.43,-135.32"/>
</a>
</g>
</g>
<!-- Node13 -->
<g id="Node000013" class="node">
<title>Node13</title>
<g id="a_Node000013"><a xlink:href="Window_8h.html" target="_top" xlink:title=" ">
<polygon fill="white" stroke="#666666" points="835,-129 746,-129 746,-110 835,-110 835,-129"/>
<text text-anchor="middle" x="790.5" y="-117" font-family="Helvetica,sans-Serif" font-size="10.00">Core/Window.h</text>
</a>
</g>
</g>
<!-- Node8&#45;&gt;Node13 -->
<g id="edge15_Node000008_Node000013" class="edge">
<title>Node8&#45;&gt;Node13</title>
<g id="a_edge15_Node000008_Node000013"><a xlink:title=" ">
<path fill="none" stroke="#63b8ff" d="M521.07,-164.98C579.88,-155.28 675.62,-139.47 735.72,-129.54"/>
<polygon fill="#63b8ff" stroke="#63b8ff" points="736.49,-132.97 745.78,-127.88 735.35,-126.06 736.49,-132.97"/>
</a>
</g>
</g>
<!-- Node24 -->
<g id="Node000024" class="node">
<title>Node24</title>
<g id="a_Node000024"><a xlink:title=" ">
<polygon fill="#e0e0e0" stroke="#999999" points="1052,-74 987,-74 987,-55 1052,-55 1052,-74"/>
<text text-anchor="middle" x="1019.5" y="-62" font-family="Helvetica,sans-Serif" font-size="10.00">functional</text>
</a>
</g>
</g>
<!-- Node8&#45;&gt;Node24 -->
<g id="edge30_Node000008_Node000024" class="edge">
<title>Node8&#45;&gt;Node24</title>
<g id="a_edge30_Node000008_Node000024"><a xlink:title=" ">
<path fill="none" stroke="#63b8ff" d="M522.77,-166.24C526.06,-165.81 529.32,-165.4 532.5,-165 671.01,-147.67 708.64,-161.02 844.5,-129 897.76,-116.45 957.1,-92.73 991.2,-78.1"/>
<polygon fill="#63b8ff" stroke="#63b8ff" points="992.75,-81.24 1000.53,-74.05 989.96,-74.82 992.75,-81.24"/>
</a>
</g>
</g>
<!-- Node25 -->
<g id="Node000025" class="node">
<title>Node25</title>
<g id="a_Node000025"><a xlink:title=" ">
<polygon fill="#e0e0e0" stroke="#999999" points="406.5,-129 348.5,-129 348.5,-110 406.5,-110 406.5,-129"/>
<text text-anchor="middle" x="377.5" y="-117" font-family="Helvetica,sans-Serif" font-size="10.00">memory</text>
</a>
</g>
</g>
<!-- Node8&#45;&gt;Node25 -->
<g id="edge31_Node000008_Node000025" class="edge">
<title>Node8&#45;&gt;Node25</title>
<g id="a_edge31_Node000008_Node000025"><a xlink:title=" ">
<path fill="none" stroke="#63b8ff" d="M454.72,-164.98C440.32,-156.69 418.19,-143.94 401.31,-134.22"/>
<polygon fill="#63b8ff" stroke="#63b8ff" points="402.96,-131.13 392.55,-129.17 399.47,-137.19 402.96,-131.13"/>
</a>
</g>
</g>
<!-- Node26 -->
<g id="Node000026" class="node">
<title>Node26</title>
<g id="a_Node000026"><a xlink:title=" ">
<polygon fill="#e0e0e0" stroke="#999999" points="456.5,-129 424.5,-129 424.5,-110 456.5,-110 456.5,-129"/>
<text text-anchor="middle" x="440.5" y="-117" font-family="Helvetica,sans-Serif" font-size="10.00">set</text>
</a>
</g>
</g>
<!-- Node8&#45;&gt;Node26 -->
<g id="edge32_Node000008_Node000026" class="edge">
<title>Node8&#45;&gt;Node26</title>
<g id="a_edge32_Node000008_Node000026"><a xlink:title=" ">
<path fill="none" stroke="#63b8ff" d="M464.71,-164.75C460.74,-157.49 454.97,-146.95 450.07,-137.98"/>
<polygon fill="#63b8ff" stroke="#63b8ff" points="453.07,-136.18 445.2,-129.09 446.93,-139.54 453.07,-136.18"/>
</a>
</g>
</g>
<!-- Node27 -->
<g id="Node000027" class="node">
<title>Node27</title>
<g id="a_Node000027"><a xlink:title=" ">
<polygon fill="#e0e0e0" stroke="#999999" points="522,-129 475,-129 475,-110 522,-110 522,-129"/>
<text text-anchor="middle" x="498.5" y="-117" font-family="Helvetica,sans-Serif" font-size="10.00">vector</text>
</a>
</g>
</g>
<!-- Node8&#45;&gt;Node27 -->
<g id="edge34_Node000008_Node000027" class="edge">
<title>Node8&#45;&gt;Node27</title>
<g id="a_edge34_Node000008_Node000027"><a xlink:title=" ">
<path fill="none" stroke="#63b8ff" d="M474.29,-164.75C478.26,-157.49 484.03,-146.95 488.93,-137.98"/>
<polygon fill="#63b8ff" stroke="#63b8ff" points="492.07,-139.54 493.8,-129.09 485.93,-136.18 492.07,-139.54"/>
</a>
</g>
</g>
<!-- Node9&#45;&gt;Node4 -->
<g id="edge9_Node000009_Node000004" class="edge">
<title>Node9&#45;&gt;Node4</title>
<g id="a_edge9_Node000009_Node000004"><a xlink:title=" ">
<path fill="none" stroke="#63b8ff" d="M283.69,-109.98C321.33,-100.87 381.16,-86.4 422.27,-76.45"/>
<polygon fill="#63b8ff" stroke="#63b8ff" points="423.14,-79.84 432.04,-74.08 421.5,-73.03 423.14,-79.84"/>
</a>
</g>
</g>
<!-- Node10&#45;&gt;Node4 -->
<g id="edge11_Node000010_Node000004" class="edge">
<title>Node10&#45;&gt;Node4</title>
<g id="a_edge11_Node000010_Node000004"><a xlink:title=" ">
<path fill="none" stroke="#63b8ff" d="M616.9,-109.98C586.89,-101.05 539.52,-86.94 506.18,-77.02"/>
<polygon fill="#63b8ff" stroke="#63b8ff" points="506.91,-73.58 496.32,-74.08 504.91,-80.29 506.91,-73.58"/>
</a>
</g>
</g>
<!-- Node11 -->
<g id="Node000011" class="node">
<title>Node11</title>
<g id="a_Node000011"><a xlink:href="KeyCodes_8h.html" target="_top" xlink:title=" ">
<polygon fill="white" stroke="#666666" points="708.5,-74 578.5,-74 578.5,-55 708.5,-55 708.5,-74"/>
<text text-anchor="middle" x="643.5" y="-62" font-family="Helvetica,sans-Serif" font-size="10.00">Core/Event/KeyCodes.h</text>
</a>
</g>
</g>
<!-- Node10&#45;&gt;Node11 -->
<g id="edge12_Node000010_Node000011" class="edge">
<title>Node10&#45;&gt;Node11</title>
<g id="a_edge12_Node000010_Node000011"><a xlink:title=" ">
<path fill="none" stroke="#63b8ff" d="M645.17,-109.75C644.91,-102.8 644.53,-92.85 644.2,-84.13"/>
<polygon fill="#63b8ff" stroke="#63b8ff" points="647.7,-83.95 643.82,-74.09 640.7,-84.21 647.7,-83.95"/>
</a>
</g>
</g>
<!-- Node12 -->
<g id="Node000012" class="node">
<title>Node12</title>
<g id="a_Node000012"><a xlink:title=" ">
<polygon fill="#e0e0e0" stroke="#999999" points="638.5,-19 588.5,-19 588.5,0 638.5,0 638.5,-19"/>
<text text-anchor="middle" x="613.5" y="-7" font-family="Helvetica,sans-Serif" font-size="10.00">cstdint</text>
</a>
</g>
</g>
<!-- Node11&#45;&gt;Node12 -->
<g id="edge13_Node000011_Node000012" class="edge">
<title>Node11&#45;&gt;Node12</title>
<g id="a_edge13_Node000011_Node000012"><a xlink:title=" ">
<path fill="none" stroke="#63b8ff" d="M638.55,-54.75C634.44,-47.49 628.47,-36.95 623.4,-27.98"/>
<polygon fill="#63b8ff" stroke="#63b8ff" points="626.33,-26.07 618.36,-19.09 620.24,-29.52 626.33,-26.07"/>
</a>
</g>
</g>
<!-- Node13&#45;&gt;Node4 -->
<g id="edge26_Node000013_Node000004" class="edge">
<title>Node13&#45;&gt;Node4</title>
<g id="a_edge26_Node000013_Node000004"><a xlink:title=" ">
<path fill="none" stroke="#63b8ff" d="M745.93,-111.19C689.66,-101.95 592.59,-86.03 529.22,-75.63"/>
<polygon fill="#63b8ff" stroke="#63b8ff" points="529.79,-72.17 519.35,-74.01 528.65,-79.08 529.79,-72.17"/>
</a>
</g>
</g>
<!-- Node13&#45;&gt;Node6 -->
<g id="edge29_Node000013_Node000006" class="edge">
<title>Node13&#45;&gt;Node6</title>
<g id="a_edge29_Node000013_Node000006"><a xlink:title=" ">
<path fill="none" stroke="#63b8ff" d="M782.91,-109.68C770.59,-95.92 744.84,-69.42 717.5,-55 664.18,-26.86 642.84,-34.5 580.45,-19.13"/>
<polygon fill="#63b8ff" stroke="#63b8ff" points="581.06,-15.67 570.51,-16.57 579.32,-22.45 581.06,-15.67"/>
</a>
</g>
</g>
<!-- Node14 -->
<g id="Node000014" class="node">
<title>Node14</title>
<g id="a_Node000014"><a xlink:href="BaseTypes_8h.html" target="_top" xlink:title=" ">
<polygon fill="white" stroke="#666666" points="969,-74 866,-74 866,-55 969,-55 969,-74"/>
<text text-anchor="middle" x="917.5" y="-62" font-family="Helvetica,sans-Serif" font-size="10.00">Core/BaseTypes.h</text>
</a>
</g>
</g>
<!-- Node13&#45;&gt;Node14 -->
<g id="edge16_Node000013_Node000014" class="edge">
<title>Node13&#45;&gt;Node14</title>
<g id="a_edge16_Node000013_Node000014"><a xlink:title=" ">
<path fill="none" stroke="#63b8ff" d="M810.9,-109.98C831.52,-101.38 863.61,-87.99 887.19,-78.15"/>
<polygon fill="#63b8ff" stroke="#63b8ff" points="888.84,-81.25 896.72,-74.17 886.15,-74.79 888.84,-81.25"/>
</a>
</g>
</g>
<!-- Node23 -->
<g id="Node000023" class="node">
<title>Node23</title>
<g id="a_Node000023"><a xlink:title=" ">
<polygon fill="#e0e0e0" stroke="#999999" points="848,-74 765,-74 765,-55 848,-55 848,-74"/>
<text text-anchor="middle" x="806.5" y="-62" font-family="Helvetica,sans-Serif" font-size="10.00">GLFW/glfw3.h</text>
</a>
</g>
</g>
<!-- Node13&#45;&gt;Node23 -->
<g id="edge27_Node000013_Node000023" class="edge">
<title>Node13&#45;&gt;Node23</title>
<g id="a_edge27_Node000013_Node000023"><a xlink:title=" ">
<path fill="none" stroke="#63b8ff" d="M793.14,-109.75C795.26,-102.72 798.31,-92.62 800.96,-83.84"/>
<polygon fill="#63b8ff" stroke="#63b8ff" points="804.37,-84.67 803.91,-74.09 797.67,-82.65 804.37,-84.67"/>
</a>
</g>
</g>
<!-- Node13&#45;&gt;Node24 -->
<g id="edge28_Node000013_Node000024" class="edge">
<title>Node13&#45;&gt;Node24</title>
<g id="a_edge28_Node000013_Node000024"><a xlink:title=" ">
<path fill="none" stroke="#63b8ff" d="M827.29,-109.98C868.14,-100.53 933.98,-85.29 977,-75.34"/>
<polygon fill="#63b8ff" stroke="#63b8ff" points="977.92,-78.71 986.88,-73.05 976.35,-71.9 977.92,-78.71"/>
</a>
</g>
</g>
<!-- Node14&#45;&gt;Node12 -->
<g id="edge25_Node000014_Node000012" class="edge">
<title>Node14&#45;&gt;Node12</title>
<g id="a_edge25_Node000014_Node000012"><a xlink:title=" ">
<path fill="none" stroke="#63b8ff" d="M865.97,-56.14C811.67,-48.11 723.76,-34.34 648.5,-19 648.4,-18.98 648.3,-18.96 648.2,-18.94"/>
<polygon fill="#63b8ff" stroke="#63b8ff" points="649.2,-15.58 638.68,-16.85 647.7,-22.41 649.2,-15.58"/>
</a>
</g>
</g>
<!-- Node15 -->
<g id="Node000015" class="node">
<title>Node15</title>
<g id="a_Node000015"><a xlink:title=" ">
<polygon fill="#e0e0e0" stroke="#999999" points="956.5,-19 878.5,-19 878.5,0 956.5,0 956.5,-19"/>
<text text-anchor="middle" x="917.5" y="-7" font-family="Helvetica,sans-Serif" font-size="10.00">glm/glm.hpp</text>
</a>
</g>
</g>
<!-- Node14&#45;&gt;Node15 -->
<g id="edge17_Node000014_Node000015" class="edge">
<title>Node14&#45;&gt;Node15</title>
<g id="a_edge17_Node000014_Node000015"><a xlink:title=" ">
<path fill="none" stroke="#63b8ff" d="M917.5,-54.75C917.5,-47.8 917.5,-37.85 917.5,-29.13"/>
<polygon fill="#63b8ff" stroke="#63b8ff" points="921,-29.09 917.5,-19.09 914,-29.09 921,-29.09"/>
</a>
</g>
</g>
<!-- Node16 -->
<g id="Node000016" class="node">
<title>Node16</title>
<g id="a_Node000016"><a xlink:title=" ">
<polygon fill="#e0e0e0" stroke="#999999" points="1138,-19 975,-19 975,0 1138,0 1138,-19"/>
<text text-anchor="middle" x="1056.5" y="-7" font-family="Helvetica,sans-Serif" font-size="10.00">glm/gtc/matrix_transform.hpp</text>
</a>
</g>
</g>
<!-- Node14&#45;&gt;Node16 -->
<g id="edge18_Node000014_Node000016" class="edge">
<title>Node14&#45;&gt;Node16</title>
<g id="a_edge18_Node000014_Node000016"><a xlink:title=" ">
<path fill="none" stroke="#63b8ff" d="M939.83,-54.98C962.7,-46.27 998.46,-32.63 1024.36,-22.75"/>
<polygon fill="#63b8ff" stroke="#63b8ff" points="1025.66,-26 1033.76,-19.17 1023.17,-19.46 1025.66,-26"/>
</a>
</g>
</g>
<!-- Node17 -->
<g id="Node000017" class="node">
<title>Node17</title>
<g id="a_Node000017"><a xlink:title=" ">
<polygon fill="#e0e0e0" stroke="#999999" points="1286.5,-19 1156.5,-19 1156.5,0 1286.5,0 1286.5,-19"/>
<text text-anchor="middle" x="1221.5" y="-7" font-family="Helvetica,sans-Serif" font-size="10.00">glm/gtc/quaternion.hpp</text>
</a>
</g>
</g>
<!-- Node14&#45;&gt;Node17 -->
<g id="edge19_Node000014_Node000017" class="edge">
<title>Node14&#45;&gt;Node17</title>
<g id="a_edge19_Node000014_Node000017"><a xlink:title=" ">
<path fill="none" stroke="#63b8ff" d="M966.34,-54.98C1019.78,-45.67 1105.42,-30.74 1162.56,-20.78"/>
<polygon fill="#63b8ff" stroke="#63b8ff" points="1163.28,-24.2 1172.53,-19.04 1162.07,-17.31 1163.28,-24.2"/>
</a>
</g>
</g>
<!-- Node18 -->
<g id="Node000018" class="node">
<title>Node18</title>
<g id="a_Node000018"><a xlink:title=" ">
<polygon fill="#e0e0e0" stroke="#999999" points="1422,-19 1305,-19 1305,0 1422,0 1422,-19"/>
<text text-anchor="middle" x="1363.5" y="-7" font-family="Helvetica,sans-Serif" font-size="10.00">glm/gtc/type_ptr.hpp</text>
</a>
</g>
</g>
<!-- Node14&#45;&gt;Node18 -->
<g id="edge20_Node000014_Node000018" class="edge">
<title>Node14&#45;&gt;Node18</title>
<g id="a_edge20_Node000014_Node000018"><a xlink:title=" ">
<path fill="none" stroke="#63b8ff" d="M969.07,-56.22C972.26,-55.8 975.42,-55.39 978.5,-55 1116.01,-37.61 1153.05,-35.87 1294.95,-19.05"/>
<polygon fill="#63b8ff" stroke="#63b8ff" points="1295.38,-22.52 1304.9,-17.87 1294.56,-15.57 1295.38,-22.52"/>
</a>
</g>
</g>
<!-- Node19 -->
<g id="Node000019" class="node">
<title>Node19</title>
<g id="a_Node000019"><a xlink:title=" ">
<polygon fill="#e0e0e0" stroke="#999999" points="1571,-19 1440,-19 1440,0 1571,0 1571,-19"/>
<text text-anchor="middle" x="1505.5" y="-7" font-family="Helvetica,sans-Serif" font-size="10.00">glm/gtx/quaternion.hpp</text>
</a>
</g>
</g>
<!-- Node14&#45;&gt;Node19 -->
<g id="edge21_Node000014_Node000019" class="edge">
<title>Node14&#45;&gt;Node19</title>
<g id="a_edge21_Node000014_Node000019"><a xlink:title=" ">
<path fill="none" stroke="#63b8ff" d="M969.06,-56.1C972.25,-55.71 975.42,-55.34 978.5,-55 1176.04,-33.41 1228.79,-38.36 1429.75,-19.14"/>
<polygon fill="#63b8ff" stroke="#63b8ff" points="1430.13,-22.62 1439.75,-18.17 1429.46,-15.65 1430.13,-22.62"/>
</a>
</g>
</g>
<!-- Node20 -->
<g id="Node000020" class="node">
<title>Node20</title>
<g id="a_Node000020"><a xlink:title=" ">
<polygon fill="#e0e0e0" stroke="#999999" points="1715.5,-19 1589.5,-19 1589.5,0 1715.5,0 1715.5,-19"/>
<text text-anchor="middle" x="1652.5" y="-7" font-family="Helvetica,sans-Serif" font-size="10.00">glm/gtx/transform.hpp</text>
</a>
</g>
</g>
<!-- Node14&#45;&gt;Node20 -->
<g id="edge22_Node000014_Node000020" class="edge">
<title>Node14&#45;&gt;Node20</title>
<g id="a_edge22_Node000014_Node000020"><a xlink:title=" ">
<path fill="none" stroke="#63b8ff" d="M969.05,-56.03C972.25,-55.65 975.41,-55.31 978.5,-55 1241.96,-28.81 1311.82,-42.38 1579.3,-19.05"/>
<polygon fill="#63b8ff" stroke="#63b8ff" points="1579.65,-22.53 1589.31,-18.17 1579.04,-15.56 1579.65,-22.53"/>
</a>
</g>
</g>
<!-- Node21 -->
<g id="Node000021" class="node">
<title>Node21</title>
<g id="a_Node000021"><a xlink:title=" ">
<polygon fill="#e0e0e0" stroke="#999999" points="798,-19 657,-19 657,0 798,0 798,-19"/>
<text text-anchor="middle" x="727.5" y="-7" font-family="Helvetica,sans-Serif" font-size="10.00">glm/gtx/vector_angle.hpp</text>
</a>
</g>
</g>
<!-- Node14&#45;&gt;Node21 -->
<g id="edge23_Node000014_Node000021" class="edge">
<title>Node14&#45;&gt;Node21</title>
<g id="a_edge23_Node000014_Node000021"><a xlink:title=" ">
<path fill="none" stroke="#63b8ff" d="M886.97,-54.98C854.8,-46.01 803.94,-31.82 768.33,-21.89"/>
<polygon fill="#63b8ff" stroke="#63b8ff" points="768.84,-18.4 758.27,-19.08 766.96,-25.14 768.84,-18.4"/>
</a>
</g>
</g>
<!-- Node22 -->
<g id="Node000022" class="node">
<title>Node22</title>
<g id="a_Node000022"><a xlink:title=" ">
<polygon fill="#e0e0e0" stroke="#999999" points="860.5,-19 816.5,-19 816.5,0 860.5,0 860.5,-19"/>
<text text-anchor="middle" x="838.5" y="-7" font-family="Helvetica,sans-Serif" font-size="10.00">bitset</text>
</a>
</g>
</g>
<!-- Node14&#45;&gt;Node22 -->
<g id="edge24_Node000014_Node000022" class="edge">
<title>Node14&#45;&gt;Node22</title>
<g id="a_edge24_Node000014_Node000022"><a xlink:title=" ">
<path fill="none" stroke="#63b8ff" d="M904.81,-54.98C892.67,-46.84 874.14,-34.41 859.75,-24.76"/>
<polygon fill="#63b8ff" stroke="#63b8ff" points="861.68,-21.84 851.42,-19.17 857.78,-27.65 861.68,-21.84"/>
</a>
</g>
</g>
</g>
</svg>
