<?xml version="1.0" encoding="UTF-8" standalone="no"?>
<!DOCTYPE svg PUBLIC "-//W3C//DTD SVG 1.1//EN"
 "http://www.w3.org/Graphics/SVG/1.1/DTD/svg11.dtd">
<!-- Generated by graphviz version 2.43.0 (0)
 -->
<!-- Title: App/Include/Application/TestHelpers.h Pages: 1 -->
<svg width="1135pt" height="313pt"
 viewBox="0.00 0.00 1135.00 313.00" xmlns="http://www.w3.org/2000/svg" xmlns:xlink="http://www.w3.org/1999/xlink">
<g id="graph0" class="graph" transform="scale(1 1) rotate(0) translate(4 309)">
<title>App/Include/Application/TestHelpers.h</title>
<!-- Node1 -->
<g id="Node000001" class="node">
<title>Node1</title>
<g id="a_Node000001"><a xlink:title=" ">
<polygon fill="#999999" stroke="#666666" points="716.5,-305 585.5,-305 585.5,-275 716.5,-275 716.5,-305"/>
<text text-anchor="start" x="593.5" y="-293" font-family="Helvetica,sans-Serif" font-size="10.00">App/Include/Application</text>
<text text-anchor="middle" x="651" y="-282" font-family="Helvetica,sans-Serif" font-size="10.00">/TestHelpers.h</text>
</a>
</g>
</g>
<!-- Node2 -->
<g id="Node000002" class="node">
<title>Node2</title>
<g id="a_Node000002"><a xlink:href="ExtraDataType_8h.html" target="_top" xlink:title=" ">
<polygon fill="white" stroke="#666666" points="940.5,-184 785.5,-184 785.5,-165 940.5,-165 940.5,-184"/>
<text text-anchor="middle" x="863" y="-172" font-family="Helvetica,sans-Serif" font-size="10.00">Application/ExtraDataType.h</text>
</a>
</g>
</g>
<!-- Node1&#45;&gt;Node2 -->
<g id="edge1_Node000001_Node000002" class="edge">
<title>Node1&#45;&gt;Node2</title>
<g id="a_edge1_Node000001_Node000002"><a xlink:title=" ">
<path fill="none" stroke="#63b8ff" d="M677.42,-274.85C718.63,-252.79 797.64,-210.49 837.98,-188.9"/>
<polygon fill="#63b8ff" stroke="#63b8ff" points="839.73,-191.93 846.89,-184.12 836.42,-185.76 839.73,-191.93"/>
</a>
</g>
</g>
<!-- Node16 -->
<g id="Node000016" class="node">
<title>Node16</title>
<g id="a_Node000016"><a xlink:href="Mesh_8h.html" target="_top" xlink:title=" ">
<polygon fill="white" stroke="#666666" points="649,-184 539,-184 539,-165 649,-165 649,-184"/>
<text text-anchor="middle" x="594" y="-172" font-family="Helvetica,sans-Serif" font-size="10.00">Application/Mesh.h</text>
</a>
</g>
</g>
<!-- Node1&#45;&gt;Node16 -->
<g id="edge15_Node000001_Node000016" class="edge">
<title>Node1&#45;&gt;Node16</title>
<g id="a_edge15_Node000001_Node000016"><a xlink:title=" ">
<path fill="none" stroke="#63b8ff" d="M648.97,-274.85C646.47,-260.41 641.37,-237.67 632,-220 626.43,-209.5 618.01,-199.3 610.52,-191.32"/>
<polygon fill="#63b8ff" stroke="#63b8ff" points="612.97,-188.83 603.47,-184.16 607.98,-193.74 612.97,-188.83"/>
</a>
</g>
</g>
<!-- Node23 -->
<g id="Node000023" class="node">
<title>Node23</title>
<g id="a_Node000023"><a xlink:href="PrimitiveProxy_8h.html" target="_top" xlink:title=" ">
<polygon fill="white" stroke="#666666" points="623,-239 469,-239 469,-220 623,-220 623,-239"/>
<text text-anchor="middle" x="546" y="-227" font-family="Helvetica,sans-Serif" font-size="10.00">Application/PrimitiveProxy.h</text>
</a>
</g>
</g>
<!-- Node1&#45;&gt;Node23 -->
<g id="edge26_Node000001_Node000023" class="edge">
<title>Node1&#45;&gt;Node23</title>
<g id="a_edge26_Node000001_Node000023"><a xlink:title=" ">
<path fill="none" stroke="#63b8ff" d="M625.85,-274.99C609.11,-265.66 587.23,-253.47 570.61,-244.21"/>
<polygon fill="#63b8ff" stroke="#63b8ff" points="571.95,-240.95 561.51,-239.14 568.54,-247.06 571.95,-240.95"/>
</a>
</g>
</g>
<!-- Node3 -->
<g id="Node000003" class="node">
<title>Node3</title>
<g id="a_Node000003"><a xlink:href="BaseTypes_8h.html" target="_top" xlink:title=" ">
<polygon fill="white" stroke="#666666" points="678.5,-74 575.5,-74 575.5,-55 678.5,-55 678.5,-74"/>
<text text-anchor="middle" x="627" y="-62" font-family="Helvetica,sans-Serif" font-size="10.00">Core/BaseTypes.h</text>
</a>
</g>
</g>
<!-- Node2&#45;&gt;Node3 -->
<g id="edge2_Node000002_Node000003" class="edge">
<title>Node2&#45;&gt;Node3</title>
<g id="a_edge2_Node000002_Node000003"><a xlink:title=" ">
<path fill="none" stroke="#63b8ff" d="M863.04,-164.65C862.6,-150.85 859.62,-124.3 844,-110 821.67,-89.56 744.72,-77.43 688.79,-71.12"/>
<polygon fill="#63b8ff" stroke="#63b8ff" points="688.93,-67.61 678.6,-70.01 688.17,-74.57 688.93,-67.61"/>
</a>
</g>
</g>
<!-- Node13 -->
<g id="Node000013" class="node">
<title>Node13</title>
<g id="a_Node000013"><a xlink:title=" ">
<polygon fill="#e0e0e0" stroke="#999999" points="771,-74 729,-74 729,-55 771,-55 771,-74"/>
<text text-anchor="middle" x="750" y="-62" font-family="Helvetica,sans-Serif" font-size="10.00">array</text>
</a>
</g>
</g>
<!-- Node2&#45;&gt;Node13 -->
<g id="edge12_Node000002_Node000013" class="edge">
<title>Node2&#45;&gt;Node13</title>
<g id="a_edge12_Node000002_Node000013"><a xlink:title=" ">
<path fill="none" stroke="#63b8ff" d="M868.81,-164.85C876.8,-151.78 888.89,-126.76 877,-110 855.48,-79.66 811.6,-69.84 781.5,-66.76"/>
<polygon fill="#63b8ff" stroke="#63b8ff" points="781.74,-63.27 771.49,-65.93 781.16,-70.25 781.74,-63.27"/>
</a>
</g>
</g>
<!-- Node14 -->
<g id="Node000014" class="node">
<title>Node14</title>
<g id="a_Node000014"><a xlink:title=" ">
<polygon fill="#e0e0e0" stroke="#999999" points="973,-129 929,-129 929,-110 973,-110 973,-129"/>
<text text-anchor="middle" x="951" y="-117" font-family="Helvetica,sans-Serif" font-size="10.00">string</text>
</a>
</g>
</g>
<!-- Node2&#45;&gt;Node14 -->
<g id="edge13_Node000002_Node000014" class="edge">
<title>Node2&#45;&gt;Node14</title>
<g id="a_edge13_Node000002_Node000014"><a xlink:title=" ">
<path fill="none" stroke="#63b8ff" d="M877.14,-164.98C890.79,-156.77 911.69,-144.18 927.78,-134.49"/>
<polygon fill="#63b8ff" stroke="#63b8ff" points="929.84,-137.33 936.6,-129.17 926.23,-131.33 929.84,-137.33"/>
</a>
</g>
</g>
<!-- Node15 -->
<g id="Node000015" class="node">
<title>Node15</title>
<g id="a_Node000015"><a xlink:title=" ">
<polygon fill="#e0e0e0" stroke="#999999" points="834.5,-129 787.5,-129 787.5,-110 834.5,-110 834.5,-129"/>
<text text-anchor="middle" x="811" y="-117" font-family="Helvetica,sans-Serif" font-size="10.00">vector</text>
</a>
</g>
</g>
<!-- Node2&#45;&gt;Node15 -->
<g id="edge14_Node000002_Node000015" class="edge">
<title>Node2&#45;&gt;Node15</title>
<g id="a_edge14_Node000002_Node000015"><a xlink:title=" ">
<path fill="none" stroke="#63b8ff" d="M854.41,-164.75C846.84,-157.03 835.62,-145.6 826.49,-136.28"/>
<polygon fill="#63b8ff" stroke="#63b8ff" points="828.93,-133.78 819.43,-129.09 823.93,-138.68 828.93,-133.78"/>
</a>
</g>
</g>
<!-- Node4 -->
<g id="Node000004" class="node">
<title>Node4</title>
<g id="a_Node000004"><a xlink:title=" ">
<polygon fill="#e0e0e0" stroke="#999999" points="78,-19 0,-19 0,0 78,0 78,-19"/>
<text text-anchor="middle" x="39" y="-7" font-family="Helvetica,sans-Serif" font-size="10.00">glm/glm.hpp</text>
</a>
</g>
</g>
<!-- Node3&#45;&gt;Node4 -->
<g id="edge3_Node000003_Node000004" class="edge">
<title>Node3&#45;&gt;Node4</title>
<g id="a_edge3_Node000003_Node000004"><a xlink:title=" ">
<path fill="none" stroke="#63b8ff" d="M575.36,-58.68C561.9,-57.45 547.41,-56.15 534,-55 338.72,-38.21 286.41,-44.2 88.4,-19.06"/>
<polygon fill="#63b8ff" stroke="#63b8ff" points="88.61,-15.56 78.25,-17.76 87.72,-22.5 88.61,-15.56"/>
</a>
</g>
</g>
<!-- Node5 -->
<g id="Node000005" class="node">
<title>Node5</title>
<g id="a_Node000005"><a xlink:title=" ">
<polygon fill="#e0e0e0" stroke="#999999" points="259.5,-19 96.5,-19 96.5,0 259.5,0 259.5,-19"/>
<text text-anchor="middle" x="178" y="-7" font-family="Helvetica,sans-Serif" font-size="10.00">glm/gtc/matrix_transform.hpp</text>
</a>
</g>
</g>
<!-- Node3&#45;&gt;Node5 -->
<g id="edge4_Node000003_Node000005" class="edge">
<title>Node3&#45;&gt;Node5</title>
<g id="a_edge4_Node000003_Node000005"><a xlink:title=" ">
<path fill="none" stroke="#63b8ff" d="M575.49,-57.42C498.45,-48.33 352.44,-31.09 260.45,-20.23"/>
<polygon fill="#63b8ff" stroke="#63b8ff" points="260.68,-16.73 250.33,-19.04 259.86,-23.69 260.68,-16.73"/>
</a>
</g>
</g>
<!-- Node6 -->
<g id="Node000006" class="node">
<title>Node6</title>
<g id="a_Node000006"><a xlink:title=" ">
<polygon fill="#e0e0e0" stroke="#999999" points="408,-19 278,-19 278,0 408,0 408,-19"/>
<text text-anchor="middle" x="343" y="-7" font-family="Helvetica,sans-Serif" font-size="10.00">glm/gtc/quaternion.hpp</text>
</a>
</g>
</g>
<!-- Node3&#45;&gt;Node6 -->
<g id="edge5_Node000003_Node000006" class="edge">
<title>Node3&#45;&gt;Node6</title>
<g id="a_edge5_Node000003_Node000006"><a xlink:title=" ">
<path fill="none" stroke="#63b8ff" d="M581.37,-54.98C531.73,-45.72 452.34,-30.9 398.97,-20.94"/>
<polygon fill="#63b8ff" stroke="#63b8ff" points="399.46,-17.48 388.99,-19.08 398.18,-24.36 399.46,-17.48"/>
</a>
</g>
</g>
<!-- Node7 -->
<g id="Node000007" class="node">
<title>Node7</title>
<g id="a_Node000007"><a xlink:title=" ">
<polygon fill="#e0e0e0" stroke="#999999" points="543.5,-19 426.5,-19 426.5,0 543.5,0 543.5,-19"/>
<text text-anchor="middle" x="485" y="-7" font-family="Helvetica,sans-Serif" font-size="10.00">glm/gtc/type_ptr.hpp</text>
</a>
</g>
</g>
<!-- Node3&#45;&gt;Node7 -->
<g id="edge6_Node000003_Node000007" class="edge">
<title>Node3&#45;&gt;Node7</title>
<g id="a_edge6_Node000003_Node000007"><a xlink:title=" ">
<path fill="none" stroke="#63b8ff" d="M604.19,-54.98C580.83,-46.27 544.3,-32.63 517.83,-22.75"/>
<polygon fill="#63b8ff" stroke="#63b8ff" points="518.82,-19.39 508.23,-19.17 516.37,-25.95 518.82,-19.39"/>
</a>
</g>
</g>
<!-- Node8 -->
<g id="Node000008" class="node">
<title>Node8</title>
<g id="a_Node000008"><a xlink:title=" ">
<polygon fill="#e0e0e0" stroke="#999999" points="692.5,-19 561.5,-19 561.5,0 692.5,0 692.5,-19"/>
<text text-anchor="middle" x="627" y="-7" font-family="Helvetica,sans-Serif" font-size="10.00">glm/gtx/quaternion.hpp</text>
</a>
</g>
</g>
<!-- Node3&#45;&gt;Node8 -->
<g id="edge7_Node000003_Node000008" class="edge">
<title>Node3&#45;&gt;Node8</title>
<g id="a_edge7_Node000003_Node000008"><a xlink:title=" ">
<path fill="none" stroke="#63b8ff" d="M627,-54.75C627,-47.8 627,-37.85 627,-29.13"/>
<polygon fill="#63b8ff" stroke="#63b8ff" points="630.5,-29.09 627,-19.09 623.5,-29.09 630.5,-29.09"/>
</a>
</g>
</g>
<!-- Node9 -->
<g id="Node000009" class="node">
<title>Node9</title>
<g id="a_Node000009"><a xlink:title=" ">
<polygon fill="#e0e0e0" stroke="#999999" points="837,-19 711,-19 711,0 837,0 837,-19"/>
<text text-anchor="middle" x="774" y="-7" font-family="Helvetica,sans-Serif" font-size="10.00">glm/gtx/transform.hpp</text>
</a>
</g>
</g>
<!-- Node3&#45;&gt;Node9 -->
<g id="edge8_Node000003_Node000009" class="edge">
<title>Node3&#45;&gt;Node9</title>
<g id="a_edge8_Node000003_Node000009"><a xlink:title=" ">
<path fill="none" stroke="#63b8ff" d="M650.62,-54.98C674.9,-46.23 712.95,-32.51 740.37,-22.62"/>
<polygon fill="#63b8ff" stroke="#63b8ff" points="741.73,-25.85 749.95,-19.17 739.36,-19.27 741.73,-25.85"/>
</a>
</g>
</g>
<!-- Node10 -->
<g id="Node000010" class="node">
<title>Node10</title>
<g id="a_Node000010"><a xlink:title=" ">
<polygon fill="#e0e0e0" stroke="#999999" points="996.5,-19 855.5,-19 855.5,0 996.5,0 996.5,-19"/>
<text text-anchor="middle" x="926" y="-7" font-family="Helvetica,sans-Serif" font-size="10.00">glm/gtx/vector_angle.hpp</text>
</a>
</g>
</g>
<!-- Node3&#45;&gt;Node10 -->
<g id="edge9_Node000003_Node000010" class="edge">
<title>Node3&#45;&gt;Node10</title>
<g id="a_edge9_Node000003_Node000010"><a xlink:title=" ">
<path fill="none" stroke="#63b8ff" d="M675.04,-54.98C727.41,-45.7 811.24,-30.84 867.43,-20.88"/>
<polygon fill="#63b8ff" stroke="#63b8ff" points="868.35,-24.27 877.58,-19.08 867.13,-17.38 868.35,-24.27"/>
</a>
</g>
</g>
<!-- Node11 -->
<g id="Node000011" class="node">
<title>Node11</title>
<g id="a_Node000011"><a xlink:title=" ">
<polygon fill="#e0e0e0" stroke="#999999" points="1059,-19 1015,-19 1015,0 1059,0 1059,-19"/>
<text text-anchor="middle" x="1037" y="-7" font-family="Helvetica,sans-Serif" font-size="10.00">bitset</text>
</a>
</g>
</g>
<!-- Node3&#45;&gt;Node11 -->
<g id="edge10_Node000003_Node000011" class="edge">
<title>Node3&#45;&gt;Node11</title>
<g id="a_edge10_Node000003_Node000011"><a xlink:title=" ">
<path fill="none" stroke="#63b8ff" d="M678.66,-58.41C763.28,-49.92 928.8,-32.61 1004.65,-18.94"/>
<polygon fill="#63b8ff" stroke="#63b8ff" points="1005.57,-22.33 1014.74,-17.03 1004.27,-15.45 1005.57,-22.33"/>
</a>
</g>
</g>
<!-- Node12 -->
<g id="Node000012" class="node">
<title>Node12</title>
<g id="a_Node000012"><a xlink:title=" ">
<polygon fill="#e0e0e0" stroke="#999999" points="1127,-19 1077,-19 1077,0 1127,0 1127,-19"/>
<text text-anchor="middle" x="1102" y="-7" font-family="Helvetica,sans-Serif" font-size="10.00">cstdint</text>
</a>
</g>
</g>
<!-- Node3&#45;&gt;Node12 -->
<g id="edge11_Node000003_Node000012" class="edge">
<title>Node3&#45;&gt;Node12</title>
<g id="a_edge11_Node000003_Node000012"><a xlink:title=" ">
<path fill="none" stroke="#63b8ff" d="M678.87,-58.69C780.84,-49.18 1002.43,-28.2 1066.72,-18.83"/>
<polygon fill="#63b8ff" stroke="#63b8ff" points="1067.51,-22.25 1076.84,-17.22 1066.41,-15.34 1067.51,-22.25"/>
</a>
</g>
</g>
<!-- Node16&#45;&gt;Node3 -->
<g id="edge23_Node000016_Node000003" class="edge">
<title>Node16&#45;&gt;Node3</title>
<g id="a_edge23_Node000016_Node000003"><a xlink:title=" ">
<path fill="none" stroke="#63b8ff" d="M582.48,-164.98C567.62,-152.89 544.93,-130.01 556,-110 563.84,-95.83 578.29,-85.57 592.11,-78.5"/>
<polygon fill="#63b8ff" stroke="#63b8ff" points="593.92,-81.52 601.49,-74.1 590.95,-75.18 593.92,-81.52"/>
</a>
</g>
</g>
<!-- Node16&#45;&gt;Node15 -->
<g id="edge25_Node000016_Node000015" class="edge">
<title>Node16&#45;&gt;Node15</title>
<g id="a_edge25_Node000016_Node000015"><a xlink:title=" ">
<path fill="none" stroke="#63b8ff" d="M630,-164.96C665.09,-156.6 720.22,-143.37 777.3,-129.15"/>
<polygon fill="#63b8ff" stroke="#63b8ff" points="778.36,-132.49 787.22,-126.67 776.67,-125.7 778.36,-132.49"/>
</a>
</g>
</g>
<!-- Node17 -->
<g id="Node000017" class="node">
<title>Node17</title>
<g id="a_Node000017"><a xlink:href="ExtraDataContainer_8h.html" target="_top" xlink:title=" ">
<polygon fill="white" stroke="#666666" points="470.5,-129 291.5,-129 291.5,-110 470.5,-110 470.5,-129"/>
<text text-anchor="middle" x="381" y="-117" font-family="Helvetica,sans-Serif" font-size="10.00">Application/ExtraDataContainer.h</text>
</a>
</g>
</g>
<!-- Node16&#45;&gt;Node17 -->
<g id="edge16_Node000016_Node000017" class="edge">
<title>Node16&#45;&gt;Node17</title>
<g id="a_edge16_Node000016_Node000017"><a xlink:title=" ">
<path fill="none" stroke="#63b8ff" d="M559.78,-164.98C523.24,-155.89 465.22,-141.46 425.24,-131.51"/>
<polygon fill="#63b8ff" stroke="#63b8ff" points="426.04,-128.1 415.49,-129.08 424.35,-134.89 426.04,-128.1"/>
</a>
</g>
</g>
<!-- Node21 -->
<g id="Node000021" class="node">
<title>Node21</title>
<g id="a_Node000021"><a xlink:href="Primitive_8h.html" target="_top" xlink:title=" ">
<polygon fill="white" stroke="#666666" points="769,-129 641,-129 641,-110 769,-110 769,-129"/>
<text text-anchor="middle" x="705" y="-117" font-family="Helvetica,sans-Serif" font-size="10.00">Application/Primitive.h</text>
</a>
</g>
</g>
<!-- Node16&#45;&gt;Node21 -->
<g id="edge20_Node000016_Node000021" class="edge">
<title>Node16&#45;&gt;Node21</title>
<g id="a_edge20_Node000016_Node000021"><a xlink:title=" ">
<path fill="none" stroke="#63b8ff" d="M611.83,-164.98C629.61,-156.5 657.15,-143.35 677.68,-133.54"/>
<polygon fill="#63b8ff" stroke="#63b8ff" points="679.33,-136.64 686.84,-129.17 676.31,-130.32 679.33,-136.64"/>
</a>
</g>
</g>
<!-- Node22 -->
<g id="Node000022" class="node">
<title>Node22</title>
<g id="a_Node000022"><a xlink:title=" ">
<polygon fill="#e0e0e0" stroke="#999999" points="623,-129 565,-129 565,-110 623,-110 623,-129"/>
<text text-anchor="middle" x="594" y="-117" font-family="Helvetica,sans-Serif" font-size="10.00">memory</text>
</a>
</g>
</g>
<!-- Node16&#45;&gt;Node22 -->
<g id="edge24_Node000016_Node000022" class="edge">
<title>Node16&#45;&gt;Node22</title>
<g id="a_edge24_Node000016_Node000022"><a xlink:title=" ">
<path fill="none" stroke="#63b8ff" d="M594,-164.75C594,-157.8 594,-147.85 594,-139.13"/>
<polygon fill="#63b8ff" stroke="#63b8ff" points="597.5,-139.09 594,-129.09 590.5,-139.09 597.5,-139.09"/>
</a>
</g>
</g>
<!-- Node18 -->
<g id="Node000018" class="node">
<title>Node18</title>
<g id="a_Node000018"><a xlink:title=" ">
<polygon fill="#e0e0e0" stroke="#999999" points="330.5,-74 295.5,-74 295.5,-55 330.5,-55 330.5,-74"/>
<text text-anchor="middle" x="313" y="-62" font-family="Helvetica,sans-Serif" font-size="10.00">any</text>
</a>
</g>
</g>
<!-- Node17&#45;&gt;Node18 -->
<g id="edge17_Node000017_Node000018" class="edge">
<title>Node17&#45;&gt;Node18</title>
<g id="a_edge17_Node000017_Node000018"><a xlink:title=" ">
<path fill="none" stroke="#63b8ff" d="M370.07,-109.98C359.92,-102.07 344.58,-90.11 332.35,-80.58"/>
<polygon fill="#63b8ff" stroke="#63b8ff" points="334.16,-77.56 324.12,-74.17 329.86,-83.08 334.16,-77.56"/>
</a>
</g>
</g>
<!-- Node19 -->
<g id="Node000019" class="node">
<title>Node19</title>
<g id="a_Node000019"><a xlink:title=" ">
<polygon fill="#e0e0e0" stroke="#999999" points="413.5,-74 348.5,-74 348.5,-55 413.5,-55 413.5,-74"/>
<text text-anchor="middle" x="381" y="-62" font-family="Helvetica,sans-Serif" font-size="10.00">typeindex</text>
</a>
</g>
</g>
<!-- Node17&#45;&gt;Node19 -->
<g id="edge18_Node000017_Node000019" class="edge">
<title>Node17&#45;&gt;Node19</title>
<g id="a_edge18_Node000017_Node000019"><a xlink:title=" ">
<path fill="none" stroke="#63b8ff" d="M381,-109.75C381,-102.8 381,-92.85 381,-84.13"/>
<polygon fill="#63b8ff" stroke="#63b8ff" points="384.5,-84.09 381,-74.09 377.5,-84.09 384.5,-84.09"/>
</a>
</g>
</g>
<!-- Node20 -->
<g id="Node000020" class="node">
<title>Node20</title>
<g id="a_Node000020"><a xlink:title=" ">
<polygon fill="#e0e0e0" stroke="#999999" points="524.5,-74 431.5,-74 431.5,-55 524.5,-55 524.5,-74"/>
<text text-anchor="middle" x="478" y="-62" font-family="Helvetica,sans-Serif" font-size="10.00">unordered_map</text>
</a>
</g>
</g>
<!-- Node17&#45;&gt;Node20 -->
<g id="edge19_Node000017_Node000020" class="edge">
<title>Node17&#45;&gt;Node20</title>
<g id="a_edge19_Node000017_Node000020"><a xlink:title=" ">
<path fill="none" stroke="#63b8ff" d="M396.58,-109.98C411.77,-101.69 435.1,-88.94 452.9,-79.22"/>
<polygon fill="#63b8ff" stroke="#63b8ff" points="455.03,-82.04 462.13,-74.17 451.68,-75.89 455.03,-82.04"/>
</a>
</g>
</g>
<!-- Node21&#45;&gt;Node3 -->
<g id="edge21_Node000021_Node000003" class="edge">
<title>Node21&#45;&gt;Node3</title>
<g id="a_edge21_Node000021_Node000003"><a xlink:title=" ">
<path fill="none" stroke="#63b8ff" d="M692.47,-109.98C680.6,-101.92 662.54,-89.65 648.39,-80.03"/>
<polygon fill="#63b8ff" stroke="#63b8ff" points="650,-76.9 639.76,-74.17 646.06,-82.69 650,-76.9"/>
</a>
</g>
</g>
<!-- Node21&#45;&gt;Node13 -->
<g id="edge22_Node000021_Node000013" class="edge">
<title>Node21&#45;&gt;Node13</title>
<g id="a_edge22_Node000021_Node000013"><a xlink:title=" ">
<path fill="none" stroke="#63b8ff" d="M712.43,-109.75C718.85,-102.18 728.31,-91.05 736.12,-81.84"/>
<polygon fill="#63b8ff" stroke="#63b8ff" points="738.9,-83.98 742.71,-74.09 733.57,-79.45 738.9,-83.98"/>
</a>
</g>
</g>
<!-- Node23&#45;&gt;Node3 -->
<g id="edge28_Node000023_Node000003" class="edge">
<title>Node23&#45;&gt;Node3</title>
<g id="a_edge28_Node000023_Node000003"><a xlink:title=" ">
<path fill="none" stroke="#63b8ff" d="M541.89,-219.88C537.94,-211.09 532.26,-196.94 530,-184 524.17,-150.55 527.32,-136.13 549,-110 560.62,-95.99 577.87,-85.5 593.19,-78.24"/>
<polygon fill="#63b8ff" stroke="#63b8ff" points="594.71,-81.4 602.42,-74.13 591.86,-75 594.71,-81.4"/>
</a>
</g>
</g>
<!-- Node23&#45;&gt;Node16 -->
<g id="edge27_Node000023_Node000016" class="edge">
<title>Node23&#45;&gt;Node16</title>
<g id="a_edge27_Node000023_Node000016"><a xlink:title=" ">
<path fill="none" stroke="#63b8ff" d="M553.93,-219.75C560.85,-212.11 571.07,-200.82 579.45,-191.56"/>
<polygon fill="#63b8ff" stroke="#63b8ff" points="582.1,-193.85 586.22,-184.09 576.91,-189.15 582.1,-193.85"/>
</a>
</g>
</g>
</g>
</svg>
